%TF.GenerationSoftware,KiCad,Pcbnew,5.1.8+dfsg1-1+b1*%
%TF.CreationDate,2021-03-06T12:09:01-06:00*%
%TF.ProjectId,driver,64726976-6572-42e6-9b69-6361645f7063,B*%
%TF.SameCoordinates,Original*%
%TF.FileFunction,Legend,Bot*%
%TF.FilePolarity,Positive*%
%FSLAX46Y46*%
G04 Gerber Fmt 4.6, Leading zero omitted, Abs format (unit mm)*
G04 Created by KiCad (PCBNEW 5.1.8+dfsg1-1+b1) date 2021-03-06 12:09:01*
%MOMM*%
%LPD*%
G01*
G04 APERTURE LIST*
%TA.AperFunction,Profile*%
%ADD10C,0.100000*%
%TD*%
%ADD11C,0.250000*%
%ADD12C,0.120000*%
%ADD13C,0.300000*%
%ADD14C,0.100000*%
%ADD15C,0.150000*%
G04 APERTURE END LIST*
D10*
X121920000Y-85090000D02*
G75*
G02*
X119380000Y-82550000I0J2540000D01*
G01*
X165100000Y-78740000D02*
X88900000Y-78740000D01*
X119380000Y-82550000D02*
G75*
G02*
X121920000Y-80010000I2540000J0D01*
G01*
X132080000Y-80010000D02*
G75*
G02*
X134620000Y-82550000I0J-2540000D01*
G01*
X134620000Y-82550000D02*
G75*
G02*
X132080000Y-85090000I-2540000J0D01*
G01*
X132080000Y-80010000D02*
X121920000Y-80010000D01*
X132080000Y-85090000D02*
X121920000Y-85090000D01*
X165100000Y-109220000D02*
X88900000Y-109220000D01*
X86360000Y-81280000D02*
X86360000Y-106680000D01*
X167640000Y-106680000D02*
X167640000Y-81280000D01*
X86360000Y-81280000D02*
G75*
G02*
X88900000Y-78740000I2540000J0D01*
G01*
X88900000Y-109220000D02*
G75*
G02*
X86360000Y-106680000I0J2540000D01*
G01*
X167640000Y-106680000D02*
G75*
G02*
X165100000Y-109220000I-2540000J0D01*
G01*
X165100000Y-78740000D02*
G75*
G02*
X167640000Y-81280000I0J-2540000D01*
G01*
D11*
X145692380Y-82127380D02*
X146025714Y-81651190D01*
X146263809Y-82127380D02*
X146263809Y-81127380D01*
X145882857Y-81127380D01*
X145787619Y-81175000D01*
X145740000Y-81222619D01*
X145692380Y-81317857D01*
X145692380Y-81460714D01*
X145740000Y-81555952D01*
X145787619Y-81603571D01*
X145882857Y-81651190D01*
X146263809Y-81651190D01*
X145263809Y-81603571D02*
X144930476Y-81603571D01*
X144787619Y-82127380D02*
X145263809Y-82127380D01*
X145263809Y-81127380D01*
X144787619Y-81127380D01*
X144501904Y-81127380D02*
X144168571Y-82127380D01*
X143835238Y-81127380D01*
X143501904Y-82127380D02*
X143501904Y-81127380D01*
X143073333Y-82079761D02*
X142930476Y-82127380D01*
X142692380Y-82127380D01*
X142597142Y-82079761D01*
X142549523Y-82032142D01*
X142501904Y-81936904D01*
X142501904Y-81841666D01*
X142549523Y-81746428D01*
X142597142Y-81698809D01*
X142692380Y-81651190D01*
X142882857Y-81603571D01*
X142978095Y-81555952D01*
X143025714Y-81508333D01*
X143073333Y-81413095D01*
X143073333Y-81317857D01*
X143025714Y-81222619D01*
X142978095Y-81175000D01*
X142882857Y-81127380D01*
X142644761Y-81127380D01*
X142501904Y-81175000D01*
X142073333Y-82127380D02*
X142073333Y-81127380D01*
X141406666Y-81127380D02*
X141216190Y-81127380D01*
X141120952Y-81175000D01*
X141025714Y-81270238D01*
X140978095Y-81460714D01*
X140978095Y-81794047D01*
X141025714Y-81984523D01*
X141120952Y-82079761D01*
X141216190Y-82127380D01*
X141406666Y-82127380D01*
X141501904Y-82079761D01*
X141597142Y-81984523D01*
X141644761Y-81794047D01*
X141644761Y-81460714D01*
X141597142Y-81270238D01*
X141501904Y-81175000D01*
X141406666Y-81127380D01*
X140549523Y-82127380D02*
X140549523Y-81127380D01*
X139978095Y-82127380D01*
X139978095Y-81127380D01*
X138406666Y-81603571D02*
X138263809Y-81651190D01*
X138216190Y-81698809D01*
X138168571Y-81794047D01*
X138168571Y-81936904D01*
X138216190Y-82032142D01*
X138263809Y-82079761D01*
X138359047Y-82127380D01*
X138740000Y-82127380D01*
X138740000Y-81127380D01*
X138406666Y-81127380D01*
X138311428Y-81175000D01*
X138263809Y-81222619D01*
X138216190Y-81317857D01*
X138216190Y-81413095D01*
X138263809Y-81508333D01*
X138311428Y-81555952D01*
X138406666Y-81603571D01*
X138740000Y-81603571D01*
X146811428Y-83877380D02*
X146811428Y-82877380D01*
X146478095Y-83591666D01*
X146144761Y-82877380D01*
X146144761Y-83877380D01*
X145716190Y-83591666D02*
X145240000Y-83591666D01*
X145811428Y-83877380D02*
X145478095Y-82877380D01*
X145144761Y-83877380D01*
X144240000Y-83877380D02*
X144573333Y-83401190D01*
X144811428Y-83877380D02*
X144811428Y-82877380D01*
X144430476Y-82877380D01*
X144335238Y-82925000D01*
X144287619Y-82972619D01*
X144240000Y-83067857D01*
X144240000Y-83210714D01*
X144287619Y-83305952D01*
X144335238Y-83353571D01*
X144430476Y-83401190D01*
X144811428Y-83401190D01*
X143240000Y-83782142D02*
X143287619Y-83829761D01*
X143430476Y-83877380D01*
X143525714Y-83877380D01*
X143668571Y-83829761D01*
X143763809Y-83734523D01*
X143811428Y-83639285D01*
X143859047Y-83448809D01*
X143859047Y-83305952D01*
X143811428Y-83115476D01*
X143763809Y-83020238D01*
X143668571Y-82925000D01*
X143525714Y-82877380D01*
X143430476Y-82877380D01*
X143287619Y-82925000D01*
X143240000Y-82972619D01*
X142811428Y-83877380D02*
X142811428Y-82877380D01*
X142811428Y-83353571D02*
X142240000Y-83353571D01*
X142240000Y-83877380D02*
X142240000Y-82877380D01*
X141049523Y-82972619D02*
X141001904Y-82925000D01*
X140906666Y-82877380D01*
X140668571Y-82877380D01*
X140573333Y-82925000D01*
X140525714Y-82972619D01*
X140478095Y-83067857D01*
X140478095Y-83163095D01*
X140525714Y-83305952D01*
X141097142Y-83877380D01*
X140478095Y-83877380D01*
X139859047Y-82877380D02*
X139763809Y-82877380D01*
X139668571Y-82925000D01*
X139620952Y-82972619D01*
X139573333Y-83067857D01*
X139525714Y-83258333D01*
X139525714Y-83496428D01*
X139573333Y-83686904D01*
X139620952Y-83782142D01*
X139668571Y-83829761D01*
X139763809Y-83877380D01*
X139859047Y-83877380D01*
X139954285Y-83829761D01*
X140001904Y-83782142D01*
X140049523Y-83686904D01*
X140097142Y-83496428D01*
X140097142Y-83258333D01*
X140049523Y-83067857D01*
X140001904Y-82972619D01*
X139954285Y-82925000D01*
X139859047Y-82877380D01*
X139144761Y-82972619D02*
X139097142Y-82925000D01*
X139001904Y-82877380D01*
X138763809Y-82877380D01*
X138668571Y-82925000D01*
X138620952Y-82972619D01*
X138573333Y-83067857D01*
X138573333Y-83163095D01*
X138620952Y-83305952D01*
X139192380Y-83877380D01*
X138573333Y-83877380D01*
X137620952Y-83877380D02*
X138192380Y-83877380D01*
X137906666Y-83877380D02*
X137906666Y-82877380D01*
X138001904Y-83020238D01*
X138097142Y-83115476D01*
X138192380Y-83163095D01*
D12*
%TO.C,R4*%
X155850000Y-87087064D02*
X155850000Y-85632936D01*
X154030000Y-87087064D02*
X154030000Y-85632936D01*
%TO.C,R3*%
X103597064Y-79100000D02*
X102142936Y-79100000D01*
X103597064Y-80920000D02*
X102142936Y-80920000D01*
%TO.C,R1*%
X154030000Y-91982936D02*
X154030000Y-93437064D01*
X155850000Y-91982936D02*
X155850000Y-93437064D01*
D13*
%TO.C,U2*%
X141500000Y-107755000D02*
X141500000Y-107755000D01*
X141500000Y-107655000D02*
X141500000Y-107655000D01*
D14*
X111100000Y-107305000D02*
X142900000Y-107305000D01*
X111100000Y-87005000D02*
X111100000Y-107305000D01*
X142900000Y-87005000D02*
X111100000Y-87005000D01*
X142900000Y-107305000D02*
X142900000Y-87005000D01*
D13*
X141500000Y-107655000D02*
G75*
G03*
X141500000Y-107755000I0J-50000D01*
G01*
X141500000Y-107755000D02*
G75*
G03*
X141500000Y-107655000I0J50000D01*
G01*
%TD*%
%TO.C,R4*%
D15*
X157297380Y-86193333D02*
X156821190Y-85860000D01*
X157297380Y-85621904D02*
X156297380Y-85621904D01*
X156297380Y-86002857D01*
X156345000Y-86098095D01*
X156392619Y-86145714D01*
X156487857Y-86193333D01*
X156630714Y-86193333D01*
X156725952Y-86145714D01*
X156773571Y-86098095D01*
X156821190Y-86002857D01*
X156821190Y-85621904D01*
X156630714Y-87050476D02*
X157297380Y-87050476D01*
X156249761Y-86812380D02*
X156964047Y-86574285D01*
X156964047Y-87193333D01*
%TO.C,R3*%
X103036666Y-83002380D02*
X103370000Y-82526190D01*
X103608095Y-83002380D02*
X103608095Y-82002380D01*
X103227142Y-82002380D01*
X103131904Y-82050000D01*
X103084285Y-82097619D01*
X103036666Y-82192857D01*
X103036666Y-82335714D01*
X103084285Y-82430952D01*
X103131904Y-82478571D01*
X103227142Y-82526190D01*
X103608095Y-82526190D01*
X102703333Y-82002380D02*
X102084285Y-82002380D01*
X102417619Y-82383333D01*
X102274761Y-82383333D01*
X102179523Y-82430952D01*
X102131904Y-82478571D01*
X102084285Y-82573809D01*
X102084285Y-82811904D01*
X102131904Y-82907142D01*
X102179523Y-82954761D01*
X102274761Y-83002380D01*
X102560476Y-83002380D01*
X102655714Y-82954761D01*
X102703333Y-82907142D01*
%TO.C,R1*%
X157297380Y-92543333D02*
X156821190Y-92210000D01*
X157297380Y-91971904D02*
X156297380Y-91971904D01*
X156297380Y-92352857D01*
X156345000Y-92448095D01*
X156392619Y-92495714D01*
X156487857Y-92543333D01*
X156630714Y-92543333D01*
X156725952Y-92495714D01*
X156773571Y-92448095D01*
X156821190Y-92352857D01*
X156821190Y-91971904D01*
X157297380Y-93495714D02*
X157297380Y-92924285D01*
X157297380Y-93210000D02*
X156297380Y-93210000D01*
X156440238Y-93114761D01*
X156535476Y-93019523D01*
X156583095Y-92924285D01*
%TO.C,U2*%
X144906904Y-87082380D02*
X144906904Y-87891904D01*
X144859285Y-87987142D01*
X144811666Y-88034761D01*
X144716428Y-88082380D01*
X144525952Y-88082380D01*
X144430714Y-88034761D01*
X144383095Y-87987142D01*
X144335476Y-87891904D01*
X144335476Y-87082380D01*
X143906904Y-87177619D02*
X143859285Y-87130000D01*
X143764047Y-87082380D01*
X143525952Y-87082380D01*
X143430714Y-87130000D01*
X143383095Y-87177619D01*
X143335476Y-87272857D01*
X143335476Y-87368095D01*
X143383095Y-87510952D01*
X143954523Y-88082380D01*
X143335476Y-88082380D01*
%TD*%
M02*
