%TF.GenerationSoftware,KiCad,Pcbnew,5.1.9+dfsg1-1*%
%TF.CreationDate,2021-01-24T22:19:11-06:00*%
%TF.ProjectId,driver,64726976-6572-42e6-9b69-6361645f7063,1.0.0*%
%TF.SameCoordinates,Original*%
%TF.FileFunction,Soldermask,Top*%
%TF.FilePolarity,Negative*%
%FSLAX46Y46*%
G04 Gerber Fmt 4.6, Leading zero omitted, Abs format (unit mm)*
G04 Created by KiCad (PCBNEW 5.1.9+dfsg1-1) date 2021-01-24 22:19:11*
%MOMM*%
%LPD*%
G01*
G04 APERTURE LIST*
%TA.AperFunction,Profile*%
%ADD10C,0.100000*%
%TD*%
%ADD11R,2.500000X2.500000*%
%ADD12O,1.750000X1.200000*%
%ADD13C,3.700000*%
%ADD14C,1.300000*%
%ADD15R,3.500000X3.500000*%
%ADD16O,1.600000X1.600000*%
%ADD17R,1.600000X1.600000*%
%ADD18O,1.700000X1.700000*%
%ADD19R,1.700000X1.700000*%
G04 APERTURE END LIST*
D10*
X121920000Y-85090000D02*
G75*
G02*
X119380000Y-82550000I0J2540000D01*
G01*
X165100000Y-78740000D02*
X88900000Y-78740000D01*
X119380000Y-82550000D02*
G75*
G02*
X121920000Y-80010000I2540000J0D01*
G01*
X132080000Y-80010000D02*
G75*
G02*
X134620000Y-82550000I0J-2540000D01*
G01*
X134620000Y-82550000D02*
G75*
G02*
X132080000Y-85090000I-2540000J0D01*
G01*
X132080000Y-80010000D02*
X121920000Y-80010000D01*
X132080000Y-85090000D02*
X121920000Y-85090000D01*
X165100000Y-109220000D02*
X88900000Y-109220000D01*
X86360000Y-81280000D02*
X86360000Y-106680000D01*
X167640000Y-106680000D02*
X167640000Y-81280000D01*
X86360000Y-81280000D02*
G75*
G02*
X88900000Y-78740000I2540000J0D01*
G01*
X88900000Y-109220000D02*
G75*
G02*
X86360000Y-106680000I0J2540000D01*
G01*
X167640000Y-106680000D02*
G75*
G02*
X165100000Y-109220000I-2540000J0D01*
G01*
X165100000Y-78740000D02*
G75*
G02*
X167640000Y-81280000I0J-2540000D01*
G01*
D11*
%TO.C,PS1*%
X154090000Y-81630000D03*
X143090000Y-81630000D03*
X143090000Y-93630000D03*
X154090000Y-93630000D03*
%TD*%
D12*
%TO.C,J1*%
X161290000Y-84900000D03*
X161290000Y-86900000D03*
X161290000Y-88900000D03*
G36*
G01*
X161915001Y-91500000D02*
X160664999Y-91500000D01*
G75*
G02*
X160415000Y-91250001I0J249999D01*
G01*
X160415000Y-90549999D01*
G75*
G02*
X160664999Y-90300000I249999J0D01*
G01*
X161915001Y-90300000D01*
G75*
G02*
X162165000Y-90549999I0J-249999D01*
G01*
X162165000Y-91250001D01*
G75*
G02*
X161915001Y-91500000I-249999J0D01*
G01*
G37*
%TD*%
%TO.C,R5*%
G36*
G01*
X136790000Y-94605000D02*
X136790000Y-93355000D01*
G75*
G02*
X137040000Y-93105000I250000J0D01*
G01*
X137840000Y-93105000D01*
G75*
G02*
X138090000Y-93355000I0J-250000D01*
G01*
X138090000Y-94605000D01*
G75*
G02*
X137840000Y-94855000I-250000J0D01*
G01*
X137040000Y-94855000D01*
G75*
G02*
X136790000Y-94605000I0J250000D01*
G01*
G37*
G36*
G01*
X133690000Y-94605000D02*
X133690000Y-93355000D01*
G75*
G02*
X133940000Y-93105000I250000J0D01*
G01*
X134740000Y-93105000D01*
G75*
G02*
X134990000Y-93355000I0J-250000D01*
G01*
X134990000Y-94605000D01*
G75*
G02*
X134740000Y-94855000I-250000J0D01*
G01*
X133940000Y-94855000D01*
G75*
G02*
X133690000Y-94605000I0J250000D01*
G01*
G37*
%TD*%
%TO.C,R2*%
G36*
G01*
X119010000Y-94605000D02*
X119010000Y-93355000D01*
G75*
G02*
X119260000Y-93105000I250000J0D01*
G01*
X120060000Y-93105000D01*
G75*
G02*
X120310000Y-93355000I0J-250000D01*
G01*
X120310000Y-94605000D01*
G75*
G02*
X120060000Y-94855000I-250000J0D01*
G01*
X119260000Y-94855000D01*
G75*
G02*
X119010000Y-94605000I0J250000D01*
G01*
G37*
G36*
G01*
X115910000Y-94605000D02*
X115910000Y-93355000D01*
G75*
G02*
X116160000Y-93105000I250000J0D01*
G01*
X116960000Y-93105000D01*
G75*
G02*
X117210000Y-93355000I0J-250000D01*
G01*
X117210000Y-94605000D01*
G75*
G02*
X116960000Y-94855000I-250000J0D01*
G01*
X116160000Y-94855000D01*
G75*
G02*
X115910000Y-94605000I0J250000D01*
G01*
G37*
%TD*%
%TO.C,C3*%
G36*
G01*
X137530000Y-80629999D02*
X137530000Y-81930001D01*
G75*
G02*
X137280001Y-82180000I-249999J0D01*
G01*
X136454999Y-82180000D01*
G75*
G02*
X136205000Y-81930001I0J249999D01*
G01*
X136205000Y-80629999D01*
G75*
G02*
X136454999Y-80380000I249999J0D01*
G01*
X137280001Y-80380000D01*
G75*
G02*
X137530000Y-80629999I0J-249999D01*
G01*
G37*
G36*
G01*
X140655000Y-80629999D02*
X140655000Y-81930001D01*
G75*
G02*
X140405001Y-82180000I-249999J0D01*
G01*
X139579999Y-82180000D01*
G75*
G02*
X139330000Y-81930001I0J249999D01*
G01*
X139330000Y-80629999D01*
G75*
G02*
X139579999Y-80380000I249999J0D01*
G01*
X140405001Y-80380000D01*
G75*
G02*
X140655000Y-80629999I0J-249999D01*
G01*
G37*
%TD*%
%TO.C,C2*%
G36*
G01*
X154570000Y-107330001D02*
X154570000Y-106029999D01*
G75*
G02*
X154819999Y-105780000I249999J0D01*
G01*
X155645001Y-105780000D01*
G75*
G02*
X155895000Y-106029999I0J-249999D01*
G01*
X155895000Y-107330001D01*
G75*
G02*
X155645001Y-107580000I-249999J0D01*
G01*
X154819999Y-107580000D01*
G75*
G02*
X154570000Y-107330001I0J249999D01*
G01*
G37*
G36*
G01*
X151445000Y-107330001D02*
X151445000Y-106029999D01*
G75*
G02*
X151694999Y-105780000I249999J0D01*
G01*
X152520001Y-105780000D01*
G75*
G02*
X152770000Y-106029999I0J-249999D01*
G01*
X152770000Y-107330001D01*
G75*
G02*
X152520001Y-107580000I-249999J0D01*
G01*
X151694999Y-107580000D01*
G75*
G02*
X151445000Y-107330001I0J249999D01*
G01*
G37*
%TD*%
%TO.C,D1*%
G36*
G01*
X136665000Y-99685000D02*
X136665000Y-98435000D01*
G75*
G02*
X136915000Y-98185000I250000J0D01*
G01*
X137665000Y-98185000D01*
G75*
G02*
X137915000Y-98435000I0J-250000D01*
G01*
X137915000Y-99685000D01*
G75*
G02*
X137665000Y-99935000I-250000J0D01*
G01*
X136915000Y-99935000D01*
G75*
G02*
X136665000Y-99685000I0J250000D01*
G01*
G37*
G36*
G01*
X133865000Y-99685000D02*
X133865000Y-98435000D01*
G75*
G02*
X134115000Y-98185000I250000J0D01*
G01*
X134865000Y-98185000D01*
G75*
G02*
X135115000Y-98435000I0J-250000D01*
G01*
X135115000Y-99685000D01*
G75*
G02*
X134865000Y-99935000I-250000J0D01*
G01*
X134115000Y-99935000D01*
G75*
G02*
X133865000Y-99685000I0J250000D01*
G01*
G37*
%TD*%
D13*
%TO.C,REF\u002A\u002A*%
X152400000Y-101600000D03*
%TD*%
%TO.C,REF\u002A\u002A*%
X101600000Y-101600000D03*
%TD*%
D14*
%TO.C,J6*%
X140970000Y-89535000D03*
X138430000Y-89535000D03*
X133350000Y-89535000D03*
X115570000Y-89535000D03*
X113030000Y-89535000D03*
X113030000Y-104775000D03*
X115570000Y-104775000D03*
X138430000Y-104775000D03*
X140970000Y-104775000D03*
%TD*%
D15*
%TO.C,J4*%
X95250000Y-101600000D03*
G36*
G01*
X87750000Y-102600000D02*
X87750000Y-100600000D01*
G75*
G02*
X88500000Y-99850000I750000J0D01*
G01*
X90000000Y-99850000D01*
G75*
G02*
X90750000Y-100600000I0J-750000D01*
G01*
X90750000Y-102600000D01*
G75*
G02*
X90000000Y-103350000I-750000J0D01*
G01*
X88500000Y-103350000D01*
G75*
G02*
X87750000Y-102600000I0J750000D01*
G01*
G37*
G36*
G01*
X90500000Y-107175000D02*
X90500000Y-105425000D01*
G75*
G02*
X91375000Y-104550000I875000J0D01*
G01*
X93125000Y-104550000D01*
G75*
G02*
X94000000Y-105425000I0J-875000D01*
G01*
X94000000Y-107175000D01*
G75*
G02*
X93125000Y-108050000I-875000J0D01*
G01*
X91375000Y-108050000D01*
G75*
G02*
X90500000Y-107175000I0J875000D01*
G01*
G37*
%TD*%
%TO.C,J3*%
G36*
G01*
X163500000Y-96025000D02*
X163500000Y-97775000D01*
G75*
G02*
X162625000Y-98650000I-875000J0D01*
G01*
X160875000Y-98650000D01*
G75*
G02*
X160000000Y-97775000I0J875000D01*
G01*
X160000000Y-96025000D01*
G75*
G02*
X160875000Y-95150000I875000J0D01*
G01*
X162625000Y-95150000D01*
G75*
G02*
X163500000Y-96025000I0J-875000D01*
G01*
G37*
G36*
G01*
X166250000Y-100600000D02*
X166250000Y-102600000D01*
G75*
G02*
X165500000Y-103350000I-750000J0D01*
G01*
X164000000Y-103350000D01*
G75*
G02*
X163250000Y-102600000I0J750000D01*
G01*
X163250000Y-100600000D01*
G75*
G02*
X164000000Y-99850000I750000J0D01*
G01*
X165500000Y-99850000D01*
G75*
G02*
X166250000Y-100600000I0J-750000D01*
G01*
G37*
X158750000Y-101600000D03*
%TD*%
%TO.C,D2*%
G36*
G01*
X118885000Y-99685000D02*
X118885000Y-98435000D01*
G75*
G02*
X119135000Y-98185000I250000J0D01*
G01*
X119885000Y-98185000D01*
G75*
G02*
X120135000Y-98435000I0J-250000D01*
G01*
X120135000Y-99685000D01*
G75*
G02*
X119885000Y-99935000I-250000J0D01*
G01*
X119135000Y-99935000D01*
G75*
G02*
X118885000Y-99685000I0J250000D01*
G01*
G37*
G36*
G01*
X116085000Y-99685000D02*
X116085000Y-98435000D01*
G75*
G02*
X116335000Y-98185000I250000J0D01*
G01*
X117085000Y-98185000D01*
G75*
G02*
X117335000Y-98435000I0J-250000D01*
G01*
X117335000Y-99685000D01*
G75*
G02*
X117085000Y-99935000I-250000J0D01*
G01*
X116335000Y-99935000D01*
G75*
G02*
X116085000Y-99685000I0J250000D01*
G01*
G37*
%TD*%
D12*
%TO.C,J2*%
X92710000Y-90900000D03*
X92710000Y-88900000D03*
X92710000Y-86900000D03*
G36*
G01*
X92084999Y-84300000D02*
X93335001Y-84300000D01*
G75*
G02*
X93585000Y-84549999I0J-249999D01*
G01*
X93585000Y-85250001D01*
G75*
G02*
X93335001Y-85500000I-249999J0D01*
G01*
X92084999Y-85500000D01*
G75*
G02*
X91835000Y-85250001I0J249999D01*
G01*
X91835000Y-84549999D01*
G75*
G02*
X92084999Y-84300000I249999J0D01*
G01*
G37*
%TD*%
D16*
%TO.C,U1*%
X106680000Y-82550000D03*
X99060000Y-90170000D03*
X106680000Y-85090000D03*
X99060000Y-87630000D03*
X106680000Y-87630000D03*
X99060000Y-85090000D03*
X106680000Y-90170000D03*
D17*
X99060000Y-82550000D03*
%TD*%
D18*
%TO.C,J5*%
X146050000Y-99060000D03*
X146050000Y-101600000D03*
X146050000Y-104140000D03*
D19*
X146050000Y-106680000D03*
%TD*%
%TO.C,J7*%
X113030000Y-82550000D03*
D18*
X115570000Y-82550000D03*
%TD*%
M02*
