%TF.GenerationSoftware,KiCad,Pcbnew,5.1.8+dfsg1-1+b1*%
%TF.CreationDate,2021-01-25T11:41:01-06:00*%
%TF.ProjectId,driver,64726976-6572-42e6-9b69-6361645f7063,1.0.0*%
%TF.SameCoordinates,Original*%
%TF.FileFunction,Legend,Top*%
%TF.FilePolarity,Positive*%
%FSLAX46Y46*%
G04 Gerber Fmt 4.6, Leading zero omitted, Abs format (unit mm)*
G04 Created by KiCad (PCBNEW 5.1.8+dfsg1-1+b1) date 2021-01-25 11:41:01*
%MOMM*%
%LPD*%
G01*
G04 APERTURE LIST*
%ADD10C,0.150000*%
%ADD11C,0.317500*%
%TA.AperFunction,Profile*%
%ADD12C,0.100000*%
%TD*%
%ADD13C,0.120000*%
%ADD14C,0.127000*%
%ADD15C,0.200000*%
%ADD16C,0.010000*%
G04 APERTURE END LIST*
D10*
X145351904Y-87082380D02*
X145685238Y-88082380D01*
X146018571Y-87082380D01*
X146256666Y-87082380D02*
X146923333Y-88082380D01*
X146923333Y-87082380D02*
X146256666Y-88082380D01*
X147494761Y-87082380D02*
X147685238Y-87082380D01*
X147780476Y-87130000D01*
X147875714Y-87225238D01*
X147923333Y-87415714D01*
X147923333Y-87749047D01*
X147875714Y-87939523D01*
X147780476Y-88034761D01*
X147685238Y-88082380D01*
X147494761Y-88082380D01*
X147399523Y-88034761D01*
X147304285Y-87939523D01*
X147256666Y-87749047D01*
X147256666Y-87415714D01*
X147304285Y-87225238D01*
X147399523Y-87130000D01*
X147494761Y-87082380D01*
X148256666Y-87082380D02*
X148923333Y-87082380D01*
X148494761Y-88082380D01*
X149447142Y-87510952D02*
X149351904Y-87463333D01*
X149304285Y-87415714D01*
X149256666Y-87320476D01*
X149256666Y-87272857D01*
X149304285Y-87177619D01*
X149351904Y-87130000D01*
X149447142Y-87082380D01*
X149637619Y-87082380D01*
X149732857Y-87130000D01*
X149780476Y-87177619D01*
X149828095Y-87272857D01*
X149828095Y-87320476D01*
X149780476Y-87415714D01*
X149732857Y-87463333D01*
X149637619Y-87510952D01*
X149447142Y-87510952D01*
X149351904Y-87558571D01*
X149304285Y-87606190D01*
X149256666Y-87701428D01*
X149256666Y-87891904D01*
X149304285Y-87987142D01*
X149351904Y-88034761D01*
X149447142Y-88082380D01*
X149637619Y-88082380D01*
X149732857Y-88034761D01*
X149780476Y-87987142D01*
X149828095Y-87891904D01*
X149828095Y-87701428D01*
X149780476Y-87606190D01*
X149732857Y-87558571D01*
X149637619Y-87510952D01*
X150447142Y-87082380D02*
X150542380Y-87082380D01*
X150637619Y-87130000D01*
X150685238Y-87177619D01*
X150732857Y-87272857D01*
X150780476Y-87463333D01*
X150780476Y-87701428D01*
X150732857Y-87891904D01*
X150685238Y-87987142D01*
X150637619Y-88034761D01*
X150542380Y-88082380D01*
X150447142Y-88082380D01*
X150351904Y-88034761D01*
X150304285Y-87987142D01*
X150256666Y-87891904D01*
X150209047Y-87701428D01*
X150209047Y-87463333D01*
X150256666Y-87272857D01*
X150304285Y-87177619D01*
X150351904Y-87130000D01*
X150447142Y-87082380D01*
X151685238Y-87082380D02*
X151209047Y-87082380D01*
X151161428Y-87558571D01*
X151209047Y-87510952D01*
X151304285Y-87463333D01*
X151542380Y-87463333D01*
X151637619Y-87510952D01*
X151685238Y-87558571D01*
X151732857Y-87653809D01*
X151732857Y-87891904D01*
X151685238Y-87987142D01*
X151637619Y-88034761D01*
X151542380Y-88082380D01*
X151304285Y-88082380D01*
X151209047Y-88034761D01*
X151161428Y-87987142D01*
X143438571Y-103679523D02*
X143438571Y-104012857D01*
X143962380Y-104012857D02*
X142962380Y-104012857D01*
X142962380Y-103536666D01*
X143676666Y-103203333D02*
X143676666Y-102727142D01*
X143962380Y-103298571D02*
X142962380Y-102965238D01*
X143962380Y-102631904D01*
X143962380Y-102298571D02*
X142962380Y-102298571D01*
X143962380Y-101727142D01*
X142962380Y-101727142D01*
X148090000Y-107441904D02*
X148042380Y-107537142D01*
X148042380Y-107680000D01*
X148090000Y-107822857D01*
X148185238Y-107918095D01*
X148280476Y-107965714D01*
X148470952Y-108013333D01*
X148613809Y-108013333D01*
X148804285Y-107965714D01*
X148899523Y-107918095D01*
X148994761Y-107822857D01*
X149042380Y-107680000D01*
X149042380Y-107584761D01*
X148994761Y-107441904D01*
X148947142Y-107394285D01*
X148613809Y-107394285D01*
X148613809Y-107584761D01*
X149042380Y-106965714D02*
X148042380Y-106965714D01*
X149042380Y-106394285D01*
X148042380Y-106394285D01*
X149042380Y-105918095D02*
X148042380Y-105918095D01*
X148042380Y-105680000D01*
X148090000Y-105537142D01*
X148185238Y-105441904D01*
X148280476Y-105394285D01*
X148470952Y-105346666D01*
X148613809Y-105346666D01*
X148804285Y-105394285D01*
X148899523Y-105441904D01*
X148994761Y-105537142D01*
X149042380Y-105680000D01*
X149042380Y-105918095D01*
X112649047Y-85161428D02*
X113410952Y-85161428D01*
X115189047Y-85161428D02*
X115950952Y-85161428D01*
X115570000Y-85542380D02*
X115570000Y-84780476D01*
X117133809Y-102052380D02*
X117133809Y-101052380D01*
X117562380Y-101147619D02*
X117610000Y-101100000D01*
X117705238Y-101052380D01*
X117943333Y-101052380D01*
X118038571Y-101100000D01*
X118086190Y-101147619D01*
X118133809Y-101242857D01*
X118133809Y-101338095D01*
X118086190Y-101480952D01*
X117514761Y-102052380D01*
X118133809Y-102052380D01*
X119133809Y-101957142D02*
X119086190Y-102004761D01*
X118943333Y-102052380D01*
X118848095Y-102052380D01*
X118705238Y-102004761D01*
X118610000Y-101909523D01*
X118562380Y-101814285D01*
X118514761Y-101623809D01*
X118514761Y-101480952D01*
X118562380Y-101290476D01*
X118610000Y-101195238D01*
X118705238Y-101100000D01*
X118848095Y-101052380D01*
X118943333Y-101052380D01*
X119086190Y-101100000D01*
X119133809Y-101147619D01*
X133580476Y-102052380D02*
X133580476Y-101052380D01*
X133961428Y-101052380D01*
X134056666Y-101100000D01*
X134104285Y-101147619D01*
X134151904Y-101242857D01*
X134151904Y-101385714D01*
X134104285Y-101480952D01*
X134056666Y-101528571D01*
X133961428Y-101576190D01*
X133580476Y-101576190D01*
X134770952Y-101052380D02*
X134961428Y-101052380D01*
X135056666Y-101100000D01*
X135151904Y-101195238D01*
X135199523Y-101385714D01*
X135199523Y-101719047D01*
X135151904Y-101909523D01*
X135056666Y-102004761D01*
X134961428Y-102052380D01*
X134770952Y-102052380D01*
X134675714Y-102004761D01*
X134580476Y-101909523D01*
X134532857Y-101719047D01*
X134532857Y-101385714D01*
X134580476Y-101195238D01*
X134675714Y-101100000D01*
X134770952Y-101052380D01*
X135532857Y-101052380D02*
X135770952Y-102052380D01*
X135961428Y-101338095D01*
X136151904Y-102052380D01*
X136390000Y-101052380D01*
X136770952Y-101528571D02*
X137104285Y-101528571D01*
X137247142Y-102052380D02*
X136770952Y-102052380D01*
X136770952Y-101052380D01*
X137247142Y-101052380D01*
X138247142Y-102052380D02*
X137913809Y-101576190D01*
X137675714Y-102052380D02*
X137675714Y-101052380D01*
X138056666Y-101052380D01*
X138151904Y-101100000D01*
X138199523Y-101147619D01*
X138247142Y-101242857D01*
X138247142Y-101385714D01*
X138199523Y-101480952D01*
X138151904Y-101528571D01*
X138056666Y-101576190D01*
X137675714Y-101576190D01*
X98584047Y-106942380D02*
X98012619Y-106942380D01*
X98298333Y-106942380D02*
X98298333Y-105942380D01*
X98203095Y-106085238D01*
X98107857Y-106180476D01*
X98012619Y-106228095D01*
X98965000Y-106037619D02*
X99012619Y-105990000D01*
X99107857Y-105942380D01*
X99345952Y-105942380D01*
X99441190Y-105990000D01*
X99488809Y-106037619D01*
X99536428Y-106132857D01*
X99536428Y-106228095D01*
X99488809Y-106370952D01*
X98917380Y-106942380D01*
X99536428Y-106942380D01*
X100584047Y-105942380D02*
X100917380Y-106942380D01*
X101250714Y-105942380D01*
X102345952Y-106942380D02*
X102345952Y-105942380D01*
X102584047Y-105942380D01*
X102726904Y-105990000D01*
X102822142Y-106085238D01*
X102869761Y-106180476D01*
X102917380Y-106370952D01*
X102917380Y-106513809D01*
X102869761Y-106704285D01*
X102822142Y-106799523D01*
X102726904Y-106894761D01*
X102584047Y-106942380D01*
X102345952Y-106942380D01*
X103917380Y-106847142D02*
X103869761Y-106894761D01*
X103726904Y-106942380D01*
X103631666Y-106942380D01*
X103488809Y-106894761D01*
X103393571Y-106799523D01*
X103345952Y-106704285D01*
X103298333Y-106513809D01*
X103298333Y-106370952D01*
X103345952Y-106180476D01*
X103393571Y-106085238D01*
X103488809Y-105990000D01*
X103631666Y-105942380D01*
X103726904Y-105942380D01*
X103869761Y-105990000D01*
X103917380Y-106037619D01*
X95345952Y-108497142D02*
X95298333Y-108544761D01*
X95155476Y-108592380D01*
X95060238Y-108592380D01*
X94917380Y-108544761D01*
X94822142Y-108449523D01*
X94774523Y-108354285D01*
X94726904Y-108163809D01*
X94726904Y-108020952D01*
X94774523Y-107830476D01*
X94822142Y-107735238D01*
X94917380Y-107640000D01*
X95060238Y-107592380D01*
X95155476Y-107592380D01*
X95298333Y-107640000D01*
X95345952Y-107687619D01*
X95774523Y-108068571D02*
X96107857Y-108068571D01*
X96250714Y-108592380D02*
X95774523Y-108592380D01*
X95774523Y-107592380D01*
X96250714Y-107592380D01*
X96679285Y-108592380D02*
X96679285Y-107592380D01*
X97250714Y-108592380D01*
X97250714Y-107592380D01*
X97584047Y-107592380D02*
X98155476Y-107592380D01*
X97869761Y-108592380D02*
X97869761Y-107592380D01*
X98488809Y-108068571D02*
X98822142Y-108068571D01*
X98965000Y-108592380D02*
X98488809Y-108592380D01*
X98488809Y-107592380D01*
X98965000Y-107592380D01*
X99965000Y-108592380D02*
X99631666Y-108116190D01*
X99393571Y-108592380D02*
X99393571Y-107592380D01*
X99774523Y-107592380D01*
X99869761Y-107640000D01*
X99917380Y-107687619D01*
X99965000Y-107782857D01*
X99965000Y-107925714D01*
X99917380Y-108020952D01*
X99869761Y-108068571D01*
X99774523Y-108116190D01*
X99393571Y-108116190D01*
X101155476Y-108592380D02*
X101155476Y-107592380D01*
X101536428Y-107592380D01*
X101631666Y-107640000D01*
X101679285Y-107687619D01*
X101726904Y-107782857D01*
X101726904Y-107925714D01*
X101679285Y-108020952D01*
X101631666Y-108068571D01*
X101536428Y-108116190D01*
X101155476Y-108116190D01*
X102345952Y-107592380D02*
X102536428Y-107592380D01*
X102631666Y-107640000D01*
X102726904Y-107735238D01*
X102774523Y-107925714D01*
X102774523Y-108259047D01*
X102726904Y-108449523D01*
X102631666Y-108544761D01*
X102536428Y-108592380D01*
X102345952Y-108592380D01*
X102250714Y-108544761D01*
X102155476Y-108449523D01*
X102107857Y-108259047D01*
X102107857Y-107925714D01*
X102155476Y-107735238D01*
X102250714Y-107640000D01*
X102345952Y-107592380D01*
X103155476Y-108544761D02*
X103298333Y-108592380D01*
X103536428Y-108592380D01*
X103631666Y-108544761D01*
X103679285Y-108497142D01*
X103726904Y-108401904D01*
X103726904Y-108306666D01*
X103679285Y-108211428D01*
X103631666Y-108163809D01*
X103536428Y-108116190D01*
X103345952Y-108068571D01*
X103250714Y-108020952D01*
X103203095Y-107973333D01*
X103155476Y-107878095D01*
X103155476Y-107782857D01*
X103203095Y-107687619D01*
X103250714Y-107640000D01*
X103345952Y-107592380D01*
X103584047Y-107592380D01*
X103726904Y-107640000D01*
X104155476Y-108592380D02*
X104155476Y-107592380D01*
X104488809Y-107592380D02*
X105060238Y-107592380D01*
X104774523Y-108592380D02*
X104774523Y-107592380D01*
X105393571Y-108592380D02*
X105393571Y-107592380D01*
X105726904Y-107592380D02*
X106060238Y-108592380D01*
X106393571Y-107592380D01*
X106726904Y-108068571D02*
X107060238Y-108068571D01*
X107203095Y-108592380D02*
X106726904Y-108592380D01*
X106726904Y-107592380D01*
X107203095Y-107592380D01*
D11*
X116205000Y-87569523D02*
X116205000Y-86299523D01*
X116688809Y-86299523D01*
X116809761Y-86360000D01*
X116870238Y-86420476D01*
X116930714Y-86541428D01*
X116930714Y-86722857D01*
X116870238Y-86843809D01*
X116809761Y-86904285D01*
X116688809Y-86964761D01*
X116205000Y-86964761D01*
X117475000Y-87569523D02*
X117475000Y-86299523D01*
X117475000Y-86904285D02*
X118200714Y-86904285D01*
X118200714Y-87569523D02*
X118200714Y-86299523D01*
X119047380Y-86299523D02*
X119289285Y-86299523D01*
X119410238Y-86360000D01*
X119531190Y-86480952D01*
X119591666Y-86722857D01*
X119591666Y-87146190D01*
X119531190Y-87388095D01*
X119410238Y-87509047D01*
X119289285Y-87569523D01*
X119047380Y-87569523D01*
X118926428Y-87509047D01*
X118805476Y-87388095D01*
X118745000Y-87146190D01*
X118745000Y-86722857D01*
X118805476Y-86480952D01*
X118926428Y-86360000D01*
X119047380Y-86299523D01*
X119954523Y-86299523D02*
X120680238Y-86299523D01*
X120317380Y-87569523D02*
X120317380Y-86299523D01*
X121345476Y-86299523D02*
X121587380Y-86299523D01*
X121708333Y-86360000D01*
X121829285Y-86480952D01*
X121889761Y-86722857D01*
X121889761Y-87146190D01*
X121829285Y-87388095D01*
X121708333Y-87509047D01*
X121587380Y-87569523D01*
X121345476Y-87569523D01*
X121224523Y-87509047D01*
X121103571Y-87388095D01*
X121043095Y-87146190D01*
X121043095Y-86722857D01*
X121103571Y-86480952D01*
X121224523Y-86360000D01*
X121345476Y-86299523D01*
X123159761Y-87569523D02*
X122736428Y-86964761D01*
X122434047Y-87569523D02*
X122434047Y-86299523D01*
X122917857Y-86299523D01*
X123038809Y-86360000D01*
X123099285Y-86420476D01*
X123159761Y-86541428D01*
X123159761Y-86722857D01*
X123099285Y-86843809D01*
X123038809Y-86904285D01*
X122917857Y-86964761D01*
X122434047Y-86964761D01*
X123704047Y-86904285D02*
X124127380Y-86904285D01*
X124308809Y-87569523D02*
X123704047Y-87569523D01*
X123704047Y-86299523D01*
X124308809Y-86299523D01*
X124792619Y-87206666D02*
X125397380Y-87206666D01*
X124671666Y-87569523D02*
X125095000Y-86299523D01*
X125518333Y-87569523D01*
X126667380Y-87448571D02*
X126606904Y-87509047D01*
X126425476Y-87569523D01*
X126304523Y-87569523D01*
X126123095Y-87509047D01*
X126002142Y-87388095D01*
X125941666Y-87267142D01*
X125881190Y-87025238D01*
X125881190Y-86843809D01*
X125941666Y-86601904D01*
X126002142Y-86480952D01*
X126123095Y-86360000D01*
X126304523Y-86299523D01*
X126425476Y-86299523D01*
X126606904Y-86360000D01*
X126667380Y-86420476D01*
X127030238Y-86299523D02*
X127755952Y-86299523D01*
X127393095Y-87569523D02*
X127393095Y-86299523D01*
X128421190Y-86299523D02*
X128663095Y-86299523D01*
X128784047Y-86360000D01*
X128905000Y-86480952D01*
X128965476Y-86722857D01*
X128965476Y-87146190D01*
X128905000Y-87388095D01*
X128784047Y-87509047D01*
X128663095Y-87569523D01*
X128421190Y-87569523D01*
X128300238Y-87509047D01*
X128179285Y-87388095D01*
X128118809Y-87146190D01*
X128118809Y-86722857D01*
X128179285Y-86480952D01*
X128300238Y-86360000D01*
X128421190Y-86299523D01*
X130235476Y-87569523D02*
X129812142Y-86964761D01*
X129509761Y-87569523D02*
X129509761Y-86299523D01*
X129993571Y-86299523D01*
X130114523Y-86360000D01*
X130175000Y-86420476D01*
X130235476Y-86541428D01*
X130235476Y-86722857D01*
X130175000Y-86843809D01*
X130114523Y-86904285D01*
X129993571Y-86964761D01*
X129509761Y-86964761D01*
X131747380Y-87569523D02*
X131747380Y-86299523D01*
X132049761Y-86299523D01*
X132231190Y-86360000D01*
X132352142Y-86480952D01*
X132412619Y-86601904D01*
X132473095Y-86843809D01*
X132473095Y-87025238D01*
X132412619Y-87267142D01*
X132352142Y-87388095D01*
X132231190Y-87509047D01*
X132049761Y-87569523D01*
X131747380Y-87569523D01*
X133743095Y-87569523D02*
X133319761Y-86964761D01*
X133017380Y-87569523D02*
X133017380Y-86299523D01*
X133501190Y-86299523D01*
X133622142Y-86360000D01*
X133682619Y-86420476D01*
X133743095Y-86541428D01*
X133743095Y-86722857D01*
X133682619Y-86843809D01*
X133622142Y-86904285D01*
X133501190Y-86964761D01*
X133017380Y-86964761D01*
X134287380Y-87569523D02*
X134287380Y-86299523D01*
X134710714Y-86299523D02*
X135134047Y-87569523D01*
X135557380Y-86299523D01*
X135980714Y-86904285D02*
X136404047Y-86904285D01*
X136585476Y-87569523D02*
X135980714Y-87569523D01*
X135980714Y-86299523D01*
X136585476Y-86299523D01*
X137855476Y-87569523D02*
X137432142Y-86964761D01*
X137129761Y-87569523D02*
X137129761Y-86299523D01*
X137613571Y-86299523D01*
X137734523Y-86360000D01*
X137795000Y-86420476D01*
X137855476Y-86541428D01*
X137855476Y-86722857D01*
X137795000Y-86843809D01*
X137734523Y-86904285D01*
X137613571Y-86964761D01*
X137129761Y-86964761D01*
D10*
X113657142Y-80462380D02*
X113180952Y-80462380D01*
X113180952Y-79462380D01*
X113990476Y-79938571D02*
X114323809Y-79938571D01*
X114466666Y-80462380D02*
X113990476Y-80462380D01*
X113990476Y-79462380D01*
X114466666Y-79462380D01*
X114895238Y-80462380D02*
X114895238Y-79462380D01*
X115133333Y-79462380D01*
X115276190Y-79510000D01*
X115371428Y-79605238D01*
X115419047Y-79700476D01*
X115466666Y-79890952D01*
X115466666Y-80033809D01*
X115419047Y-80224285D01*
X115371428Y-80319523D01*
X115276190Y-80414761D01*
X115133333Y-80462380D01*
X114895238Y-80462380D01*
D12*
X121920000Y-85090000D02*
G75*
G02*
X119380000Y-82550000I0J2540000D01*
G01*
X165100000Y-78740000D02*
X88900000Y-78740000D01*
X119380000Y-82550000D02*
G75*
G02*
X121920000Y-80010000I2540000J0D01*
G01*
X132080000Y-80010000D02*
G75*
G02*
X134620000Y-82550000I0J-2540000D01*
G01*
X134620000Y-82550000D02*
G75*
G02*
X132080000Y-85090000I-2540000J0D01*
G01*
X132080000Y-80010000D02*
X121920000Y-80010000D01*
X132080000Y-85090000D02*
X121920000Y-85090000D01*
X165100000Y-109220000D02*
X88900000Y-109220000D01*
X86360000Y-81280000D02*
X86360000Y-106680000D01*
X167640000Y-106680000D02*
X167640000Y-81280000D01*
X86360000Y-81280000D02*
G75*
G02*
X88900000Y-78740000I2540000J0D01*
G01*
X88900000Y-109220000D02*
G75*
G02*
X86360000Y-106680000I0J2540000D01*
G01*
X167640000Y-106680000D02*
G75*
G02*
X165100000Y-109220000I-2540000J0D01*
G01*
X165100000Y-78740000D02*
G75*
G02*
X167640000Y-81280000I0J-2540000D01*
G01*
D13*
%TO.C,R7*%
X129180000Y-104682936D02*
X129180000Y-106137064D01*
X127360000Y-104682936D02*
X127360000Y-106137064D01*
%TO.C,R6*%
X132990000Y-104682936D02*
X132990000Y-106137064D01*
X131170000Y-104682936D02*
X131170000Y-106137064D01*
D14*
%TO.C,PS1*%
X152520000Y-94380000D02*
X144660000Y-94380000D01*
D15*
X154190000Y-95630000D02*
G75*
G03*
X154190000Y-95630000I-100000J0D01*
G01*
D14*
X144660000Y-80880000D02*
X152520000Y-80880000D01*
X142340000Y-92060000D02*
X142340000Y-83200000D01*
X154840000Y-83200000D02*
X154840000Y-92060000D01*
D13*
%TO.C,J1*%
X161430000Y-91760000D02*
X161430000Y-92040000D01*
X161430000Y-92040000D02*
X159830000Y-92040000D01*
X159830000Y-92040000D02*
X159830000Y-92960000D01*
X159830000Y-92960000D02*
X167650000Y-92960000D01*
X167650000Y-92960000D02*
X167650000Y-82840000D01*
X167650000Y-82840000D02*
X159830000Y-82840000D01*
X159830000Y-82840000D02*
X159830000Y-83760000D01*
X159830000Y-83760000D02*
X161430000Y-83760000D01*
X161430000Y-83760000D02*
X161430000Y-84040000D01*
X167650000Y-90400000D02*
X163290000Y-90400000D01*
X163290000Y-90400000D02*
X163290000Y-85400000D01*
X163290000Y-85400000D02*
X167650000Y-85400000D01*
X161430000Y-92960000D02*
X161430000Y-92040000D01*
X161430000Y-82840000D02*
X161430000Y-83760000D01*
X163790000Y-92200000D02*
X165390000Y-92200000D01*
X165390000Y-92200000D02*
X165390000Y-91200000D01*
X165390000Y-91200000D02*
X163790000Y-91200000D01*
X163790000Y-91200000D02*
X163790000Y-92200000D01*
X163790000Y-83600000D02*
X165390000Y-83600000D01*
X165390000Y-83600000D02*
X165390000Y-84600000D01*
X165390000Y-84600000D02*
X163790000Y-84600000D01*
X163790000Y-84600000D02*
X163790000Y-83600000D01*
X165390000Y-91200000D02*
X167650000Y-91200000D01*
X165390000Y-91700000D02*
X167650000Y-91700000D01*
X161430000Y-91760000D02*
X160215000Y-91760000D01*
%TO.C,R5*%
X135162936Y-93070000D02*
X136617064Y-93070000D01*
X135162936Y-94890000D02*
X136617064Y-94890000D01*
%TO.C,R2*%
X117382936Y-93070000D02*
X118837064Y-93070000D01*
X117382936Y-94890000D02*
X118837064Y-94890000D01*
%TO.C,C3*%
X139141252Y-82190000D02*
X137718748Y-82190000D01*
X139141252Y-80370000D02*
X137718748Y-80370000D01*
%TO.C,C2*%
X152958748Y-105770000D02*
X154381252Y-105770000D01*
X152958748Y-107590000D02*
X154381252Y-107590000D01*
D16*
%TO.C,G\u002A\u002A\u002A*%
G36*
X127027014Y-89303991D02*
G01*
X127072375Y-89306052D01*
X127113794Y-89309780D01*
X127148483Y-89315150D01*
X127151395Y-89315759D01*
X127230635Y-89337497D01*
X127304009Y-89367438D01*
X127371830Y-89405785D01*
X127434414Y-89452739D01*
X127492077Y-89508504D01*
X127538895Y-89564889D01*
X127560962Y-89596620D01*
X127583934Y-89633879D01*
X127606332Y-89673914D01*
X127626682Y-89713972D01*
X127643506Y-89751301D01*
X127654383Y-89780197D01*
X127659840Y-89796109D01*
X127664296Y-89807714D01*
X127666434Y-89811967D01*
X127672382Y-89814133D01*
X127685301Y-89817240D01*
X127698942Y-89819959D01*
X127739191Y-89829382D01*
X127784524Y-89843437D01*
X127831659Y-89860992D01*
X127877314Y-89880915D01*
X127881541Y-89882931D01*
X127954134Y-89922295D01*
X128021352Y-89967714D01*
X128082191Y-90018300D01*
X128135644Y-90073169D01*
X128180704Y-90131433D01*
X128201778Y-90165007D01*
X128224618Y-90204605D01*
X128279059Y-90207746D01*
X128385529Y-90215775D01*
X128484491Y-90227326D01*
X128578105Y-90242803D01*
X128668531Y-90262607D01*
X128757931Y-90287143D01*
X128830719Y-90310639D01*
X128961526Y-90360876D01*
X129088777Y-90420499D01*
X129212356Y-90489334D01*
X129332152Y-90567209D01*
X129448049Y-90653949D01*
X129559933Y-90749381D01*
X129667691Y-90853332D01*
X129771209Y-90965630D01*
X129870372Y-91086099D01*
X129965067Y-91214568D01*
X130055180Y-91350862D01*
X130140596Y-91494809D01*
X130221201Y-91646235D01*
X130296883Y-91804967D01*
X130367526Y-91970831D01*
X130433017Y-92143654D01*
X130493241Y-92323263D01*
X130548085Y-92509485D01*
X130597435Y-92702146D01*
X130641177Y-92901072D01*
X130679196Y-93106092D01*
X130682619Y-93126560D01*
X130699612Y-93233878D01*
X130714818Y-93340232D01*
X130728415Y-93447300D01*
X130740581Y-93556754D01*
X130751495Y-93670272D01*
X130761334Y-93789528D01*
X130770276Y-93916198D01*
X130775515Y-94000320D01*
X130777014Y-94032053D01*
X130778320Y-94072725D01*
X130779431Y-94121114D01*
X130780350Y-94176000D01*
X130781074Y-94236164D01*
X130781606Y-94300384D01*
X130781943Y-94367440D01*
X130782087Y-94436112D01*
X130782038Y-94505179D01*
X130781795Y-94573422D01*
X130781358Y-94639620D01*
X130780728Y-94702553D01*
X130779904Y-94760999D01*
X130778887Y-94813740D01*
X130777676Y-94859555D01*
X130776271Y-94897223D01*
X130775521Y-94912180D01*
X130760706Y-95140254D01*
X130742134Y-95360657D01*
X130719574Y-95575248D01*
X130692797Y-95785882D01*
X130661575Y-95994418D01*
X130625677Y-96202712D01*
X130598562Y-96344740D01*
X130543920Y-96602528D01*
X130483133Y-96855889D01*
X130416343Y-97104551D01*
X130343690Y-97348243D01*
X130265316Y-97586694D01*
X130181363Y-97819632D01*
X130091971Y-98046785D01*
X129997284Y-98267883D01*
X129897441Y-98482653D01*
X129792585Y-98690825D01*
X129682856Y-98892126D01*
X129568397Y-99086286D01*
X129449349Y-99273033D01*
X129325853Y-99452096D01*
X129198051Y-99623202D01*
X129066084Y-99786082D01*
X128930094Y-99940462D01*
X128790222Y-100086073D01*
X128646610Y-100222641D01*
X128520289Y-100332593D01*
X128383014Y-100441660D01*
X128241799Y-100543264D01*
X128097294Y-100637063D01*
X127950149Y-100722714D01*
X127801014Y-100799876D01*
X127650540Y-100868204D01*
X127499377Y-100927358D01*
X127348174Y-100976995D01*
X127240991Y-101006312D01*
X127177344Y-101022251D01*
X127161635Y-101045083D01*
X127144591Y-101068346D01*
X127124320Y-101093671D01*
X127102624Y-101119020D01*
X127081308Y-101142358D01*
X127062175Y-101161647D01*
X127047028Y-101174850D01*
X127046183Y-101175479D01*
X127023935Y-101189595D01*
X127005278Y-101195820D01*
X126987957Y-101194570D01*
X126974181Y-101188815D01*
X126960991Y-101179444D01*
X126943303Y-101163706D01*
X126922753Y-101143330D01*
X126900982Y-101120045D01*
X126879628Y-101095582D01*
X126860330Y-101071669D01*
X126850140Y-101057911D01*
X126837365Y-101040384D01*
X126827746Y-101029308D01*
X126818771Y-101022702D01*
X126807924Y-101018586D01*
X126796800Y-101015887D01*
X126772077Y-101009853D01*
X126739916Y-101001219D01*
X126702503Y-100990636D01*
X126662024Y-100978759D01*
X126620666Y-100966241D01*
X126580614Y-100953736D01*
X126544055Y-100941897D01*
X126513174Y-100931377D01*
X126508262Y-100929629D01*
X126342831Y-100864883D01*
X126180279Y-100790418D01*
X126020659Y-100706275D01*
X125864023Y-100612493D01*
X125710422Y-100509114D01*
X125559910Y-100396177D01*
X125412537Y-100273722D01*
X125268357Y-100141790D01*
X125127422Y-100000420D01*
X124989783Y-99849654D01*
X124855494Y-99689531D01*
X124789719Y-99606100D01*
X124664395Y-99437017D01*
X124542577Y-99258870D01*
X124424589Y-99072241D01*
X124310754Y-98877715D01*
X124201397Y-98675873D01*
X124096840Y-98467302D01*
X123997407Y-98252583D01*
X123903423Y-98032300D01*
X123868289Y-97944940D01*
X123767925Y-97678042D01*
X123675635Y-97405710D01*
X123591509Y-97128589D01*
X123515632Y-96847325D01*
X123448093Y-96562562D01*
X123388978Y-96274947D01*
X123338376Y-95985126D01*
X123296373Y-95693744D01*
X123263058Y-95401446D01*
X123238517Y-95108879D01*
X123222838Y-94816688D01*
X123216547Y-94544462D01*
X123326287Y-94544462D01*
X123328822Y-94709384D01*
X123333993Y-94871364D01*
X123341793Y-95027853D01*
X123345244Y-95082360D01*
X123370618Y-95389241D01*
X123405342Y-95693647D01*
X123449348Y-95995270D01*
X123502567Y-96293805D01*
X123564930Y-96588945D01*
X123636367Y-96880384D01*
X123716811Y-97167816D01*
X123806192Y-97450935D01*
X123904442Y-97729434D01*
X123990684Y-97951931D01*
X124055957Y-98107947D01*
X124126386Y-98265661D01*
X124200914Y-98422941D01*
X124278488Y-98577656D01*
X124358051Y-98727674D01*
X124438549Y-98870864D01*
X124482985Y-98946182D01*
X124599807Y-99133112D01*
X124720417Y-99311375D01*
X124844719Y-99480884D01*
X124972616Y-99641555D01*
X125104011Y-99793304D01*
X125238807Y-99936046D01*
X125376907Y-100069697D01*
X125518214Y-100194171D01*
X125662632Y-100309386D01*
X125810063Y-100415255D01*
X125960411Y-100511695D01*
X126113578Y-100598620D01*
X126269467Y-100675947D01*
X126427983Y-100743591D01*
X126589027Y-100801467D01*
X126622043Y-100812023D01*
X126649381Y-100820486D01*
X126673552Y-100827788D01*
X126692797Y-100833411D01*
X126705357Y-100836839D01*
X126709238Y-100837656D01*
X126712388Y-100835383D01*
X126710497Y-100826908D01*
X126707209Y-100818950D01*
X126696747Y-100793084D01*
X126685009Y-100760389D01*
X126672971Y-100723943D01*
X126661606Y-100686824D01*
X126651889Y-100652111D01*
X126644795Y-100622883D01*
X126644098Y-100619560D01*
X126639266Y-100591076D01*
X126634933Y-100556556D01*
X126631564Y-100520119D01*
X126629903Y-100493042D01*
X126626890Y-100425868D01*
X126736905Y-100425868D01*
X126737163Y-100470783D01*
X126737337Y-100474780D01*
X126746427Y-100561631D01*
X126765464Y-100648713D01*
X126794264Y-100735497D01*
X126832642Y-100821460D01*
X126880413Y-100906074D01*
X126898867Y-100934601D01*
X126924326Y-100971751D01*
X126945734Y-101000462D01*
X126963917Y-101021208D01*
X126979699Y-101034465D01*
X126993907Y-101040707D01*
X127007365Y-101040408D01*
X127020899Y-101034043D01*
X127035334Y-101022087D01*
X127041040Y-101016369D01*
X127058353Y-100996242D01*
X127078748Y-100969034D01*
X127100884Y-100936807D01*
X127123420Y-100901627D01*
X127145014Y-100865558D01*
X127164324Y-100830663D01*
X127173723Y-100812235D01*
X127203997Y-100743853D01*
X127229291Y-100672860D01*
X127248108Y-100603495D01*
X127249129Y-100598877D01*
X127256248Y-100557133D01*
X127260882Y-100510440D01*
X127263034Y-100461358D01*
X127262707Y-100412448D01*
X127259904Y-100366270D01*
X127254628Y-100325385D01*
X127248779Y-100298745D01*
X127238121Y-100277399D01*
X127218756Y-100256104D01*
X127192095Y-100235838D01*
X127159549Y-100217578D01*
X127122527Y-100202301D01*
X127099060Y-100195055D01*
X127080157Y-100191112D01*
X127055259Y-100187526D01*
X127028527Y-100184852D01*
X127016653Y-100184075D01*
X126971525Y-100184554D01*
X126927178Y-100190308D01*
X126884939Y-100200741D01*
X126846135Y-100215259D01*
X126812094Y-100233267D01*
X126784141Y-100254170D01*
X126763605Y-100277373D01*
X126751812Y-100302282D01*
X126751654Y-100302869D01*
X126744437Y-100338474D01*
X126739425Y-100380620D01*
X126736905Y-100425868D01*
X126626890Y-100425868D01*
X126626620Y-100419864D01*
X126540591Y-100385256D01*
X126395922Y-100321754D01*
X126252939Y-100248378D01*
X126111888Y-100165310D01*
X125973016Y-100072733D01*
X125962792Y-100065097D01*
X126161212Y-100065097D01*
X126162726Y-100068565D01*
X126172731Y-100076102D01*
X126190440Y-100087446D01*
X126214486Y-100101829D01*
X126243502Y-100118483D01*
X126276120Y-100136639D01*
X126310974Y-100155529D01*
X126346695Y-100174384D01*
X126381918Y-100192437D01*
X126392940Y-100197958D01*
X126421532Y-100211918D01*
X126453008Y-100226819D01*
X126485923Y-100242026D01*
X126518832Y-100256903D01*
X126550292Y-100270815D01*
X126578859Y-100283124D01*
X126603087Y-100293195D01*
X126621534Y-100300392D01*
X126632755Y-100304079D01*
X126634701Y-100304422D01*
X126637372Y-100300025D01*
X126641057Y-100288521D01*
X126643685Y-100277930D01*
X126657916Y-100237272D01*
X126681293Y-100200049D01*
X126713268Y-100166653D01*
X126753294Y-100137474D01*
X126800824Y-100112904D01*
X126855311Y-100093332D01*
X126916207Y-100079151D01*
X126923800Y-100077850D01*
X126977481Y-100072661D01*
X127033329Y-100073953D01*
X127089522Y-100081256D01*
X127144237Y-100094100D01*
X127195652Y-100112013D01*
X127241944Y-100134526D01*
X127281290Y-100161169D01*
X127295672Y-100173828D01*
X127318311Y-100199554D01*
X127337647Y-100229093D01*
X127351848Y-100259244D01*
X127358667Y-100283893D01*
X127361164Y-100296718D01*
X127363446Y-100303984D01*
X127364044Y-100304600D01*
X127372258Y-100302515D01*
X127388243Y-100296667D01*
X127410599Y-100287666D01*
X127437924Y-100276122D01*
X127468818Y-100262645D01*
X127501881Y-100247845D01*
X127535713Y-100232332D01*
X127568913Y-100216715D01*
X127596900Y-100203173D01*
X127628547Y-100187288D01*
X127662414Y-100169719D01*
X127697140Y-100151227D01*
X127731369Y-100132571D01*
X127763741Y-100114513D01*
X127792899Y-100097812D01*
X127817483Y-100083230D01*
X127836137Y-100071527D01*
X127847500Y-100063462D01*
X127849256Y-100061895D01*
X127847459Y-100057148D01*
X127839230Y-100048037D01*
X127826231Y-100036345D01*
X127822942Y-100033641D01*
X127762409Y-99981521D01*
X127700954Y-99922794D01*
X127640569Y-99859641D01*
X127583245Y-99794242D01*
X127530976Y-99728777D01*
X127485752Y-99665428D01*
X127483463Y-99661980D01*
X127471811Y-99643465D01*
X127457818Y-99619860D01*
X127442503Y-99593036D01*
X127426882Y-99564863D01*
X127411973Y-99537213D01*
X127398795Y-99511958D01*
X127388365Y-99490969D01*
X127381701Y-99476117D01*
X127380341Y-99472386D01*
X127375405Y-99471949D01*
X127362832Y-99477877D01*
X127342550Y-99490208D01*
X127322442Y-99503542D01*
X127290622Y-99524350D01*
X127255391Y-99546019D01*
X127218026Y-99567886D01*
X127179806Y-99589286D01*
X127142008Y-99609556D01*
X127105910Y-99628033D01*
X127072791Y-99644052D01*
X127043928Y-99656951D01*
X127020600Y-99666065D01*
X127004083Y-99670730D01*
X126999567Y-99671204D01*
X126988006Y-99668736D01*
X126969038Y-99661681D01*
X126943948Y-99650715D01*
X126914019Y-99636513D01*
X126880537Y-99619752D01*
X126844784Y-99601107D01*
X126808046Y-99581254D01*
X126771607Y-99560867D01*
X126736750Y-99540624D01*
X126704760Y-99521200D01*
X126676922Y-99503270D01*
X126665419Y-99495398D01*
X126633098Y-99472725D01*
X126598901Y-99540342D01*
X126554733Y-99619312D01*
X126501829Y-99699398D01*
X126441308Y-99779233D01*
X126374287Y-99857453D01*
X126301883Y-99932694D01*
X126225215Y-100003592D01*
X126205906Y-100020146D01*
X126185072Y-100038053D01*
X126171313Y-100050802D01*
X126163678Y-100059460D01*
X126161212Y-100065097D01*
X125962792Y-100065097D01*
X125836570Y-99970830D01*
X125702796Y-99859783D01*
X125571941Y-99739776D01*
X125444251Y-99610992D01*
X125335795Y-99491800D01*
X125206555Y-99337190D01*
X125081335Y-99173430D01*
X124960262Y-99000752D01*
X124843462Y-98819391D01*
X124731061Y-98629579D01*
X124623185Y-98431551D01*
X124595502Y-98376300D01*
X124722295Y-98376300D01*
X124724926Y-98383153D01*
X124731901Y-98397587D01*
X124742542Y-98418351D01*
X124756170Y-98444195D01*
X124772105Y-98473870D01*
X124789670Y-98506124D01*
X124808183Y-98539707D01*
X124826968Y-98573370D01*
X124845345Y-98605860D01*
X124862634Y-98635930D01*
X124871744Y-98651509D01*
X124970991Y-98814428D01*
X125071365Y-98968012D01*
X125173477Y-99113076D01*
X125277935Y-99250430D01*
X125385350Y-99380887D01*
X125496332Y-99505261D01*
X125572520Y-99585113D01*
X125679986Y-99690949D01*
X125786236Y-99787749D01*
X125892280Y-99876390D01*
X125999133Y-99957749D01*
X126021491Y-99973793D01*
X126046717Y-99991508D01*
X126065106Y-100003824D01*
X126077948Y-100011441D01*
X126086529Y-100015061D01*
X126092138Y-100015386D01*
X126095151Y-100013904D01*
X126102229Y-100008226D01*
X126115207Y-99997636D01*
X126132164Y-99983705D01*
X126149100Y-99969727D01*
X126167596Y-99953743D01*
X126191066Y-99932426D01*
X126217412Y-99907739D01*
X126244538Y-99881646D01*
X126268559Y-99857905D01*
X126338575Y-99784090D01*
X126399729Y-99711871D01*
X126452920Y-99640037D01*
X126499052Y-99567376D01*
X126536748Y-99497309D01*
X126570421Y-99429158D01*
X126555667Y-99418569D01*
X126546757Y-99411867D01*
X126531610Y-99400150D01*
X126511927Y-99384744D01*
X126489407Y-99366979D01*
X126473857Y-99354640D01*
X126367229Y-99265045D01*
X126260252Y-99165703D01*
X126153247Y-99057006D01*
X126046537Y-98939343D01*
X125940444Y-98813106D01*
X125835291Y-98678686D01*
X125731401Y-98536473D01*
X125629094Y-98386858D01*
X125528696Y-98230233D01*
X125478546Y-98148140D01*
X125462004Y-98120689D01*
X125447159Y-98096183D01*
X125434830Y-98075966D01*
X125425836Y-98061379D01*
X125420998Y-98053765D01*
X125420481Y-98053044D01*
X125415436Y-98054363D01*
X125404539Y-98060970D01*
X125389723Y-98071628D01*
X125381920Y-98077714D01*
X125305375Y-98133366D01*
X125220110Y-98185183D01*
X125126963Y-98232775D01*
X125026772Y-98275752D01*
X124920376Y-98313724D01*
X124808612Y-98346300D01*
X124800360Y-98348432D01*
X124768986Y-98356725D01*
X124746528Y-98363316D01*
X124731954Y-98368573D01*
X124724232Y-98372865D01*
X124722295Y-98376300D01*
X124595502Y-98376300D01*
X124519962Y-98225539D01*
X124421517Y-98011778D01*
X124327978Y-97790500D01*
X124239469Y-97561940D01*
X124156119Y-97326330D01*
X124144566Y-97291887D01*
X124055656Y-97009570D01*
X123976084Y-96724332D01*
X123905804Y-96435918D01*
X123844765Y-96144075D01*
X123792921Y-95848550D01*
X123750223Y-95549091D01*
X123716623Y-95245443D01*
X123692073Y-94937354D01*
X123690007Y-94904560D01*
X123687528Y-94857279D01*
X123685317Y-94801448D01*
X123683390Y-94738673D01*
X123681761Y-94670562D01*
X123680448Y-94598721D01*
X123679464Y-94524756D01*
X123678826Y-94450275D01*
X123678668Y-94408027D01*
X123790806Y-94408027D01*
X123790952Y-94461941D01*
X123791274Y-94513486D01*
X123791779Y-94561522D01*
X123792473Y-94604911D01*
X123793362Y-94642514D01*
X123794045Y-94663260D01*
X123809923Y-94963146D01*
X123834726Y-95260769D01*
X123868371Y-95555784D01*
X123910778Y-95847845D01*
X123961863Y-96136607D01*
X124021544Y-96421725D01*
X124089740Y-96702853D01*
X124166367Y-96979646D01*
X124251345Y-97251759D01*
X124344591Y-97518846D01*
X124446022Y-97780562D01*
X124555556Y-98036562D01*
X124639796Y-98217990D01*
X124655173Y-98249367D01*
X124667139Y-98272212D01*
X124676193Y-98287367D01*
X124682837Y-98295676D01*
X124687252Y-98298000D01*
X124695269Y-98296791D01*
X124711065Y-98293473D01*
X124732585Y-98288508D01*
X124757779Y-98282358D01*
X124766523Y-98280154D01*
X124874054Y-98249723D01*
X124976356Y-98214525D01*
X125072588Y-98174949D01*
X125161906Y-98131390D01*
X125243468Y-98084237D01*
X125316429Y-98033885D01*
X125345463Y-98010922D01*
X125380027Y-97982364D01*
X125358498Y-97943332D01*
X125329283Y-97890111D01*
X125303008Y-97841632D01*
X125278448Y-97795552D01*
X125254377Y-97749530D01*
X125229569Y-97701222D01*
X125202799Y-97648287D01*
X125174582Y-97591880D01*
X125126840Y-97494946D01*
X125083783Y-97405014D01*
X125044726Y-97320460D01*
X125008984Y-97239661D01*
X124975873Y-97160992D01*
X124944706Y-97082831D01*
X124914800Y-97003554D01*
X124885470Y-96921536D01*
X124858512Y-96842580D01*
X124785143Y-96609193D01*
X124721445Y-96376055D01*
X124667219Y-96142148D01*
X124622262Y-95906454D01*
X124586372Y-95667955D01*
X124559350Y-95425631D01*
X124546246Y-95262700D01*
X124542467Y-95197650D01*
X124539488Y-95125893D01*
X124537310Y-95049218D01*
X124535934Y-94969416D01*
X124535886Y-94962520D01*
X124676878Y-94962520D01*
X124680763Y-95115933D01*
X124688687Y-95271080D01*
X124700651Y-95426444D01*
X124701701Y-95437960D01*
X124724361Y-95642471D01*
X124754587Y-95848128D01*
X124792067Y-96053734D01*
X124836492Y-96258091D01*
X124887551Y-96460001D01*
X124944934Y-96658268D01*
X125008330Y-96851694D01*
X125077428Y-97039081D01*
X125151918Y-97219233D01*
X125179791Y-97281638D01*
X125269882Y-97472834D01*
X125363645Y-97659349D01*
X125460624Y-97840410D01*
X125560364Y-98015245D01*
X125662407Y-98183082D01*
X125766300Y-98343150D01*
X125871586Y-98494677D01*
X125977809Y-98636891D01*
X125986862Y-98648520D01*
X126068136Y-98748966D01*
X126153076Y-98847123D01*
X126240387Y-98941653D01*
X126328776Y-99031222D01*
X126416947Y-99114491D01*
X126503606Y-99190127D01*
X126542069Y-99221560D01*
X126575208Y-99247068D01*
X126614257Y-99275545D01*
X126656983Y-99305486D01*
X126701155Y-99335383D01*
X126744541Y-99363732D01*
X126784907Y-99389027D01*
X126820023Y-99409762D01*
X126826118Y-99413173D01*
X126850906Y-99426482D01*
X126878349Y-99440539D01*
X126906779Y-99454563D01*
X126934526Y-99467774D01*
X126959920Y-99479391D01*
X126981291Y-99488635D01*
X126996970Y-99494724D01*
X127005223Y-99496880D01*
X127011928Y-99494696D01*
X127026235Y-99488593D01*
X127046683Y-99479244D01*
X127071812Y-99467321D01*
X127100161Y-99453497D01*
X127109370Y-99448933D01*
X127155786Y-99424876D01*
X127441963Y-99424876D01*
X127444085Y-99430428D01*
X127449917Y-99443371D01*
X127458663Y-99461995D01*
X127469524Y-99484586D01*
X127474278Y-99494340D01*
X127521362Y-99580364D01*
X127578243Y-99665947D01*
X127645019Y-99751214D01*
X127721786Y-99836292D01*
X127784860Y-99898990D01*
X127800865Y-99913913D01*
X127819944Y-99931209D01*
X127840652Y-99949623D01*
X127861539Y-99967903D01*
X127881161Y-99984796D01*
X127898068Y-99999049D01*
X127910815Y-100009409D01*
X127917953Y-100014622D01*
X127918834Y-100015000D01*
X127923565Y-100012293D01*
X127934470Y-100005063D01*
X127949466Y-99994702D01*
X127954394Y-99991232D01*
X128093013Y-99887271D01*
X128228432Y-99773744D01*
X128360565Y-99650753D01*
X128489326Y-99518404D01*
X128614629Y-99376800D01*
X128736388Y-99226045D01*
X128854517Y-99066244D01*
X128968932Y-98897500D01*
X129079545Y-98719917D01*
X129186271Y-98533599D01*
X129239799Y-98434066D01*
X129276473Y-98364392D01*
X129262186Y-98361183D01*
X129165060Y-98336449D01*
X129069168Y-98306365D01*
X128975901Y-98271554D01*
X128886654Y-98232639D01*
X128802820Y-98190243D01*
X128725792Y-98144990D01*
X128656964Y-98097501D01*
X128635844Y-98081090D01*
X128617245Y-98066750D01*
X128601405Y-98055628D01*
X128589997Y-98048826D01*
X128584698Y-98047445D01*
X128584692Y-98047451D01*
X128581012Y-98052844D01*
X128572920Y-98065665D01*
X128561211Y-98084619D01*
X128546684Y-98108411D01*
X128530134Y-98135746D01*
X128521145Y-98150680D01*
X128460575Y-98249050D01*
X128395521Y-98350208D01*
X128327681Y-98451657D01*
X128258751Y-98550900D01*
X128190429Y-98645441D01*
X128131581Y-98723515D01*
X128042153Y-98835753D01*
X127950316Y-98943723D01*
X127856971Y-99046495D01*
X127763015Y-99143141D01*
X127669349Y-99232733D01*
X127576872Y-99314342D01*
X127496070Y-99379682D01*
X127476198Y-99395263D01*
X127459609Y-99408729D01*
X127447785Y-99418841D01*
X127442208Y-99424362D01*
X127441963Y-99424876D01*
X127155786Y-99424876D01*
X127178722Y-99412989D01*
X127243389Y-99376263D01*
X127305700Y-99337245D01*
X127367988Y-99294420D01*
X127432585Y-99246277D01*
X127482600Y-99206855D01*
X127591519Y-99114166D01*
X127700070Y-99011560D01*
X127808078Y-98899280D01*
X127915364Y-98777566D01*
X128021754Y-98646662D01*
X128127070Y-98506808D01*
X128231136Y-98358247D01*
X128333775Y-98201219D01*
X128434811Y-98035968D01*
X128469777Y-97974941D01*
X128624286Y-97974941D01*
X128643993Y-97991856D01*
X128721772Y-98052342D01*
X128808353Y-98107853D01*
X128903659Y-98158351D01*
X129007611Y-98203799D01*
X129120132Y-98244157D01*
X129224303Y-98274931D01*
X129249435Y-98281476D01*
X129271895Y-98286942D01*
X129289407Y-98290799D01*
X129299690Y-98292520D01*
X129300344Y-98292558D01*
X129304788Y-98291761D01*
X129309482Y-98288342D01*
X129315113Y-98281172D01*
X129322373Y-98269125D01*
X129331948Y-98251072D01*
X129344529Y-98225886D01*
X129358052Y-98198126D01*
X129419951Y-98065865D01*
X129481705Y-97925227D01*
X129542600Y-97777978D01*
X129601925Y-97625882D01*
X129658965Y-97470708D01*
X129703201Y-97343389D01*
X129795384Y-97055269D01*
X129878474Y-96762822D01*
X129952412Y-96466364D01*
X130017139Y-96166213D01*
X130072599Y-95862688D01*
X130118732Y-95556106D01*
X130155481Y-95246786D01*
X130182787Y-94935045D01*
X130200321Y-94627700D01*
X130201245Y-94601007D01*
X130202086Y-94567543D01*
X130202839Y-94528373D01*
X130203501Y-94484560D01*
X130204069Y-94437168D01*
X130204540Y-94387259D01*
X130204911Y-94335899D01*
X130205176Y-94284149D01*
X130205335Y-94233074D01*
X130205382Y-94183738D01*
X130205315Y-94137204D01*
X130205131Y-94094535D01*
X130204825Y-94056796D01*
X130204394Y-94025050D01*
X130203836Y-94000360D01*
X130203146Y-93983789D01*
X130202396Y-93976640D01*
X130200662Y-93971732D01*
X130197541Y-93969566D01*
X130191193Y-93970506D01*
X130179780Y-93974914D01*
X130161463Y-93983156D01*
X130155475Y-93985910D01*
X130017113Y-94044043D01*
X129875121Y-94092761D01*
X129730063Y-94131901D01*
X129582504Y-94161303D01*
X129502227Y-94173042D01*
X129474857Y-94176603D01*
X129451332Y-94179784D01*
X129433359Y-94182343D01*
X129422647Y-94184039D01*
X129420388Y-94184566D01*
X129420700Y-94189739D01*
X129422170Y-94203125D01*
X129424577Y-94222869D01*
X129427702Y-94247119D01*
X129428784Y-94255283D01*
X129446208Y-94409804D01*
X129458329Y-94571702D01*
X129465149Y-94739689D01*
X129466672Y-94912477D01*
X129462902Y-95088779D01*
X129453841Y-95267308D01*
X129439493Y-95446776D01*
X129425384Y-95580200D01*
X129396835Y-95791830D01*
X129360804Y-96003478D01*
X129317603Y-96213989D01*
X129267544Y-96422211D01*
X129210936Y-96626989D01*
X129148091Y-96827169D01*
X129079321Y-97021598D01*
X129004935Y-97209121D01*
X128955581Y-97322640D01*
X128939413Y-97357786D01*
X128919350Y-97400191D01*
X128896150Y-97448341D01*
X128870571Y-97500721D01*
X128843372Y-97555815D01*
X128815309Y-97612110D01*
X128787142Y-97668089D01*
X128759629Y-97722240D01*
X128733527Y-97773045D01*
X128709595Y-97818992D01*
X128688592Y-97858565D01*
X128673484Y-97886280D01*
X128624286Y-97974941D01*
X128469777Y-97974941D01*
X128534067Y-97862735D01*
X128631366Y-97681761D01*
X128711773Y-97523300D01*
X128754129Y-97436835D01*
X128792113Y-97357538D01*
X128826422Y-97283774D01*
X128857755Y-97213907D01*
X128886810Y-97146301D01*
X128914287Y-97079321D01*
X128940884Y-97011331D01*
X128967300Y-96940695D01*
X128994232Y-96865779D01*
X129001842Y-96844154D01*
X129061644Y-96662896D01*
X129115764Y-96477101D01*
X129164094Y-96287705D01*
X129206529Y-96095642D01*
X129242964Y-95901849D01*
X129273293Y-95707259D01*
X129297410Y-95512810D01*
X129315211Y-95319434D01*
X129326588Y-95128069D01*
X129331438Y-94939649D01*
X129329654Y-94755109D01*
X129321130Y-94575385D01*
X129305761Y-94401411D01*
X129290881Y-94283597D01*
X129264018Y-94120290D01*
X129231113Y-93963552D01*
X129192269Y-93813577D01*
X129147585Y-93670558D01*
X129097164Y-93534689D01*
X129041106Y-93406162D01*
X128979512Y-93285170D01*
X128912484Y-93171908D01*
X128840123Y-93066567D01*
X128762529Y-92969341D01*
X128679806Y-92880423D01*
X128592052Y-92800006D01*
X128499370Y-92728284D01*
X128463040Y-92703454D01*
X128396368Y-92663585D01*
X128324871Y-92628943D01*
X128247656Y-92599229D01*
X128163827Y-92574148D01*
X128111300Y-92562217D01*
X128532658Y-92562217D01*
X128534410Y-92566918D01*
X128542764Y-92575659D01*
X128555990Y-92586666D01*
X128558058Y-92588232D01*
X128653321Y-92665515D01*
X128745004Y-92751826D01*
X128832727Y-92846547D01*
X128916108Y-92949061D01*
X128994764Y-93058752D01*
X129068315Y-93175002D01*
X129136377Y-93297194D01*
X129198570Y-93424713D01*
X129254511Y-93556939D01*
X129303819Y-93693258D01*
X129346112Y-93833052D01*
X129359130Y-93882465D01*
X129365425Y-93908066D01*
X129372372Y-93937591D01*
X129379598Y-93969310D01*
X129386730Y-94001493D01*
X129393395Y-94032408D01*
X129399220Y-94060325D01*
X129403831Y-94083513D01*
X129406855Y-94100243D01*
X129407920Y-94108716D01*
X129412652Y-94108996D01*
X129425686Y-94107973D01*
X129445282Y-94105869D01*
X129469695Y-94102905D01*
X129497184Y-94099301D01*
X129526007Y-94095280D01*
X129554421Y-94091062D01*
X129580684Y-94086869D01*
X129583180Y-94086451D01*
X129643655Y-94074901D01*
X129709998Y-94059845D01*
X129778892Y-94042126D01*
X129847024Y-94022590D01*
X129900680Y-94005579D01*
X129939130Y-93992233D01*
X129980778Y-93976837D01*
X130023589Y-93960222D01*
X130065528Y-93943219D01*
X130104560Y-93926658D01*
X130138651Y-93911370D01*
X130165764Y-93898185D01*
X130172460Y-93894641D01*
X130197860Y-93880825D01*
X130196295Y-93837702D01*
X130195394Y-93818496D01*
X130193855Y-93791725D01*
X130191840Y-93759951D01*
X130189512Y-93725739D01*
X130187322Y-93695520D01*
X130168234Y-93487667D01*
X130142486Y-93284959D01*
X130110174Y-93087702D01*
X130071389Y-92896204D01*
X130026226Y-92710771D01*
X129974778Y-92531712D01*
X129917138Y-92359333D01*
X129853400Y-92193941D01*
X129783657Y-92035845D01*
X129708003Y-91885350D01*
X129626530Y-91742765D01*
X129563850Y-91644470D01*
X129549070Y-91622589D01*
X129536251Y-91604083D01*
X129526442Y-91590431D01*
X129520696Y-91583116D01*
X129519715Y-91582286D01*
X129516630Y-91586611D01*
X129510474Y-91598179D01*
X129502302Y-91614952D01*
X129497393Y-91625517D01*
X129464749Y-91689549D01*
X129423876Y-91757291D01*
X129375537Y-91827721D01*
X129320496Y-91899818D01*
X129259514Y-91972561D01*
X129193355Y-92044928D01*
X129153987Y-92085252D01*
X129042427Y-92190748D01*
X128923388Y-92291436D01*
X128796205Y-92387836D01*
X128660215Y-92480472D01*
X128614883Y-92509310D01*
X128589637Y-92525188D01*
X128567332Y-92539360D01*
X128549418Y-92550894D01*
X128537349Y-92558855D01*
X128532658Y-92562217D01*
X128111300Y-92562217D01*
X128072490Y-92553402D01*
X127972751Y-92536694D01*
X127952500Y-92533915D01*
X127915053Y-92530044D01*
X127870417Y-92527209D01*
X127820935Y-92525412D01*
X127768949Y-92524654D01*
X127716804Y-92524938D01*
X127666841Y-92526264D01*
X127621405Y-92528636D01*
X127582839Y-92532053D01*
X127570440Y-92533632D01*
X127511998Y-92542800D01*
X127450159Y-92554317D01*
X127383112Y-92568554D01*
X127309046Y-92585881D01*
X127279400Y-92593174D01*
X127218535Y-92608102D01*
X127166284Y-92620359D01*
X127121502Y-92630105D01*
X127083042Y-92637498D01*
X127049761Y-92642696D01*
X127020512Y-92645859D01*
X126994152Y-92647145D01*
X126969535Y-92646712D01*
X126945516Y-92644720D01*
X126926082Y-92642128D01*
X126907962Y-92638873D01*
X126881769Y-92633476D01*
X126849268Y-92626335D01*
X126812223Y-92617849D01*
X126772398Y-92608416D01*
X126731558Y-92598434D01*
X126721705Y-92595976D01*
X126644954Y-92577241D01*
X126576400Y-92561631D01*
X126514638Y-92548950D01*
X126458261Y-92539003D01*
X126405866Y-92531593D01*
X126356047Y-92526524D01*
X126307398Y-92523601D01*
X126258515Y-92522627D01*
X126207993Y-92523408D01*
X126202491Y-92523585D01*
X126097174Y-92530190D01*
X125994849Y-92542660D01*
X125897029Y-92560720D01*
X125805225Y-92584092D01*
X125724606Y-92611099D01*
X125643488Y-92646932D01*
X125562587Y-92692397D01*
X125482525Y-92746973D01*
X125403924Y-92810139D01*
X125327404Y-92881376D01*
X125253588Y-92960162D01*
X125183097Y-93045977D01*
X125146520Y-93095213D01*
X125078587Y-93197568D01*
X125015253Y-93308512D01*
X124956712Y-93427480D01*
X124903157Y-93553907D01*
X124854781Y-93687227D01*
X124811777Y-93826875D01*
X124774339Y-93972285D01*
X124742659Y-94122891D01*
X124716932Y-94278129D01*
X124701738Y-94396560D01*
X124689464Y-94527860D01*
X124681229Y-94666966D01*
X124677034Y-94812358D01*
X124676878Y-94962520D01*
X124535886Y-94962520D01*
X124535359Y-94888278D01*
X124535586Y-94807594D01*
X124536616Y-94729156D01*
X124538448Y-94654753D01*
X124541082Y-94586176D01*
X124544520Y-94525217D01*
X124546130Y-94503240D01*
X124549444Y-94463794D01*
X124553321Y-94421691D01*
X124557577Y-94378609D01*
X124562025Y-94336227D01*
X124566482Y-94296225D01*
X124570763Y-94260281D01*
X124574682Y-94230074D01*
X124578056Y-94207284D01*
X124579774Y-94197702D01*
X124580746Y-94190363D01*
X124578511Y-94186017D01*
X124570955Y-94183448D01*
X124555964Y-94181439D01*
X124550456Y-94180845D01*
X124517807Y-94176870D01*
X124478403Y-94171307D01*
X124435298Y-94164653D01*
X124391543Y-94157406D01*
X124350192Y-94150064D01*
X124314296Y-94143122D01*
X124298809Y-94139839D01*
X124224847Y-94121949D01*
X124148583Y-94100659D01*
X124072228Y-94076721D01*
X123997991Y-94050891D01*
X123928080Y-94023923D01*
X123864707Y-93996569D01*
X123829442Y-93979635D01*
X123800865Y-93965252D01*
X123797700Y-93989136D01*
X123796420Y-94004101D01*
X123795255Y-94028087D01*
X123794210Y-94059953D01*
X123793293Y-94098563D01*
X123792509Y-94142776D01*
X123791865Y-94191453D01*
X123791367Y-94243456D01*
X123791020Y-94297645D01*
X123790831Y-94352881D01*
X123790806Y-94408027D01*
X123678668Y-94408027D01*
X123678550Y-94376884D01*
X123678651Y-94306190D01*
X123679143Y-94239799D01*
X123680044Y-94179319D01*
X123681368Y-94126355D01*
X123682246Y-94101920D01*
X123694275Y-93883513D01*
X123803291Y-93883513D01*
X123866215Y-93913560D01*
X123979843Y-93963575D01*
X124096863Y-94006575D01*
X124218370Y-94042864D01*
X124345459Y-94072745D01*
X124479224Y-94096523D01*
X124569220Y-94108724D01*
X124581263Y-94110268D01*
X124588173Y-94111318D01*
X124591961Y-94107680D01*
X124594347Y-94100650D01*
X124596282Y-94091124D01*
X124599613Y-94074197D01*
X124603837Y-94052447D01*
X124607512Y-94033340D01*
X124623205Y-93959915D01*
X124643091Y-93880531D01*
X124666320Y-93798047D01*
X124692041Y-93715322D01*
X124719404Y-93635217D01*
X124747558Y-93560590D01*
X124749845Y-93554877D01*
X124766879Y-93514456D01*
X124787841Y-93467766D01*
X124811515Y-93417297D01*
X124836682Y-93365541D01*
X124862127Y-93314989D01*
X124886632Y-93268131D01*
X124908979Y-93227460D01*
X124914569Y-93217718D01*
X124980438Y-93110927D01*
X125051683Y-93007935D01*
X125127355Y-92909865D01*
X125206507Y-92817842D01*
X125288189Y-92732988D01*
X125371452Y-92656428D01*
X125426872Y-92610940D01*
X125447561Y-92594632D01*
X125465082Y-92580537D01*
X125478017Y-92569820D01*
X125484943Y-92563648D01*
X125485721Y-92562680D01*
X125481772Y-92559189D01*
X125470940Y-92551986D01*
X125455190Y-92542348D01*
X125446727Y-92537385D01*
X125421767Y-92522350D01*
X125390378Y-92502535D01*
X125354345Y-92479140D01*
X125315453Y-92453364D01*
X125275485Y-92426409D01*
X125236226Y-92399473D01*
X125199461Y-92373758D01*
X125166974Y-92350464D01*
X125148340Y-92336696D01*
X125052575Y-92261776D01*
X124961338Y-92184412D01*
X124875282Y-92105314D01*
X124795063Y-92025192D01*
X124721335Y-91944754D01*
X124654754Y-91864712D01*
X124595975Y-91785774D01*
X124545652Y-91708649D01*
X124510097Y-91645206D01*
X124480142Y-91587069D01*
X124432619Y-91659584D01*
X124351383Y-91791724D01*
X124275201Y-91932396D01*
X124204177Y-92081259D01*
X124138415Y-92237972D01*
X124078020Y-92402195D01*
X124023096Y-92573587D01*
X123973747Y-92751807D01*
X123930077Y-92936513D01*
X123892190Y-93127367D01*
X123860190Y-93324026D01*
X123834183Y-93526149D01*
X123820339Y-93662500D01*
X123817061Y-93699347D01*
X123813871Y-93736672D01*
X123810977Y-93771925D01*
X123808590Y-93802558D01*
X123806915Y-93826024D01*
X123806731Y-93828886D01*
X123803291Y-93883513D01*
X123694275Y-93883513D01*
X123694988Y-93870569D01*
X123714106Y-93645257D01*
X123739549Y-93426179D01*
X123771266Y-93213535D01*
X123809207Y-93007520D01*
X123853321Y-92808334D01*
X123903558Y-92616173D01*
X123959867Y-92431234D01*
X124022198Y-92253716D01*
X124090499Y-92083815D01*
X124164722Y-91921730D01*
X124244815Y-91767658D01*
X124306584Y-91660980D01*
X124388414Y-91533567D01*
X124398232Y-91519988D01*
X124538609Y-91519988D01*
X124539031Y-91523043D01*
X124545481Y-91540181D01*
X124556410Y-91563922D01*
X124570781Y-91592339D01*
X124587555Y-91623505D01*
X124605692Y-91655491D01*
X124624156Y-91686372D01*
X124641908Y-91714218D01*
X124642528Y-91715150D01*
X124711056Y-91810471D01*
X124789152Y-91905227D01*
X124876226Y-91998882D01*
X124971686Y-92090900D01*
X125074940Y-92180744D01*
X125185398Y-92267879D01*
X125302468Y-92351768D01*
X125425558Y-92431874D01*
X125448060Y-92445699D01*
X125472915Y-92460939D01*
X125497156Y-92475983D01*
X125518208Y-92489221D01*
X125533493Y-92499042D01*
X125535012Y-92500044D01*
X125561004Y-92517263D01*
X125651570Y-92481419D01*
X125710494Y-92458617D01*
X125762403Y-92439837D01*
X125809373Y-92424563D01*
X125853480Y-92412281D01*
X125896801Y-92402477D01*
X125941411Y-92394636D01*
X125989387Y-92388245D01*
X126042806Y-92382787D01*
X126053521Y-92381833D01*
X126105013Y-92378313D01*
X126159443Y-92376340D01*
X126214542Y-92375879D01*
X126268042Y-92376896D01*
X126317676Y-92379357D01*
X126361176Y-92383226D01*
X126387930Y-92386949D01*
X126401902Y-92389616D01*
X126424619Y-92394330D01*
X126454927Y-92400835D01*
X126491674Y-92408879D01*
X126533708Y-92418205D01*
X126579876Y-92428561D01*
X126629027Y-92439691D01*
X126680007Y-92451341D01*
X126690190Y-92453681D01*
X126753034Y-92468094D01*
X126806873Y-92480326D01*
X126852588Y-92490540D01*
X126891060Y-92498895D01*
X126923172Y-92505554D01*
X126949804Y-92510677D01*
X126971838Y-92514426D01*
X126990154Y-92516961D01*
X127005635Y-92518445D01*
X127019162Y-92519038D01*
X127031616Y-92518902D01*
X127043180Y-92518249D01*
X127054175Y-92516625D01*
X127073938Y-92512833D01*
X127101364Y-92507117D01*
X127135351Y-92499721D01*
X127174795Y-92490889D01*
X127218593Y-92480864D01*
X127265644Y-92469891D01*
X127314843Y-92458214D01*
X127317500Y-92457578D01*
X127367127Y-92445722D01*
X127414933Y-92434373D01*
X127459770Y-92423798D01*
X127500490Y-92414264D01*
X127535947Y-92406038D01*
X127564994Y-92399388D01*
X127586483Y-92394581D01*
X127599268Y-92391886D01*
X127599440Y-92391853D01*
X127632538Y-92387112D01*
X127674125Y-92383719D01*
X127722623Y-92381654D01*
X127776452Y-92380898D01*
X127834033Y-92381430D01*
X127893789Y-92383232D01*
X127954140Y-92386283D01*
X128013508Y-92390564D01*
X128070313Y-92396054D01*
X128086637Y-92397936D01*
X128178115Y-92412183D01*
X128262334Y-92432229D01*
X128340626Y-92458448D01*
X128408936Y-92488527D01*
X128462840Y-92515181D01*
X128532790Y-92471560D01*
X128646095Y-92398333D01*
X128750835Y-92325155D01*
X128848530Y-92250852D01*
X128940701Y-92174247D01*
X129028869Y-92094165D01*
X129061782Y-92062437D01*
X129138223Y-91984597D01*
X129208390Y-91907082D01*
X129271794Y-91830547D01*
X129327945Y-91755644D01*
X129376355Y-91683028D01*
X129416533Y-91613352D01*
X129447992Y-91547270D01*
X129448670Y-91545651D01*
X129465006Y-91506522D01*
X129420306Y-91451671D01*
X129397243Y-91424658D01*
X129368365Y-91392841D01*
X129335252Y-91357802D01*
X129299488Y-91321121D01*
X129262654Y-91284378D01*
X129226332Y-91249154D01*
X129192105Y-91217029D01*
X129161555Y-91189585D01*
X129138745Y-91170380D01*
X129039760Y-91096523D01*
X128938321Y-91031938D01*
X128834758Y-90976757D01*
X128729401Y-90931111D01*
X128622581Y-90895132D01*
X128514629Y-90868950D01*
X128405876Y-90852698D01*
X128325823Y-90847168D01*
X128269330Y-90846692D01*
X128220549Y-90849842D01*
X128177542Y-90857073D01*
X128138369Y-90868837D01*
X128101090Y-90885589D01*
X128063767Y-90907783D01*
X128062162Y-90908845D01*
X128014997Y-90946168D01*
X127972258Y-90992309D01*
X127934267Y-91046793D01*
X127901352Y-91109142D01*
X127873835Y-91178879D01*
X127869685Y-91191535D01*
X127850345Y-91268091D01*
X127839478Y-91348480D01*
X127836977Y-91431100D01*
X127842732Y-91514344D01*
X127856636Y-91596609D01*
X127878581Y-91676291D01*
X127907306Y-91749288D01*
X127931376Y-91795209D01*
X127959970Y-91838902D01*
X127991729Y-91878806D01*
X128025292Y-91913358D01*
X128059299Y-91940996D01*
X128090026Y-91959077D01*
X128125350Y-91971838D01*
X128161263Y-91978005D01*
X128195211Y-91977387D01*
X128224643Y-91969793D01*
X128225905Y-91969247D01*
X128256058Y-91952919D01*
X128281617Y-91931850D01*
X128305522Y-91903555D01*
X128308552Y-91899370D01*
X128333268Y-91857942D01*
X128354518Y-91808302D01*
X128371773Y-91751962D01*
X128384503Y-91690438D01*
X128386663Y-91676220D01*
X128390889Y-91629931D01*
X128391747Y-91577343D01*
X128389450Y-91521664D01*
X128384213Y-91466103D01*
X128376248Y-91413866D01*
X128366298Y-91370058D01*
X128351818Y-91325942D01*
X128334005Y-91285089D01*
X128313698Y-91248758D01*
X128291735Y-91218207D01*
X128268957Y-91194694D01*
X128246201Y-91179477D01*
X128236779Y-91175841D01*
X128209286Y-91172729D01*
X128182181Y-91179089D01*
X128156363Y-91194244D01*
X128132732Y-91217518D01*
X128112187Y-91248237D01*
X128097559Y-91280398D01*
X128085111Y-91322785D01*
X128076801Y-91370636D01*
X128072710Y-91421162D01*
X128072919Y-91471574D01*
X128077512Y-91519084D01*
X128086569Y-91560903D01*
X128089100Y-91568860D01*
X128105224Y-91608373D01*
X128123364Y-91637949D01*
X128143544Y-91657617D01*
X128165788Y-91667403D01*
X128177520Y-91668600D01*
X128192820Y-91664822D01*
X128204979Y-91652918D01*
X128214777Y-91632028D01*
X128217012Y-91625093D01*
X128223541Y-91586751D01*
X128221657Y-91544574D01*
X128211584Y-91500077D01*
X128193544Y-91454776D01*
X128191314Y-91450268D01*
X128182712Y-91431727D01*
X128176386Y-91415309D01*
X128173534Y-91404178D01*
X128173480Y-91403157D01*
X128178263Y-91385552D01*
X128191473Y-91370843D01*
X128204020Y-91363774D01*
X128224918Y-91360257D01*
X128246364Y-91365888D01*
X128267174Y-91379803D01*
X128286164Y-91401139D01*
X128302147Y-91429034D01*
X128305987Y-91438065D01*
X128310395Y-91450074D01*
X128313564Y-91461665D01*
X128315701Y-91474837D01*
X128317014Y-91491586D01*
X128317710Y-91513913D01*
X128317995Y-91543815D01*
X128318031Y-91554300D01*
X128317869Y-91590175D01*
X128317055Y-91618135D01*
X128315418Y-91640412D01*
X128312787Y-91659240D01*
X128308993Y-91676850D01*
X128308532Y-91678676D01*
X128293725Y-91727604D01*
X128276308Y-91769582D01*
X128256712Y-91804009D01*
X128235367Y-91830284D01*
X128212703Y-91847805D01*
X128189150Y-91855972D01*
X128181190Y-91856512D01*
X128158484Y-91852243D01*
X128133406Y-91840494D01*
X128108442Y-91822710D01*
X128087653Y-91802190D01*
X128070661Y-91779156D01*
X128052507Y-91748884D01*
X128034518Y-91713988D01*
X128018019Y-91677080D01*
X128004338Y-91640772D01*
X128001811Y-91633040D01*
X127985065Y-91568684D01*
X127974287Y-91501576D01*
X127969511Y-91433788D01*
X127970769Y-91367394D01*
X127978093Y-91304464D01*
X127991516Y-91247071D01*
X127995550Y-91234636D01*
X128016995Y-91184797D01*
X128044680Y-91140810D01*
X128077713Y-91103768D01*
X128115200Y-91074769D01*
X128134594Y-91063988D01*
X128156010Y-91054467D01*
X128175078Y-91048796D01*
X128196685Y-91045755D01*
X128211546Y-91044754D01*
X128234082Y-91044001D01*
X128250363Y-91044962D01*
X128264233Y-91048221D01*
X128279534Y-91054366D01*
X128282019Y-91055494D01*
X128318243Y-91077502D01*
X128351506Y-91108620D01*
X128381567Y-91148173D01*
X128408189Y-91195483D01*
X128431133Y-91249874D01*
X128450161Y-91310669D01*
X128465034Y-91377191D01*
X128475515Y-91448764D01*
X128481364Y-91524710D01*
X128482343Y-91604353D01*
X128481863Y-91622880D01*
X128476870Y-91700810D01*
X128467345Y-91773995D01*
X128453544Y-91841854D01*
X128435725Y-91903807D01*
X128414143Y-91959274D01*
X128389057Y-92007675D01*
X128360722Y-92048431D01*
X128329397Y-92080961D01*
X128295337Y-92104685D01*
X128262479Y-92118051D01*
X128243155Y-92121966D01*
X128215471Y-92125554D01*
X128181227Y-92128716D01*
X128142222Y-92131355D01*
X128100254Y-92133372D01*
X128057121Y-92134669D01*
X128014622Y-92135149D01*
X127974556Y-92134713D01*
X127962755Y-92134372D01*
X127852322Y-92127267D01*
X127749626Y-92113681D01*
X127654544Y-92093572D01*
X127566955Y-92066897D01*
X127486735Y-92033615D01*
X127413762Y-91993684D01*
X127347915Y-91947060D01*
X127302279Y-91906852D01*
X127250750Y-91850706D01*
X127207645Y-91789902D01*
X127172623Y-91723787D01*
X127145346Y-91651708D01*
X127125472Y-91573012D01*
X127123823Y-91564460D01*
X127119381Y-91532680D01*
X127116208Y-91493040D01*
X127114291Y-91447755D01*
X127113617Y-91399043D01*
X127113640Y-91396907D01*
X127220489Y-91396907D01*
X127226691Y-91478268D01*
X127241409Y-91556194D01*
X127264457Y-91629823D01*
X127295647Y-91698292D01*
X127313139Y-91728564D01*
X127336587Y-91761662D01*
X127366653Y-91797076D01*
X127400960Y-91832403D01*
X127437128Y-91865238D01*
X127472779Y-91893178D01*
X127482977Y-91900218D01*
X127553518Y-91941780D01*
X127628683Y-91975958D01*
X127706637Y-92002129D01*
X127785543Y-92019667D01*
X127857098Y-92027622D01*
X127885881Y-92028768D01*
X127906037Y-92028195D01*
X127919021Y-92025462D01*
X127926285Y-92020126D01*
X127929282Y-92011745D01*
X127929640Y-92005545D01*
X127925294Y-91986272D01*
X127912462Y-91962482D01*
X127894032Y-91937840D01*
X127850708Y-91878050D01*
X127813574Y-91811256D01*
X127782816Y-91738647D01*
X127758621Y-91661413D01*
X127741175Y-91580745D01*
X127730664Y-91497833D01*
X127727273Y-91413868D01*
X127731189Y-91330041D01*
X127742597Y-91247541D01*
X127761684Y-91167559D01*
X127769671Y-91142006D01*
X127798657Y-91068384D01*
X127834560Y-91000506D01*
X127876816Y-90938942D01*
X127924861Y-90884261D01*
X127978132Y-90837032D01*
X128036066Y-90797827D01*
X128098098Y-90767215D01*
X128160780Y-90746493D01*
X128209262Y-90737381D01*
X128265403Y-90732503D01*
X128327670Y-90731766D01*
X128394529Y-90735077D01*
X128464446Y-90742343D01*
X128535889Y-90753471D01*
X128607324Y-90768368D01*
X128635227Y-90775277D01*
X128740145Y-90807551D01*
X128844240Y-90849594D01*
X128946973Y-90901020D01*
X129047802Y-90961444D01*
X129146190Y-91030479D01*
X129241595Y-91107738D01*
X129333479Y-91192836D01*
X129421301Y-91285386D01*
X129504522Y-91385002D01*
X129525822Y-91412648D01*
X129619884Y-91544751D01*
X129708327Y-91685126D01*
X129791092Y-91833541D01*
X129868124Y-91989766D01*
X129939363Y-92153568D01*
X130004752Y-92324718D01*
X130064234Y-92502984D01*
X130117751Y-92688135D01*
X130165245Y-92879940D01*
X130206660Y-93078168D01*
X130241936Y-93282588D01*
X130271017Y-93492969D01*
X130293845Y-93709079D01*
X130310363Y-93930689D01*
X130320512Y-94157565D01*
X130324235Y-94389479D01*
X130321958Y-94606147D01*
X130310504Y-94898796D01*
X130289631Y-95191527D01*
X130259461Y-95483737D01*
X130220116Y-95774822D01*
X130171716Y-96064179D01*
X130114384Y-96351205D01*
X130048240Y-96635296D01*
X129973406Y-96915849D01*
X129890004Y-97192261D01*
X129798155Y-97463927D01*
X129697981Y-97730245D01*
X129688029Y-97755264D01*
X129599484Y-97967656D01*
X129506444Y-98173163D01*
X129409066Y-98371567D01*
X129307508Y-98562654D01*
X129201927Y-98746207D01*
X129092481Y-98922008D01*
X128979328Y-99089844D01*
X128862624Y-99249496D01*
X128742528Y-99400749D01*
X128619197Y-99543387D01*
X128492789Y-99677193D01*
X128363460Y-99801952D01*
X128231370Y-99917446D01*
X128096675Y-100023460D01*
X127970280Y-100112642D01*
X127877931Y-100171778D01*
X127782600Y-100228130D01*
X127686404Y-100280566D01*
X127591459Y-100327953D01*
X127499883Y-100369161D01*
X127459158Y-100385854D01*
X127377297Y-100418279D01*
X127373762Y-100481911D01*
X127364628Y-100573984D01*
X127347463Y-100661505D01*
X127321774Y-100746735D01*
X127307926Y-100783390D01*
X127299538Y-100804790D01*
X127293039Y-100822255D01*
X127289092Y-100833938D01*
X127288320Y-100838000D01*
X127293832Y-100836665D01*
X127306967Y-100833055D01*
X127325598Y-100827765D01*
X127342141Y-100822980D01*
X127479777Y-100778490D01*
X127618984Y-100724929D01*
X127758408Y-100662955D01*
X127896699Y-100593229D01*
X128032503Y-100516409D01*
X128164469Y-100433155D01*
X128221571Y-100394235D01*
X128319740Y-100323500D01*
X128413343Y-100251335D01*
X128504344Y-100176081D01*
X128594706Y-100096079D01*
X128686394Y-100009668D01*
X128745126Y-99951789D01*
X128884543Y-99805998D01*
X129019008Y-99652605D01*
X129148767Y-99491281D01*
X129274065Y-99321695D01*
X129395147Y-99143517D01*
X129512260Y-98956418D01*
X129608509Y-98790760D01*
X129728237Y-98568089D01*
X129841546Y-98337900D01*
X129948301Y-98100660D01*
X130048364Y-97856835D01*
X130141601Y-97606892D01*
X130227876Y-97351297D01*
X130307051Y-97090517D01*
X130378991Y-96825020D01*
X130443560Y-96555270D01*
X130500621Y-96281736D01*
X130550040Y-96004883D01*
X130591679Y-95725179D01*
X130625402Y-95443090D01*
X130644829Y-95237300D01*
X130660738Y-95012724D01*
X130671065Y-94786246D01*
X130675854Y-94559067D01*
X130675151Y-94332389D01*
X130669001Y-94107413D01*
X130657450Y-93885342D01*
X130640543Y-93667376D01*
X130618325Y-93454719D01*
X130590843Y-93248572D01*
X130563189Y-93078300D01*
X130523554Y-92873405D01*
X130478290Y-92675102D01*
X130427491Y-92483563D01*
X130371249Y-92298961D01*
X130309657Y-92121466D01*
X130242808Y-91951252D01*
X130170796Y-91788491D01*
X130093714Y-91633355D01*
X130011654Y-91486016D01*
X129924710Y-91346647D01*
X129832975Y-91215419D01*
X129736542Y-91092506D01*
X129635504Y-90978079D01*
X129529954Y-90872310D01*
X129419985Y-90775372D01*
X129305691Y-90687437D01*
X129250440Y-90649224D01*
X129133129Y-90576853D01*
X129011788Y-90513543D01*
X128886918Y-90459447D01*
X128759020Y-90414721D01*
X128628596Y-90379518D01*
X128496149Y-90353990D01*
X128362178Y-90338294D01*
X128227187Y-90332582D01*
X128218262Y-90332560D01*
X128128749Y-90336052D01*
X128040712Y-90346295D01*
X127955349Y-90362934D01*
X127873863Y-90385617D01*
X127797451Y-90413991D01*
X127727315Y-90447702D01*
X127664654Y-90486398D01*
X127644183Y-90501461D01*
X127564514Y-90569195D01*
X127492827Y-90643151D01*
X127429216Y-90723148D01*
X127373775Y-90809002D01*
X127326601Y-90900531D01*
X127287786Y-90997552D01*
X127257427Y-91099882D01*
X127235619Y-91207339D01*
X127222990Y-91312973D01*
X127220489Y-91396907D01*
X127113640Y-91396907D01*
X127114172Y-91349122D01*
X127115941Y-91300208D01*
X127118912Y-91254519D01*
X127123069Y-91214272D01*
X127126134Y-91193620D01*
X127150410Y-91077524D01*
X127182457Y-90967710D01*
X127222539Y-90863615D01*
X127270918Y-90764675D01*
X127327856Y-90670330D01*
X127393615Y-90580016D01*
X127436331Y-90528767D01*
X127494816Y-90467220D01*
X127554832Y-90414963D01*
X127617478Y-90371134D01*
X127683260Y-90335155D01*
X127716420Y-90319709D01*
X127746680Y-90306711D01*
X127776687Y-90295198D01*
X127809088Y-90284206D01*
X127846528Y-90272771D01*
X127883920Y-90262088D01*
X127907797Y-90255751D01*
X127935745Y-90248880D01*
X127965745Y-90241910D01*
X127995779Y-90235276D01*
X128023828Y-90229414D01*
X128047875Y-90224759D01*
X128065901Y-90221747D01*
X128075308Y-90220799D01*
X128076695Y-90217126D01*
X128072569Y-90207041D01*
X128063905Y-90191951D01*
X128051682Y-90173260D01*
X128036877Y-90152374D01*
X128020467Y-90130698D01*
X128003430Y-90109636D01*
X127986742Y-90090594D01*
X127979245Y-90082688D01*
X127923307Y-90032739D01*
X127861043Y-89990528D01*
X127793104Y-89956406D01*
X127720139Y-89930722D01*
X127678180Y-89920337D01*
X127655412Y-89917048D01*
X127625473Y-89914915D01*
X127591287Y-89913933D01*
X127555775Y-89914101D01*
X127521860Y-89915416D01*
X127492466Y-89917876D01*
X127474980Y-89920503D01*
X127398447Y-89940155D01*
X127328446Y-89967539D01*
X127264880Y-90002736D01*
X127207655Y-90045827D01*
X127156673Y-90096894D01*
X127111838Y-90156020D01*
X127073055Y-90223285D01*
X127045426Y-90285268D01*
X127034840Y-90311135D01*
X127026418Y-90328840D01*
X127019104Y-90339854D01*
X127011839Y-90345648D01*
X127003564Y-90347695D01*
X127000467Y-90347799D01*
X126991259Y-90346506D01*
X126983505Y-90341634D01*
X126976142Y-90331693D01*
X126968105Y-90315196D01*
X126958330Y-90290653D01*
X126956893Y-90286840D01*
X126925733Y-90214728D01*
X126889347Y-90151125D01*
X126847247Y-90095548D01*
X126798943Y-90047516D01*
X126743946Y-90006549D01*
X126681766Y-89972164D01*
X126611915Y-89943882D01*
X126606082Y-89941902D01*
X126532583Y-89922490D01*
X126458465Y-89913066D01*
X126384443Y-89913548D01*
X126311231Y-89923852D01*
X126239543Y-89943896D01*
X126170092Y-89973596D01*
X126126901Y-89997784D01*
X126089631Y-90023885D01*
X126051456Y-90056277D01*
X126014415Y-90092808D01*
X125980547Y-90131330D01*
X125951892Y-90169691D01*
X125931399Y-90203940D01*
X125923140Y-90220100D01*
X125952300Y-90225878D01*
X125968596Y-90229418D01*
X125991694Y-90234842D01*
X126018579Y-90241424D01*
X126046234Y-90248441D01*
X126047500Y-90248768D01*
X126135022Y-90273864D01*
X126213903Y-90301789D01*
X126285433Y-90333229D01*
X126350901Y-90368871D01*
X126411597Y-90409401D01*
X126468811Y-90455506D01*
X126512040Y-90495967D01*
X126590021Y-90580482D01*
X126659545Y-90670525D01*
X126720437Y-90765739D01*
X126772523Y-90865767D01*
X126815627Y-90970250D01*
X126849573Y-91078831D01*
X126874187Y-91191152D01*
X126883707Y-91254580D01*
X126887318Y-91293234D01*
X126889421Y-91337936D01*
X126890056Y-91385987D01*
X126889267Y-91434684D01*
X126887096Y-91481328D01*
X126883586Y-91523218D01*
X126878927Y-91556840D01*
X126859767Y-91638939D01*
X126832920Y-91714417D01*
X126798266Y-91783436D01*
X126755683Y-91846156D01*
X126705051Y-91902738D01*
X126646247Y-91953344D01*
X126579152Y-91998133D01*
X126525179Y-92027097D01*
X126471020Y-92051969D01*
X126419604Y-92071852D01*
X126366600Y-92088252D01*
X126309120Y-92102362D01*
X126265302Y-92111545D01*
X126224861Y-92118779D01*
X126185620Y-92124270D01*
X126145405Y-92128220D01*
X126102041Y-92130836D01*
X126053353Y-92132319D01*
X125997167Y-92132876D01*
X125984000Y-92132895D01*
X125922510Y-92132531D01*
X125870283Y-92131361D01*
X125826448Y-92129305D01*
X125790134Y-92126283D01*
X125760468Y-92122215D01*
X125736581Y-92117022D01*
X125717600Y-92110623D01*
X125711639Y-92107930D01*
X125677030Y-92085596D01*
X125644977Y-92053904D01*
X125615755Y-92013399D01*
X125589644Y-91964624D01*
X125566919Y-91908123D01*
X125547858Y-91844440D01*
X125532739Y-91774119D01*
X125528559Y-91748883D01*
X125524222Y-91711743D01*
X125521245Y-91667384D01*
X125519629Y-91618527D01*
X125519376Y-91567893D01*
X125520485Y-91518207D01*
X125522958Y-91472188D01*
X125526795Y-91432561D01*
X125528465Y-91420676D01*
X125542361Y-91347739D01*
X125560236Y-91281306D01*
X125581819Y-91221905D01*
X125606838Y-91170060D01*
X125635021Y-91126297D01*
X125666096Y-91091142D01*
X125699792Y-91065120D01*
X125717138Y-91055880D01*
X125733440Y-91049106D01*
X125747823Y-91045371D01*
X125764239Y-91044040D01*
X125786643Y-91044475D01*
X125787724Y-91044520D01*
X125832167Y-91051167D01*
X125872952Y-91066756D01*
X125909786Y-91090644D01*
X125942379Y-91122188D01*
X125970439Y-91160745D01*
X125993677Y-91205671D01*
X126011800Y-91256323D01*
X126024519Y-91312059D01*
X126031541Y-91372236D01*
X126032577Y-91436209D01*
X126027335Y-91503335D01*
X126019020Y-91555822D01*
X126006367Y-91610019D01*
X125990275Y-91660545D01*
X125971272Y-91706748D01*
X125949885Y-91747977D01*
X125926642Y-91783579D01*
X125902069Y-91812904D01*
X125876695Y-91835299D01*
X125851047Y-91850113D01*
X125825651Y-91856693D01*
X125801036Y-91854390D01*
X125783683Y-91846611D01*
X125764366Y-91830002D01*
X125745171Y-91804815D01*
X125726945Y-91772610D01*
X125710532Y-91734943D01*
X125696778Y-91693372D01*
X125693158Y-91679823D01*
X125688595Y-91659849D01*
X125685439Y-91640572D01*
X125683459Y-91619394D01*
X125682428Y-91593714D01*
X125682116Y-91560937D01*
X125682119Y-91554300D01*
X125682330Y-91522199D01*
X125683000Y-91498135D01*
X125684341Y-91479987D01*
X125686565Y-91465635D01*
X125689884Y-91452959D01*
X125693219Y-91443278D01*
X125709378Y-91408443D01*
X125728571Y-91383115D01*
X125750707Y-91367382D01*
X125775693Y-91361331D01*
X125778897Y-91361260D01*
X125797983Y-91363881D01*
X125812594Y-91372819D01*
X125813323Y-91373493D01*
X125823555Y-91384531D01*
X125828594Y-91395080D01*
X125828390Y-91407401D01*
X125822895Y-91423754D01*
X125812060Y-91446402D01*
X125811720Y-91447068D01*
X125797397Y-91479668D01*
X125785967Y-91514574D01*
X125778436Y-91548188D01*
X125775808Y-91575639D01*
X125778598Y-91609424D01*
X125786697Y-91635943D01*
X125799092Y-91654808D01*
X125814770Y-91665631D01*
X125832717Y-91668025D01*
X125851920Y-91661602D01*
X125871366Y-91645973D01*
X125890042Y-91620751D01*
X125890708Y-91619622D01*
X125907818Y-91582118D01*
X125919986Y-91537843D01*
X125927222Y-91488897D01*
X125929540Y-91437379D01*
X125926951Y-91385390D01*
X125919465Y-91335029D01*
X125907096Y-91288395D01*
X125889854Y-91247589D01*
X125888630Y-91245307D01*
X125870031Y-91218320D01*
X125847365Y-91196748D01*
X125822333Y-91181499D01*
X125796638Y-91173476D01*
X125771979Y-91173586D01*
X125760363Y-91177059D01*
X125732218Y-91194089D01*
X125706068Y-91220287D01*
X125682269Y-91254793D01*
X125661178Y-91296747D01*
X125643153Y-91345291D01*
X125628550Y-91399565D01*
X125617726Y-91458710D01*
X125611038Y-91521865D01*
X125610010Y-91539060D01*
X125609490Y-91606087D01*
X125614545Y-91670590D01*
X125624837Y-91731611D01*
X125640027Y-91788191D01*
X125659777Y-91839370D01*
X125683749Y-91884191D01*
X125711604Y-91921694D01*
X125743005Y-91950921D01*
X125759153Y-91961679D01*
X125788001Y-91973303D01*
X125821616Y-91978229D01*
X125856995Y-91976302D01*
X125888771Y-91968256D01*
X125918549Y-91955884D01*
X125943566Y-91941510D01*
X125967649Y-91922675D01*
X125985189Y-91906315D01*
X126028419Y-91857320D01*
X126066305Y-91800702D01*
X126098530Y-91737664D01*
X126124779Y-91669412D01*
X126144734Y-91597151D01*
X126158080Y-91522085D01*
X126164501Y-91445419D01*
X126163680Y-91368357D01*
X126155302Y-91292105D01*
X126151704Y-91271820D01*
X126133942Y-91199201D01*
X126109776Y-91131476D01*
X126079704Y-91069362D01*
X126044226Y-91013574D01*
X126003840Y-90964827D01*
X125959046Y-90923835D01*
X125910343Y-90891316D01*
X125874182Y-90873972D01*
X125840956Y-90862110D01*
X125807334Y-90853784D01*
X125771013Y-90848685D01*
X125729689Y-90846503D01*
X125681061Y-90846932D01*
X125674120Y-90847162D01*
X125564241Y-90856109D01*
X125455386Y-90875014D01*
X125347874Y-90903697D01*
X125242024Y-90941980D01*
X125138154Y-90989685D01*
X125036583Y-91046632D01*
X124937630Y-91112645D01*
X124841614Y-91187543D01*
X124748854Y-91271149D01*
X124659668Y-91363284D01*
X124575719Y-91462083D01*
X124558273Y-91484506D01*
X124546815Y-91500730D01*
X124540531Y-91512107D01*
X124538609Y-91519988D01*
X124398232Y-91519988D01*
X124474208Y-91414910D01*
X124563832Y-91305151D01*
X124657147Y-91204432D01*
X124754019Y-91112894D01*
X124854311Y-91030678D01*
X124957887Y-90957928D01*
X125015454Y-90922442D01*
X125120439Y-90866355D01*
X125227640Y-90820137D01*
X125337484Y-90783657D01*
X125450398Y-90756783D01*
X125566809Y-90739384D01*
X125628400Y-90734068D01*
X125706299Y-90731868D01*
X125777127Y-90736219D01*
X125841844Y-90747455D01*
X125901411Y-90765907D01*
X125956790Y-90791906D01*
X126008942Y-90825786D01*
X126058829Y-90867878D01*
X126081868Y-90890699D01*
X126130833Y-90947706D01*
X126172461Y-91009793D01*
X126207169Y-91077786D01*
X126235374Y-91152513D01*
X126257494Y-91234800D01*
X126259045Y-91241880D01*
X126262897Y-91260916D01*
X126265799Y-91278747D01*
X126267884Y-91297304D01*
X126269283Y-91318520D01*
X126270129Y-91344327D01*
X126270554Y-91376659D01*
X126270685Y-91412060D01*
X126270357Y-91462289D01*
X126269037Y-91504704D01*
X126266420Y-91541629D01*
X126262205Y-91575387D01*
X126256088Y-91608301D01*
X126247767Y-91642694D01*
X126236940Y-91680889D01*
X126234677Y-91688428D01*
X126216775Y-91740612D01*
X126195001Y-91792517D01*
X126170463Y-91842012D01*
X126144269Y-91886965D01*
X126117527Y-91925247D01*
X126101617Y-91944197D01*
X126085495Y-91963827D01*
X126074197Y-91981702D01*
X126068765Y-91995961D01*
X126068940Y-92002610D01*
X126075610Y-92006880D01*
X126090768Y-92008667D01*
X126113085Y-92008110D01*
X126141234Y-92005348D01*
X126173885Y-92000518D01*
X126209711Y-91993761D01*
X126247383Y-91985214D01*
X126255780Y-91983109D01*
X126340015Y-91957490D01*
X126418255Y-91925304D01*
X126490000Y-91886914D01*
X126554747Y-91842684D01*
X126611993Y-91792975D01*
X126661237Y-91738151D01*
X126701977Y-91678574D01*
X126718084Y-91648956D01*
X126744313Y-91588404D01*
X126763359Y-91525223D01*
X126775286Y-91458571D01*
X126780158Y-91387609D01*
X126778040Y-91311495D01*
X126768997Y-91229388D01*
X126756013Y-91154762D01*
X126731183Y-91052027D01*
X126698868Y-90955849D01*
X126658706Y-90865537D01*
X126610336Y-90780402D01*
X126553396Y-90699756D01*
X126487524Y-90622909D01*
X126464072Y-90598575D01*
X126423058Y-90558398D01*
X126386050Y-90525037D01*
X126351139Y-90497049D01*
X126316412Y-90472991D01*
X126279958Y-90451422D01*
X126245825Y-90433788D01*
X126161608Y-90397598D01*
X126073107Y-90369429D01*
X125979954Y-90349238D01*
X125881783Y-90336982D01*
X125778226Y-90332620D01*
X125668916Y-90336108D01*
X125553485Y-90347403D01*
X125529340Y-90350637D01*
X125395666Y-90374419D01*
X125264190Y-90408036D01*
X125135305Y-90451322D01*
X125009403Y-90504112D01*
X124886879Y-90566242D01*
X124768124Y-90637548D01*
X124654896Y-90716837D01*
X124604005Y-90757024D01*
X124549178Y-90803650D01*
X124492352Y-90854866D01*
X124435463Y-90908821D01*
X124380451Y-90963666D01*
X124329251Y-91017549D01*
X124283803Y-91068621D01*
X124272627Y-91081860D01*
X124169923Y-91212706D01*
X124072881Y-91351891D01*
X123981545Y-91499287D01*
X123895953Y-91654768D01*
X123816149Y-91818210D01*
X123742173Y-91989486D01*
X123674068Y-92168469D01*
X123611874Y-92355036D01*
X123555632Y-92549059D01*
X123505385Y-92750413D01*
X123461173Y-92958972D01*
X123423039Y-93174610D01*
X123391023Y-93397202D01*
X123365167Y-93626621D01*
X123345513Y-93862742D01*
X123342611Y-93906340D01*
X123334549Y-94057537D01*
X123329144Y-94215989D01*
X123326392Y-94379147D01*
X123326287Y-94544462D01*
X123216547Y-94544462D01*
X123216109Y-94525519D01*
X123218417Y-94236017D01*
X123229849Y-93948827D01*
X123250493Y-93664597D01*
X123266599Y-93502480D01*
X123293931Y-93284578D01*
X123327723Y-93071304D01*
X123367851Y-92863035D01*
X123414192Y-92660147D01*
X123466623Y-92463017D01*
X123525019Y-92272021D01*
X123589258Y-92087535D01*
X123659216Y-91909937D01*
X123734769Y-91739602D01*
X123815796Y-91576908D01*
X123902171Y-91422230D01*
X123993771Y-91275945D01*
X123998788Y-91268407D01*
X124091600Y-91136941D01*
X124189128Y-91013445D01*
X124291128Y-90898085D01*
X124397352Y-90791029D01*
X124507555Y-90692443D01*
X124621490Y-90602494D01*
X124738911Y-90521350D01*
X124859573Y-90449175D01*
X124983230Y-90386139D01*
X125109635Y-90332407D01*
X125238542Y-90288146D01*
X125369705Y-90253523D01*
X125502879Y-90228705D01*
X125539500Y-90223662D01*
X125564301Y-90220812D01*
X125594949Y-90217758D01*
X125629085Y-90214688D01*
X125664348Y-90211789D01*
X125698379Y-90209248D01*
X125728819Y-90207253D01*
X125753307Y-90205992D01*
X125766487Y-90205638D01*
X125778975Y-90202034D01*
X125783318Y-90195467D01*
X125789479Y-90182240D01*
X125800857Y-90163294D01*
X125816040Y-90140609D01*
X125833614Y-90116162D01*
X125852166Y-90091933D01*
X125870285Y-90069902D01*
X125883334Y-90055381D01*
X125948770Y-89993762D01*
X126020877Y-89939531D01*
X126098963Y-89893074D01*
X126182335Y-89854779D01*
X126270299Y-89825034D01*
X126315831Y-89813479D01*
X126345403Y-89806780D01*
X126348465Y-89797611D01*
X126465639Y-89797611D01*
X126502949Y-89801056D01*
X126539090Y-89806433D01*
X126580457Y-89815910D01*
X126623506Y-89828462D01*
X126664690Y-89843064D01*
X126697740Y-89857357D01*
X126756048Y-89890317D01*
X126813405Y-89931796D01*
X126868023Y-89980188D01*
X126918112Y-90033886D01*
X126961883Y-90091285D01*
X126967265Y-90099313D01*
X126981860Y-90121119D01*
X126992095Y-90135366D01*
X126998964Y-90143128D01*
X127003463Y-90145480D01*
X127006587Y-90143498D01*
X127007241Y-90142498D01*
X127012254Y-90134491D01*
X127021371Y-90120289D01*
X127033114Y-90102185D01*
X127041439Y-90089436D01*
X127091377Y-90021410D01*
X127146335Y-89962197D01*
X127206278Y-89911818D01*
X127271171Y-89870297D01*
X127340980Y-89837657D01*
X127415670Y-89813920D01*
X127476950Y-89801653D01*
X127497795Y-89798274D01*
X127514548Y-89795188D01*
X127524878Y-89792845D01*
X127526986Y-89792026D01*
X127527688Y-89784699D01*
X127523657Y-89770468D01*
X127515704Y-89750942D01*
X127504639Y-89727732D01*
X127491272Y-89702449D01*
X127476413Y-89676703D01*
X127460872Y-89652105D01*
X127445939Y-89630899D01*
X127398569Y-89576188D01*
X127344930Y-89529420D01*
X127285270Y-89490744D01*
X127219835Y-89460308D01*
X127148873Y-89438261D01*
X127111760Y-89430493D01*
X127079340Y-89426346D01*
X127040225Y-89423851D01*
X126997745Y-89423010D01*
X126955229Y-89423821D01*
X126916007Y-89426287D01*
X126883408Y-89430407D01*
X126883111Y-89430460D01*
X126809538Y-89448217D01*
X126741365Y-89474437D01*
X126678844Y-89508967D01*
X126622227Y-89551655D01*
X126571764Y-89602351D01*
X126547001Y-89633218D01*
X126531289Y-89656061D01*
X126515052Y-89682575D01*
X126499508Y-89710450D01*
X126485876Y-89737377D01*
X126475372Y-89761045D01*
X126469216Y-89779145D01*
X126468617Y-89781875D01*
X126465639Y-89797611D01*
X126348465Y-89797611D01*
X126358127Y-89768680D01*
X126366177Y-89747002D01*
X126377172Y-89720587D01*
X126389308Y-89693678D01*
X126395391Y-89681057D01*
X126437931Y-89605440D01*
X126486585Y-89537810D01*
X126541199Y-89478289D01*
X126601618Y-89426999D01*
X126667689Y-89384061D01*
X126739257Y-89349598D01*
X126816167Y-89323731D01*
X126861914Y-89312965D01*
X126895161Y-89308085D01*
X126935619Y-89304980D01*
X126980499Y-89303625D01*
X127027014Y-89303991D01*
G37*
X127027014Y-89303991D02*
X127072375Y-89306052D01*
X127113794Y-89309780D01*
X127148483Y-89315150D01*
X127151395Y-89315759D01*
X127230635Y-89337497D01*
X127304009Y-89367438D01*
X127371830Y-89405785D01*
X127434414Y-89452739D01*
X127492077Y-89508504D01*
X127538895Y-89564889D01*
X127560962Y-89596620D01*
X127583934Y-89633879D01*
X127606332Y-89673914D01*
X127626682Y-89713972D01*
X127643506Y-89751301D01*
X127654383Y-89780197D01*
X127659840Y-89796109D01*
X127664296Y-89807714D01*
X127666434Y-89811967D01*
X127672382Y-89814133D01*
X127685301Y-89817240D01*
X127698942Y-89819959D01*
X127739191Y-89829382D01*
X127784524Y-89843437D01*
X127831659Y-89860992D01*
X127877314Y-89880915D01*
X127881541Y-89882931D01*
X127954134Y-89922295D01*
X128021352Y-89967714D01*
X128082191Y-90018300D01*
X128135644Y-90073169D01*
X128180704Y-90131433D01*
X128201778Y-90165007D01*
X128224618Y-90204605D01*
X128279059Y-90207746D01*
X128385529Y-90215775D01*
X128484491Y-90227326D01*
X128578105Y-90242803D01*
X128668531Y-90262607D01*
X128757931Y-90287143D01*
X128830719Y-90310639D01*
X128961526Y-90360876D01*
X129088777Y-90420499D01*
X129212356Y-90489334D01*
X129332152Y-90567209D01*
X129448049Y-90653949D01*
X129559933Y-90749381D01*
X129667691Y-90853332D01*
X129771209Y-90965630D01*
X129870372Y-91086099D01*
X129965067Y-91214568D01*
X130055180Y-91350862D01*
X130140596Y-91494809D01*
X130221201Y-91646235D01*
X130296883Y-91804967D01*
X130367526Y-91970831D01*
X130433017Y-92143654D01*
X130493241Y-92323263D01*
X130548085Y-92509485D01*
X130597435Y-92702146D01*
X130641177Y-92901072D01*
X130679196Y-93106092D01*
X130682619Y-93126560D01*
X130699612Y-93233878D01*
X130714818Y-93340232D01*
X130728415Y-93447300D01*
X130740581Y-93556754D01*
X130751495Y-93670272D01*
X130761334Y-93789528D01*
X130770276Y-93916198D01*
X130775515Y-94000320D01*
X130777014Y-94032053D01*
X130778320Y-94072725D01*
X130779431Y-94121114D01*
X130780350Y-94176000D01*
X130781074Y-94236164D01*
X130781606Y-94300384D01*
X130781943Y-94367440D01*
X130782087Y-94436112D01*
X130782038Y-94505179D01*
X130781795Y-94573422D01*
X130781358Y-94639620D01*
X130780728Y-94702553D01*
X130779904Y-94760999D01*
X130778887Y-94813740D01*
X130777676Y-94859555D01*
X130776271Y-94897223D01*
X130775521Y-94912180D01*
X130760706Y-95140254D01*
X130742134Y-95360657D01*
X130719574Y-95575248D01*
X130692797Y-95785882D01*
X130661575Y-95994418D01*
X130625677Y-96202712D01*
X130598562Y-96344740D01*
X130543920Y-96602528D01*
X130483133Y-96855889D01*
X130416343Y-97104551D01*
X130343690Y-97348243D01*
X130265316Y-97586694D01*
X130181363Y-97819632D01*
X130091971Y-98046785D01*
X129997284Y-98267883D01*
X129897441Y-98482653D01*
X129792585Y-98690825D01*
X129682856Y-98892126D01*
X129568397Y-99086286D01*
X129449349Y-99273033D01*
X129325853Y-99452096D01*
X129198051Y-99623202D01*
X129066084Y-99786082D01*
X128930094Y-99940462D01*
X128790222Y-100086073D01*
X128646610Y-100222641D01*
X128520289Y-100332593D01*
X128383014Y-100441660D01*
X128241799Y-100543264D01*
X128097294Y-100637063D01*
X127950149Y-100722714D01*
X127801014Y-100799876D01*
X127650540Y-100868204D01*
X127499377Y-100927358D01*
X127348174Y-100976995D01*
X127240991Y-101006312D01*
X127177344Y-101022251D01*
X127161635Y-101045083D01*
X127144591Y-101068346D01*
X127124320Y-101093671D01*
X127102624Y-101119020D01*
X127081308Y-101142358D01*
X127062175Y-101161647D01*
X127047028Y-101174850D01*
X127046183Y-101175479D01*
X127023935Y-101189595D01*
X127005278Y-101195820D01*
X126987957Y-101194570D01*
X126974181Y-101188815D01*
X126960991Y-101179444D01*
X126943303Y-101163706D01*
X126922753Y-101143330D01*
X126900982Y-101120045D01*
X126879628Y-101095582D01*
X126860330Y-101071669D01*
X126850140Y-101057911D01*
X126837365Y-101040384D01*
X126827746Y-101029308D01*
X126818771Y-101022702D01*
X126807924Y-101018586D01*
X126796800Y-101015887D01*
X126772077Y-101009853D01*
X126739916Y-101001219D01*
X126702503Y-100990636D01*
X126662024Y-100978759D01*
X126620666Y-100966241D01*
X126580614Y-100953736D01*
X126544055Y-100941897D01*
X126513174Y-100931377D01*
X126508262Y-100929629D01*
X126342831Y-100864883D01*
X126180279Y-100790418D01*
X126020659Y-100706275D01*
X125864023Y-100612493D01*
X125710422Y-100509114D01*
X125559910Y-100396177D01*
X125412537Y-100273722D01*
X125268357Y-100141790D01*
X125127422Y-100000420D01*
X124989783Y-99849654D01*
X124855494Y-99689531D01*
X124789719Y-99606100D01*
X124664395Y-99437017D01*
X124542577Y-99258870D01*
X124424589Y-99072241D01*
X124310754Y-98877715D01*
X124201397Y-98675873D01*
X124096840Y-98467302D01*
X123997407Y-98252583D01*
X123903423Y-98032300D01*
X123868289Y-97944940D01*
X123767925Y-97678042D01*
X123675635Y-97405710D01*
X123591509Y-97128589D01*
X123515632Y-96847325D01*
X123448093Y-96562562D01*
X123388978Y-96274947D01*
X123338376Y-95985126D01*
X123296373Y-95693744D01*
X123263058Y-95401446D01*
X123238517Y-95108879D01*
X123222838Y-94816688D01*
X123216547Y-94544462D01*
X123326287Y-94544462D01*
X123328822Y-94709384D01*
X123333993Y-94871364D01*
X123341793Y-95027853D01*
X123345244Y-95082360D01*
X123370618Y-95389241D01*
X123405342Y-95693647D01*
X123449348Y-95995270D01*
X123502567Y-96293805D01*
X123564930Y-96588945D01*
X123636367Y-96880384D01*
X123716811Y-97167816D01*
X123806192Y-97450935D01*
X123904442Y-97729434D01*
X123990684Y-97951931D01*
X124055957Y-98107947D01*
X124126386Y-98265661D01*
X124200914Y-98422941D01*
X124278488Y-98577656D01*
X124358051Y-98727674D01*
X124438549Y-98870864D01*
X124482985Y-98946182D01*
X124599807Y-99133112D01*
X124720417Y-99311375D01*
X124844719Y-99480884D01*
X124972616Y-99641555D01*
X125104011Y-99793304D01*
X125238807Y-99936046D01*
X125376907Y-100069697D01*
X125518214Y-100194171D01*
X125662632Y-100309386D01*
X125810063Y-100415255D01*
X125960411Y-100511695D01*
X126113578Y-100598620D01*
X126269467Y-100675947D01*
X126427983Y-100743591D01*
X126589027Y-100801467D01*
X126622043Y-100812023D01*
X126649381Y-100820486D01*
X126673552Y-100827788D01*
X126692797Y-100833411D01*
X126705357Y-100836839D01*
X126709238Y-100837656D01*
X126712388Y-100835383D01*
X126710497Y-100826908D01*
X126707209Y-100818950D01*
X126696747Y-100793084D01*
X126685009Y-100760389D01*
X126672971Y-100723943D01*
X126661606Y-100686824D01*
X126651889Y-100652111D01*
X126644795Y-100622883D01*
X126644098Y-100619560D01*
X126639266Y-100591076D01*
X126634933Y-100556556D01*
X126631564Y-100520119D01*
X126629903Y-100493042D01*
X126626890Y-100425868D01*
X126736905Y-100425868D01*
X126737163Y-100470783D01*
X126737337Y-100474780D01*
X126746427Y-100561631D01*
X126765464Y-100648713D01*
X126794264Y-100735497D01*
X126832642Y-100821460D01*
X126880413Y-100906074D01*
X126898867Y-100934601D01*
X126924326Y-100971751D01*
X126945734Y-101000462D01*
X126963917Y-101021208D01*
X126979699Y-101034465D01*
X126993907Y-101040707D01*
X127007365Y-101040408D01*
X127020899Y-101034043D01*
X127035334Y-101022087D01*
X127041040Y-101016369D01*
X127058353Y-100996242D01*
X127078748Y-100969034D01*
X127100884Y-100936807D01*
X127123420Y-100901627D01*
X127145014Y-100865558D01*
X127164324Y-100830663D01*
X127173723Y-100812235D01*
X127203997Y-100743853D01*
X127229291Y-100672860D01*
X127248108Y-100603495D01*
X127249129Y-100598877D01*
X127256248Y-100557133D01*
X127260882Y-100510440D01*
X127263034Y-100461358D01*
X127262707Y-100412448D01*
X127259904Y-100366270D01*
X127254628Y-100325385D01*
X127248779Y-100298745D01*
X127238121Y-100277399D01*
X127218756Y-100256104D01*
X127192095Y-100235838D01*
X127159549Y-100217578D01*
X127122527Y-100202301D01*
X127099060Y-100195055D01*
X127080157Y-100191112D01*
X127055259Y-100187526D01*
X127028527Y-100184852D01*
X127016653Y-100184075D01*
X126971525Y-100184554D01*
X126927178Y-100190308D01*
X126884939Y-100200741D01*
X126846135Y-100215259D01*
X126812094Y-100233267D01*
X126784141Y-100254170D01*
X126763605Y-100277373D01*
X126751812Y-100302282D01*
X126751654Y-100302869D01*
X126744437Y-100338474D01*
X126739425Y-100380620D01*
X126736905Y-100425868D01*
X126626890Y-100425868D01*
X126626620Y-100419864D01*
X126540591Y-100385256D01*
X126395922Y-100321754D01*
X126252939Y-100248378D01*
X126111888Y-100165310D01*
X125973016Y-100072733D01*
X125962792Y-100065097D01*
X126161212Y-100065097D01*
X126162726Y-100068565D01*
X126172731Y-100076102D01*
X126190440Y-100087446D01*
X126214486Y-100101829D01*
X126243502Y-100118483D01*
X126276120Y-100136639D01*
X126310974Y-100155529D01*
X126346695Y-100174384D01*
X126381918Y-100192437D01*
X126392940Y-100197958D01*
X126421532Y-100211918D01*
X126453008Y-100226819D01*
X126485923Y-100242026D01*
X126518832Y-100256903D01*
X126550292Y-100270815D01*
X126578859Y-100283124D01*
X126603087Y-100293195D01*
X126621534Y-100300392D01*
X126632755Y-100304079D01*
X126634701Y-100304422D01*
X126637372Y-100300025D01*
X126641057Y-100288521D01*
X126643685Y-100277930D01*
X126657916Y-100237272D01*
X126681293Y-100200049D01*
X126713268Y-100166653D01*
X126753294Y-100137474D01*
X126800824Y-100112904D01*
X126855311Y-100093332D01*
X126916207Y-100079151D01*
X126923800Y-100077850D01*
X126977481Y-100072661D01*
X127033329Y-100073953D01*
X127089522Y-100081256D01*
X127144237Y-100094100D01*
X127195652Y-100112013D01*
X127241944Y-100134526D01*
X127281290Y-100161169D01*
X127295672Y-100173828D01*
X127318311Y-100199554D01*
X127337647Y-100229093D01*
X127351848Y-100259244D01*
X127358667Y-100283893D01*
X127361164Y-100296718D01*
X127363446Y-100303984D01*
X127364044Y-100304600D01*
X127372258Y-100302515D01*
X127388243Y-100296667D01*
X127410599Y-100287666D01*
X127437924Y-100276122D01*
X127468818Y-100262645D01*
X127501881Y-100247845D01*
X127535713Y-100232332D01*
X127568913Y-100216715D01*
X127596900Y-100203173D01*
X127628547Y-100187288D01*
X127662414Y-100169719D01*
X127697140Y-100151227D01*
X127731369Y-100132571D01*
X127763741Y-100114513D01*
X127792899Y-100097812D01*
X127817483Y-100083230D01*
X127836137Y-100071527D01*
X127847500Y-100063462D01*
X127849256Y-100061895D01*
X127847459Y-100057148D01*
X127839230Y-100048037D01*
X127826231Y-100036345D01*
X127822942Y-100033641D01*
X127762409Y-99981521D01*
X127700954Y-99922794D01*
X127640569Y-99859641D01*
X127583245Y-99794242D01*
X127530976Y-99728777D01*
X127485752Y-99665428D01*
X127483463Y-99661980D01*
X127471811Y-99643465D01*
X127457818Y-99619860D01*
X127442503Y-99593036D01*
X127426882Y-99564863D01*
X127411973Y-99537213D01*
X127398795Y-99511958D01*
X127388365Y-99490969D01*
X127381701Y-99476117D01*
X127380341Y-99472386D01*
X127375405Y-99471949D01*
X127362832Y-99477877D01*
X127342550Y-99490208D01*
X127322442Y-99503542D01*
X127290622Y-99524350D01*
X127255391Y-99546019D01*
X127218026Y-99567886D01*
X127179806Y-99589286D01*
X127142008Y-99609556D01*
X127105910Y-99628033D01*
X127072791Y-99644052D01*
X127043928Y-99656951D01*
X127020600Y-99666065D01*
X127004083Y-99670730D01*
X126999567Y-99671204D01*
X126988006Y-99668736D01*
X126969038Y-99661681D01*
X126943948Y-99650715D01*
X126914019Y-99636513D01*
X126880537Y-99619752D01*
X126844784Y-99601107D01*
X126808046Y-99581254D01*
X126771607Y-99560867D01*
X126736750Y-99540624D01*
X126704760Y-99521200D01*
X126676922Y-99503270D01*
X126665419Y-99495398D01*
X126633098Y-99472725D01*
X126598901Y-99540342D01*
X126554733Y-99619312D01*
X126501829Y-99699398D01*
X126441308Y-99779233D01*
X126374287Y-99857453D01*
X126301883Y-99932694D01*
X126225215Y-100003592D01*
X126205906Y-100020146D01*
X126185072Y-100038053D01*
X126171313Y-100050802D01*
X126163678Y-100059460D01*
X126161212Y-100065097D01*
X125962792Y-100065097D01*
X125836570Y-99970830D01*
X125702796Y-99859783D01*
X125571941Y-99739776D01*
X125444251Y-99610992D01*
X125335795Y-99491800D01*
X125206555Y-99337190D01*
X125081335Y-99173430D01*
X124960262Y-99000752D01*
X124843462Y-98819391D01*
X124731061Y-98629579D01*
X124623185Y-98431551D01*
X124595502Y-98376300D01*
X124722295Y-98376300D01*
X124724926Y-98383153D01*
X124731901Y-98397587D01*
X124742542Y-98418351D01*
X124756170Y-98444195D01*
X124772105Y-98473870D01*
X124789670Y-98506124D01*
X124808183Y-98539707D01*
X124826968Y-98573370D01*
X124845345Y-98605860D01*
X124862634Y-98635930D01*
X124871744Y-98651509D01*
X124970991Y-98814428D01*
X125071365Y-98968012D01*
X125173477Y-99113076D01*
X125277935Y-99250430D01*
X125385350Y-99380887D01*
X125496332Y-99505261D01*
X125572520Y-99585113D01*
X125679986Y-99690949D01*
X125786236Y-99787749D01*
X125892280Y-99876390D01*
X125999133Y-99957749D01*
X126021491Y-99973793D01*
X126046717Y-99991508D01*
X126065106Y-100003824D01*
X126077948Y-100011441D01*
X126086529Y-100015061D01*
X126092138Y-100015386D01*
X126095151Y-100013904D01*
X126102229Y-100008226D01*
X126115207Y-99997636D01*
X126132164Y-99983705D01*
X126149100Y-99969727D01*
X126167596Y-99953743D01*
X126191066Y-99932426D01*
X126217412Y-99907739D01*
X126244538Y-99881646D01*
X126268559Y-99857905D01*
X126338575Y-99784090D01*
X126399729Y-99711871D01*
X126452920Y-99640037D01*
X126499052Y-99567376D01*
X126536748Y-99497309D01*
X126570421Y-99429158D01*
X126555667Y-99418569D01*
X126546757Y-99411867D01*
X126531610Y-99400150D01*
X126511927Y-99384744D01*
X126489407Y-99366979D01*
X126473857Y-99354640D01*
X126367229Y-99265045D01*
X126260252Y-99165703D01*
X126153247Y-99057006D01*
X126046537Y-98939343D01*
X125940444Y-98813106D01*
X125835291Y-98678686D01*
X125731401Y-98536473D01*
X125629094Y-98386858D01*
X125528696Y-98230233D01*
X125478546Y-98148140D01*
X125462004Y-98120689D01*
X125447159Y-98096183D01*
X125434830Y-98075966D01*
X125425836Y-98061379D01*
X125420998Y-98053765D01*
X125420481Y-98053044D01*
X125415436Y-98054363D01*
X125404539Y-98060970D01*
X125389723Y-98071628D01*
X125381920Y-98077714D01*
X125305375Y-98133366D01*
X125220110Y-98185183D01*
X125126963Y-98232775D01*
X125026772Y-98275752D01*
X124920376Y-98313724D01*
X124808612Y-98346300D01*
X124800360Y-98348432D01*
X124768986Y-98356725D01*
X124746528Y-98363316D01*
X124731954Y-98368573D01*
X124724232Y-98372865D01*
X124722295Y-98376300D01*
X124595502Y-98376300D01*
X124519962Y-98225539D01*
X124421517Y-98011778D01*
X124327978Y-97790500D01*
X124239469Y-97561940D01*
X124156119Y-97326330D01*
X124144566Y-97291887D01*
X124055656Y-97009570D01*
X123976084Y-96724332D01*
X123905804Y-96435918D01*
X123844765Y-96144075D01*
X123792921Y-95848550D01*
X123750223Y-95549091D01*
X123716623Y-95245443D01*
X123692073Y-94937354D01*
X123690007Y-94904560D01*
X123687528Y-94857279D01*
X123685317Y-94801448D01*
X123683390Y-94738673D01*
X123681761Y-94670562D01*
X123680448Y-94598721D01*
X123679464Y-94524756D01*
X123678826Y-94450275D01*
X123678668Y-94408027D01*
X123790806Y-94408027D01*
X123790952Y-94461941D01*
X123791274Y-94513486D01*
X123791779Y-94561522D01*
X123792473Y-94604911D01*
X123793362Y-94642514D01*
X123794045Y-94663260D01*
X123809923Y-94963146D01*
X123834726Y-95260769D01*
X123868371Y-95555784D01*
X123910778Y-95847845D01*
X123961863Y-96136607D01*
X124021544Y-96421725D01*
X124089740Y-96702853D01*
X124166367Y-96979646D01*
X124251345Y-97251759D01*
X124344591Y-97518846D01*
X124446022Y-97780562D01*
X124555556Y-98036562D01*
X124639796Y-98217990D01*
X124655173Y-98249367D01*
X124667139Y-98272212D01*
X124676193Y-98287367D01*
X124682837Y-98295676D01*
X124687252Y-98298000D01*
X124695269Y-98296791D01*
X124711065Y-98293473D01*
X124732585Y-98288508D01*
X124757779Y-98282358D01*
X124766523Y-98280154D01*
X124874054Y-98249723D01*
X124976356Y-98214525D01*
X125072588Y-98174949D01*
X125161906Y-98131390D01*
X125243468Y-98084237D01*
X125316429Y-98033885D01*
X125345463Y-98010922D01*
X125380027Y-97982364D01*
X125358498Y-97943332D01*
X125329283Y-97890111D01*
X125303008Y-97841632D01*
X125278448Y-97795552D01*
X125254377Y-97749530D01*
X125229569Y-97701222D01*
X125202799Y-97648287D01*
X125174582Y-97591880D01*
X125126840Y-97494946D01*
X125083783Y-97405014D01*
X125044726Y-97320460D01*
X125008984Y-97239661D01*
X124975873Y-97160992D01*
X124944706Y-97082831D01*
X124914800Y-97003554D01*
X124885470Y-96921536D01*
X124858512Y-96842580D01*
X124785143Y-96609193D01*
X124721445Y-96376055D01*
X124667219Y-96142148D01*
X124622262Y-95906454D01*
X124586372Y-95667955D01*
X124559350Y-95425631D01*
X124546246Y-95262700D01*
X124542467Y-95197650D01*
X124539488Y-95125893D01*
X124537310Y-95049218D01*
X124535934Y-94969416D01*
X124535886Y-94962520D01*
X124676878Y-94962520D01*
X124680763Y-95115933D01*
X124688687Y-95271080D01*
X124700651Y-95426444D01*
X124701701Y-95437960D01*
X124724361Y-95642471D01*
X124754587Y-95848128D01*
X124792067Y-96053734D01*
X124836492Y-96258091D01*
X124887551Y-96460001D01*
X124944934Y-96658268D01*
X125008330Y-96851694D01*
X125077428Y-97039081D01*
X125151918Y-97219233D01*
X125179791Y-97281638D01*
X125269882Y-97472834D01*
X125363645Y-97659349D01*
X125460624Y-97840410D01*
X125560364Y-98015245D01*
X125662407Y-98183082D01*
X125766300Y-98343150D01*
X125871586Y-98494677D01*
X125977809Y-98636891D01*
X125986862Y-98648520D01*
X126068136Y-98748966D01*
X126153076Y-98847123D01*
X126240387Y-98941653D01*
X126328776Y-99031222D01*
X126416947Y-99114491D01*
X126503606Y-99190127D01*
X126542069Y-99221560D01*
X126575208Y-99247068D01*
X126614257Y-99275545D01*
X126656983Y-99305486D01*
X126701155Y-99335383D01*
X126744541Y-99363732D01*
X126784907Y-99389027D01*
X126820023Y-99409762D01*
X126826118Y-99413173D01*
X126850906Y-99426482D01*
X126878349Y-99440539D01*
X126906779Y-99454563D01*
X126934526Y-99467774D01*
X126959920Y-99479391D01*
X126981291Y-99488635D01*
X126996970Y-99494724D01*
X127005223Y-99496880D01*
X127011928Y-99494696D01*
X127026235Y-99488593D01*
X127046683Y-99479244D01*
X127071812Y-99467321D01*
X127100161Y-99453497D01*
X127109370Y-99448933D01*
X127155786Y-99424876D01*
X127441963Y-99424876D01*
X127444085Y-99430428D01*
X127449917Y-99443371D01*
X127458663Y-99461995D01*
X127469524Y-99484586D01*
X127474278Y-99494340D01*
X127521362Y-99580364D01*
X127578243Y-99665947D01*
X127645019Y-99751214D01*
X127721786Y-99836292D01*
X127784860Y-99898990D01*
X127800865Y-99913913D01*
X127819944Y-99931209D01*
X127840652Y-99949623D01*
X127861539Y-99967903D01*
X127881161Y-99984796D01*
X127898068Y-99999049D01*
X127910815Y-100009409D01*
X127917953Y-100014622D01*
X127918834Y-100015000D01*
X127923565Y-100012293D01*
X127934470Y-100005063D01*
X127949466Y-99994702D01*
X127954394Y-99991232D01*
X128093013Y-99887271D01*
X128228432Y-99773744D01*
X128360565Y-99650753D01*
X128489326Y-99518404D01*
X128614629Y-99376800D01*
X128736388Y-99226045D01*
X128854517Y-99066244D01*
X128968932Y-98897500D01*
X129079545Y-98719917D01*
X129186271Y-98533599D01*
X129239799Y-98434066D01*
X129276473Y-98364392D01*
X129262186Y-98361183D01*
X129165060Y-98336449D01*
X129069168Y-98306365D01*
X128975901Y-98271554D01*
X128886654Y-98232639D01*
X128802820Y-98190243D01*
X128725792Y-98144990D01*
X128656964Y-98097501D01*
X128635844Y-98081090D01*
X128617245Y-98066750D01*
X128601405Y-98055628D01*
X128589997Y-98048826D01*
X128584698Y-98047445D01*
X128584692Y-98047451D01*
X128581012Y-98052844D01*
X128572920Y-98065665D01*
X128561211Y-98084619D01*
X128546684Y-98108411D01*
X128530134Y-98135746D01*
X128521145Y-98150680D01*
X128460575Y-98249050D01*
X128395521Y-98350208D01*
X128327681Y-98451657D01*
X128258751Y-98550900D01*
X128190429Y-98645441D01*
X128131581Y-98723515D01*
X128042153Y-98835753D01*
X127950316Y-98943723D01*
X127856971Y-99046495D01*
X127763015Y-99143141D01*
X127669349Y-99232733D01*
X127576872Y-99314342D01*
X127496070Y-99379682D01*
X127476198Y-99395263D01*
X127459609Y-99408729D01*
X127447785Y-99418841D01*
X127442208Y-99424362D01*
X127441963Y-99424876D01*
X127155786Y-99424876D01*
X127178722Y-99412989D01*
X127243389Y-99376263D01*
X127305700Y-99337245D01*
X127367988Y-99294420D01*
X127432585Y-99246277D01*
X127482600Y-99206855D01*
X127591519Y-99114166D01*
X127700070Y-99011560D01*
X127808078Y-98899280D01*
X127915364Y-98777566D01*
X128021754Y-98646662D01*
X128127070Y-98506808D01*
X128231136Y-98358247D01*
X128333775Y-98201219D01*
X128434811Y-98035968D01*
X128469777Y-97974941D01*
X128624286Y-97974941D01*
X128643993Y-97991856D01*
X128721772Y-98052342D01*
X128808353Y-98107853D01*
X128903659Y-98158351D01*
X129007611Y-98203799D01*
X129120132Y-98244157D01*
X129224303Y-98274931D01*
X129249435Y-98281476D01*
X129271895Y-98286942D01*
X129289407Y-98290799D01*
X129299690Y-98292520D01*
X129300344Y-98292558D01*
X129304788Y-98291761D01*
X129309482Y-98288342D01*
X129315113Y-98281172D01*
X129322373Y-98269125D01*
X129331948Y-98251072D01*
X129344529Y-98225886D01*
X129358052Y-98198126D01*
X129419951Y-98065865D01*
X129481705Y-97925227D01*
X129542600Y-97777978D01*
X129601925Y-97625882D01*
X129658965Y-97470708D01*
X129703201Y-97343389D01*
X129795384Y-97055269D01*
X129878474Y-96762822D01*
X129952412Y-96466364D01*
X130017139Y-96166213D01*
X130072599Y-95862688D01*
X130118732Y-95556106D01*
X130155481Y-95246786D01*
X130182787Y-94935045D01*
X130200321Y-94627700D01*
X130201245Y-94601007D01*
X130202086Y-94567543D01*
X130202839Y-94528373D01*
X130203501Y-94484560D01*
X130204069Y-94437168D01*
X130204540Y-94387259D01*
X130204911Y-94335899D01*
X130205176Y-94284149D01*
X130205335Y-94233074D01*
X130205382Y-94183738D01*
X130205315Y-94137204D01*
X130205131Y-94094535D01*
X130204825Y-94056796D01*
X130204394Y-94025050D01*
X130203836Y-94000360D01*
X130203146Y-93983789D01*
X130202396Y-93976640D01*
X130200662Y-93971732D01*
X130197541Y-93969566D01*
X130191193Y-93970506D01*
X130179780Y-93974914D01*
X130161463Y-93983156D01*
X130155475Y-93985910D01*
X130017113Y-94044043D01*
X129875121Y-94092761D01*
X129730063Y-94131901D01*
X129582504Y-94161303D01*
X129502227Y-94173042D01*
X129474857Y-94176603D01*
X129451332Y-94179784D01*
X129433359Y-94182343D01*
X129422647Y-94184039D01*
X129420388Y-94184566D01*
X129420700Y-94189739D01*
X129422170Y-94203125D01*
X129424577Y-94222869D01*
X129427702Y-94247119D01*
X129428784Y-94255283D01*
X129446208Y-94409804D01*
X129458329Y-94571702D01*
X129465149Y-94739689D01*
X129466672Y-94912477D01*
X129462902Y-95088779D01*
X129453841Y-95267308D01*
X129439493Y-95446776D01*
X129425384Y-95580200D01*
X129396835Y-95791830D01*
X129360804Y-96003478D01*
X129317603Y-96213989D01*
X129267544Y-96422211D01*
X129210936Y-96626989D01*
X129148091Y-96827169D01*
X129079321Y-97021598D01*
X129004935Y-97209121D01*
X128955581Y-97322640D01*
X128939413Y-97357786D01*
X128919350Y-97400191D01*
X128896150Y-97448341D01*
X128870571Y-97500721D01*
X128843372Y-97555815D01*
X128815309Y-97612110D01*
X128787142Y-97668089D01*
X128759629Y-97722240D01*
X128733527Y-97773045D01*
X128709595Y-97818992D01*
X128688592Y-97858565D01*
X128673484Y-97886280D01*
X128624286Y-97974941D01*
X128469777Y-97974941D01*
X128534067Y-97862735D01*
X128631366Y-97681761D01*
X128711773Y-97523300D01*
X128754129Y-97436835D01*
X128792113Y-97357538D01*
X128826422Y-97283774D01*
X128857755Y-97213907D01*
X128886810Y-97146301D01*
X128914287Y-97079321D01*
X128940884Y-97011331D01*
X128967300Y-96940695D01*
X128994232Y-96865779D01*
X129001842Y-96844154D01*
X129061644Y-96662896D01*
X129115764Y-96477101D01*
X129164094Y-96287705D01*
X129206529Y-96095642D01*
X129242964Y-95901849D01*
X129273293Y-95707259D01*
X129297410Y-95512810D01*
X129315211Y-95319434D01*
X129326588Y-95128069D01*
X129331438Y-94939649D01*
X129329654Y-94755109D01*
X129321130Y-94575385D01*
X129305761Y-94401411D01*
X129290881Y-94283597D01*
X129264018Y-94120290D01*
X129231113Y-93963552D01*
X129192269Y-93813577D01*
X129147585Y-93670558D01*
X129097164Y-93534689D01*
X129041106Y-93406162D01*
X128979512Y-93285170D01*
X128912484Y-93171908D01*
X128840123Y-93066567D01*
X128762529Y-92969341D01*
X128679806Y-92880423D01*
X128592052Y-92800006D01*
X128499370Y-92728284D01*
X128463040Y-92703454D01*
X128396368Y-92663585D01*
X128324871Y-92628943D01*
X128247656Y-92599229D01*
X128163827Y-92574148D01*
X128111300Y-92562217D01*
X128532658Y-92562217D01*
X128534410Y-92566918D01*
X128542764Y-92575659D01*
X128555990Y-92586666D01*
X128558058Y-92588232D01*
X128653321Y-92665515D01*
X128745004Y-92751826D01*
X128832727Y-92846547D01*
X128916108Y-92949061D01*
X128994764Y-93058752D01*
X129068315Y-93175002D01*
X129136377Y-93297194D01*
X129198570Y-93424713D01*
X129254511Y-93556939D01*
X129303819Y-93693258D01*
X129346112Y-93833052D01*
X129359130Y-93882465D01*
X129365425Y-93908066D01*
X129372372Y-93937591D01*
X129379598Y-93969310D01*
X129386730Y-94001493D01*
X129393395Y-94032408D01*
X129399220Y-94060325D01*
X129403831Y-94083513D01*
X129406855Y-94100243D01*
X129407920Y-94108716D01*
X129412652Y-94108996D01*
X129425686Y-94107973D01*
X129445282Y-94105869D01*
X129469695Y-94102905D01*
X129497184Y-94099301D01*
X129526007Y-94095280D01*
X129554421Y-94091062D01*
X129580684Y-94086869D01*
X129583180Y-94086451D01*
X129643655Y-94074901D01*
X129709998Y-94059845D01*
X129778892Y-94042126D01*
X129847024Y-94022590D01*
X129900680Y-94005579D01*
X129939130Y-93992233D01*
X129980778Y-93976837D01*
X130023589Y-93960222D01*
X130065528Y-93943219D01*
X130104560Y-93926658D01*
X130138651Y-93911370D01*
X130165764Y-93898185D01*
X130172460Y-93894641D01*
X130197860Y-93880825D01*
X130196295Y-93837702D01*
X130195394Y-93818496D01*
X130193855Y-93791725D01*
X130191840Y-93759951D01*
X130189512Y-93725739D01*
X130187322Y-93695520D01*
X130168234Y-93487667D01*
X130142486Y-93284959D01*
X130110174Y-93087702D01*
X130071389Y-92896204D01*
X130026226Y-92710771D01*
X129974778Y-92531712D01*
X129917138Y-92359333D01*
X129853400Y-92193941D01*
X129783657Y-92035845D01*
X129708003Y-91885350D01*
X129626530Y-91742765D01*
X129563850Y-91644470D01*
X129549070Y-91622589D01*
X129536251Y-91604083D01*
X129526442Y-91590431D01*
X129520696Y-91583116D01*
X129519715Y-91582286D01*
X129516630Y-91586611D01*
X129510474Y-91598179D01*
X129502302Y-91614952D01*
X129497393Y-91625517D01*
X129464749Y-91689549D01*
X129423876Y-91757291D01*
X129375537Y-91827721D01*
X129320496Y-91899818D01*
X129259514Y-91972561D01*
X129193355Y-92044928D01*
X129153987Y-92085252D01*
X129042427Y-92190748D01*
X128923388Y-92291436D01*
X128796205Y-92387836D01*
X128660215Y-92480472D01*
X128614883Y-92509310D01*
X128589637Y-92525188D01*
X128567332Y-92539360D01*
X128549418Y-92550894D01*
X128537349Y-92558855D01*
X128532658Y-92562217D01*
X128111300Y-92562217D01*
X128072490Y-92553402D01*
X127972751Y-92536694D01*
X127952500Y-92533915D01*
X127915053Y-92530044D01*
X127870417Y-92527209D01*
X127820935Y-92525412D01*
X127768949Y-92524654D01*
X127716804Y-92524938D01*
X127666841Y-92526264D01*
X127621405Y-92528636D01*
X127582839Y-92532053D01*
X127570440Y-92533632D01*
X127511998Y-92542800D01*
X127450159Y-92554317D01*
X127383112Y-92568554D01*
X127309046Y-92585881D01*
X127279400Y-92593174D01*
X127218535Y-92608102D01*
X127166284Y-92620359D01*
X127121502Y-92630105D01*
X127083042Y-92637498D01*
X127049761Y-92642696D01*
X127020512Y-92645859D01*
X126994152Y-92647145D01*
X126969535Y-92646712D01*
X126945516Y-92644720D01*
X126926082Y-92642128D01*
X126907962Y-92638873D01*
X126881769Y-92633476D01*
X126849268Y-92626335D01*
X126812223Y-92617849D01*
X126772398Y-92608416D01*
X126731558Y-92598434D01*
X126721705Y-92595976D01*
X126644954Y-92577241D01*
X126576400Y-92561631D01*
X126514638Y-92548950D01*
X126458261Y-92539003D01*
X126405866Y-92531593D01*
X126356047Y-92526524D01*
X126307398Y-92523601D01*
X126258515Y-92522627D01*
X126207993Y-92523408D01*
X126202491Y-92523585D01*
X126097174Y-92530190D01*
X125994849Y-92542660D01*
X125897029Y-92560720D01*
X125805225Y-92584092D01*
X125724606Y-92611099D01*
X125643488Y-92646932D01*
X125562587Y-92692397D01*
X125482525Y-92746973D01*
X125403924Y-92810139D01*
X125327404Y-92881376D01*
X125253588Y-92960162D01*
X125183097Y-93045977D01*
X125146520Y-93095213D01*
X125078587Y-93197568D01*
X125015253Y-93308512D01*
X124956712Y-93427480D01*
X124903157Y-93553907D01*
X124854781Y-93687227D01*
X124811777Y-93826875D01*
X124774339Y-93972285D01*
X124742659Y-94122891D01*
X124716932Y-94278129D01*
X124701738Y-94396560D01*
X124689464Y-94527860D01*
X124681229Y-94666966D01*
X124677034Y-94812358D01*
X124676878Y-94962520D01*
X124535886Y-94962520D01*
X124535359Y-94888278D01*
X124535586Y-94807594D01*
X124536616Y-94729156D01*
X124538448Y-94654753D01*
X124541082Y-94586176D01*
X124544520Y-94525217D01*
X124546130Y-94503240D01*
X124549444Y-94463794D01*
X124553321Y-94421691D01*
X124557577Y-94378609D01*
X124562025Y-94336227D01*
X124566482Y-94296225D01*
X124570763Y-94260281D01*
X124574682Y-94230074D01*
X124578056Y-94207284D01*
X124579774Y-94197702D01*
X124580746Y-94190363D01*
X124578511Y-94186017D01*
X124570955Y-94183448D01*
X124555964Y-94181439D01*
X124550456Y-94180845D01*
X124517807Y-94176870D01*
X124478403Y-94171307D01*
X124435298Y-94164653D01*
X124391543Y-94157406D01*
X124350192Y-94150064D01*
X124314296Y-94143122D01*
X124298809Y-94139839D01*
X124224847Y-94121949D01*
X124148583Y-94100659D01*
X124072228Y-94076721D01*
X123997991Y-94050891D01*
X123928080Y-94023923D01*
X123864707Y-93996569D01*
X123829442Y-93979635D01*
X123800865Y-93965252D01*
X123797700Y-93989136D01*
X123796420Y-94004101D01*
X123795255Y-94028087D01*
X123794210Y-94059953D01*
X123793293Y-94098563D01*
X123792509Y-94142776D01*
X123791865Y-94191453D01*
X123791367Y-94243456D01*
X123791020Y-94297645D01*
X123790831Y-94352881D01*
X123790806Y-94408027D01*
X123678668Y-94408027D01*
X123678550Y-94376884D01*
X123678651Y-94306190D01*
X123679143Y-94239799D01*
X123680044Y-94179319D01*
X123681368Y-94126355D01*
X123682246Y-94101920D01*
X123694275Y-93883513D01*
X123803291Y-93883513D01*
X123866215Y-93913560D01*
X123979843Y-93963575D01*
X124096863Y-94006575D01*
X124218370Y-94042864D01*
X124345459Y-94072745D01*
X124479224Y-94096523D01*
X124569220Y-94108724D01*
X124581263Y-94110268D01*
X124588173Y-94111318D01*
X124591961Y-94107680D01*
X124594347Y-94100650D01*
X124596282Y-94091124D01*
X124599613Y-94074197D01*
X124603837Y-94052447D01*
X124607512Y-94033340D01*
X124623205Y-93959915D01*
X124643091Y-93880531D01*
X124666320Y-93798047D01*
X124692041Y-93715322D01*
X124719404Y-93635217D01*
X124747558Y-93560590D01*
X124749845Y-93554877D01*
X124766879Y-93514456D01*
X124787841Y-93467766D01*
X124811515Y-93417297D01*
X124836682Y-93365541D01*
X124862127Y-93314989D01*
X124886632Y-93268131D01*
X124908979Y-93227460D01*
X124914569Y-93217718D01*
X124980438Y-93110927D01*
X125051683Y-93007935D01*
X125127355Y-92909865D01*
X125206507Y-92817842D01*
X125288189Y-92732988D01*
X125371452Y-92656428D01*
X125426872Y-92610940D01*
X125447561Y-92594632D01*
X125465082Y-92580537D01*
X125478017Y-92569820D01*
X125484943Y-92563648D01*
X125485721Y-92562680D01*
X125481772Y-92559189D01*
X125470940Y-92551986D01*
X125455190Y-92542348D01*
X125446727Y-92537385D01*
X125421767Y-92522350D01*
X125390378Y-92502535D01*
X125354345Y-92479140D01*
X125315453Y-92453364D01*
X125275485Y-92426409D01*
X125236226Y-92399473D01*
X125199461Y-92373758D01*
X125166974Y-92350464D01*
X125148340Y-92336696D01*
X125052575Y-92261776D01*
X124961338Y-92184412D01*
X124875282Y-92105314D01*
X124795063Y-92025192D01*
X124721335Y-91944754D01*
X124654754Y-91864712D01*
X124595975Y-91785774D01*
X124545652Y-91708649D01*
X124510097Y-91645206D01*
X124480142Y-91587069D01*
X124432619Y-91659584D01*
X124351383Y-91791724D01*
X124275201Y-91932396D01*
X124204177Y-92081259D01*
X124138415Y-92237972D01*
X124078020Y-92402195D01*
X124023096Y-92573587D01*
X123973747Y-92751807D01*
X123930077Y-92936513D01*
X123892190Y-93127367D01*
X123860190Y-93324026D01*
X123834183Y-93526149D01*
X123820339Y-93662500D01*
X123817061Y-93699347D01*
X123813871Y-93736672D01*
X123810977Y-93771925D01*
X123808590Y-93802558D01*
X123806915Y-93826024D01*
X123806731Y-93828886D01*
X123803291Y-93883513D01*
X123694275Y-93883513D01*
X123694988Y-93870569D01*
X123714106Y-93645257D01*
X123739549Y-93426179D01*
X123771266Y-93213535D01*
X123809207Y-93007520D01*
X123853321Y-92808334D01*
X123903558Y-92616173D01*
X123959867Y-92431234D01*
X124022198Y-92253716D01*
X124090499Y-92083815D01*
X124164722Y-91921730D01*
X124244815Y-91767658D01*
X124306584Y-91660980D01*
X124388414Y-91533567D01*
X124398232Y-91519988D01*
X124538609Y-91519988D01*
X124539031Y-91523043D01*
X124545481Y-91540181D01*
X124556410Y-91563922D01*
X124570781Y-91592339D01*
X124587555Y-91623505D01*
X124605692Y-91655491D01*
X124624156Y-91686372D01*
X124641908Y-91714218D01*
X124642528Y-91715150D01*
X124711056Y-91810471D01*
X124789152Y-91905227D01*
X124876226Y-91998882D01*
X124971686Y-92090900D01*
X125074940Y-92180744D01*
X125185398Y-92267879D01*
X125302468Y-92351768D01*
X125425558Y-92431874D01*
X125448060Y-92445699D01*
X125472915Y-92460939D01*
X125497156Y-92475983D01*
X125518208Y-92489221D01*
X125533493Y-92499042D01*
X125535012Y-92500044D01*
X125561004Y-92517263D01*
X125651570Y-92481419D01*
X125710494Y-92458617D01*
X125762403Y-92439837D01*
X125809373Y-92424563D01*
X125853480Y-92412281D01*
X125896801Y-92402477D01*
X125941411Y-92394636D01*
X125989387Y-92388245D01*
X126042806Y-92382787D01*
X126053521Y-92381833D01*
X126105013Y-92378313D01*
X126159443Y-92376340D01*
X126214542Y-92375879D01*
X126268042Y-92376896D01*
X126317676Y-92379357D01*
X126361176Y-92383226D01*
X126387930Y-92386949D01*
X126401902Y-92389616D01*
X126424619Y-92394330D01*
X126454927Y-92400835D01*
X126491674Y-92408879D01*
X126533708Y-92418205D01*
X126579876Y-92428561D01*
X126629027Y-92439691D01*
X126680007Y-92451341D01*
X126690190Y-92453681D01*
X126753034Y-92468094D01*
X126806873Y-92480326D01*
X126852588Y-92490540D01*
X126891060Y-92498895D01*
X126923172Y-92505554D01*
X126949804Y-92510677D01*
X126971838Y-92514426D01*
X126990154Y-92516961D01*
X127005635Y-92518445D01*
X127019162Y-92519038D01*
X127031616Y-92518902D01*
X127043180Y-92518249D01*
X127054175Y-92516625D01*
X127073938Y-92512833D01*
X127101364Y-92507117D01*
X127135351Y-92499721D01*
X127174795Y-92490889D01*
X127218593Y-92480864D01*
X127265644Y-92469891D01*
X127314843Y-92458214D01*
X127317500Y-92457578D01*
X127367127Y-92445722D01*
X127414933Y-92434373D01*
X127459770Y-92423798D01*
X127500490Y-92414264D01*
X127535947Y-92406038D01*
X127564994Y-92399388D01*
X127586483Y-92394581D01*
X127599268Y-92391886D01*
X127599440Y-92391853D01*
X127632538Y-92387112D01*
X127674125Y-92383719D01*
X127722623Y-92381654D01*
X127776452Y-92380898D01*
X127834033Y-92381430D01*
X127893789Y-92383232D01*
X127954140Y-92386283D01*
X128013508Y-92390564D01*
X128070313Y-92396054D01*
X128086637Y-92397936D01*
X128178115Y-92412183D01*
X128262334Y-92432229D01*
X128340626Y-92458448D01*
X128408936Y-92488527D01*
X128462840Y-92515181D01*
X128532790Y-92471560D01*
X128646095Y-92398333D01*
X128750835Y-92325155D01*
X128848530Y-92250852D01*
X128940701Y-92174247D01*
X129028869Y-92094165D01*
X129061782Y-92062437D01*
X129138223Y-91984597D01*
X129208390Y-91907082D01*
X129271794Y-91830547D01*
X129327945Y-91755644D01*
X129376355Y-91683028D01*
X129416533Y-91613352D01*
X129447992Y-91547270D01*
X129448670Y-91545651D01*
X129465006Y-91506522D01*
X129420306Y-91451671D01*
X129397243Y-91424658D01*
X129368365Y-91392841D01*
X129335252Y-91357802D01*
X129299488Y-91321121D01*
X129262654Y-91284378D01*
X129226332Y-91249154D01*
X129192105Y-91217029D01*
X129161555Y-91189585D01*
X129138745Y-91170380D01*
X129039760Y-91096523D01*
X128938321Y-91031938D01*
X128834758Y-90976757D01*
X128729401Y-90931111D01*
X128622581Y-90895132D01*
X128514629Y-90868950D01*
X128405876Y-90852698D01*
X128325823Y-90847168D01*
X128269330Y-90846692D01*
X128220549Y-90849842D01*
X128177542Y-90857073D01*
X128138369Y-90868837D01*
X128101090Y-90885589D01*
X128063767Y-90907783D01*
X128062162Y-90908845D01*
X128014997Y-90946168D01*
X127972258Y-90992309D01*
X127934267Y-91046793D01*
X127901352Y-91109142D01*
X127873835Y-91178879D01*
X127869685Y-91191535D01*
X127850345Y-91268091D01*
X127839478Y-91348480D01*
X127836977Y-91431100D01*
X127842732Y-91514344D01*
X127856636Y-91596609D01*
X127878581Y-91676291D01*
X127907306Y-91749288D01*
X127931376Y-91795209D01*
X127959970Y-91838902D01*
X127991729Y-91878806D01*
X128025292Y-91913358D01*
X128059299Y-91940996D01*
X128090026Y-91959077D01*
X128125350Y-91971838D01*
X128161263Y-91978005D01*
X128195211Y-91977387D01*
X128224643Y-91969793D01*
X128225905Y-91969247D01*
X128256058Y-91952919D01*
X128281617Y-91931850D01*
X128305522Y-91903555D01*
X128308552Y-91899370D01*
X128333268Y-91857942D01*
X128354518Y-91808302D01*
X128371773Y-91751962D01*
X128384503Y-91690438D01*
X128386663Y-91676220D01*
X128390889Y-91629931D01*
X128391747Y-91577343D01*
X128389450Y-91521664D01*
X128384213Y-91466103D01*
X128376248Y-91413866D01*
X128366298Y-91370058D01*
X128351818Y-91325942D01*
X128334005Y-91285089D01*
X128313698Y-91248758D01*
X128291735Y-91218207D01*
X128268957Y-91194694D01*
X128246201Y-91179477D01*
X128236779Y-91175841D01*
X128209286Y-91172729D01*
X128182181Y-91179089D01*
X128156363Y-91194244D01*
X128132732Y-91217518D01*
X128112187Y-91248237D01*
X128097559Y-91280398D01*
X128085111Y-91322785D01*
X128076801Y-91370636D01*
X128072710Y-91421162D01*
X128072919Y-91471574D01*
X128077512Y-91519084D01*
X128086569Y-91560903D01*
X128089100Y-91568860D01*
X128105224Y-91608373D01*
X128123364Y-91637949D01*
X128143544Y-91657617D01*
X128165788Y-91667403D01*
X128177520Y-91668600D01*
X128192820Y-91664822D01*
X128204979Y-91652918D01*
X128214777Y-91632028D01*
X128217012Y-91625093D01*
X128223541Y-91586751D01*
X128221657Y-91544574D01*
X128211584Y-91500077D01*
X128193544Y-91454776D01*
X128191314Y-91450268D01*
X128182712Y-91431727D01*
X128176386Y-91415309D01*
X128173534Y-91404178D01*
X128173480Y-91403157D01*
X128178263Y-91385552D01*
X128191473Y-91370843D01*
X128204020Y-91363774D01*
X128224918Y-91360257D01*
X128246364Y-91365888D01*
X128267174Y-91379803D01*
X128286164Y-91401139D01*
X128302147Y-91429034D01*
X128305987Y-91438065D01*
X128310395Y-91450074D01*
X128313564Y-91461665D01*
X128315701Y-91474837D01*
X128317014Y-91491586D01*
X128317710Y-91513913D01*
X128317995Y-91543815D01*
X128318031Y-91554300D01*
X128317869Y-91590175D01*
X128317055Y-91618135D01*
X128315418Y-91640412D01*
X128312787Y-91659240D01*
X128308993Y-91676850D01*
X128308532Y-91678676D01*
X128293725Y-91727604D01*
X128276308Y-91769582D01*
X128256712Y-91804009D01*
X128235367Y-91830284D01*
X128212703Y-91847805D01*
X128189150Y-91855972D01*
X128181190Y-91856512D01*
X128158484Y-91852243D01*
X128133406Y-91840494D01*
X128108442Y-91822710D01*
X128087653Y-91802190D01*
X128070661Y-91779156D01*
X128052507Y-91748884D01*
X128034518Y-91713988D01*
X128018019Y-91677080D01*
X128004338Y-91640772D01*
X128001811Y-91633040D01*
X127985065Y-91568684D01*
X127974287Y-91501576D01*
X127969511Y-91433788D01*
X127970769Y-91367394D01*
X127978093Y-91304464D01*
X127991516Y-91247071D01*
X127995550Y-91234636D01*
X128016995Y-91184797D01*
X128044680Y-91140810D01*
X128077713Y-91103768D01*
X128115200Y-91074769D01*
X128134594Y-91063988D01*
X128156010Y-91054467D01*
X128175078Y-91048796D01*
X128196685Y-91045755D01*
X128211546Y-91044754D01*
X128234082Y-91044001D01*
X128250363Y-91044962D01*
X128264233Y-91048221D01*
X128279534Y-91054366D01*
X128282019Y-91055494D01*
X128318243Y-91077502D01*
X128351506Y-91108620D01*
X128381567Y-91148173D01*
X128408189Y-91195483D01*
X128431133Y-91249874D01*
X128450161Y-91310669D01*
X128465034Y-91377191D01*
X128475515Y-91448764D01*
X128481364Y-91524710D01*
X128482343Y-91604353D01*
X128481863Y-91622880D01*
X128476870Y-91700810D01*
X128467345Y-91773995D01*
X128453544Y-91841854D01*
X128435725Y-91903807D01*
X128414143Y-91959274D01*
X128389057Y-92007675D01*
X128360722Y-92048431D01*
X128329397Y-92080961D01*
X128295337Y-92104685D01*
X128262479Y-92118051D01*
X128243155Y-92121966D01*
X128215471Y-92125554D01*
X128181227Y-92128716D01*
X128142222Y-92131355D01*
X128100254Y-92133372D01*
X128057121Y-92134669D01*
X128014622Y-92135149D01*
X127974556Y-92134713D01*
X127962755Y-92134372D01*
X127852322Y-92127267D01*
X127749626Y-92113681D01*
X127654544Y-92093572D01*
X127566955Y-92066897D01*
X127486735Y-92033615D01*
X127413762Y-91993684D01*
X127347915Y-91947060D01*
X127302279Y-91906852D01*
X127250750Y-91850706D01*
X127207645Y-91789902D01*
X127172623Y-91723787D01*
X127145346Y-91651708D01*
X127125472Y-91573012D01*
X127123823Y-91564460D01*
X127119381Y-91532680D01*
X127116208Y-91493040D01*
X127114291Y-91447755D01*
X127113617Y-91399043D01*
X127113640Y-91396907D01*
X127220489Y-91396907D01*
X127226691Y-91478268D01*
X127241409Y-91556194D01*
X127264457Y-91629823D01*
X127295647Y-91698292D01*
X127313139Y-91728564D01*
X127336587Y-91761662D01*
X127366653Y-91797076D01*
X127400960Y-91832403D01*
X127437128Y-91865238D01*
X127472779Y-91893178D01*
X127482977Y-91900218D01*
X127553518Y-91941780D01*
X127628683Y-91975958D01*
X127706637Y-92002129D01*
X127785543Y-92019667D01*
X127857098Y-92027622D01*
X127885881Y-92028768D01*
X127906037Y-92028195D01*
X127919021Y-92025462D01*
X127926285Y-92020126D01*
X127929282Y-92011745D01*
X127929640Y-92005545D01*
X127925294Y-91986272D01*
X127912462Y-91962482D01*
X127894032Y-91937840D01*
X127850708Y-91878050D01*
X127813574Y-91811256D01*
X127782816Y-91738647D01*
X127758621Y-91661413D01*
X127741175Y-91580745D01*
X127730664Y-91497833D01*
X127727273Y-91413868D01*
X127731189Y-91330041D01*
X127742597Y-91247541D01*
X127761684Y-91167559D01*
X127769671Y-91142006D01*
X127798657Y-91068384D01*
X127834560Y-91000506D01*
X127876816Y-90938942D01*
X127924861Y-90884261D01*
X127978132Y-90837032D01*
X128036066Y-90797827D01*
X128098098Y-90767215D01*
X128160780Y-90746493D01*
X128209262Y-90737381D01*
X128265403Y-90732503D01*
X128327670Y-90731766D01*
X128394529Y-90735077D01*
X128464446Y-90742343D01*
X128535889Y-90753471D01*
X128607324Y-90768368D01*
X128635227Y-90775277D01*
X128740145Y-90807551D01*
X128844240Y-90849594D01*
X128946973Y-90901020D01*
X129047802Y-90961444D01*
X129146190Y-91030479D01*
X129241595Y-91107738D01*
X129333479Y-91192836D01*
X129421301Y-91285386D01*
X129504522Y-91385002D01*
X129525822Y-91412648D01*
X129619884Y-91544751D01*
X129708327Y-91685126D01*
X129791092Y-91833541D01*
X129868124Y-91989766D01*
X129939363Y-92153568D01*
X130004752Y-92324718D01*
X130064234Y-92502984D01*
X130117751Y-92688135D01*
X130165245Y-92879940D01*
X130206660Y-93078168D01*
X130241936Y-93282588D01*
X130271017Y-93492969D01*
X130293845Y-93709079D01*
X130310363Y-93930689D01*
X130320512Y-94157565D01*
X130324235Y-94389479D01*
X130321958Y-94606147D01*
X130310504Y-94898796D01*
X130289631Y-95191527D01*
X130259461Y-95483737D01*
X130220116Y-95774822D01*
X130171716Y-96064179D01*
X130114384Y-96351205D01*
X130048240Y-96635296D01*
X129973406Y-96915849D01*
X129890004Y-97192261D01*
X129798155Y-97463927D01*
X129697981Y-97730245D01*
X129688029Y-97755264D01*
X129599484Y-97967656D01*
X129506444Y-98173163D01*
X129409066Y-98371567D01*
X129307508Y-98562654D01*
X129201927Y-98746207D01*
X129092481Y-98922008D01*
X128979328Y-99089844D01*
X128862624Y-99249496D01*
X128742528Y-99400749D01*
X128619197Y-99543387D01*
X128492789Y-99677193D01*
X128363460Y-99801952D01*
X128231370Y-99917446D01*
X128096675Y-100023460D01*
X127970280Y-100112642D01*
X127877931Y-100171778D01*
X127782600Y-100228130D01*
X127686404Y-100280566D01*
X127591459Y-100327953D01*
X127499883Y-100369161D01*
X127459158Y-100385854D01*
X127377297Y-100418279D01*
X127373762Y-100481911D01*
X127364628Y-100573984D01*
X127347463Y-100661505D01*
X127321774Y-100746735D01*
X127307926Y-100783390D01*
X127299538Y-100804790D01*
X127293039Y-100822255D01*
X127289092Y-100833938D01*
X127288320Y-100838000D01*
X127293832Y-100836665D01*
X127306967Y-100833055D01*
X127325598Y-100827765D01*
X127342141Y-100822980D01*
X127479777Y-100778490D01*
X127618984Y-100724929D01*
X127758408Y-100662955D01*
X127896699Y-100593229D01*
X128032503Y-100516409D01*
X128164469Y-100433155D01*
X128221571Y-100394235D01*
X128319740Y-100323500D01*
X128413343Y-100251335D01*
X128504344Y-100176081D01*
X128594706Y-100096079D01*
X128686394Y-100009668D01*
X128745126Y-99951789D01*
X128884543Y-99805998D01*
X129019008Y-99652605D01*
X129148767Y-99491281D01*
X129274065Y-99321695D01*
X129395147Y-99143517D01*
X129512260Y-98956418D01*
X129608509Y-98790760D01*
X129728237Y-98568089D01*
X129841546Y-98337900D01*
X129948301Y-98100660D01*
X130048364Y-97856835D01*
X130141601Y-97606892D01*
X130227876Y-97351297D01*
X130307051Y-97090517D01*
X130378991Y-96825020D01*
X130443560Y-96555270D01*
X130500621Y-96281736D01*
X130550040Y-96004883D01*
X130591679Y-95725179D01*
X130625402Y-95443090D01*
X130644829Y-95237300D01*
X130660738Y-95012724D01*
X130671065Y-94786246D01*
X130675854Y-94559067D01*
X130675151Y-94332389D01*
X130669001Y-94107413D01*
X130657450Y-93885342D01*
X130640543Y-93667376D01*
X130618325Y-93454719D01*
X130590843Y-93248572D01*
X130563189Y-93078300D01*
X130523554Y-92873405D01*
X130478290Y-92675102D01*
X130427491Y-92483563D01*
X130371249Y-92298961D01*
X130309657Y-92121466D01*
X130242808Y-91951252D01*
X130170796Y-91788491D01*
X130093714Y-91633355D01*
X130011654Y-91486016D01*
X129924710Y-91346647D01*
X129832975Y-91215419D01*
X129736542Y-91092506D01*
X129635504Y-90978079D01*
X129529954Y-90872310D01*
X129419985Y-90775372D01*
X129305691Y-90687437D01*
X129250440Y-90649224D01*
X129133129Y-90576853D01*
X129011788Y-90513543D01*
X128886918Y-90459447D01*
X128759020Y-90414721D01*
X128628596Y-90379518D01*
X128496149Y-90353990D01*
X128362178Y-90338294D01*
X128227187Y-90332582D01*
X128218262Y-90332560D01*
X128128749Y-90336052D01*
X128040712Y-90346295D01*
X127955349Y-90362934D01*
X127873863Y-90385617D01*
X127797451Y-90413991D01*
X127727315Y-90447702D01*
X127664654Y-90486398D01*
X127644183Y-90501461D01*
X127564514Y-90569195D01*
X127492827Y-90643151D01*
X127429216Y-90723148D01*
X127373775Y-90809002D01*
X127326601Y-90900531D01*
X127287786Y-90997552D01*
X127257427Y-91099882D01*
X127235619Y-91207339D01*
X127222990Y-91312973D01*
X127220489Y-91396907D01*
X127113640Y-91396907D01*
X127114172Y-91349122D01*
X127115941Y-91300208D01*
X127118912Y-91254519D01*
X127123069Y-91214272D01*
X127126134Y-91193620D01*
X127150410Y-91077524D01*
X127182457Y-90967710D01*
X127222539Y-90863615D01*
X127270918Y-90764675D01*
X127327856Y-90670330D01*
X127393615Y-90580016D01*
X127436331Y-90528767D01*
X127494816Y-90467220D01*
X127554832Y-90414963D01*
X127617478Y-90371134D01*
X127683260Y-90335155D01*
X127716420Y-90319709D01*
X127746680Y-90306711D01*
X127776687Y-90295198D01*
X127809088Y-90284206D01*
X127846528Y-90272771D01*
X127883920Y-90262088D01*
X127907797Y-90255751D01*
X127935745Y-90248880D01*
X127965745Y-90241910D01*
X127995779Y-90235276D01*
X128023828Y-90229414D01*
X128047875Y-90224759D01*
X128065901Y-90221747D01*
X128075308Y-90220799D01*
X128076695Y-90217126D01*
X128072569Y-90207041D01*
X128063905Y-90191951D01*
X128051682Y-90173260D01*
X128036877Y-90152374D01*
X128020467Y-90130698D01*
X128003430Y-90109636D01*
X127986742Y-90090594D01*
X127979245Y-90082688D01*
X127923307Y-90032739D01*
X127861043Y-89990528D01*
X127793104Y-89956406D01*
X127720139Y-89930722D01*
X127678180Y-89920337D01*
X127655412Y-89917048D01*
X127625473Y-89914915D01*
X127591287Y-89913933D01*
X127555775Y-89914101D01*
X127521860Y-89915416D01*
X127492466Y-89917876D01*
X127474980Y-89920503D01*
X127398447Y-89940155D01*
X127328446Y-89967539D01*
X127264880Y-90002736D01*
X127207655Y-90045827D01*
X127156673Y-90096894D01*
X127111838Y-90156020D01*
X127073055Y-90223285D01*
X127045426Y-90285268D01*
X127034840Y-90311135D01*
X127026418Y-90328840D01*
X127019104Y-90339854D01*
X127011839Y-90345648D01*
X127003564Y-90347695D01*
X127000467Y-90347799D01*
X126991259Y-90346506D01*
X126983505Y-90341634D01*
X126976142Y-90331693D01*
X126968105Y-90315196D01*
X126958330Y-90290653D01*
X126956893Y-90286840D01*
X126925733Y-90214728D01*
X126889347Y-90151125D01*
X126847247Y-90095548D01*
X126798943Y-90047516D01*
X126743946Y-90006549D01*
X126681766Y-89972164D01*
X126611915Y-89943882D01*
X126606082Y-89941902D01*
X126532583Y-89922490D01*
X126458465Y-89913066D01*
X126384443Y-89913548D01*
X126311231Y-89923852D01*
X126239543Y-89943896D01*
X126170092Y-89973596D01*
X126126901Y-89997784D01*
X126089631Y-90023885D01*
X126051456Y-90056277D01*
X126014415Y-90092808D01*
X125980547Y-90131330D01*
X125951892Y-90169691D01*
X125931399Y-90203940D01*
X125923140Y-90220100D01*
X125952300Y-90225878D01*
X125968596Y-90229418D01*
X125991694Y-90234842D01*
X126018579Y-90241424D01*
X126046234Y-90248441D01*
X126047500Y-90248768D01*
X126135022Y-90273864D01*
X126213903Y-90301789D01*
X126285433Y-90333229D01*
X126350901Y-90368871D01*
X126411597Y-90409401D01*
X126468811Y-90455506D01*
X126512040Y-90495967D01*
X126590021Y-90580482D01*
X126659545Y-90670525D01*
X126720437Y-90765739D01*
X126772523Y-90865767D01*
X126815627Y-90970250D01*
X126849573Y-91078831D01*
X126874187Y-91191152D01*
X126883707Y-91254580D01*
X126887318Y-91293234D01*
X126889421Y-91337936D01*
X126890056Y-91385987D01*
X126889267Y-91434684D01*
X126887096Y-91481328D01*
X126883586Y-91523218D01*
X126878927Y-91556840D01*
X126859767Y-91638939D01*
X126832920Y-91714417D01*
X126798266Y-91783436D01*
X126755683Y-91846156D01*
X126705051Y-91902738D01*
X126646247Y-91953344D01*
X126579152Y-91998133D01*
X126525179Y-92027097D01*
X126471020Y-92051969D01*
X126419604Y-92071852D01*
X126366600Y-92088252D01*
X126309120Y-92102362D01*
X126265302Y-92111545D01*
X126224861Y-92118779D01*
X126185620Y-92124270D01*
X126145405Y-92128220D01*
X126102041Y-92130836D01*
X126053353Y-92132319D01*
X125997167Y-92132876D01*
X125984000Y-92132895D01*
X125922510Y-92132531D01*
X125870283Y-92131361D01*
X125826448Y-92129305D01*
X125790134Y-92126283D01*
X125760468Y-92122215D01*
X125736581Y-92117022D01*
X125717600Y-92110623D01*
X125711639Y-92107930D01*
X125677030Y-92085596D01*
X125644977Y-92053904D01*
X125615755Y-92013399D01*
X125589644Y-91964624D01*
X125566919Y-91908123D01*
X125547858Y-91844440D01*
X125532739Y-91774119D01*
X125528559Y-91748883D01*
X125524222Y-91711743D01*
X125521245Y-91667384D01*
X125519629Y-91618527D01*
X125519376Y-91567893D01*
X125520485Y-91518207D01*
X125522958Y-91472188D01*
X125526795Y-91432561D01*
X125528465Y-91420676D01*
X125542361Y-91347739D01*
X125560236Y-91281306D01*
X125581819Y-91221905D01*
X125606838Y-91170060D01*
X125635021Y-91126297D01*
X125666096Y-91091142D01*
X125699792Y-91065120D01*
X125717138Y-91055880D01*
X125733440Y-91049106D01*
X125747823Y-91045371D01*
X125764239Y-91044040D01*
X125786643Y-91044475D01*
X125787724Y-91044520D01*
X125832167Y-91051167D01*
X125872952Y-91066756D01*
X125909786Y-91090644D01*
X125942379Y-91122188D01*
X125970439Y-91160745D01*
X125993677Y-91205671D01*
X126011800Y-91256323D01*
X126024519Y-91312059D01*
X126031541Y-91372236D01*
X126032577Y-91436209D01*
X126027335Y-91503335D01*
X126019020Y-91555822D01*
X126006367Y-91610019D01*
X125990275Y-91660545D01*
X125971272Y-91706748D01*
X125949885Y-91747977D01*
X125926642Y-91783579D01*
X125902069Y-91812904D01*
X125876695Y-91835299D01*
X125851047Y-91850113D01*
X125825651Y-91856693D01*
X125801036Y-91854390D01*
X125783683Y-91846611D01*
X125764366Y-91830002D01*
X125745171Y-91804815D01*
X125726945Y-91772610D01*
X125710532Y-91734943D01*
X125696778Y-91693372D01*
X125693158Y-91679823D01*
X125688595Y-91659849D01*
X125685439Y-91640572D01*
X125683459Y-91619394D01*
X125682428Y-91593714D01*
X125682116Y-91560937D01*
X125682119Y-91554300D01*
X125682330Y-91522199D01*
X125683000Y-91498135D01*
X125684341Y-91479987D01*
X125686565Y-91465635D01*
X125689884Y-91452959D01*
X125693219Y-91443278D01*
X125709378Y-91408443D01*
X125728571Y-91383115D01*
X125750707Y-91367382D01*
X125775693Y-91361331D01*
X125778897Y-91361260D01*
X125797983Y-91363881D01*
X125812594Y-91372819D01*
X125813323Y-91373493D01*
X125823555Y-91384531D01*
X125828594Y-91395080D01*
X125828390Y-91407401D01*
X125822895Y-91423754D01*
X125812060Y-91446402D01*
X125811720Y-91447068D01*
X125797397Y-91479668D01*
X125785967Y-91514574D01*
X125778436Y-91548188D01*
X125775808Y-91575639D01*
X125778598Y-91609424D01*
X125786697Y-91635943D01*
X125799092Y-91654808D01*
X125814770Y-91665631D01*
X125832717Y-91668025D01*
X125851920Y-91661602D01*
X125871366Y-91645973D01*
X125890042Y-91620751D01*
X125890708Y-91619622D01*
X125907818Y-91582118D01*
X125919986Y-91537843D01*
X125927222Y-91488897D01*
X125929540Y-91437379D01*
X125926951Y-91385390D01*
X125919465Y-91335029D01*
X125907096Y-91288395D01*
X125889854Y-91247589D01*
X125888630Y-91245307D01*
X125870031Y-91218320D01*
X125847365Y-91196748D01*
X125822333Y-91181499D01*
X125796638Y-91173476D01*
X125771979Y-91173586D01*
X125760363Y-91177059D01*
X125732218Y-91194089D01*
X125706068Y-91220287D01*
X125682269Y-91254793D01*
X125661178Y-91296747D01*
X125643153Y-91345291D01*
X125628550Y-91399565D01*
X125617726Y-91458710D01*
X125611038Y-91521865D01*
X125610010Y-91539060D01*
X125609490Y-91606087D01*
X125614545Y-91670590D01*
X125624837Y-91731611D01*
X125640027Y-91788191D01*
X125659777Y-91839370D01*
X125683749Y-91884191D01*
X125711604Y-91921694D01*
X125743005Y-91950921D01*
X125759153Y-91961679D01*
X125788001Y-91973303D01*
X125821616Y-91978229D01*
X125856995Y-91976302D01*
X125888771Y-91968256D01*
X125918549Y-91955884D01*
X125943566Y-91941510D01*
X125967649Y-91922675D01*
X125985189Y-91906315D01*
X126028419Y-91857320D01*
X126066305Y-91800702D01*
X126098530Y-91737664D01*
X126124779Y-91669412D01*
X126144734Y-91597151D01*
X126158080Y-91522085D01*
X126164501Y-91445419D01*
X126163680Y-91368357D01*
X126155302Y-91292105D01*
X126151704Y-91271820D01*
X126133942Y-91199201D01*
X126109776Y-91131476D01*
X126079704Y-91069362D01*
X126044226Y-91013574D01*
X126003840Y-90964827D01*
X125959046Y-90923835D01*
X125910343Y-90891316D01*
X125874182Y-90873972D01*
X125840956Y-90862110D01*
X125807334Y-90853784D01*
X125771013Y-90848685D01*
X125729689Y-90846503D01*
X125681061Y-90846932D01*
X125674120Y-90847162D01*
X125564241Y-90856109D01*
X125455386Y-90875014D01*
X125347874Y-90903697D01*
X125242024Y-90941980D01*
X125138154Y-90989685D01*
X125036583Y-91046632D01*
X124937630Y-91112645D01*
X124841614Y-91187543D01*
X124748854Y-91271149D01*
X124659668Y-91363284D01*
X124575719Y-91462083D01*
X124558273Y-91484506D01*
X124546815Y-91500730D01*
X124540531Y-91512107D01*
X124538609Y-91519988D01*
X124398232Y-91519988D01*
X124474208Y-91414910D01*
X124563832Y-91305151D01*
X124657147Y-91204432D01*
X124754019Y-91112894D01*
X124854311Y-91030678D01*
X124957887Y-90957928D01*
X125015454Y-90922442D01*
X125120439Y-90866355D01*
X125227640Y-90820137D01*
X125337484Y-90783657D01*
X125450398Y-90756783D01*
X125566809Y-90739384D01*
X125628400Y-90734068D01*
X125706299Y-90731868D01*
X125777127Y-90736219D01*
X125841844Y-90747455D01*
X125901411Y-90765907D01*
X125956790Y-90791906D01*
X126008942Y-90825786D01*
X126058829Y-90867878D01*
X126081868Y-90890699D01*
X126130833Y-90947706D01*
X126172461Y-91009793D01*
X126207169Y-91077786D01*
X126235374Y-91152513D01*
X126257494Y-91234800D01*
X126259045Y-91241880D01*
X126262897Y-91260916D01*
X126265799Y-91278747D01*
X126267884Y-91297304D01*
X126269283Y-91318520D01*
X126270129Y-91344327D01*
X126270554Y-91376659D01*
X126270685Y-91412060D01*
X126270357Y-91462289D01*
X126269037Y-91504704D01*
X126266420Y-91541629D01*
X126262205Y-91575387D01*
X126256088Y-91608301D01*
X126247767Y-91642694D01*
X126236940Y-91680889D01*
X126234677Y-91688428D01*
X126216775Y-91740612D01*
X126195001Y-91792517D01*
X126170463Y-91842012D01*
X126144269Y-91886965D01*
X126117527Y-91925247D01*
X126101617Y-91944197D01*
X126085495Y-91963827D01*
X126074197Y-91981702D01*
X126068765Y-91995961D01*
X126068940Y-92002610D01*
X126075610Y-92006880D01*
X126090768Y-92008667D01*
X126113085Y-92008110D01*
X126141234Y-92005348D01*
X126173885Y-92000518D01*
X126209711Y-91993761D01*
X126247383Y-91985214D01*
X126255780Y-91983109D01*
X126340015Y-91957490D01*
X126418255Y-91925304D01*
X126490000Y-91886914D01*
X126554747Y-91842684D01*
X126611993Y-91792975D01*
X126661237Y-91738151D01*
X126701977Y-91678574D01*
X126718084Y-91648956D01*
X126744313Y-91588404D01*
X126763359Y-91525223D01*
X126775286Y-91458571D01*
X126780158Y-91387609D01*
X126778040Y-91311495D01*
X126768997Y-91229388D01*
X126756013Y-91154762D01*
X126731183Y-91052027D01*
X126698868Y-90955849D01*
X126658706Y-90865537D01*
X126610336Y-90780402D01*
X126553396Y-90699756D01*
X126487524Y-90622909D01*
X126464072Y-90598575D01*
X126423058Y-90558398D01*
X126386050Y-90525037D01*
X126351139Y-90497049D01*
X126316412Y-90472991D01*
X126279958Y-90451422D01*
X126245825Y-90433788D01*
X126161608Y-90397598D01*
X126073107Y-90369429D01*
X125979954Y-90349238D01*
X125881783Y-90336982D01*
X125778226Y-90332620D01*
X125668916Y-90336108D01*
X125553485Y-90347403D01*
X125529340Y-90350637D01*
X125395666Y-90374419D01*
X125264190Y-90408036D01*
X125135305Y-90451322D01*
X125009403Y-90504112D01*
X124886879Y-90566242D01*
X124768124Y-90637548D01*
X124654896Y-90716837D01*
X124604005Y-90757024D01*
X124549178Y-90803650D01*
X124492352Y-90854866D01*
X124435463Y-90908821D01*
X124380451Y-90963666D01*
X124329251Y-91017549D01*
X124283803Y-91068621D01*
X124272627Y-91081860D01*
X124169923Y-91212706D01*
X124072881Y-91351891D01*
X123981545Y-91499287D01*
X123895953Y-91654768D01*
X123816149Y-91818210D01*
X123742173Y-91989486D01*
X123674068Y-92168469D01*
X123611874Y-92355036D01*
X123555632Y-92549059D01*
X123505385Y-92750413D01*
X123461173Y-92958972D01*
X123423039Y-93174610D01*
X123391023Y-93397202D01*
X123365167Y-93626621D01*
X123345513Y-93862742D01*
X123342611Y-93906340D01*
X123334549Y-94057537D01*
X123329144Y-94215989D01*
X123326392Y-94379147D01*
X123326287Y-94544462D01*
X123216547Y-94544462D01*
X123216109Y-94525519D01*
X123218417Y-94236017D01*
X123229849Y-93948827D01*
X123250493Y-93664597D01*
X123266599Y-93502480D01*
X123293931Y-93284578D01*
X123327723Y-93071304D01*
X123367851Y-92863035D01*
X123414192Y-92660147D01*
X123466623Y-92463017D01*
X123525019Y-92272021D01*
X123589258Y-92087535D01*
X123659216Y-91909937D01*
X123734769Y-91739602D01*
X123815796Y-91576908D01*
X123902171Y-91422230D01*
X123993771Y-91275945D01*
X123998788Y-91268407D01*
X124091600Y-91136941D01*
X124189128Y-91013445D01*
X124291128Y-90898085D01*
X124397352Y-90791029D01*
X124507555Y-90692443D01*
X124621490Y-90602494D01*
X124738911Y-90521350D01*
X124859573Y-90449175D01*
X124983230Y-90386139D01*
X125109635Y-90332407D01*
X125238542Y-90288146D01*
X125369705Y-90253523D01*
X125502879Y-90228705D01*
X125539500Y-90223662D01*
X125564301Y-90220812D01*
X125594949Y-90217758D01*
X125629085Y-90214688D01*
X125664348Y-90211789D01*
X125698379Y-90209248D01*
X125728819Y-90207253D01*
X125753307Y-90205992D01*
X125766487Y-90205638D01*
X125778975Y-90202034D01*
X125783318Y-90195467D01*
X125789479Y-90182240D01*
X125800857Y-90163294D01*
X125816040Y-90140609D01*
X125833614Y-90116162D01*
X125852166Y-90091933D01*
X125870285Y-90069902D01*
X125883334Y-90055381D01*
X125948770Y-89993762D01*
X126020877Y-89939531D01*
X126098963Y-89893074D01*
X126182335Y-89854779D01*
X126270299Y-89825034D01*
X126315831Y-89813479D01*
X126345403Y-89806780D01*
X126348465Y-89797611D01*
X126465639Y-89797611D01*
X126502949Y-89801056D01*
X126539090Y-89806433D01*
X126580457Y-89815910D01*
X126623506Y-89828462D01*
X126664690Y-89843064D01*
X126697740Y-89857357D01*
X126756048Y-89890317D01*
X126813405Y-89931796D01*
X126868023Y-89980188D01*
X126918112Y-90033886D01*
X126961883Y-90091285D01*
X126967265Y-90099313D01*
X126981860Y-90121119D01*
X126992095Y-90135366D01*
X126998964Y-90143128D01*
X127003463Y-90145480D01*
X127006587Y-90143498D01*
X127007241Y-90142498D01*
X127012254Y-90134491D01*
X127021371Y-90120289D01*
X127033114Y-90102185D01*
X127041439Y-90089436D01*
X127091377Y-90021410D01*
X127146335Y-89962197D01*
X127206278Y-89911818D01*
X127271171Y-89870297D01*
X127340980Y-89837657D01*
X127415670Y-89813920D01*
X127476950Y-89801653D01*
X127497795Y-89798274D01*
X127514548Y-89795188D01*
X127524878Y-89792845D01*
X127526986Y-89792026D01*
X127527688Y-89784699D01*
X127523657Y-89770468D01*
X127515704Y-89750942D01*
X127504639Y-89727732D01*
X127491272Y-89702449D01*
X127476413Y-89676703D01*
X127460872Y-89652105D01*
X127445939Y-89630899D01*
X127398569Y-89576188D01*
X127344930Y-89529420D01*
X127285270Y-89490744D01*
X127219835Y-89460308D01*
X127148873Y-89438261D01*
X127111760Y-89430493D01*
X127079340Y-89426346D01*
X127040225Y-89423851D01*
X126997745Y-89423010D01*
X126955229Y-89423821D01*
X126916007Y-89426287D01*
X126883408Y-89430407D01*
X126883111Y-89430460D01*
X126809538Y-89448217D01*
X126741365Y-89474437D01*
X126678844Y-89508967D01*
X126622227Y-89551655D01*
X126571764Y-89602351D01*
X126547001Y-89633218D01*
X126531289Y-89656061D01*
X126515052Y-89682575D01*
X126499508Y-89710450D01*
X126485876Y-89737377D01*
X126475372Y-89761045D01*
X126469216Y-89779145D01*
X126468617Y-89781875D01*
X126465639Y-89797611D01*
X126348465Y-89797611D01*
X126358127Y-89768680D01*
X126366177Y-89747002D01*
X126377172Y-89720587D01*
X126389308Y-89693678D01*
X126395391Y-89681057D01*
X126437931Y-89605440D01*
X126486585Y-89537810D01*
X126541199Y-89478289D01*
X126601618Y-89426999D01*
X126667689Y-89384061D01*
X126739257Y-89349598D01*
X126816167Y-89323731D01*
X126861914Y-89312965D01*
X126895161Y-89308085D01*
X126935619Y-89304980D01*
X126980499Y-89303625D01*
X127027014Y-89303991D01*
G36*
X126990497Y-93197841D02*
G01*
X127007933Y-93198488D01*
X127018683Y-93199868D01*
X127024481Y-93202227D01*
X127027064Y-93205810D01*
X127027312Y-93206570D01*
X127028537Y-93212166D01*
X127031761Y-93227346D01*
X127036909Y-93251744D01*
X127043904Y-93284999D01*
X127052670Y-93326746D01*
X127063132Y-93376623D01*
X127075213Y-93434267D01*
X127088838Y-93499314D01*
X127103930Y-93571400D01*
X127120413Y-93650164D01*
X127138212Y-93735240D01*
X127157251Y-93826267D01*
X127177452Y-93922881D01*
X127198742Y-94024719D01*
X127221043Y-94131417D01*
X127244279Y-94242613D01*
X127268375Y-94357942D01*
X127293255Y-94477043D01*
X127318842Y-94599551D01*
X127345061Y-94725103D01*
X127371835Y-94853336D01*
X127383589Y-94909640D01*
X127410596Y-95038994D01*
X127437087Y-95165858D01*
X127462985Y-95289867D01*
X127488216Y-95410656D01*
X127512702Y-95527860D01*
X127536367Y-95641114D01*
X127559134Y-95750053D01*
X127580927Y-95854311D01*
X127601671Y-95953524D01*
X127621288Y-96047327D01*
X127639702Y-96135354D01*
X127656836Y-96217241D01*
X127672615Y-96292622D01*
X127686963Y-96361133D01*
X127699801Y-96422408D01*
X127711055Y-96476083D01*
X127720648Y-96521792D01*
X127728504Y-96559170D01*
X127734545Y-96587853D01*
X127738697Y-96607475D01*
X127740882Y-96617671D01*
X127741196Y-96619060D01*
X127743609Y-96627405D01*
X127745499Y-96628620D01*
X127747792Y-96621715D01*
X127750710Y-96608900D01*
X127752330Y-96601781D01*
X127756140Y-96585185D01*
X127762042Y-96559532D01*
X127769940Y-96525243D01*
X127779736Y-96482740D01*
X127791332Y-96432445D01*
X127804633Y-96374777D01*
X127819540Y-96310160D01*
X127835956Y-96239013D01*
X127853785Y-96161758D01*
X127872928Y-96078816D01*
X127893289Y-95990609D01*
X127914770Y-95897558D01*
X127937275Y-95800084D01*
X127960706Y-95698609D01*
X127984965Y-95593553D01*
X128009956Y-95485338D01*
X128035582Y-95374385D01*
X128054338Y-95293180D01*
X128085751Y-95157185D01*
X128114958Y-95030732D01*
X128142035Y-94913458D01*
X128167057Y-94805005D01*
X128190100Y-94705012D01*
X128211241Y-94613119D01*
X128230555Y-94528966D01*
X128248118Y-94452193D01*
X128264006Y-94382440D01*
X128278294Y-94319347D01*
X128291060Y-94262553D01*
X128302378Y-94211700D01*
X128312324Y-94166426D01*
X128320974Y-94126371D01*
X128328405Y-94091177D01*
X128334692Y-94060482D01*
X128339911Y-94033926D01*
X128344137Y-94011150D01*
X128347448Y-93991793D01*
X128349918Y-93975495D01*
X128351623Y-93961897D01*
X128352640Y-93950638D01*
X128353043Y-93941357D01*
X128352910Y-93933697D01*
X128352316Y-93927295D01*
X128351337Y-93921792D01*
X128350049Y-93916828D01*
X128348527Y-93912042D01*
X128346847Y-93907076D01*
X128346602Y-93906340D01*
X128331641Y-93875657D01*
X128309555Y-93852180D01*
X128280449Y-93835972D01*
X128244424Y-93827098D01*
X128216660Y-93825288D01*
X128193898Y-93825678D01*
X128172022Y-93826919D01*
X128155471Y-93828751D01*
X128154430Y-93828930D01*
X128132840Y-93832800D01*
X128132840Y-93578680D01*
X128894840Y-93578680D01*
X128894840Y-93706950D01*
X128894841Y-93835220D01*
X128842770Y-93835220D01*
X128818094Y-93835485D01*
X128800598Y-93836633D01*
X128787312Y-93839190D01*
X128775263Y-93843683D01*
X128764345Y-93849115D01*
X128735022Y-93870058D01*
X128712361Y-93898573D01*
X128707445Y-93907409D01*
X128705974Y-93913070D01*
X128702384Y-93928337D01*
X128696745Y-93952894D01*
X128689126Y-93986426D01*
X128679599Y-94028618D01*
X128668233Y-94079154D01*
X128655099Y-94137719D01*
X128640267Y-94203997D01*
X128623807Y-94277673D01*
X128605788Y-94358432D01*
X128586282Y-94445958D01*
X128565359Y-94539936D01*
X128543088Y-94640050D01*
X128519540Y-94745985D01*
X128494785Y-94857426D01*
X128468893Y-94974056D01*
X128441935Y-95095562D01*
X128413980Y-95221626D01*
X128385099Y-95351935D01*
X128355362Y-95486172D01*
X128324838Y-95624022D01*
X128293599Y-95765170D01*
X128261715Y-95909300D01*
X128229255Y-96056096D01*
X128209009Y-96147689D01*
X128176237Y-96295968D01*
X128144011Y-96441776D01*
X128112400Y-96584797D01*
X128081474Y-96724715D01*
X128051303Y-96861215D01*
X128021956Y-96993982D01*
X127993504Y-97122700D01*
X127966016Y-97247055D01*
X127939561Y-97366729D01*
X127914210Y-97481409D01*
X127890032Y-97590779D01*
X127867097Y-97694522D01*
X127845475Y-97792325D01*
X127825235Y-97883871D01*
X127806447Y-97968845D01*
X127789181Y-98046931D01*
X127773507Y-98117815D01*
X127759494Y-98181180D01*
X127747212Y-98236712D01*
X127736730Y-98284094D01*
X127728120Y-98323012D01*
X127721449Y-98353150D01*
X127716789Y-98374193D01*
X127714208Y-98385825D01*
X127713684Y-98388170D01*
X127712204Y-98392781D01*
X127709192Y-98395949D01*
X127702978Y-98397944D01*
X127691893Y-98399036D01*
X127674265Y-98399498D01*
X127648425Y-98399599D01*
X127643218Y-98399600D01*
X127575430Y-98399600D01*
X127567226Y-98357690D01*
X127565605Y-98349376D01*
X127562123Y-98331482D01*
X127556855Y-98304402D01*
X127549879Y-98268527D01*
X127541269Y-98224253D01*
X127531104Y-98171971D01*
X127519459Y-98112075D01*
X127506411Y-98044958D01*
X127492036Y-97971014D01*
X127476411Y-97890636D01*
X127459612Y-97804217D01*
X127441716Y-97712150D01*
X127422799Y-97614828D01*
X127402937Y-97512646D01*
X127382207Y-97405995D01*
X127360685Y-97295269D01*
X127338448Y-97180862D01*
X127315573Y-97063167D01*
X127292135Y-96942577D01*
X127268211Y-96819485D01*
X127258903Y-96771596D01*
X127234903Y-96648128D01*
X127211395Y-96527246D01*
X127188456Y-96409330D01*
X127166159Y-96294759D01*
X127144579Y-96183914D01*
X127123789Y-96077174D01*
X127103863Y-95974920D01*
X127084877Y-95877532D01*
X127066904Y-95785389D01*
X127050018Y-95698872D01*
X127034294Y-95618360D01*
X127019805Y-95544234D01*
X127006627Y-95476873D01*
X126994832Y-95416658D01*
X126984496Y-95363968D01*
X126975693Y-95319183D01*
X126968496Y-95282684D01*
X126962980Y-95254851D01*
X126959220Y-95236062D01*
X126957288Y-95226700D01*
X126957037Y-95225663D01*
X126956895Y-95225053D01*
X126956855Y-95223875D01*
X126956866Y-95222475D01*
X126956873Y-95221199D01*
X126956822Y-95220393D01*
X126956662Y-95220403D01*
X126956337Y-95221574D01*
X126955795Y-95224253D01*
X126954982Y-95228785D01*
X126953845Y-95235515D01*
X126952331Y-95244791D01*
X126950386Y-95256957D01*
X126947956Y-95272359D01*
X126944989Y-95291344D01*
X126941431Y-95314257D01*
X126937229Y-95341444D01*
X126932329Y-95373250D01*
X126926678Y-95410022D01*
X126920222Y-95452105D01*
X126912908Y-95499846D01*
X126904683Y-95553589D01*
X126895493Y-95613681D01*
X126885284Y-95680468D01*
X126874005Y-95754295D01*
X126861600Y-95835509D01*
X126848018Y-95924454D01*
X126833203Y-96021478D01*
X126817104Y-96126925D01*
X126799666Y-96241141D01*
X126780836Y-96364473D01*
X126760561Y-96497267D01*
X126745843Y-96593660D01*
X126727801Y-96711816D01*
X126709907Y-96828998D01*
X126692240Y-96944688D01*
X126674879Y-97058368D01*
X126657902Y-97169522D01*
X126641390Y-97277632D01*
X126625421Y-97382182D01*
X126610073Y-97482654D01*
X126595427Y-97578531D01*
X126581560Y-97669296D01*
X126568553Y-97754432D01*
X126556483Y-97833421D01*
X126545430Y-97905748D01*
X126535474Y-97970893D01*
X126526692Y-98028342D01*
X126519164Y-98077575D01*
X126512969Y-98118077D01*
X126508186Y-98149330D01*
X126506229Y-98162110D01*
X126469841Y-98399600D01*
X126319671Y-98399600D01*
X126314611Y-98380550D01*
X126313131Y-98374372D01*
X126309421Y-98358617D01*
X126303554Y-98333601D01*
X126295606Y-98299642D01*
X126285650Y-98257057D01*
X126273761Y-98206164D01*
X126260011Y-98147280D01*
X126244475Y-98080723D01*
X126227228Y-98006810D01*
X126208343Y-97925858D01*
X126187894Y-97838185D01*
X126165955Y-97744109D01*
X126142601Y-97643946D01*
X126117904Y-97538014D01*
X126091940Y-97426631D01*
X126064782Y-97310113D01*
X126036505Y-97188779D01*
X126007182Y-97062946D01*
X125976887Y-96932931D01*
X125945694Y-96799052D01*
X125913678Y-96661625D01*
X125880912Y-96520969D01*
X125847471Y-96377401D01*
X125813427Y-96231238D01*
X125796086Y-96156780D01*
X125761752Y-96009367D01*
X125727973Y-95864363D01*
X125694823Y-95722086D01*
X125662377Y-95582855D01*
X125630710Y-95446988D01*
X125599896Y-95314805D01*
X125570008Y-95186623D01*
X125541123Y-95062761D01*
X125513313Y-94943539D01*
X125486654Y-94829274D01*
X125461219Y-94720286D01*
X125437084Y-94616893D01*
X125414322Y-94519413D01*
X125393009Y-94428166D01*
X125373217Y-94343470D01*
X125355023Y-94265643D01*
X125338500Y-94195005D01*
X125323722Y-94131874D01*
X125310765Y-94076569D01*
X125299701Y-94029408D01*
X125290607Y-93990710D01*
X125283556Y-93960794D01*
X125278622Y-93939978D01*
X125275881Y-93928582D01*
X125275358Y-93926523D01*
X125261527Y-93895939D01*
X125239157Y-93869348D01*
X125209390Y-93847669D01*
X125173370Y-93831820D01*
X125149604Y-93825566D01*
X125117860Y-93819094D01*
X125115136Y-93578680D01*
X125963680Y-93578680D01*
X125963680Y-93822409D01*
X125918694Y-93819216D01*
X125896038Y-93817911D01*
X125880030Y-93818153D01*
X125867220Y-93820395D01*
X125854153Y-93825093D01*
X125845760Y-93828817D01*
X125818490Y-93845867D01*
X125797969Y-93869243D01*
X125783912Y-93899508D01*
X125776033Y-93937222D01*
X125774017Y-93969840D01*
X125774061Y-93974798D01*
X125774375Y-93980574D01*
X125775043Y-93987532D01*
X125776147Y-93996038D01*
X125777768Y-94006458D01*
X125779991Y-94019157D01*
X125782896Y-94034500D01*
X125786566Y-94052853D01*
X125791085Y-94074582D01*
X125796534Y-94100052D01*
X125802995Y-94129629D01*
X125810552Y-94163678D01*
X125819286Y-94202564D01*
X125829280Y-94246654D01*
X125840617Y-94296313D01*
X125853379Y-94351906D01*
X125867648Y-94413799D01*
X125883507Y-94482358D01*
X125901038Y-94557947D01*
X125920323Y-94640933D01*
X125941446Y-94731681D01*
X125964489Y-94830556D01*
X125989533Y-94937925D01*
X126016662Y-95054152D01*
X126045958Y-95179604D01*
X126071895Y-95290640D01*
X126098032Y-95402496D01*
X126123587Y-95511806D01*
X126148461Y-95618153D01*
X126172556Y-95721122D01*
X126195776Y-95820296D01*
X126218022Y-95915258D01*
X126239196Y-96005594D01*
X126259200Y-96090886D01*
X126277938Y-96170718D01*
X126295311Y-96244675D01*
X126311222Y-96312341D01*
X126325572Y-96373298D01*
X126338264Y-96427131D01*
X126349201Y-96473425D01*
X126358284Y-96511762D01*
X126365415Y-96541726D01*
X126370498Y-96562902D01*
X126373434Y-96574873D01*
X126374148Y-96577527D01*
X126375240Y-96573356D01*
X126377832Y-96559430D01*
X126381878Y-96536033D01*
X126387332Y-96503453D01*
X126394150Y-96461976D01*
X126402287Y-96411888D01*
X126411696Y-96353474D01*
X126422333Y-96287022D01*
X126434153Y-96212816D01*
X126447109Y-96131144D01*
X126461157Y-96042292D01*
X126476252Y-95946545D01*
X126492348Y-95844190D01*
X126509400Y-95735512D01*
X126527363Y-95620799D01*
X126546191Y-95500336D01*
X126565839Y-95374409D01*
X126586261Y-95243304D01*
X126607414Y-95107308D01*
X126629250Y-94966706D01*
X126636273Y-94921447D01*
X126656286Y-94792444D01*
X126675923Y-94665882D01*
X126695126Y-94542138D01*
X126713835Y-94421590D01*
X126731992Y-94304615D01*
X126749538Y-94191593D01*
X126766415Y-94082899D01*
X126782564Y-93978912D01*
X126797925Y-93880009D01*
X126812442Y-93786569D01*
X126826054Y-93698968D01*
X126838703Y-93617585D01*
X126850330Y-93542797D01*
X126860878Y-93474982D01*
X126870286Y-93414518D01*
X126878497Y-93361781D01*
X126885451Y-93317150D01*
X126891090Y-93281003D01*
X126895356Y-93253717D01*
X126898189Y-93235670D01*
X126899531Y-93227240D01*
X126899590Y-93226890D01*
X126904565Y-93197680D01*
X126964640Y-93197680D01*
X126990497Y-93197841D01*
G37*
X126990497Y-93197841D02*
X127007933Y-93198488D01*
X127018683Y-93199868D01*
X127024481Y-93202227D01*
X127027064Y-93205810D01*
X127027312Y-93206570D01*
X127028537Y-93212166D01*
X127031761Y-93227346D01*
X127036909Y-93251744D01*
X127043904Y-93284999D01*
X127052670Y-93326746D01*
X127063132Y-93376623D01*
X127075213Y-93434267D01*
X127088838Y-93499314D01*
X127103930Y-93571400D01*
X127120413Y-93650164D01*
X127138212Y-93735240D01*
X127157251Y-93826267D01*
X127177452Y-93922881D01*
X127198742Y-94024719D01*
X127221043Y-94131417D01*
X127244279Y-94242613D01*
X127268375Y-94357942D01*
X127293255Y-94477043D01*
X127318842Y-94599551D01*
X127345061Y-94725103D01*
X127371835Y-94853336D01*
X127383589Y-94909640D01*
X127410596Y-95038994D01*
X127437087Y-95165858D01*
X127462985Y-95289867D01*
X127488216Y-95410656D01*
X127512702Y-95527860D01*
X127536367Y-95641114D01*
X127559134Y-95750053D01*
X127580927Y-95854311D01*
X127601671Y-95953524D01*
X127621288Y-96047327D01*
X127639702Y-96135354D01*
X127656836Y-96217241D01*
X127672615Y-96292622D01*
X127686963Y-96361133D01*
X127699801Y-96422408D01*
X127711055Y-96476083D01*
X127720648Y-96521792D01*
X127728504Y-96559170D01*
X127734545Y-96587853D01*
X127738697Y-96607475D01*
X127740882Y-96617671D01*
X127741196Y-96619060D01*
X127743609Y-96627405D01*
X127745499Y-96628620D01*
X127747792Y-96621715D01*
X127750710Y-96608900D01*
X127752330Y-96601781D01*
X127756140Y-96585185D01*
X127762042Y-96559532D01*
X127769940Y-96525243D01*
X127779736Y-96482740D01*
X127791332Y-96432445D01*
X127804633Y-96374777D01*
X127819540Y-96310160D01*
X127835956Y-96239013D01*
X127853785Y-96161758D01*
X127872928Y-96078816D01*
X127893289Y-95990609D01*
X127914770Y-95897558D01*
X127937275Y-95800084D01*
X127960706Y-95698609D01*
X127984965Y-95593553D01*
X128009956Y-95485338D01*
X128035582Y-95374385D01*
X128054338Y-95293180D01*
X128085751Y-95157185D01*
X128114958Y-95030732D01*
X128142035Y-94913458D01*
X128167057Y-94805005D01*
X128190100Y-94705012D01*
X128211241Y-94613119D01*
X128230555Y-94528966D01*
X128248118Y-94452193D01*
X128264006Y-94382440D01*
X128278294Y-94319347D01*
X128291060Y-94262553D01*
X128302378Y-94211700D01*
X128312324Y-94166426D01*
X128320974Y-94126371D01*
X128328405Y-94091177D01*
X128334692Y-94060482D01*
X128339911Y-94033926D01*
X128344137Y-94011150D01*
X128347448Y-93991793D01*
X128349918Y-93975495D01*
X128351623Y-93961897D01*
X128352640Y-93950638D01*
X128353043Y-93941357D01*
X128352910Y-93933697D01*
X128352316Y-93927295D01*
X128351337Y-93921792D01*
X128350049Y-93916828D01*
X128348527Y-93912042D01*
X128346847Y-93907076D01*
X128346602Y-93906340D01*
X128331641Y-93875657D01*
X128309555Y-93852180D01*
X128280449Y-93835972D01*
X128244424Y-93827098D01*
X128216660Y-93825288D01*
X128193898Y-93825678D01*
X128172022Y-93826919D01*
X128155471Y-93828751D01*
X128154430Y-93828930D01*
X128132840Y-93832800D01*
X128132840Y-93578680D01*
X128894840Y-93578680D01*
X128894840Y-93706950D01*
X128894841Y-93835220D01*
X128842770Y-93835220D01*
X128818094Y-93835485D01*
X128800598Y-93836633D01*
X128787312Y-93839190D01*
X128775263Y-93843683D01*
X128764345Y-93849115D01*
X128735022Y-93870058D01*
X128712361Y-93898573D01*
X128707445Y-93907409D01*
X128705974Y-93913070D01*
X128702384Y-93928337D01*
X128696745Y-93952894D01*
X128689126Y-93986426D01*
X128679599Y-94028618D01*
X128668233Y-94079154D01*
X128655099Y-94137719D01*
X128640267Y-94203997D01*
X128623807Y-94277673D01*
X128605788Y-94358432D01*
X128586282Y-94445958D01*
X128565359Y-94539936D01*
X128543088Y-94640050D01*
X128519540Y-94745985D01*
X128494785Y-94857426D01*
X128468893Y-94974056D01*
X128441935Y-95095562D01*
X128413980Y-95221626D01*
X128385099Y-95351935D01*
X128355362Y-95486172D01*
X128324838Y-95624022D01*
X128293599Y-95765170D01*
X128261715Y-95909300D01*
X128229255Y-96056096D01*
X128209009Y-96147689D01*
X128176237Y-96295968D01*
X128144011Y-96441776D01*
X128112400Y-96584797D01*
X128081474Y-96724715D01*
X128051303Y-96861215D01*
X128021956Y-96993982D01*
X127993504Y-97122700D01*
X127966016Y-97247055D01*
X127939561Y-97366729D01*
X127914210Y-97481409D01*
X127890032Y-97590779D01*
X127867097Y-97694522D01*
X127845475Y-97792325D01*
X127825235Y-97883871D01*
X127806447Y-97968845D01*
X127789181Y-98046931D01*
X127773507Y-98117815D01*
X127759494Y-98181180D01*
X127747212Y-98236712D01*
X127736730Y-98284094D01*
X127728120Y-98323012D01*
X127721449Y-98353150D01*
X127716789Y-98374193D01*
X127714208Y-98385825D01*
X127713684Y-98388170D01*
X127712204Y-98392781D01*
X127709192Y-98395949D01*
X127702978Y-98397944D01*
X127691893Y-98399036D01*
X127674265Y-98399498D01*
X127648425Y-98399599D01*
X127643218Y-98399600D01*
X127575430Y-98399600D01*
X127567226Y-98357690D01*
X127565605Y-98349376D01*
X127562123Y-98331482D01*
X127556855Y-98304402D01*
X127549879Y-98268527D01*
X127541269Y-98224253D01*
X127531104Y-98171971D01*
X127519459Y-98112075D01*
X127506411Y-98044958D01*
X127492036Y-97971014D01*
X127476411Y-97890636D01*
X127459612Y-97804217D01*
X127441716Y-97712150D01*
X127422799Y-97614828D01*
X127402937Y-97512646D01*
X127382207Y-97405995D01*
X127360685Y-97295269D01*
X127338448Y-97180862D01*
X127315573Y-97063167D01*
X127292135Y-96942577D01*
X127268211Y-96819485D01*
X127258903Y-96771596D01*
X127234903Y-96648128D01*
X127211395Y-96527246D01*
X127188456Y-96409330D01*
X127166159Y-96294759D01*
X127144579Y-96183914D01*
X127123789Y-96077174D01*
X127103863Y-95974920D01*
X127084877Y-95877532D01*
X127066904Y-95785389D01*
X127050018Y-95698872D01*
X127034294Y-95618360D01*
X127019805Y-95544234D01*
X127006627Y-95476873D01*
X126994832Y-95416658D01*
X126984496Y-95363968D01*
X126975693Y-95319183D01*
X126968496Y-95282684D01*
X126962980Y-95254851D01*
X126959220Y-95236062D01*
X126957288Y-95226700D01*
X126957037Y-95225663D01*
X126956895Y-95225053D01*
X126956855Y-95223875D01*
X126956866Y-95222475D01*
X126956873Y-95221199D01*
X126956822Y-95220393D01*
X126956662Y-95220403D01*
X126956337Y-95221574D01*
X126955795Y-95224253D01*
X126954982Y-95228785D01*
X126953845Y-95235515D01*
X126952331Y-95244791D01*
X126950386Y-95256957D01*
X126947956Y-95272359D01*
X126944989Y-95291344D01*
X126941431Y-95314257D01*
X126937229Y-95341444D01*
X126932329Y-95373250D01*
X126926678Y-95410022D01*
X126920222Y-95452105D01*
X126912908Y-95499846D01*
X126904683Y-95553589D01*
X126895493Y-95613681D01*
X126885284Y-95680468D01*
X126874005Y-95754295D01*
X126861600Y-95835509D01*
X126848018Y-95924454D01*
X126833203Y-96021478D01*
X126817104Y-96126925D01*
X126799666Y-96241141D01*
X126780836Y-96364473D01*
X126760561Y-96497267D01*
X126745843Y-96593660D01*
X126727801Y-96711816D01*
X126709907Y-96828998D01*
X126692240Y-96944688D01*
X126674879Y-97058368D01*
X126657902Y-97169522D01*
X126641390Y-97277632D01*
X126625421Y-97382182D01*
X126610073Y-97482654D01*
X126595427Y-97578531D01*
X126581560Y-97669296D01*
X126568553Y-97754432D01*
X126556483Y-97833421D01*
X126545430Y-97905748D01*
X126535474Y-97970893D01*
X126526692Y-98028342D01*
X126519164Y-98077575D01*
X126512969Y-98118077D01*
X126508186Y-98149330D01*
X126506229Y-98162110D01*
X126469841Y-98399600D01*
X126319671Y-98399600D01*
X126314611Y-98380550D01*
X126313131Y-98374372D01*
X126309421Y-98358617D01*
X126303554Y-98333601D01*
X126295606Y-98299642D01*
X126285650Y-98257057D01*
X126273761Y-98206164D01*
X126260011Y-98147280D01*
X126244475Y-98080723D01*
X126227228Y-98006810D01*
X126208343Y-97925858D01*
X126187894Y-97838185D01*
X126165955Y-97744109D01*
X126142601Y-97643946D01*
X126117904Y-97538014D01*
X126091940Y-97426631D01*
X126064782Y-97310113D01*
X126036505Y-97188779D01*
X126007182Y-97062946D01*
X125976887Y-96932931D01*
X125945694Y-96799052D01*
X125913678Y-96661625D01*
X125880912Y-96520969D01*
X125847471Y-96377401D01*
X125813427Y-96231238D01*
X125796086Y-96156780D01*
X125761752Y-96009367D01*
X125727973Y-95864363D01*
X125694823Y-95722086D01*
X125662377Y-95582855D01*
X125630710Y-95446988D01*
X125599896Y-95314805D01*
X125570008Y-95186623D01*
X125541123Y-95062761D01*
X125513313Y-94943539D01*
X125486654Y-94829274D01*
X125461219Y-94720286D01*
X125437084Y-94616893D01*
X125414322Y-94519413D01*
X125393009Y-94428166D01*
X125373217Y-94343470D01*
X125355023Y-94265643D01*
X125338500Y-94195005D01*
X125323722Y-94131874D01*
X125310765Y-94076569D01*
X125299701Y-94029408D01*
X125290607Y-93990710D01*
X125283556Y-93960794D01*
X125278622Y-93939978D01*
X125275881Y-93928582D01*
X125275358Y-93926523D01*
X125261527Y-93895939D01*
X125239157Y-93869348D01*
X125209390Y-93847669D01*
X125173370Y-93831820D01*
X125149604Y-93825566D01*
X125117860Y-93819094D01*
X125115136Y-93578680D01*
X125963680Y-93578680D01*
X125963680Y-93822409D01*
X125918694Y-93819216D01*
X125896038Y-93817911D01*
X125880030Y-93818153D01*
X125867220Y-93820395D01*
X125854153Y-93825093D01*
X125845760Y-93828817D01*
X125818490Y-93845867D01*
X125797969Y-93869243D01*
X125783912Y-93899508D01*
X125776033Y-93937222D01*
X125774017Y-93969840D01*
X125774061Y-93974798D01*
X125774375Y-93980574D01*
X125775043Y-93987532D01*
X125776147Y-93996038D01*
X125777768Y-94006458D01*
X125779991Y-94019157D01*
X125782896Y-94034500D01*
X125786566Y-94052853D01*
X125791085Y-94074582D01*
X125796534Y-94100052D01*
X125802995Y-94129629D01*
X125810552Y-94163678D01*
X125819286Y-94202564D01*
X125829280Y-94246654D01*
X125840617Y-94296313D01*
X125853379Y-94351906D01*
X125867648Y-94413799D01*
X125883507Y-94482358D01*
X125901038Y-94557947D01*
X125920323Y-94640933D01*
X125941446Y-94731681D01*
X125964489Y-94830556D01*
X125989533Y-94937925D01*
X126016662Y-95054152D01*
X126045958Y-95179604D01*
X126071895Y-95290640D01*
X126098032Y-95402496D01*
X126123587Y-95511806D01*
X126148461Y-95618153D01*
X126172556Y-95721122D01*
X126195776Y-95820296D01*
X126218022Y-95915258D01*
X126239196Y-96005594D01*
X126259200Y-96090886D01*
X126277938Y-96170718D01*
X126295311Y-96244675D01*
X126311222Y-96312341D01*
X126325572Y-96373298D01*
X126338264Y-96427131D01*
X126349201Y-96473425D01*
X126358284Y-96511762D01*
X126365415Y-96541726D01*
X126370498Y-96562902D01*
X126373434Y-96574873D01*
X126374148Y-96577527D01*
X126375240Y-96573356D01*
X126377832Y-96559430D01*
X126381878Y-96536033D01*
X126387332Y-96503453D01*
X126394150Y-96461976D01*
X126402287Y-96411888D01*
X126411696Y-96353474D01*
X126422333Y-96287022D01*
X126434153Y-96212816D01*
X126447109Y-96131144D01*
X126461157Y-96042292D01*
X126476252Y-95946545D01*
X126492348Y-95844190D01*
X126509400Y-95735512D01*
X126527363Y-95620799D01*
X126546191Y-95500336D01*
X126565839Y-95374409D01*
X126586261Y-95243304D01*
X126607414Y-95107308D01*
X126629250Y-94966706D01*
X126636273Y-94921447D01*
X126656286Y-94792444D01*
X126675923Y-94665882D01*
X126695126Y-94542138D01*
X126713835Y-94421590D01*
X126731992Y-94304615D01*
X126749538Y-94191593D01*
X126766415Y-94082899D01*
X126782564Y-93978912D01*
X126797925Y-93880009D01*
X126812442Y-93786569D01*
X126826054Y-93698968D01*
X126838703Y-93617585D01*
X126850330Y-93542797D01*
X126860878Y-93474982D01*
X126870286Y-93414518D01*
X126878497Y-93361781D01*
X126885451Y-93317150D01*
X126891090Y-93281003D01*
X126895356Y-93253717D01*
X126898189Y-93235670D01*
X126899531Y-93227240D01*
X126899590Y-93226890D01*
X126904565Y-93197680D01*
X126964640Y-93197680D01*
X126990497Y-93197841D01*
D13*
%TO.C,D1*%
X137490000Y-97925000D02*
X133605000Y-97925000D01*
X133605000Y-97925000D02*
X133605000Y-100195000D01*
X133605000Y-100195000D02*
X137490000Y-100195000D01*
%TO.C,J4*%
X96150000Y-97000000D02*
X96150000Y-99600000D01*
X81450000Y-97000000D02*
X96150000Y-97000000D01*
X96150000Y-106200000D02*
X94250000Y-106200000D01*
X96150000Y-103500000D02*
X96150000Y-106200000D01*
X81450000Y-106200000D02*
X81450000Y-97000000D01*
X90250000Y-106200000D02*
X81450000Y-106200000D01*
X95300000Y-96800000D02*
X96350000Y-96800000D01*
X96350000Y-97850000D02*
X96350000Y-96800000D01*
%TO.C,J3*%
X157650000Y-105350000D02*
X157650000Y-106400000D01*
X158700000Y-106400000D02*
X157650000Y-106400000D01*
X163750000Y-97000000D02*
X172550000Y-97000000D01*
X172550000Y-97000000D02*
X172550000Y-106200000D01*
X157850000Y-99700000D02*
X157850000Y-97000000D01*
X157850000Y-97000000D02*
X159750000Y-97000000D01*
X172550000Y-106200000D02*
X157850000Y-106200000D01*
X157850000Y-106200000D02*
X157850000Y-103600000D01*
%TO.C,D2*%
X115825000Y-100195000D02*
X119710000Y-100195000D01*
X115825000Y-97925000D02*
X115825000Y-100195000D01*
X119710000Y-97925000D02*
X115825000Y-97925000D01*
%TO.C,J2*%
X92570000Y-84040000D02*
X92570000Y-83760000D01*
X92570000Y-83760000D02*
X94170000Y-83760000D01*
X94170000Y-83760000D02*
X94170000Y-82840000D01*
X94170000Y-82840000D02*
X86350000Y-82840000D01*
X86350000Y-82840000D02*
X86350000Y-92960000D01*
X86350000Y-92960000D02*
X94170000Y-92960000D01*
X94170000Y-92960000D02*
X94170000Y-92040000D01*
X94170000Y-92040000D02*
X92570000Y-92040000D01*
X92570000Y-92040000D02*
X92570000Y-91760000D01*
X86350000Y-85400000D02*
X90710000Y-85400000D01*
X90710000Y-85400000D02*
X90710000Y-90400000D01*
X90710000Y-90400000D02*
X86350000Y-90400000D01*
X92570000Y-82840000D02*
X92570000Y-83760000D01*
X92570000Y-92960000D02*
X92570000Y-92040000D01*
X90210000Y-83600000D02*
X88610000Y-83600000D01*
X88610000Y-83600000D02*
X88610000Y-84600000D01*
X88610000Y-84600000D02*
X90210000Y-84600000D01*
X90210000Y-84600000D02*
X90210000Y-83600000D01*
X90210000Y-92200000D02*
X88610000Y-92200000D01*
X88610000Y-92200000D02*
X88610000Y-91200000D01*
X88610000Y-91200000D02*
X90210000Y-91200000D01*
X90210000Y-91200000D02*
X90210000Y-92200000D01*
X88610000Y-84600000D02*
X86350000Y-84600000D01*
X88610000Y-84100000D02*
X86350000Y-84100000D01*
X92570000Y-84040000D02*
X93785000Y-84040000D01*
%TO.C,U1*%
X108010000Y-81160000D02*
X97730000Y-81160000D01*
X108010000Y-91560000D02*
X108010000Y-81160000D01*
X97730000Y-91560000D02*
X108010000Y-91560000D01*
X97730000Y-81160000D02*
X97730000Y-91560000D01*
X105520000Y-81220000D02*
X103870000Y-81220000D01*
X105520000Y-91500000D02*
X105520000Y-81220000D01*
X100220000Y-91500000D02*
X105520000Y-91500000D01*
X100220000Y-81220000D02*
X100220000Y-91500000D01*
X101870000Y-81220000D02*
X100220000Y-81220000D01*
X103870000Y-81220000D02*
G75*
G02*
X101870000Y-81220000I-1000000J0D01*
G01*
%TO.C,J5*%
X147380000Y-97730000D02*
X144720000Y-97730000D01*
X147380000Y-105410000D02*
X147380000Y-97730000D01*
X144720000Y-105410000D02*
X144720000Y-97730000D01*
X147380000Y-105410000D02*
X144720000Y-105410000D01*
X147380000Y-106680000D02*
X147380000Y-108010000D01*
X147380000Y-108010000D02*
X146050000Y-108010000D01*
%TO.C,J7*%
X111700000Y-82550000D02*
X111700000Y-81220000D01*
X111700000Y-81220000D02*
X113030000Y-81220000D01*
X114300000Y-81220000D02*
X116900000Y-81220000D01*
X116900000Y-83880000D02*
X116900000Y-81220000D01*
X114300000Y-83880000D02*
X116900000Y-83880000D01*
X114300000Y-83880000D02*
X114300000Y-81220000D01*
%TD*%
%TO.C,R7*%
D10*
X130542380Y-105576666D02*
X130066190Y-105910000D01*
X130542380Y-106148095D02*
X129542380Y-106148095D01*
X129542380Y-105767142D01*
X129590000Y-105671904D01*
X129637619Y-105624285D01*
X129732857Y-105576666D01*
X129875714Y-105576666D01*
X129970952Y-105624285D01*
X130018571Y-105671904D01*
X130066190Y-105767142D01*
X130066190Y-106148095D01*
X129542380Y-105243333D02*
X129542380Y-104576666D01*
X130542380Y-105005238D01*
%TO.C,R6*%
X134352380Y-105576666D02*
X133876190Y-105910000D01*
X134352380Y-106148095D02*
X133352380Y-106148095D01*
X133352380Y-105767142D01*
X133400000Y-105671904D01*
X133447619Y-105624285D01*
X133542857Y-105576666D01*
X133685714Y-105576666D01*
X133780952Y-105624285D01*
X133828571Y-105671904D01*
X133876190Y-105767142D01*
X133876190Y-106148095D01*
X133352380Y-104719523D02*
X133352380Y-104910000D01*
X133400000Y-105005238D01*
X133447619Y-105052857D01*
X133590476Y-105148095D01*
X133780952Y-105195714D01*
X134161904Y-105195714D01*
X134257142Y-105148095D01*
X134304761Y-105100476D01*
X134352380Y-105005238D01*
X134352380Y-104814761D01*
X134304761Y-104719523D01*
X134257142Y-104671904D01*
X134161904Y-104624285D01*
X133923809Y-104624285D01*
X133828571Y-104671904D01*
X133780952Y-104719523D01*
X133733333Y-104814761D01*
X133733333Y-105005238D01*
X133780952Y-105100476D01*
X133828571Y-105148095D01*
X133923809Y-105195714D01*
%TO.C,J1*%
X160321666Y-81335380D02*
X160321666Y-82049666D01*
X160274047Y-82192523D01*
X160178809Y-82287761D01*
X160035952Y-82335380D01*
X159940714Y-82335380D01*
X161321666Y-82335380D02*
X160750238Y-82335380D01*
X161035952Y-82335380D02*
X161035952Y-81335380D01*
X160940714Y-81478238D01*
X160845476Y-81573476D01*
X160750238Y-81621095D01*
%TO.C,R5*%
X135723333Y-92527380D02*
X135390000Y-92051190D01*
X135151904Y-92527380D02*
X135151904Y-91527380D01*
X135532857Y-91527380D01*
X135628095Y-91575000D01*
X135675714Y-91622619D01*
X135723333Y-91717857D01*
X135723333Y-91860714D01*
X135675714Y-91955952D01*
X135628095Y-92003571D01*
X135532857Y-92051190D01*
X135151904Y-92051190D01*
X136628095Y-91527380D02*
X136151904Y-91527380D01*
X136104285Y-92003571D01*
X136151904Y-91955952D01*
X136247142Y-91908333D01*
X136485238Y-91908333D01*
X136580476Y-91955952D01*
X136628095Y-92003571D01*
X136675714Y-92098809D01*
X136675714Y-92336904D01*
X136628095Y-92432142D01*
X136580476Y-92479761D01*
X136485238Y-92527380D01*
X136247142Y-92527380D01*
X136151904Y-92479761D01*
X136104285Y-92432142D01*
%TO.C,R2*%
X117943333Y-92612380D02*
X117610000Y-92136190D01*
X117371904Y-92612380D02*
X117371904Y-91612380D01*
X117752857Y-91612380D01*
X117848095Y-91660000D01*
X117895714Y-91707619D01*
X117943333Y-91802857D01*
X117943333Y-91945714D01*
X117895714Y-92040952D01*
X117848095Y-92088571D01*
X117752857Y-92136190D01*
X117371904Y-92136190D01*
X118324285Y-91707619D02*
X118371904Y-91660000D01*
X118467142Y-91612380D01*
X118705238Y-91612380D01*
X118800476Y-91660000D01*
X118848095Y-91707619D01*
X118895714Y-91802857D01*
X118895714Y-91898095D01*
X118848095Y-92040952D01*
X118276666Y-92612380D01*
X118895714Y-92612380D01*
%TO.C,C3*%
X138263333Y-83487142D02*
X138215714Y-83534761D01*
X138072857Y-83582380D01*
X137977619Y-83582380D01*
X137834761Y-83534761D01*
X137739523Y-83439523D01*
X137691904Y-83344285D01*
X137644285Y-83153809D01*
X137644285Y-83010952D01*
X137691904Y-82820476D01*
X137739523Y-82725238D01*
X137834761Y-82630000D01*
X137977619Y-82582380D01*
X138072857Y-82582380D01*
X138215714Y-82630000D01*
X138263333Y-82677619D01*
X138596666Y-82582380D02*
X139215714Y-82582380D01*
X138882380Y-82963333D01*
X139025238Y-82963333D01*
X139120476Y-83010952D01*
X139168095Y-83058571D01*
X139215714Y-83153809D01*
X139215714Y-83391904D01*
X139168095Y-83487142D01*
X139120476Y-83534761D01*
X139025238Y-83582380D01*
X138739523Y-83582380D01*
X138644285Y-83534761D01*
X138596666Y-83487142D01*
%TO.C,C2*%
X157313333Y-108307142D02*
X157265714Y-108354761D01*
X157122857Y-108402380D01*
X157027619Y-108402380D01*
X156884761Y-108354761D01*
X156789523Y-108259523D01*
X156741904Y-108164285D01*
X156694285Y-107973809D01*
X156694285Y-107830952D01*
X156741904Y-107640476D01*
X156789523Y-107545238D01*
X156884761Y-107450000D01*
X157027619Y-107402380D01*
X157122857Y-107402380D01*
X157265714Y-107450000D01*
X157313333Y-107497619D01*
X157694285Y-107497619D02*
X157741904Y-107450000D01*
X157837142Y-107402380D01*
X158075238Y-107402380D01*
X158170476Y-107450000D01*
X158218095Y-107497619D01*
X158265714Y-107592857D01*
X158265714Y-107688095D01*
X158218095Y-107830952D01*
X157646666Y-108402380D01*
X158265714Y-108402380D01*
%TO.C,D1*%
X135151904Y-97607380D02*
X135151904Y-96607380D01*
X135390000Y-96607380D01*
X135532857Y-96655000D01*
X135628095Y-96750238D01*
X135675714Y-96845476D01*
X135723333Y-97035952D01*
X135723333Y-97178809D01*
X135675714Y-97369285D01*
X135628095Y-97464523D01*
X135532857Y-97559761D01*
X135390000Y-97607380D01*
X135151904Y-97607380D01*
X136675714Y-97607380D02*
X136104285Y-97607380D01*
X136390000Y-97607380D02*
X136390000Y-96607380D01*
X136294761Y-96750238D01*
X136199523Y-96845476D01*
X136104285Y-96893095D01*
%TO.C,J4*%
X88185666Y-95591380D02*
X88185666Y-96305666D01*
X88138047Y-96448523D01*
X88042809Y-96543761D01*
X87899952Y-96591380D01*
X87804714Y-96591380D01*
X89090428Y-95924714D02*
X89090428Y-96591380D01*
X88852333Y-95543761D02*
X88614238Y-96258047D01*
X89233285Y-96258047D01*
%TO.C,J3*%
X165909666Y-95590380D02*
X165909666Y-96304666D01*
X165862047Y-96447523D01*
X165766809Y-96542761D01*
X165623952Y-96590380D01*
X165528714Y-96590380D01*
X166290619Y-95590380D02*
X166909666Y-95590380D01*
X166576333Y-95971333D01*
X166719190Y-95971333D01*
X166814428Y-96018952D01*
X166862047Y-96066571D01*
X166909666Y-96161809D01*
X166909666Y-96399904D01*
X166862047Y-96495142D01*
X166814428Y-96542761D01*
X166719190Y-96590380D01*
X166433476Y-96590380D01*
X166338238Y-96542761D01*
X166290619Y-96495142D01*
%TO.C,D2*%
X117371904Y-97607380D02*
X117371904Y-96607380D01*
X117610000Y-96607380D01*
X117752857Y-96655000D01*
X117848095Y-96750238D01*
X117895714Y-96845476D01*
X117943333Y-97035952D01*
X117943333Y-97178809D01*
X117895714Y-97369285D01*
X117848095Y-97464523D01*
X117752857Y-97559761D01*
X117610000Y-97607380D01*
X117371904Y-97607380D01*
X118324285Y-96702619D02*
X118371904Y-96655000D01*
X118467142Y-96607380D01*
X118705238Y-96607380D01*
X118800476Y-96655000D01*
X118848095Y-96702619D01*
X118895714Y-96797857D01*
X118895714Y-96893095D01*
X118848095Y-97035952D01*
X118276666Y-97607380D01*
X118895714Y-97607380D01*
%TO.C,J2*%
X93392666Y-81304380D02*
X93392666Y-82018666D01*
X93345047Y-82161523D01*
X93249809Y-82256761D01*
X93106952Y-82304380D01*
X93011714Y-82304380D01*
X93821238Y-81399619D02*
X93868857Y-81352000D01*
X93964095Y-81304380D01*
X94202190Y-81304380D01*
X94297428Y-81352000D01*
X94345047Y-81399619D01*
X94392666Y-81494857D01*
X94392666Y-81590095D01*
X94345047Y-81732952D01*
X93773619Y-82304380D01*
X94392666Y-82304380D01*
%TO.C,U1*%
X102108095Y-85812380D02*
X102108095Y-86621904D01*
X102155714Y-86717142D01*
X102203333Y-86764761D01*
X102298571Y-86812380D01*
X102489047Y-86812380D01*
X102584285Y-86764761D01*
X102631904Y-86717142D01*
X102679523Y-86621904D01*
X102679523Y-85812380D01*
X103679523Y-86812380D02*
X103108095Y-86812380D01*
X103393809Y-86812380D02*
X103393809Y-85812380D01*
X103298571Y-85955238D01*
X103203333Y-86050476D01*
X103108095Y-86098095D01*
%TO.C,J5*%
X145716666Y-96480380D02*
X145716666Y-97194666D01*
X145669047Y-97337523D01*
X145573809Y-97432761D01*
X145430952Y-97480380D01*
X145335714Y-97480380D01*
X146669047Y-96480380D02*
X146192857Y-96480380D01*
X146145238Y-96956571D01*
X146192857Y-96908952D01*
X146288095Y-96861333D01*
X146526190Y-96861333D01*
X146621428Y-96908952D01*
X146669047Y-96956571D01*
X146716666Y-97051809D01*
X146716666Y-97289904D01*
X146669047Y-97385142D01*
X146621428Y-97432761D01*
X146526190Y-97480380D01*
X146288095Y-97480380D01*
X146192857Y-97432761D01*
X146145238Y-97385142D01*
%TO.C,J7*%
X117181380Y-82883333D02*
X117895666Y-82883333D01*
X118038523Y-82930952D01*
X118133761Y-83026190D01*
X118181380Y-83169047D01*
X118181380Y-83264285D01*
X117181380Y-82502380D02*
X117181380Y-81835714D01*
X118181380Y-82264285D01*
%TD*%
M02*
