%TF.GenerationSoftware,KiCad,Pcbnew,5.1.8+dfsg1-1+b1*%
%TF.CreationDate,2021-04-24T17:30:00-05:00*%
%TF.ProjectId,driver,64726976-6572-42e6-9b69-6361645f7063,B*%
%TF.SameCoordinates,Original*%
%TF.FileFunction,Soldermask,Bot*%
%TF.FilePolarity,Negative*%
%FSLAX46Y46*%
G04 Gerber Fmt 4.6, Leading zero omitted, Abs format (unit mm)*
G04 Created by KiCad (PCBNEW 5.1.8+dfsg1-1+b1) date 2021-04-24 17:30:00*
%MOMM*%
%LPD*%
G01*
G04 APERTURE LIST*
%TA.AperFunction,Profile*%
%ADD10C,0.100000*%
%TD*%
%ADD11O,1.750000X1.200000*%
%ADD12C,3.700000*%
%ADD13C,1.300000*%
%ADD14R,3.500000X3.500000*%
%ADD15O,1.600000X1.600000*%
%ADD16R,1.600000X1.600000*%
%ADD17O,1.700000X1.700000*%
%ADD18R,1.700000X1.700000*%
G04 APERTURE END LIST*
D10*
X121920000Y-85090000D02*
G75*
G02*
X119380000Y-82550000I0J2540000D01*
G01*
X165100000Y-78740000D02*
X88900000Y-78740000D01*
X119380000Y-82550000D02*
G75*
G02*
X121920000Y-80010000I2540000J0D01*
G01*
X132080000Y-80010000D02*
G75*
G02*
X134620000Y-82550000I0J-2540000D01*
G01*
X134620000Y-82550000D02*
G75*
G02*
X132080000Y-85090000I-2540000J0D01*
G01*
X132080000Y-80010000D02*
X121920000Y-80010000D01*
X132080000Y-85090000D02*
X121920000Y-85090000D01*
X165100000Y-109220000D02*
X88900000Y-109220000D01*
X86360000Y-81280000D02*
X86360000Y-106680000D01*
X167640000Y-106680000D02*
X167640000Y-81280000D01*
X86360000Y-81280000D02*
G75*
G02*
X88900000Y-78740000I2540000J0D01*
G01*
X88900000Y-109220000D02*
G75*
G02*
X86360000Y-106680000I0J2540000D01*
G01*
X167640000Y-106680000D02*
G75*
G02*
X165100000Y-109220000I-2540000J0D01*
G01*
X165100000Y-78740000D02*
G75*
G02*
X167640000Y-81280000I0J-2540000D01*
G01*
D11*
%TO.C,J1*%
X161290000Y-84900000D03*
X161290000Y-86900000D03*
X161290000Y-88900000D03*
G36*
G01*
X161915001Y-91500000D02*
X160664999Y-91500000D01*
G75*
G02*
X160415000Y-91250001I0J249999D01*
G01*
X160415000Y-90549999D01*
G75*
G02*
X160664999Y-90300000I249999J0D01*
G01*
X161915001Y-90300000D01*
G75*
G02*
X162165000Y-90549999I0J-249999D01*
G01*
X162165000Y-91250001D01*
G75*
G02*
X161915001Y-91500000I-249999J0D01*
G01*
G37*
%TD*%
%TO.C,R4*%
G36*
G01*
X155565001Y-85460000D02*
X154314999Y-85460000D01*
G75*
G02*
X154065000Y-85210001I0J249999D01*
G01*
X154065000Y-84409999D01*
G75*
G02*
X154314999Y-84160000I249999J0D01*
G01*
X155565001Y-84160000D01*
G75*
G02*
X155815000Y-84409999I0J-249999D01*
G01*
X155815000Y-85210001D01*
G75*
G02*
X155565001Y-85460000I-249999J0D01*
G01*
G37*
G36*
G01*
X155565001Y-88560000D02*
X154314999Y-88560000D01*
G75*
G02*
X154065000Y-88310001I0J249999D01*
G01*
X154065000Y-87509999D01*
G75*
G02*
X154314999Y-87260000I249999J0D01*
G01*
X155565001Y-87260000D01*
G75*
G02*
X155815000Y-87509999I0J-249999D01*
G01*
X155815000Y-88310001D01*
G75*
G02*
X155565001Y-88560000I-249999J0D01*
G01*
G37*
%TD*%
%TO.C,R3*%
G36*
G01*
X101970000Y-79384999D02*
X101970000Y-80635001D01*
G75*
G02*
X101720001Y-80885000I-249999J0D01*
G01*
X100919999Y-80885000D01*
G75*
G02*
X100670000Y-80635001I0J249999D01*
G01*
X100670000Y-79384999D01*
G75*
G02*
X100919999Y-79135000I249999J0D01*
G01*
X101720001Y-79135000D01*
G75*
G02*
X101970000Y-79384999I0J-249999D01*
G01*
G37*
G36*
G01*
X105070000Y-79384999D02*
X105070000Y-80635001D01*
G75*
G02*
X104820001Y-80885000I-249999J0D01*
G01*
X104019999Y-80885000D01*
G75*
G02*
X103770000Y-80635001I0J249999D01*
G01*
X103770000Y-79384999D01*
G75*
G02*
X104019999Y-79135000I249999J0D01*
G01*
X104820001Y-79135000D01*
G75*
G02*
X105070000Y-79384999I0J-249999D01*
G01*
G37*
%TD*%
%TO.C,R1*%
G36*
G01*
X154314999Y-93610000D02*
X155565001Y-93610000D01*
G75*
G02*
X155815000Y-93859999I0J-249999D01*
G01*
X155815000Y-94660001D01*
G75*
G02*
X155565001Y-94910000I-249999J0D01*
G01*
X154314999Y-94910000D01*
G75*
G02*
X154065000Y-94660001I0J249999D01*
G01*
X154065000Y-93859999D01*
G75*
G02*
X154314999Y-93610000I249999J0D01*
G01*
G37*
G36*
G01*
X154314999Y-90510000D02*
X155565001Y-90510000D01*
G75*
G02*
X155815000Y-90759999I0J-249999D01*
G01*
X155815000Y-91560001D01*
G75*
G02*
X155565001Y-91810000I-249999J0D01*
G01*
X154314999Y-91810000D01*
G75*
G02*
X154065000Y-91560001I0J249999D01*
G01*
X154065000Y-90759999D01*
G75*
G02*
X154314999Y-90510000I249999J0D01*
G01*
G37*
%TD*%
D12*
%TO.C,REF\u002A\u002A*%
X152400000Y-101600000D03*
%TD*%
%TO.C,REF\u002A\u002A*%
X101600000Y-101600000D03*
%TD*%
D13*
%TO.C,U2*%
X140970000Y-89535000D03*
X138430000Y-89535000D03*
X133350000Y-89535000D03*
X115570000Y-89535000D03*
X113030000Y-89535000D03*
X113030000Y-104775000D03*
X115570000Y-104775000D03*
X138430000Y-104775000D03*
X140970000Y-104775000D03*
%TD*%
D14*
%TO.C,J4*%
X95250000Y-101600000D03*
G36*
G01*
X87750000Y-102600000D02*
X87750000Y-100600000D01*
G75*
G02*
X88500000Y-99850000I750000J0D01*
G01*
X90000000Y-99850000D01*
G75*
G02*
X90750000Y-100600000I0J-750000D01*
G01*
X90750000Y-102600000D01*
G75*
G02*
X90000000Y-103350000I-750000J0D01*
G01*
X88500000Y-103350000D01*
G75*
G02*
X87750000Y-102600000I0J750000D01*
G01*
G37*
G36*
G01*
X90500000Y-107175000D02*
X90500000Y-105425000D01*
G75*
G02*
X91375000Y-104550000I875000J0D01*
G01*
X93125000Y-104550000D01*
G75*
G02*
X94000000Y-105425000I0J-875000D01*
G01*
X94000000Y-107175000D01*
G75*
G02*
X93125000Y-108050000I-875000J0D01*
G01*
X91375000Y-108050000D01*
G75*
G02*
X90500000Y-107175000I0J875000D01*
G01*
G37*
%TD*%
%TO.C,J3*%
G36*
G01*
X163500000Y-96025000D02*
X163500000Y-97775000D01*
G75*
G02*
X162625000Y-98650000I-875000J0D01*
G01*
X160875000Y-98650000D01*
G75*
G02*
X160000000Y-97775000I0J875000D01*
G01*
X160000000Y-96025000D01*
G75*
G02*
X160875000Y-95150000I875000J0D01*
G01*
X162625000Y-95150000D01*
G75*
G02*
X163500000Y-96025000I0J-875000D01*
G01*
G37*
G36*
G01*
X166250000Y-100600000D02*
X166250000Y-102600000D01*
G75*
G02*
X165500000Y-103350000I-750000J0D01*
G01*
X164000000Y-103350000D01*
G75*
G02*
X163250000Y-102600000I0J750000D01*
G01*
X163250000Y-100600000D01*
G75*
G02*
X164000000Y-99850000I750000J0D01*
G01*
X165500000Y-99850000D01*
G75*
G02*
X166250000Y-100600000I0J-750000D01*
G01*
G37*
X158750000Y-101600000D03*
%TD*%
D11*
%TO.C,J2*%
X92710000Y-90900000D03*
X92710000Y-88900000D03*
X92710000Y-86900000D03*
G36*
G01*
X92084999Y-84300000D02*
X93335001Y-84300000D01*
G75*
G02*
X93585000Y-84549999I0J-249999D01*
G01*
X93585000Y-85250001D01*
G75*
G02*
X93335001Y-85500000I-249999J0D01*
G01*
X92084999Y-85500000D01*
G75*
G02*
X91835000Y-85250001I0J249999D01*
G01*
X91835000Y-84549999D01*
G75*
G02*
X92084999Y-84300000I249999J0D01*
G01*
G37*
%TD*%
D15*
%TO.C,U1*%
X106680000Y-82550000D03*
X99060000Y-90170000D03*
X106680000Y-85090000D03*
X99060000Y-87630000D03*
X106680000Y-87630000D03*
X99060000Y-85090000D03*
X106680000Y-90170000D03*
D16*
X99060000Y-82550000D03*
%TD*%
D17*
%TO.C,J5*%
X146050000Y-99060000D03*
X146050000Y-101600000D03*
X146050000Y-104140000D03*
D18*
X146050000Y-106680000D03*
%TD*%
%TO.C,J7*%
X113030000Y-82550000D03*
D17*
X115570000Y-82550000D03*
%TD*%
M02*
