%TF.GenerationSoftware,KiCad,Pcbnew,5.1.8+dfsg1-1+b1*%
%TF.CreationDate,2021-04-24T17:30:00-05:00*%
%TF.ProjectId,driver,64726976-6572-42e6-9b69-6361645f7063,B*%
%TF.SameCoordinates,Original*%
%TF.FileFunction,Legend,Top*%
%TF.FilePolarity,Positive*%
%FSLAX46Y46*%
G04 Gerber Fmt 4.6, Leading zero omitted, Abs format (unit mm)*
G04 Created by KiCad (PCBNEW 5.1.8+dfsg1-1+b1) date 2021-04-24 17:30:00*
%MOMM*%
%LPD*%
G01*
G04 APERTURE LIST*
%ADD10C,0.150000*%
%ADD11C,0.317500*%
%TA.AperFunction,Profile*%
%ADD12C,0.100000*%
%TD*%
%ADD13C,0.127000*%
%ADD14C,0.200000*%
%ADD15C,0.120000*%
G04 APERTURE END LIST*
D10*
X145351904Y-87082380D02*
X145685238Y-88082380D01*
X146018571Y-87082380D01*
X146256666Y-87082380D02*
X146923333Y-88082380D01*
X146923333Y-87082380D02*
X146256666Y-88082380D01*
X147494761Y-87082380D02*
X147685238Y-87082380D01*
X147780476Y-87130000D01*
X147875714Y-87225238D01*
X147923333Y-87415714D01*
X147923333Y-87749047D01*
X147875714Y-87939523D01*
X147780476Y-88034761D01*
X147685238Y-88082380D01*
X147494761Y-88082380D01*
X147399523Y-88034761D01*
X147304285Y-87939523D01*
X147256666Y-87749047D01*
X147256666Y-87415714D01*
X147304285Y-87225238D01*
X147399523Y-87130000D01*
X147494761Y-87082380D01*
X148256666Y-87082380D02*
X148923333Y-87082380D01*
X148494761Y-88082380D01*
X149447142Y-87510952D02*
X149351904Y-87463333D01*
X149304285Y-87415714D01*
X149256666Y-87320476D01*
X149256666Y-87272857D01*
X149304285Y-87177619D01*
X149351904Y-87130000D01*
X149447142Y-87082380D01*
X149637619Y-87082380D01*
X149732857Y-87130000D01*
X149780476Y-87177619D01*
X149828095Y-87272857D01*
X149828095Y-87320476D01*
X149780476Y-87415714D01*
X149732857Y-87463333D01*
X149637619Y-87510952D01*
X149447142Y-87510952D01*
X149351904Y-87558571D01*
X149304285Y-87606190D01*
X149256666Y-87701428D01*
X149256666Y-87891904D01*
X149304285Y-87987142D01*
X149351904Y-88034761D01*
X149447142Y-88082380D01*
X149637619Y-88082380D01*
X149732857Y-88034761D01*
X149780476Y-87987142D01*
X149828095Y-87891904D01*
X149828095Y-87701428D01*
X149780476Y-87606190D01*
X149732857Y-87558571D01*
X149637619Y-87510952D01*
X150447142Y-87082380D02*
X150542380Y-87082380D01*
X150637619Y-87130000D01*
X150685238Y-87177619D01*
X150732857Y-87272857D01*
X150780476Y-87463333D01*
X150780476Y-87701428D01*
X150732857Y-87891904D01*
X150685238Y-87987142D01*
X150637619Y-88034761D01*
X150542380Y-88082380D01*
X150447142Y-88082380D01*
X150351904Y-88034761D01*
X150304285Y-87987142D01*
X150256666Y-87891904D01*
X150209047Y-87701428D01*
X150209047Y-87463333D01*
X150256666Y-87272857D01*
X150304285Y-87177619D01*
X150351904Y-87130000D01*
X150447142Y-87082380D01*
X151685238Y-87082380D02*
X151209047Y-87082380D01*
X151161428Y-87558571D01*
X151209047Y-87510952D01*
X151304285Y-87463333D01*
X151542380Y-87463333D01*
X151637619Y-87510952D01*
X151685238Y-87558571D01*
X151732857Y-87653809D01*
X151732857Y-87891904D01*
X151685238Y-87987142D01*
X151637619Y-88034761D01*
X151542380Y-88082380D01*
X151304285Y-88082380D01*
X151209047Y-88034761D01*
X151161428Y-87987142D01*
X143438571Y-103679523D02*
X143438571Y-104012857D01*
X143962380Y-104012857D02*
X142962380Y-104012857D01*
X142962380Y-103536666D01*
X143676666Y-103203333D02*
X143676666Y-102727142D01*
X143962380Y-103298571D02*
X142962380Y-102965238D01*
X143962380Y-102631904D01*
X143962380Y-102298571D02*
X142962380Y-102298571D01*
X143962380Y-101727142D01*
X142962380Y-101727142D01*
X148090000Y-107441904D02*
X148042380Y-107537142D01*
X148042380Y-107680000D01*
X148090000Y-107822857D01*
X148185238Y-107918095D01*
X148280476Y-107965714D01*
X148470952Y-108013333D01*
X148613809Y-108013333D01*
X148804285Y-107965714D01*
X148899523Y-107918095D01*
X148994761Y-107822857D01*
X149042380Y-107680000D01*
X149042380Y-107584761D01*
X148994761Y-107441904D01*
X148947142Y-107394285D01*
X148613809Y-107394285D01*
X148613809Y-107584761D01*
X149042380Y-106965714D02*
X148042380Y-106965714D01*
X149042380Y-106394285D01*
X148042380Y-106394285D01*
X149042380Y-105918095D02*
X148042380Y-105918095D01*
X148042380Y-105680000D01*
X148090000Y-105537142D01*
X148185238Y-105441904D01*
X148280476Y-105394285D01*
X148470952Y-105346666D01*
X148613809Y-105346666D01*
X148804285Y-105394285D01*
X148899523Y-105441904D01*
X148994761Y-105537142D01*
X149042380Y-105680000D01*
X149042380Y-105918095D01*
X115189047Y-85161428D02*
X115950952Y-85161428D01*
X112649047Y-85161428D02*
X113410952Y-85161428D01*
X113030000Y-85542380D02*
X113030000Y-84780476D01*
X117133809Y-102052380D02*
X117133809Y-101052380D01*
X117562380Y-101147619D02*
X117610000Y-101100000D01*
X117705238Y-101052380D01*
X117943333Y-101052380D01*
X118038571Y-101100000D01*
X118086190Y-101147619D01*
X118133809Y-101242857D01*
X118133809Y-101338095D01*
X118086190Y-101480952D01*
X117514761Y-102052380D01*
X118133809Y-102052380D01*
X119133809Y-101957142D02*
X119086190Y-102004761D01*
X118943333Y-102052380D01*
X118848095Y-102052380D01*
X118705238Y-102004761D01*
X118610000Y-101909523D01*
X118562380Y-101814285D01*
X118514761Y-101623809D01*
X118514761Y-101480952D01*
X118562380Y-101290476D01*
X118610000Y-101195238D01*
X118705238Y-101100000D01*
X118848095Y-101052380D01*
X118943333Y-101052380D01*
X119086190Y-101100000D01*
X119133809Y-101147619D01*
X133580476Y-102052380D02*
X133580476Y-101052380D01*
X133961428Y-101052380D01*
X134056666Y-101100000D01*
X134104285Y-101147619D01*
X134151904Y-101242857D01*
X134151904Y-101385714D01*
X134104285Y-101480952D01*
X134056666Y-101528571D01*
X133961428Y-101576190D01*
X133580476Y-101576190D01*
X134770952Y-101052380D02*
X134961428Y-101052380D01*
X135056666Y-101100000D01*
X135151904Y-101195238D01*
X135199523Y-101385714D01*
X135199523Y-101719047D01*
X135151904Y-101909523D01*
X135056666Y-102004761D01*
X134961428Y-102052380D01*
X134770952Y-102052380D01*
X134675714Y-102004761D01*
X134580476Y-101909523D01*
X134532857Y-101719047D01*
X134532857Y-101385714D01*
X134580476Y-101195238D01*
X134675714Y-101100000D01*
X134770952Y-101052380D01*
X135532857Y-101052380D02*
X135770952Y-102052380D01*
X135961428Y-101338095D01*
X136151904Y-102052380D01*
X136390000Y-101052380D01*
X136770952Y-101528571D02*
X137104285Y-101528571D01*
X137247142Y-102052380D02*
X136770952Y-102052380D01*
X136770952Y-101052380D01*
X137247142Y-101052380D01*
X138247142Y-102052380D02*
X137913809Y-101576190D01*
X137675714Y-102052380D02*
X137675714Y-101052380D01*
X138056666Y-101052380D01*
X138151904Y-101100000D01*
X138199523Y-101147619D01*
X138247142Y-101242857D01*
X138247142Y-101385714D01*
X138199523Y-101480952D01*
X138151904Y-101528571D01*
X138056666Y-101576190D01*
X137675714Y-101576190D01*
X98584047Y-106942380D02*
X98012619Y-106942380D01*
X98298333Y-106942380D02*
X98298333Y-105942380D01*
X98203095Y-106085238D01*
X98107857Y-106180476D01*
X98012619Y-106228095D01*
X98965000Y-106037619D02*
X99012619Y-105990000D01*
X99107857Y-105942380D01*
X99345952Y-105942380D01*
X99441190Y-105990000D01*
X99488809Y-106037619D01*
X99536428Y-106132857D01*
X99536428Y-106228095D01*
X99488809Y-106370952D01*
X98917380Y-106942380D01*
X99536428Y-106942380D01*
X100584047Y-105942380D02*
X100917380Y-106942380D01*
X101250714Y-105942380D01*
X102345952Y-106942380D02*
X102345952Y-105942380D01*
X102584047Y-105942380D01*
X102726904Y-105990000D01*
X102822142Y-106085238D01*
X102869761Y-106180476D01*
X102917380Y-106370952D01*
X102917380Y-106513809D01*
X102869761Y-106704285D01*
X102822142Y-106799523D01*
X102726904Y-106894761D01*
X102584047Y-106942380D01*
X102345952Y-106942380D01*
X103917380Y-106847142D02*
X103869761Y-106894761D01*
X103726904Y-106942380D01*
X103631666Y-106942380D01*
X103488809Y-106894761D01*
X103393571Y-106799523D01*
X103345952Y-106704285D01*
X103298333Y-106513809D01*
X103298333Y-106370952D01*
X103345952Y-106180476D01*
X103393571Y-106085238D01*
X103488809Y-105990000D01*
X103631666Y-105942380D01*
X103726904Y-105942380D01*
X103869761Y-105990000D01*
X103917380Y-106037619D01*
X95345952Y-108497142D02*
X95298333Y-108544761D01*
X95155476Y-108592380D01*
X95060238Y-108592380D01*
X94917380Y-108544761D01*
X94822142Y-108449523D01*
X94774523Y-108354285D01*
X94726904Y-108163809D01*
X94726904Y-108020952D01*
X94774523Y-107830476D01*
X94822142Y-107735238D01*
X94917380Y-107640000D01*
X95060238Y-107592380D01*
X95155476Y-107592380D01*
X95298333Y-107640000D01*
X95345952Y-107687619D01*
X95774523Y-108068571D02*
X96107857Y-108068571D01*
X96250714Y-108592380D02*
X95774523Y-108592380D01*
X95774523Y-107592380D01*
X96250714Y-107592380D01*
X96679285Y-108592380D02*
X96679285Y-107592380D01*
X97250714Y-108592380D01*
X97250714Y-107592380D01*
X97584047Y-107592380D02*
X98155476Y-107592380D01*
X97869761Y-108592380D02*
X97869761Y-107592380D01*
X98488809Y-108068571D02*
X98822142Y-108068571D01*
X98965000Y-108592380D02*
X98488809Y-108592380D01*
X98488809Y-107592380D01*
X98965000Y-107592380D01*
X99965000Y-108592380D02*
X99631666Y-108116190D01*
X99393571Y-108592380D02*
X99393571Y-107592380D01*
X99774523Y-107592380D01*
X99869761Y-107640000D01*
X99917380Y-107687619D01*
X99965000Y-107782857D01*
X99965000Y-107925714D01*
X99917380Y-108020952D01*
X99869761Y-108068571D01*
X99774523Y-108116190D01*
X99393571Y-108116190D01*
X101155476Y-108592380D02*
X101155476Y-107592380D01*
X101536428Y-107592380D01*
X101631666Y-107640000D01*
X101679285Y-107687619D01*
X101726904Y-107782857D01*
X101726904Y-107925714D01*
X101679285Y-108020952D01*
X101631666Y-108068571D01*
X101536428Y-108116190D01*
X101155476Y-108116190D01*
X102345952Y-107592380D02*
X102536428Y-107592380D01*
X102631666Y-107640000D01*
X102726904Y-107735238D01*
X102774523Y-107925714D01*
X102774523Y-108259047D01*
X102726904Y-108449523D01*
X102631666Y-108544761D01*
X102536428Y-108592380D01*
X102345952Y-108592380D01*
X102250714Y-108544761D01*
X102155476Y-108449523D01*
X102107857Y-108259047D01*
X102107857Y-107925714D01*
X102155476Y-107735238D01*
X102250714Y-107640000D01*
X102345952Y-107592380D01*
X103155476Y-108544761D02*
X103298333Y-108592380D01*
X103536428Y-108592380D01*
X103631666Y-108544761D01*
X103679285Y-108497142D01*
X103726904Y-108401904D01*
X103726904Y-108306666D01*
X103679285Y-108211428D01*
X103631666Y-108163809D01*
X103536428Y-108116190D01*
X103345952Y-108068571D01*
X103250714Y-108020952D01*
X103203095Y-107973333D01*
X103155476Y-107878095D01*
X103155476Y-107782857D01*
X103203095Y-107687619D01*
X103250714Y-107640000D01*
X103345952Y-107592380D01*
X103584047Y-107592380D01*
X103726904Y-107640000D01*
X104155476Y-108592380D02*
X104155476Y-107592380D01*
X104488809Y-107592380D02*
X105060238Y-107592380D01*
X104774523Y-108592380D02*
X104774523Y-107592380D01*
X105393571Y-108592380D02*
X105393571Y-107592380D01*
X105726904Y-107592380D02*
X106060238Y-108592380D01*
X106393571Y-107592380D01*
X106726904Y-108068571D02*
X107060238Y-108068571D01*
X107203095Y-108592380D02*
X106726904Y-108592380D01*
X106726904Y-107592380D01*
X107203095Y-107592380D01*
D11*
X116205000Y-87569523D02*
X116205000Y-86299523D01*
X116688809Y-86299523D01*
X116809761Y-86360000D01*
X116870238Y-86420476D01*
X116930714Y-86541428D01*
X116930714Y-86722857D01*
X116870238Y-86843809D01*
X116809761Y-86904285D01*
X116688809Y-86964761D01*
X116205000Y-86964761D01*
X117475000Y-87569523D02*
X117475000Y-86299523D01*
X117475000Y-86904285D02*
X118200714Y-86904285D01*
X118200714Y-87569523D02*
X118200714Y-86299523D01*
X119047380Y-86299523D02*
X119289285Y-86299523D01*
X119410238Y-86360000D01*
X119531190Y-86480952D01*
X119591666Y-86722857D01*
X119591666Y-87146190D01*
X119531190Y-87388095D01*
X119410238Y-87509047D01*
X119289285Y-87569523D01*
X119047380Y-87569523D01*
X118926428Y-87509047D01*
X118805476Y-87388095D01*
X118745000Y-87146190D01*
X118745000Y-86722857D01*
X118805476Y-86480952D01*
X118926428Y-86360000D01*
X119047380Y-86299523D01*
X119954523Y-86299523D02*
X120680238Y-86299523D01*
X120317380Y-87569523D02*
X120317380Y-86299523D01*
X121345476Y-86299523D02*
X121587380Y-86299523D01*
X121708333Y-86360000D01*
X121829285Y-86480952D01*
X121889761Y-86722857D01*
X121889761Y-87146190D01*
X121829285Y-87388095D01*
X121708333Y-87509047D01*
X121587380Y-87569523D01*
X121345476Y-87569523D01*
X121224523Y-87509047D01*
X121103571Y-87388095D01*
X121043095Y-87146190D01*
X121043095Y-86722857D01*
X121103571Y-86480952D01*
X121224523Y-86360000D01*
X121345476Y-86299523D01*
X123159761Y-87569523D02*
X122736428Y-86964761D01*
X122434047Y-87569523D02*
X122434047Y-86299523D01*
X122917857Y-86299523D01*
X123038809Y-86360000D01*
X123099285Y-86420476D01*
X123159761Y-86541428D01*
X123159761Y-86722857D01*
X123099285Y-86843809D01*
X123038809Y-86904285D01*
X122917857Y-86964761D01*
X122434047Y-86964761D01*
X123704047Y-86904285D02*
X124127380Y-86904285D01*
X124308809Y-87569523D02*
X123704047Y-87569523D01*
X123704047Y-86299523D01*
X124308809Y-86299523D01*
X124792619Y-87206666D02*
X125397380Y-87206666D01*
X124671666Y-87569523D02*
X125095000Y-86299523D01*
X125518333Y-87569523D01*
X126667380Y-87448571D02*
X126606904Y-87509047D01*
X126425476Y-87569523D01*
X126304523Y-87569523D01*
X126123095Y-87509047D01*
X126002142Y-87388095D01*
X125941666Y-87267142D01*
X125881190Y-87025238D01*
X125881190Y-86843809D01*
X125941666Y-86601904D01*
X126002142Y-86480952D01*
X126123095Y-86360000D01*
X126304523Y-86299523D01*
X126425476Y-86299523D01*
X126606904Y-86360000D01*
X126667380Y-86420476D01*
X127030238Y-86299523D02*
X127755952Y-86299523D01*
X127393095Y-87569523D02*
X127393095Y-86299523D01*
X128421190Y-86299523D02*
X128663095Y-86299523D01*
X128784047Y-86360000D01*
X128905000Y-86480952D01*
X128965476Y-86722857D01*
X128965476Y-87146190D01*
X128905000Y-87388095D01*
X128784047Y-87509047D01*
X128663095Y-87569523D01*
X128421190Y-87569523D01*
X128300238Y-87509047D01*
X128179285Y-87388095D01*
X128118809Y-87146190D01*
X128118809Y-86722857D01*
X128179285Y-86480952D01*
X128300238Y-86360000D01*
X128421190Y-86299523D01*
X130235476Y-87569523D02*
X129812142Y-86964761D01*
X129509761Y-87569523D02*
X129509761Y-86299523D01*
X129993571Y-86299523D01*
X130114523Y-86360000D01*
X130175000Y-86420476D01*
X130235476Y-86541428D01*
X130235476Y-86722857D01*
X130175000Y-86843809D01*
X130114523Y-86904285D01*
X129993571Y-86964761D01*
X129509761Y-86964761D01*
X131747380Y-87569523D02*
X131747380Y-86299523D01*
X132049761Y-86299523D01*
X132231190Y-86360000D01*
X132352142Y-86480952D01*
X132412619Y-86601904D01*
X132473095Y-86843809D01*
X132473095Y-87025238D01*
X132412619Y-87267142D01*
X132352142Y-87388095D01*
X132231190Y-87509047D01*
X132049761Y-87569523D01*
X131747380Y-87569523D01*
X133743095Y-87569523D02*
X133319761Y-86964761D01*
X133017380Y-87569523D02*
X133017380Y-86299523D01*
X133501190Y-86299523D01*
X133622142Y-86360000D01*
X133682619Y-86420476D01*
X133743095Y-86541428D01*
X133743095Y-86722857D01*
X133682619Y-86843809D01*
X133622142Y-86904285D01*
X133501190Y-86964761D01*
X133017380Y-86964761D01*
X134287380Y-87569523D02*
X134287380Y-86299523D01*
X134710714Y-86299523D02*
X135134047Y-87569523D01*
X135557380Y-86299523D01*
X135980714Y-86904285D02*
X136404047Y-86904285D01*
X136585476Y-87569523D02*
X135980714Y-87569523D01*
X135980714Y-86299523D01*
X136585476Y-86299523D01*
X137855476Y-87569523D02*
X137432142Y-86964761D01*
X137129761Y-87569523D02*
X137129761Y-86299523D01*
X137613571Y-86299523D01*
X137734523Y-86360000D01*
X137795000Y-86420476D01*
X137855476Y-86541428D01*
X137855476Y-86722857D01*
X137795000Y-86843809D01*
X137734523Y-86904285D01*
X137613571Y-86964761D01*
X137129761Y-86964761D01*
D10*
X113657142Y-80462380D02*
X113180952Y-80462380D01*
X113180952Y-79462380D01*
X113990476Y-79938571D02*
X114323809Y-79938571D01*
X114466666Y-80462380D02*
X113990476Y-80462380D01*
X113990476Y-79462380D01*
X114466666Y-79462380D01*
X114895238Y-80462380D02*
X114895238Y-79462380D01*
X115133333Y-79462380D01*
X115276190Y-79510000D01*
X115371428Y-79605238D01*
X115419047Y-79700476D01*
X115466666Y-79890952D01*
X115466666Y-80033809D01*
X115419047Y-80224285D01*
X115371428Y-80319523D01*
X115276190Y-80414761D01*
X115133333Y-80462380D01*
X114895238Y-80462380D01*
D12*
X121920000Y-85090000D02*
G75*
G02*
X119380000Y-82550000I0J2540000D01*
G01*
X165100000Y-78740000D02*
X88900000Y-78740000D01*
X119380000Y-82550000D02*
G75*
G02*
X121920000Y-80010000I2540000J0D01*
G01*
X132080000Y-80010000D02*
G75*
G02*
X134620000Y-82550000I0J-2540000D01*
G01*
X134620000Y-82550000D02*
G75*
G02*
X132080000Y-85090000I-2540000J0D01*
G01*
X132080000Y-80010000D02*
X121920000Y-80010000D01*
X132080000Y-85090000D02*
X121920000Y-85090000D01*
X165100000Y-109220000D02*
X88900000Y-109220000D01*
X86360000Y-81280000D02*
X86360000Y-106680000D01*
X167640000Y-106680000D02*
X167640000Y-81280000D01*
X86360000Y-81280000D02*
G75*
G02*
X88900000Y-78740000I2540000J0D01*
G01*
X88900000Y-109220000D02*
G75*
G02*
X86360000Y-106680000I0J2540000D01*
G01*
X167640000Y-106680000D02*
G75*
G02*
X165100000Y-109220000I-2540000J0D01*
G01*
X165100000Y-78740000D02*
G75*
G02*
X167640000Y-81280000I0J-2540000D01*
G01*
D13*
%TO.C,PS1*%
X154840000Y-83200000D02*
X154840000Y-92060000D01*
X142340000Y-92060000D02*
X142340000Y-83200000D01*
X144660000Y-80880000D02*
X152520000Y-80880000D01*
D14*
X154190000Y-95630000D02*
G75*
G03*
X154190000Y-95630000I-100000J0D01*
G01*
D13*
X152520000Y-94380000D02*
X144660000Y-94380000D01*
D15*
%TO.C,R7*%
X129180000Y-104682936D02*
X129180000Y-106137064D01*
X127360000Y-104682936D02*
X127360000Y-106137064D01*
%TO.C,R6*%
X132990000Y-104682936D02*
X132990000Y-106137064D01*
X131170000Y-104682936D02*
X131170000Y-106137064D01*
%TO.C,J1*%
X161430000Y-91760000D02*
X161430000Y-92040000D01*
X161430000Y-92040000D02*
X159830000Y-92040000D01*
X159830000Y-92040000D02*
X159830000Y-92960000D01*
X159830000Y-92960000D02*
X167650000Y-92960000D01*
X167650000Y-92960000D02*
X167650000Y-82840000D01*
X167650000Y-82840000D02*
X159830000Y-82840000D01*
X159830000Y-82840000D02*
X159830000Y-83760000D01*
X159830000Y-83760000D02*
X161430000Y-83760000D01*
X161430000Y-83760000D02*
X161430000Y-84040000D01*
X167650000Y-90400000D02*
X163290000Y-90400000D01*
X163290000Y-90400000D02*
X163290000Y-85400000D01*
X163290000Y-85400000D02*
X167650000Y-85400000D01*
X161430000Y-92960000D02*
X161430000Y-92040000D01*
X161430000Y-82840000D02*
X161430000Y-83760000D01*
X163790000Y-92200000D02*
X165390000Y-92200000D01*
X165390000Y-92200000D02*
X165390000Y-91200000D01*
X165390000Y-91200000D02*
X163790000Y-91200000D01*
X163790000Y-91200000D02*
X163790000Y-92200000D01*
X163790000Y-83600000D02*
X165390000Y-83600000D01*
X165390000Y-83600000D02*
X165390000Y-84600000D01*
X165390000Y-84600000D02*
X163790000Y-84600000D01*
X163790000Y-84600000D02*
X163790000Y-83600000D01*
X165390000Y-91200000D02*
X167650000Y-91200000D01*
X165390000Y-91700000D02*
X167650000Y-91700000D01*
X161430000Y-91760000D02*
X160215000Y-91760000D01*
%TO.C,R5*%
X135162936Y-93070000D02*
X136617064Y-93070000D01*
X135162936Y-94890000D02*
X136617064Y-94890000D01*
%TO.C,R2*%
X117382936Y-93070000D02*
X118837064Y-93070000D01*
X117382936Y-94890000D02*
X118837064Y-94890000D01*
%TO.C,C3*%
X139141252Y-82190000D02*
X137718748Y-82190000D01*
X139141252Y-80370000D02*
X137718748Y-80370000D01*
%TO.C,C2*%
X152958748Y-105770000D02*
X154381252Y-105770000D01*
X152958748Y-107590000D02*
X154381252Y-107590000D01*
%TO.C,D1*%
X137490000Y-97925000D02*
X133605000Y-97925000D01*
X133605000Y-97925000D02*
X133605000Y-100195000D01*
X133605000Y-100195000D02*
X137490000Y-100195000D01*
%TO.C,J4*%
X96150000Y-97000000D02*
X96150000Y-99600000D01*
X81450000Y-97000000D02*
X96150000Y-97000000D01*
X96150000Y-106200000D02*
X94250000Y-106200000D01*
X96150000Y-103500000D02*
X96150000Y-106200000D01*
X81450000Y-106200000D02*
X81450000Y-97000000D01*
X90250000Y-106200000D02*
X81450000Y-106200000D01*
X95300000Y-96800000D02*
X96350000Y-96800000D01*
X96350000Y-97850000D02*
X96350000Y-96800000D01*
%TO.C,J3*%
X157650000Y-105350000D02*
X157650000Y-106400000D01*
X158700000Y-106400000D02*
X157650000Y-106400000D01*
X163750000Y-97000000D02*
X172550000Y-97000000D01*
X172550000Y-97000000D02*
X172550000Y-106200000D01*
X157850000Y-99700000D02*
X157850000Y-97000000D01*
X157850000Y-97000000D02*
X159750000Y-97000000D01*
X172550000Y-106200000D02*
X157850000Y-106200000D01*
X157850000Y-106200000D02*
X157850000Y-103600000D01*
%TO.C,D2*%
X115825000Y-100195000D02*
X119710000Y-100195000D01*
X115825000Y-97925000D02*
X115825000Y-100195000D01*
X119710000Y-97925000D02*
X115825000Y-97925000D01*
%TO.C,J2*%
X92570000Y-84040000D02*
X92570000Y-83760000D01*
X92570000Y-83760000D02*
X94170000Y-83760000D01*
X94170000Y-83760000D02*
X94170000Y-82840000D01*
X94170000Y-82840000D02*
X86350000Y-82840000D01*
X86350000Y-82840000D02*
X86350000Y-92960000D01*
X86350000Y-92960000D02*
X94170000Y-92960000D01*
X94170000Y-92960000D02*
X94170000Y-92040000D01*
X94170000Y-92040000D02*
X92570000Y-92040000D01*
X92570000Y-92040000D02*
X92570000Y-91760000D01*
X86350000Y-85400000D02*
X90710000Y-85400000D01*
X90710000Y-85400000D02*
X90710000Y-90400000D01*
X90710000Y-90400000D02*
X86350000Y-90400000D01*
X92570000Y-82840000D02*
X92570000Y-83760000D01*
X92570000Y-92960000D02*
X92570000Y-92040000D01*
X90210000Y-83600000D02*
X88610000Y-83600000D01*
X88610000Y-83600000D02*
X88610000Y-84600000D01*
X88610000Y-84600000D02*
X90210000Y-84600000D01*
X90210000Y-84600000D02*
X90210000Y-83600000D01*
X90210000Y-92200000D02*
X88610000Y-92200000D01*
X88610000Y-92200000D02*
X88610000Y-91200000D01*
X88610000Y-91200000D02*
X90210000Y-91200000D01*
X90210000Y-91200000D02*
X90210000Y-92200000D01*
X88610000Y-84600000D02*
X86350000Y-84600000D01*
X88610000Y-84100000D02*
X86350000Y-84100000D01*
X92570000Y-84040000D02*
X93785000Y-84040000D01*
%TO.C,U1*%
X108010000Y-81160000D02*
X97730000Y-81160000D01*
X108010000Y-91560000D02*
X108010000Y-81160000D01*
X97730000Y-91560000D02*
X108010000Y-91560000D01*
X97730000Y-81160000D02*
X97730000Y-91560000D01*
X105520000Y-81220000D02*
X103870000Y-81220000D01*
X105520000Y-91500000D02*
X105520000Y-81220000D01*
X100220000Y-91500000D02*
X105520000Y-91500000D01*
X100220000Y-81220000D02*
X100220000Y-91500000D01*
X101870000Y-81220000D02*
X100220000Y-81220000D01*
X103870000Y-81220000D02*
G75*
G02*
X101870000Y-81220000I-1000000J0D01*
G01*
%TO.C,J5*%
X147380000Y-97730000D02*
X144720000Y-97730000D01*
X147380000Y-105410000D02*
X147380000Y-97730000D01*
X144720000Y-105410000D02*
X144720000Y-97730000D01*
X147380000Y-105410000D02*
X144720000Y-105410000D01*
X147380000Y-106680000D02*
X147380000Y-108010000D01*
X147380000Y-108010000D02*
X146050000Y-108010000D01*
%TO.C,J7*%
X111700000Y-82550000D02*
X111700000Y-81220000D01*
X111700000Y-81220000D02*
X113030000Y-81220000D01*
X114300000Y-81220000D02*
X116900000Y-81220000D01*
X116900000Y-83880000D02*
X116900000Y-81220000D01*
X114300000Y-83880000D02*
X116900000Y-83880000D01*
X114300000Y-83880000D02*
X114300000Y-81220000D01*
%TD*%
%TO.C,R7*%
D10*
X130542380Y-105576666D02*
X130066190Y-105910000D01*
X130542380Y-106148095D02*
X129542380Y-106148095D01*
X129542380Y-105767142D01*
X129590000Y-105671904D01*
X129637619Y-105624285D01*
X129732857Y-105576666D01*
X129875714Y-105576666D01*
X129970952Y-105624285D01*
X130018571Y-105671904D01*
X130066190Y-105767142D01*
X130066190Y-106148095D01*
X129542380Y-105243333D02*
X129542380Y-104576666D01*
X130542380Y-105005238D01*
%TO.C,R6*%
X134352380Y-105576666D02*
X133876190Y-105910000D01*
X134352380Y-106148095D02*
X133352380Y-106148095D01*
X133352380Y-105767142D01*
X133400000Y-105671904D01*
X133447619Y-105624285D01*
X133542857Y-105576666D01*
X133685714Y-105576666D01*
X133780952Y-105624285D01*
X133828571Y-105671904D01*
X133876190Y-105767142D01*
X133876190Y-106148095D01*
X133352380Y-104719523D02*
X133352380Y-104910000D01*
X133400000Y-105005238D01*
X133447619Y-105052857D01*
X133590476Y-105148095D01*
X133780952Y-105195714D01*
X134161904Y-105195714D01*
X134257142Y-105148095D01*
X134304761Y-105100476D01*
X134352380Y-105005238D01*
X134352380Y-104814761D01*
X134304761Y-104719523D01*
X134257142Y-104671904D01*
X134161904Y-104624285D01*
X133923809Y-104624285D01*
X133828571Y-104671904D01*
X133780952Y-104719523D01*
X133733333Y-104814761D01*
X133733333Y-105005238D01*
X133780952Y-105100476D01*
X133828571Y-105148095D01*
X133923809Y-105195714D01*
%TO.C,J1*%
X160321666Y-81335380D02*
X160321666Y-82049666D01*
X160274047Y-82192523D01*
X160178809Y-82287761D01*
X160035952Y-82335380D01*
X159940714Y-82335380D01*
X161321666Y-82335380D02*
X160750238Y-82335380D01*
X161035952Y-82335380D02*
X161035952Y-81335380D01*
X160940714Y-81478238D01*
X160845476Y-81573476D01*
X160750238Y-81621095D01*
%TO.C,R5*%
X135723333Y-92527380D02*
X135390000Y-92051190D01*
X135151904Y-92527380D02*
X135151904Y-91527380D01*
X135532857Y-91527380D01*
X135628095Y-91575000D01*
X135675714Y-91622619D01*
X135723333Y-91717857D01*
X135723333Y-91860714D01*
X135675714Y-91955952D01*
X135628095Y-92003571D01*
X135532857Y-92051190D01*
X135151904Y-92051190D01*
X136628095Y-91527380D02*
X136151904Y-91527380D01*
X136104285Y-92003571D01*
X136151904Y-91955952D01*
X136247142Y-91908333D01*
X136485238Y-91908333D01*
X136580476Y-91955952D01*
X136628095Y-92003571D01*
X136675714Y-92098809D01*
X136675714Y-92336904D01*
X136628095Y-92432142D01*
X136580476Y-92479761D01*
X136485238Y-92527380D01*
X136247142Y-92527380D01*
X136151904Y-92479761D01*
X136104285Y-92432142D01*
%TO.C,R2*%
X117943333Y-92612380D02*
X117610000Y-92136190D01*
X117371904Y-92612380D02*
X117371904Y-91612380D01*
X117752857Y-91612380D01*
X117848095Y-91660000D01*
X117895714Y-91707619D01*
X117943333Y-91802857D01*
X117943333Y-91945714D01*
X117895714Y-92040952D01*
X117848095Y-92088571D01*
X117752857Y-92136190D01*
X117371904Y-92136190D01*
X118324285Y-91707619D02*
X118371904Y-91660000D01*
X118467142Y-91612380D01*
X118705238Y-91612380D01*
X118800476Y-91660000D01*
X118848095Y-91707619D01*
X118895714Y-91802857D01*
X118895714Y-91898095D01*
X118848095Y-92040952D01*
X118276666Y-92612380D01*
X118895714Y-92612380D01*
%TO.C,C3*%
X138263333Y-83487142D02*
X138215714Y-83534761D01*
X138072857Y-83582380D01*
X137977619Y-83582380D01*
X137834761Y-83534761D01*
X137739523Y-83439523D01*
X137691904Y-83344285D01*
X137644285Y-83153809D01*
X137644285Y-83010952D01*
X137691904Y-82820476D01*
X137739523Y-82725238D01*
X137834761Y-82630000D01*
X137977619Y-82582380D01*
X138072857Y-82582380D01*
X138215714Y-82630000D01*
X138263333Y-82677619D01*
X138596666Y-82582380D02*
X139215714Y-82582380D01*
X138882380Y-82963333D01*
X139025238Y-82963333D01*
X139120476Y-83010952D01*
X139168095Y-83058571D01*
X139215714Y-83153809D01*
X139215714Y-83391904D01*
X139168095Y-83487142D01*
X139120476Y-83534761D01*
X139025238Y-83582380D01*
X138739523Y-83582380D01*
X138644285Y-83534761D01*
X138596666Y-83487142D01*
%TO.C,C2*%
X157313333Y-108307142D02*
X157265714Y-108354761D01*
X157122857Y-108402380D01*
X157027619Y-108402380D01*
X156884761Y-108354761D01*
X156789523Y-108259523D01*
X156741904Y-108164285D01*
X156694285Y-107973809D01*
X156694285Y-107830952D01*
X156741904Y-107640476D01*
X156789523Y-107545238D01*
X156884761Y-107450000D01*
X157027619Y-107402380D01*
X157122857Y-107402380D01*
X157265714Y-107450000D01*
X157313333Y-107497619D01*
X157694285Y-107497619D02*
X157741904Y-107450000D01*
X157837142Y-107402380D01*
X158075238Y-107402380D01*
X158170476Y-107450000D01*
X158218095Y-107497619D01*
X158265714Y-107592857D01*
X158265714Y-107688095D01*
X158218095Y-107830952D01*
X157646666Y-108402380D01*
X158265714Y-108402380D01*
%TO.C,D1*%
X135151904Y-97607380D02*
X135151904Y-96607380D01*
X135390000Y-96607380D01*
X135532857Y-96655000D01*
X135628095Y-96750238D01*
X135675714Y-96845476D01*
X135723333Y-97035952D01*
X135723333Y-97178809D01*
X135675714Y-97369285D01*
X135628095Y-97464523D01*
X135532857Y-97559761D01*
X135390000Y-97607380D01*
X135151904Y-97607380D01*
X136675714Y-97607380D02*
X136104285Y-97607380D01*
X136390000Y-97607380D02*
X136390000Y-96607380D01*
X136294761Y-96750238D01*
X136199523Y-96845476D01*
X136104285Y-96893095D01*
%TO.C,J4*%
X88185666Y-95591380D02*
X88185666Y-96305666D01*
X88138047Y-96448523D01*
X88042809Y-96543761D01*
X87899952Y-96591380D01*
X87804714Y-96591380D01*
X89090428Y-95924714D02*
X89090428Y-96591380D01*
X88852333Y-95543761D02*
X88614238Y-96258047D01*
X89233285Y-96258047D01*
%TO.C,J3*%
X165909666Y-95590380D02*
X165909666Y-96304666D01*
X165862047Y-96447523D01*
X165766809Y-96542761D01*
X165623952Y-96590380D01*
X165528714Y-96590380D01*
X166290619Y-95590380D02*
X166909666Y-95590380D01*
X166576333Y-95971333D01*
X166719190Y-95971333D01*
X166814428Y-96018952D01*
X166862047Y-96066571D01*
X166909666Y-96161809D01*
X166909666Y-96399904D01*
X166862047Y-96495142D01*
X166814428Y-96542761D01*
X166719190Y-96590380D01*
X166433476Y-96590380D01*
X166338238Y-96542761D01*
X166290619Y-96495142D01*
%TO.C,D2*%
X117371904Y-97607380D02*
X117371904Y-96607380D01*
X117610000Y-96607380D01*
X117752857Y-96655000D01*
X117848095Y-96750238D01*
X117895714Y-96845476D01*
X117943333Y-97035952D01*
X117943333Y-97178809D01*
X117895714Y-97369285D01*
X117848095Y-97464523D01*
X117752857Y-97559761D01*
X117610000Y-97607380D01*
X117371904Y-97607380D01*
X118324285Y-96702619D02*
X118371904Y-96655000D01*
X118467142Y-96607380D01*
X118705238Y-96607380D01*
X118800476Y-96655000D01*
X118848095Y-96702619D01*
X118895714Y-96797857D01*
X118895714Y-96893095D01*
X118848095Y-97035952D01*
X118276666Y-97607380D01*
X118895714Y-97607380D01*
%TO.C,J2*%
X93392666Y-81304380D02*
X93392666Y-82018666D01*
X93345047Y-82161523D01*
X93249809Y-82256761D01*
X93106952Y-82304380D01*
X93011714Y-82304380D01*
X93821238Y-81399619D02*
X93868857Y-81352000D01*
X93964095Y-81304380D01*
X94202190Y-81304380D01*
X94297428Y-81352000D01*
X94345047Y-81399619D01*
X94392666Y-81494857D01*
X94392666Y-81590095D01*
X94345047Y-81732952D01*
X93773619Y-82304380D01*
X94392666Y-82304380D01*
%TO.C,U1*%
X102108095Y-85812380D02*
X102108095Y-86621904D01*
X102155714Y-86717142D01*
X102203333Y-86764761D01*
X102298571Y-86812380D01*
X102489047Y-86812380D01*
X102584285Y-86764761D01*
X102631904Y-86717142D01*
X102679523Y-86621904D01*
X102679523Y-85812380D01*
X103679523Y-86812380D02*
X103108095Y-86812380D01*
X103393809Y-86812380D02*
X103393809Y-85812380D01*
X103298571Y-85955238D01*
X103203333Y-86050476D01*
X103108095Y-86098095D01*
%TO.C,J5*%
X145716666Y-96480380D02*
X145716666Y-97194666D01*
X145669047Y-97337523D01*
X145573809Y-97432761D01*
X145430952Y-97480380D01*
X145335714Y-97480380D01*
X146669047Y-96480380D02*
X146192857Y-96480380D01*
X146145238Y-96956571D01*
X146192857Y-96908952D01*
X146288095Y-96861333D01*
X146526190Y-96861333D01*
X146621428Y-96908952D01*
X146669047Y-96956571D01*
X146716666Y-97051809D01*
X146716666Y-97289904D01*
X146669047Y-97385142D01*
X146621428Y-97432761D01*
X146526190Y-97480380D01*
X146288095Y-97480380D01*
X146192857Y-97432761D01*
X146145238Y-97385142D01*
%TO.C,J7*%
X117181380Y-82883333D02*
X117895666Y-82883333D01*
X118038523Y-82930952D01*
X118133761Y-83026190D01*
X118181380Y-83169047D01*
X118181380Y-83264285D01*
X117181380Y-82502380D02*
X117181380Y-81835714D01*
X118181380Y-82264285D01*
%TD*%
M02*
