%TF.GenerationSoftware,KiCad,Pcbnew,5.1.8+dfsg1-1+b1*%
%TF.CreationDate,2021-03-06T12:09:01-06:00*%
%TF.ProjectId,driver,64726976-6572-42e6-9b69-6361645f7063,B*%
%TF.SameCoordinates,Original*%
%TF.FileFunction,Copper,L1,Top*%
%TF.FilePolarity,Positive*%
%FSLAX46Y46*%
G04 Gerber Fmt 4.6, Leading zero omitted, Abs format (unit mm)*
G04 Created by KiCad (PCBNEW 5.1.8+dfsg1-1+b1) date 2021-03-06 12:09:01*
%MOMM*%
%LPD*%
G01*
G04 APERTURE LIST*
%TA.AperFunction,Profile*%
%ADD10C,0.100000*%
%TD*%
%TA.AperFunction,SMDPad,CuDef*%
%ADD11R,2.500000X2.500000*%
%TD*%
%TA.AperFunction,ComponentPad*%
%ADD12O,1.750000X1.200000*%
%TD*%
%TA.AperFunction,ComponentPad*%
%ADD13C,1.300000*%
%TD*%
%TA.AperFunction,ComponentPad*%
%ADD14R,3.500000X3.500000*%
%TD*%
%TA.AperFunction,ComponentPad*%
%ADD15O,1.600000X1.600000*%
%TD*%
%TA.AperFunction,ComponentPad*%
%ADD16R,1.600000X1.600000*%
%TD*%
%TA.AperFunction,ComponentPad*%
%ADD17O,1.700000X1.700000*%
%TD*%
%TA.AperFunction,ComponentPad*%
%ADD18R,1.700000X1.700000*%
%TD*%
%TA.AperFunction,ViaPad*%
%ADD19C,0.800000*%
%TD*%
%TA.AperFunction,Conductor*%
%ADD20C,0.889000*%
%TD*%
%TA.AperFunction,Conductor*%
%ADD21C,0.254000*%
%TD*%
%TA.AperFunction,Conductor*%
%ADD22C,0.100000*%
%TD*%
G04 APERTURE END LIST*
D10*
X121920000Y-85090000D02*
G75*
G02*
X119380000Y-82550000I0J2540000D01*
G01*
X165100000Y-78740000D02*
X88900000Y-78740000D01*
X119380000Y-82550000D02*
G75*
G02*
X121920000Y-80010000I2540000J0D01*
G01*
X132080000Y-80010000D02*
G75*
G02*
X134620000Y-82550000I0J-2540000D01*
G01*
X134620000Y-82550000D02*
G75*
G02*
X132080000Y-85090000I-2540000J0D01*
G01*
X132080000Y-80010000D02*
X121920000Y-80010000D01*
X132080000Y-85090000D02*
X121920000Y-85090000D01*
X165100000Y-109220000D02*
X88900000Y-109220000D01*
X86360000Y-81280000D02*
X86360000Y-106680000D01*
X167640000Y-106680000D02*
X167640000Y-81280000D01*
X86360000Y-81280000D02*
G75*
G02*
X88900000Y-78740000I2540000J0D01*
G01*
X88900000Y-109220000D02*
G75*
G02*
X86360000Y-106680000I0J2540000D01*
G01*
X167640000Y-106680000D02*
G75*
G02*
X165100000Y-109220000I-2540000J0D01*
G01*
X165100000Y-78740000D02*
G75*
G02*
X167640000Y-81280000I0J-2540000D01*
G01*
D11*
%TO.P,PS1,4*%
%TO.N,N/C*%
X154090000Y-81630000D03*
%TO.P,PS1,3*%
%TO.N,+5V*%
X143090000Y-81630000D03*
%TO.P,PS1,2*%
%TO.N,GND*%
X143090000Y-93630000D03*
%TO.P,PS1,1*%
%TO.N,+12V*%
X154090000Y-93630000D03*
%TD*%
%TO.P,R7,2*%
%TO.N,GND*%
%TA.AperFunction,SMDPad,CuDef*%
G36*
G01*
X127645000Y-106310000D02*
X128895000Y-106310000D01*
G75*
G02*
X129145000Y-106560000I0J-250000D01*
G01*
X129145000Y-107360000D01*
G75*
G02*
X128895000Y-107610000I-250000J0D01*
G01*
X127645000Y-107610000D01*
G75*
G02*
X127395000Y-107360000I0J250000D01*
G01*
X127395000Y-106560000D01*
G75*
G02*
X127645000Y-106310000I250000J0D01*
G01*
G37*
%TD.AperFunction*%
%TO.P,R7,1*%
%TO.N,PWM_FAN*%
%TA.AperFunction,SMDPad,CuDef*%
G36*
G01*
X127645000Y-103210000D02*
X128895000Y-103210000D01*
G75*
G02*
X129145000Y-103460000I0J-250000D01*
G01*
X129145000Y-104260000D01*
G75*
G02*
X128895000Y-104510000I-250000J0D01*
G01*
X127645000Y-104510000D01*
G75*
G02*
X127395000Y-104260000I0J250000D01*
G01*
X127395000Y-103460000D01*
G75*
G02*
X127645000Y-103210000I250000J0D01*
G01*
G37*
%TD.AperFunction*%
%TD*%
%TO.P,R6,2*%
%TO.N,GND*%
%TA.AperFunction,SMDPad,CuDef*%
G36*
G01*
X131455000Y-106310000D02*
X132705000Y-106310000D01*
G75*
G02*
X132955000Y-106560000I0J-250000D01*
G01*
X132955000Y-107360000D01*
G75*
G02*
X132705000Y-107610000I-250000J0D01*
G01*
X131455000Y-107610000D01*
G75*
G02*
X131205000Y-107360000I0J250000D01*
G01*
X131205000Y-106560000D01*
G75*
G02*
X131455000Y-106310000I250000J0D01*
G01*
G37*
%TD.AperFunction*%
%TO.P,R6,1*%
%TO.N,PWM_LED*%
%TA.AperFunction,SMDPad,CuDef*%
G36*
G01*
X131455000Y-103210000D02*
X132705000Y-103210000D01*
G75*
G02*
X132955000Y-103460000I0J-250000D01*
G01*
X132955000Y-104260000D01*
G75*
G02*
X132705000Y-104510000I-250000J0D01*
G01*
X131455000Y-104510000D01*
G75*
G02*
X131205000Y-104260000I0J250000D01*
G01*
X131205000Y-103460000D01*
G75*
G02*
X131455000Y-103210000I250000J0D01*
G01*
G37*
%TD.AperFunction*%
%TD*%
D12*
%TO.P,J1,4*%
%TO.N,SCL*%
X161290000Y-84900000D03*
%TO.P,J1,3*%
%TO.N,SDA*%
X161290000Y-86900000D03*
%TO.P,J1,2*%
%TO.N,Net-(J1-Pad2)*%
X161290000Y-88900000D03*
%TO.P,J1,1*%
%TO.N,GND*%
%TA.AperFunction,ComponentPad*%
G36*
G01*
X161915001Y-91500000D02*
X160664999Y-91500000D01*
G75*
G02*
X160415000Y-91250001I0J249999D01*
G01*
X160415000Y-90549999D01*
G75*
G02*
X160664999Y-90300000I249999J0D01*
G01*
X161915001Y-90300000D01*
G75*
G02*
X162165000Y-90549999I0J-249999D01*
G01*
X162165000Y-91250001D01*
G75*
G02*
X161915001Y-91500000I-249999J0D01*
G01*
G37*
%TD.AperFunction*%
%TD*%
%TO.P,R5,2*%
%TO.N,Net-(D1-Pad2)*%
%TA.AperFunction,SMDPad,CuDef*%
G36*
G01*
X136790000Y-94605001D02*
X136790000Y-93354999D01*
G75*
G02*
X137039999Y-93105000I249999J0D01*
G01*
X137840001Y-93105000D01*
G75*
G02*
X138090000Y-93354999I0J-249999D01*
G01*
X138090000Y-94605001D01*
G75*
G02*
X137840001Y-94855000I-249999J0D01*
G01*
X137039999Y-94855000D01*
G75*
G02*
X136790000Y-94605001I0J249999D01*
G01*
G37*
%TD.AperFunction*%
%TO.P,R5,1*%
%TO.N,+5V*%
%TA.AperFunction,SMDPad,CuDef*%
G36*
G01*
X133690000Y-94605001D02*
X133690000Y-93354999D01*
G75*
G02*
X133939999Y-93105000I249999J0D01*
G01*
X134740001Y-93105000D01*
G75*
G02*
X134990000Y-93354999I0J-249999D01*
G01*
X134990000Y-94605001D01*
G75*
G02*
X134740001Y-94855000I-249999J0D01*
G01*
X133939999Y-94855000D01*
G75*
G02*
X133690000Y-94605001I0J249999D01*
G01*
G37*
%TD.AperFunction*%
%TD*%
%TO.P,R2,2*%
%TO.N,Net-(D2-Pad2)*%
%TA.AperFunction,SMDPad,CuDef*%
G36*
G01*
X119010000Y-94605001D02*
X119010000Y-93354999D01*
G75*
G02*
X119259999Y-93105000I249999J0D01*
G01*
X120060001Y-93105000D01*
G75*
G02*
X120310000Y-93354999I0J-249999D01*
G01*
X120310000Y-94605001D01*
G75*
G02*
X120060001Y-94855000I-249999J0D01*
G01*
X119259999Y-94855000D01*
G75*
G02*
X119010000Y-94605001I0J249999D01*
G01*
G37*
%TD.AperFunction*%
%TO.P,R2,1*%
%TO.N,INDICATOR*%
%TA.AperFunction,SMDPad,CuDef*%
G36*
G01*
X115910000Y-94605001D02*
X115910000Y-93354999D01*
G75*
G02*
X116159999Y-93105000I249999J0D01*
G01*
X116960001Y-93105000D01*
G75*
G02*
X117210000Y-93354999I0J-249999D01*
G01*
X117210000Y-94605001D01*
G75*
G02*
X116960001Y-94855000I-249999J0D01*
G01*
X116159999Y-94855000D01*
G75*
G02*
X115910000Y-94605001I0J249999D01*
G01*
G37*
%TD.AperFunction*%
%TD*%
%TO.P,C3,2*%
%TO.N,GND*%
%TA.AperFunction,SMDPad,CuDef*%
G36*
G01*
X137530000Y-80629998D02*
X137530000Y-81930002D01*
G75*
G02*
X137280002Y-82180000I-249998J0D01*
G01*
X136454998Y-82180000D01*
G75*
G02*
X136205000Y-81930002I0J249998D01*
G01*
X136205000Y-80629998D01*
G75*
G02*
X136454998Y-80380000I249998J0D01*
G01*
X137280002Y-80380000D01*
G75*
G02*
X137530000Y-80629998I0J-249998D01*
G01*
G37*
%TD.AperFunction*%
%TO.P,C3,1*%
%TO.N,+5V*%
%TA.AperFunction,SMDPad,CuDef*%
G36*
G01*
X140655000Y-80629998D02*
X140655000Y-81930002D01*
G75*
G02*
X140405002Y-82180000I-249998J0D01*
G01*
X139579998Y-82180000D01*
G75*
G02*
X139330000Y-81930002I0J249998D01*
G01*
X139330000Y-80629998D01*
G75*
G02*
X139579998Y-80380000I249998J0D01*
G01*
X140405002Y-80380000D01*
G75*
G02*
X140655000Y-80629998I0J-249998D01*
G01*
G37*
%TD.AperFunction*%
%TD*%
%TO.P,C2,2*%
%TO.N,+12V*%
%TA.AperFunction,SMDPad,CuDef*%
G36*
G01*
X154570000Y-107330002D02*
X154570000Y-106029998D01*
G75*
G02*
X154819998Y-105780000I249998J0D01*
G01*
X155645002Y-105780000D01*
G75*
G02*
X155895000Y-106029998I0J-249998D01*
G01*
X155895000Y-107330002D01*
G75*
G02*
X155645002Y-107580000I-249998J0D01*
G01*
X154819998Y-107580000D01*
G75*
G02*
X154570000Y-107330002I0J249998D01*
G01*
G37*
%TD.AperFunction*%
%TO.P,C2,1*%
%TO.N,GND*%
%TA.AperFunction,SMDPad,CuDef*%
G36*
G01*
X151445000Y-107330002D02*
X151445000Y-106029998D01*
G75*
G02*
X151694998Y-105780000I249998J0D01*
G01*
X152520002Y-105780000D01*
G75*
G02*
X152770000Y-106029998I0J-249998D01*
G01*
X152770000Y-107330002D01*
G75*
G02*
X152520002Y-107580000I-249998J0D01*
G01*
X151694998Y-107580000D01*
G75*
G02*
X151445000Y-107330002I0J249998D01*
G01*
G37*
%TD.AperFunction*%
%TD*%
%TO.P,D1,2*%
%TO.N,Net-(D1-Pad2)*%
%TA.AperFunction,SMDPad,CuDef*%
G36*
G01*
X136665000Y-99685000D02*
X136665000Y-98435000D01*
G75*
G02*
X136915000Y-98185000I250000J0D01*
G01*
X137665000Y-98185000D01*
G75*
G02*
X137915000Y-98435000I0J-250000D01*
G01*
X137915000Y-99685000D01*
G75*
G02*
X137665000Y-99935000I-250000J0D01*
G01*
X136915000Y-99935000D01*
G75*
G02*
X136665000Y-99685000I0J250000D01*
G01*
G37*
%TD.AperFunction*%
%TO.P,D1,1*%
%TO.N,GND*%
%TA.AperFunction,SMDPad,CuDef*%
G36*
G01*
X133865000Y-99685000D02*
X133865000Y-98435000D01*
G75*
G02*
X134115000Y-98185000I250000J0D01*
G01*
X134865000Y-98185000D01*
G75*
G02*
X135115000Y-98435000I0J-250000D01*
G01*
X135115000Y-99685000D01*
G75*
G02*
X134865000Y-99935000I-250000J0D01*
G01*
X134115000Y-99935000D01*
G75*
G02*
X133865000Y-99685000I0J250000D01*
G01*
G37*
%TD.AperFunction*%
%TD*%
D13*
%TO.P,U2,24*%
%TO.N,+12V*%
X140970000Y-89535000D03*
%TO.P,U2,23*%
X138430000Y-89535000D03*
%TO.P,U2,21*%
%TO.N,PWM_LED*%
X133350000Y-89535000D03*
%TO.P,U2,14*%
%TO.N,Net-(J7-Pad1)*%
X115570000Y-89535000D03*
%TO.P,U2,13*%
X113030000Y-89535000D03*
%TO.P,U2,12*%
%TO.N,Net-(J7-Pad2)*%
X113030000Y-104775000D03*
%TO.P,U2,11*%
X115570000Y-104775000D03*
%TO.P,U2,2*%
%TO.N,GND*%
X138430000Y-104775000D03*
%TO.P,U2,1*%
X140970000Y-104775000D03*
%TD*%
D14*
%TO.P,J4,1*%
%TO.N,+12V*%
X95250000Y-101600000D03*
%TO.P,J4,2*%
%TO.N,GND*%
%TA.AperFunction,ComponentPad*%
G36*
G01*
X87750000Y-102600000D02*
X87750000Y-100600000D01*
G75*
G02*
X88500000Y-99850000I750000J0D01*
G01*
X90000000Y-99850000D01*
G75*
G02*
X90750000Y-100600000I0J-750000D01*
G01*
X90750000Y-102600000D01*
G75*
G02*
X90000000Y-103350000I-750000J0D01*
G01*
X88500000Y-103350000D01*
G75*
G02*
X87750000Y-102600000I0J750000D01*
G01*
G37*
%TD.AperFunction*%
%TO.P,J4,3*%
%TO.N,N/C*%
%TA.AperFunction,ComponentPad*%
G36*
G01*
X90500000Y-107175000D02*
X90500000Y-105425000D01*
G75*
G02*
X91375000Y-104550000I875000J0D01*
G01*
X93125000Y-104550000D01*
G75*
G02*
X94000000Y-105425000I0J-875000D01*
G01*
X94000000Y-107175000D01*
G75*
G02*
X93125000Y-108050000I-875000J0D01*
G01*
X91375000Y-108050000D01*
G75*
G02*
X90500000Y-107175000I0J875000D01*
G01*
G37*
%TD.AperFunction*%
%TD*%
%TO.P,J3,3*%
%TO.N,N/C*%
%TA.AperFunction,ComponentPad*%
G36*
G01*
X163500000Y-96025000D02*
X163500000Y-97775000D01*
G75*
G02*
X162625000Y-98650000I-875000J0D01*
G01*
X160875000Y-98650000D01*
G75*
G02*
X160000000Y-97775000I0J875000D01*
G01*
X160000000Y-96025000D01*
G75*
G02*
X160875000Y-95150000I875000J0D01*
G01*
X162625000Y-95150000D01*
G75*
G02*
X163500000Y-96025000I0J-875000D01*
G01*
G37*
%TD.AperFunction*%
%TO.P,J3,2*%
%TO.N,GND*%
%TA.AperFunction,ComponentPad*%
G36*
G01*
X166250000Y-100600000D02*
X166250000Y-102600000D01*
G75*
G02*
X165500000Y-103350000I-750000J0D01*
G01*
X164000000Y-103350000D01*
G75*
G02*
X163250000Y-102600000I0J750000D01*
G01*
X163250000Y-100600000D01*
G75*
G02*
X164000000Y-99850000I750000J0D01*
G01*
X165500000Y-99850000D01*
G75*
G02*
X166250000Y-100600000I0J-750000D01*
G01*
G37*
%TD.AperFunction*%
%TO.P,J3,1*%
%TO.N,+12V*%
X158750000Y-101600000D03*
%TD*%
%TO.P,D2,2*%
%TO.N,Net-(D2-Pad2)*%
%TA.AperFunction,SMDPad,CuDef*%
G36*
G01*
X118885000Y-99685000D02*
X118885000Y-98435000D01*
G75*
G02*
X119135000Y-98185000I250000J0D01*
G01*
X119885000Y-98185000D01*
G75*
G02*
X120135000Y-98435000I0J-250000D01*
G01*
X120135000Y-99685000D01*
G75*
G02*
X119885000Y-99935000I-250000J0D01*
G01*
X119135000Y-99935000D01*
G75*
G02*
X118885000Y-99685000I0J250000D01*
G01*
G37*
%TD.AperFunction*%
%TO.P,D2,1*%
%TO.N,GND*%
%TA.AperFunction,SMDPad,CuDef*%
G36*
G01*
X116085000Y-99685000D02*
X116085000Y-98435000D01*
G75*
G02*
X116335000Y-98185000I250000J0D01*
G01*
X117085000Y-98185000D01*
G75*
G02*
X117335000Y-98435000I0J-250000D01*
G01*
X117335000Y-99685000D01*
G75*
G02*
X117085000Y-99935000I-250000J0D01*
G01*
X116335000Y-99935000D01*
G75*
G02*
X116085000Y-99685000I0J250000D01*
G01*
G37*
%TD.AperFunction*%
%TD*%
D12*
%TO.P,J2,4*%
%TO.N,SCL*%
X92710000Y-90900000D03*
%TO.P,J2,3*%
%TO.N,SDA*%
X92710000Y-88900000D03*
%TO.P,J2,2*%
%TO.N,Net-(J1-Pad2)*%
X92710000Y-86900000D03*
%TO.P,J2,1*%
%TO.N,GND*%
%TA.AperFunction,ComponentPad*%
G36*
G01*
X92084999Y-84300000D02*
X93335001Y-84300000D01*
G75*
G02*
X93585000Y-84549999I0J-249999D01*
G01*
X93585000Y-85250001D01*
G75*
G02*
X93335001Y-85500000I-249999J0D01*
G01*
X92084999Y-85500000D01*
G75*
G02*
X91835000Y-85250001I0J249999D01*
G01*
X91835000Y-84549999D01*
G75*
G02*
X92084999Y-84300000I249999J0D01*
G01*
G37*
%TD.AperFunction*%
%TD*%
D15*
%TO.P,U1,8*%
%TO.N,+5V*%
X106680000Y-82550000D03*
%TO.P,U1,4*%
%TO.N,GND*%
X99060000Y-90170000D03*
%TO.P,U1,7*%
%TO.N,SCL*%
X106680000Y-85090000D03*
%TO.P,U1,3*%
%TO.N,PWM_LED*%
X99060000Y-87630000D03*
%TO.P,U1,6*%
%TO.N,PWM_FAN*%
X106680000Y-87630000D03*
%TO.P,U1,2*%
%TO.N,INDICATOR*%
X99060000Y-85090000D03*
%TO.P,U1,5*%
%TO.N,SDA*%
X106680000Y-90170000D03*
D16*
%TO.P,U1,1*%
%TO.N,Net-(R3-Pad2)*%
X99060000Y-82550000D03*
%TD*%
D17*
%TO.P,J5,4*%
%TO.N,PWM_FAN*%
X146050000Y-99060000D03*
%TO.P,J5,3*%
%TO.N,N/C*%
X146050000Y-101600000D03*
%TO.P,J5,2*%
%TO.N,+12V*%
X146050000Y-104140000D03*
D18*
%TO.P,J5,1*%
%TO.N,GND*%
X146050000Y-106680000D03*
%TD*%
%TO.P,J7,1*%
%TO.N,Net-(J7-Pad1)*%
X113030000Y-82550000D03*
D17*
%TO.P,J7,2*%
%TO.N,Net-(J7-Pad2)*%
X115570000Y-82550000D03*
%TD*%
D19*
%TO.N,+5V*%
X135890000Y-87630000D03*
X157480000Y-93980000D03*
X153670000Y-86360000D03*
%TO.N,SDA*%
X106679980Y-95250020D03*
%TO.N,SCL*%
X104139990Y-93980010D03*
%TO.N,PWM_FAN*%
X109220040Y-97790040D03*
X128269960Y-97790040D03*
%TD*%
D20*
%TO.N,+12V*%
X158750000Y-101600000D02*
X158750000Y-102870000D01*
X155232500Y-106680000D02*
X156210000Y-106680000D01*
X158750000Y-104140000D02*
X158750000Y-101600000D01*
X156210000Y-106680000D02*
X158750000Y-104140000D01*
X154090000Y-93630000D02*
X154090000Y-95670000D01*
X158750000Y-100330000D02*
X158750000Y-101600000D01*
X154090000Y-95670000D02*
X158750000Y-100330000D01*
X138430000Y-89535000D02*
X140970000Y-89535000D01*
X149995000Y-89535000D02*
X154090000Y-93630000D01*
X140970000Y-89535000D02*
X149995000Y-89535000D01*
%TO.N,+5V*%
X142740000Y-81280000D02*
X143090000Y-81630000D01*
X139992500Y-81280000D02*
X142740000Y-81280000D01*
X139992500Y-83527500D02*
X139992500Y-81280000D01*
X135890000Y-89891258D02*
X135890000Y-87630000D01*
X134340000Y-91441258D02*
X135890000Y-89891258D01*
X134340000Y-93980000D02*
X134340000Y-91441258D01*
X135890000Y-87630000D02*
X137160000Y-86360000D01*
X137160000Y-86360000D02*
X139992500Y-83527500D01*
X143090000Y-81630000D02*
X148940000Y-81630000D01*
X157480000Y-90170000D02*
X157480000Y-93980000D01*
X153670000Y-86360000D02*
X157480000Y-90170000D01*
X148940000Y-81630000D02*
X153670000Y-86360000D01*
%TO.N,SDA*%
X106680000Y-95250000D02*
X106679980Y-95250020D01*
X106680000Y-90170000D02*
X106680000Y-95250000D01*
%TO.N,SCL*%
X104139990Y-86360010D02*
X104139990Y-93980010D01*
X105410000Y-85090000D02*
X104139990Y-86360010D01*
X106680000Y-85090000D02*
X105410000Y-85090000D01*
%TO.N,PWM_LED*%
X132080000Y-90805000D02*
X133350000Y-89535000D01*
X132080000Y-103860000D02*
X132080000Y-90805000D01*
%TO.N,PWM_FAN*%
X106680000Y-87630000D02*
X107950000Y-87630000D01*
X109219990Y-97789990D02*
X109220040Y-97790040D01*
X109219990Y-88899990D02*
X109219990Y-97789990D01*
X107950000Y-87630000D02*
X109219990Y-88899990D01*
X128270000Y-103860000D02*
X128270000Y-97790080D01*
X128270000Y-97790080D02*
X128269960Y-97790040D01*
%TO.N,INDICATOR*%
X100330000Y-85090000D02*
X99060000Y-85090000D01*
X105410000Y-80010000D02*
X100330000Y-85090000D01*
X107950000Y-80010000D02*
X105410000Y-80010000D01*
X110490000Y-91440000D02*
X110490000Y-82550000D01*
X113030000Y-93980000D02*
X110490000Y-91440000D01*
X110490000Y-82550000D02*
X107950000Y-80010000D01*
X116560000Y-93980000D02*
X113030000Y-93980000D01*
%TO.N,Net-(D1-Pad2)*%
X137290000Y-94130000D02*
X137440000Y-93980000D01*
X137290000Y-99060000D02*
X137290000Y-94130000D01*
%TO.N,Net-(D2-Pad2)*%
X119510000Y-94130000D02*
X119660000Y-93980000D01*
X119510000Y-99060000D02*
X119510000Y-94130000D01*
%TO.N,Net-(J7-Pad1)*%
X115570000Y-89535000D02*
X113030000Y-89535000D01*
X113030000Y-82550000D02*
X113030000Y-89535000D01*
%TO.N,Net-(J7-Pad2)*%
X115570000Y-82550000D02*
X121920000Y-88900000D01*
X121920000Y-88900000D02*
X121920000Y-100330000D01*
X117475000Y-104775000D02*
X121920000Y-100330000D01*
X113030000Y-104775000D02*
X117475000Y-104775000D01*
%TD*%
D21*
%TO.N,GND*%
X100493125Y-83400233D02*
X100498072Y-83350000D01*
X100498072Y-81750000D01*
X100485812Y-81625518D01*
X100449502Y-81505820D01*
X100390537Y-81395506D01*
X100311185Y-81298815D01*
X100214494Y-81219463D01*
X100104180Y-81160498D01*
X99984482Y-81124188D01*
X99860000Y-81111928D01*
X98260000Y-81111928D01*
X98135518Y-81124188D01*
X98015820Y-81160498D01*
X97905506Y-81219463D01*
X97808815Y-81298815D01*
X97729463Y-81395506D01*
X97670498Y-81505820D01*
X97634188Y-81625518D01*
X97621928Y-81750000D01*
X97621928Y-83350000D01*
X97634188Y-83474482D01*
X97670498Y-83594180D01*
X97729463Y-83704494D01*
X97808815Y-83801185D01*
X97905506Y-83880537D01*
X98015820Y-83939502D01*
X98135518Y-83975812D01*
X98143961Y-83976643D01*
X97945363Y-84175241D01*
X97788320Y-84410273D01*
X97680147Y-84671426D01*
X97625000Y-84948665D01*
X97625000Y-85231335D01*
X97680147Y-85508574D01*
X97788320Y-85769727D01*
X97945363Y-86004759D01*
X98145241Y-86204637D01*
X98377759Y-86360000D01*
X98145241Y-86515363D01*
X97945363Y-86715241D01*
X97788320Y-86950273D01*
X97680147Y-87211426D01*
X97625000Y-87488665D01*
X97625000Y-87771335D01*
X97680147Y-88048574D01*
X97788320Y-88309727D01*
X97945363Y-88544759D01*
X98145241Y-88744637D01*
X98380273Y-88901680D01*
X98390865Y-88906067D01*
X98204869Y-89017615D01*
X97996481Y-89206586D01*
X97828963Y-89432580D01*
X97708754Y-89686913D01*
X97668096Y-89820961D01*
X97790085Y-90043000D01*
X98933000Y-90043000D01*
X98933000Y-90023000D01*
X99187000Y-90023000D01*
X99187000Y-90043000D01*
X100329915Y-90043000D01*
X100451904Y-89820961D01*
X100411246Y-89686913D01*
X100291037Y-89432580D01*
X100123519Y-89206586D01*
X99915131Y-89017615D01*
X99729135Y-88906067D01*
X99739727Y-88901680D01*
X99974759Y-88744637D01*
X100174637Y-88544759D01*
X100331680Y-88309727D01*
X100439853Y-88048574D01*
X100495000Y-87771335D01*
X100495000Y-87488665D01*
X100439853Y-87211426D01*
X100331680Y-86950273D01*
X100174637Y-86715241D01*
X99974759Y-86515363D01*
X99742241Y-86360000D01*
X99974759Y-86204637D01*
X100009896Y-86169500D01*
X100276971Y-86169500D01*
X100330000Y-86174723D01*
X100383029Y-86169500D01*
X100541619Y-86153880D01*
X100745106Y-86092153D01*
X100932640Y-85991914D01*
X101097015Y-85857015D01*
X101130827Y-85815815D01*
X105857144Y-81089500D01*
X107502858Y-81089500D01*
X109410501Y-82997144D01*
X109410500Y-87563858D01*
X108750826Y-86904184D01*
X108717015Y-86862985D01*
X108552640Y-86728086D01*
X108365106Y-86627847D01*
X108161619Y-86566120D01*
X108003029Y-86550500D01*
X107950000Y-86545277D01*
X107896971Y-86550500D01*
X107629896Y-86550500D01*
X107594759Y-86515363D01*
X107362241Y-86360000D01*
X107594759Y-86204637D01*
X107794637Y-86004759D01*
X107951680Y-85769727D01*
X108059853Y-85508574D01*
X108115000Y-85231335D01*
X108115000Y-84948665D01*
X108059853Y-84671426D01*
X107951680Y-84410273D01*
X107794637Y-84175241D01*
X107594759Y-83975363D01*
X107362241Y-83820000D01*
X107594759Y-83664637D01*
X107794637Y-83464759D01*
X107951680Y-83229727D01*
X108059853Y-82968574D01*
X108115000Y-82691335D01*
X108115000Y-82408665D01*
X108059853Y-82131426D01*
X107951680Y-81870273D01*
X107794637Y-81635241D01*
X107594759Y-81435363D01*
X107359727Y-81278320D01*
X107098574Y-81170147D01*
X106821335Y-81115000D01*
X106538665Y-81115000D01*
X106261426Y-81170147D01*
X106000273Y-81278320D01*
X105765241Y-81435363D01*
X105565363Y-81635241D01*
X105408320Y-81870273D01*
X105300147Y-82131426D01*
X105245000Y-82408665D01*
X105245000Y-82691335D01*
X105300147Y-82968574D01*
X105408320Y-83229727D01*
X105565363Y-83464759D01*
X105765241Y-83664637D01*
X105997759Y-83820000D01*
X105765241Y-83975363D01*
X105730104Y-84010500D01*
X105463021Y-84010500D01*
X105409999Y-84005278D01*
X105356978Y-84010500D01*
X105356971Y-84010500D01*
X105198381Y-84026120D01*
X104994894Y-84087847D01*
X104807360Y-84188086D01*
X104642985Y-84322985D01*
X104609178Y-84364179D01*
X103414176Y-85559182D01*
X103372975Y-85592995D01*
X103238076Y-85757370D01*
X103137837Y-85944905D01*
X103111861Y-86030537D01*
X103076110Y-86148392D01*
X103055267Y-86360010D01*
X103060490Y-86413039D01*
X103060491Y-94033039D01*
X103076111Y-94191629D01*
X103137838Y-94395116D01*
X103238077Y-94582650D01*
X103372976Y-94747025D01*
X103537351Y-94881924D01*
X103724885Y-94982163D01*
X103928372Y-95043890D01*
X104139990Y-95064733D01*
X104351609Y-95043890D01*
X104555096Y-94982163D01*
X104742630Y-94881924D01*
X104907005Y-94747025D01*
X105041904Y-94582650D01*
X105142143Y-94395116D01*
X105203870Y-94191629D01*
X105219490Y-94033039D01*
X105219490Y-86807152D01*
X105799269Y-86227374D01*
X105997759Y-86360000D01*
X105765241Y-86515363D01*
X105565363Y-86715241D01*
X105408320Y-86950273D01*
X105300147Y-87211426D01*
X105245000Y-87488665D01*
X105245000Y-87771335D01*
X105300147Y-88048574D01*
X105408320Y-88309727D01*
X105565363Y-88544759D01*
X105765241Y-88744637D01*
X105997759Y-88900000D01*
X105765241Y-89055363D01*
X105565363Y-89255241D01*
X105408320Y-89490273D01*
X105300147Y-89751426D01*
X105245000Y-90028665D01*
X105245000Y-90311335D01*
X105300147Y-90588574D01*
X105408320Y-90849727D01*
X105565363Y-91084759D01*
X105600500Y-91119896D01*
X105600501Y-95196778D01*
X105595257Y-95250020D01*
X105616100Y-95461638D01*
X105677827Y-95665124D01*
X105778067Y-95852659D01*
X105912966Y-96017034D01*
X106077341Y-96151933D01*
X106264876Y-96252173D01*
X106468362Y-96313900D01*
X106679980Y-96334743D01*
X106891598Y-96313900D01*
X107095084Y-96252173D01*
X107282619Y-96151933D01*
X107405804Y-96050838D01*
X107405815Y-96050827D01*
X107447015Y-96017015D01*
X107581914Y-95852640D01*
X107682153Y-95665106D01*
X107743880Y-95461619D01*
X107759500Y-95303029D01*
X107759500Y-95303022D01*
X107764722Y-95250001D01*
X107759500Y-95196979D01*
X107759500Y-91119896D01*
X107794637Y-91084759D01*
X107951680Y-90849727D01*
X108059853Y-90588574D01*
X108115000Y-90311335D01*
X108115000Y-90028665D01*
X108059853Y-89751426D01*
X107951680Y-89490273D01*
X107794637Y-89255241D01*
X107594759Y-89055363D01*
X107362241Y-88900000D01*
X107560731Y-88767374D01*
X108140490Y-89347133D01*
X108140491Y-97736951D01*
X108135267Y-97789990D01*
X108156110Y-98001608D01*
X108211742Y-98185000D01*
X108217838Y-98205096D01*
X108318077Y-98392630D01*
X108452976Y-98557005D01*
X108494165Y-98590808D01*
X108494216Y-98590859D01*
X108617401Y-98691954D01*
X108804936Y-98792193D01*
X109008422Y-98853920D01*
X109220040Y-98874763D01*
X109431658Y-98853920D01*
X109635145Y-98792193D01*
X109822679Y-98691954D01*
X109987055Y-98557055D01*
X110121954Y-98392679D01*
X110222193Y-98205145D01*
X110228303Y-98185000D01*
X115446928Y-98185000D01*
X115450000Y-98774250D01*
X115608750Y-98933000D01*
X116583000Y-98933000D01*
X116583000Y-97708750D01*
X116837000Y-97708750D01*
X116837000Y-98933000D01*
X117811250Y-98933000D01*
X117970000Y-98774250D01*
X117973072Y-98185000D01*
X117960812Y-98060518D01*
X117924502Y-97940820D01*
X117865537Y-97830506D01*
X117786185Y-97733815D01*
X117689494Y-97654463D01*
X117579180Y-97595498D01*
X117459482Y-97559188D01*
X117335000Y-97546928D01*
X116995750Y-97550000D01*
X116837000Y-97708750D01*
X116583000Y-97708750D01*
X116424250Y-97550000D01*
X116085000Y-97546928D01*
X115960518Y-97559188D01*
X115840820Y-97595498D01*
X115730506Y-97654463D01*
X115633815Y-97733815D01*
X115554463Y-97830506D01*
X115495498Y-97940820D01*
X115459188Y-98060518D01*
X115446928Y-98185000D01*
X110228303Y-98185000D01*
X110283920Y-98001658D01*
X110304763Y-97790040D01*
X110299490Y-97736503D01*
X110299490Y-92776132D01*
X112229178Y-94705821D01*
X112262985Y-94747015D01*
X112427360Y-94881914D01*
X112614894Y-94982153D01*
X112818381Y-95043880D01*
X112976971Y-95059500D01*
X112976978Y-95059500D01*
X113029999Y-95064722D01*
X113083021Y-95059500D01*
X115400809Y-95059500D01*
X115421595Y-95098387D01*
X115532038Y-95232962D01*
X115666613Y-95343405D01*
X115820149Y-95425472D01*
X115986745Y-95476008D01*
X116159999Y-95493072D01*
X116960001Y-95493072D01*
X117133255Y-95476008D01*
X117299851Y-95425472D01*
X117453387Y-95343405D01*
X117587962Y-95232962D01*
X117698405Y-95098387D01*
X117780472Y-94944851D01*
X117831008Y-94778255D01*
X117848072Y-94605001D01*
X117848072Y-93354999D01*
X117831008Y-93181745D01*
X117780472Y-93015149D01*
X117698405Y-92861613D01*
X117587962Y-92727038D01*
X117453387Y-92616595D01*
X117299851Y-92534528D01*
X117133255Y-92483992D01*
X116960001Y-92466928D01*
X116159999Y-92466928D01*
X115986745Y-92483992D01*
X115820149Y-92534528D01*
X115666613Y-92616595D01*
X115532038Y-92727038D01*
X115421595Y-92861613D01*
X115400809Y-92900500D01*
X113477143Y-92900500D01*
X111569500Y-90992858D01*
X111569500Y-83574959D01*
X111590498Y-83644180D01*
X111649463Y-83754494D01*
X111728815Y-83851185D01*
X111825506Y-83930537D01*
X111935820Y-83989502D01*
X111950500Y-83993955D01*
X111950501Y-88837645D01*
X111891247Y-88926324D01*
X111794381Y-89160179D01*
X111745000Y-89408439D01*
X111745000Y-89661561D01*
X111794381Y-89909821D01*
X111891247Y-90143676D01*
X112031875Y-90354140D01*
X112210860Y-90533125D01*
X112421324Y-90673753D01*
X112655179Y-90770619D01*
X112903439Y-90820000D01*
X113156561Y-90820000D01*
X113404821Y-90770619D01*
X113638676Y-90673753D01*
X113727354Y-90614500D01*
X114872646Y-90614500D01*
X114961324Y-90673753D01*
X115195179Y-90770619D01*
X115443439Y-90820000D01*
X115696561Y-90820000D01*
X115944821Y-90770619D01*
X116178676Y-90673753D01*
X116389140Y-90533125D01*
X116568125Y-90354140D01*
X116708753Y-90143676D01*
X116805619Y-89909821D01*
X116855000Y-89661561D01*
X116855000Y-89408439D01*
X116805619Y-89160179D01*
X116708753Y-88926324D01*
X116568125Y-88715860D01*
X116389140Y-88536875D01*
X116178676Y-88396247D01*
X115944821Y-88299381D01*
X115696561Y-88250000D01*
X115443439Y-88250000D01*
X115195179Y-88299381D01*
X114961324Y-88396247D01*
X114872646Y-88455500D01*
X114109500Y-88455500D01*
X114109500Y-83993955D01*
X114124180Y-83989502D01*
X114234494Y-83930537D01*
X114331185Y-83851185D01*
X114410537Y-83754494D01*
X114469502Y-83644180D01*
X114491513Y-83571620D01*
X114623368Y-83703475D01*
X114866589Y-83865990D01*
X115136842Y-83977932D01*
X115423740Y-84035000D01*
X115528358Y-84035000D01*
X120840500Y-89347143D01*
X120840500Y-92940368D01*
X120798405Y-92861613D01*
X120687962Y-92727038D01*
X120553387Y-92616595D01*
X120399851Y-92534528D01*
X120233255Y-92483992D01*
X120060001Y-92466928D01*
X119259999Y-92466928D01*
X119086745Y-92483992D01*
X118920149Y-92534528D01*
X118766613Y-92616595D01*
X118632038Y-92727038D01*
X118521595Y-92861613D01*
X118439528Y-93015149D01*
X118388992Y-93181745D01*
X118371928Y-93354999D01*
X118371928Y-94605001D01*
X118388992Y-94778255D01*
X118430501Y-94915092D01*
X118430500Y-97900300D01*
X118396595Y-97941614D01*
X118314528Y-98095150D01*
X118263992Y-98261746D01*
X118246928Y-98435000D01*
X118246928Y-99685000D01*
X118263992Y-99858254D01*
X118314528Y-100024850D01*
X118396595Y-100178386D01*
X118507038Y-100312962D01*
X118641614Y-100423405D01*
X118795150Y-100505472D01*
X118961746Y-100556008D01*
X119135000Y-100573072D01*
X119885000Y-100573072D01*
X120058254Y-100556008D01*
X120214853Y-100508505D01*
X117027858Y-103695500D01*
X116267354Y-103695500D01*
X116178676Y-103636247D01*
X115944821Y-103539381D01*
X115696561Y-103490000D01*
X115443439Y-103490000D01*
X115195179Y-103539381D01*
X114961324Y-103636247D01*
X114872646Y-103695500D01*
X113727354Y-103695500D01*
X113638676Y-103636247D01*
X113404821Y-103539381D01*
X113156561Y-103490000D01*
X112903439Y-103490000D01*
X112655179Y-103539381D01*
X112421324Y-103636247D01*
X112210860Y-103776875D01*
X112031875Y-103955860D01*
X111891247Y-104166324D01*
X111794381Y-104400179D01*
X111745000Y-104648439D01*
X111745000Y-104901561D01*
X111794381Y-105149821D01*
X111891247Y-105383676D01*
X112031875Y-105594140D01*
X112210860Y-105773125D01*
X112421324Y-105913753D01*
X112655179Y-106010619D01*
X112903439Y-106060000D01*
X113156561Y-106060000D01*
X113404821Y-106010619D01*
X113638676Y-105913753D01*
X113727354Y-105854500D01*
X114872646Y-105854500D01*
X114961324Y-105913753D01*
X115195179Y-106010619D01*
X115443439Y-106060000D01*
X115696561Y-106060000D01*
X115944821Y-106010619D01*
X116178676Y-105913753D01*
X116267354Y-105854500D01*
X117421971Y-105854500D01*
X117475000Y-105859723D01*
X117528029Y-105854500D01*
X117686619Y-105838880D01*
X117890106Y-105777153D01*
X118077640Y-105676914D01*
X118097607Y-105660527D01*
X137724078Y-105660527D01*
X137777466Y-105889201D01*
X138007374Y-105995095D01*
X138253524Y-106054102D01*
X138506455Y-106063952D01*
X138756449Y-106024270D01*
X138993896Y-105936578D01*
X139082534Y-105889201D01*
X139135922Y-105660527D01*
X140264078Y-105660527D01*
X140317466Y-105889201D01*
X140547374Y-105995095D01*
X140793524Y-106054102D01*
X141046455Y-106063952D01*
X141296449Y-106024270D01*
X141533896Y-105936578D01*
X141622534Y-105889201D01*
X141636355Y-105830000D01*
X144561928Y-105830000D01*
X144565000Y-106394250D01*
X144723750Y-106553000D01*
X145923000Y-106553000D01*
X145923000Y-106533000D01*
X146177000Y-106533000D01*
X146177000Y-106553000D01*
X147376250Y-106553000D01*
X147535000Y-106394250D01*
X147538072Y-105830000D01*
X147533148Y-105780000D01*
X150806928Y-105780000D01*
X150810000Y-106394250D01*
X150968750Y-106553000D01*
X151980500Y-106553000D01*
X151980500Y-105303750D01*
X152234500Y-105303750D01*
X152234500Y-106553000D01*
X153246250Y-106553000D01*
X153405000Y-106394250D01*
X153408072Y-105780000D01*
X153395812Y-105655518D01*
X153359502Y-105535820D01*
X153300537Y-105425506D01*
X153221185Y-105328815D01*
X153124494Y-105249463D01*
X153014180Y-105190498D01*
X152894482Y-105154188D01*
X152770000Y-105141928D01*
X152393250Y-105145000D01*
X152234500Y-105303750D01*
X151980500Y-105303750D01*
X151821750Y-105145000D01*
X151445000Y-105141928D01*
X151320518Y-105154188D01*
X151200820Y-105190498D01*
X151090506Y-105249463D01*
X150993815Y-105328815D01*
X150914463Y-105425506D01*
X150855498Y-105535820D01*
X150819188Y-105655518D01*
X150806928Y-105780000D01*
X147533148Y-105780000D01*
X147525812Y-105705518D01*
X147489502Y-105585820D01*
X147430537Y-105475506D01*
X147351185Y-105378815D01*
X147254494Y-105299463D01*
X147144180Y-105240498D01*
X147071620Y-105218487D01*
X147203475Y-105086632D01*
X147365990Y-104843411D01*
X147477932Y-104573158D01*
X147535000Y-104286260D01*
X147535000Y-103993740D01*
X147477932Y-103706842D01*
X147365990Y-103436589D01*
X147203475Y-103193368D01*
X146996632Y-102986525D01*
X146822240Y-102870000D01*
X146996632Y-102753475D01*
X147203475Y-102546632D01*
X147365990Y-102303411D01*
X147477932Y-102033158D01*
X147535000Y-101746260D01*
X147535000Y-101453740D01*
X147515409Y-101355249D01*
X149915000Y-101355249D01*
X149915000Y-101844751D01*
X150010497Y-102324848D01*
X150197821Y-102777089D01*
X150469774Y-103184095D01*
X150815905Y-103530226D01*
X151222911Y-103802179D01*
X151675152Y-103989503D01*
X152155249Y-104085000D01*
X152644751Y-104085000D01*
X153124848Y-103989503D01*
X153577089Y-103802179D01*
X153984095Y-103530226D01*
X154330226Y-103184095D01*
X154602179Y-102777089D01*
X154789503Y-102324848D01*
X154885000Y-101844751D01*
X154885000Y-101355249D01*
X154789503Y-100875152D01*
X154602179Y-100422911D01*
X154330226Y-100015905D01*
X153984095Y-99669774D01*
X153577089Y-99397821D01*
X153124848Y-99210497D01*
X152644751Y-99115000D01*
X152155249Y-99115000D01*
X151675152Y-99210497D01*
X151222911Y-99397821D01*
X150815905Y-99669774D01*
X150469774Y-100015905D01*
X150197821Y-100422911D01*
X150010497Y-100875152D01*
X149915000Y-101355249D01*
X147515409Y-101355249D01*
X147477932Y-101166842D01*
X147365990Y-100896589D01*
X147203475Y-100653368D01*
X146996632Y-100446525D01*
X146822240Y-100330000D01*
X146996632Y-100213475D01*
X147203475Y-100006632D01*
X147365990Y-99763411D01*
X147477932Y-99493158D01*
X147535000Y-99206260D01*
X147535000Y-98913740D01*
X147477932Y-98626842D01*
X147365990Y-98356589D01*
X147203475Y-98113368D01*
X146996632Y-97906525D01*
X146753411Y-97744010D01*
X146483158Y-97632068D01*
X146196260Y-97575000D01*
X145903740Y-97575000D01*
X145616842Y-97632068D01*
X145346589Y-97744010D01*
X145103368Y-97906525D01*
X144896525Y-98113368D01*
X144734010Y-98356589D01*
X144622068Y-98626842D01*
X144565000Y-98913740D01*
X144565000Y-99206260D01*
X144622068Y-99493158D01*
X144734010Y-99763411D01*
X144896525Y-100006632D01*
X145103368Y-100213475D01*
X145277760Y-100330000D01*
X145103368Y-100446525D01*
X144896525Y-100653368D01*
X144734010Y-100896589D01*
X144622068Y-101166842D01*
X144565000Y-101453740D01*
X144565000Y-101746260D01*
X144622068Y-102033158D01*
X144734010Y-102303411D01*
X144896525Y-102546632D01*
X145103368Y-102753475D01*
X145277760Y-102870000D01*
X145103368Y-102986525D01*
X144896525Y-103193368D01*
X144734010Y-103436589D01*
X144622068Y-103706842D01*
X144565000Y-103993740D01*
X144565000Y-104286260D01*
X144622068Y-104573158D01*
X144734010Y-104843411D01*
X144896525Y-105086632D01*
X145028380Y-105218487D01*
X144955820Y-105240498D01*
X144845506Y-105299463D01*
X144748815Y-105378815D01*
X144669463Y-105475506D01*
X144610498Y-105585820D01*
X144574188Y-105705518D01*
X144561928Y-105830000D01*
X141636355Y-105830000D01*
X141675922Y-105660527D01*
X140970000Y-104954605D01*
X140264078Y-105660527D01*
X139135922Y-105660527D01*
X138430000Y-104954605D01*
X137724078Y-105660527D01*
X118097607Y-105660527D01*
X118242015Y-105542015D01*
X118275827Y-105500815D01*
X120316642Y-103460000D01*
X126756928Y-103460000D01*
X126756928Y-104260000D01*
X126773992Y-104433254D01*
X126824528Y-104599850D01*
X126906595Y-104753386D01*
X127017038Y-104887962D01*
X127151614Y-104998405D01*
X127305150Y-105080472D01*
X127471746Y-105131008D01*
X127645000Y-105148072D01*
X128895000Y-105148072D01*
X129068254Y-105131008D01*
X129234850Y-105080472D01*
X129388386Y-104998405D01*
X129522962Y-104887962D01*
X129633405Y-104753386D01*
X129715472Y-104599850D01*
X129766008Y-104433254D01*
X129783072Y-104260000D01*
X129783072Y-103460000D01*
X130566928Y-103460000D01*
X130566928Y-104260000D01*
X130583992Y-104433254D01*
X130634528Y-104599850D01*
X130716595Y-104753386D01*
X130827038Y-104887962D01*
X130961614Y-104998405D01*
X131115150Y-105080472D01*
X131281746Y-105131008D01*
X131455000Y-105148072D01*
X132705000Y-105148072D01*
X132878254Y-105131008D01*
X133044850Y-105080472D01*
X133198386Y-104998405D01*
X133332962Y-104887962D01*
X133362922Y-104851455D01*
X137141048Y-104851455D01*
X137180730Y-105101449D01*
X137268422Y-105338896D01*
X137315799Y-105427534D01*
X137544473Y-105480922D01*
X138250395Y-104775000D01*
X138609605Y-104775000D01*
X139315527Y-105480922D01*
X139544201Y-105427534D01*
X139650095Y-105197626D01*
X139701776Y-104982038D01*
X139720730Y-105101449D01*
X139808422Y-105338896D01*
X139855799Y-105427534D01*
X140084473Y-105480922D01*
X140790395Y-104775000D01*
X141149605Y-104775000D01*
X141855527Y-105480922D01*
X142084201Y-105427534D01*
X142190095Y-105197626D01*
X142249102Y-104951476D01*
X142258952Y-104698545D01*
X142219270Y-104448551D01*
X142131578Y-104211104D01*
X142084201Y-104122466D01*
X141855527Y-104069078D01*
X141149605Y-104775000D01*
X140790395Y-104775000D01*
X140084473Y-104069078D01*
X139855799Y-104122466D01*
X139749905Y-104352374D01*
X139698224Y-104567962D01*
X139679270Y-104448551D01*
X139591578Y-104211104D01*
X139544201Y-104122466D01*
X139315527Y-104069078D01*
X138609605Y-104775000D01*
X138250395Y-104775000D01*
X137544473Y-104069078D01*
X137315799Y-104122466D01*
X137209905Y-104352374D01*
X137150898Y-104598524D01*
X137141048Y-104851455D01*
X133362922Y-104851455D01*
X133443405Y-104753386D01*
X133525472Y-104599850D01*
X133576008Y-104433254D01*
X133593072Y-104260000D01*
X133593072Y-103889473D01*
X137724078Y-103889473D01*
X138430000Y-104595395D01*
X139135922Y-103889473D01*
X140264078Y-103889473D01*
X140970000Y-104595395D01*
X141675922Y-103889473D01*
X141622534Y-103660799D01*
X141392626Y-103554905D01*
X141146476Y-103495898D01*
X140893545Y-103486048D01*
X140643551Y-103525730D01*
X140406104Y-103613422D01*
X140317466Y-103660799D01*
X140264078Y-103889473D01*
X139135922Y-103889473D01*
X139082534Y-103660799D01*
X138852626Y-103554905D01*
X138606476Y-103495898D01*
X138353545Y-103486048D01*
X138103551Y-103525730D01*
X137866104Y-103613422D01*
X137777466Y-103660799D01*
X137724078Y-103889473D01*
X133593072Y-103889473D01*
X133593072Y-103460000D01*
X133576008Y-103286746D01*
X133525472Y-103120150D01*
X133443405Y-102966614D01*
X133332962Y-102832038D01*
X133198386Y-102721595D01*
X133159500Y-102700810D01*
X133159500Y-99935000D01*
X133226928Y-99935000D01*
X133239188Y-100059482D01*
X133275498Y-100179180D01*
X133334463Y-100289494D01*
X133413815Y-100386185D01*
X133510506Y-100465537D01*
X133620820Y-100524502D01*
X133740518Y-100560812D01*
X133865000Y-100573072D01*
X134204250Y-100570000D01*
X134363000Y-100411250D01*
X134363000Y-99187000D01*
X134617000Y-99187000D01*
X134617000Y-100411250D01*
X134775750Y-100570000D01*
X135115000Y-100573072D01*
X135239482Y-100560812D01*
X135359180Y-100524502D01*
X135469494Y-100465537D01*
X135566185Y-100386185D01*
X135645537Y-100289494D01*
X135704502Y-100179180D01*
X135740812Y-100059482D01*
X135753072Y-99935000D01*
X135750000Y-99345750D01*
X135591250Y-99187000D01*
X134617000Y-99187000D01*
X134363000Y-99187000D01*
X133388750Y-99187000D01*
X133230000Y-99345750D01*
X133226928Y-99935000D01*
X133159500Y-99935000D01*
X133159500Y-98185000D01*
X133226928Y-98185000D01*
X133230000Y-98774250D01*
X133388750Y-98933000D01*
X134363000Y-98933000D01*
X134363000Y-97708750D01*
X134617000Y-97708750D01*
X134617000Y-98933000D01*
X135591250Y-98933000D01*
X135750000Y-98774250D01*
X135751768Y-98435000D01*
X136026928Y-98435000D01*
X136026928Y-99685000D01*
X136043992Y-99858254D01*
X136094528Y-100024850D01*
X136176595Y-100178386D01*
X136287038Y-100312962D01*
X136421614Y-100423405D01*
X136575150Y-100505472D01*
X136741746Y-100556008D01*
X136915000Y-100573072D01*
X137665000Y-100573072D01*
X137838254Y-100556008D01*
X138004850Y-100505472D01*
X138158386Y-100423405D01*
X138292962Y-100312962D01*
X138403405Y-100178386D01*
X138485472Y-100024850D01*
X138536008Y-99858254D01*
X138553072Y-99685000D01*
X138553072Y-98435000D01*
X138536008Y-98261746D01*
X138485472Y-98095150D01*
X138403405Y-97941614D01*
X138369500Y-97900300D01*
X138369500Y-95313768D01*
X138467962Y-95232962D01*
X138578405Y-95098387D01*
X138660472Y-94944851D01*
X138680144Y-94880000D01*
X141201928Y-94880000D01*
X141214188Y-95004482D01*
X141250498Y-95124180D01*
X141309463Y-95234494D01*
X141388815Y-95331185D01*
X141485506Y-95410537D01*
X141595820Y-95469502D01*
X141715518Y-95505812D01*
X141840000Y-95518072D01*
X142804250Y-95515000D01*
X142963000Y-95356250D01*
X142963000Y-93757000D01*
X143217000Y-93757000D01*
X143217000Y-95356250D01*
X143375750Y-95515000D01*
X144340000Y-95518072D01*
X144464482Y-95505812D01*
X144584180Y-95469502D01*
X144694494Y-95410537D01*
X144791185Y-95331185D01*
X144870537Y-95234494D01*
X144929502Y-95124180D01*
X144965812Y-95004482D01*
X144978072Y-94880000D01*
X144975000Y-93915750D01*
X144816250Y-93757000D01*
X143217000Y-93757000D01*
X142963000Y-93757000D01*
X141363750Y-93757000D01*
X141205000Y-93915750D01*
X141201928Y-94880000D01*
X138680144Y-94880000D01*
X138711008Y-94778255D01*
X138728072Y-94605001D01*
X138728072Y-93354999D01*
X138711008Y-93181745D01*
X138660472Y-93015149D01*
X138578405Y-92861613D01*
X138467962Y-92727038D01*
X138333387Y-92616595D01*
X138179851Y-92534528D01*
X138013255Y-92483992D01*
X137840001Y-92466928D01*
X137039999Y-92466928D01*
X136866745Y-92483992D01*
X136700149Y-92534528D01*
X136546613Y-92616595D01*
X136412038Y-92727038D01*
X136301595Y-92861613D01*
X136219528Y-93015149D01*
X136168992Y-93181745D01*
X136151928Y-93354999D01*
X136151928Y-94605001D01*
X136168992Y-94778255D01*
X136210501Y-94915092D01*
X136210500Y-97900300D01*
X136176595Y-97941614D01*
X136094528Y-98095150D01*
X136043992Y-98261746D01*
X136026928Y-98435000D01*
X135751768Y-98435000D01*
X135753072Y-98185000D01*
X135740812Y-98060518D01*
X135704502Y-97940820D01*
X135645537Y-97830506D01*
X135566185Y-97733815D01*
X135469494Y-97654463D01*
X135359180Y-97595498D01*
X135239482Y-97559188D01*
X135115000Y-97546928D01*
X134775750Y-97550000D01*
X134617000Y-97708750D01*
X134363000Y-97708750D01*
X134204250Y-97550000D01*
X133865000Y-97546928D01*
X133740518Y-97559188D01*
X133620820Y-97595498D01*
X133510506Y-97654463D01*
X133413815Y-97733815D01*
X133334463Y-97830506D01*
X133275498Y-97940820D01*
X133239188Y-98060518D01*
X133226928Y-98185000D01*
X133159500Y-98185000D01*
X133159500Y-95019633D01*
X133201595Y-95098387D01*
X133312038Y-95232962D01*
X133446613Y-95343405D01*
X133600149Y-95425472D01*
X133766745Y-95476008D01*
X133939999Y-95493072D01*
X134740001Y-95493072D01*
X134913255Y-95476008D01*
X135079851Y-95425472D01*
X135233387Y-95343405D01*
X135367962Y-95232962D01*
X135478405Y-95098387D01*
X135560472Y-94944851D01*
X135611008Y-94778255D01*
X135628072Y-94605001D01*
X135628072Y-93354999D01*
X135611008Y-93181745D01*
X135560472Y-93015149D01*
X135478405Y-92861613D01*
X135419500Y-92789837D01*
X135419500Y-92380000D01*
X141201928Y-92380000D01*
X141205000Y-93344250D01*
X141363750Y-93503000D01*
X142963000Y-93503000D01*
X142963000Y-91903750D01*
X143217000Y-91903750D01*
X143217000Y-93503000D01*
X144816250Y-93503000D01*
X144975000Y-93344250D01*
X144978072Y-92380000D01*
X144965812Y-92255518D01*
X144929502Y-92135820D01*
X144870537Y-92025506D01*
X144791185Y-91928815D01*
X144694494Y-91849463D01*
X144584180Y-91790498D01*
X144464482Y-91754188D01*
X144340000Y-91741928D01*
X143375750Y-91745000D01*
X143217000Y-91903750D01*
X142963000Y-91903750D01*
X142804250Y-91745000D01*
X141840000Y-91741928D01*
X141715518Y-91754188D01*
X141595820Y-91790498D01*
X141485506Y-91849463D01*
X141388815Y-91928815D01*
X141309463Y-92025506D01*
X141250498Y-92135820D01*
X141214188Y-92255518D01*
X141201928Y-92380000D01*
X135419500Y-92380000D01*
X135419500Y-91888400D01*
X136615821Y-90692080D01*
X136657015Y-90658273D01*
X136791914Y-90493898D01*
X136892153Y-90306364D01*
X136953880Y-90102877D01*
X136961797Y-90022498D01*
X136974723Y-89891259D01*
X136969500Y-89838230D01*
X136969500Y-89408439D01*
X137145000Y-89408439D01*
X137145000Y-89661561D01*
X137194381Y-89909821D01*
X137291247Y-90143676D01*
X137431875Y-90354140D01*
X137610860Y-90533125D01*
X137821324Y-90673753D01*
X138055179Y-90770619D01*
X138303439Y-90820000D01*
X138556561Y-90820000D01*
X138804821Y-90770619D01*
X139038676Y-90673753D01*
X139127354Y-90614500D01*
X140272646Y-90614500D01*
X140361324Y-90673753D01*
X140595179Y-90770619D01*
X140843439Y-90820000D01*
X141096561Y-90820000D01*
X141344821Y-90770619D01*
X141578676Y-90673753D01*
X141667354Y-90614500D01*
X149547858Y-90614500D01*
X152201928Y-93268571D01*
X152201928Y-94880000D01*
X152214188Y-95004482D01*
X152250498Y-95124180D01*
X152309463Y-95234494D01*
X152388815Y-95331185D01*
X152485506Y-95410537D01*
X152595820Y-95469502D01*
X152715518Y-95505812D01*
X152840000Y-95518072D01*
X153010501Y-95518072D01*
X153010501Y-95616961D01*
X153005277Y-95670000D01*
X153026120Y-95881618D01*
X153078399Y-96053957D01*
X153087848Y-96085106D01*
X153188087Y-96272640D01*
X153322986Y-96437015D01*
X153364180Y-96470822D01*
X156441388Y-99548030D01*
X156410498Y-99605820D01*
X156374188Y-99725518D01*
X156361928Y-99850000D01*
X156361928Y-103350000D01*
X156374188Y-103474482D01*
X156410498Y-103594180D01*
X156469463Y-103704494D01*
X156548815Y-103801185D01*
X156645506Y-103880537D01*
X156755820Y-103939502D01*
X156875518Y-103975812D01*
X157000000Y-103988072D01*
X157375285Y-103988072D01*
X156094970Y-105268388D01*
X155984852Y-105209528D01*
X155818256Y-105158992D01*
X155645002Y-105141928D01*
X154819998Y-105141928D01*
X154646744Y-105158992D01*
X154480148Y-105209528D01*
X154326613Y-105291595D01*
X154192038Y-105402038D01*
X154081595Y-105536613D01*
X153999528Y-105690148D01*
X153948992Y-105856744D01*
X153931928Y-106029998D01*
X153931928Y-107330002D01*
X153948992Y-107503256D01*
X153999528Y-107669852D01*
X154081595Y-107823387D01*
X154192038Y-107957962D01*
X154326613Y-108068405D01*
X154480148Y-108150472D01*
X154646744Y-108201008D01*
X154819998Y-108218072D01*
X155645002Y-108218072D01*
X155818256Y-108201008D01*
X155984852Y-108150472D01*
X156138387Y-108068405D01*
X156272962Y-107957962D01*
X156383405Y-107823387D01*
X156426732Y-107742329D01*
X156625106Y-107682153D01*
X156812640Y-107581914D01*
X156977015Y-107447015D01*
X157010827Y-107405815D01*
X159475821Y-104940822D01*
X159517015Y-104907015D01*
X159651914Y-104742640D01*
X159752153Y-104555106D01*
X159813880Y-104351619D01*
X159829500Y-104193029D01*
X159829500Y-104193022D01*
X159834722Y-104140001D01*
X159829500Y-104086979D01*
X159829500Y-103988072D01*
X160500000Y-103988072D01*
X160624482Y-103975812D01*
X160744180Y-103939502D01*
X160854494Y-103880537D01*
X160951185Y-103801185D01*
X161030537Y-103704494D01*
X161089502Y-103594180D01*
X161125812Y-103474482D01*
X161138072Y-103350000D01*
X162611928Y-103350000D01*
X162624188Y-103474482D01*
X162660498Y-103594180D01*
X162719463Y-103704494D01*
X162798815Y-103801185D01*
X162895506Y-103880537D01*
X163005820Y-103939502D01*
X163125518Y-103975812D01*
X163250000Y-103988072D01*
X164464250Y-103985000D01*
X164623000Y-103826250D01*
X164623000Y-101727000D01*
X164877000Y-101727000D01*
X164877000Y-103826250D01*
X165035750Y-103985000D01*
X166250000Y-103988072D01*
X166374482Y-103975812D01*
X166494180Y-103939502D01*
X166604494Y-103880537D01*
X166701185Y-103801185D01*
X166780537Y-103704494D01*
X166839502Y-103594180D01*
X166875812Y-103474482D01*
X166888072Y-103350000D01*
X166885000Y-101885750D01*
X166726250Y-101727000D01*
X164877000Y-101727000D01*
X164623000Y-101727000D01*
X162773750Y-101727000D01*
X162615000Y-101885750D01*
X162611928Y-103350000D01*
X161138072Y-103350000D01*
X161138072Y-99850000D01*
X162611928Y-99850000D01*
X162615000Y-101314250D01*
X162773750Y-101473000D01*
X164623000Y-101473000D01*
X164623000Y-99373750D01*
X164877000Y-99373750D01*
X164877000Y-101473000D01*
X166726250Y-101473000D01*
X166885000Y-101314250D01*
X166888072Y-99850000D01*
X166875812Y-99725518D01*
X166839502Y-99605820D01*
X166780537Y-99495506D01*
X166701185Y-99398815D01*
X166604494Y-99319463D01*
X166494180Y-99260498D01*
X166374482Y-99224188D01*
X166250000Y-99211928D01*
X165035750Y-99215000D01*
X164877000Y-99373750D01*
X164623000Y-99373750D01*
X164464250Y-99215000D01*
X163250000Y-99211928D01*
X163125518Y-99224188D01*
X163005820Y-99260498D01*
X162895506Y-99319463D01*
X162798815Y-99398815D01*
X162719463Y-99495506D01*
X162660498Y-99605820D01*
X162624188Y-99725518D01*
X162611928Y-99850000D01*
X161138072Y-99850000D01*
X161125812Y-99725518D01*
X161089502Y-99605820D01*
X161030537Y-99495506D01*
X160951185Y-99398815D01*
X160854494Y-99319463D01*
X160777869Y-99278506D01*
X160875000Y-99288072D01*
X162625000Y-99288072D01*
X162920186Y-99258999D01*
X163204028Y-99172896D01*
X163465618Y-99033073D01*
X163694903Y-98844903D01*
X163883073Y-98615618D01*
X164022896Y-98354028D01*
X164108999Y-98070186D01*
X164138072Y-97775000D01*
X164138072Y-96025000D01*
X164108999Y-95729814D01*
X164022896Y-95445972D01*
X163883073Y-95184382D01*
X163694903Y-94955097D01*
X163465618Y-94766927D01*
X163204028Y-94627104D01*
X162920186Y-94541001D01*
X162625000Y-94511928D01*
X160875000Y-94511928D01*
X160579814Y-94541001D01*
X160295972Y-94627104D01*
X160034382Y-94766927D01*
X159805097Y-94955097D01*
X159616927Y-95184382D01*
X159477104Y-95445972D01*
X159391001Y-95729814D01*
X159361928Y-96025000D01*
X159361928Y-97775000D01*
X159391001Y-98070186D01*
X159477104Y-98354028D01*
X159616927Y-98615618D01*
X159805097Y-98844903D01*
X160034382Y-99033073D01*
X160295972Y-99172896D01*
X160424643Y-99211928D01*
X159158571Y-99211928D01*
X155453533Y-95506890D01*
X155464482Y-95505812D01*
X155584180Y-95469502D01*
X155694494Y-95410537D01*
X155791185Y-95331185D01*
X155870537Y-95234494D01*
X155929502Y-95124180D01*
X155965812Y-95004482D01*
X155978072Y-94880000D01*
X155978072Y-92380000D01*
X155965812Y-92255518D01*
X155929502Y-92135820D01*
X155870537Y-92025506D01*
X155791185Y-91928815D01*
X155694494Y-91849463D01*
X155584180Y-91790498D01*
X155464482Y-91754188D01*
X155340000Y-91741928D01*
X153728571Y-91741928D01*
X150795827Y-88809185D01*
X150762015Y-88767985D01*
X150597640Y-88633086D01*
X150410106Y-88532847D01*
X150206619Y-88471120D01*
X150048029Y-88455500D01*
X149995000Y-88450277D01*
X149941971Y-88455500D01*
X141667354Y-88455500D01*
X141578676Y-88396247D01*
X141344821Y-88299381D01*
X141096561Y-88250000D01*
X140843439Y-88250000D01*
X140595179Y-88299381D01*
X140361324Y-88396247D01*
X140272646Y-88455500D01*
X139127354Y-88455500D01*
X139038676Y-88396247D01*
X138804821Y-88299381D01*
X138556561Y-88250000D01*
X138303439Y-88250000D01*
X138055179Y-88299381D01*
X137821324Y-88396247D01*
X137610860Y-88536875D01*
X137431875Y-88715860D01*
X137291247Y-88926324D01*
X137194381Y-89160179D01*
X137145000Y-89408439D01*
X136969500Y-89408439D01*
X136969500Y-88077142D01*
X137960818Y-87085825D01*
X137960822Y-87085820D01*
X140718321Y-84328322D01*
X140759515Y-84294515D01*
X140894414Y-84130140D01*
X140994653Y-83942606D01*
X141056380Y-83739119D01*
X141072000Y-83580529D01*
X141072000Y-83580528D01*
X141077223Y-83527500D01*
X141072000Y-83474471D01*
X141072000Y-82510394D01*
X141143405Y-82423387D01*
X141177554Y-82359500D01*
X141201928Y-82359500D01*
X141201928Y-82880000D01*
X141214188Y-83004482D01*
X141250498Y-83124180D01*
X141309463Y-83234494D01*
X141388815Y-83331185D01*
X141485506Y-83410537D01*
X141595820Y-83469502D01*
X141715518Y-83505812D01*
X141840000Y-83518072D01*
X144340000Y-83518072D01*
X144464482Y-83505812D01*
X144584180Y-83469502D01*
X144694494Y-83410537D01*
X144791185Y-83331185D01*
X144870537Y-83234494D01*
X144929502Y-83124180D01*
X144965812Y-83004482D01*
X144978072Y-82880000D01*
X144978072Y-82709500D01*
X148492858Y-82709500D01*
X152944175Y-87160818D01*
X152944180Y-87160822D01*
X156400500Y-90617144D01*
X156400501Y-94033029D01*
X156416121Y-94191619D01*
X156477848Y-94395106D01*
X156578087Y-94582640D01*
X156712986Y-94747015D01*
X156877361Y-94881914D01*
X157064895Y-94982153D01*
X157268382Y-95043880D01*
X157480000Y-95064723D01*
X157691619Y-95043880D01*
X157895106Y-94982153D01*
X158082640Y-94881914D01*
X158247015Y-94747015D01*
X158381914Y-94582640D01*
X158482153Y-94395106D01*
X158543880Y-94191619D01*
X158559500Y-94033029D01*
X158559500Y-91500000D01*
X159776928Y-91500000D01*
X159789188Y-91624482D01*
X159825498Y-91744180D01*
X159884463Y-91854494D01*
X159963815Y-91951185D01*
X160060506Y-92030537D01*
X160170820Y-92089502D01*
X160290518Y-92125812D01*
X160415000Y-92138072D01*
X161004250Y-92135000D01*
X161163000Y-91976250D01*
X161163000Y-91027000D01*
X161417000Y-91027000D01*
X161417000Y-91976250D01*
X161575750Y-92135000D01*
X162165000Y-92138072D01*
X162289482Y-92125812D01*
X162409180Y-92089502D01*
X162519494Y-92030537D01*
X162616185Y-91951185D01*
X162695537Y-91854494D01*
X162754502Y-91744180D01*
X162790812Y-91624482D01*
X162803072Y-91500000D01*
X162800000Y-91185750D01*
X162641250Y-91027000D01*
X161417000Y-91027000D01*
X161163000Y-91027000D01*
X159938750Y-91027000D01*
X159780000Y-91185750D01*
X159776928Y-91500000D01*
X158559500Y-91500000D01*
X158559500Y-90223029D01*
X158564723Y-90170000D01*
X158543880Y-89958381D01*
X158535827Y-89931833D01*
X158482153Y-89754894D01*
X158381914Y-89567360D01*
X158328791Y-89502629D01*
X158280819Y-89444175D01*
X158280818Y-89444174D01*
X158247015Y-89402985D01*
X158205826Y-89369182D01*
X154470822Y-85634180D01*
X154470818Y-85634175D01*
X153736643Y-84900000D01*
X159774025Y-84900000D01*
X159797870Y-85142102D01*
X159868489Y-85374901D01*
X159983167Y-85589449D01*
X160137498Y-85777502D01*
X160286762Y-85900000D01*
X160137498Y-86022498D01*
X159983167Y-86210551D01*
X159868489Y-86425099D01*
X159797870Y-86657898D01*
X159774025Y-86900000D01*
X159797870Y-87142102D01*
X159868489Y-87374901D01*
X159983167Y-87589449D01*
X160137498Y-87777502D01*
X160286762Y-87900000D01*
X160137498Y-88022498D01*
X159983167Y-88210551D01*
X159868489Y-88425099D01*
X159797870Y-88657898D01*
X159774025Y-88900000D01*
X159797870Y-89142102D01*
X159868489Y-89374901D01*
X159983167Y-89589449D01*
X160109436Y-89743309D01*
X160060506Y-89769463D01*
X159963815Y-89848815D01*
X159884463Y-89945506D01*
X159825498Y-90055820D01*
X159789188Y-90175518D01*
X159776928Y-90300000D01*
X159780000Y-90614250D01*
X159938750Y-90773000D01*
X161163000Y-90773000D01*
X161163000Y-90753000D01*
X161417000Y-90753000D01*
X161417000Y-90773000D01*
X162641250Y-90773000D01*
X162800000Y-90614250D01*
X162803072Y-90300000D01*
X162790812Y-90175518D01*
X162754502Y-90055820D01*
X162695537Y-89945506D01*
X162616185Y-89848815D01*
X162519494Y-89769463D01*
X162470564Y-89743309D01*
X162596833Y-89589449D01*
X162711511Y-89374901D01*
X162782130Y-89142102D01*
X162805975Y-88900000D01*
X162782130Y-88657898D01*
X162711511Y-88425099D01*
X162596833Y-88210551D01*
X162442502Y-88022498D01*
X162293238Y-87900000D01*
X162442502Y-87777502D01*
X162596833Y-87589449D01*
X162711511Y-87374901D01*
X162782130Y-87142102D01*
X162805975Y-86900000D01*
X162782130Y-86657898D01*
X162711511Y-86425099D01*
X162596833Y-86210551D01*
X162442502Y-86022498D01*
X162293238Y-85900000D01*
X162442502Y-85777502D01*
X162596833Y-85589449D01*
X162711511Y-85374901D01*
X162782130Y-85142102D01*
X162805975Y-84900000D01*
X162782130Y-84657898D01*
X162711511Y-84425099D01*
X162596833Y-84210551D01*
X162442502Y-84022498D01*
X162254449Y-83868167D01*
X162039901Y-83753489D01*
X161807102Y-83682870D01*
X161625665Y-83665000D01*
X160954335Y-83665000D01*
X160772898Y-83682870D01*
X160540099Y-83753489D01*
X160325551Y-83868167D01*
X160137498Y-84022498D01*
X159983167Y-84210551D01*
X159868489Y-84425099D01*
X159797870Y-84657898D01*
X159774025Y-84900000D01*
X153736643Y-84900000D01*
X149740827Y-80904185D01*
X149707015Y-80862985D01*
X149542640Y-80728086D01*
X149355106Y-80627847D01*
X149151619Y-80566120D01*
X148993029Y-80550500D01*
X148940000Y-80545277D01*
X148886971Y-80550500D01*
X144978072Y-80550500D01*
X144978072Y-80380000D01*
X152201928Y-80380000D01*
X152201928Y-82880000D01*
X152214188Y-83004482D01*
X152250498Y-83124180D01*
X152309463Y-83234494D01*
X152388815Y-83331185D01*
X152485506Y-83410537D01*
X152595820Y-83469502D01*
X152715518Y-83505812D01*
X152840000Y-83518072D01*
X155340000Y-83518072D01*
X155464482Y-83505812D01*
X155584180Y-83469502D01*
X155694494Y-83410537D01*
X155791185Y-83331185D01*
X155870537Y-83234494D01*
X155929502Y-83124180D01*
X155965812Y-83004482D01*
X155978072Y-82880000D01*
X155978072Y-80380000D01*
X155965812Y-80255518D01*
X155929502Y-80135820D01*
X155870537Y-80025506D01*
X155791185Y-79928815D01*
X155694494Y-79849463D01*
X155584180Y-79790498D01*
X155464482Y-79754188D01*
X155340000Y-79741928D01*
X152840000Y-79741928D01*
X152715518Y-79754188D01*
X152595820Y-79790498D01*
X152485506Y-79849463D01*
X152388815Y-79928815D01*
X152309463Y-80025506D01*
X152250498Y-80135820D01*
X152214188Y-80255518D01*
X152201928Y-80380000D01*
X144978072Y-80380000D01*
X144965812Y-80255518D01*
X144929502Y-80135820D01*
X144870537Y-80025506D01*
X144791185Y-79928815D01*
X144694494Y-79849463D01*
X144584180Y-79790498D01*
X144464482Y-79754188D01*
X144340000Y-79741928D01*
X141840000Y-79741928D01*
X141715518Y-79754188D01*
X141595820Y-79790498D01*
X141485506Y-79849463D01*
X141388815Y-79928815D01*
X141309463Y-80025506D01*
X141250498Y-80135820D01*
X141230878Y-80200500D01*
X141177554Y-80200500D01*
X141143405Y-80136613D01*
X141032962Y-80002038D01*
X140898387Y-79891595D01*
X140744852Y-79809528D01*
X140578256Y-79758992D01*
X140405002Y-79741928D01*
X139579998Y-79741928D01*
X139406744Y-79758992D01*
X139240148Y-79809528D01*
X139086613Y-79891595D01*
X138952038Y-80002038D01*
X138841595Y-80136613D01*
X138759528Y-80290148D01*
X138708992Y-80456744D01*
X138691928Y-80629998D01*
X138691928Y-81930002D01*
X138708992Y-82103256D01*
X138759528Y-82269852D01*
X138841595Y-82423387D01*
X138913000Y-82510395D01*
X138913000Y-83080357D01*
X136434180Y-85559178D01*
X136434175Y-85559182D01*
X135164180Y-86829178D01*
X135122986Y-86862985D01*
X134988087Y-87027360D01*
X134928017Y-87139744D01*
X134887847Y-87214896D01*
X134826120Y-87418382D01*
X134805277Y-87630000D01*
X134810501Y-87683039D01*
X134810500Y-89444115D01*
X134635000Y-89619615D01*
X134635000Y-89408439D01*
X134585619Y-89160179D01*
X134488753Y-88926324D01*
X134348125Y-88715860D01*
X134169140Y-88536875D01*
X133958676Y-88396247D01*
X133724821Y-88299381D01*
X133476561Y-88250000D01*
X133223439Y-88250000D01*
X132975179Y-88299381D01*
X132741324Y-88396247D01*
X132530860Y-88536875D01*
X132351875Y-88715860D01*
X132211247Y-88926324D01*
X132114381Y-89160179D01*
X132093574Y-89264783D01*
X131354180Y-90004178D01*
X131312986Y-90037985D01*
X131178087Y-90202360D01*
X131122496Y-90306364D01*
X131077847Y-90389896D01*
X131016120Y-90593382D01*
X130995277Y-90805000D01*
X131000501Y-90858039D01*
X131000500Y-102700810D01*
X130961614Y-102721595D01*
X130827038Y-102832038D01*
X130716595Y-102966614D01*
X130634528Y-103120150D01*
X130583992Y-103286746D01*
X130566928Y-103460000D01*
X129783072Y-103460000D01*
X129766008Y-103286746D01*
X129715472Y-103120150D01*
X129633405Y-102966614D01*
X129522962Y-102832038D01*
X129388386Y-102721595D01*
X129349500Y-102700810D01*
X129349500Y-97843109D01*
X129354723Y-97790080D01*
X129333880Y-97578462D01*
X129329491Y-97563992D01*
X129272153Y-97374974D01*
X129171914Y-97187440D01*
X129037015Y-97023065D01*
X128995815Y-96989253D01*
X128995784Y-96989222D01*
X128872599Y-96888127D01*
X128685064Y-96787887D01*
X128481578Y-96726160D01*
X128269960Y-96705317D01*
X128058342Y-96726160D01*
X127854856Y-96787887D01*
X127667321Y-96888127D01*
X127502946Y-97023026D01*
X127368047Y-97187401D01*
X127267807Y-97374936D01*
X127206080Y-97578422D01*
X127185237Y-97790040D01*
X127190501Y-97843485D01*
X127190500Y-102700810D01*
X127151614Y-102721595D01*
X127017038Y-102832038D01*
X126906595Y-102966614D01*
X126824528Y-103120150D01*
X126773992Y-103286746D01*
X126756928Y-103460000D01*
X120316642Y-103460000D01*
X122645821Y-101130822D01*
X122687015Y-101097015D01*
X122821914Y-100932640D01*
X122922153Y-100745106D01*
X122983880Y-100541619D01*
X122999500Y-100383029D01*
X122999500Y-100383022D01*
X123004722Y-100330001D01*
X122999500Y-100276979D01*
X122999500Y-88953021D01*
X123004722Y-88899999D01*
X122999500Y-88846978D01*
X122999500Y-88846971D01*
X122983880Y-88688381D01*
X122922153Y-88484894D01*
X122821914Y-88297360D01*
X122687015Y-88132985D01*
X122645821Y-88099178D01*
X117055000Y-82508358D01*
X117055000Y-82403740D01*
X116997932Y-82116842D01*
X116885990Y-81846589D01*
X116723475Y-81603368D01*
X116516632Y-81396525D01*
X116273411Y-81234010D01*
X116003158Y-81122068D01*
X115716260Y-81065000D01*
X115423740Y-81065000D01*
X115136842Y-81122068D01*
X114866589Y-81234010D01*
X114623368Y-81396525D01*
X114491513Y-81528380D01*
X114469502Y-81455820D01*
X114410537Y-81345506D01*
X114331185Y-81248815D01*
X114234494Y-81169463D01*
X114124180Y-81110498D01*
X114004482Y-81074188D01*
X113880000Y-81061928D01*
X112180000Y-81061928D01*
X112055518Y-81074188D01*
X111935820Y-81110498D01*
X111825506Y-81169463D01*
X111728815Y-81248815D01*
X111649463Y-81345506D01*
X111590498Y-81455820D01*
X111554188Y-81575518D01*
X111541928Y-81700000D01*
X111541928Y-82298980D01*
X111492153Y-82134894D01*
X111391914Y-81947360D01*
X111257015Y-81782985D01*
X111215821Y-81749178D01*
X108891642Y-79425000D01*
X121150211Y-79425000D01*
X120733150Y-79554102D01*
X120675896Y-79578170D01*
X120618352Y-79601419D01*
X120609907Y-79605909D01*
X120173847Y-79841686D01*
X120122384Y-79876398D01*
X120070427Y-79910398D01*
X120063015Y-79916443D01*
X119681055Y-80232427D01*
X119637308Y-80276481D01*
X119592950Y-80319919D01*
X119586853Y-80327289D01*
X119273543Y-80711445D01*
X119239192Y-80763148D01*
X119204110Y-80814384D01*
X119199561Y-80822797D01*
X118966834Y-81260493D01*
X118943171Y-81317903D01*
X118918718Y-81374958D01*
X118915889Y-81384094D01*
X118772610Y-81858659D01*
X118760548Y-81919577D01*
X118747643Y-81980289D01*
X118746643Y-81989800D01*
X118698269Y-82483156D01*
X118698269Y-82513086D01*
X118695038Y-82542831D01*
X118695004Y-82552395D01*
X118695066Y-82570127D01*
X118698090Y-82599896D01*
X118697881Y-82629815D01*
X118698814Y-82639334D01*
X118750632Y-83132340D01*
X118763109Y-83193121D01*
X118774749Y-83254142D01*
X118777513Y-83263298D01*
X118924103Y-83736851D01*
X118948167Y-83794097D01*
X118971419Y-83851648D01*
X118975907Y-83860089D01*
X118975909Y-83860094D01*
X118975912Y-83860098D01*
X119211686Y-84296153D01*
X119246398Y-84347616D01*
X119280398Y-84399573D01*
X119286443Y-84406985D01*
X119602427Y-84788945D01*
X119646500Y-84832712D01*
X119689920Y-84877050D01*
X119697289Y-84883147D01*
X120081445Y-85196457D01*
X120133148Y-85230808D01*
X120184384Y-85265890D01*
X120192797Y-85270439D01*
X120630493Y-85503166D01*
X120687882Y-85526820D01*
X120744958Y-85551283D01*
X120754095Y-85554111D01*
X121228659Y-85697390D01*
X121289577Y-85709452D01*
X121350289Y-85722357D01*
X121359801Y-85723357D01*
X121853156Y-85771731D01*
X121853163Y-85771731D01*
X121886353Y-85775000D01*
X132113647Y-85775000D01*
X132144018Y-85772009D01*
X132159815Y-85772119D01*
X132169334Y-85771186D01*
X132662340Y-85719368D01*
X132723121Y-85706891D01*
X132784142Y-85695251D01*
X132793298Y-85692487D01*
X133266851Y-85545897D01*
X133324097Y-85521833D01*
X133381648Y-85498581D01*
X133390089Y-85494093D01*
X133390094Y-85494091D01*
X133390098Y-85494088D01*
X133826153Y-85258314D01*
X133877616Y-85223602D01*
X133929573Y-85189602D01*
X133936985Y-85183557D01*
X134318945Y-84867573D01*
X134362712Y-84823500D01*
X134407050Y-84780080D01*
X134413147Y-84772711D01*
X134726457Y-84388555D01*
X134760808Y-84336852D01*
X134795890Y-84285616D01*
X134800439Y-84277203D01*
X135033166Y-83839507D01*
X135056820Y-83782118D01*
X135081283Y-83725042D01*
X135084111Y-83715905D01*
X135227390Y-83241341D01*
X135239452Y-83180423D01*
X135252357Y-83119711D01*
X135253357Y-83110199D01*
X135301731Y-82616844D01*
X135301731Y-82586914D01*
X135304962Y-82557169D01*
X135304996Y-82547605D01*
X135304934Y-82529873D01*
X135301910Y-82500104D01*
X135302119Y-82470185D01*
X135301186Y-82460666D01*
X135271687Y-82180000D01*
X135566928Y-82180000D01*
X135579188Y-82304482D01*
X135615498Y-82424180D01*
X135674463Y-82534494D01*
X135753815Y-82631185D01*
X135850506Y-82710537D01*
X135960820Y-82769502D01*
X136080518Y-82805812D01*
X136205000Y-82818072D01*
X136581750Y-82815000D01*
X136740500Y-82656250D01*
X136740500Y-81407000D01*
X136994500Y-81407000D01*
X136994500Y-82656250D01*
X137153250Y-82815000D01*
X137530000Y-82818072D01*
X137654482Y-82805812D01*
X137774180Y-82769502D01*
X137884494Y-82710537D01*
X137981185Y-82631185D01*
X138060537Y-82534494D01*
X138119502Y-82424180D01*
X138155812Y-82304482D01*
X138168072Y-82180000D01*
X138165000Y-81565750D01*
X138006250Y-81407000D01*
X136994500Y-81407000D01*
X136740500Y-81407000D01*
X135728750Y-81407000D01*
X135570000Y-81565750D01*
X135566928Y-82180000D01*
X135271687Y-82180000D01*
X135249369Y-81967660D01*
X135236886Y-81906849D01*
X135225251Y-81845858D01*
X135222487Y-81836702D01*
X135075898Y-81363150D01*
X135051830Y-81305896D01*
X135028581Y-81248352D01*
X135024091Y-81239907D01*
X134788314Y-80803847D01*
X134753602Y-80752384D01*
X134719602Y-80700427D01*
X134713557Y-80693015D01*
X134454610Y-80380000D01*
X135566928Y-80380000D01*
X135570000Y-80994250D01*
X135728750Y-81153000D01*
X136740500Y-81153000D01*
X136740500Y-79903750D01*
X136994500Y-79903750D01*
X136994500Y-81153000D01*
X138006250Y-81153000D01*
X138165000Y-80994250D01*
X138168072Y-80380000D01*
X138155812Y-80255518D01*
X138119502Y-80135820D01*
X138060537Y-80025506D01*
X137981185Y-79928815D01*
X137884494Y-79849463D01*
X137774180Y-79790498D01*
X137654482Y-79754188D01*
X137530000Y-79741928D01*
X137153250Y-79745000D01*
X136994500Y-79903750D01*
X136740500Y-79903750D01*
X136581750Y-79745000D01*
X136205000Y-79741928D01*
X136080518Y-79754188D01*
X135960820Y-79790498D01*
X135850506Y-79849463D01*
X135753815Y-79928815D01*
X135674463Y-80025506D01*
X135615498Y-80135820D01*
X135579188Y-80255518D01*
X135566928Y-80380000D01*
X134454610Y-80380000D01*
X134397573Y-80311055D01*
X134353519Y-80267308D01*
X134310081Y-80222950D01*
X134302711Y-80216853D01*
X133918555Y-79903543D01*
X133866852Y-79869192D01*
X133815616Y-79834110D01*
X133807203Y-79829561D01*
X133369507Y-79596834D01*
X133312097Y-79573171D01*
X133255042Y-79548718D01*
X133245906Y-79545889D01*
X132845501Y-79425000D01*
X165066496Y-79425000D01*
X165459668Y-79463551D01*
X165805634Y-79568004D01*
X166124724Y-79737667D01*
X166404781Y-79966076D01*
X166635141Y-80244534D01*
X166807027Y-80562430D01*
X166913893Y-80907658D01*
X166955001Y-81298763D01*
X166955000Y-106646495D01*
X166916449Y-107039667D01*
X166811996Y-107385635D01*
X166642333Y-107704724D01*
X166413924Y-107984781D01*
X166135466Y-108215141D01*
X165817570Y-108387027D01*
X165472340Y-108493894D01*
X165081238Y-108535000D01*
X93774926Y-108535000D01*
X93965618Y-108433073D01*
X94194903Y-108244903D01*
X94383073Y-108015618D01*
X94522896Y-107754028D01*
X94566586Y-107610000D01*
X126756928Y-107610000D01*
X126769188Y-107734482D01*
X126805498Y-107854180D01*
X126864463Y-107964494D01*
X126943815Y-108061185D01*
X127040506Y-108140537D01*
X127150820Y-108199502D01*
X127270518Y-108235812D01*
X127395000Y-108248072D01*
X127984250Y-108245000D01*
X128143000Y-108086250D01*
X128143000Y-107087000D01*
X128397000Y-107087000D01*
X128397000Y-108086250D01*
X128555750Y-108245000D01*
X129145000Y-108248072D01*
X129269482Y-108235812D01*
X129389180Y-108199502D01*
X129499494Y-108140537D01*
X129596185Y-108061185D01*
X129675537Y-107964494D01*
X129734502Y-107854180D01*
X129770812Y-107734482D01*
X129783072Y-107610000D01*
X130566928Y-107610000D01*
X130579188Y-107734482D01*
X130615498Y-107854180D01*
X130674463Y-107964494D01*
X130753815Y-108061185D01*
X130850506Y-108140537D01*
X130960820Y-108199502D01*
X131080518Y-108235812D01*
X131205000Y-108248072D01*
X131794250Y-108245000D01*
X131953000Y-108086250D01*
X131953000Y-107087000D01*
X132207000Y-107087000D01*
X132207000Y-108086250D01*
X132365750Y-108245000D01*
X132955000Y-108248072D01*
X133079482Y-108235812D01*
X133199180Y-108199502D01*
X133309494Y-108140537D01*
X133406185Y-108061185D01*
X133485537Y-107964494D01*
X133544502Y-107854180D01*
X133580812Y-107734482D01*
X133593072Y-107610000D01*
X133592398Y-107530000D01*
X144561928Y-107530000D01*
X144574188Y-107654482D01*
X144610498Y-107774180D01*
X144669463Y-107884494D01*
X144748815Y-107981185D01*
X144845506Y-108060537D01*
X144955820Y-108119502D01*
X145075518Y-108155812D01*
X145200000Y-108168072D01*
X145764250Y-108165000D01*
X145923000Y-108006250D01*
X145923000Y-106807000D01*
X146177000Y-106807000D01*
X146177000Y-108006250D01*
X146335750Y-108165000D01*
X146900000Y-108168072D01*
X147024482Y-108155812D01*
X147144180Y-108119502D01*
X147254494Y-108060537D01*
X147351185Y-107981185D01*
X147430537Y-107884494D01*
X147489502Y-107774180D01*
X147525812Y-107654482D01*
X147533147Y-107580000D01*
X150806928Y-107580000D01*
X150819188Y-107704482D01*
X150855498Y-107824180D01*
X150914463Y-107934494D01*
X150993815Y-108031185D01*
X151090506Y-108110537D01*
X151200820Y-108169502D01*
X151320518Y-108205812D01*
X151445000Y-108218072D01*
X151821750Y-108215000D01*
X151980500Y-108056250D01*
X151980500Y-106807000D01*
X152234500Y-106807000D01*
X152234500Y-108056250D01*
X152393250Y-108215000D01*
X152770000Y-108218072D01*
X152894482Y-108205812D01*
X153014180Y-108169502D01*
X153124494Y-108110537D01*
X153221185Y-108031185D01*
X153300537Y-107934494D01*
X153359502Y-107824180D01*
X153395812Y-107704482D01*
X153408072Y-107580000D01*
X153405000Y-106965750D01*
X153246250Y-106807000D01*
X152234500Y-106807000D01*
X151980500Y-106807000D01*
X150968750Y-106807000D01*
X150810000Y-106965750D01*
X150806928Y-107580000D01*
X147533147Y-107580000D01*
X147538072Y-107530000D01*
X147535000Y-106965750D01*
X147376250Y-106807000D01*
X146177000Y-106807000D01*
X145923000Y-106807000D01*
X144723750Y-106807000D01*
X144565000Y-106965750D01*
X144561928Y-107530000D01*
X133592398Y-107530000D01*
X133590000Y-107245750D01*
X133431250Y-107087000D01*
X132207000Y-107087000D01*
X131953000Y-107087000D01*
X130728750Y-107087000D01*
X130570000Y-107245750D01*
X130566928Y-107610000D01*
X129783072Y-107610000D01*
X129780000Y-107245750D01*
X129621250Y-107087000D01*
X128397000Y-107087000D01*
X128143000Y-107087000D01*
X126918750Y-107087000D01*
X126760000Y-107245750D01*
X126756928Y-107610000D01*
X94566586Y-107610000D01*
X94608999Y-107470186D01*
X94638072Y-107175000D01*
X94638072Y-106310000D01*
X126756928Y-106310000D01*
X126760000Y-106674250D01*
X126918750Y-106833000D01*
X128143000Y-106833000D01*
X128143000Y-105833750D01*
X128397000Y-105833750D01*
X128397000Y-106833000D01*
X129621250Y-106833000D01*
X129780000Y-106674250D01*
X129783072Y-106310000D01*
X130566928Y-106310000D01*
X130570000Y-106674250D01*
X130728750Y-106833000D01*
X131953000Y-106833000D01*
X131953000Y-105833750D01*
X132207000Y-105833750D01*
X132207000Y-106833000D01*
X133431250Y-106833000D01*
X133590000Y-106674250D01*
X133593072Y-106310000D01*
X133580812Y-106185518D01*
X133544502Y-106065820D01*
X133485537Y-105955506D01*
X133406185Y-105858815D01*
X133309494Y-105779463D01*
X133199180Y-105720498D01*
X133079482Y-105684188D01*
X132955000Y-105671928D01*
X132365750Y-105675000D01*
X132207000Y-105833750D01*
X131953000Y-105833750D01*
X131794250Y-105675000D01*
X131205000Y-105671928D01*
X131080518Y-105684188D01*
X130960820Y-105720498D01*
X130850506Y-105779463D01*
X130753815Y-105858815D01*
X130674463Y-105955506D01*
X130615498Y-106065820D01*
X130579188Y-106185518D01*
X130566928Y-106310000D01*
X129783072Y-106310000D01*
X129770812Y-106185518D01*
X129734502Y-106065820D01*
X129675537Y-105955506D01*
X129596185Y-105858815D01*
X129499494Y-105779463D01*
X129389180Y-105720498D01*
X129269482Y-105684188D01*
X129145000Y-105671928D01*
X128555750Y-105675000D01*
X128397000Y-105833750D01*
X128143000Y-105833750D01*
X127984250Y-105675000D01*
X127395000Y-105671928D01*
X127270518Y-105684188D01*
X127150820Y-105720498D01*
X127040506Y-105779463D01*
X126943815Y-105858815D01*
X126864463Y-105955506D01*
X126805498Y-106065820D01*
X126769188Y-106185518D01*
X126756928Y-106310000D01*
X94638072Y-106310000D01*
X94638072Y-105425000D01*
X94608999Y-105129814D01*
X94522896Y-104845972D01*
X94383073Y-104584382D01*
X94194903Y-104355097D01*
X93965618Y-104166927D01*
X93704028Y-104027104D01*
X93575357Y-103988072D01*
X97000000Y-103988072D01*
X97124482Y-103975812D01*
X97244180Y-103939502D01*
X97354494Y-103880537D01*
X97451185Y-103801185D01*
X97530537Y-103704494D01*
X97589502Y-103594180D01*
X97625812Y-103474482D01*
X97638072Y-103350000D01*
X97638072Y-101355249D01*
X99115000Y-101355249D01*
X99115000Y-101844751D01*
X99210497Y-102324848D01*
X99397821Y-102777089D01*
X99669774Y-103184095D01*
X100015905Y-103530226D01*
X100422911Y-103802179D01*
X100875152Y-103989503D01*
X101355249Y-104085000D01*
X101844751Y-104085000D01*
X102324848Y-103989503D01*
X102777089Y-103802179D01*
X103184095Y-103530226D01*
X103530226Y-103184095D01*
X103802179Y-102777089D01*
X103989503Y-102324848D01*
X104085000Y-101844751D01*
X104085000Y-101355249D01*
X103989503Y-100875152D01*
X103802179Y-100422911D01*
X103530226Y-100015905D01*
X103449321Y-99935000D01*
X115446928Y-99935000D01*
X115459188Y-100059482D01*
X115495498Y-100179180D01*
X115554463Y-100289494D01*
X115633815Y-100386185D01*
X115730506Y-100465537D01*
X115840820Y-100524502D01*
X115960518Y-100560812D01*
X116085000Y-100573072D01*
X116424250Y-100570000D01*
X116583000Y-100411250D01*
X116583000Y-99187000D01*
X116837000Y-99187000D01*
X116837000Y-100411250D01*
X116995750Y-100570000D01*
X117335000Y-100573072D01*
X117459482Y-100560812D01*
X117579180Y-100524502D01*
X117689494Y-100465537D01*
X117786185Y-100386185D01*
X117865537Y-100289494D01*
X117924502Y-100179180D01*
X117960812Y-100059482D01*
X117973072Y-99935000D01*
X117970000Y-99345750D01*
X117811250Y-99187000D01*
X116837000Y-99187000D01*
X116583000Y-99187000D01*
X115608750Y-99187000D01*
X115450000Y-99345750D01*
X115446928Y-99935000D01*
X103449321Y-99935000D01*
X103184095Y-99669774D01*
X102777089Y-99397821D01*
X102324848Y-99210497D01*
X101844751Y-99115000D01*
X101355249Y-99115000D01*
X100875152Y-99210497D01*
X100422911Y-99397821D01*
X100015905Y-99669774D01*
X99669774Y-100015905D01*
X99397821Y-100422911D01*
X99210497Y-100875152D01*
X99115000Y-101355249D01*
X97638072Y-101355249D01*
X97638072Y-99850000D01*
X97625812Y-99725518D01*
X97589502Y-99605820D01*
X97530537Y-99495506D01*
X97451185Y-99398815D01*
X97354494Y-99319463D01*
X97244180Y-99260498D01*
X97124482Y-99224188D01*
X97000000Y-99211928D01*
X93500000Y-99211928D01*
X93375518Y-99224188D01*
X93255820Y-99260498D01*
X93145506Y-99319463D01*
X93048815Y-99398815D01*
X92969463Y-99495506D01*
X92910498Y-99605820D01*
X92874188Y-99725518D01*
X92861928Y-99850000D01*
X92861928Y-103350000D01*
X92874188Y-103474482D01*
X92910498Y-103594180D01*
X92969463Y-103704494D01*
X93048815Y-103801185D01*
X93145506Y-103880537D01*
X93222131Y-103921494D01*
X93125000Y-103911928D01*
X91375000Y-103911928D01*
X91079814Y-103941001D01*
X90795972Y-104027104D01*
X90534382Y-104166927D01*
X90305097Y-104355097D01*
X90116927Y-104584382D01*
X89977104Y-104845972D01*
X89891001Y-105129814D01*
X89861928Y-105425000D01*
X89861928Y-107175000D01*
X89891001Y-107470186D01*
X89977104Y-107754028D01*
X90116927Y-108015618D01*
X90305097Y-108244903D01*
X90534382Y-108433073D01*
X90725074Y-108535000D01*
X88933505Y-108535000D01*
X88540333Y-108496449D01*
X88194365Y-108391996D01*
X87875276Y-108222333D01*
X87595219Y-107993924D01*
X87364859Y-107715466D01*
X87192973Y-107397570D01*
X87086106Y-107052340D01*
X87045000Y-106661238D01*
X87045000Y-103350000D01*
X87111928Y-103350000D01*
X87124188Y-103474482D01*
X87160498Y-103594180D01*
X87219463Y-103704494D01*
X87298815Y-103801185D01*
X87395506Y-103880537D01*
X87505820Y-103939502D01*
X87625518Y-103975812D01*
X87750000Y-103988072D01*
X88964250Y-103985000D01*
X89123000Y-103826250D01*
X89123000Y-101727000D01*
X89377000Y-101727000D01*
X89377000Y-103826250D01*
X89535750Y-103985000D01*
X90750000Y-103988072D01*
X90874482Y-103975812D01*
X90994180Y-103939502D01*
X91104494Y-103880537D01*
X91201185Y-103801185D01*
X91280537Y-103704494D01*
X91339502Y-103594180D01*
X91375812Y-103474482D01*
X91388072Y-103350000D01*
X91385000Y-101885750D01*
X91226250Y-101727000D01*
X89377000Y-101727000D01*
X89123000Y-101727000D01*
X87273750Y-101727000D01*
X87115000Y-101885750D01*
X87111928Y-103350000D01*
X87045000Y-103350000D01*
X87045000Y-99850000D01*
X87111928Y-99850000D01*
X87115000Y-101314250D01*
X87273750Y-101473000D01*
X89123000Y-101473000D01*
X89123000Y-99373750D01*
X89377000Y-99373750D01*
X89377000Y-101473000D01*
X91226250Y-101473000D01*
X91385000Y-101314250D01*
X91388072Y-99850000D01*
X91375812Y-99725518D01*
X91339502Y-99605820D01*
X91280537Y-99495506D01*
X91201185Y-99398815D01*
X91104494Y-99319463D01*
X90994180Y-99260498D01*
X90874482Y-99224188D01*
X90750000Y-99211928D01*
X89535750Y-99215000D01*
X89377000Y-99373750D01*
X89123000Y-99373750D01*
X88964250Y-99215000D01*
X87750000Y-99211928D01*
X87625518Y-99224188D01*
X87505820Y-99260498D01*
X87395506Y-99319463D01*
X87298815Y-99398815D01*
X87219463Y-99495506D01*
X87160498Y-99605820D01*
X87124188Y-99725518D01*
X87111928Y-99850000D01*
X87045000Y-99850000D01*
X87045000Y-86900000D01*
X91194025Y-86900000D01*
X91217870Y-87142102D01*
X91288489Y-87374901D01*
X91403167Y-87589449D01*
X91557498Y-87777502D01*
X91706762Y-87900000D01*
X91557498Y-88022498D01*
X91403167Y-88210551D01*
X91288489Y-88425099D01*
X91217870Y-88657898D01*
X91194025Y-88900000D01*
X91217870Y-89142102D01*
X91288489Y-89374901D01*
X91403167Y-89589449D01*
X91557498Y-89777502D01*
X91706762Y-89900000D01*
X91557498Y-90022498D01*
X91403167Y-90210551D01*
X91288489Y-90425099D01*
X91217870Y-90657898D01*
X91194025Y-90900000D01*
X91217870Y-91142102D01*
X91288489Y-91374901D01*
X91403167Y-91589449D01*
X91557498Y-91777502D01*
X91745551Y-91931833D01*
X91960099Y-92046511D01*
X92192898Y-92117130D01*
X92374335Y-92135000D01*
X93045665Y-92135000D01*
X93227102Y-92117130D01*
X93459901Y-92046511D01*
X93674449Y-91931833D01*
X93862502Y-91777502D01*
X94016833Y-91589449D01*
X94131511Y-91374901D01*
X94202130Y-91142102D01*
X94225975Y-90900000D01*
X94202130Y-90657898D01*
X94160008Y-90519039D01*
X97668096Y-90519039D01*
X97708754Y-90653087D01*
X97828963Y-90907420D01*
X97996481Y-91133414D01*
X98204869Y-91322385D01*
X98446119Y-91467070D01*
X98710960Y-91561909D01*
X98933000Y-91440624D01*
X98933000Y-90297000D01*
X99187000Y-90297000D01*
X99187000Y-91440624D01*
X99409040Y-91561909D01*
X99673881Y-91467070D01*
X99915131Y-91322385D01*
X100123519Y-91133414D01*
X100291037Y-90907420D01*
X100411246Y-90653087D01*
X100451904Y-90519039D01*
X100329915Y-90297000D01*
X99187000Y-90297000D01*
X98933000Y-90297000D01*
X97790085Y-90297000D01*
X97668096Y-90519039D01*
X94160008Y-90519039D01*
X94131511Y-90425099D01*
X94016833Y-90210551D01*
X93862502Y-90022498D01*
X93713238Y-89900000D01*
X93862502Y-89777502D01*
X94016833Y-89589449D01*
X94131511Y-89374901D01*
X94202130Y-89142102D01*
X94225975Y-88900000D01*
X94202130Y-88657898D01*
X94131511Y-88425099D01*
X94016833Y-88210551D01*
X93862502Y-88022498D01*
X93713238Y-87900000D01*
X93862502Y-87777502D01*
X94016833Y-87589449D01*
X94131511Y-87374901D01*
X94202130Y-87142102D01*
X94225975Y-86900000D01*
X94202130Y-86657898D01*
X94131511Y-86425099D01*
X94016833Y-86210551D01*
X93890564Y-86056691D01*
X93939494Y-86030537D01*
X94036185Y-85951185D01*
X94115537Y-85854494D01*
X94174502Y-85744180D01*
X94210812Y-85624482D01*
X94223072Y-85500000D01*
X94220000Y-85185750D01*
X94061250Y-85027000D01*
X92837000Y-85027000D01*
X92837000Y-85047000D01*
X92583000Y-85047000D01*
X92583000Y-85027000D01*
X91358750Y-85027000D01*
X91200000Y-85185750D01*
X91196928Y-85500000D01*
X91209188Y-85624482D01*
X91245498Y-85744180D01*
X91304463Y-85854494D01*
X91383815Y-85951185D01*
X91480506Y-86030537D01*
X91529436Y-86056691D01*
X91403167Y-86210551D01*
X91288489Y-86425099D01*
X91217870Y-86657898D01*
X91194025Y-86900000D01*
X87045000Y-86900000D01*
X87045000Y-84300000D01*
X91196928Y-84300000D01*
X91200000Y-84614250D01*
X91358750Y-84773000D01*
X92583000Y-84773000D01*
X92583000Y-83823750D01*
X92837000Y-83823750D01*
X92837000Y-84773000D01*
X94061250Y-84773000D01*
X94220000Y-84614250D01*
X94223072Y-84300000D01*
X94210812Y-84175518D01*
X94174502Y-84055820D01*
X94115537Y-83945506D01*
X94036185Y-83848815D01*
X93939494Y-83769463D01*
X93829180Y-83710498D01*
X93709482Y-83674188D01*
X93585000Y-83661928D01*
X92995750Y-83665000D01*
X92837000Y-83823750D01*
X92583000Y-83823750D01*
X92424250Y-83665000D01*
X91835000Y-83661928D01*
X91710518Y-83674188D01*
X91590820Y-83710498D01*
X91480506Y-83769463D01*
X91383815Y-83848815D01*
X91304463Y-83945506D01*
X91245498Y-84055820D01*
X91209188Y-84175518D01*
X91196928Y-84300000D01*
X87045000Y-84300000D01*
X87045000Y-81313504D01*
X87083551Y-80920332D01*
X87188004Y-80574366D01*
X87357667Y-80255276D01*
X87586076Y-79975219D01*
X87864534Y-79744859D01*
X88182430Y-79572973D01*
X88527658Y-79466107D01*
X88918753Y-79425000D01*
X104468356Y-79425000D01*
X100493125Y-83400233D01*
%TA.AperFunction,Conductor*%
D22*
G36*
X100493125Y-83400233D02*
G01*
X100498072Y-83350000D01*
X100498072Y-81750000D01*
X100485812Y-81625518D01*
X100449502Y-81505820D01*
X100390537Y-81395506D01*
X100311185Y-81298815D01*
X100214494Y-81219463D01*
X100104180Y-81160498D01*
X99984482Y-81124188D01*
X99860000Y-81111928D01*
X98260000Y-81111928D01*
X98135518Y-81124188D01*
X98015820Y-81160498D01*
X97905506Y-81219463D01*
X97808815Y-81298815D01*
X97729463Y-81395506D01*
X97670498Y-81505820D01*
X97634188Y-81625518D01*
X97621928Y-81750000D01*
X97621928Y-83350000D01*
X97634188Y-83474482D01*
X97670498Y-83594180D01*
X97729463Y-83704494D01*
X97808815Y-83801185D01*
X97905506Y-83880537D01*
X98015820Y-83939502D01*
X98135518Y-83975812D01*
X98143961Y-83976643D01*
X97945363Y-84175241D01*
X97788320Y-84410273D01*
X97680147Y-84671426D01*
X97625000Y-84948665D01*
X97625000Y-85231335D01*
X97680147Y-85508574D01*
X97788320Y-85769727D01*
X97945363Y-86004759D01*
X98145241Y-86204637D01*
X98377759Y-86360000D01*
X98145241Y-86515363D01*
X97945363Y-86715241D01*
X97788320Y-86950273D01*
X97680147Y-87211426D01*
X97625000Y-87488665D01*
X97625000Y-87771335D01*
X97680147Y-88048574D01*
X97788320Y-88309727D01*
X97945363Y-88544759D01*
X98145241Y-88744637D01*
X98380273Y-88901680D01*
X98390865Y-88906067D01*
X98204869Y-89017615D01*
X97996481Y-89206586D01*
X97828963Y-89432580D01*
X97708754Y-89686913D01*
X97668096Y-89820961D01*
X97790085Y-90043000D01*
X98933000Y-90043000D01*
X98933000Y-90023000D01*
X99187000Y-90023000D01*
X99187000Y-90043000D01*
X100329915Y-90043000D01*
X100451904Y-89820961D01*
X100411246Y-89686913D01*
X100291037Y-89432580D01*
X100123519Y-89206586D01*
X99915131Y-89017615D01*
X99729135Y-88906067D01*
X99739727Y-88901680D01*
X99974759Y-88744637D01*
X100174637Y-88544759D01*
X100331680Y-88309727D01*
X100439853Y-88048574D01*
X100495000Y-87771335D01*
X100495000Y-87488665D01*
X100439853Y-87211426D01*
X100331680Y-86950273D01*
X100174637Y-86715241D01*
X99974759Y-86515363D01*
X99742241Y-86360000D01*
X99974759Y-86204637D01*
X100009896Y-86169500D01*
X100276971Y-86169500D01*
X100330000Y-86174723D01*
X100383029Y-86169500D01*
X100541619Y-86153880D01*
X100745106Y-86092153D01*
X100932640Y-85991914D01*
X101097015Y-85857015D01*
X101130827Y-85815815D01*
X105857144Y-81089500D01*
X107502858Y-81089500D01*
X109410501Y-82997144D01*
X109410500Y-87563858D01*
X108750826Y-86904184D01*
X108717015Y-86862985D01*
X108552640Y-86728086D01*
X108365106Y-86627847D01*
X108161619Y-86566120D01*
X108003029Y-86550500D01*
X107950000Y-86545277D01*
X107896971Y-86550500D01*
X107629896Y-86550500D01*
X107594759Y-86515363D01*
X107362241Y-86360000D01*
X107594759Y-86204637D01*
X107794637Y-86004759D01*
X107951680Y-85769727D01*
X108059853Y-85508574D01*
X108115000Y-85231335D01*
X108115000Y-84948665D01*
X108059853Y-84671426D01*
X107951680Y-84410273D01*
X107794637Y-84175241D01*
X107594759Y-83975363D01*
X107362241Y-83820000D01*
X107594759Y-83664637D01*
X107794637Y-83464759D01*
X107951680Y-83229727D01*
X108059853Y-82968574D01*
X108115000Y-82691335D01*
X108115000Y-82408665D01*
X108059853Y-82131426D01*
X107951680Y-81870273D01*
X107794637Y-81635241D01*
X107594759Y-81435363D01*
X107359727Y-81278320D01*
X107098574Y-81170147D01*
X106821335Y-81115000D01*
X106538665Y-81115000D01*
X106261426Y-81170147D01*
X106000273Y-81278320D01*
X105765241Y-81435363D01*
X105565363Y-81635241D01*
X105408320Y-81870273D01*
X105300147Y-82131426D01*
X105245000Y-82408665D01*
X105245000Y-82691335D01*
X105300147Y-82968574D01*
X105408320Y-83229727D01*
X105565363Y-83464759D01*
X105765241Y-83664637D01*
X105997759Y-83820000D01*
X105765241Y-83975363D01*
X105730104Y-84010500D01*
X105463021Y-84010500D01*
X105409999Y-84005278D01*
X105356978Y-84010500D01*
X105356971Y-84010500D01*
X105198381Y-84026120D01*
X104994894Y-84087847D01*
X104807360Y-84188086D01*
X104642985Y-84322985D01*
X104609178Y-84364179D01*
X103414176Y-85559182D01*
X103372975Y-85592995D01*
X103238076Y-85757370D01*
X103137837Y-85944905D01*
X103111861Y-86030537D01*
X103076110Y-86148392D01*
X103055267Y-86360010D01*
X103060490Y-86413039D01*
X103060491Y-94033039D01*
X103076111Y-94191629D01*
X103137838Y-94395116D01*
X103238077Y-94582650D01*
X103372976Y-94747025D01*
X103537351Y-94881924D01*
X103724885Y-94982163D01*
X103928372Y-95043890D01*
X104139990Y-95064733D01*
X104351609Y-95043890D01*
X104555096Y-94982163D01*
X104742630Y-94881924D01*
X104907005Y-94747025D01*
X105041904Y-94582650D01*
X105142143Y-94395116D01*
X105203870Y-94191629D01*
X105219490Y-94033039D01*
X105219490Y-86807152D01*
X105799269Y-86227374D01*
X105997759Y-86360000D01*
X105765241Y-86515363D01*
X105565363Y-86715241D01*
X105408320Y-86950273D01*
X105300147Y-87211426D01*
X105245000Y-87488665D01*
X105245000Y-87771335D01*
X105300147Y-88048574D01*
X105408320Y-88309727D01*
X105565363Y-88544759D01*
X105765241Y-88744637D01*
X105997759Y-88900000D01*
X105765241Y-89055363D01*
X105565363Y-89255241D01*
X105408320Y-89490273D01*
X105300147Y-89751426D01*
X105245000Y-90028665D01*
X105245000Y-90311335D01*
X105300147Y-90588574D01*
X105408320Y-90849727D01*
X105565363Y-91084759D01*
X105600500Y-91119896D01*
X105600501Y-95196778D01*
X105595257Y-95250020D01*
X105616100Y-95461638D01*
X105677827Y-95665124D01*
X105778067Y-95852659D01*
X105912966Y-96017034D01*
X106077341Y-96151933D01*
X106264876Y-96252173D01*
X106468362Y-96313900D01*
X106679980Y-96334743D01*
X106891598Y-96313900D01*
X107095084Y-96252173D01*
X107282619Y-96151933D01*
X107405804Y-96050838D01*
X107405815Y-96050827D01*
X107447015Y-96017015D01*
X107581914Y-95852640D01*
X107682153Y-95665106D01*
X107743880Y-95461619D01*
X107759500Y-95303029D01*
X107759500Y-95303022D01*
X107764722Y-95250001D01*
X107759500Y-95196979D01*
X107759500Y-91119896D01*
X107794637Y-91084759D01*
X107951680Y-90849727D01*
X108059853Y-90588574D01*
X108115000Y-90311335D01*
X108115000Y-90028665D01*
X108059853Y-89751426D01*
X107951680Y-89490273D01*
X107794637Y-89255241D01*
X107594759Y-89055363D01*
X107362241Y-88900000D01*
X107560731Y-88767374D01*
X108140490Y-89347133D01*
X108140491Y-97736951D01*
X108135267Y-97789990D01*
X108156110Y-98001608D01*
X108211742Y-98185000D01*
X108217838Y-98205096D01*
X108318077Y-98392630D01*
X108452976Y-98557005D01*
X108494165Y-98590808D01*
X108494216Y-98590859D01*
X108617401Y-98691954D01*
X108804936Y-98792193D01*
X109008422Y-98853920D01*
X109220040Y-98874763D01*
X109431658Y-98853920D01*
X109635145Y-98792193D01*
X109822679Y-98691954D01*
X109987055Y-98557055D01*
X110121954Y-98392679D01*
X110222193Y-98205145D01*
X110228303Y-98185000D01*
X115446928Y-98185000D01*
X115450000Y-98774250D01*
X115608750Y-98933000D01*
X116583000Y-98933000D01*
X116583000Y-97708750D01*
X116837000Y-97708750D01*
X116837000Y-98933000D01*
X117811250Y-98933000D01*
X117970000Y-98774250D01*
X117973072Y-98185000D01*
X117960812Y-98060518D01*
X117924502Y-97940820D01*
X117865537Y-97830506D01*
X117786185Y-97733815D01*
X117689494Y-97654463D01*
X117579180Y-97595498D01*
X117459482Y-97559188D01*
X117335000Y-97546928D01*
X116995750Y-97550000D01*
X116837000Y-97708750D01*
X116583000Y-97708750D01*
X116424250Y-97550000D01*
X116085000Y-97546928D01*
X115960518Y-97559188D01*
X115840820Y-97595498D01*
X115730506Y-97654463D01*
X115633815Y-97733815D01*
X115554463Y-97830506D01*
X115495498Y-97940820D01*
X115459188Y-98060518D01*
X115446928Y-98185000D01*
X110228303Y-98185000D01*
X110283920Y-98001658D01*
X110304763Y-97790040D01*
X110299490Y-97736503D01*
X110299490Y-92776132D01*
X112229178Y-94705821D01*
X112262985Y-94747015D01*
X112427360Y-94881914D01*
X112614894Y-94982153D01*
X112818381Y-95043880D01*
X112976971Y-95059500D01*
X112976978Y-95059500D01*
X113029999Y-95064722D01*
X113083021Y-95059500D01*
X115400809Y-95059500D01*
X115421595Y-95098387D01*
X115532038Y-95232962D01*
X115666613Y-95343405D01*
X115820149Y-95425472D01*
X115986745Y-95476008D01*
X116159999Y-95493072D01*
X116960001Y-95493072D01*
X117133255Y-95476008D01*
X117299851Y-95425472D01*
X117453387Y-95343405D01*
X117587962Y-95232962D01*
X117698405Y-95098387D01*
X117780472Y-94944851D01*
X117831008Y-94778255D01*
X117848072Y-94605001D01*
X117848072Y-93354999D01*
X117831008Y-93181745D01*
X117780472Y-93015149D01*
X117698405Y-92861613D01*
X117587962Y-92727038D01*
X117453387Y-92616595D01*
X117299851Y-92534528D01*
X117133255Y-92483992D01*
X116960001Y-92466928D01*
X116159999Y-92466928D01*
X115986745Y-92483992D01*
X115820149Y-92534528D01*
X115666613Y-92616595D01*
X115532038Y-92727038D01*
X115421595Y-92861613D01*
X115400809Y-92900500D01*
X113477143Y-92900500D01*
X111569500Y-90992858D01*
X111569500Y-83574959D01*
X111590498Y-83644180D01*
X111649463Y-83754494D01*
X111728815Y-83851185D01*
X111825506Y-83930537D01*
X111935820Y-83989502D01*
X111950500Y-83993955D01*
X111950501Y-88837645D01*
X111891247Y-88926324D01*
X111794381Y-89160179D01*
X111745000Y-89408439D01*
X111745000Y-89661561D01*
X111794381Y-89909821D01*
X111891247Y-90143676D01*
X112031875Y-90354140D01*
X112210860Y-90533125D01*
X112421324Y-90673753D01*
X112655179Y-90770619D01*
X112903439Y-90820000D01*
X113156561Y-90820000D01*
X113404821Y-90770619D01*
X113638676Y-90673753D01*
X113727354Y-90614500D01*
X114872646Y-90614500D01*
X114961324Y-90673753D01*
X115195179Y-90770619D01*
X115443439Y-90820000D01*
X115696561Y-90820000D01*
X115944821Y-90770619D01*
X116178676Y-90673753D01*
X116389140Y-90533125D01*
X116568125Y-90354140D01*
X116708753Y-90143676D01*
X116805619Y-89909821D01*
X116855000Y-89661561D01*
X116855000Y-89408439D01*
X116805619Y-89160179D01*
X116708753Y-88926324D01*
X116568125Y-88715860D01*
X116389140Y-88536875D01*
X116178676Y-88396247D01*
X115944821Y-88299381D01*
X115696561Y-88250000D01*
X115443439Y-88250000D01*
X115195179Y-88299381D01*
X114961324Y-88396247D01*
X114872646Y-88455500D01*
X114109500Y-88455500D01*
X114109500Y-83993955D01*
X114124180Y-83989502D01*
X114234494Y-83930537D01*
X114331185Y-83851185D01*
X114410537Y-83754494D01*
X114469502Y-83644180D01*
X114491513Y-83571620D01*
X114623368Y-83703475D01*
X114866589Y-83865990D01*
X115136842Y-83977932D01*
X115423740Y-84035000D01*
X115528358Y-84035000D01*
X120840500Y-89347143D01*
X120840500Y-92940368D01*
X120798405Y-92861613D01*
X120687962Y-92727038D01*
X120553387Y-92616595D01*
X120399851Y-92534528D01*
X120233255Y-92483992D01*
X120060001Y-92466928D01*
X119259999Y-92466928D01*
X119086745Y-92483992D01*
X118920149Y-92534528D01*
X118766613Y-92616595D01*
X118632038Y-92727038D01*
X118521595Y-92861613D01*
X118439528Y-93015149D01*
X118388992Y-93181745D01*
X118371928Y-93354999D01*
X118371928Y-94605001D01*
X118388992Y-94778255D01*
X118430501Y-94915092D01*
X118430500Y-97900300D01*
X118396595Y-97941614D01*
X118314528Y-98095150D01*
X118263992Y-98261746D01*
X118246928Y-98435000D01*
X118246928Y-99685000D01*
X118263992Y-99858254D01*
X118314528Y-100024850D01*
X118396595Y-100178386D01*
X118507038Y-100312962D01*
X118641614Y-100423405D01*
X118795150Y-100505472D01*
X118961746Y-100556008D01*
X119135000Y-100573072D01*
X119885000Y-100573072D01*
X120058254Y-100556008D01*
X120214853Y-100508505D01*
X117027858Y-103695500D01*
X116267354Y-103695500D01*
X116178676Y-103636247D01*
X115944821Y-103539381D01*
X115696561Y-103490000D01*
X115443439Y-103490000D01*
X115195179Y-103539381D01*
X114961324Y-103636247D01*
X114872646Y-103695500D01*
X113727354Y-103695500D01*
X113638676Y-103636247D01*
X113404821Y-103539381D01*
X113156561Y-103490000D01*
X112903439Y-103490000D01*
X112655179Y-103539381D01*
X112421324Y-103636247D01*
X112210860Y-103776875D01*
X112031875Y-103955860D01*
X111891247Y-104166324D01*
X111794381Y-104400179D01*
X111745000Y-104648439D01*
X111745000Y-104901561D01*
X111794381Y-105149821D01*
X111891247Y-105383676D01*
X112031875Y-105594140D01*
X112210860Y-105773125D01*
X112421324Y-105913753D01*
X112655179Y-106010619D01*
X112903439Y-106060000D01*
X113156561Y-106060000D01*
X113404821Y-106010619D01*
X113638676Y-105913753D01*
X113727354Y-105854500D01*
X114872646Y-105854500D01*
X114961324Y-105913753D01*
X115195179Y-106010619D01*
X115443439Y-106060000D01*
X115696561Y-106060000D01*
X115944821Y-106010619D01*
X116178676Y-105913753D01*
X116267354Y-105854500D01*
X117421971Y-105854500D01*
X117475000Y-105859723D01*
X117528029Y-105854500D01*
X117686619Y-105838880D01*
X117890106Y-105777153D01*
X118077640Y-105676914D01*
X118097607Y-105660527D01*
X137724078Y-105660527D01*
X137777466Y-105889201D01*
X138007374Y-105995095D01*
X138253524Y-106054102D01*
X138506455Y-106063952D01*
X138756449Y-106024270D01*
X138993896Y-105936578D01*
X139082534Y-105889201D01*
X139135922Y-105660527D01*
X140264078Y-105660527D01*
X140317466Y-105889201D01*
X140547374Y-105995095D01*
X140793524Y-106054102D01*
X141046455Y-106063952D01*
X141296449Y-106024270D01*
X141533896Y-105936578D01*
X141622534Y-105889201D01*
X141636355Y-105830000D01*
X144561928Y-105830000D01*
X144565000Y-106394250D01*
X144723750Y-106553000D01*
X145923000Y-106553000D01*
X145923000Y-106533000D01*
X146177000Y-106533000D01*
X146177000Y-106553000D01*
X147376250Y-106553000D01*
X147535000Y-106394250D01*
X147538072Y-105830000D01*
X147533148Y-105780000D01*
X150806928Y-105780000D01*
X150810000Y-106394250D01*
X150968750Y-106553000D01*
X151980500Y-106553000D01*
X151980500Y-105303750D01*
X152234500Y-105303750D01*
X152234500Y-106553000D01*
X153246250Y-106553000D01*
X153405000Y-106394250D01*
X153408072Y-105780000D01*
X153395812Y-105655518D01*
X153359502Y-105535820D01*
X153300537Y-105425506D01*
X153221185Y-105328815D01*
X153124494Y-105249463D01*
X153014180Y-105190498D01*
X152894482Y-105154188D01*
X152770000Y-105141928D01*
X152393250Y-105145000D01*
X152234500Y-105303750D01*
X151980500Y-105303750D01*
X151821750Y-105145000D01*
X151445000Y-105141928D01*
X151320518Y-105154188D01*
X151200820Y-105190498D01*
X151090506Y-105249463D01*
X150993815Y-105328815D01*
X150914463Y-105425506D01*
X150855498Y-105535820D01*
X150819188Y-105655518D01*
X150806928Y-105780000D01*
X147533148Y-105780000D01*
X147525812Y-105705518D01*
X147489502Y-105585820D01*
X147430537Y-105475506D01*
X147351185Y-105378815D01*
X147254494Y-105299463D01*
X147144180Y-105240498D01*
X147071620Y-105218487D01*
X147203475Y-105086632D01*
X147365990Y-104843411D01*
X147477932Y-104573158D01*
X147535000Y-104286260D01*
X147535000Y-103993740D01*
X147477932Y-103706842D01*
X147365990Y-103436589D01*
X147203475Y-103193368D01*
X146996632Y-102986525D01*
X146822240Y-102870000D01*
X146996632Y-102753475D01*
X147203475Y-102546632D01*
X147365990Y-102303411D01*
X147477932Y-102033158D01*
X147535000Y-101746260D01*
X147535000Y-101453740D01*
X147515409Y-101355249D01*
X149915000Y-101355249D01*
X149915000Y-101844751D01*
X150010497Y-102324848D01*
X150197821Y-102777089D01*
X150469774Y-103184095D01*
X150815905Y-103530226D01*
X151222911Y-103802179D01*
X151675152Y-103989503D01*
X152155249Y-104085000D01*
X152644751Y-104085000D01*
X153124848Y-103989503D01*
X153577089Y-103802179D01*
X153984095Y-103530226D01*
X154330226Y-103184095D01*
X154602179Y-102777089D01*
X154789503Y-102324848D01*
X154885000Y-101844751D01*
X154885000Y-101355249D01*
X154789503Y-100875152D01*
X154602179Y-100422911D01*
X154330226Y-100015905D01*
X153984095Y-99669774D01*
X153577089Y-99397821D01*
X153124848Y-99210497D01*
X152644751Y-99115000D01*
X152155249Y-99115000D01*
X151675152Y-99210497D01*
X151222911Y-99397821D01*
X150815905Y-99669774D01*
X150469774Y-100015905D01*
X150197821Y-100422911D01*
X150010497Y-100875152D01*
X149915000Y-101355249D01*
X147515409Y-101355249D01*
X147477932Y-101166842D01*
X147365990Y-100896589D01*
X147203475Y-100653368D01*
X146996632Y-100446525D01*
X146822240Y-100330000D01*
X146996632Y-100213475D01*
X147203475Y-100006632D01*
X147365990Y-99763411D01*
X147477932Y-99493158D01*
X147535000Y-99206260D01*
X147535000Y-98913740D01*
X147477932Y-98626842D01*
X147365990Y-98356589D01*
X147203475Y-98113368D01*
X146996632Y-97906525D01*
X146753411Y-97744010D01*
X146483158Y-97632068D01*
X146196260Y-97575000D01*
X145903740Y-97575000D01*
X145616842Y-97632068D01*
X145346589Y-97744010D01*
X145103368Y-97906525D01*
X144896525Y-98113368D01*
X144734010Y-98356589D01*
X144622068Y-98626842D01*
X144565000Y-98913740D01*
X144565000Y-99206260D01*
X144622068Y-99493158D01*
X144734010Y-99763411D01*
X144896525Y-100006632D01*
X145103368Y-100213475D01*
X145277760Y-100330000D01*
X145103368Y-100446525D01*
X144896525Y-100653368D01*
X144734010Y-100896589D01*
X144622068Y-101166842D01*
X144565000Y-101453740D01*
X144565000Y-101746260D01*
X144622068Y-102033158D01*
X144734010Y-102303411D01*
X144896525Y-102546632D01*
X145103368Y-102753475D01*
X145277760Y-102870000D01*
X145103368Y-102986525D01*
X144896525Y-103193368D01*
X144734010Y-103436589D01*
X144622068Y-103706842D01*
X144565000Y-103993740D01*
X144565000Y-104286260D01*
X144622068Y-104573158D01*
X144734010Y-104843411D01*
X144896525Y-105086632D01*
X145028380Y-105218487D01*
X144955820Y-105240498D01*
X144845506Y-105299463D01*
X144748815Y-105378815D01*
X144669463Y-105475506D01*
X144610498Y-105585820D01*
X144574188Y-105705518D01*
X144561928Y-105830000D01*
X141636355Y-105830000D01*
X141675922Y-105660527D01*
X140970000Y-104954605D01*
X140264078Y-105660527D01*
X139135922Y-105660527D01*
X138430000Y-104954605D01*
X137724078Y-105660527D01*
X118097607Y-105660527D01*
X118242015Y-105542015D01*
X118275827Y-105500815D01*
X120316642Y-103460000D01*
X126756928Y-103460000D01*
X126756928Y-104260000D01*
X126773992Y-104433254D01*
X126824528Y-104599850D01*
X126906595Y-104753386D01*
X127017038Y-104887962D01*
X127151614Y-104998405D01*
X127305150Y-105080472D01*
X127471746Y-105131008D01*
X127645000Y-105148072D01*
X128895000Y-105148072D01*
X129068254Y-105131008D01*
X129234850Y-105080472D01*
X129388386Y-104998405D01*
X129522962Y-104887962D01*
X129633405Y-104753386D01*
X129715472Y-104599850D01*
X129766008Y-104433254D01*
X129783072Y-104260000D01*
X129783072Y-103460000D01*
X130566928Y-103460000D01*
X130566928Y-104260000D01*
X130583992Y-104433254D01*
X130634528Y-104599850D01*
X130716595Y-104753386D01*
X130827038Y-104887962D01*
X130961614Y-104998405D01*
X131115150Y-105080472D01*
X131281746Y-105131008D01*
X131455000Y-105148072D01*
X132705000Y-105148072D01*
X132878254Y-105131008D01*
X133044850Y-105080472D01*
X133198386Y-104998405D01*
X133332962Y-104887962D01*
X133362922Y-104851455D01*
X137141048Y-104851455D01*
X137180730Y-105101449D01*
X137268422Y-105338896D01*
X137315799Y-105427534D01*
X137544473Y-105480922D01*
X138250395Y-104775000D01*
X138609605Y-104775000D01*
X139315527Y-105480922D01*
X139544201Y-105427534D01*
X139650095Y-105197626D01*
X139701776Y-104982038D01*
X139720730Y-105101449D01*
X139808422Y-105338896D01*
X139855799Y-105427534D01*
X140084473Y-105480922D01*
X140790395Y-104775000D01*
X141149605Y-104775000D01*
X141855527Y-105480922D01*
X142084201Y-105427534D01*
X142190095Y-105197626D01*
X142249102Y-104951476D01*
X142258952Y-104698545D01*
X142219270Y-104448551D01*
X142131578Y-104211104D01*
X142084201Y-104122466D01*
X141855527Y-104069078D01*
X141149605Y-104775000D01*
X140790395Y-104775000D01*
X140084473Y-104069078D01*
X139855799Y-104122466D01*
X139749905Y-104352374D01*
X139698224Y-104567962D01*
X139679270Y-104448551D01*
X139591578Y-104211104D01*
X139544201Y-104122466D01*
X139315527Y-104069078D01*
X138609605Y-104775000D01*
X138250395Y-104775000D01*
X137544473Y-104069078D01*
X137315799Y-104122466D01*
X137209905Y-104352374D01*
X137150898Y-104598524D01*
X137141048Y-104851455D01*
X133362922Y-104851455D01*
X133443405Y-104753386D01*
X133525472Y-104599850D01*
X133576008Y-104433254D01*
X133593072Y-104260000D01*
X133593072Y-103889473D01*
X137724078Y-103889473D01*
X138430000Y-104595395D01*
X139135922Y-103889473D01*
X140264078Y-103889473D01*
X140970000Y-104595395D01*
X141675922Y-103889473D01*
X141622534Y-103660799D01*
X141392626Y-103554905D01*
X141146476Y-103495898D01*
X140893545Y-103486048D01*
X140643551Y-103525730D01*
X140406104Y-103613422D01*
X140317466Y-103660799D01*
X140264078Y-103889473D01*
X139135922Y-103889473D01*
X139082534Y-103660799D01*
X138852626Y-103554905D01*
X138606476Y-103495898D01*
X138353545Y-103486048D01*
X138103551Y-103525730D01*
X137866104Y-103613422D01*
X137777466Y-103660799D01*
X137724078Y-103889473D01*
X133593072Y-103889473D01*
X133593072Y-103460000D01*
X133576008Y-103286746D01*
X133525472Y-103120150D01*
X133443405Y-102966614D01*
X133332962Y-102832038D01*
X133198386Y-102721595D01*
X133159500Y-102700810D01*
X133159500Y-99935000D01*
X133226928Y-99935000D01*
X133239188Y-100059482D01*
X133275498Y-100179180D01*
X133334463Y-100289494D01*
X133413815Y-100386185D01*
X133510506Y-100465537D01*
X133620820Y-100524502D01*
X133740518Y-100560812D01*
X133865000Y-100573072D01*
X134204250Y-100570000D01*
X134363000Y-100411250D01*
X134363000Y-99187000D01*
X134617000Y-99187000D01*
X134617000Y-100411250D01*
X134775750Y-100570000D01*
X135115000Y-100573072D01*
X135239482Y-100560812D01*
X135359180Y-100524502D01*
X135469494Y-100465537D01*
X135566185Y-100386185D01*
X135645537Y-100289494D01*
X135704502Y-100179180D01*
X135740812Y-100059482D01*
X135753072Y-99935000D01*
X135750000Y-99345750D01*
X135591250Y-99187000D01*
X134617000Y-99187000D01*
X134363000Y-99187000D01*
X133388750Y-99187000D01*
X133230000Y-99345750D01*
X133226928Y-99935000D01*
X133159500Y-99935000D01*
X133159500Y-98185000D01*
X133226928Y-98185000D01*
X133230000Y-98774250D01*
X133388750Y-98933000D01*
X134363000Y-98933000D01*
X134363000Y-97708750D01*
X134617000Y-97708750D01*
X134617000Y-98933000D01*
X135591250Y-98933000D01*
X135750000Y-98774250D01*
X135751768Y-98435000D01*
X136026928Y-98435000D01*
X136026928Y-99685000D01*
X136043992Y-99858254D01*
X136094528Y-100024850D01*
X136176595Y-100178386D01*
X136287038Y-100312962D01*
X136421614Y-100423405D01*
X136575150Y-100505472D01*
X136741746Y-100556008D01*
X136915000Y-100573072D01*
X137665000Y-100573072D01*
X137838254Y-100556008D01*
X138004850Y-100505472D01*
X138158386Y-100423405D01*
X138292962Y-100312962D01*
X138403405Y-100178386D01*
X138485472Y-100024850D01*
X138536008Y-99858254D01*
X138553072Y-99685000D01*
X138553072Y-98435000D01*
X138536008Y-98261746D01*
X138485472Y-98095150D01*
X138403405Y-97941614D01*
X138369500Y-97900300D01*
X138369500Y-95313768D01*
X138467962Y-95232962D01*
X138578405Y-95098387D01*
X138660472Y-94944851D01*
X138680144Y-94880000D01*
X141201928Y-94880000D01*
X141214188Y-95004482D01*
X141250498Y-95124180D01*
X141309463Y-95234494D01*
X141388815Y-95331185D01*
X141485506Y-95410537D01*
X141595820Y-95469502D01*
X141715518Y-95505812D01*
X141840000Y-95518072D01*
X142804250Y-95515000D01*
X142963000Y-95356250D01*
X142963000Y-93757000D01*
X143217000Y-93757000D01*
X143217000Y-95356250D01*
X143375750Y-95515000D01*
X144340000Y-95518072D01*
X144464482Y-95505812D01*
X144584180Y-95469502D01*
X144694494Y-95410537D01*
X144791185Y-95331185D01*
X144870537Y-95234494D01*
X144929502Y-95124180D01*
X144965812Y-95004482D01*
X144978072Y-94880000D01*
X144975000Y-93915750D01*
X144816250Y-93757000D01*
X143217000Y-93757000D01*
X142963000Y-93757000D01*
X141363750Y-93757000D01*
X141205000Y-93915750D01*
X141201928Y-94880000D01*
X138680144Y-94880000D01*
X138711008Y-94778255D01*
X138728072Y-94605001D01*
X138728072Y-93354999D01*
X138711008Y-93181745D01*
X138660472Y-93015149D01*
X138578405Y-92861613D01*
X138467962Y-92727038D01*
X138333387Y-92616595D01*
X138179851Y-92534528D01*
X138013255Y-92483992D01*
X137840001Y-92466928D01*
X137039999Y-92466928D01*
X136866745Y-92483992D01*
X136700149Y-92534528D01*
X136546613Y-92616595D01*
X136412038Y-92727038D01*
X136301595Y-92861613D01*
X136219528Y-93015149D01*
X136168992Y-93181745D01*
X136151928Y-93354999D01*
X136151928Y-94605001D01*
X136168992Y-94778255D01*
X136210501Y-94915092D01*
X136210500Y-97900300D01*
X136176595Y-97941614D01*
X136094528Y-98095150D01*
X136043992Y-98261746D01*
X136026928Y-98435000D01*
X135751768Y-98435000D01*
X135753072Y-98185000D01*
X135740812Y-98060518D01*
X135704502Y-97940820D01*
X135645537Y-97830506D01*
X135566185Y-97733815D01*
X135469494Y-97654463D01*
X135359180Y-97595498D01*
X135239482Y-97559188D01*
X135115000Y-97546928D01*
X134775750Y-97550000D01*
X134617000Y-97708750D01*
X134363000Y-97708750D01*
X134204250Y-97550000D01*
X133865000Y-97546928D01*
X133740518Y-97559188D01*
X133620820Y-97595498D01*
X133510506Y-97654463D01*
X133413815Y-97733815D01*
X133334463Y-97830506D01*
X133275498Y-97940820D01*
X133239188Y-98060518D01*
X133226928Y-98185000D01*
X133159500Y-98185000D01*
X133159500Y-95019633D01*
X133201595Y-95098387D01*
X133312038Y-95232962D01*
X133446613Y-95343405D01*
X133600149Y-95425472D01*
X133766745Y-95476008D01*
X133939999Y-95493072D01*
X134740001Y-95493072D01*
X134913255Y-95476008D01*
X135079851Y-95425472D01*
X135233387Y-95343405D01*
X135367962Y-95232962D01*
X135478405Y-95098387D01*
X135560472Y-94944851D01*
X135611008Y-94778255D01*
X135628072Y-94605001D01*
X135628072Y-93354999D01*
X135611008Y-93181745D01*
X135560472Y-93015149D01*
X135478405Y-92861613D01*
X135419500Y-92789837D01*
X135419500Y-92380000D01*
X141201928Y-92380000D01*
X141205000Y-93344250D01*
X141363750Y-93503000D01*
X142963000Y-93503000D01*
X142963000Y-91903750D01*
X143217000Y-91903750D01*
X143217000Y-93503000D01*
X144816250Y-93503000D01*
X144975000Y-93344250D01*
X144978072Y-92380000D01*
X144965812Y-92255518D01*
X144929502Y-92135820D01*
X144870537Y-92025506D01*
X144791185Y-91928815D01*
X144694494Y-91849463D01*
X144584180Y-91790498D01*
X144464482Y-91754188D01*
X144340000Y-91741928D01*
X143375750Y-91745000D01*
X143217000Y-91903750D01*
X142963000Y-91903750D01*
X142804250Y-91745000D01*
X141840000Y-91741928D01*
X141715518Y-91754188D01*
X141595820Y-91790498D01*
X141485506Y-91849463D01*
X141388815Y-91928815D01*
X141309463Y-92025506D01*
X141250498Y-92135820D01*
X141214188Y-92255518D01*
X141201928Y-92380000D01*
X135419500Y-92380000D01*
X135419500Y-91888400D01*
X136615821Y-90692080D01*
X136657015Y-90658273D01*
X136791914Y-90493898D01*
X136892153Y-90306364D01*
X136953880Y-90102877D01*
X136961797Y-90022498D01*
X136974723Y-89891259D01*
X136969500Y-89838230D01*
X136969500Y-89408439D01*
X137145000Y-89408439D01*
X137145000Y-89661561D01*
X137194381Y-89909821D01*
X137291247Y-90143676D01*
X137431875Y-90354140D01*
X137610860Y-90533125D01*
X137821324Y-90673753D01*
X138055179Y-90770619D01*
X138303439Y-90820000D01*
X138556561Y-90820000D01*
X138804821Y-90770619D01*
X139038676Y-90673753D01*
X139127354Y-90614500D01*
X140272646Y-90614500D01*
X140361324Y-90673753D01*
X140595179Y-90770619D01*
X140843439Y-90820000D01*
X141096561Y-90820000D01*
X141344821Y-90770619D01*
X141578676Y-90673753D01*
X141667354Y-90614500D01*
X149547858Y-90614500D01*
X152201928Y-93268571D01*
X152201928Y-94880000D01*
X152214188Y-95004482D01*
X152250498Y-95124180D01*
X152309463Y-95234494D01*
X152388815Y-95331185D01*
X152485506Y-95410537D01*
X152595820Y-95469502D01*
X152715518Y-95505812D01*
X152840000Y-95518072D01*
X153010501Y-95518072D01*
X153010501Y-95616961D01*
X153005277Y-95670000D01*
X153026120Y-95881618D01*
X153078399Y-96053957D01*
X153087848Y-96085106D01*
X153188087Y-96272640D01*
X153322986Y-96437015D01*
X153364180Y-96470822D01*
X156441388Y-99548030D01*
X156410498Y-99605820D01*
X156374188Y-99725518D01*
X156361928Y-99850000D01*
X156361928Y-103350000D01*
X156374188Y-103474482D01*
X156410498Y-103594180D01*
X156469463Y-103704494D01*
X156548815Y-103801185D01*
X156645506Y-103880537D01*
X156755820Y-103939502D01*
X156875518Y-103975812D01*
X157000000Y-103988072D01*
X157375285Y-103988072D01*
X156094970Y-105268388D01*
X155984852Y-105209528D01*
X155818256Y-105158992D01*
X155645002Y-105141928D01*
X154819998Y-105141928D01*
X154646744Y-105158992D01*
X154480148Y-105209528D01*
X154326613Y-105291595D01*
X154192038Y-105402038D01*
X154081595Y-105536613D01*
X153999528Y-105690148D01*
X153948992Y-105856744D01*
X153931928Y-106029998D01*
X153931928Y-107330002D01*
X153948992Y-107503256D01*
X153999528Y-107669852D01*
X154081595Y-107823387D01*
X154192038Y-107957962D01*
X154326613Y-108068405D01*
X154480148Y-108150472D01*
X154646744Y-108201008D01*
X154819998Y-108218072D01*
X155645002Y-108218072D01*
X155818256Y-108201008D01*
X155984852Y-108150472D01*
X156138387Y-108068405D01*
X156272962Y-107957962D01*
X156383405Y-107823387D01*
X156426732Y-107742329D01*
X156625106Y-107682153D01*
X156812640Y-107581914D01*
X156977015Y-107447015D01*
X157010827Y-107405815D01*
X159475821Y-104940822D01*
X159517015Y-104907015D01*
X159651914Y-104742640D01*
X159752153Y-104555106D01*
X159813880Y-104351619D01*
X159829500Y-104193029D01*
X159829500Y-104193022D01*
X159834722Y-104140001D01*
X159829500Y-104086979D01*
X159829500Y-103988072D01*
X160500000Y-103988072D01*
X160624482Y-103975812D01*
X160744180Y-103939502D01*
X160854494Y-103880537D01*
X160951185Y-103801185D01*
X161030537Y-103704494D01*
X161089502Y-103594180D01*
X161125812Y-103474482D01*
X161138072Y-103350000D01*
X162611928Y-103350000D01*
X162624188Y-103474482D01*
X162660498Y-103594180D01*
X162719463Y-103704494D01*
X162798815Y-103801185D01*
X162895506Y-103880537D01*
X163005820Y-103939502D01*
X163125518Y-103975812D01*
X163250000Y-103988072D01*
X164464250Y-103985000D01*
X164623000Y-103826250D01*
X164623000Y-101727000D01*
X164877000Y-101727000D01*
X164877000Y-103826250D01*
X165035750Y-103985000D01*
X166250000Y-103988072D01*
X166374482Y-103975812D01*
X166494180Y-103939502D01*
X166604494Y-103880537D01*
X166701185Y-103801185D01*
X166780537Y-103704494D01*
X166839502Y-103594180D01*
X166875812Y-103474482D01*
X166888072Y-103350000D01*
X166885000Y-101885750D01*
X166726250Y-101727000D01*
X164877000Y-101727000D01*
X164623000Y-101727000D01*
X162773750Y-101727000D01*
X162615000Y-101885750D01*
X162611928Y-103350000D01*
X161138072Y-103350000D01*
X161138072Y-99850000D01*
X162611928Y-99850000D01*
X162615000Y-101314250D01*
X162773750Y-101473000D01*
X164623000Y-101473000D01*
X164623000Y-99373750D01*
X164877000Y-99373750D01*
X164877000Y-101473000D01*
X166726250Y-101473000D01*
X166885000Y-101314250D01*
X166888072Y-99850000D01*
X166875812Y-99725518D01*
X166839502Y-99605820D01*
X166780537Y-99495506D01*
X166701185Y-99398815D01*
X166604494Y-99319463D01*
X166494180Y-99260498D01*
X166374482Y-99224188D01*
X166250000Y-99211928D01*
X165035750Y-99215000D01*
X164877000Y-99373750D01*
X164623000Y-99373750D01*
X164464250Y-99215000D01*
X163250000Y-99211928D01*
X163125518Y-99224188D01*
X163005820Y-99260498D01*
X162895506Y-99319463D01*
X162798815Y-99398815D01*
X162719463Y-99495506D01*
X162660498Y-99605820D01*
X162624188Y-99725518D01*
X162611928Y-99850000D01*
X161138072Y-99850000D01*
X161125812Y-99725518D01*
X161089502Y-99605820D01*
X161030537Y-99495506D01*
X160951185Y-99398815D01*
X160854494Y-99319463D01*
X160777869Y-99278506D01*
X160875000Y-99288072D01*
X162625000Y-99288072D01*
X162920186Y-99258999D01*
X163204028Y-99172896D01*
X163465618Y-99033073D01*
X163694903Y-98844903D01*
X163883073Y-98615618D01*
X164022896Y-98354028D01*
X164108999Y-98070186D01*
X164138072Y-97775000D01*
X164138072Y-96025000D01*
X164108999Y-95729814D01*
X164022896Y-95445972D01*
X163883073Y-95184382D01*
X163694903Y-94955097D01*
X163465618Y-94766927D01*
X163204028Y-94627104D01*
X162920186Y-94541001D01*
X162625000Y-94511928D01*
X160875000Y-94511928D01*
X160579814Y-94541001D01*
X160295972Y-94627104D01*
X160034382Y-94766927D01*
X159805097Y-94955097D01*
X159616927Y-95184382D01*
X159477104Y-95445972D01*
X159391001Y-95729814D01*
X159361928Y-96025000D01*
X159361928Y-97775000D01*
X159391001Y-98070186D01*
X159477104Y-98354028D01*
X159616927Y-98615618D01*
X159805097Y-98844903D01*
X160034382Y-99033073D01*
X160295972Y-99172896D01*
X160424643Y-99211928D01*
X159158571Y-99211928D01*
X155453533Y-95506890D01*
X155464482Y-95505812D01*
X155584180Y-95469502D01*
X155694494Y-95410537D01*
X155791185Y-95331185D01*
X155870537Y-95234494D01*
X155929502Y-95124180D01*
X155965812Y-95004482D01*
X155978072Y-94880000D01*
X155978072Y-92380000D01*
X155965812Y-92255518D01*
X155929502Y-92135820D01*
X155870537Y-92025506D01*
X155791185Y-91928815D01*
X155694494Y-91849463D01*
X155584180Y-91790498D01*
X155464482Y-91754188D01*
X155340000Y-91741928D01*
X153728571Y-91741928D01*
X150795827Y-88809185D01*
X150762015Y-88767985D01*
X150597640Y-88633086D01*
X150410106Y-88532847D01*
X150206619Y-88471120D01*
X150048029Y-88455500D01*
X149995000Y-88450277D01*
X149941971Y-88455500D01*
X141667354Y-88455500D01*
X141578676Y-88396247D01*
X141344821Y-88299381D01*
X141096561Y-88250000D01*
X140843439Y-88250000D01*
X140595179Y-88299381D01*
X140361324Y-88396247D01*
X140272646Y-88455500D01*
X139127354Y-88455500D01*
X139038676Y-88396247D01*
X138804821Y-88299381D01*
X138556561Y-88250000D01*
X138303439Y-88250000D01*
X138055179Y-88299381D01*
X137821324Y-88396247D01*
X137610860Y-88536875D01*
X137431875Y-88715860D01*
X137291247Y-88926324D01*
X137194381Y-89160179D01*
X137145000Y-89408439D01*
X136969500Y-89408439D01*
X136969500Y-88077142D01*
X137960818Y-87085825D01*
X137960822Y-87085820D01*
X140718321Y-84328322D01*
X140759515Y-84294515D01*
X140894414Y-84130140D01*
X140994653Y-83942606D01*
X141056380Y-83739119D01*
X141072000Y-83580529D01*
X141072000Y-83580528D01*
X141077223Y-83527500D01*
X141072000Y-83474471D01*
X141072000Y-82510394D01*
X141143405Y-82423387D01*
X141177554Y-82359500D01*
X141201928Y-82359500D01*
X141201928Y-82880000D01*
X141214188Y-83004482D01*
X141250498Y-83124180D01*
X141309463Y-83234494D01*
X141388815Y-83331185D01*
X141485506Y-83410537D01*
X141595820Y-83469502D01*
X141715518Y-83505812D01*
X141840000Y-83518072D01*
X144340000Y-83518072D01*
X144464482Y-83505812D01*
X144584180Y-83469502D01*
X144694494Y-83410537D01*
X144791185Y-83331185D01*
X144870537Y-83234494D01*
X144929502Y-83124180D01*
X144965812Y-83004482D01*
X144978072Y-82880000D01*
X144978072Y-82709500D01*
X148492858Y-82709500D01*
X152944175Y-87160818D01*
X152944180Y-87160822D01*
X156400500Y-90617144D01*
X156400501Y-94033029D01*
X156416121Y-94191619D01*
X156477848Y-94395106D01*
X156578087Y-94582640D01*
X156712986Y-94747015D01*
X156877361Y-94881914D01*
X157064895Y-94982153D01*
X157268382Y-95043880D01*
X157480000Y-95064723D01*
X157691619Y-95043880D01*
X157895106Y-94982153D01*
X158082640Y-94881914D01*
X158247015Y-94747015D01*
X158381914Y-94582640D01*
X158482153Y-94395106D01*
X158543880Y-94191619D01*
X158559500Y-94033029D01*
X158559500Y-91500000D01*
X159776928Y-91500000D01*
X159789188Y-91624482D01*
X159825498Y-91744180D01*
X159884463Y-91854494D01*
X159963815Y-91951185D01*
X160060506Y-92030537D01*
X160170820Y-92089502D01*
X160290518Y-92125812D01*
X160415000Y-92138072D01*
X161004250Y-92135000D01*
X161163000Y-91976250D01*
X161163000Y-91027000D01*
X161417000Y-91027000D01*
X161417000Y-91976250D01*
X161575750Y-92135000D01*
X162165000Y-92138072D01*
X162289482Y-92125812D01*
X162409180Y-92089502D01*
X162519494Y-92030537D01*
X162616185Y-91951185D01*
X162695537Y-91854494D01*
X162754502Y-91744180D01*
X162790812Y-91624482D01*
X162803072Y-91500000D01*
X162800000Y-91185750D01*
X162641250Y-91027000D01*
X161417000Y-91027000D01*
X161163000Y-91027000D01*
X159938750Y-91027000D01*
X159780000Y-91185750D01*
X159776928Y-91500000D01*
X158559500Y-91500000D01*
X158559500Y-90223029D01*
X158564723Y-90170000D01*
X158543880Y-89958381D01*
X158535827Y-89931833D01*
X158482153Y-89754894D01*
X158381914Y-89567360D01*
X158328791Y-89502629D01*
X158280819Y-89444175D01*
X158280818Y-89444174D01*
X158247015Y-89402985D01*
X158205826Y-89369182D01*
X154470822Y-85634180D01*
X154470818Y-85634175D01*
X153736643Y-84900000D01*
X159774025Y-84900000D01*
X159797870Y-85142102D01*
X159868489Y-85374901D01*
X159983167Y-85589449D01*
X160137498Y-85777502D01*
X160286762Y-85900000D01*
X160137498Y-86022498D01*
X159983167Y-86210551D01*
X159868489Y-86425099D01*
X159797870Y-86657898D01*
X159774025Y-86900000D01*
X159797870Y-87142102D01*
X159868489Y-87374901D01*
X159983167Y-87589449D01*
X160137498Y-87777502D01*
X160286762Y-87900000D01*
X160137498Y-88022498D01*
X159983167Y-88210551D01*
X159868489Y-88425099D01*
X159797870Y-88657898D01*
X159774025Y-88900000D01*
X159797870Y-89142102D01*
X159868489Y-89374901D01*
X159983167Y-89589449D01*
X160109436Y-89743309D01*
X160060506Y-89769463D01*
X159963815Y-89848815D01*
X159884463Y-89945506D01*
X159825498Y-90055820D01*
X159789188Y-90175518D01*
X159776928Y-90300000D01*
X159780000Y-90614250D01*
X159938750Y-90773000D01*
X161163000Y-90773000D01*
X161163000Y-90753000D01*
X161417000Y-90753000D01*
X161417000Y-90773000D01*
X162641250Y-90773000D01*
X162800000Y-90614250D01*
X162803072Y-90300000D01*
X162790812Y-90175518D01*
X162754502Y-90055820D01*
X162695537Y-89945506D01*
X162616185Y-89848815D01*
X162519494Y-89769463D01*
X162470564Y-89743309D01*
X162596833Y-89589449D01*
X162711511Y-89374901D01*
X162782130Y-89142102D01*
X162805975Y-88900000D01*
X162782130Y-88657898D01*
X162711511Y-88425099D01*
X162596833Y-88210551D01*
X162442502Y-88022498D01*
X162293238Y-87900000D01*
X162442502Y-87777502D01*
X162596833Y-87589449D01*
X162711511Y-87374901D01*
X162782130Y-87142102D01*
X162805975Y-86900000D01*
X162782130Y-86657898D01*
X162711511Y-86425099D01*
X162596833Y-86210551D01*
X162442502Y-86022498D01*
X162293238Y-85900000D01*
X162442502Y-85777502D01*
X162596833Y-85589449D01*
X162711511Y-85374901D01*
X162782130Y-85142102D01*
X162805975Y-84900000D01*
X162782130Y-84657898D01*
X162711511Y-84425099D01*
X162596833Y-84210551D01*
X162442502Y-84022498D01*
X162254449Y-83868167D01*
X162039901Y-83753489D01*
X161807102Y-83682870D01*
X161625665Y-83665000D01*
X160954335Y-83665000D01*
X160772898Y-83682870D01*
X160540099Y-83753489D01*
X160325551Y-83868167D01*
X160137498Y-84022498D01*
X159983167Y-84210551D01*
X159868489Y-84425099D01*
X159797870Y-84657898D01*
X159774025Y-84900000D01*
X153736643Y-84900000D01*
X149740827Y-80904185D01*
X149707015Y-80862985D01*
X149542640Y-80728086D01*
X149355106Y-80627847D01*
X149151619Y-80566120D01*
X148993029Y-80550500D01*
X148940000Y-80545277D01*
X148886971Y-80550500D01*
X144978072Y-80550500D01*
X144978072Y-80380000D01*
X152201928Y-80380000D01*
X152201928Y-82880000D01*
X152214188Y-83004482D01*
X152250498Y-83124180D01*
X152309463Y-83234494D01*
X152388815Y-83331185D01*
X152485506Y-83410537D01*
X152595820Y-83469502D01*
X152715518Y-83505812D01*
X152840000Y-83518072D01*
X155340000Y-83518072D01*
X155464482Y-83505812D01*
X155584180Y-83469502D01*
X155694494Y-83410537D01*
X155791185Y-83331185D01*
X155870537Y-83234494D01*
X155929502Y-83124180D01*
X155965812Y-83004482D01*
X155978072Y-82880000D01*
X155978072Y-80380000D01*
X155965812Y-80255518D01*
X155929502Y-80135820D01*
X155870537Y-80025506D01*
X155791185Y-79928815D01*
X155694494Y-79849463D01*
X155584180Y-79790498D01*
X155464482Y-79754188D01*
X155340000Y-79741928D01*
X152840000Y-79741928D01*
X152715518Y-79754188D01*
X152595820Y-79790498D01*
X152485506Y-79849463D01*
X152388815Y-79928815D01*
X152309463Y-80025506D01*
X152250498Y-80135820D01*
X152214188Y-80255518D01*
X152201928Y-80380000D01*
X144978072Y-80380000D01*
X144965812Y-80255518D01*
X144929502Y-80135820D01*
X144870537Y-80025506D01*
X144791185Y-79928815D01*
X144694494Y-79849463D01*
X144584180Y-79790498D01*
X144464482Y-79754188D01*
X144340000Y-79741928D01*
X141840000Y-79741928D01*
X141715518Y-79754188D01*
X141595820Y-79790498D01*
X141485506Y-79849463D01*
X141388815Y-79928815D01*
X141309463Y-80025506D01*
X141250498Y-80135820D01*
X141230878Y-80200500D01*
X141177554Y-80200500D01*
X141143405Y-80136613D01*
X141032962Y-80002038D01*
X140898387Y-79891595D01*
X140744852Y-79809528D01*
X140578256Y-79758992D01*
X140405002Y-79741928D01*
X139579998Y-79741928D01*
X139406744Y-79758992D01*
X139240148Y-79809528D01*
X139086613Y-79891595D01*
X138952038Y-80002038D01*
X138841595Y-80136613D01*
X138759528Y-80290148D01*
X138708992Y-80456744D01*
X138691928Y-80629998D01*
X138691928Y-81930002D01*
X138708992Y-82103256D01*
X138759528Y-82269852D01*
X138841595Y-82423387D01*
X138913000Y-82510395D01*
X138913000Y-83080357D01*
X136434180Y-85559178D01*
X136434175Y-85559182D01*
X135164180Y-86829178D01*
X135122986Y-86862985D01*
X134988087Y-87027360D01*
X134928017Y-87139744D01*
X134887847Y-87214896D01*
X134826120Y-87418382D01*
X134805277Y-87630000D01*
X134810501Y-87683039D01*
X134810500Y-89444115D01*
X134635000Y-89619615D01*
X134635000Y-89408439D01*
X134585619Y-89160179D01*
X134488753Y-88926324D01*
X134348125Y-88715860D01*
X134169140Y-88536875D01*
X133958676Y-88396247D01*
X133724821Y-88299381D01*
X133476561Y-88250000D01*
X133223439Y-88250000D01*
X132975179Y-88299381D01*
X132741324Y-88396247D01*
X132530860Y-88536875D01*
X132351875Y-88715860D01*
X132211247Y-88926324D01*
X132114381Y-89160179D01*
X132093574Y-89264783D01*
X131354180Y-90004178D01*
X131312986Y-90037985D01*
X131178087Y-90202360D01*
X131122496Y-90306364D01*
X131077847Y-90389896D01*
X131016120Y-90593382D01*
X130995277Y-90805000D01*
X131000501Y-90858039D01*
X131000500Y-102700810D01*
X130961614Y-102721595D01*
X130827038Y-102832038D01*
X130716595Y-102966614D01*
X130634528Y-103120150D01*
X130583992Y-103286746D01*
X130566928Y-103460000D01*
X129783072Y-103460000D01*
X129766008Y-103286746D01*
X129715472Y-103120150D01*
X129633405Y-102966614D01*
X129522962Y-102832038D01*
X129388386Y-102721595D01*
X129349500Y-102700810D01*
X129349500Y-97843109D01*
X129354723Y-97790080D01*
X129333880Y-97578462D01*
X129329491Y-97563992D01*
X129272153Y-97374974D01*
X129171914Y-97187440D01*
X129037015Y-97023065D01*
X128995815Y-96989253D01*
X128995784Y-96989222D01*
X128872599Y-96888127D01*
X128685064Y-96787887D01*
X128481578Y-96726160D01*
X128269960Y-96705317D01*
X128058342Y-96726160D01*
X127854856Y-96787887D01*
X127667321Y-96888127D01*
X127502946Y-97023026D01*
X127368047Y-97187401D01*
X127267807Y-97374936D01*
X127206080Y-97578422D01*
X127185237Y-97790040D01*
X127190501Y-97843485D01*
X127190500Y-102700810D01*
X127151614Y-102721595D01*
X127017038Y-102832038D01*
X126906595Y-102966614D01*
X126824528Y-103120150D01*
X126773992Y-103286746D01*
X126756928Y-103460000D01*
X120316642Y-103460000D01*
X122645821Y-101130822D01*
X122687015Y-101097015D01*
X122821914Y-100932640D01*
X122922153Y-100745106D01*
X122983880Y-100541619D01*
X122999500Y-100383029D01*
X122999500Y-100383022D01*
X123004722Y-100330001D01*
X122999500Y-100276979D01*
X122999500Y-88953021D01*
X123004722Y-88899999D01*
X122999500Y-88846978D01*
X122999500Y-88846971D01*
X122983880Y-88688381D01*
X122922153Y-88484894D01*
X122821914Y-88297360D01*
X122687015Y-88132985D01*
X122645821Y-88099178D01*
X117055000Y-82508358D01*
X117055000Y-82403740D01*
X116997932Y-82116842D01*
X116885990Y-81846589D01*
X116723475Y-81603368D01*
X116516632Y-81396525D01*
X116273411Y-81234010D01*
X116003158Y-81122068D01*
X115716260Y-81065000D01*
X115423740Y-81065000D01*
X115136842Y-81122068D01*
X114866589Y-81234010D01*
X114623368Y-81396525D01*
X114491513Y-81528380D01*
X114469502Y-81455820D01*
X114410537Y-81345506D01*
X114331185Y-81248815D01*
X114234494Y-81169463D01*
X114124180Y-81110498D01*
X114004482Y-81074188D01*
X113880000Y-81061928D01*
X112180000Y-81061928D01*
X112055518Y-81074188D01*
X111935820Y-81110498D01*
X111825506Y-81169463D01*
X111728815Y-81248815D01*
X111649463Y-81345506D01*
X111590498Y-81455820D01*
X111554188Y-81575518D01*
X111541928Y-81700000D01*
X111541928Y-82298980D01*
X111492153Y-82134894D01*
X111391914Y-81947360D01*
X111257015Y-81782985D01*
X111215821Y-81749178D01*
X108891642Y-79425000D01*
X121150211Y-79425000D01*
X120733150Y-79554102D01*
X120675896Y-79578170D01*
X120618352Y-79601419D01*
X120609907Y-79605909D01*
X120173847Y-79841686D01*
X120122384Y-79876398D01*
X120070427Y-79910398D01*
X120063015Y-79916443D01*
X119681055Y-80232427D01*
X119637308Y-80276481D01*
X119592950Y-80319919D01*
X119586853Y-80327289D01*
X119273543Y-80711445D01*
X119239192Y-80763148D01*
X119204110Y-80814384D01*
X119199561Y-80822797D01*
X118966834Y-81260493D01*
X118943171Y-81317903D01*
X118918718Y-81374958D01*
X118915889Y-81384094D01*
X118772610Y-81858659D01*
X118760548Y-81919577D01*
X118747643Y-81980289D01*
X118746643Y-81989800D01*
X118698269Y-82483156D01*
X118698269Y-82513086D01*
X118695038Y-82542831D01*
X118695004Y-82552395D01*
X118695066Y-82570127D01*
X118698090Y-82599896D01*
X118697881Y-82629815D01*
X118698814Y-82639334D01*
X118750632Y-83132340D01*
X118763109Y-83193121D01*
X118774749Y-83254142D01*
X118777513Y-83263298D01*
X118924103Y-83736851D01*
X118948167Y-83794097D01*
X118971419Y-83851648D01*
X118975907Y-83860089D01*
X118975909Y-83860094D01*
X118975912Y-83860098D01*
X119211686Y-84296153D01*
X119246398Y-84347616D01*
X119280398Y-84399573D01*
X119286443Y-84406985D01*
X119602427Y-84788945D01*
X119646500Y-84832712D01*
X119689920Y-84877050D01*
X119697289Y-84883147D01*
X120081445Y-85196457D01*
X120133148Y-85230808D01*
X120184384Y-85265890D01*
X120192797Y-85270439D01*
X120630493Y-85503166D01*
X120687882Y-85526820D01*
X120744958Y-85551283D01*
X120754095Y-85554111D01*
X121228659Y-85697390D01*
X121289577Y-85709452D01*
X121350289Y-85722357D01*
X121359801Y-85723357D01*
X121853156Y-85771731D01*
X121853163Y-85771731D01*
X121886353Y-85775000D01*
X132113647Y-85775000D01*
X132144018Y-85772009D01*
X132159815Y-85772119D01*
X132169334Y-85771186D01*
X132662340Y-85719368D01*
X132723121Y-85706891D01*
X132784142Y-85695251D01*
X132793298Y-85692487D01*
X133266851Y-85545897D01*
X133324097Y-85521833D01*
X133381648Y-85498581D01*
X133390089Y-85494093D01*
X133390094Y-85494091D01*
X133390098Y-85494088D01*
X133826153Y-85258314D01*
X133877616Y-85223602D01*
X133929573Y-85189602D01*
X133936985Y-85183557D01*
X134318945Y-84867573D01*
X134362712Y-84823500D01*
X134407050Y-84780080D01*
X134413147Y-84772711D01*
X134726457Y-84388555D01*
X134760808Y-84336852D01*
X134795890Y-84285616D01*
X134800439Y-84277203D01*
X135033166Y-83839507D01*
X135056820Y-83782118D01*
X135081283Y-83725042D01*
X135084111Y-83715905D01*
X135227390Y-83241341D01*
X135239452Y-83180423D01*
X135252357Y-83119711D01*
X135253357Y-83110199D01*
X135301731Y-82616844D01*
X135301731Y-82586914D01*
X135304962Y-82557169D01*
X135304996Y-82547605D01*
X135304934Y-82529873D01*
X135301910Y-82500104D01*
X135302119Y-82470185D01*
X135301186Y-82460666D01*
X135271687Y-82180000D01*
X135566928Y-82180000D01*
X135579188Y-82304482D01*
X135615498Y-82424180D01*
X135674463Y-82534494D01*
X135753815Y-82631185D01*
X135850506Y-82710537D01*
X135960820Y-82769502D01*
X136080518Y-82805812D01*
X136205000Y-82818072D01*
X136581750Y-82815000D01*
X136740500Y-82656250D01*
X136740500Y-81407000D01*
X136994500Y-81407000D01*
X136994500Y-82656250D01*
X137153250Y-82815000D01*
X137530000Y-82818072D01*
X137654482Y-82805812D01*
X137774180Y-82769502D01*
X137884494Y-82710537D01*
X137981185Y-82631185D01*
X138060537Y-82534494D01*
X138119502Y-82424180D01*
X138155812Y-82304482D01*
X138168072Y-82180000D01*
X138165000Y-81565750D01*
X138006250Y-81407000D01*
X136994500Y-81407000D01*
X136740500Y-81407000D01*
X135728750Y-81407000D01*
X135570000Y-81565750D01*
X135566928Y-82180000D01*
X135271687Y-82180000D01*
X135249369Y-81967660D01*
X135236886Y-81906849D01*
X135225251Y-81845858D01*
X135222487Y-81836702D01*
X135075898Y-81363150D01*
X135051830Y-81305896D01*
X135028581Y-81248352D01*
X135024091Y-81239907D01*
X134788314Y-80803847D01*
X134753602Y-80752384D01*
X134719602Y-80700427D01*
X134713557Y-80693015D01*
X134454610Y-80380000D01*
X135566928Y-80380000D01*
X135570000Y-80994250D01*
X135728750Y-81153000D01*
X136740500Y-81153000D01*
X136740500Y-79903750D01*
X136994500Y-79903750D01*
X136994500Y-81153000D01*
X138006250Y-81153000D01*
X138165000Y-80994250D01*
X138168072Y-80380000D01*
X138155812Y-80255518D01*
X138119502Y-80135820D01*
X138060537Y-80025506D01*
X137981185Y-79928815D01*
X137884494Y-79849463D01*
X137774180Y-79790498D01*
X137654482Y-79754188D01*
X137530000Y-79741928D01*
X137153250Y-79745000D01*
X136994500Y-79903750D01*
X136740500Y-79903750D01*
X136581750Y-79745000D01*
X136205000Y-79741928D01*
X136080518Y-79754188D01*
X135960820Y-79790498D01*
X135850506Y-79849463D01*
X135753815Y-79928815D01*
X135674463Y-80025506D01*
X135615498Y-80135820D01*
X135579188Y-80255518D01*
X135566928Y-80380000D01*
X134454610Y-80380000D01*
X134397573Y-80311055D01*
X134353519Y-80267308D01*
X134310081Y-80222950D01*
X134302711Y-80216853D01*
X133918555Y-79903543D01*
X133866852Y-79869192D01*
X133815616Y-79834110D01*
X133807203Y-79829561D01*
X133369507Y-79596834D01*
X133312097Y-79573171D01*
X133255042Y-79548718D01*
X133245906Y-79545889D01*
X132845501Y-79425000D01*
X165066496Y-79425000D01*
X165459668Y-79463551D01*
X165805634Y-79568004D01*
X166124724Y-79737667D01*
X166404781Y-79966076D01*
X166635141Y-80244534D01*
X166807027Y-80562430D01*
X166913893Y-80907658D01*
X166955001Y-81298763D01*
X166955000Y-106646495D01*
X166916449Y-107039667D01*
X166811996Y-107385635D01*
X166642333Y-107704724D01*
X166413924Y-107984781D01*
X166135466Y-108215141D01*
X165817570Y-108387027D01*
X165472340Y-108493894D01*
X165081238Y-108535000D01*
X93774926Y-108535000D01*
X93965618Y-108433073D01*
X94194903Y-108244903D01*
X94383073Y-108015618D01*
X94522896Y-107754028D01*
X94566586Y-107610000D01*
X126756928Y-107610000D01*
X126769188Y-107734482D01*
X126805498Y-107854180D01*
X126864463Y-107964494D01*
X126943815Y-108061185D01*
X127040506Y-108140537D01*
X127150820Y-108199502D01*
X127270518Y-108235812D01*
X127395000Y-108248072D01*
X127984250Y-108245000D01*
X128143000Y-108086250D01*
X128143000Y-107087000D01*
X128397000Y-107087000D01*
X128397000Y-108086250D01*
X128555750Y-108245000D01*
X129145000Y-108248072D01*
X129269482Y-108235812D01*
X129389180Y-108199502D01*
X129499494Y-108140537D01*
X129596185Y-108061185D01*
X129675537Y-107964494D01*
X129734502Y-107854180D01*
X129770812Y-107734482D01*
X129783072Y-107610000D01*
X130566928Y-107610000D01*
X130579188Y-107734482D01*
X130615498Y-107854180D01*
X130674463Y-107964494D01*
X130753815Y-108061185D01*
X130850506Y-108140537D01*
X130960820Y-108199502D01*
X131080518Y-108235812D01*
X131205000Y-108248072D01*
X131794250Y-108245000D01*
X131953000Y-108086250D01*
X131953000Y-107087000D01*
X132207000Y-107087000D01*
X132207000Y-108086250D01*
X132365750Y-108245000D01*
X132955000Y-108248072D01*
X133079482Y-108235812D01*
X133199180Y-108199502D01*
X133309494Y-108140537D01*
X133406185Y-108061185D01*
X133485537Y-107964494D01*
X133544502Y-107854180D01*
X133580812Y-107734482D01*
X133593072Y-107610000D01*
X133592398Y-107530000D01*
X144561928Y-107530000D01*
X144574188Y-107654482D01*
X144610498Y-107774180D01*
X144669463Y-107884494D01*
X144748815Y-107981185D01*
X144845506Y-108060537D01*
X144955820Y-108119502D01*
X145075518Y-108155812D01*
X145200000Y-108168072D01*
X145764250Y-108165000D01*
X145923000Y-108006250D01*
X145923000Y-106807000D01*
X146177000Y-106807000D01*
X146177000Y-108006250D01*
X146335750Y-108165000D01*
X146900000Y-108168072D01*
X147024482Y-108155812D01*
X147144180Y-108119502D01*
X147254494Y-108060537D01*
X147351185Y-107981185D01*
X147430537Y-107884494D01*
X147489502Y-107774180D01*
X147525812Y-107654482D01*
X147533147Y-107580000D01*
X150806928Y-107580000D01*
X150819188Y-107704482D01*
X150855498Y-107824180D01*
X150914463Y-107934494D01*
X150993815Y-108031185D01*
X151090506Y-108110537D01*
X151200820Y-108169502D01*
X151320518Y-108205812D01*
X151445000Y-108218072D01*
X151821750Y-108215000D01*
X151980500Y-108056250D01*
X151980500Y-106807000D01*
X152234500Y-106807000D01*
X152234500Y-108056250D01*
X152393250Y-108215000D01*
X152770000Y-108218072D01*
X152894482Y-108205812D01*
X153014180Y-108169502D01*
X153124494Y-108110537D01*
X153221185Y-108031185D01*
X153300537Y-107934494D01*
X153359502Y-107824180D01*
X153395812Y-107704482D01*
X153408072Y-107580000D01*
X153405000Y-106965750D01*
X153246250Y-106807000D01*
X152234500Y-106807000D01*
X151980500Y-106807000D01*
X150968750Y-106807000D01*
X150810000Y-106965750D01*
X150806928Y-107580000D01*
X147533147Y-107580000D01*
X147538072Y-107530000D01*
X147535000Y-106965750D01*
X147376250Y-106807000D01*
X146177000Y-106807000D01*
X145923000Y-106807000D01*
X144723750Y-106807000D01*
X144565000Y-106965750D01*
X144561928Y-107530000D01*
X133592398Y-107530000D01*
X133590000Y-107245750D01*
X133431250Y-107087000D01*
X132207000Y-107087000D01*
X131953000Y-107087000D01*
X130728750Y-107087000D01*
X130570000Y-107245750D01*
X130566928Y-107610000D01*
X129783072Y-107610000D01*
X129780000Y-107245750D01*
X129621250Y-107087000D01*
X128397000Y-107087000D01*
X128143000Y-107087000D01*
X126918750Y-107087000D01*
X126760000Y-107245750D01*
X126756928Y-107610000D01*
X94566586Y-107610000D01*
X94608999Y-107470186D01*
X94638072Y-107175000D01*
X94638072Y-106310000D01*
X126756928Y-106310000D01*
X126760000Y-106674250D01*
X126918750Y-106833000D01*
X128143000Y-106833000D01*
X128143000Y-105833750D01*
X128397000Y-105833750D01*
X128397000Y-106833000D01*
X129621250Y-106833000D01*
X129780000Y-106674250D01*
X129783072Y-106310000D01*
X130566928Y-106310000D01*
X130570000Y-106674250D01*
X130728750Y-106833000D01*
X131953000Y-106833000D01*
X131953000Y-105833750D01*
X132207000Y-105833750D01*
X132207000Y-106833000D01*
X133431250Y-106833000D01*
X133590000Y-106674250D01*
X133593072Y-106310000D01*
X133580812Y-106185518D01*
X133544502Y-106065820D01*
X133485537Y-105955506D01*
X133406185Y-105858815D01*
X133309494Y-105779463D01*
X133199180Y-105720498D01*
X133079482Y-105684188D01*
X132955000Y-105671928D01*
X132365750Y-105675000D01*
X132207000Y-105833750D01*
X131953000Y-105833750D01*
X131794250Y-105675000D01*
X131205000Y-105671928D01*
X131080518Y-105684188D01*
X130960820Y-105720498D01*
X130850506Y-105779463D01*
X130753815Y-105858815D01*
X130674463Y-105955506D01*
X130615498Y-106065820D01*
X130579188Y-106185518D01*
X130566928Y-106310000D01*
X129783072Y-106310000D01*
X129770812Y-106185518D01*
X129734502Y-106065820D01*
X129675537Y-105955506D01*
X129596185Y-105858815D01*
X129499494Y-105779463D01*
X129389180Y-105720498D01*
X129269482Y-105684188D01*
X129145000Y-105671928D01*
X128555750Y-105675000D01*
X128397000Y-105833750D01*
X128143000Y-105833750D01*
X127984250Y-105675000D01*
X127395000Y-105671928D01*
X127270518Y-105684188D01*
X127150820Y-105720498D01*
X127040506Y-105779463D01*
X126943815Y-105858815D01*
X126864463Y-105955506D01*
X126805498Y-106065820D01*
X126769188Y-106185518D01*
X126756928Y-106310000D01*
X94638072Y-106310000D01*
X94638072Y-105425000D01*
X94608999Y-105129814D01*
X94522896Y-104845972D01*
X94383073Y-104584382D01*
X94194903Y-104355097D01*
X93965618Y-104166927D01*
X93704028Y-104027104D01*
X93575357Y-103988072D01*
X97000000Y-103988072D01*
X97124482Y-103975812D01*
X97244180Y-103939502D01*
X97354494Y-103880537D01*
X97451185Y-103801185D01*
X97530537Y-103704494D01*
X97589502Y-103594180D01*
X97625812Y-103474482D01*
X97638072Y-103350000D01*
X97638072Y-101355249D01*
X99115000Y-101355249D01*
X99115000Y-101844751D01*
X99210497Y-102324848D01*
X99397821Y-102777089D01*
X99669774Y-103184095D01*
X100015905Y-103530226D01*
X100422911Y-103802179D01*
X100875152Y-103989503D01*
X101355249Y-104085000D01*
X101844751Y-104085000D01*
X102324848Y-103989503D01*
X102777089Y-103802179D01*
X103184095Y-103530226D01*
X103530226Y-103184095D01*
X103802179Y-102777089D01*
X103989503Y-102324848D01*
X104085000Y-101844751D01*
X104085000Y-101355249D01*
X103989503Y-100875152D01*
X103802179Y-100422911D01*
X103530226Y-100015905D01*
X103449321Y-99935000D01*
X115446928Y-99935000D01*
X115459188Y-100059482D01*
X115495498Y-100179180D01*
X115554463Y-100289494D01*
X115633815Y-100386185D01*
X115730506Y-100465537D01*
X115840820Y-100524502D01*
X115960518Y-100560812D01*
X116085000Y-100573072D01*
X116424250Y-100570000D01*
X116583000Y-100411250D01*
X116583000Y-99187000D01*
X116837000Y-99187000D01*
X116837000Y-100411250D01*
X116995750Y-100570000D01*
X117335000Y-100573072D01*
X117459482Y-100560812D01*
X117579180Y-100524502D01*
X117689494Y-100465537D01*
X117786185Y-100386185D01*
X117865537Y-100289494D01*
X117924502Y-100179180D01*
X117960812Y-100059482D01*
X117973072Y-99935000D01*
X117970000Y-99345750D01*
X117811250Y-99187000D01*
X116837000Y-99187000D01*
X116583000Y-99187000D01*
X115608750Y-99187000D01*
X115450000Y-99345750D01*
X115446928Y-99935000D01*
X103449321Y-99935000D01*
X103184095Y-99669774D01*
X102777089Y-99397821D01*
X102324848Y-99210497D01*
X101844751Y-99115000D01*
X101355249Y-99115000D01*
X100875152Y-99210497D01*
X100422911Y-99397821D01*
X100015905Y-99669774D01*
X99669774Y-100015905D01*
X99397821Y-100422911D01*
X99210497Y-100875152D01*
X99115000Y-101355249D01*
X97638072Y-101355249D01*
X97638072Y-99850000D01*
X97625812Y-99725518D01*
X97589502Y-99605820D01*
X97530537Y-99495506D01*
X97451185Y-99398815D01*
X97354494Y-99319463D01*
X97244180Y-99260498D01*
X97124482Y-99224188D01*
X97000000Y-99211928D01*
X93500000Y-99211928D01*
X93375518Y-99224188D01*
X93255820Y-99260498D01*
X93145506Y-99319463D01*
X93048815Y-99398815D01*
X92969463Y-99495506D01*
X92910498Y-99605820D01*
X92874188Y-99725518D01*
X92861928Y-99850000D01*
X92861928Y-103350000D01*
X92874188Y-103474482D01*
X92910498Y-103594180D01*
X92969463Y-103704494D01*
X93048815Y-103801185D01*
X93145506Y-103880537D01*
X93222131Y-103921494D01*
X93125000Y-103911928D01*
X91375000Y-103911928D01*
X91079814Y-103941001D01*
X90795972Y-104027104D01*
X90534382Y-104166927D01*
X90305097Y-104355097D01*
X90116927Y-104584382D01*
X89977104Y-104845972D01*
X89891001Y-105129814D01*
X89861928Y-105425000D01*
X89861928Y-107175000D01*
X89891001Y-107470186D01*
X89977104Y-107754028D01*
X90116927Y-108015618D01*
X90305097Y-108244903D01*
X90534382Y-108433073D01*
X90725074Y-108535000D01*
X88933505Y-108535000D01*
X88540333Y-108496449D01*
X88194365Y-108391996D01*
X87875276Y-108222333D01*
X87595219Y-107993924D01*
X87364859Y-107715466D01*
X87192973Y-107397570D01*
X87086106Y-107052340D01*
X87045000Y-106661238D01*
X87045000Y-103350000D01*
X87111928Y-103350000D01*
X87124188Y-103474482D01*
X87160498Y-103594180D01*
X87219463Y-103704494D01*
X87298815Y-103801185D01*
X87395506Y-103880537D01*
X87505820Y-103939502D01*
X87625518Y-103975812D01*
X87750000Y-103988072D01*
X88964250Y-103985000D01*
X89123000Y-103826250D01*
X89123000Y-101727000D01*
X89377000Y-101727000D01*
X89377000Y-103826250D01*
X89535750Y-103985000D01*
X90750000Y-103988072D01*
X90874482Y-103975812D01*
X90994180Y-103939502D01*
X91104494Y-103880537D01*
X91201185Y-103801185D01*
X91280537Y-103704494D01*
X91339502Y-103594180D01*
X91375812Y-103474482D01*
X91388072Y-103350000D01*
X91385000Y-101885750D01*
X91226250Y-101727000D01*
X89377000Y-101727000D01*
X89123000Y-101727000D01*
X87273750Y-101727000D01*
X87115000Y-101885750D01*
X87111928Y-103350000D01*
X87045000Y-103350000D01*
X87045000Y-99850000D01*
X87111928Y-99850000D01*
X87115000Y-101314250D01*
X87273750Y-101473000D01*
X89123000Y-101473000D01*
X89123000Y-99373750D01*
X89377000Y-99373750D01*
X89377000Y-101473000D01*
X91226250Y-101473000D01*
X91385000Y-101314250D01*
X91388072Y-99850000D01*
X91375812Y-99725518D01*
X91339502Y-99605820D01*
X91280537Y-99495506D01*
X91201185Y-99398815D01*
X91104494Y-99319463D01*
X90994180Y-99260498D01*
X90874482Y-99224188D01*
X90750000Y-99211928D01*
X89535750Y-99215000D01*
X89377000Y-99373750D01*
X89123000Y-99373750D01*
X88964250Y-99215000D01*
X87750000Y-99211928D01*
X87625518Y-99224188D01*
X87505820Y-99260498D01*
X87395506Y-99319463D01*
X87298815Y-99398815D01*
X87219463Y-99495506D01*
X87160498Y-99605820D01*
X87124188Y-99725518D01*
X87111928Y-99850000D01*
X87045000Y-99850000D01*
X87045000Y-86900000D01*
X91194025Y-86900000D01*
X91217870Y-87142102D01*
X91288489Y-87374901D01*
X91403167Y-87589449D01*
X91557498Y-87777502D01*
X91706762Y-87900000D01*
X91557498Y-88022498D01*
X91403167Y-88210551D01*
X91288489Y-88425099D01*
X91217870Y-88657898D01*
X91194025Y-88900000D01*
X91217870Y-89142102D01*
X91288489Y-89374901D01*
X91403167Y-89589449D01*
X91557498Y-89777502D01*
X91706762Y-89900000D01*
X91557498Y-90022498D01*
X91403167Y-90210551D01*
X91288489Y-90425099D01*
X91217870Y-90657898D01*
X91194025Y-90900000D01*
X91217870Y-91142102D01*
X91288489Y-91374901D01*
X91403167Y-91589449D01*
X91557498Y-91777502D01*
X91745551Y-91931833D01*
X91960099Y-92046511D01*
X92192898Y-92117130D01*
X92374335Y-92135000D01*
X93045665Y-92135000D01*
X93227102Y-92117130D01*
X93459901Y-92046511D01*
X93674449Y-91931833D01*
X93862502Y-91777502D01*
X94016833Y-91589449D01*
X94131511Y-91374901D01*
X94202130Y-91142102D01*
X94225975Y-90900000D01*
X94202130Y-90657898D01*
X94160008Y-90519039D01*
X97668096Y-90519039D01*
X97708754Y-90653087D01*
X97828963Y-90907420D01*
X97996481Y-91133414D01*
X98204869Y-91322385D01*
X98446119Y-91467070D01*
X98710960Y-91561909D01*
X98933000Y-91440624D01*
X98933000Y-90297000D01*
X99187000Y-90297000D01*
X99187000Y-91440624D01*
X99409040Y-91561909D01*
X99673881Y-91467070D01*
X99915131Y-91322385D01*
X100123519Y-91133414D01*
X100291037Y-90907420D01*
X100411246Y-90653087D01*
X100451904Y-90519039D01*
X100329915Y-90297000D01*
X99187000Y-90297000D01*
X98933000Y-90297000D01*
X97790085Y-90297000D01*
X97668096Y-90519039D01*
X94160008Y-90519039D01*
X94131511Y-90425099D01*
X94016833Y-90210551D01*
X93862502Y-90022498D01*
X93713238Y-89900000D01*
X93862502Y-89777502D01*
X94016833Y-89589449D01*
X94131511Y-89374901D01*
X94202130Y-89142102D01*
X94225975Y-88900000D01*
X94202130Y-88657898D01*
X94131511Y-88425099D01*
X94016833Y-88210551D01*
X93862502Y-88022498D01*
X93713238Y-87900000D01*
X93862502Y-87777502D01*
X94016833Y-87589449D01*
X94131511Y-87374901D01*
X94202130Y-87142102D01*
X94225975Y-86900000D01*
X94202130Y-86657898D01*
X94131511Y-86425099D01*
X94016833Y-86210551D01*
X93890564Y-86056691D01*
X93939494Y-86030537D01*
X94036185Y-85951185D01*
X94115537Y-85854494D01*
X94174502Y-85744180D01*
X94210812Y-85624482D01*
X94223072Y-85500000D01*
X94220000Y-85185750D01*
X94061250Y-85027000D01*
X92837000Y-85027000D01*
X92837000Y-85047000D01*
X92583000Y-85047000D01*
X92583000Y-85027000D01*
X91358750Y-85027000D01*
X91200000Y-85185750D01*
X91196928Y-85500000D01*
X91209188Y-85624482D01*
X91245498Y-85744180D01*
X91304463Y-85854494D01*
X91383815Y-85951185D01*
X91480506Y-86030537D01*
X91529436Y-86056691D01*
X91403167Y-86210551D01*
X91288489Y-86425099D01*
X91217870Y-86657898D01*
X91194025Y-86900000D01*
X87045000Y-86900000D01*
X87045000Y-84300000D01*
X91196928Y-84300000D01*
X91200000Y-84614250D01*
X91358750Y-84773000D01*
X92583000Y-84773000D01*
X92583000Y-83823750D01*
X92837000Y-83823750D01*
X92837000Y-84773000D01*
X94061250Y-84773000D01*
X94220000Y-84614250D01*
X94223072Y-84300000D01*
X94210812Y-84175518D01*
X94174502Y-84055820D01*
X94115537Y-83945506D01*
X94036185Y-83848815D01*
X93939494Y-83769463D01*
X93829180Y-83710498D01*
X93709482Y-83674188D01*
X93585000Y-83661928D01*
X92995750Y-83665000D01*
X92837000Y-83823750D01*
X92583000Y-83823750D01*
X92424250Y-83665000D01*
X91835000Y-83661928D01*
X91710518Y-83674188D01*
X91590820Y-83710498D01*
X91480506Y-83769463D01*
X91383815Y-83848815D01*
X91304463Y-83945506D01*
X91245498Y-84055820D01*
X91209188Y-84175518D01*
X91196928Y-84300000D01*
X87045000Y-84300000D01*
X87045000Y-81313504D01*
X87083551Y-80920332D01*
X87188004Y-80574366D01*
X87357667Y-80255276D01*
X87586076Y-79975219D01*
X87864534Y-79744859D01*
X88182430Y-79572973D01*
X88527658Y-79466107D01*
X88918753Y-79425000D01*
X104468356Y-79425000D01*
X100493125Y-83400233D01*
G37*
%TD.AperFunction*%
%TD*%
M02*
