M48
; DRILL file {KiCad 5.1.8+dfsg1-1+b1} date Sat Apr 24 17:30:02 2021
; FORMAT={-:-/ absolute / inch / decimal}
; #@! TF.CreationDate,2021-04-24T17:30:02-05:00
; #@! TF.GenerationSoftware,Kicad,Pcbnew,5.1.8+dfsg1-1+b1
; #@! TF.FileFunction,Plated,1,2,PTH
FMAT,2
INCH
T1C0.0157
T2C0.0295
T3C0.0315
T4C0.0394
%
G90
G05
T1
X4.1Y-3.7
X4.2Y-3.75
X4.3Y-3.85
X5.05Y-3.85
X5.35Y-3.45
X6.05Y-3.4
X6.2Y-3.7
T2
X3.65Y-3.3425
X3.65Y-3.4213
X3.65Y-3.5
X3.65Y-3.5787
X6.35Y-3.3425
X6.35Y-3.4213
X6.35Y-3.5
X6.35Y-3.5787
T3
X3.9Y-3.25
X3.9Y-3.35
X3.9Y-3.45
X3.9Y-3.55
X4.2Y-3.25
X4.2Y-3.35
X4.2Y-3.45
X4.2Y-3.55
X4.45Y-3.525
X4.45Y-4.125
X4.55Y-3.525
X4.55Y-4.125
X5.25Y-3.525
X5.45Y-3.525
X5.45Y-4.125
X5.55Y-3.525
X5.55Y-4.125
T4
X5.75Y-3.9
X5.75Y-4.0
X5.75Y-4.1
X5.75Y-4.2
X4.45Y-3.25
X4.55Y-3.25
T4
G00X6.25Y-4.0394
M15
G01X6.25Y-3.9606
M16
G05
G00X6.4075Y-3.815
M15
G01X6.3287Y-3.815
M16
G05
G00X6.4862Y-4.0394
M15
G01X6.4862Y-3.9606
M16
G05
G00X3.5138Y-3.9606
M15
G01X3.5138Y-4.0394
M16
G05
G00X3.5925Y-4.185
M15
G01X3.6713Y-4.185
M16
G05
G00X3.75Y-3.9606
M15
G01X3.75Y-4.0394
M16
G05
T0
M30
