%TF.GenerationSoftware,KiCad,Pcbnew,5.1.8+dfsg1-1+b1*%
%TF.CreationDate,2021-03-06T12:09:01-06:00*%
%TF.ProjectId,driver,64726976-6572-42e6-9b69-6361645f7063,B*%
%TF.SameCoordinates,Original*%
%TF.FileFunction,Paste,Top*%
%TF.FilePolarity,Positive*%
%FSLAX46Y46*%
G04 Gerber Fmt 4.6, Leading zero omitted, Abs format (unit mm)*
G04 Created by KiCad (PCBNEW 5.1.8+dfsg1-1+b1) date 2021-03-06 12:09:01*
%MOMM*%
%LPD*%
G01*
G04 APERTURE LIST*
%TA.AperFunction,Profile*%
%ADD10C,0.100000*%
%TD*%
%ADD11R,2.500000X2.500000*%
G04 APERTURE END LIST*
D10*
X121920000Y-85090000D02*
G75*
G02*
X119380000Y-82550000I0J2540000D01*
G01*
X165100000Y-78740000D02*
X88900000Y-78740000D01*
X119380000Y-82550000D02*
G75*
G02*
X121920000Y-80010000I2540000J0D01*
G01*
X132080000Y-80010000D02*
G75*
G02*
X134620000Y-82550000I0J-2540000D01*
G01*
X134620000Y-82550000D02*
G75*
G02*
X132080000Y-85090000I-2540000J0D01*
G01*
X132080000Y-80010000D02*
X121920000Y-80010000D01*
X132080000Y-85090000D02*
X121920000Y-85090000D01*
X165100000Y-109220000D02*
X88900000Y-109220000D01*
X86360000Y-81280000D02*
X86360000Y-106680000D01*
X167640000Y-106680000D02*
X167640000Y-81280000D01*
X86360000Y-81280000D02*
G75*
G02*
X88900000Y-78740000I2540000J0D01*
G01*
X88900000Y-109220000D02*
G75*
G02*
X86360000Y-106680000I0J2540000D01*
G01*
X167640000Y-106680000D02*
G75*
G02*
X165100000Y-109220000I-2540000J0D01*
G01*
X165100000Y-78740000D02*
G75*
G02*
X167640000Y-81280000I0J-2540000D01*
G01*
D11*
%TO.C,PS1*%
X154090000Y-81630000D03*
X143090000Y-81630000D03*
X143090000Y-93630000D03*
X154090000Y-93630000D03*
%TD*%
%TO.C,R7*%
G36*
G01*
X127645000Y-106310000D02*
X128895000Y-106310000D01*
G75*
G02*
X129145000Y-106560000I0J-250000D01*
G01*
X129145000Y-107360000D01*
G75*
G02*
X128895000Y-107610000I-250000J0D01*
G01*
X127645000Y-107610000D01*
G75*
G02*
X127395000Y-107360000I0J250000D01*
G01*
X127395000Y-106560000D01*
G75*
G02*
X127645000Y-106310000I250000J0D01*
G01*
G37*
G36*
G01*
X127645000Y-103210000D02*
X128895000Y-103210000D01*
G75*
G02*
X129145000Y-103460000I0J-250000D01*
G01*
X129145000Y-104260000D01*
G75*
G02*
X128895000Y-104510000I-250000J0D01*
G01*
X127645000Y-104510000D01*
G75*
G02*
X127395000Y-104260000I0J250000D01*
G01*
X127395000Y-103460000D01*
G75*
G02*
X127645000Y-103210000I250000J0D01*
G01*
G37*
%TD*%
%TO.C,R6*%
G36*
G01*
X131455000Y-106310000D02*
X132705000Y-106310000D01*
G75*
G02*
X132955000Y-106560000I0J-250000D01*
G01*
X132955000Y-107360000D01*
G75*
G02*
X132705000Y-107610000I-250000J0D01*
G01*
X131455000Y-107610000D01*
G75*
G02*
X131205000Y-107360000I0J250000D01*
G01*
X131205000Y-106560000D01*
G75*
G02*
X131455000Y-106310000I250000J0D01*
G01*
G37*
G36*
G01*
X131455000Y-103210000D02*
X132705000Y-103210000D01*
G75*
G02*
X132955000Y-103460000I0J-250000D01*
G01*
X132955000Y-104260000D01*
G75*
G02*
X132705000Y-104510000I-250000J0D01*
G01*
X131455000Y-104510000D01*
G75*
G02*
X131205000Y-104260000I0J250000D01*
G01*
X131205000Y-103460000D01*
G75*
G02*
X131455000Y-103210000I250000J0D01*
G01*
G37*
%TD*%
%TO.C,R5*%
G36*
G01*
X136790000Y-94605001D02*
X136790000Y-93354999D01*
G75*
G02*
X137039999Y-93105000I249999J0D01*
G01*
X137840001Y-93105000D01*
G75*
G02*
X138090000Y-93354999I0J-249999D01*
G01*
X138090000Y-94605001D01*
G75*
G02*
X137840001Y-94855000I-249999J0D01*
G01*
X137039999Y-94855000D01*
G75*
G02*
X136790000Y-94605001I0J249999D01*
G01*
G37*
G36*
G01*
X133690000Y-94605001D02*
X133690000Y-93354999D01*
G75*
G02*
X133939999Y-93105000I249999J0D01*
G01*
X134740001Y-93105000D01*
G75*
G02*
X134990000Y-93354999I0J-249999D01*
G01*
X134990000Y-94605001D01*
G75*
G02*
X134740001Y-94855000I-249999J0D01*
G01*
X133939999Y-94855000D01*
G75*
G02*
X133690000Y-94605001I0J249999D01*
G01*
G37*
%TD*%
%TO.C,R2*%
G36*
G01*
X119010000Y-94605001D02*
X119010000Y-93354999D01*
G75*
G02*
X119259999Y-93105000I249999J0D01*
G01*
X120060001Y-93105000D01*
G75*
G02*
X120310000Y-93354999I0J-249999D01*
G01*
X120310000Y-94605001D01*
G75*
G02*
X120060001Y-94855000I-249999J0D01*
G01*
X119259999Y-94855000D01*
G75*
G02*
X119010000Y-94605001I0J249999D01*
G01*
G37*
G36*
G01*
X115910000Y-94605001D02*
X115910000Y-93354999D01*
G75*
G02*
X116159999Y-93105000I249999J0D01*
G01*
X116960001Y-93105000D01*
G75*
G02*
X117210000Y-93354999I0J-249999D01*
G01*
X117210000Y-94605001D01*
G75*
G02*
X116960001Y-94855000I-249999J0D01*
G01*
X116159999Y-94855000D01*
G75*
G02*
X115910000Y-94605001I0J249999D01*
G01*
G37*
%TD*%
%TO.C,C3*%
G36*
G01*
X137530000Y-80629998D02*
X137530000Y-81930002D01*
G75*
G02*
X137280002Y-82180000I-249998J0D01*
G01*
X136454998Y-82180000D01*
G75*
G02*
X136205000Y-81930002I0J249998D01*
G01*
X136205000Y-80629998D01*
G75*
G02*
X136454998Y-80380000I249998J0D01*
G01*
X137280002Y-80380000D01*
G75*
G02*
X137530000Y-80629998I0J-249998D01*
G01*
G37*
G36*
G01*
X140655000Y-80629998D02*
X140655000Y-81930002D01*
G75*
G02*
X140405002Y-82180000I-249998J0D01*
G01*
X139579998Y-82180000D01*
G75*
G02*
X139330000Y-81930002I0J249998D01*
G01*
X139330000Y-80629998D01*
G75*
G02*
X139579998Y-80380000I249998J0D01*
G01*
X140405002Y-80380000D01*
G75*
G02*
X140655000Y-80629998I0J-249998D01*
G01*
G37*
%TD*%
%TO.C,C2*%
G36*
G01*
X154570000Y-107330002D02*
X154570000Y-106029998D01*
G75*
G02*
X154819998Y-105780000I249998J0D01*
G01*
X155645002Y-105780000D01*
G75*
G02*
X155895000Y-106029998I0J-249998D01*
G01*
X155895000Y-107330002D01*
G75*
G02*
X155645002Y-107580000I-249998J0D01*
G01*
X154819998Y-107580000D01*
G75*
G02*
X154570000Y-107330002I0J249998D01*
G01*
G37*
G36*
G01*
X151445000Y-107330002D02*
X151445000Y-106029998D01*
G75*
G02*
X151694998Y-105780000I249998J0D01*
G01*
X152520002Y-105780000D01*
G75*
G02*
X152770000Y-106029998I0J-249998D01*
G01*
X152770000Y-107330002D01*
G75*
G02*
X152520002Y-107580000I-249998J0D01*
G01*
X151694998Y-107580000D01*
G75*
G02*
X151445000Y-107330002I0J249998D01*
G01*
G37*
%TD*%
%TO.C,D1*%
G36*
G01*
X136665000Y-99685000D02*
X136665000Y-98435000D01*
G75*
G02*
X136915000Y-98185000I250000J0D01*
G01*
X137665000Y-98185000D01*
G75*
G02*
X137915000Y-98435000I0J-250000D01*
G01*
X137915000Y-99685000D01*
G75*
G02*
X137665000Y-99935000I-250000J0D01*
G01*
X136915000Y-99935000D01*
G75*
G02*
X136665000Y-99685000I0J250000D01*
G01*
G37*
G36*
G01*
X133865000Y-99685000D02*
X133865000Y-98435000D01*
G75*
G02*
X134115000Y-98185000I250000J0D01*
G01*
X134865000Y-98185000D01*
G75*
G02*
X135115000Y-98435000I0J-250000D01*
G01*
X135115000Y-99685000D01*
G75*
G02*
X134865000Y-99935000I-250000J0D01*
G01*
X134115000Y-99935000D01*
G75*
G02*
X133865000Y-99685000I0J250000D01*
G01*
G37*
%TD*%
%TO.C,D2*%
G36*
G01*
X118885000Y-99685000D02*
X118885000Y-98435000D01*
G75*
G02*
X119135000Y-98185000I250000J0D01*
G01*
X119885000Y-98185000D01*
G75*
G02*
X120135000Y-98435000I0J-250000D01*
G01*
X120135000Y-99685000D01*
G75*
G02*
X119885000Y-99935000I-250000J0D01*
G01*
X119135000Y-99935000D01*
G75*
G02*
X118885000Y-99685000I0J250000D01*
G01*
G37*
G36*
G01*
X116085000Y-99685000D02*
X116085000Y-98435000D01*
G75*
G02*
X116335000Y-98185000I250000J0D01*
G01*
X117085000Y-98185000D01*
G75*
G02*
X117335000Y-98435000I0J-250000D01*
G01*
X117335000Y-99685000D01*
G75*
G02*
X117085000Y-99935000I-250000J0D01*
G01*
X116335000Y-99935000D01*
G75*
G02*
X116085000Y-99685000I0J250000D01*
G01*
G37*
%TD*%
M02*
