<svg version="1.1" xmlns="http://www.w3.org/2000/svg" xmlns:xlink="http://www.w3.org/1999/xlink" stroke-linecap="round" stroke-linejoin="round" stroke-width="0" fill-rule="evenodd" clip-rule="evenodd" id="L17sRIUP0i91_bottom" viewBox="86360 -109220 81280 30480" width="81.28mm" height="30.48mm"><defs><style>.L17sRIUP0i91_fr4 {color: #666666;}
.L17sRIUP0i91_cu {color: #cccccc;}
.L17sRIUP0i91_cf {color: #cc9933;}
.L17sRIUP0i91_sm {color: #ff0000; opacity: 0.75;}
.L17sRIUP0i91_ss {color: #ffffff;}
.L17sRIUP0i91_sp {color: #999999;}
.L17sRIUP0i91_out {color: #000000;}</style><circle cx="0" cy="0" r="650" id="MLkaKsfq9gXe_pad-11"/><circle cx="0" cy="0" r="1500" id="MLkaKsfq9gXe_pad-12"/><rect x="-611" y="-611" width="1222" height="1222" id="MLkaKsfq9gXe_pad-13"/><circle cx="0" cy="0" r="611" id="MLkaKsfq9gXe_pad-14"/><rect x="-1750" y="-1750" width="3500" height="3500" id="MLkaKsfq9gXe_pad-15"/><rect x="-850" y="-850" width="1700" height="1700" rx="850" ry="850" id="MLkaKsfq9gXe_pad-16"/><rect x="-850" y="-850" width="1700" height="1700" id="MLkaKsfq9gXe_pad-17"/><circle cx="0" cy="0" r="650" id="JPh87-20BU9Z_pad-11"/><circle cx="0" cy="0" r="1500" id="JPh87-20BU9Z_pad-12"/><rect x="-611" y="-611" width="1222" height="1222" id="JPh87-20BU9Z_pad-13"/><circle cx="0" cy="0" r="611" id="JPh87-20BU9Z_pad-14"/><circle cx="0" cy="0" r="1850" id="JPh87-20BU9Z_pad-15"/><rect x="-1750" y="-1750" width="3500" height="3500" id="JPh87-20BU9Z_pad-16"/><rect x="-850" y="-850" width="1700" height="1700" rx="850" ry="850" id="JPh87-20BU9Z_pad-17"/><rect x="-850" y="-850" width="1700" height="1700" id="JPh87-20BU9Z_pad-18"/><circle cx="0" cy="0" r="72.85" id="N-pHFtv1jkQ5_pad-1"/><circle cx="0" cy="0" r="14.05" id="eq047J7Obb65_pad-1"/><circle cx="0" cy="0" r="15.75" id="eq047J7Obb65_pad-2"/><circle cx="0" cy="0" r="19.7" id="eq047J7Obb65_pad-3"/><circle cx="0" cy="0" r="29.55" id="eq047J7Obb65_pad-4"/><g id="L17sRIUP0i91_bottom_copper"><path d="M 121920 -85090 A 2540 2540 0 0 0 119380 -82550 M 165100 -78740 88900 -78740 M 119380 -82550 A 2540 2540 0 0 0 121920 -80010 M 132080 -80010 A 2540 2540 0 0 0 134620 -82550 2540 2540 0 0 0 132080 -85090 M 132080 -80010 121920 -80010 M 132080 -85090 121920 -85090 M 165100 -109220 88900 -109220 M 86360 -81280 86360 -106680 M 167640 -106680 167640 -81280 M 86360 -81280 A 2540 2540 0 0 0 88900 -78740 M 88900 -109220 A 2540 2540 0 0 0 86360 -106680 M 167640 -106680 A 2540 2540 0 0 0 165100 -109220 M 165100 -78740 A 2540 2540 0 0 0 167640 -81280" fill="none" stroke-width="100"/><use xlink:href="#MLkaKsfq9gXe_pad-11" x="140970" y="-89535"/><use xlink:href="#MLkaKsfq9gXe_pad-11" x="138430" y="-89535"/><use xlink:href="#MLkaKsfq9gXe_pad-11" x="133350" y="-89535"/><use xlink:href="#MLkaKsfq9gXe_pad-11" x="115570" y="-89535"/><use xlink:href="#MLkaKsfq9gXe_pad-11" x="113030" y="-89535"/><use xlink:href="#MLkaKsfq9gXe_pad-11" x="113030" y="-104775"/><use xlink:href="#MLkaKsfq9gXe_pad-11" x="115570" y="-104775"/><use xlink:href="#MLkaKsfq9gXe_pad-11" x="138430" y="-104775"/><use xlink:href="#MLkaKsfq9gXe_pad-11" x="140970" y="-104775"/><use xlink:href="#MLkaKsfq9gXe_pad-12" x="164465" y="-82550"/><use xlink:href="#MLkaKsfq9gXe_pad-12" x="164465" y="-88900"/><use xlink:href="#MLkaKsfq9gXe_pad-12" x="89535" y="-82550"/><use xlink:href="#MLkaKsfq9gXe_pad-13" x="95250" y="-86360"/><use xlink:href="#MLkaKsfq9gXe_pad-14" x="97790" y="-83820"/><use xlink:href="#MLkaKsfq9gXe_pad-14" x="100330" y="-86360"/><use xlink:href="#MLkaKsfq9gXe_pad-15" x="95250" y="-101600"/><path d="M 87750 -102600 87750 -100600 A 750 750 0 0 0 88500 -99850 L 90000 -99850 A 750 750 0 0 0 90750 -100600 L 90750 -102600 A 750 750 0 0 0 90000 -103350 L 88500 -103350 A 750 750 0 0 0 87750 -102600"/><path d="M 90500 -107175 90500 -105425 A 875 875 0 0 0 91375 -104550 L 93125 -104550 A 875 875 0 0 0 94000 -105425 L 94000 -107175 A 875 875 0 0 0 93125 -108050 L 91375 -108050 A 875 875 0 0 0 90500 -107175"/><path d="M 163500 -96025 163500 -97775 A 875 875 0 0 0 162625 -98650 L 160875 -98650 A 875 875 0 0 0 160000 -97775 L 160000 -96025 A 875 875 0 0 0 160875 -95150 L 162625 -95150 A 875 875 0 0 0 163500 -96025"/><path d="M 166250 -100600 166250 -102600 A 750 750 0 0 0 165500 -103350 L 164000 -103350 A 750 750 0 0 0 163250 -102600 L 163250 -100600 A 750 750 0 0 0 164000 -99850 L 165500 -99850 A 750 750 0 0 0 166250 -100600"/><use xlink:href="#MLkaKsfq9gXe_pad-15" x="158750" y="-101600"/><use xlink:href="#MLkaKsfq9gXe_pad-16" x="146050" y="-99060"/><use xlink:href="#MLkaKsfq9gXe_pad-16" x="146050" y="-101600"/><use xlink:href="#MLkaKsfq9gXe_pad-16" x="146050" y="-104140"/><use xlink:href="#MLkaKsfq9gXe_pad-17" x="146050" y="-106680"/><use xlink:href="#MLkaKsfq9gXe_pad-17" x="113030" y="-82550"/><use xlink:href="#MLkaKsfq9gXe_pad-16" x="115570" y="-82550"/><path d="M 130175 -86360 133350 -89535 M 100330 -86360 130175 -86360" fill="none" stroke-width="889"/><path d="M 120733.15 -79554.102 120675.896 -79578.17 120618.352 -79601.419 120609.907 -79605.909 120173.847 -79841.686 120122.384 -79876.398 120070.427 -79910.398 120063.015 -79916.443 119681.055 -80232.427 119637.308 -80276.481 119592.95 -80319.919 119586.853 -80327.289 119273.543 -80711.445 119239.192 -80763.148 119204.11 -80814.384 119199.561 -80822.797 118966.834 -81260.493 118943.171 -81317.903 118918.718 -81374.958 118915.889 -81384.094 118772.61 -81858.659 118760.548 -81919.577 118747.643 -81980.289 118746.643 -81989.8 118698.269 -82483.156 118698.269 -82513.086 118695.038 -82542.831 118695.004 -82552.395 118695.066 -82570.127 118698.09 -82599.896 118697.881 -82629.815 118698.814 -82639.334 118750.632 -83132.34 118763.109 -83193.121 118774.749 -83254.142 118777.513 -83263.298 118924.103 -83736.851 118948.167 -83794.097 118971.419 -83851.648 118975.907 -83860.089 118975.909 -83860.094 118975.912 -83860.098 119211.686 -84296.153 119246.398 -84347.616 119280.398 -84399.573 119286.443 -84406.985 119602.427 -84788.945 119646.5 -84832.712 119689.92 -84877.05 119697.289 -84883.147 120081.445 -85196.457 120133.148 -85230.808 120184.384 -85265.89 120192.797 -85270.439 120211.719 -85280.5 100957.155 -85280.5 100920.202 -85255.809 100693.445 -85161.883 100452.72 -85114 100207.28 -85114 99966.555 -85161.883 99739.798 -85255.809 99535.721 -85392.168 99362.168 -85565.721 99225.809 -85769.798 99131.883 -85996.555 99084 -86237.28 99084 -86482.72 99131.883 -86723.445 99225.809 -86950.202 99362.168 -87154.279 99535.721 -87327.832 99739.798 -87464.191 99966.555 -87558.117 100207.28 -87606 100452.72 -87606 100693.445 -87558.117 100920.202 -87464.191 100957.155 -87439.5 129727.858 -87439.5 132093.574 -89805.217 132114.381 -89909.821 132211.247 -90143.676 132351.875 -90354.14 132530.86 -90533.125 132741.324 -90673.753 132975.179 -90770.619 133223.439 -90820 133476.561 -90820 133724.821 -90770.619 133958.676 -90673.753 134169.14 -90533.125 134348.125 -90354.14 134488.753 -90143.676 134585.619 -89909.821 134635 -89661.561 134635 -89408.439 137145 -89408.439 137145 -89661.561 137194.381 -89909.821 137291.247 -90143.676 137431.875 -90354.14 137610.86 -90533.125 137821.324 -90673.753 138055.179 -90770.619 138303.439 -90820 138556.561 -90820 138804.821 -90770.619 139038.676 -90673.753 139249.14 -90533.125 139428.125 -90354.14 139568.753 -90143.676 139665.619 -89909.821 139700 -89736.973 139734.381 -89909.821 139831.247 -90143.676 139971.875 -90354.14 140150.86 -90533.125 140361.324 -90673.753 140595.179 -90770.619 140843.439 -90820 141096.561 -90820 141344.821 -90770.619 141578.676 -90673.753 141789.14 -90533.125 141968.125 -90354.14 142108.753 -90143.676 142205.619 -89909.821 142255 -89661.561 142255 -89408.439 142205.619 -89160.179 142108.753 -88926.324 141968.125 -88715.86 141941.986 -88689.721 162330 -88689.721 162330 -89110.279 162412.047 -89522.756 162572.988 -89911.302 162806.637 -90260.983 163104.017 -90558.363 163453.698 -90792.012 163842.244 -90952.953 164254.721 -91035 164675.279 -91035 165087.756 -90952.953 165476.302 -90792.012 165825.983 -90558.363 166123.363 -90260.983 166357.012 -89911.302 166517.953 -89522.756 166600 -89110.279 166600 -88689.721 166517.953 -88277.244 166357.012 -87888.698 166123.363 -87539.017 165825.983 -87241.637 165476.302 -87007.988 165087.756 -86847.047 164675.279 -86765 164254.721 -86765 163842.244 -86847.047 163453.698 -87007.988 163104.017 -87241.637 162806.637 -87539.017 162572.988 -87888.698 162412.047 -88277.244 162330 -88689.721 141941.986 -88689.721 141789.14 -88536.875 141578.676 -88396.247 141344.821 -88299.381 141096.561 -88250 140843.439 -88250 140595.179 -88299.381 140361.324 -88396.247 140150.86 -88536.875 139971.875 -88715.86 139831.247 -88926.324 139734.381 -89160.179 139700 -89333.027 139665.619 -89160.179 139568.753 -88926.324 139428.125 -88715.86 139249.14 -88536.875 139038.676 -88396.247 138804.821 -88299.381 138556.561 -88250 138303.439 -88250 138055.179 -88299.381 137821.324 -88396.247 137610.86 -88536.875 137431.875 -88715.86 137291.247 -88926.324 137194.381 -89160.179 137145 -89408.439 134635 -89408.439 134585.619 -89160.179 134488.753 -88926.324 134348.125 -88715.86 134169.14 -88536.875 133958.676 -88396.247 133724.821 -88299.381 133620.217 -88278.574 131116.642 -85775 132113.647 -85775 132144.018 -85772.009 132159.815 -85772.119 132169.334 -85771.186 132662.34 -85719.368 132723.121 -85706.891 132784.142 -85695.251 132793.298 -85692.487 133266.851 -85545.897 133324.097 -85521.833 133381.648 -85498.581 133390.089 -85494.093 133390.094 -85494.091 133390.098 -85494.088 133826.153 -85258.314 133877.616 -85223.602 133929.573 -85189.602 133936.985 -85183.557 134318.945 -84867.573 134362.712 -84823.5 134407.05 -84780.08 134413.147 -84772.711 134726.457 -84388.555 134760.808 -84336.852 134795.89 -84285.616 134800.439 -84277.203 134925.683 -84041.653 163152.952 -84041.653 163308.962 -84357.214 163683.745 -84548.02 164088.551 -84662.044 164507.824 -84694.902 164925.451 -84645.334 165325.383 -84515.243 165621.038 -84357.214 165777.048 -84041.653 164465 -82729.605 163152.952 -84041.653 134925.683 -84041.653 135033.166 -83839.507 135056.82 -83782.118 135081.283 -83725.042 135084.111 -83715.905 135227.39 -83241.341 135239.452 -83180.423 135252.357 -83119.711 135253.357 -83110.199 135301.731 -82616.844 135301.731 -82592.824 162320.098 -82592.824 162369.666 -83010.451 162499.757 -83410.383 162657.786 -83706.038 162973.347 -83862.048 164285.395 -82550 164644.605 -82550 165956.653 -83862.048 166272.214 -83706.038 166463.02 -83331.255 166577.044 -82926.449 166609.902 -82507.176 166560.334 -82089.549 166430.243 -81689.617 166272.214 -81393.962 165956.653 -81237.952 164644.605 -82550 164285.395 -82550 162973.347 -81237.952 162657.786 -81393.962 162466.98 -81768.745 162352.956 -82173.551 162320.098 -82592.824 135301.731 -82592.824 135301.731 -82586.914 135304.962 -82557.169 135304.996 -82547.605 135304.934 -82529.873 135301.91 -82500.104 135302.119 -82470.185 135301.186 -82460.666 135249.369 -81967.66 135236.886 -81906.849 135225.251 -81845.858 135222.487 -81836.702 135075.898 -81363.15 135051.83 -81305.896 135028.581 -81248.352 135024.091 -81239.907 134925.922 -81058.347 163152.952 -81058.347 164465 -82370.395 165777.048 -81058.347 165621.038 -80742.786 165246.255 -80551.98 164841.449 -80437.956 164422.176 -80405.098 164004.549 -80454.666 163604.617 -80584.757 163308.962 -80742.786 163152.952 -81058.347 134925.922 -81058.347 134788.314 -80803.847 134753.602 -80752.384 134719.602 -80700.427 134713.557 -80693.015 134397.573 -80311.055 134353.519 -80267.308 134310.081 -80222.95 134302.711 -80216.853 133918.555 -79903.543 133866.852 -79869.192 133815.616 -79834.11 133807.203 -79829.561 133369.507 -79596.834 133312.097 -79573.171 133255.042 -79548.718 133245.906 -79545.889 132845.501 -79425 165066.496 -79425 165459.668 -79463.551 165805.634 -79568.004 166124.724 -79737.667 166404.781 -79966.076 166635.141 -80244.534 166807.027 -80562.43 166913.893 -80907.658 166955.001 -81298.763 166955 -106646.495 166916.449 -107039.667 166811.996 -107385.635 166642.333 -107704.724 166413.924 -107984.781 166135.466 -108215.141 165817.57 -108387.027 165472.34 -108493.894 165081.238 -108535 93774.926 -108535 93965.618 -108433.073 94194.903 -108244.903 94383.073 -108015.618 94522.896 -107754.028 94590.854 -107530 144561.928 -107530 144574.188 -107654.482 144610.498 -107774.18 144669.463 -107884.494 144748.815 -107981.185 144845.506 -108060.537 144955.82 -108119.502 145075.518 -108155.812 145200 -108168.072 145764.25 -108165 145923 -108006.25 145923 -106807 146177 -106807 146177 -108006.25 146335.75 -108165 146900 -108168.072 147024.482 -108155.812 147144.18 -108119.502 147254.494 -108060.537 147351.185 -107981.185 147430.537 -107884.494 147489.502 -107774.18 147525.812 -107654.482 147538.072 -107530 147535 -106965.75 147376.25 -106807 146177 -106807 145923 -106807 144723.75 -106807 144565 -106965.75 144561.928 -107530 94590.854 -107530 94608.999 -107470.186 94638.072 -107175 94638.072 -105425 94608.999 -105129.814 94522.896 -104845.972 94417.313 -104648.439 111745 -104648.439 111745 -104901.561 111794.381 -105149.821 111891.247 -105383.676 112031.875 -105594.14 112210.86 -105773.125 112421.324 -105913.753 112655.179 -106010.619 112903.439 -106060 113156.561 -106060 113404.821 -106010.619 113638.676 -105913.753 113849.14 -105773.125 114028.125 -105594.14 114168.753 -105383.676 114265.619 -105149.821 114300 -104976.973 114334.381 -105149.821 114431.247 -105383.676 114571.875 -105594.14 114750.86 -105773.125 114961.324 -105913.753 115195.179 -106010.619 115443.439 -106060 115696.561 -106060 115944.821 -106010.619 116178.676 -105913.753 116389.14 -105773.125 116501.738 -105660.527 137724.078 -105660.527 137777.466 -105889.201 138007.374 -105995.095 138253.524 -106054.102 138506.455 -106063.952 138756.449 -106024.27 138993.896 -105936.578 139082.534 -105889.201 139135.922 -105660.527 140264.078 -105660.527 140317.466 -105889.201 140547.374 -105995.095 140793.524 -106054.102 141046.455 -106063.952 141296.449 -106024.27 141533.896 -105936.578 141622.534 -105889.201 141636.355 -105830 144561.928 -105830 144565 -106394.25 144723.75 -106553 145923 -106553 145923 -106533 146177 -106533 146177 -106553 147376.25 -106553 147535 -106394.25 147538.072 -105830 147525.812 -105705.518 147489.502 -105585.82 147430.537 -105475.506 147351.185 -105378.815 147254.494 -105299.463 147144.18 -105240.498 147071.62 -105218.487 147203.475 -105086.632 147365.99 -104843.411 147477.932 -104573.158 147535 -104286.26 147535 -103993.74 147477.932 -103706.842 147365.99 -103436.589 147203.475 -103193.368 146996.632 -102986.525 146822.24 -102870 146996.632 -102753.475 147203.475 -102546.632 147365.99 -102303.411 147477.932 -102033.158 147535 -101746.26 147535 -101453.74 147515.409 -101355.249 149915 -101355.249 149915 -101844.751 150010.497 -102324.848 150197.821 -102777.089 150469.774 -103184.095 150815.905 -103530.226 151222.911 -103802.179 151675.152 -103989.503 152155.249 -104085 152644.751 -104085 153124.848 -103989.503 153577.089 -103802.179 153984.095 -103530.226 154330.226 -103184.095 154602.179 -102777.089 154789.503 -102324.848 154885 -101844.751 154885 -101355.249 154789.503 -100875.152 154602.179 -100422.911 154330.226 -100015.905 154164.321 -99850 156361.928 -99850 156361.928 -103350 156374.188 -103474.482 156410.498 -103594.18 156469.463 -103704.494 156548.815 -103801.185 156645.506 -103880.537 156755.82 -103939.502 156875.518 -103975.812 157000 -103988.072 160500 -103988.072 160624.482 -103975.812 160744.18 -103939.502 160854.494 -103880.537 160951.185 -103801.185 161030.537 -103704.494 161089.502 -103594.18 161125.812 -103474.482 161138.072 -103350 162611.928 -103350 162624.188 -103474.482 162660.498 -103594.18 162719.463 -103704.494 162798.815 -103801.185 162895.506 -103880.537 163005.82 -103939.502 163125.518 -103975.812 163250 -103988.072 164464.25 -103985 164623 -103826.25 164623 -101727 164877 -101727 164877 -103826.25 165035.75 -103985 166250 -103988.072 166374.482 -103975.812 166494.18 -103939.502 166604.494 -103880.537 166701.185 -103801.185 166780.537 -103704.494 166839.502 -103594.18 166875.812 -103474.482 166888.072 -103350 166885 -101885.75 166726.25 -101727 164877 -101727 164623 -101727 162773.75 -101727 162615 -101885.75 162611.928 -103350 161138.072 -103350 161138.072 -99850 162611.928 -99850 162615 -101314.25 162773.75 -101473 164623 -101473 164623 -99373.75 164877 -99373.75 164877 -101473 166726.25 -101473 166885 -101314.25 166888.072 -99850 166875.812 -99725.518 166839.502 -99605.82 166780.537 -99495.506 166701.185 -99398.815 166604.494 -99319.463 166494.18 -99260.498 166374.482 -99224.188 166250 -99211.928 165035.75 -99215 164877 -99373.75 164623 -99373.75 164464.25 -99215 163250 -99211.928 163125.518 -99224.188 163005.82 -99260.498 162895.506 -99319.463 162798.815 -99398.815 162719.463 -99495.506 162660.498 -99605.82 162624.188 -99725.518 162611.928 -99850 161138.072 -99850 161125.812 -99725.518 161089.502 -99605.82 161030.537 -99495.506 160951.185 -99398.815 160854.494 -99319.463 160777.869 -99278.506 160875 -99288.072 162625 -99288.072 162920.186 -99258.999 163204.028 -99172.896 163465.618 -99033.073 163694.903 -98844.903 163883.073 -98615.618 164022.896 -98354.028 164108.999 -98070.186 164138.072 -97775 164138.072 -96025 164108.999 -95729.814 164022.896 -95445.972 163883.073 -95184.382 163694.903 -94955.097 163465.618 -94766.927 163204.028 -94627.104 162920.186 -94541.001 162625 -94511.928 160875 -94511.928 160579.814 -94541.001 160295.972 -94627.104 160034.382 -94766.927 159805.097 -94955.097 159616.927 -95184.382 159477.104 -95445.972 159391.001 -95729.814 159361.928 -96025 159361.928 -97775 159391.001 -98070.186 159477.104 -98354.028 159616.927 -98615.618 159805.097 -98844.903 160034.382 -99033.073 160295.972 -99172.896 160424.643 -99211.928 157000 -99211.928 156875.518 -99224.188 156755.82 -99260.498 156645.506 -99319.463 156548.815 -99398.815 156469.463 -99495.506 156410.498 -99605.82 156374.188 -99725.518 156361.928 -99850 154164.321 -99850 153984.095 -99669.774 153577.089 -99397.821 153124.848 -99210.497 152644.751 -99115 152155.249 -99115 151675.152 -99210.497 151222.911 -99397.821 150815.905 -99669.774 150469.774 -100015.905 150197.821 -100422.911 150010.497 -100875.152 149915 -101355.249 147515.409 -101355.249 147477.932 -101166.842 147365.99 -100896.589 147203.475 -100653.368 146996.632 -100446.525 146822.24 -100330 146996.632 -100213.475 147203.475 -100006.632 147365.99 -99763.411 147477.932 -99493.158 147535 -99206.26 147535 -98913.74 147477.932 -98626.842 147365.99 -98356.589 147203.475 -98113.368 146996.632 -97906.525 146753.411 -97744.01 146483.158 -97632.068 146196.26 -97575 145903.74 -97575 145616.842 -97632.068 145346.589 -97744.01 145103.368 -97906.525 144896.525 -98113.368 144734.01 -98356.589 144622.068 -98626.842 144565 -98913.74 144565 -99206.26 144622.068 -99493.158 144734.01 -99763.411 144896.525 -100006.632 145103.368 -100213.475 145277.76 -100330 145103.368 -100446.525 144896.525 -100653.368 144734.01 -100896.589 144622.068 -101166.842 144565 -101453.74 144565 -101746.26 144622.068 -102033.158 144734.01 -102303.411 144896.525 -102546.632 145103.368 -102753.475 145277.76 -102870 145103.368 -102986.525 144896.525 -103193.368 144734.01 -103436.589 144622.068 -103706.842 144565 -103993.74 144565 -104286.26 144622.068 -104573.158 144734.01 -104843.411 144896.525 -105086.632 145028.38 -105218.487 144955.82 -105240.498 144845.506 -105299.463 144748.815 -105378.815 144669.463 -105475.506 144610.498 -105585.82 144574.188 -105705.518 144561.928 -105830 141636.355 -105830 141675.922 -105660.527 140970 -104954.605 140264.078 -105660.527 139135.922 -105660.527 138430 -104954.605 137724.078 -105660.527 116501.738 -105660.527 116568.125 -105594.14 116708.753 -105383.676 116805.619 -105149.821 116855 -104901.561 116855 -104851.455 137141.048 -104851.455 137180.73 -105101.449 137268.422 -105338.896 137315.799 -105427.534 137544.473 -105480.922 138250.395 -104775 138609.605 -104775 139315.527 -105480.922 139544.201 -105427.534 139650.095 -105197.626 139701.776 -104982.038 139720.73 -105101.449 139808.422 -105338.896 139855.799 -105427.534 140084.473 -105480.922 140790.395 -104775 141149.605 -104775 141855.527 -105480.922 142084.201 -105427.534 142190.095 -105197.626 142249.102 -104951.476 142258.952 -104698.545 142219.27 -104448.551 142131.578 -104211.104 142084.201 -104122.466 141855.527 -104069.078 141149.605 -104775 140790.395 -104775 140084.473 -104069.078 139855.799 -104122.466 139749.905 -104352.374 139698.224 -104567.962 139679.27 -104448.551 139591.578 -104211.104 139544.201 -104122.466 139315.527 -104069.078 138609.605 -104775 138250.395 -104775 137544.473 -104069.078 137315.799 -104122.466 137209.905 -104352.374 137150.898 -104598.524 137141.048 -104851.455 116855 -104851.455 116855 -104648.439 116805.619 -104400.179 116708.753 -104166.324 116568.125 -103955.86 116501.738 -103889.473 137724.078 -103889.473 138430 -104595.395 139135.922 -103889.473 140264.078 -103889.473 140970 -104595.395 141675.922 -103889.473 141622.534 -103660.799 141392.626 -103554.905 141146.476 -103495.898 140893.545 -103486.048 140643.551 -103525.73 140406.104 -103613.422 140317.466 -103660.799 140264.078 -103889.473 139135.922 -103889.473 139082.534 -103660.799 138852.626 -103554.905 138606.476 -103495.898 138353.545 -103486.048 138103.551 -103525.73 137866.104 -103613.422 137777.466 -103660.799 137724.078 -103889.473 116501.738 -103889.473 116389.14 -103776.875 116178.676 -103636.247 115944.821 -103539.381 115696.561 -103490 115443.439 -103490 115195.179 -103539.381 114961.324 -103636.247 114750.86 -103776.875 114571.875 -103955.86 114431.247 -104166.324 114334.381 -104400.179 114300 -104573.027 114265.619 -104400.179 114168.753 -104166.324 114028.125 -103955.86 113849.14 -103776.875 113638.676 -103636.247 113404.821 -103539.381 113156.561 -103490 112903.439 -103490 112655.179 -103539.381 112421.324 -103636.247 112210.86 -103776.875 112031.875 -103955.86 111891.247 -104166.324 111794.381 -104400.179 111745 -104648.439 94417.313 -104648.439 94383.073 -104584.382 94194.903 -104355.097 93965.618 -104166.927 93704.028 -104027.104 93575.357 -103988.072 97000 -103988.072 97124.482 -103975.812 97244.18 -103939.502 97354.494 -103880.537 97451.185 -103801.185 97530.537 -103704.494 97589.502 -103594.18 97625.812 -103474.482 97638.072 -103350 97638.072 -101355.249 99115 -101355.249 99115 -101844.751 99210.497 -102324.848 99397.821 -102777.089 99669.774 -103184.095 100015.905 -103530.226 100422.911 -103802.179 100875.152 -103989.503 101355.249 -104085 101844.751 -104085 102324.848 -103989.503 102777.089 -103802.179 103184.095 -103530.226 103530.226 -103184.095 103802.179 -102777.089 103989.503 -102324.848 104085 -101844.751 104085 -101355.249 103989.503 -100875.152 103802.179 -100422.911 103530.226 -100015.905 103184.095 -99669.774 102777.089 -99397.821 102324.848 -99210.497 101844.751 -99115 101355.249 -99115 100875.152 -99210.497 100422.911 -99397.821 100015.905 -99669.774 99669.774 -100015.905 99397.821 -100422.911 99210.497 -100875.152 99115 -101355.249 97638.072 -101355.249 97638.072 -99850 97625.812 -99725.518 97589.502 -99605.82 97530.537 -99495.506 97451.185 -99398.815 97354.494 -99319.463 97244.18 -99260.498 97124.482 -99224.188 97000 -99211.928 93500 -99211.928 93375.518 -99224.188 93255.82 -99260.498 93145.506 -99319.463 93048.815 -99398.815 92969.463 -99495.506 92910.498 -99605.82 92874.188 -99725.518 92861.928 -99850 92861.928 -103350 92874.188 -103474.482 92910.498 -103594.18 92969.463 -103704.494 93048.815 -103801.185 93145.506 -103880.537 93222.131 -103921.494 93125 -103911.928 91375 -103911.928 91079.814 -103941.001 90795.972 -104027.104 90534.382 -104166.927 90305.097 -104355.097 90116.927 -104584.382 89977.104 -104845.972 89891.001 -105129.814 89861.928 -105425 89861.928 -107175 89891.001 -107470.186 89977.104 -107754.028 90116.927 -108015.618 90305.097 -108244.903 90534.382 -108433.073 90725.074 -108535 88933.505 -108535 88540.333 -108496.449 88194.365 -108391.996 87875.276 -108222.333 87595.219 -107993.924 87364.859 -107715.466 87192.973 -107397.57 87086.106 -107052.34 87045 -106661.238 87045 -103350 87111.928 -103350 87124.188 -103474.482 87160.498 -103594.18 87219.463 -103704.494 87298.815 -103801.185 87395.506 -103880.537 87505.82 -103939.502 87625.518 -103975.812 87750 -103988.072 88964.25 -103985 89123 -103826.25 89123 -101727 89377 -101727 89377 -103826.25 89535.75 -103985 90750 -103988.072 90874.482 -103975.812 90994.18 -103939.502 91104.494 -103880.537 91201.185 -103801.185 91280.537 -103704.494 91339.502 -103594.18 91375.812 -103474.482 91388.072 -103350 91385 -101885.75 91226.25 -101727 89377 -101727 89123 -101727 87273.75 -101727 87115 -101885.75 87111.928 -103350 87045 -103350 87045 -99850 87111.928 -99850 87115 -101314.25 87273.75 -101473 89123 -101473 89123 -99373.75 89377 -99373.75 89377 -101473 91226.25 -101473 91385 -101314.25 91388.072 -99850 91375.812 -99725.518 91339.502 -99605.82 91280.537 -99495.506 91201.185 -99398.815 91104.494 -99319.463 90994.18 -99260.498 90874.482 -99224.188 90750 -99211.928 89535.75 -99215 89377 -99373.75 89123 -99373.75 88964.25 -99215 87750 -99211.928 87625.518 -99224.188 87505.82 -99260.498 87395.506 -99319.463 87298.815 -99398.815 87219.463 -99495.506 87160.498 -99605.82 87124.188 -99725.518 87111.928 -99850 87045 -99850 87045 -89408.439 111745 -89408.439 111745 -89661.561 111794.381 -89909.821 111891.247 -90143.676 112031.875 -90354.14 112210.86 -90533.125 112421.324 -90673.753 112655.179 -90770.619 112903.439 -90820 113156.561 -90820 113404.821 -90770.619 113638.676 -90673.753 113849.14 -90533.125 114028.125 -90354.14 114168.753 -90143.676 114265.619 -89909.821 114300 -89736.973 114334.381 -89909.821 114431.247 -90143.676 114571.875 -90354.14 114750.86 -90533.125 114961.324 -90673.753 115195.179 -90770.619 115443.439 -90820 115696.561 -90820 115944.821 -90770.619 116178.676 -90673.753 116389.14 -90533.125 116568.125 -90354.14 116708.753 -90143.676 116805.619 -89909.821 116855 -89661.561 116855 -89408.439 116805.619 -89160.179 116708.753 -88926.324 116568.125 -88715.86 116389.14 -88536.875 116178.676 -88396.247 115944.821 -88299.381 115696.561 -88250 115443.439 -88250 115195.179 -88299.381 114961.324 -88396.247 114750.86 -88536.875 114571.875 -88715.86 114431.247 -88926.324 114334.381 -89160.179 114300 -89333.027 114265.619 -89160.179 114168.753 -88926.324 114028.125 -88715.86 113849.14 -88536.875 113638.676 -88396.247 113404.821 -88299.381 113156.561 -88250 112903.439 -88250 112655.179 -88299.381 112421.324 -88396.247 112210.86 -88536.875 112031.875 -88715.86 111891.247 -88926.324 111794.381 -89160.179 111745 -89408.439 87045 -89408.439 87045 -85749 94000.928 -85749 94000.928 -86971 94013.188 -87095.482 94049.498 -87215.18 94108.463 -87325.494 94187.815 -87422.185 94284.506 -87501.537 94394.82 -87560.502 94514.518 -87596.812 94639 -87609.072 95861 -87609.072 95985.482 -87596.812 96105.18 -87560.502 96215.494 -87501.537 96312.185 -87422.185 96391.537 -87325.494 96450.502 -87215.18 96486.812 -87095.482 96499.072 -86971 96499.072 -85749 96486.812 -85624.518 96450.502 -85504.82 96391.537 -85394.506 96312.185 -85297.815 96215.494 -85218.463 96105.18 -85159.498 95985.482 -85123.188 95861 -85110.928 94639 -85110.928 94514.518 -85123.188 94394.82 -85159.498 94284.506 -85218.463 94187.815 -85297.815 94108.463 -85394.506 94049.498 -85504.82 94013.188 -85624.518 94000.928 -85749 87045 -85749 87045 -82339.721 87400 -82339.721 87400 -82760.279 87482.047 -83172.756 87642.988 -83561.302 87876.637 -83910.983 88174.017 -84208.363 88523.698 -84442.012 88912.244 -84602.953 89324.721 -84685 89745.279 -84685 90157.756 -84602.953 90546.302 -84442.012 90895.983 -84208.363 91193.363 -83910.983 91336.154 -83697.28 96544 -83697.28 96544 -83942.72 96591.883 -84183.445 96685.809 -84410.202 96822.168 -84614.279 96995.721 -84787.832 97199.798 -84924.191 97426.555 -85018.117 97667.28 -85066 97912.72 -85066 98153.445 -85018.117 98380.202 -84924.191 98584.279 -84787.832 98757.832 -84614.279 98894.191 -84410.202 98988.117 -84183.445 99036 -83942.72 99036 -83697.28 98988.117 -83456.555 98894.191 -83229.798 98757.832 -83025.721 98584.279 -82852.168 98380.202 -82715.809 98153.445 -82621.883 97912.72 -82574 97667.28 -82574 97426.555 -82621.883 97199.798 -82715.809 96995.721 -82852.168 96822.168 -83025.721 96685.809 -83229.798 96591.883 -83456.555 96544 -83697.28 91336.154 -83697.28 91427.012 -83561.302 91587.953 -83172.756 91670 -82760.279 91670 -82339.721 91587.953 -81927.244 91493.826 -81700 111541.928 -81700 111541.928 -83400 111554.188 -83524.482 111590.498 -83644.18 111649.463 -83754.494 111728.815 -83851.185 111825.506 -83930.537 111935.82 -83989.502 112055.518 -84025.812 112180 -84038.072 113880 -84038.072 114004.482 -84025.812 114124.18 -83989.502 114234.494 -83930.537 114331.185 -83851.185 114410.537 -83754.494 114469.502 -83644.18 114491.513 -83571.62 114623.368 -83703.475 114866.589 -83865.99 115136.842 -83977.932 115423.74 -84035 115716.26 -84035 116003.158 -83977.932 116273.411 -83865.99 116516.632 -83703.475 116723.475 -83496.632 116885.99 -83253.411 116997.932 -82983.158 117055 -82696.26 117055 -82403.74 116997.932 -82116.842 116885.99 -81846.589 116723.475 -81603.368 116516.632 -81396.525 116273.411 -81234.01 116003.158 -81122.068 115716.26 -81065 115423.74 -81065 115136.842 -81122.068 114866.589 -81234.01 114623.368 -81396.525 114491.513 -81528.38 114469.502 -81455.82 114410.537 -81345.506 114331.185 -81248.815 114234.494 -81169.463 114124.18 -81110.498 114004.482 -81074.188 113880 -81061.928 112180 -81061.928 112055.518 -81074.188 111935.82 -81110.498 111825.506 -81169.463 111728.815 -81248.815 111649.463 -81345.506 111590.498 -81455.82 111554.188 -81575.518 111541.928 -81700 91493.826 -81700 91427.012 -81538.698 91193.363 -81189.017 90895.983 -80891.637 90546.302 -80657.988 90157.756 -80497.047 89745.279 -80415 89324.721 -80415 88912.244 -80497.047 88523.698 -80657.988 88174.017 -80891.637 87876.637 -81189.017 87642.988 -81538.698 87482.047 -81927.244 87400 -82339.721 87045 -82339.721 87045 -81313.504 87083.551 -80920.332 87188.004 -80574.366 87357.667 -80255.276 87586.076 -79975.219 87864.534 -79744.859 88182.43 -79572.973 88527.658 -79466.107 88918.753 -79425 121150.211 -79425 120733.15 -79554.102" fill="none" stroke-width="254"/><path d="M 120733.15 -79554.102 120675.896 -79578.17 120618.352 -79601.419 120609.907 -79605.909 120173.847 -79841.686 120122.384 -79876.398 120070.427 -79910.398 120063.015 -79916.443 119681.055 -80232.427 119637.308 -80276.481 119592.95 -80319.919 119586.853 -80327.289 119273.543 -80711.445 119239.192 -80763.148 119204.11 -80814.384 119199.561 -80822.797 118966.834 -81260.493 118943.171 -81317.903 118918.718 -81374.958 118915.889 -81384.094 118772.61 -81858.659 118760.548 -81919.577 118747.643 -81980.289 118746.643 -81989.8 118698.269 -82483.156 118698.269 -82513.086 118695.038 -82542.831 118695.004 -82552.395 118695.066 -82570.127 118698.09 -82599.896 118697.881 -82629.815 118698.814 -82639.334 118750.632 -83132.34 118763.109 -83193.121 118774.749 -83254.142 118777.513 -83263.298 118924.103 -83736.851 118948.167 -83794.097 118971.419 -83851.648 118975.907 -83860.089 118975.909 -83860.094 118975.912 -83860.098 119211.686 -84296.153 119246.398 -84347.616 119280.398 -84399.573 119286.443 -84406.985 119602.427 -84788.945 119646.5 -84832.712 119689.92 -84877.05 119697.289 -84883.147 120081.445 -85196.457 120133.148 -85230.808 120184.384 -85265.89 120192.797 -85270.439 120211.719 -85280.5 100957.155 -85280.5 100920.202 -85255.809 100693.445 -85161.883 100452.72 -85114 100207.28 -85114 99966.555 -85161.883 99739.798 -85255.809 99535.721 -85392.168 99362.168 -85565.721 99225.809 -85769.798 99131.883 -85996.555 99084 -86237.28 99084 -86482.72 99131.883 -86723.445 99225.809 -86950.202 99362.168 -87154.279 99535.721 -87327.832 99739.798 -87464.191 99966.555 -87558.117 100207.28 -87606 100452.72 -87606 100693.445 -87558.117 100920.202 -87464.191 100957.155 -87439.5 129727.858 -87439.5 132093.574 -89805.217 132114.381 -89909.821 132211.247 -90143.676 132351.875 -90354.14 132530.86 -90533.125 132741.324 -90673.753 132975.179 -90770.619 133223.439 -90820 133476.561 -90820 133724.821 -90770.619 133958.676 -90673.753 134169.14 -90533.125 134348.125 -90354.14 134488.753 -90143.676 134585.619 -89909.821 134635 -89661.561 134635 -89408.439 137145 -89408.439 137145 -89661.561 137194.381 -89909.821 137291.247 -90143.676 137431.875 -90354.14 137610.86 -90533.125 137821.324 -90673.753 138055.179 -90770.619 138303.439 -90820 138556.561 -90820 138804.821 -90770.619 139038.676 -90673.753 139249.14 -90533.125 139428.125 -90354.14 139568.753 -90143.676 139665.619 -89909.821 139700 -89736.973 139734.381 -89909.821 139831.247 -90143.676 139971.875 -90354.14 140150.86 -90533.125 140361.324 -90673.753 140595.179 -90770.619 140843.439 -90820 141096.561 -90820 141344.821 -90770.619 141578.676 -90673.753 141789.14 -90533.125 141968.125 -90354.14 142108.753 -90143.676 142205.619 -89909.821 142255 -89661.561 142255 -89408.439 142205.619 -89160.179 142108.753 -88926.324 141968.125 -88715.86 141941.986 -88689.721 162330 -88689.721 162330 -89110.279 162412.047 -89522.756 162572.988 -89911.302 162806.637 -90260.983 163104.017 -90558.363 163453.698 -90792.012 163842.244 -90952.953 164254.721 -91035 164675.279 -91035 165087.756 -90952.953 165476.302 -90792.012 165825.983 -90558.363 166123.363 -90260.983 166357.012 -89911.302 166517.953 -89522.756 166600 -89110.279 166600 -88689.721 166517.953 -88277.244 166357.012 -87888.698 166123.363 -87539.017 165825.983 -87241.637 165476.302 -87007.988 165087.756 -86847.047 164675.279 -86765 164254.721 -86765 163842.244 -86847.047 163453.698 -87007.988 163104.017 -87241.637 162806.637 -87539.017 162572.988 -87888.698 162412.047 -88277.244 162330 -88689.721 141941.986 -88689.721 141789.14 -88536.875 141578.676 -88396.247 141344.821 -88299.381 141096.561 -88250 140843.439 -88250 140595.179 -88299.381 140361.324 -88396.247 140150.86 -88536.875 139971.875 -88715.86 139831.247 -88926.324 139734.381 -89160.179 139700 -89333.027 139665.619 -89160.179 139568.753 -88926.324 139428.125 -88715.86 139249.14 -88536.875 139038.676 -88396.247 138804.821 -88299.381 138556.561 -88250 138303.439 -88250 138055.179 -88299.381 137821.324 -88396.247 137610.86 -88536.875 137431.875 -88715.86 137291.247 -88926.324 137194.381 -89160.179 137145 -89408.439 134635 -89408.439 134585.619 -89160.179 134488.753 -88926.324 134348.125 -88715.86 134169.14 -88536.875 133958.676 -88396.247 133724.821 -88299.381 133620.217 -88278.574 131116.642 -85775 132113.647 -85775 132144.018 -85772.009 132159.815 -85772.119 132169.334 -85771.186 132662.34 -85719.368 132723.121 -85706.891 132784.142 -85695.251 132793.298 -85692.487 133266.851 -85545.897 133324.097 -85521.833 133381.648 -85498.581 133390.089 -85494.093 133390.094 -85494.091 133390.098 -85494.088 133826.153 -85258.314 133877.616 -85223.602 133929.573 -85189.602 133936.985 -85183.557 134318.945 -84867.573 134362.712 -84823.5 134407.05 -84780.08 134413.147 -84772.711 134726.457 -84388.555 134760.808 -84336.852 134795.89 -84285.616 134800.439 -84277.203 134925.683 -84041.653 163152.952 -84041.653 163308.962 -84357.214 163683.745 -84548.02 164088.551 -84662.044 164507.824 -84694.902 164925.451 -84645.334 165325.383 -84515.243 165621.038 -84357.214 165777.048 -84041.653 164465 -82729.605 163152.952 -84041.653 134925.683 -84041.653 135033.166 -83839.507 135056.82 -83782.118 135081.283 -83725.042 135084.111 -83715.905 135227.39 -83241.341 135239.452 -83180.423 135252.357 -83119.711 135253.357 -83110.199 135301.731 -82616.844 135301.731 -82592.824 162320.098 -82592.824 162369.666 -83010.451 162499.757 -83410.383 162657.786 -83706.038 162973.347 -83862.048 164285.395 -82550 164644.605 -82550 165956.653 -83862.048 166272.214 -83706.038 166463.02 -83331.255 166577.044 -82926.449 166609.902 -82507.176 166560.334 -82089.549 166430.243 -81689.617 166272.214 -81393.962 165956.653 -81237.952 164644.605 -82550 164285.395 -82550 162973.347 -81237.952 162657.786 -81393.962 162466.98 -81768.745 162352.956 -82173.551 162320.098 -82592.824 135301.731 -82592.824 135301.731 -82586.914 135304.962 -82557.169 135304.996 -82547.605 135304.934 -82529.873 135301.91 -82500.104 135302.119 -82470.185 135301.186 -82460.666 135249.369 -81967.66 135236.886 -81906.849 135225.251 -81845.858 135222.487 -81836.702 135075.898 -81363.15 135051.83 -81305.896 135028.581 -81248.352 135024.091 -81239.907 134925.922 -81058.347 163152.952 -81058.347 164465 -82370.395 165777.048 -81058.347 165621.038 -80742.786 165246.255 -80551.98 164841.449 -80437.956 164422.176 -80405.098 164004.549 -80454.666 163604.617 -80584.757 163308.962 -80742.786 163152.952 -81058.347 134925.922 -81058.347 134788.314 -80803.847 134753.602 -80752.384 134719.602 -80700.427 134713.557 -80693.015 134397.573 -80311.055 134353.519 -80267.308 134310.081 -80222.95 134302.711 -80216.853 133918.555 -79903.543 133866.852 -79869.192 133815.616 -79834.11 133807.203 -79829.561 133369.507 -79596.834 133312.097 -79573.171 133255.042 -79548.718 133245.906 -79545.889 132845.501 -79425 165066.496 -79425 165459.668 -79463.551 165805.634 -79568.004 166124.724 -79737.667 166404.781 -79966.076 166635.141 -80244.534 166807.027 -80562.43 166913.893 -80907.658 166955.001 -81298.763 166955 -106646.495 166916.449 -107039.667 166811.996 -107385.635 166642.333 -107704.724 166413.924 -107984.781 166135.466 -108215.141 165817.57 -108387.027 165472.34 -108493.894 165081.238 -108535 93774.926 -108535 93965.618 -108433.073 94194.903 -108244.903 94383.073 -108015.618 94522.896 -107754.028 94590.854 -107530 144561.928 -107530 144574.188 -107654.482 144610.498 -107774.18 144669.463 -107884.494 144748.815 -107981.185 144845.506 -108060.537 144955.82 -108119.502 145075.518 -108155.812 145200 -108168.072 145764.25 -108165 145923 -108006.25 145923 -106807 146177 -106807 146177 -108006.25 146335.75 -108165 146900 -108168.072 147024.482 -108155.812 147144.18 -108119.502 147254.494 -108060.537 147351.185 -107981.185 147430.537 -107884.494 147489.502 -107774.18 147525.812 -107654.482 147538.072 -107530 147535 -106965.75 147376.25 -106807 146177 -106807 145923 -106807 144723.75 -106807 144565 -106965.75 144561.928 -107530 94590.854 -107530 94608.999 -107470.186 94638.072 -107175 94638.072 -105425 94608.999 -105129.814 94522.896 -104845.972 94417.313 -104648.439 111745 -104648.439 111745 -104901.561 111794.381 -105149.821 111891.247 -105383.676 112031.875 -105594.14 112210.86 -105773.125 112421.324 -105913.753 112655.179 -106010.619 112903.439 -106060 113156.561 -106060 113404.821 -106010.619 113638.676 -105913.753 113849.14 -105773.125 114028.125 -105594.14 114168.753 -105383.676 114265.619 -105149.821 114300 -104976.973 114334.381 -105149.821 114431.247 -105383.676 114571.875 -105594.14 114750.86 -105773.125 114961.324 -105913.753 115195.179 -106010.619 115443.439 -106060 115696.561 -106060 115944.821 -106010.619 116178.676 -105913.753 116389.14 -105773.125 116501.738 -105660.527 137724.078 -105660.527 137777.466 -105889.201 138007.374 -105995.095 138253.524 -106054.102 138506.455 -106063.952 138756.449 -106024.27 138993.896 -105936.578 139082.534 -105889.201 139135.922 -105660.527 140264.078 -105660.527 140317.466 -105889.201 140547.374 -105995.095 140793.524 -106054.102 141046.455 -106063.952 141296.449 -106024.27 141533.896 -105936.578 141622.534 -105889.201 141636.355 -105830 144561.928 -105830 144565 -106394.25 144723.75 -106553 145923 -106553 145923 -106533 146177 -106533 146177 -106553 147376.25 -106553 147535 -106394.25 147538.072 -105830 147525.812 -105705.518 147489.502 -105585.82 147430.537 -105475.506 147351.185 -105378.815 147254.494 -105299.463 147144.18 -105240.498 147071.62 -105218.487 147203.475 -105086.632 147365.99 -104843.411 147477.932 -104573.158 147535 -104286.26 147535 -103993.74 147477.932 -103706.842 147365.99 -103436.589 147203.475 -103193.368 146996.632 -102986.525 146822.24 -102870 146996.632 -102753.475 147203.475 -102546.632 147365.99 -102303.411 147477.932 -102033.158 147535 -101746.26 147535 -101453.74 147515.409 -101355.249 149915 -101355.249 149915 -101844.751 150010.497 -102324.848 150197.821 -102777.089 150469.774 -103184.095 150815.905 -103530.226 151222.911 -103802.179 151675.152 -103989.503 152155.249 -104085 152644.751 -104085 153124.848 -103989.503 153577.089 -103802.179 153984.095 -103530.226 154330.226 -103184.095 154602.179 -102777.089 154789.503 -102324.848 154885 -101844.751 154885 -101355.249 154789.503 -100875.152 154602.179 -100422.911 154330.226 -100015.905 154164.321 -99850 156361.928 -99850 156361.928 -103350 156374.188 -103474.482 156410.498 -103594.18 156469.463 -103704.494 156548.815 -103801.185 156645.506 -103880.537 156755.82 -103939.502 156875.518 -103975.812 157000 -103988.072 160500 -103988.072 160624.482 -103975.812 160744.18 -103939.502 160854.494 -103880.537 160951.185 -103801.185 161030.537 -103704.494 161089.502 -103594.18 161125.812 -103474.482 161138.072 -103350 162611.928 -103350 162624.188 -103474.482 162660.498 -103594.18 162719.463 -103704.494 162798.815 -103801.185 162895.506 -103880.537 163005.82 -103939.502 163125.518 -103975.812 163250 -103988.072 164464.25 -103985 164623 -103826.25 164623 -101727 164877 -101727 164877 -103826.25 165035.75 -103985 166250 -103988.072 166374.482 -103975.812 166494.18 -103939.502 166604.494 -103880.537 166701.185 -103801.185 166780.537 -103704.494 166839.502 -103594.18 166875.812 -103474.482 166888.072 -103350 166885 -101885.75 166726.25 -101727 164877 -101727 164623 -101727 162773.75 -101727 162615 -101885.75 162611.928 -103350 161138.072 -103350 161138.072 -99850 162611.928 -99850 162615 -101314.25 162773.75 -101473 164623 -101473 164623 -99373.75 164877 -99373.75 164877 -101473 166726.25 -101473 166885 -101314.25 166888.072 -99850 166875.812 -99725.518 166839.502 -99605.82 166780.537 -99495.506 166701.185 -99398.815 166604.494 -99319.463 166494.18 -99260.498 166374.482 -99224.188 166250 -99211.928 165035.75 -99215 164877 -99373.75 164623 -99373.75 164464.25 -99215 163250 -99211.928 163125.518 -99224.188 163005.82 -99260.498 162895.506 -99319.463 162798.815 -99398.815 162719.463 -99495.506 162660.498 -99605.82 162624.188 -99725.518 162611.928 -99850 161138.072 -99850 161125.812 -99725.518 161089.502 -99605.82 161030.537 -99495.506 160951.185 -99398.815 160854.494 -99319.463 160777.869 -99278.506 160875 -99288.072 162625 -99288.072 162920.186 -99258.999 163204.028 -99172.896 163465.618 -99033.073 163694.903 -98844.903 163883.073 -98615.618 164022.896 -98354.028 164108.999 -98070.186 164138.072 -97775 164138.072 -96025 164108.999 -95729.814 164022.896 -95445.972 163883.073 -95184.382 163694.903 -94955.097 163465.618 -94766.927 163204.028 -94627.104 162920.186 -94541.001 162625 -94511.928 160875 -94511.928 160579.814 -94541.001 160295.972 -94627.104 160034.382 -94766.927 159805.097 -94955.097 159616.927 -95184.382 159477.104 -95445.972 159391.001 -95729.814 159361.928 -96025 159361.928 -97775 159391.001 -98070.186 159477.104 -98354.028 159616.927 -98615.618 159805.097 -98844.903 160034.382 -99033.073 160295.972 -99172.896 160424.643 -99211.928 157000 -99211.928 156875.518 -99224.188 156755.82 -99260.498 156645.506 -99319.463 156548.815 -99398.815 156469.463 -99495.506 156410.498 -99605.82 156374.188 -99725.518 156361.928 -99850 154164.321 -99850 153984.095 -99669.774 153577.089 -99397.821 153124.848 -99210.497 152644.751 -99115 152155.249 -99115 151675.152 -99210.497 151222.911 -99397.821 150815.905 -99669.774 150469.774 -100015.905 150197.821 -100422.911 150010.497 -100875.152 149915 -101355.249 147515.409 -101355.249 147477.932 -101166.842 147365.99 -100896.589 147203.475 -100653.368 146996.632 -100446.525 146822.24 -100330 146996.632 -100213.475 147203.475 -100006.632 147365.99 -99763.411 147477.932 -99493.158 147535 -99206.26 147535 -98913.74 147477.932 -98626.842 147365.99 -98356.589 147203.475 -98113.368 146996.632 -97906.525 146753.411 -97744.01 146483.158 -97632.068 146196.26 -97575 145903.74 -97575 145616.842 -97632.068 145346.589 -97744.01 145103.368 -97906.525 144896.525 -98113.368 144734.01 -98356.589 144622.068 -98626.842 144565 -98913.74 144565 -99206.26 144622.068 -99493.158 144734.01 -99763.411 144896.525 -100006.632 145103.368 -100213.475 145277.76 -100330 145103.368 -100446.525 144896.525 -100653.368 144734.01 -100896.589 144622.068 -101166.842 144565 -101453.74 144565 -101746.26 144622.068 -102033.158 144734.01 -102303.411 144896.525 -102546.632 145103.368 -102753.475 145277.76 -102870 145103.368 -102986.525 144896.525 -103193.368 144734.01 -103436.589 144622.068 -103706.842 144565 -103993.74 144565 -104286.26 144622.068 -104573.158 144734.01 -104843.411 144896.525 -105086.632 145028.38 -105218.487 144955.82 -105240.498 144845.506 -105299.463 144748.815 -105378.815 144669.463 -105475.506 144610.498 -105585.82 144574.188 -105705.518 144561.928 -105830 141636.355 -105830 141675.922 -105660.527 140970 -104954.605 140264.078 -105660.527 139135.922 -105660.527 138430 -104954.605 137724.078 -105660.527 116501.738 -105660.527 116568.125 -105594.14 116708.753 -105383.676 116805.619 -105149.821 116855 -104901.561 116855 -104851.455 137141.048 -104851.455 137180.73 -105101.449 137268.422 -105338.896 137315.799 -105427.534 137544.473 -105480.922 138250.395 -104775 138609.605 -104775 139315.527 -105480.922 139544.201 -105427.534 139650.095 -105197.626 139701.776 -104982.038 139720.73 -105101.449 139808.422 -105338.896 139855.799 -105427.534 140084.473 -105480.922 140790.395 -104775 141149.605 -104775 141855.527 -105480.922 142084.201 -105427.534 142190.095 -105197.626 142249.102 -104951.476 142258.952 -104698.545 142219.27 -104448.551 142131.578 -104211.104 142084.201 -104122.466 141855.527 -104069.078 141149.605 -104775 140790.395 -104775 140084.473 -104069.078 139855.799 -104122.466 139749.905 -104352.374 139698.224 -104567.962 139679.27 -104448.551 139591.578 -104211.104 139544.201 -104122.466 139315.527 -104069.078 138609.605 -104775 138250.395 -104775 137544.473 -104069.078 137315.799 -104122.466 137209.905 -104352.374 137150.898 -104598.524 137141.048 -104851.455 116855 -104851.455 116855 -104648.439 116805.619 -104400.179 116708.753 -104166.324 116568.125 -103955.86 116501.738 -103889.473 137724.078 -103889.473 138430 -104595.395 139135.922 -103889.473 140264.078 -103889.473 140970 -104595.395 141675.922 -103889.473 141622.534 -103660.799 141392.626 -103554.905 141146.476 -103495.898 140893.545 -103486.048 140643.551 -103525.73 140406.104 -103613.422 140317.466 -103660.799 140264.078 -103889.473 139135.922 -103889.473 139082.534 -103660.799 138852.626 -103554.905 138606.476 -103495.898 138353.545 -103486.048 138103.551 -103525.73 137866.104 -103613.422 137777.466 -103660.799 137724.078 -103889.473 116501.738 -103889.473 116389.14 -103776.875 116178.676 -103636.247 115944.821 -103539.381 115696.561 -103490 115443.439 -103490 115195.179 -103539.381 114961.324 -103636.247 114750.86 -103776.875 114571.875 -103955.86 114431.247 -104166.324 114334.381 -104400.179 114300 -104573.027 114265.619 -104400.179 114168.753 -104166.324 114028.125 -103955.86 113849.14 -103776.875 113638.676 -103636.247 113404.821 -103539.381 113156.561 -103490 112903.439 -103490 112655.179 -103539.381 112421.324 -103636.247 112210.86 -103776.875 112031.875 -103955.86 111891.247 -104166.324 111794.381 -104400.179 111745 -104648.439 94417.313 -104648.439 94383.073 -104584.382 94194.903 -104355.097 93965.618 -104166.927 93704.028 -104027.104 93575.357 -103988.072 97000 -103988.072 97124.482 -103975.812 97244.18 -103939.502 97354.494 -103880.537 97451.185 -103801.185 97530.537 -103704.494 97589.502 -103594.18 97625.812 -103474.482 97638.072 -103350 97638.072 -101355.249 99115 -101355.249 99115 -101844.751 99210.497 -102324.848 99397.821 -102777.089 99669.774 -103184.095 100015.905 -103530.226 100422.911 -103802.179 100875.152 -103989.503 101355.249 -104085 101844.751 -104085 102324.848 -103989.503 102777.089 -103802.179 103184.095 -103530.226 103530.226 -103184.095 103802.179 -102777.089 103989.503 -102324.848 104085 -101844.751 104085 -101355.249 103989.503 -100875.152 103802.179 -100422.911 103530.226 -100015.905 103184.095 -99669.774 102777.089 -99397.821 102324.848 -99210.497 101844.751 -99115 101355.249 -99115 100875.152 -99210.497 100422.911 -99397.821 100015.905 -99669.774 99669.774 -100015.905 99397.821 -100422.911 99210.497 -100875.152 99115 -101355.249 97638.072 -101355.249 97638.072 -99850 97625.812 -99725.518 97589.502 -99605.82 97530.537 -99495.506 97451.185 -99398.815 97354.494 -99319.463 97244.18 -99260.498 97124.482 -99224.188 97000 -99211.928 93500 -99211.928 93375.518 -99224.188 93255.82 -99260.498 93145.506 -99319.463 93048.815 -99398.815 92969.463 -99495.506 92910.498 -99605.82 92874.188 -99725.518 92861.928 -99850 92861.928 -103350 92874.188 -103474.482 92910.498 -103594.18 92969.463 -103704.494 93048.815 -103801.185 93145.506 -103880.537 93222.131 -103921.494 93125 -103911.928 91375 -103911.928 91079.814 -103941.001 90795.972 -104027.104 90534.382 -104166.927 90305.097 -104355.097 90116.927 -104584.382 89977.104 -104845.972 89891.001 -105129.814 89861.928 -105425 89861.928 -107175 89891.001 -107470.186 89977.104 -107754.028 90116.927 -108015.618 90305.097 -108244.903 90534.382 -108433.073 90725.074 -108535 88933.505 -108535 88540.333 -108496.449 88194.365 -108391.996 87875.276 -108222.333 87595.219 -107993.924 87364.859 -107715.466 87192.973 -107397.57 87086.106 -107052.34 87045 -106661.238 87045 -103350 87111.928 -103350 87124.188 -103474.482 87160.498 -103594.18 87219.463 -103704.494 87298.815 -103801.185 87395.506 -103880.537 87505.82 -103939.502 87625.518 -103975.812 87750 -103988.072 88964.25 -103985 89123 -103826.25 89123 -101727 89377 -101727 89377 -103826.25 89535.75 -103985 90750 -103988.072 90874.482 -103975.812 90994.18 -103939.502 91104.494 -103880.537 91201.185 -103801.185 91280.537 -103704.494 91339.502 -103594.18 91375.812 -103474.482 91388.072 -103350 91385 -101885.75 91226.25 -101727 89377 -101727 89123 -101727 87273.75 -101727 87115 -101885.75 87111.928 -103350 87045 -103350 87045 -99850 87111.928 -99850 87115 -101314.25 87273.75 -101473 89123 -101473 89123 -99373.75 89377 -99373.75 89377 -101473 91226.25 -101473 91385 -101314.25 91388.072 -99850 91375.812 -99725.518 91339.502 -99605.82 91280.537 -99495.506 91201.185 -99398.815 91104.494 -99319.463 90994.18 -99260.498 90874.482 -99224.188 90750 -99211.928 89535.75 -99215 89377 -99373.75 89123 -99373.75 88964.25 -99215 87750 -99211.928 87625.518 -99224.188 87505.82 -99260.498 87395.506 -99319.463 87298.815 -99398.815 87219.463 -99495.506 87160.498 -99605.82 87124.188 -99725.518 87111.928 -99850 87045 -99850 87045 -89408.439 111745 -89408.439 111745 -89661.561 111794.381 -89909.821 111891.247 -90143.676 112031.875 -90354.14 112210.86 -90533.125 112421.324 -90673.753 112655.179 -90770.619 112903.439 -90820 113156.561 -90820 113404.821 -90770.619 113638.676 -90673.753 113849.14 -90533.125 114028.125 -90354.14 114168.753 -90143.676 114265.619 -89909.821 114300 -89736.973 114334.381 -89909.821 114431.247 -90143.676 114571.875 -90354.14 114750.86 -90533.125 114961.324 -90673.753 115195.179 -90770.619 115443.439 -90820 115696.561 -90820 115944.821 -90770.619 116178.676 -90673.753 116389.14 -90533.125 116568.125 -90354.14 116708.753 -90143.676 116805.619 -89909.821 116855 -89661.561 116855 -89408.439 116805.619 -89160.179 116708.753 -88926.324 116568.125 -88715.86 116389.14 -88536.875 116178.676 -88396.247 115944.821 -88299.381 115696.561 -88250 115443.439 -88250 115195.179 -88299.381 114961.324 -88396.247 114750.86 -88536.875 114571.875 -88715.86 114431.247 -88926.324 114334.381 -89160.179 114300 -89333.027 114265.619 -89160.179 114168.753 -88926.324 114028.125 -88715.86 113849.14 -88536.875 113638.676 -88396.247 113404.821 -88299.381 113156.561 -88250 112903.439 -88250 112655.179 -88299.381 112421.324 -88396.247 112210.86 -88536.875 112031.875 -88715.86 111891.247 -88926.324 111794.381 -89160.179 111745 -89408.439 87045 -89408.439 87045 -85749 94000.928 -85749 94000.928 -86971 94013.188 -87095.482 94049.498 -87215.18 94108.463 -87325.494 94187.815 -87422.185 94284.506 -87501.537 94394.82 -87560.502 94514.518 -87596.812 94639 -87609.072 95861 -87609.072 95985.482 -87596.812 96105.18 -87560.502 96215.494 -87501.537 96312.185 -87422.185 96391.537 -87325.494 96450.502 -87215.18 96486.812 -87095.482 96499.072 -86971 96499.072 -85749 96486.812 -85624.518 96450.502 -85504.82 96391.537 -85394.506 96312.185 -85297.815 96215.494 -85218.463 96105.18 -85159.498 95985.482 -85123.188 95861 -85110.928 94639 -85110.928 94514.518 -85123.188 94394.82 -85159.498 94284.506 -85218.463 94187.815 -85297.815 94108.463 -85394.506 94049.498 -85504.82 94013.188 -85624.518 94000.928 -85749 87045 -85749 87045 -82339.721 87400 -82339.721 87400 -82760.279 87482.047 -83172.756 87642.988 -83561.302 87876.637 -83910.983 88174.017 -84208.363 88523.698 -84442.012 88912.244 -84602.953 89324.721 -84685 89745.279 -84685 90157.756 -84602.953 90546.302 -84442.012 90895.983 -84208.363 91193.363 -83910.983 91336.154 -83697.28 96544 -83697.28 96544 -83942.72 96591.883 -84183.445 96685.809 -84410.202 96822.168 -84614.279 96995.721 -84787.832 97199.798 -84924.191 97426.555 -85018.117 97667.28 -85066 97912.72 -85066 98153.445 -85018.117 98380.202 -84924.191 98584.279 -84787.832 98757.832 -84614.279 98894.191 -84410.202 98988.117 -84183.445 99036 -83942.72 99036 -83697.28 98988.117 -83456.555 98894.191 -83229.798 98757.832 -83025.721 98584.279 -82852.168 98380.202 -82715.809 98153.445 -82621.883 97912.72 -82574 97667.28 -82574 97426.555 -82621.883 97199.798 -82715.809 96995.721 -82852.168 96822.168 -83025.721 96685.809 -83229.798 96591.883 -83456.555 96544 -83697.28 91336.154 -83697.28 91427.012 -83561.302 91587.953 -83172.756 91670 -82760.279 91670 -82339.721 91587.953 -81927.244 91493.826 -81700 111541.928 -81700 111541.928 -83400 111554.188 -83524.482 111590.498 -83644.18 111649.463 -83754.494 111728.815 -83851.185 111825.506 -83930.537 111935.82 -83989.502 112055.518 -84025.812 112180 -84038.072 113880 -84038.072 114004.482 -84025.812 114124.18 -83989.502 114234.494 -83930.537 114331.185 -83851.185 114410.537 -83754.494 114469.502 -83644.18 114491.513 -83571.62 114623.368 -83703.475 114866.589 -83865.99 115136.842 -83977.932 115423.74 -84035 115716.26 -84035 116003.158 -83977.932 116273.411 -83865.99 116516.632 -83703.475 116723.475 -83496.632 116885.99 -83253.411 116997.932 -82983.158 117055 -82696.26 117055 -82403.74 116997.932 -82116.842 116885.99 -81846.589 116723.475 -81603.368 116516.632 -81396.525 116273.411 -81234.01 116003.158 -81122.068 115716.26 -81065 115423.74 -81065 115136.842 -81122.068 114866.589 -81234.01 114623.368 -81396.525 114491.513 -81528.38 114469.502 -81455.82 114410.537 -81345.506 114331.185 -81248.815 114234.494 -81169.463 114124.18 -81110.498 114004.482 -81074.188 113880 -81061.928 112180 -81061.928 112055.518 -81074.188 111935.82 -81110.498 111825.506 -81169.463 111728.815 -81248.815 111649.463 -81345.506 111590.498 -81455.82 111554.188 -81575.518 111541.928 -81700 91493.826 -81700 91427.012 -81538.698 91193.363 -81189.017 90895.983 -80891.637 90546.302 -80657.988 90157.756 -80497.047 89745.279 -80415 89324.721 -80415 88912.244 -80497.047 88523.698 -80657.988 88174.017 -80891.637 87876.637 -81189.017 87642.988 -81538.698 87482.047 -81927.244 87400 -82339.721 87045 -82339.721 87045 -81313.504 87083.551 -80920.332 87188.004 -80574.366 87357.667 -80255.276 87586.076 -79975.219 87864.534 -79744.859 88182.43 -79572.973 88527.658 -79466.107 88918.753 -79425 121150.211 -79425 120733.15 -79554.102"/></g><g id="L17sRIUP0i91_bottom_soldermask"><path d="M 121920 -85090 A 2540 2540 0 0 0 119380 -82550 M 165100 -78740 88900 -78740 M 119380 -82550 A 2540 2540 0 0 0 121920 -80010 M 132080 -80010 A 2540 2540 0 0 0 134620 -82550 2540 2540 0 0 0 132080 -85090 M 132080 -80010 121920 -80010 M 132080 -85090 121920 -85090 M 165100 -109220 88900 -109220 M 86360 -81280 86360 -106680 M 167640 -106680 167640 -81280 M 86360 -81280 A 2540 2540 0 0 0 88900 -78740 M 88900 -109220 A 2540 2540 0 0 0 86360 -106680 M 167640 -106680 A 2540 2540 0 0 0 165100 -109220 M 165100 -78740 A 2540 2540 0 0 0 167640 -81280" fill="none" stroke-width="100"/><use xlink:href="#JPh87-20BU9Z_pad-11" x="140970" y="-89535"/><use xlink:href="#JPh87-20BU9Z_pad-11" x="138430" y="-89535"/><use xlink:href="#JPh87-20BU9Z_pad-11" x="133350" y="-89535"/><use xlink:href="#JPh87-20BU9Z_pad-11" x="115570" y="-89535"/><use xlink:href="#JPh87-20BU9Z_pad-11" x="113030" y="-89535"/><use xlink:href="#JPh87-20BU9Z_pad-11" x="113030" y="-104775"/><use xlink:href="#JPh87-20BU9Z_pad-11" x="115570" y="-104775"/><use xlink:href="#JPh87-20BU9Z_pad-11" x="138430" y="-104775"/><use xlink:href="#JPh87-20BU9Z_pad-11" x="140970" y="-104775"/><use xlink:href="#JPh87-20BU9Z_pad-12" x="164465" y="-82550"/><use xlink:href="#JPh87-20BU9Z_pad-12" x="164465" y="-88900"/><use xlink:href="#JPh87-20BU9Z_pad-12" x="89535" y="-82550"/><use xlink:href="#JPh87-20BU9Z_pad-13" x="95250" y="-86360"/><use xlink:href="#JPh87-20BU9Z_pad-14" x="97790" y="-83820"/><use xlink:href="#JPh87-20BU9Z_pad-14" x="100330" y="-86360"/><use xlink:href="#JPh87-20BU9Z_pad-15" x="152400" y="-101600"/><use xlink:href="#JPh87-20BU9Z_pad-15" x="101600" y="-101600"/><use xlink:href="#JPh87-20BU9Z_pad-16" x="95250" y="-101600"/><path d="M 87750 -102600 87750 -100600 A 750 750 0 0 0 88500 -99850 L 90000 -99850 A 750 750 0 0 0 90750 -100600 L 90750 -102600 A 750 750 0 0 0 90000 -103350 L 88500 -103350 A 750 750 0 0 0 87750 -102600"/><path d="M 90500 -107175 90500 -105425 A 875 875 0 0 0 91375 -104550 L 93125 -104550 A 875 875 0 0 0 94000 -105425 L 94000 -107175 A 875 875 0 0 0 93125 -108050 L 91375 -108050 A 875 875 0 0 0 90500 -107175"/><path d="M 163500 -96025 163500 -97775 A 875 875 0 0 0 162625 -98650 L 160875 -98650 A 875 875 0 0 0 160000 -97775 L 160000 -96025 A 875 875 0 0 0 160875 -95150 L 162625 -95150 A 875 875 0 0 0 163500 -96025"/><path d="M 166250 -100600 166250 -102600 A 750 750 0 0 0 165500 -103350 L 164000 -103350 A 750 750 0 0 0 163250 -102600 L 163250 -100600 A 750 750 0 0 0 164000 -99850 L 165500 -99850 A 750 750 0 0 0 166250 -100600"/><use xlink:href="#JPh87-20BU9Z_pad-16" x="158750" y="-101600"/><use xlink:href="#JPh87-20BU9Z_pad-17" x="146050" y="-99060"/><use xlink:href="#JPh87-20BU9Z_pad-17" x="146050" y="-101600"/><use xlink:href="#JPh87-20BU9Z_pad-17" x="146050" y="-104140"/><use xlink:href="#JPh87-20BU9Z_pad-18" x="146050" y="-106680"/><use xlink:href="#JPh87-20BU9Z_pad-18" x="113030" y="-82550"/><use xlink:href="#JPh87-20BU9Z_pad-17" x="115570" y="-82550"/></g><g id="L17sRIUP0i91_bottom_solderpaste"><path d="M 121920 -85090 A 2540 2540 0 0 0 119380 -82550 M 165100 -78740 88900 -78740 M 119380 -82550 A 2540 2540 0 0 0 121920 -80010 M 132080 -80010 A 2540 2540 0 0 0 134620 -82550 2540 2540 0 0 0 132080 -85090 M 132080 -80010 121920 -80010 M 132080 -85090 121920 -85090 M 165100 -109220 88900 -109220 M 86360 -81280 86360 -106680 M 167640 -106680 167640 -81280 M 86360 -81280 A 2540 2540 0 0 0 88900 -78740 M 88900 -109220 A 2540 2540 0 0 0 86360 -106680 M 167640 -106680 A 2540 2540 0 0 0 165100 -109220 M 165100 -78740 A 2540 2540 0 0 0 167640 -81280" fill="none" stroke-width="100"/></g><g id="L17sRIUP0i91_bottom_silkscreen"><path d="M 154923.333 -81603.571 154780.476 -81651.19 154732.857 -81698.809 154685.238 -81794.047 154685.238 -81936.904 154732.857 -82032.142 154780.476 -82079.761 154875.714 -82127.38 155256.666 -82127.38 155256.666 -81127.38 154923.333 -81127.38 154828.095 -81175 154780.476 -81222.619 154732.857 -81317.857 154732.857 -81413.095 154780.476 -81508.333 154828.095 -81555.952 154923.333 -81603.571 155256.666 -81603.571 M 153780.476 -82127.38 154256.666 -82127.38 154256.666 -81127.38 M 153494.761 -81841.666 153018.571 -81841.666 M 153590 -82127.38 153256.666 -81127.38 152923.333 -82127.38 M 152590 -82127.38 152590 -81127.38 M 152161.428 -82079.761 152018.571 -82127.38 151780.476 -82127.38 151685.238 -82079.761 151637.619 -82032.142 151590 -81936.904 151590 -81841.666 151637.619 -81746.428 151685.238 -81698.809 151780.476 -81651.19 151970.952 -81603.571 152066.19 -81555.952 152113.809 -81508.333 152161.428 -81413.095 152161.428 -81317.857 152113.809 -81222.619 152066.19 -81175 151970.952 -81127.38 151732.857 -81127.38 151590 -81175 M 151161.428 -81603.571 150828.095 -81603.571 M 150685.238 -82127.38 151161.428 -82127.38 151161.428 -81127.38 150685.238 -81127.38 M 149637.619 -81127.38 149066.19 -81127.38 M 149351.904 -82127.38 149351.904 -81127.38 M 148732.857 -82127.38 148732.857 -81127.38 M 148732.857 -81603.571 148161.428 -81603.571 M 148161.428 -82127.38 148161.428 -81127.38 M 147494.761 -81127.38 147304.285 -81127.38 147209.047 -81175 147113.809 -81270.238 147066.19 -81460.714 147066.19 -81794.047 147113.809 -81984.523 147209.047 -82079.761 147304.285 -82127.38 147494.761 -82127.38 147590 -82079.761 147685.238 -81984.523 147732.857 -81794.047 147732.857 -81460.714 147685.238 -81270.238 147590 -81175 147494.761 -81127.38 M 146637.619 -82127.38 146637.619 -81127.38 146304.285 -81841.666 145970.952 -81127.38 145970.952 -82127.38 M 145494.761 -82127.38 145494.761 -81127.38 145113.809 -81127.38 145018.571 -81175 144970.952 -81222.619 144923.333 -81317.857 144923.333 -81460.714 144970.952 -81555.952 145018.571 -81603.571 145113.809 -81651.19 145494.761 -81651.19 M 144542.38 -82079.761 144399.523 -82127.38 144161.428 -82127.38 144066.19 -82079.761 144018.571 -82032.142 143970.952 -81936.904 143970.952 -81841.666 144018.571 -81746.428 144066.19 -81698.809 144161.428 -81651.19 144351.904 -81603.571 144447.142 -81555.952 144494.761 -81508.333 144542.38 -81413.095 144542.38 -81317.857 144494.761 -81222.619 144447.142 -81175 144351.904 -81127.38 144113.809 -81127.38 143970.952 -81175 M 143351.904 -81127.38 143161.428 -81127.38 143066.19 -81175 142970.952 -81270.238 142923.333 -81460.714 142923.333 -81794.047 142970.952 -81984.523 143066.19 -82079.761 143161.428 -82127.38 143351.904 -82127.38 143447.142 -82079.761 143542.38 -81984.523 143590 -81794.047 143590 -81460.714 143542.38 -81270.238 143447.142 -81175 143351.904 -81127.38 M 142494.761 -82127.38 142494.761 -81127.38 141923.333 -82127.38 141923.333 -81127.38 M 153328.095 -82877.38 153328.095 -83686.904 153280.476 -83782.142 153232.857 -83829.761 153137.619 -83877.38 152947.142 -83877.38 152851.904 -83829.761 152804.285 -83782.142 152756.666 -83686.904 152756.666 -82877.38 M 152375.714 -82877.38 152137.619 -83877.38 151947.142 -83163.095 151756.666 -83877.38 151518.571 -82877.38 M 151137.619 -83496.428 150375.714 -83496.428 M 149899.523 -83877.38 149899.523 -82877.38 149566.19 -83591.666 149232.857 -82877.38 149232.857 -83877.38 M 148804.285 -83591.666 148328.095 -83591.666 M 148899.523 -83877.38 148566.19 -82877.38 148232.857 -83877.38 M 147899.523 -83877.38 147899.523 -82877.38 147661.428 -82877.38 147518.571 -82925 147423.333 -83020.238 147375.714 -83115.476 147328.095 -83305.952 147328.095 -83448.809 147375.714 -83639.285 147423.333 -83734.523 147518.571 -83829.761 147661.428 -83877.38 147899.523 -83877.38 M 146947.142 -83829.761 146804.285 -83877.38 146566.19 -83877.38 146470.952 -83829.761 146423.333 -83782.142 146375.714 -83686.904 146375.714 -83591.666 146423.333 -83496.428 146470.952 -83448.809 146566.19 -83401.19 146756.666 -83353.571 146851.904 -83305.952 146899.523 -83258.333 146947.142 -83163.095 146947.142 -83067.857 146899.523 -82972.619 146851.904 -82925 146756.666 -82877.38 146518.571 -82877.38 146375.714 -82925 M 145947.142 -83877.38 145947.142 -82877.38 M 145280.476 -82877.38 145090 -82877.38 144994.761 -82925 144899.523 -83020.238 144851.904 -83210.714 144851.904 -83544.047 144899.523 -83734.523 144994.761 -83829.761 145090 -83877.38 145280.476 -83877.38 145375.714 -83829.761 145470.952 -83734.523 145518.571 -83544.047 145518.571 -83210.714 145470.952 -83020.238 145375.714 -82925 145280.476 -82877.38 M 144423.333 -83877.38 144423.333 -82877.38 143851.904 -83877.38 143851.904 -82877.38" fill="none" stroke-width="250"/><path d="M 121920 -85090 A 2540 2540 0 0 0 119380 -82550 M 165100 -78740 88900 -78740 M 119380 -82550 A 2540 2540 0 0 0 121920 -80010 M 132080 -80010 A 2540 2540 0 0 0 134620 -82550 2540 2540 0 0 0 132080 -85090 M 132080 -80010 121920 -80010 M 132080 -85090 121920 -85090 M 165100 -109220 88900 -109220 M 86360 -81280 86360 -106680 M 167640 -106680 167640 -81280 M 86360 -81280 A 2540 2540 0 0 0 88900 -78740 M 88900 -109220 A 2540 2540 0 0 0 86360 -106680 M 167640 -106680 A 2540 2540 0 0 0 165100 -109220 M 165100 -78740 A 2540 2540 0 0 0 167640 -81280" fill="none" stroke-width="100"/><path d="M 141500 -107755 141500 -107755 M 141500 -107655 141500 -107655" fill="none" stroke-width="300"/><path d="M 111100 -107305 142900 -107305 M 111100 -87005 111100 -107305 M 142900 -87005 111100 -87005 M 142900 -107305 142900 -87005" fill="none" stroke-width="100"/><path d="M 141500 -107655 A 50 50 0 0 1 141500 -107755 50 50 0 0 1 141500 -107655" fill="none" stroke-width="300"/><path d="M 144906.904 -87082.38 144906.904 -87891.904 144859.285 -87987.142 144811.666 -88034.761 144716.428 -88082.38 144525.952 -88082.38 144430.714 -88034.761 144383.095 -87987.142 144335.476 -87891.904 144335.476 -87082.38 M 143906.904 -87177.619 143859.285 -87130 143764.047 -87082.38 143525.952 -87082.38 143430.714 -87130 143383.095 -87177.619 143335.476 -87272.857 143335.476 -87368.095 143383.095 -87510.952 143954.523 -88082.38 143335.476 -88082.38" fill="none" stroke-width="150"/></g><g id="L17sRIUP0i91_bottom_drill1" transform="scale(25.4,25.4)"><use xlink:href="#N-pHFtv1jkQ5_pad-1" x="4000" y="-4000"/><use xlink:href="#N-pHFtv1jkQ5_pad-1" x="6000" y="-4000"/></g><g id="L17sRIUP0i91_bottom_drill2" transform="scale(25.4,25.4)"><use xlink:href="#eq047J7Obb65_pad-1" x="3750" y="-3400"/><use xlink:href="#eq047J7Obb65_pad-1" x="3850" y="-3300"/><use xlink:href="#eq047J7Obb65_pad-1" x="3950" y="-3400"/><use xlink:href="#eq047J7Obb65_pad-2" x="4450" y="-3525"/><use xlink:href="#eq047J7Obb65_pad-2" x="4450" y="-4125"/><use xlink:href="#eq047J7Obb65_pad-2" x="4550" y="-3525"/><use xlink:href="#eq047J7Obb65_pad-2" x="4550" y="-4125"/><use xlink:href="#eq047J7Obb65_pad-2" x="5250" y="-3525"/><use xlink:href="#eq047J7Obb65_pad-2" x="5450" y="-3525"/><use xlink:href="#eq047J7Obb65_pad-2" x="5450" y="-4125"/><use xlink:href="#eq047J7Obb65_pad-2" x="5550" y="-3525"/><use xlink:href="#eq047J7Obb65_pad-2" x="5550" y="-4125"/><use xlink:href="#eq047J7Obb65_pad-3" x="4450" y="-3250"/><use xlink:href="#eq047J7Obb65_pad-3" x="4550" y="-3250"/><use xlink:href="#eq047J7Obb65_pad-3" x="5750" y="-3900"/><use xlink:href="#eq047J7Obb65_pad-3" x="5750" y="-4000"/><use xlink:href="#eq047J7Obb65_pad-3" x="5750" y="-4100"/><use xlink:href="#eq047J7Obb65_pad-3" x="5750" y="-4200"/><use xlink:href="#eq047J7Obb65_pad-4" x="3525" y="-3250"/><use xlink:href="#eq047J7Obb65_pad-4" x="6475" y="-3250"/><use xlink:href="#eq047J7Obb65_pad-4" x="6475" y="-3500"/><path d="M 3513.8 -3960.6 3513.8 -4039.4 M 3592.5 -4185 3671.3 -4185 M 3750 -3960.6 3750 -4039.4 M 6250 -4039.4 6250 -3960.6 M 6407.5 -3815 6328.7 -3815 M 6486.2 -4039.4 6486.2 -3960.6" fill="none" stroke-width="39.4"/></g><clipPath id="L17sRIUP0i91_bottom_outline"><path d="M 121920 -85090 A 2540 2540 0 0 0 119380 -82550 2540 2540 0 0 0 121920 -80010 L 132080 -80010 A 2540 2540 0 0 0 134620 -82550 2540 2540 0 0 0 132080 -85090 L 121920 -85090 M 165100 -78740 88900 -78740 A 2540 2540 0 0 1 86360 -81280 L 86360 -106680 A 2540 2540 0 0 1 88900 -109220 L 165100 -109220 A 2540 2540 0 0 1 167640 -106680 L 167640 -81280 A 2540 2540 0 0 1 165100 -78740" fill="none" stroke-width="100"/></clipPath><mask id="L17sRIUP0i91_bottom_mech-mask"><g fill="#000" stroke="#000"><rect x="86360" y="-109220" width="81280" height="30480" fill="#fff"/><use xlink:href="#L17sRIUP0i91_bottom_drill1"/><use xlink:href="#L17sRIUP0i91_bottom_drill2"/></g></mask><mask id="L17sRIUP0i91_bottom_cf-mask"><g fill="#fff" stroke="#fff"><use xlink:href="#L17sRIUP0i91_bottom_soldermask"/></g></mask><mask id="L17sRIUP0i91_bottom_sm-mask"><g fill="#000" stroke="#000"><rect x="86360" y="-109220" width="81280" height="30480" fill="#fff"/><use xlink:href="#L17sRIUP0i91_bottom_soldermask"/></g></mask></defs><g transform="translate(0,-187960) scale(1,-1)"><g mask="url(#L17sRIUP0i91_bottom_mech-mask)" clip-path="url(#L17sRIUP0i91_bottom_outline)" transform="translate(254000,0) scale(-1,1)"><rect x="86360" y="-109220" width="81280" height="30480" fill="currentColor" class="L17sRIUP0i91_fr4"/><use xlink:href="#L17sRIUP0i91_bottom_copper" fill="currentColor" stroke="currentColor" class="L17sRIUP0i91_cu"/><use xlink:href="#L17sRIUP0i91_bottom_copper" fill="currentColor" stroke="currentColor" class="L17sRIUP0i91_cf" mask="url(#L17sRIUP0i91_bottom_cf-mask)"/><g mask="url(#L17sRIUP0i91_bottom_sm-mask)"><rect x="86360" y="-109220" width="81280" height="30480" fill="currentColor" class="L17sRIUP0i91_sm"/><use xlink:href="#L17sRIUP0i91_bottom_silkscreen" fill="currentColor" stroke="currentColor" class="L17sRIUP0i91_ss"/></g><use xlink:href="#L17sRIUP0i91_bottom_solderpaste" fill="currentColor" stroke="currentColor" class="L17sRIUP0i91_sp"/></g></g></svg>