%TF.GenerationSoftware,KiCad,Pcbnew,5.1.8+dfsg1-1+b1*%
%TF.CreationDate,2021-04-24T17:27:20-05:00*%
%TF.ProjectId,driver,64726976-6572-42e6-9b69-6361645f7063,B*%
%TF.SameCoordinates,Original*%
%TF.FileFunction,Copper,L2,Bot*%
%TF.FilePolarity,Positive*%
%FSLAX46Y46*%
G04 Gerber Fmt 4.6, Leading zero omitted, Abs format (unit mm)*
G04 Created by KiCad (PCBNEW 5.1.8+dfsg1-1+b1) date 2021-04-24 17:27:20*
%MOMM*%
%LPD*%
G01*
G04 APERTURE LIST*
%TA.AperFunction,Profile*%
%ADD10C,0.100000*%
%TD*%
%TA.AperFunction,ComponentPad*%
%ADD11C,3.000000*%
%TD*%
%TA.AperFunction,ComponentPad*%
%ADD12R,1.222000X1.222000*%
%TD*%
%TA.AperFunction,ComponentPad*%
%ADD13C,1.222000*%
%TD*%
%TA.AperFunction,ComponentPad*%
%ADD14C,1.300000*%
%TD*%
%TA.AperFunction,ComponentPad*%
%ADD15R,3.500000X3.500000*%
%TD*%
%TA.AperFunction,ComponentPad*%
%ADD16O,1.700000X1.700000*%
%TD*%
%TA.AperFunction,ComponentPad*%
%ADD17R,1.700000X1.700000*%
%TD*%
%TA.AperFunction,Conductor*%
%ADD18C,0.889000*%
%TD*%
%TA.AperFunction,Conductor*%
%ADD19C,0.254000*%
%TD*%
%TA.AperFunction,Conductor*%
%ADD20C,0.100000*%
%TD*%
G04 APERTURE END LIST*
D10*
X121920000Y-85090000D02*
G75*
G02*
X119380000Y-82550000I0J2540000D01*
G01*
X165100000Y-78740000D02*
X88900000Y-78740000D01*
X119380000Y-82550000D02*
G75*
G02*
X121920000Y-80010000I2540000J0D01*
G01*
X132080000Y-80010000D02*
G75*
G02*
X134620000Y-82550000I0J-2540000D01*
G01*
X134620000Y-82550000D02*
G75*
G02*
X132080000Y-85090000I-2540000J0D01*
G01*
X132080000Y-80010000D02*
X121920000Y-80010000D01*
X132080000Y-85090000D02*
X121920000Y-85090000D01*
X165100000Y-109220000D02*
X88900000Y-109220000D01*
X86360000Y-81280000D02*
X86360000Y-106680000D01*
X167640000Y-106680000D02*
X167640000Y-81280000D01*
X86360000Y-81280000D02*
G75*
G02*
X88900000Y-78740000I2540000J0D01*
G01*
X88900000Y-109220000D02*
G75*
G02*
X86360000Y-106680000I0J2540000D01*
G01*
X167640000Y-106680000D02*
G75*
G02*
X165100000Y-109220000I-2540000J0D01*
G01*
X165100000Y-78740000D02*
G75*
G02*
X167640000Y-81280000I0J-2540000D01*
G01*
D11*
%TO.P,TP3,1*%
%TO.N,GND*%
X164465000Y-82550000D03*
%TD*%
%TO.P,TP2,1*%
%TO.N,+12V*%
X164465000Y-88900000D03*
%TD*%
%TO.P,TP1,1*%
%TO.N,Net-(R1-Pad2)*%
X89535000Y-82550000D03*
%TD*%
D12*
%TO.P,RV1,1*%
%TO.N,Net-(R2-Pad1)*%
X95250000Y-86360000D03*
D13*
%TO.P,RV1,2*%
%TO.N,Net-(R1-Pad2)*%
X97790000Y-83820000D03*
%TO.P,RV1,3*%
X100330000Y-86360000D03*
%TD*%
D14*
%TO.P,U2,24*%
%TO.N,+12V*%
X140970000Y-89535000D03*
%TO.P,U2,23*%
X138430000Y-89535000D03*
%TO.P,U2,21*%
%TO.N,Net-(R1-Pad2)*%
X133350000Y-89535000D03*
%TO.P,U2,14*%
%TO.N,Net-(J7-Pad1)*%
X115570000Y-89535000D03*
%TO.P,U2,13*%
X113030000Y-89535000D03*
%TO.P,U2,12*%
%TO.N,Net-(J7-Pad2)*%
X113030000Y-104775000D03*
%TO.P,U2,11*%
X115570000Y-104775000D03*
%TO.P,U2,2*%
%TO.N,GND*%
X138430000Y-104775000D03*
%TO.P,U2,1*%
X140970000Y-104775000D03*
%TD*%
D15*
%TO.P,J4,1*%
%TO.N,+12V*%
X95250000Y-101600000D03*
%TO.P,J4,2*%
%TO.N,GND*%
%TA.AperFunction,ComponentPad*%
G36*
G01*
X87750000Y-102600000D02*
X87750000Y-100600000D01*
G75*
G02*
X88500000Y-99850000I750000J0D01*
G01*
X90000000Y-99850000D01*
G75*
G02*
X90750000Y-100600000I0J-750000D01*
G01*
X90750000Y-102600000D01*
G75*
G02*
X90000000Y-103350000I-750000J0D01*
G01*
X88500000Y-103350000D01*
G75*
G02*
X87750000Y-102600000I0J750000D01*
G01*
G37*
%TD.AperFunction*%
%TO.P,J4,3*%
%TO.N,N/C*%
%TA.AperFunction,ComponentPad*%
G36*
G01*
X90500000Y-107175000D02*
X90500000Y-105425000D01*
G75*
G02*
X91375000Y-104550000I875000J0D01*
G01*
X93125000Y-104550000D01*
G75*
G02*
X94000000Y-105425000I0J-875000D01*
G01*
X94000000Y-107175000D01*
G75*
G02*
X93125000Y-108050000I-875000J0D01*
G01*
X91375000Y-108050000D01*
G75*
G02*
X90500000Y-107175000I0J875000D01*
G01*
G37*
%TD.AperFunction*%
%TD*%
%TO.P,J3,3*%
%TO.N,N/C*%
%TA.AperFunction,ComponentPad*%
G36*
G01*
X163500000Y-96025000D02*
X163500000Y-97775000D01*
G75*
G02*
X162625000Y-98650000I-875000J0D01*
G01*
X160875000Y-98650000D01*
G75*
G02*
X160000000Y-97775000I0J875000D01*
G01*
X160000000Y-96025000D01*
G75*
G02*
X160875000Y-95150000I875000J0D01*
G01*
X162625000Y-95150000D01*
G75*
G02*
X163500000Y-96025000I0J-875000D01*
G01*
G37*
%TD.AperFunction*%
%TO.P,J3,2*%
%TO.N,GND*%
%TA.AperFunction,ComponentPad*%
G36*
G01*
X166250000Y-100600000D02*
X166250000Y-102600000D01*
G75*
G02*
X165500000Y-103350000I-750000J0D01*
G01*
X164000000Y-103350000D01*
G75*
G02*
X163250000Y-102600000I0J750000D01*
G01*
X163250000Y-100600000D01*
G75*
G02*
X164000000Y-99850000I750000J0D01*
G01*
X165500000Y-99850000D01*
G75*
G02*
X166250000Y-100600000I0J-750000D01*
G01*
G37*
%TD.AperFunction*%
%TO.P,J3,1*%
%TO.N,+12V*%
X158750000Y-101600000D03*
%TD*%
D16*
%TO.P,J5,4*%
%TO.N,N/C*%
X146050000Y-99060000D03*
%TO.P,J5,3*%
X146050000Y-101600000D03*
%TO.P,J5,2*%
%TO.N,+12V*%
X146050000Y-104140000D03*
D17*
%TO.P,J5,1*%
%TO.N,GND*%
X146050000Y-106680000D03*
%TD*%
%TO.P,J7,1*%
%TO.N,Net-(J7-Pad1)*%
X113030000Y-82550000D03*
D16*
%TO.P,J7,2*%
%TO.N,Net-(J7-Pad2)*%
X115570000Y-82550000D03*
%TD*%
D18*
%TO.N,Net-(R1-Pad2)*%
X130175000Y-86360000D02*
X133350000Y-89535000D01*
X100330000Y-86360000D02*
X130175000Y-86360000D01*
%TD*%
D19*
%TO.N,GND*%
X120733150Y-79554102D02*
X120675896Y-79578170D01*
X120618352Y-79601419D01*
X120609907Y-79605909D01*
X120173847Y-79841686D01*
X120122384Y-79876398D01*
X120070427Y-79910398D01*
X120063015Y-79916443D01*
X119681055Y-80232427D01*
X119637308Y-80276481D01*
X119592950Y-80319919D01*
X119586853Y-80327289D01*
X119273543Y-80711445D01*
X119239192Y-80763148D01*
X119204110Y-80814384D01*
X119199561Y-80822797D01*
X118966834Y-81260493D01*
X118943171Y-81317903D01*
X118918718Y-81374958D01*
X118915889Y-81384094D01*
X118772610Y-81858659D01*
X118760548Y-81919577D01*
X118747643Y-81980289D01*
X118746643Y-81989800D01*
X118698269Y-82483156D01*
X118698269Y-82513086D01*
X118695038Y-82542831D01*
X118695004Y-82552395D01*
X118695066Y-82570127D01*
X118698090Y-82599896D01*
X118697881Y-82629815D01*
X118698814Y-82639334D01*
X118750632Y-83132340D01*
X118763109Y-83193121D01*
X118774749Y-83254142D01*
X118777513Y-83263298D01*
X118924103Y-83736851D01*
X118948167Y-83794097D01*
X118971419Y-83851648D01*
X118975907Y-83860089D01*
X118975909Y-83860094D01*
X118975912Y-83860098D01*
X119211686Y-84296153D01*
X119246398Y-84347616D01*
X119280398Y-84399573D01*
X119286443Y-84406985D01*
X119602427Y-84788945D01*
X119646500Y-84832712D01*
X119689920Y-84877050D01*
X119697289Y-84883147D01*
X120081445Y-85196457D01*
X120133148Y-85230808D01*
X120184384Y-85265890D01*
X120192797Y-85270439D01*
X120211719Y-85280500D01*
X100957155Y-85280500D01*
X100920202Y-85255809D01*
X100693445Y-85161883D01*
X100452720Y-85114000D01*
X100207280Y-85114000D01*
X99966555Y-85161883D01*
X99739798Y-85255809D01*
X99535721Y-85392168D01*
X99362168Y-85565721D01*
X99225809Y-85769798D01*
X99131883Y-85996555D01*
X99084000Y-86237280D01*
X99084000Y-86482720D01*
X99131883Y-86723445D01*
X99225809Y-86950202D01*
X99362168Y-87154279D01*
X99535721Y-87327832D01*
X99739798Y-87464191D01*
X99966555Y-87558117D01*
X100207280Y-87606000D01*
X100452720Y-87606000D01*
X100693445Y-87558117D01*
X100920202Y-87464191D01*
X100957155Y-87439500D01*
X129727858Y-87439500D01*
X132093574Y-89805217D01*
X132114381Y-89909821D01*
X132211247Y-90143676D01*
X132351875Y-90354140D01*
X132530860Y-90533125D01*
X132741324Y-90673753D01*
X132975179Y-90770619D01*
X133223439Y-90820000D01*
X133476561Y-90820000D01*
X133724821Y-90770619D01*
X133958676Y-90673753D01*
X134169140Y-90533125D01*
X134348125Y-90354140D01*
X134488753Y-90143676D01*
X134585619Y-89909821D01*
X134635000Y-89661561D01*
X134635000Y-89408439D01*
X137145000Y-89408439D01*
X137145000Y-89661561D01*
X137194381Y-89909821D01*
X137291247Y-90143676D01*
X137431875Y-90354140D01*
X137610860Y-90533125D01*
X137821324Y-90673753D01*
X138055179Y-90770619D01*
X138303439Y-90820000D01*
X138556561Y-90820000D01*
X138804821Y-90770619D01*
X139038676Y-90673753D01*
X139249140Y-90533125D01*
X139428125Y-90354140D01*
X139568753Y-90143676D01*
X139665619Y-89909821D01*
X139700000Y-89736973D01*
X139734381Y-89909821D01*
X139831247Y-90143676D01*
X139971875Y-90354140D01*
X140150860Y-90533125D01*
X140361324Y-90673753D01*
X140595179Y-90770619D01*
X140843439Y-90820000D01*
X141096561Y-90820000D01*
X141344821Y-90770619D01*
X141578676Y-90673753D01*
X141789140Y-90533125D01*
X141968125Y-90354140D01*
X142108753Y-90143676D01*
X142205619Y-89909821D01*
X142255000Y-89661561D01*
X142255000Y-89408439D01*
X142205619Y-89160179D01*
X142108753Y-88926324D01*
X141968125Y-88715860D01*
X141941986Y-88689721D01*
X162330000Y-88689721D01*
X162330000Y-89110279D01*
X162412047Y-89522756D01*
X162572988Y-89911302D01*
X162806637Y-90260983D01*
X163104017Y-90558363D01*
X163453698Y-90792012D01*
X163842244Y-90952953D01*
X164254721Y-91035000D01*
X164675279Y-91035000D01*
X165087756Y-90952953D01*
X165476302Y-90792012D01*
X165825983Y-90558363D01*
X166123363Y-90260983D01*
X166357012Y-89911302D01*
X166517953Y-89522756D01*
X166600000Y-89110279D01*
X166600000Y-88689721D01*
X166517953Y-88277244D01*
X166357012Y-87888698D01*
X166123363Y-87539017D01*
X165825983Y-87241637D01*
X165476302Y-87007988D01*
X165087756Y-86847047D01*
X164675279Y-86765000D01*
X164254721Y-86765000D01*
X163842244Y-86847047D01*
X163453698Y-87007988D01*
X163104017Y-87241637D01*
X162806637Y-87539017D01*
X162572988Y-87888698D01*
X162412047Y-88277244D01*
X162330000Y-88689721D01*
X141941986Y-88689721D01*
X141789140Y-88536875D01*
X141578676Y-88396247D01*
X141344821Y-88299381D01*
X141096561Y-88250000D01*
X140843439Y-88250000D01*
X140595179Y-88299381D01*
X140361324Y-88396247D01*
X140150860Y-88536875D01*
X139971875Y-88715860D01*
X139831247Y-88926324D01*
X139734381Y-89160179D01*
X139700000Y-89333027D01*
X139665619Y-89160179D01*
X139568753Y-88926324D01*
X139428125Y-88715860D01*
X139249140Y-88536875D01*
X139038676Y-88396247D01*
X138804821Y-88299381D01*
X138556561Y-88250000D01*
X138303439Y-88250000D01*
X138055179Y-88299381D01*
X137821324Y-88396247D01*
X137610860Y-88536875D01*
X137431875Y-88715860D01*
X137291247Y-88926324D01*
X137194381Y-89160179D01*
X137145000Y-89408439D01*
X134635000Y-89408439D01*
X134585619Y-89160179D01*
X134488753Y-88926324D01*
X134348125Y-88715860D01*
X134169140Y-88536875D01*
X133958676Y-88396247D01*
X133724821Y-88299381D01*
X133620217Y-88278574D01*
X131116642Y-85775000D01*
X132113647Y-85775000D01*
X132144018Y-85772009D01*
X132159815Y-85772119D01*
X132169334Y-85771186D01*
X132662340Y-85719368D01*
X132723121Y-85706891D01*
X132784142Y-85695251D01*
X132793298Y-85692487D01*
X133266851Y-85545897D01*
X133324097Y-85521833D01*
X133381648Y-85498581D01*
X133390089Y-85494093D01*
X133390094Y-85494091D01*
X133390098Y-85494088D01*
X133826153Y-85258314D01*
X133877616Y-85223602D01*
X133929573Y-85189602D01*
X133936985Y-85183557D01*
X134318945Y-84867573D01*
X134362712Y-84823500D01*
X134407050Y-84780080D01*
X134413147Y-84772711D01*
X134726457Y-84388555D01*
X134760808Y-84336852D01*
X134795890Y-84285616D01*
X134800439Y-84277203D01*
X134925683Y-84041653D01*
X163152952Y-84041653D01*
X163308962Y-84357214D01*
X163683745Y-84548020D01*
X164088551Y-84662044D01*
X164507824Y-84694902D01*
X164925451Y-84645334D01*
X165325383Y-84515243D01*
X165621038Y-84357214D01*
X165777048Y-84041653D01*
X164465000Y-82729605D01*
X163152952Y-84041653D01*
X134925683Y-84041653D01*
X135033166Y-83839507D01*
X135056820Y-83782118D01*
X135081283Y-83725042D01*
X135084111Y-83715905D01*
X135227390Y-83241341D01*
X135239452Y-83180423D01*
X135252357Y-83119711D01*
X135253357Y-83110199D01*
X135301731Y-82616844D01*
X135301731Y-82592824D01*
X162320098Y-82592824D01*
X162369666Y-83010451D01*
X162499757Y-83410383D01*
X162657786Y-83706038D01*
X162973347Y-83862048D01*
X164285395Y-82550000D01*
X164644605Y-82550000D01*
X165956653Y-83862048D01*
X166272214Y-83706038D01*
X166463020Y-83331255D01*
X166577044Y-82926449D01*
X166609902Y-82507176D01*
X166560334Y-82089549D01*
X166430243Y-81689617D01*
X166272214Y-81393962D01*
X165956653Y-81237952D01*
X164644605Y-82550000D01*
X164285395Y-82550000D01*
X162973347Y-81237952D01*
X162657786Y-81393962D01*
X162466980Y-81768745D01*
X162352956Y-82173551D01*
X162320098Y-82592824D01*
X135301731Y-82592824D01*
X135301731Y-82586914D01*
X135304962Y-82557169D01*
X135304996Y-82547605D01*
X135304934Y-82529873D01*
X135301910Y-82500104D01*
X135302119Y-82470185D01*
X135301186Y-82460666D01*
X135249369Y-81967660D01*
X135236886Y-81906849D01*
X135225251Y-81845858D01*
X135222487Y-81836702D01*
X135075898Y-81363150D01*
X135051830Y-81305896D01*
X135028581Y-81248352D01*
X135024091Y-81239907D01*
X134925922Y-81058347D01*
X163152952Y-81058347D01*
X164465000Y-82370395D01*
X165777048Y-81058347D01*
X165621038Y-80742786D01*
X165246255Y-80551980D01*
X164841449Y-80437956D01*
X164422176Y-80405098D01*
X164004549Y-80454666D01*
X163604617Y-80584757D01*
X163308962Y-80742786D01*
X163152952Y-81058347D01*
X134925922Y-81058347D01*
X134788314Y-80803847D01*
X134753602Y-80752384D01*
X134719602Y-80700427D01*
X134713557Y-80693015D01*
X134397573Y-80311055D01*
X134353519Y-80267308D01*
X134310081Y-80222950D01*
X134302711Y-80216853D01*
X133918555Y-79903543D01*
X133866852Y-79869192D01*
X133815616Y-79834110D01*
X133807203Y-79829561D01*
X133369507Y-79596834D01*
X133312097Y-79573171D01*
X133255042Y-79548718D01*
X133245906Y-79545889D01*
X132845501Y-79425000D01*
X165066496Y-79425000D01*
X165459668Y-79463551D01*
X165805634Y-79568004D01*
X166124724Y-79737667D01*
X166404781Y-79966076D01*
X166635141Y-80244534D01*
X166807027Y-80562430D01*
X166913893Y-80907658D01*
X166955001Y-81298763D01*
X166955000Y-106646495D01*
X166916449Y-107039667D01*
X166811996Y-107385635D01*
X166642333Y-107704724D01*
X166413924Y-107984781D01*
X166135466Y-108215141D01*
X165817570Y-108387027D01*
X165472340Y-108493894D01*
X165081238Y-108535000D01*
X93774926Y-108535000D01*
X93965618Y-108433073D01*
X94194903Y-108244903D01*
X94383073Y-108015618D01*
X94522896Y-107754028D01*
X94590854Y-107530000D01*
X144561928Y-107530000D01*
X144574188Y-107654482D01*
X144610498Y-107774180D01*
X144669463Y-107884494D01*
X144748815Y-107981185D01*
X144845506Y-108060537D01*
X144955820Y-108119502D01*
X145075518Y-108155812D01*
X145200000Y-108168072D01*
X145764250Y-108165000D01*
X145923000Y-108006250D01*
X145923000Y-106807000D01*
X146177000Y-106807000D01*
X146177000Y-108006250D01*
X146335750Y-108165000D01*
X146900000Y-108168072D01*
X147024482Y-108155812D01*
X147144180Y-108119502D01*
X147254494Y-108060537D01*
X147351185Y-107981185D01*
X147430537Y-107884494D01*
X147489502Y-107774180D01*
X147525812Y-107654482D01*
X147538072Y-107530000D01*
X147535000Y-106965750D01*
X147376250Y-106807000D01*
X146177000Y-106807000D01*
X145923000Y-106807000D01*
X144723750Y-106807000D01*
X144565000Y-106965750D01*
X144561928Y-107530000D01*
X94590854Y-107530000D01*
X94608999Y-107470186D01*
X94638072Y-107175000D01*
X94638072Y-105425000D01*
X94608999Y-105129814D01*
X94522896Y-104845972D01*
X94417313Y-104648439D01*
X111745000Y-104648439D01*
X111745000Y-104901561D01*
X111794381Y-105149821D01*
X111891247Y-105383676D01*
X112031875Y-105594140D01*
X112210860Y-105773125D01*
X112421324Y-105913753D01*
X112655179Y-106010619D01*
X112903439Y-106060000D01*
X113156561Y-106060000D01*
X113404821Y-106010619D01*
X113638676Y-105913753D01*
X113849140Y-105773125D01*
X114028125Y-105594140D01*
X114168753Y-105383676D01*
X114265619Y-105149821D01*
X114300000Y-104976973D01*
X114334381Y-105149821D01*
X114431247Y-105383676D01*
X114571875Y-105594140D01*
X114750860Y-105773125D01*
X114961324Y-105913753D01*
X115195179Y-106010619D01*
X115443439Y-106060000D01*
X115696561Y-106060000D01*
X115944821Y-106010619D01*
X116178676Y-105913753D01*
X116389140Y-105773125D01*
X116501738Y-105660527D01*
X137724078Y-105660527D01*
X137777466Y-105889201D01*
X138007374Y-105995095D01*
X138253524Y-106054102D01*
X138506455Y-106063952D01*
X138756449Y-106024270D01*
X138993896Y-105936578D01*
X139082534Y-105889201D01*
X139135922Y-105660527D01*
X140264078Y-105660527D01*
X140317466Y-105889201D01*
X140547374Y-105995095D01*
X140793524Y-106054102D01*
X141046455Y-106063952D01*
X141296449Y-106024270D01*
X141533896Y-105936578D01*
X141622534Y-105889201D01*
X141636355Y-105830000D01*
X144561928Y-105830000D01*
X144565000Y-106394250D01*
X144723750Y-106553000D01*
X145923000Y-106553000D01*
X145923000Y-106533000D01*
X146177000Y-106533000D01*
X146177000Y-106553000D01*
X147376250Y-106553000D01*
X147535000Y-106394250D01*
X147538072Y-105830000D01*
X147525812Y-105705518D01*
X147489502Y-105585820D01*
X147430537Y-105475506D01*
X147351185Y-105378815D01*
X147254494Y-105299463D01*
X147144180Y-105240498D01*
X147071620Y-105218487D01*
X147203475Y-105086632D01*
X147365990Y-104843411D01*
X147477932Y-104573158D01*
X147535000Y-104286260D01*
X147535000Y-103993740D01*
X147477932Y-103706842D01*
X147365990Y-103436589D01*
X147203475Y-103193368D01*
X146996632Y-102986525D01*
X146822240Y-102870000D01*
X146996632Y-102753475D01*
X147203475Y-102546632D01*
X147365990Y-102303411D01*
X147477932Y-102033158D01*
X147535000Y-101746260D01*
X147535000Y-101453740D01*
X147515409Y-101355249D01*
X149915000Y-101355249D01*
X149915000Y-101844751D01*
X150010497Y-102324848D01*
X150197821Y-102777089D01*
X150469774Y-103184095D01*
X150815905Y-103530226D01*
X151222911Y-103802179D01*
X151675152Y-103989503D01*
X152155249Y-104085000D01*
X152644751Y-104085000D01*
X153124848Y-103989503D01*
X153577089Y-103802179D01*
X153984095Y-103530226D01*
X154330226Y-103184095D01*
X154602179Y-102777089D01*
X154789503Y-102324848D01*
X154885000Y-101844751D01*
X154885000Y-101355249D01*
X154789503Y-100875152D01*
X154602179Y-100422911D01*
X154330226Y-100015905D01*
X154164321Y-99850000D01*
X156361928Y-99850000D01*
X156361928Y-103350000D01*
X156374188Y-103474482D01*
X156410498Y-103594180D01*
X156469463Y-103704494D01*
X156548815Y-103801185D01*
X156645506Y-103880537D01*
X156755820Y-103939502D01*
X156875518Y-103975812D01*
X157000000Y-103988072D01*
X160500000Y-103988072D01*
X160624482Y-103975812D01*
X160744180Y-103939502D01*
X160854494Y-103880537D01*
X160951185Y-103801185D01*
X161030537Y-103704494D01*
X161089502Y-103594180D01*
X161125812Y-103474482D01*
X161138072Y-103350000D01*
X162611928Y-103350000D01*
X162624188Y-103474482D01*
X162660498Y-103594180D01*
X162719463Y-103704494D01*
X162798815Y-103801185D01*
X162895506Y-103880537D01*
X163005820Y-103939502D01*
X163125518Y-103975812D01*
X163250000Y-103988072D01*
X164464250Y-103985000D01*
X164623000Y-103826250D01*
X164623000Y-101727000D01*
X164877000Y-101727000D01*
X164877000Y-103826250D01*
X165035750Y-103985000D01*
X166250000Y-103988072D01*
X166374482Y-103975812D01*
X166494180Y-103939502D01*
X166604494Y-103880537D01*
X166701185Y-103801185D01*
X166780537Y-103704494D01*
X166839502Y-103594180D01*
X166875812Y-103474482D01*
X166888072Y-103350000D01*
X166885000Y-101885750D01*
X166726250Y-101727000D01*
X164877000Y-101727000D01*
X164623000Y-101727000D01*
X162773750Y-101727000D01*
X162615000Y-101885750D01*
X162611928Y-103350000D01*
X161138072Y-103350000D01*
X161138072Y-99850000D01*
X162611928Y-99850000D01*
X162615000Y-101314250D01*
X162773750Y-101473000D01*
X164623000Y-101473000D01*
X164623000Y-99373750D01*
X164877000Y-99373750D01*
X164877000Y-101473000D01*
X166726250Y-101473000D01*
X166885000Y-101314250D01*
X166888072Y-99850000D01*
X166875812Y-99725518D01*
X166839502Y-99605820D01*
X166780537Y-99495506D01*
X166701185Y-99398815D01*
X166604494Y-99319463D01*
X166494180Y-99260498D01*
X166374482Y-99224188D01*
X166250000Y-99211928D01*
X165035750Y-99215000D01*
X164877000Y-99373750D01*
X164623000Y-99373750D01*
X164464250Y-99215000D01*
X163250000Y-99211928D01*
X163125518Y-99224188D01*
X163005820Y-99260498D01*
X162895506Y-99319463D01*
X162798815Y-99398815D01*
X162719463Y-99495506D01*
X162660498Y-99605820D01*
X162624188Y-99725518D01*
X162611928Y-99850000D01*
X161138072Y-99850000D01*
X161125812Y-99725518D01*
X161089502Y-99605820D01*
X161030537Y-99495506D01*
X160951185Y-99398815D01*
X160854494Y-99319463D01*
X160777869Y-99278506D01*
X160875000Y-99288072D01*
X162625000Y-99288072D01*
X162920186Y-99258999D01*
X163204028Y-99172896D01*
X163465618Y-99033073D01*
X163694903Y-98844903D01*
X163883073Y-98615618D01*
X164022896Y-98354028D01*
X164108999Y-98070186D01*
X164138072Y-97775000D01*
X164138072Y-96025000D01*
X164108999Y-95729814D01*
X164022896Y-95445972D01*
X163883073Y-95184382D01*
X163694903Y-94955097D01*
X163465618Y-94766927D01*
X163204028Y-94627104D01*
X162920186Y-94541001D01*
X162625000Y-94511928D01*
X160875000Y-94511928D01*
X160579814Y-94541001D01*
X160295972Y-94627104D01*
X160034382Y-94766927D01*
X159805097Y-94955097D01*
X159616927Y-95184382D01*
X159477104Y-95445972D01*
X159391001Y-95729814D01*
X159361928Y-96025000D01*
X159361928Y-97775000D01*
X159391001Y-98070186D01*
X159477104Y-98354028D01*
X159616927Y-98615618D01*
X159805097Y-98844903D01*
X160034382Y-99033073D01*
X160295972Y-99172896D01*
X160424643Y-99211928D01*
X157000000Y-99211928D01*
X156875518Y-99224188D01*
X156755820Y-99260498D01*
X156645506Y-99319463D01*
X156548815Y-99398815D01*
X156469463Y-99495506D01*
X156410498Y-99605820D01*
X156374188Y-99725518D01*
X156361928Y-99850000D01*
X154164321Y-99850000D01*
X153984095Y-99669774D01*
X153577089Y-99397821D01*
X153124848Y-99210497D01*
X152644751Y-99115000D01*
X152155249Y-99115000D01*
X151675152Y-99210497D01*
X151222911Y-99397821D01*
X150815905Y-99669774D01*
X150469774Y-100015905D01*
X150197821Y-100422911D01*
X150010497Y-100875152D01*
X149915000Y-101355249D01*
X147515409Y-101355249D01*
X147477932Y-101166842D01*
X147365990Y-100896589D01*
X147203475Y-100653368D01*
X146996632Y-100446525D01*
X146822240Y-100330000D01*
X146996632Y-100213475D01*
X147203475Y-100006632D01*
X147365990Y-99763411D01*
X147477932Y-99493158D01*
X147535000Y-99206260D01*
X147535000Y-98913740D01*
X147477932Y-98626842D01*
X147365990Y-98356589D01*
X147203475Y-98113368D01*
X146996632Y-97906525D01*
X146753411Y-97744010D01*
X146483158Y-97632068D01*
X146196260Y-97575000D01*
X145903740Y-97575000D01*
X145616842Y-97632068D01*
X145346589Y-97744010D01*
X145103368Y-97906525D01*
X144896525Y-98113368D01*
X144734010Y-98356589D01*
X144622068Y-98626842D01*
X144565000Y-98913740D01*
X144565000Y-99206260D01*
X144622068Y-99493158D01*
X144734010Y-99763411D01*
X144896525Y-100006632D01*
X145103368Y-100213475D01*
X145277760Y-100330000D01*
X145103368Y-100446525D01*
X144896525Y-100653368D01*
X144734010Y-100896589D01*
X144622068Y-101166842D01*
X144565000Y-101453740D01*
X144565000Y-101746260D01*
X144622068Y-102033158D01*
X144734010Y-102303411D01*
X144896525Y-102546632D01*
X145103368Y-102753475D01*
X145277760Y-102870000D01*
X145103368Y-102986525D01*
X144896525Y-103193368D01*
X144734010Y-103436589D01*
X144622068Y-103706842D01*
X144565000Y-103993740D01*
X144565000Y-104286260D01*
X144622068Y-104573158D01*
X144734010Y-104843411D01*
X144896525Y-105086632D01*
X145028380Y-105218487D01*
X144955820Y-105240498D01*
X144845506Y-105299463D01*
X144748815Y-105378815D01*
X144669463Y-105475506D01*
X144610498Y-105585820D01*
X144574188Y-105705518D01*
X144561928Y-105830000D01*
X141636355Y-105830000D01*
X141675922Y-105660527D01*
X140970000Y-104954605D01*
X140264078Y-105660527D01*
X139135922Y-105660527D01*
X138430000Y-104954605D01*
X137724078Y-105660527D01*
X116501738Y-105660527D01*
X116568125Y-105594140D01*
X116708753Y-105383676D01*
X116805619Y-105149821D01*
X116855000Y-104901561D01*
X116855000Y-104851455D01*
X137141048Y-104851455D01*
X137180730Y-105101449D01*
X137268422Y-105338896D01*
X137315799Y-105427534D01*
X137544473Y-105480922D01*
X138250395Y-104775000D01*
X138609605Y-104775000D01*
X139315527Y-105480922D01*
X139544201Y-105427534D01*
X139650095Y-105197626D01*
X139701776Y-104982038D01*
X139720730Y-105101449D01*
X139808422Y-105338896D01*
X139855799Y-105427534D01*
X140084473Y-105480922D01*
X140790395Y-104775000D01*
X141149605Y-104775000D01*
X141855527Y-105480922D01*
X142084201Y-105427534D01*
X142190095Y-105197626D01*
X142249102Y-104951476D01*
X142258952Y-104698545D01*
X142219270Y-104448551D01*
X142131578Y-104211104D01*
X142084201Y-104122466D01*
X141855527Y-104069078D01*
X141149605Y-104775000D01*
X140790395Y-104775000D01*
X140084473Y-104069078D01*
X139855799Y-104122466D01*
X139749905Y-104352374D01*
X139698224Y-104567962D01*
X139679270Y-104448551D01*
X139591578Y-104211104D01*
X139544201Y-104122466D01*
X139315527Y-104069078D01*
X138609605Y-104775000D01*
X138250395Y-104775000D01*
X137544473Y-104069078D01*
X137315799Y-104122466D01*
X137209905Y-104352374D01*
X137150898Y-104598524D01*
X137141048Y-104851455D01*
X116855000Y-104851455D01*
X116855000Y-104648439D01*
X116805619Y-104400179D01*
X116708753Y-104166324D01*
X116568125Y-103955860D01*
X116501738Y-103889473D01*
X137724078Y-103889473D01*
X138430000Y-104595395D01*
X139135922Y-103889473D01*
X140264078Y-103889473D01*
X140970000Y-104595395D01*
X141675922Y-103889473D01*
X141622534Y-103660799D01*
X141392626Y-103554905D01*
X141146476Y-103495898D01*
X140893545Y-103486048D01*
X140643551Y-103525730D01*
X140406104Y-103613422D01*
X140317466Y-103660799D01*
X140264078Y-103889473D01*
X139135922Y-103889473D01*
X139082534Y-103660799D01*
X138852626Y-103554905D01*
X138606476Y-103495898D01*
X138353545Y-103486048D01*
X138103551Y-103525730D01*
X137866104Y-103613422D01*
X137777466Y-103660799D01*
X137724078Y-103889473D01*
X116501738Y-103889473D01*
X116389140Y-103776875D01*
X116178676Y-103636247D01*
X115944821Y-103539381D01*
X115696561Y-103490000D01*
X115443439Y-103490000D01*
X115195179Y-103539381D01*
X114961324Y-103636247D01*
X114750860Y-103776875D01*
X114571875Y-103955860D01*
X114431247Y-104166324D01*
X114334381Y-104400179D01*
X114300000Y-104573027D01*
X114265619Y-104400179D01*
X114168753Y-104166324D01*
X114028125Y-103955860D01*
X113849140Y-103776875D01*
X113638676Y-103636247D01*
X113404821Y-103539381D01*
X113156561Y-103490000D01*
X112903439Y-103490000D01*
X112655179Y-103539381D01*
X112421324Y-103636247D01*
X112210860Y-103776875D01*
X112031875Y-103955860D01*
X111891247Y-104166324D01*
X111794381Y-104400179D01*
X111745000Y-104648439D01*
X94417313Y-104648439D01*
X94383073Y-104584382D01*
X94194903Y-104355097D01*
X93965618Y-104166927D01*
X93704028Y-104027104D01*
X93575357Y-103988072D01*
X97000000Y-103988072D01*
X97124482Y-103975812D01*
X97244180Y-103939502D01*
X97354494Y-103880537D01*
X97451185Y-103801185D01*
X97530537Y-103704494D01*
X97589502Y-103594180D01*
X97625812Y-103474482D01*
X97638072Y-103350000D01*
X97638072Y-101355249D01*
X99115000Y-101355249D01*
X99115000Y-101844751D01*
X99210497Y-102324848D01*
X99397821Y-102777089D01*
X99669774Y-103184095D01*
X100015905Y-103530226D01*
X100422911Y-103802179D01*
X100875152Y-103989503D01*
X101355249Y-104085000D01*
X101844751Y-104085000D01*
X102324848Y-103989503D01*
X102777089Y-103802179D01*
X103184095Y-103530226D01*
X103530226Y-103184095D01*
X103802179Y-102777089D01*
X103989503Y-102324848D01*
X104085000Y-101844751D01*
X104085000Y-101355249D01*
X103989503Y-100875152D01*
X103802179Y-100422911D01*
X103530226Y-100015905D01*
X103184095Y-99669774D01*
X102777089Y-99397821D01*
X102324848Y-99210497D01*
X101844751Y-99115000D01*
X101355249Y-99115000D01*
X100875152Y-99210497D01*
X100422911Y-99397821D01*
X100015905Y-99669774D01*
X99669774Y-100015905D01*
X99397821Y-100422911D01*
X99210497Y-100875152D01*
X99115000Y-101355249D01*
X97638072Y-101355249D01*
X97638072Y-99850000D01*
X97625812Y-99725518D01*
X97589502Y-99605820D01*
X97530537Y-99495506D01*
X97451185Y-99398815D01*
X97354494Y-99319463D01*
X97244180Y-99260498D01*
X97124482Y-99224188D01*
X97000000Y-99211928D01*
X93500000Y-99211928D01*
X93375518Y-99224188D01*
X93255820Y-99260498D01*
X93145506Y-99319463D01*
X93048815Y-99398815D01*
X92969463Y-99495506D01*
X92910498Y-99605820D01*
X92874188Y-99725518D01*
X92861928Y-99850000D01*
X92861928Y-103350000D01*
X92874188Y-103474482D01*
X92910498Y-103594180D01*
X92969463Y-103704494D01*
X93048815Y-103801185D01*
X93145506Y-103880537D01*
X93222131Y-103921494D01*
X93125000Y-103911928D01*
X91375000Y-103911928D01*
X91079814Y-103941001D01*
X90795972Y-104027104D01*
X90534382Y-104166927D01*
X90305097Y-104355097D01*
X90116927Y-104584382D01*
X89977104Y-104845972D01*
X89891001Y-105129814D01*
X89861928Y-105425000D01*
X89861928Y-107175000D01*
X89891001Y-107470186D01*
X89977104Y-107754028D01*
X90116927Y-108015618D01*
X90305097Y-108244903D01*
X90534382Y-108433073D01*
X90725074Y-108535000D01*
X88933505Y-108535000D01*
X88540333Y-108496449D01*
X88194365Y-108391996D01*
X87875276Y-108222333D01*
X87595219Y-107993924D01*
X87364859Y-107715466D01*
X87192973Y-107397570D01*
X87086106Y-107052340D01*
X87045000Y-106661238D01*
X87045000Y-103350000D01*
X87111928Y-103350000D01*
X87124188Y-103474482D01*
X87160498Y-103594180D01*
X87219463Y-103704494D01*
X87298815Y-103801185D01*
X87395506Y-103880537D01*
X87505820Y-103939502D01*
X87625518Y-103975812D01*
X87750000Y-103988072D01*
X88964250Y-103985000D01*
X89123000Y-103826250D01*
X89123000Y-101727000D01*
X89377000Y-101727000D01*
X89377000Y-103826250D01*
X89535750Y-103985000D01*
X90750000Y-103988072D01*
X90874482Y-103975812D01*
X90994180Y-103939502D01*
X91104494Y-103880537D01*
X91201185Y-103801185D01*
X91280537Y-103704494D01*
X91339502Y-103594180D01*
X91375812Y-103474482D01*
X91388072Y-103350000D01*
X91385000Y-101885750D01*
X91226250Y-101727000D01*
X89377000Y-101727000D01*
X89123000Y-101727000D01*
X87273750Y-101727000D01*
X87115000Y-101885750D01*
X87111928Y-103350000D01*
X87045000Y-103350000D01*
X87045000Y-99850000D01*
X87111928Y-99850000D01*
X87115000Y-101314250D01*
X87273750Y-101473000D01*
X89123000Y-101473000D01*
X89123000Y-99373750D01*
X89377000Y-99373750D01*
X89377000Y-101473000D01*
X91226250Y-101473000D01*
X91385000Y-101314250D01*
X91388072Y-99850000D01*
X91375812Y-99725518D01*
X91339502Y-99605820D01*
X91280537Y-99495506D01*
X91201185Y-99398815D01*
X91104494Y-99319463D01*
X90994180Y-99260498D01*
X90874482Y-99224188D01*
X90750000Y-99211928D01*
X89535750Y-99215000D01*
X89377000Y-99373750D01*
X89123000Y-99373750D01*
X88964250Y-99215000D01*
X87750000Y-99211928D01*
X87625518Y-99224188D01*
X87505820Y-99260498D01*
X87395506Y-99319463D01*
X87298815Y-99398815D01*
X87219463Y-99495506D01*
X87160498Y-99605820D01*
X87124188Y-99725518D01*
X87111928Y-99850000D01*
X87045000Y-99850000D01*
X87045000Y-89408439D01*
X111745000Y-89408439D01*
X111745000Y-89661561D01*
X111794381Y-89909821D01*
X111891247Y-90143676D01*
X112031875Y-90354140D01*
X112210860Y-90533125D01*
X112421324Y-90673753D01*
X112655179Y-90770619D01*
X112903439Y-90820000D01*
X113156561Y-90820000D01*
X113404821Y-90770619D01*
X113638676Y-90673753D01*
X113849140Y-90533125D01*
X114028125Y-90354140D01*
X114168753Y-90143676D01*
X114265619Y-89909821D01*
X114300000Y-89736973D01*
X114334381Y-89909821D01*
X114431247Y-90143676D01*
X114571875Y-90354140D01*
X114750860Y-90533125D01*
X114961324Y-90673753D01*
X115195179Y-90770619D01*
X115443439Y-90820000D01*
X115696561Y-90820000D01*
X115944821Y-90770619D01*
X116178676Y-90673753D01*
X116389140Y-90533125D01*
X116568125Y-90354140D01*
X116708753Y-90143676D01*
X116805619Y-89909821D01*
X116855000Y-89661561D01*
X116855000Y-89408439D01*
X116805619Y-89160179D01*
X116708753Y-88926324D01*
X116568125Y-88715860D01*
X116389140Y-88536875D01*
X116178676Y-88396247D01*
X115944821Y-88299381D01*
X115696561Y-88250000D01*
X115443439Y-88250000D01*
X115195179Y-88299381D01*
X114961324Y-88396247D01*
X114750860Y-88536875D01*
X114571875Y-88715860D01*
X114431247Y-88926324D01*
X114334381Y-89160179D01*
X114300000Y-89333027D01*
X114265619Y-89160179D01*
X114168753Y-88926324D01*
X114028125Y-88715860D01*
X113849140Y-88536875D01*
X113638676Y-88396247D01*
X113404821Y-88299381D01*
X113156561Y-88250000D01*
X112903439Y-88250000D01*
X112655179Y-88299381D01*
X112421324Y-88396247D01*
X112210860Y-88536875D01*
X112031875Y-88715860D01*
X111891247Y-88926324D01*
X111794381Y-89160179D01*
X111745000Y-89408439D01*
X87045000Y-89408439D01*
X87045000Y-85749000D01*
X94000928Y-85749000D01*
X94000928Y-86971000D01*
X94013188Y-87095482D01*
X94049498Y-87215180D01*
X94108463Y-87325494D01*
X94187815Y-87422185D01*
X94284506Y-87501537D01*
X94394820Y-87560502D01*
X94514518Y-87596812D01*
X94639000Y-87609072D01*
X95861000Y-87609072D01*
X95985482Y-87596812D01*
X96105180Y-87560502D01*
X96215494Y-87501537D01*
X96312185Y-87422185D01*
X96391537Y-87325494D01*
X96450502Y-87215180D01*
X96486812Y-87095482D01*
X96499072Y-86971000D01*
X96499072Y-85749000D01*
X96486812Y-85624518D01*
X96450502Y-85504820D01*
X96391537Y-85394506D01*
X96312185Y-85297815D01*
X96215494Y-85218463D01*
X96105180Y-85159498D01*
X95985482Y-85123188D01*
X95861000Y-85110928D01*
X94639000Y-85110928D01*
X94514518Y-85123188D01*
X94394820Y-85159498D01*
X94284506Y-85218463D01*
X94187815Y-85297815D01*
X94108463Y-85394506D01*
X94049498Y-85504820D01*
X94013188Y-85624518D01*
X94000928Y-85749000D01*
X87045000Y-85749000D01*
X87045000Y-82339721D01*
X87400000Y-82339721D01*
X87400000Y-82760279D01*
X87482047Y-83172756D01*
X87642988Y-83561302D01*
X87876637Y-83910983D01*
X88174017Y-84208363D01*
X88523698Y-84442012D01*
X88912244Y-84602953D01*
X89324721Y-84685000D01*
X89745279Y-84685000D01*
X90157756Y-84602953D01*
X90546302Y-84442012D01*
X90895983Y-84208363D01*
X91193363Y-83910983D01*
X91336154Y-83697280D01*
X96544000Y-83697280D01*
X96544000Y-83942720D01*
X96591883Y-84183445D01*
X96685809Y-84410202D01*
X96822168Y-84614279D01*
X96995721Y-84787832D01*
X97199798Y-84924191D01*
X97426555Y-85018117D01*
X97667280Y-85066000D01*
X97912720Y-85066000D01*
X98153445Y-85018117D01*
X98380202Y-84924191D01*
X98584279Y-84787832D01*
X98757832Y-84614279D01*
X98894191Y-84410202D01*
X98988117Y-84183445D01*
X99036000Y-83942720D01*
X99036000Y-83697280D01*
X98988117Y-83456555D01*
X98894191Y-83229798D01*
X98757832Y-83025721D01*
X98584279Y-82852168D01*
X98380202Y-82715809D01*
X98153445Y-82621883D01*
X97912720Y-82574000D01*
X97667280Y-82574000D01*
X97426555Y-82621883D01*
X97199798Y-82715809D01*
X96995721Y-82852168D01*
X96822168Y-83025721D01*
X96685809Y-83229798D01*
X96591883Y-83456555D01*
X96544000Y-83697280D01*
X91336154Y-83697280D01*
X91427012Y-83561302D01*
X91587953Y-83172756D01*
X91670000Y-82760279D01*
X91670000Y-82339721D01*
X91587953Y-81927244D01*
X91493826Y-81700000D01*
X111541928Y-81700000D01*
X111541928Y-83400000D01*
X111554188Y-83524482D01*
X111590498Y-83644180D01*
X111649463Y-83754494D01*
X111728815Y-83851185D01*
X111825506Y-83930537D01*
X111935820Y-83989502D01*
X112055518Y-84025812D01*
X112180000Y-84038072D01*
X113880000Y-84038072D01*
X114004482Y-84025812D01*
X114124180Y-83989502D01*
X114234494Y-83930537D01*
X114331185Y-83851185D01*
X114410537Y-83754494D01*
X114469502Y-83644180D01*
X114491513Y-83571620D01*
X114623368Y-83703475D01*
X114866589Y-83865990D01*
X115136842Y-83977932D01*
X115423740Y-84035000D01*
X115716260Y-84035000D01*
X116003158Y-83977932D01*
X116273411Y-83865990D01*
X116516632Y-83703475D01*
X116723475Y-83496632D01*
X116885990Y-83253411D01*
X116997932Y-82983158D01*
X117055000Y-82696260D01*
X117055000Y-82403740D01*
X116997932Y-82116842D01*
X116885990Y-81846589D01*
X116723475Y-81603368D01*
X116516632Y-81396525D01*
X116273411Y-81234010D01*
X116003158Y-81122068D01*
X115716260Y-81065000D01*
X115423740Y-81065000D01*
X115136842Y-81122068D01*
X114866589Y-81234010D01*
X114623368Y-81396525D01*
X114491513Y-81528380D01*
X114469502Y-81455820D01*
X114410537Y-81345506D01*
X114331185Y-81248815D01*
X114234494Y-81169463D01*
X114124180Y-81110498D01*
X114004482Y-81074188D01*
X113880000Y-81061928D01*
X112180000Y-81061928D01*
X112055518Y-81074188D01*
X111935820Y-81110498D01*
X111825506Y-81169463D01*
X111728815Y-81248815D01*
X111649463Y-81345506D01*
X111590498Y-81455820D01*
X111554188Y-81575518D01*
X111541928Y-81700000D01*
X91493826Y-81700000D01*
X91427012Y-81538698D01*
X91193363Y-81189017D01*
X90895983Y-80891637D01*
X90546302Y-80657988D01*
X90157756Y-80497047D01*
X89745279Y-80415000D01*
X89324721Y-80415000D01*
X88912244Y-80497047D01*
X88523698Y-80657988D01*
X88174017Y-80891637D01*
X87876637Y-81189017D01*
X87642988Y-81538698D01*
X87482047Y-81927244D01*
X87400000Y-82339721D01*
X87045000Y-82339721D01*
X87045000Y-81313504D01*
X87083551Y-80920332D01*
X87188004Y-80574366D01*
X87357667Y-80255276D01*
X87586076Y-79975219D01*
X87864534Y-79744859D01*
X88182430Y-79572973D01*
X88527658Y-79466107D01*
X88918753Y-79425000D01*
X121150211Y-79425000D01*
X120733150Y-79554102D01*
%TA.AperFunction,Conductor*%
D20*
G36*
X120733150Y-79554102D02*
G01*
X120675896Y-79578170D01*
X120618352Y-79601419D01*
X120609907Y-79605909D01*
X120173847Y-79841686D01*
X120122384Y-79876398D01*
X120070427Y-79910398D01*
X120063015Y-79916443D01*
X119681055Y-80232427D01*
X119637308Y-80276481D01*
X119592950Y-80319919D01*
X119586853Y-80327289D01*
X119273543Y-80711445D01*
X119239192Y-80763148D01*
X119204110Y-80814384D01*
X119199561Y-80822797D01*
X118966834Y-81260493D01*
X118943171Y-81317903D01*
X118918718Y-81374958D01*
X118915889Y-81384094D01*
X118772610Y-81858659D01*
X118760548Y-81919577D01*
X118747643Y-81980289D01*
X118746643Y-81989800D01*
X118698269Y-82483156D01*
X118698269Y-82513086D01*
X118695038Y-82542831D01*
X118695004Y-82552395D01*
X118695066Y-82570127D01*
X118698090Y-82599896D01*
X118697881Y-82629815D01*
X118698814Y-82639334D01*
X118750632Y-83132340D01*
X118763109Y-83193121D01*
X118774749Y-83254142D01*
X118777513Y-83263298D01*
X118924103Y-83736851D01*
X118948167Y-83794097D01*
X118971419Y-83851648D01*
X118975907Y-83860089D01*
X118975909Y-83860094D01*
X118975912Y-83860098D01*
X119211686Y-84296153D01*
X119246398Y-84347616D01*
X119280398Y-84399573D01*
X119286443Y-84406985D01*
X119602427Y-84788945D01*
X119646500Y-84832712D01*
X119689920Y-84877050D01*
X119697289Y-84883147D01*
X120081445Y-85196457D01*
X120133148Y-85230808D01*
X120184384Y-85265890D01*
X120192797Y-85270439D01*
X120211719Y-85280500D01*
X100957155Y-85280500D01*
X100920202Y-85255809D01*
X100693445Y-85161883D01*
X100452720Y-85114000D01*
X100207280Y-85114000D01*
X99966555Y-85161883D01*
X99739798Y-85255809D01*
X99535721Y-85392168D01*
X99362168Y-85565721D01*
X99225809Y-85769798D01*
X99131883Y-85996555D01*
X99084000Y-86237280D01*
X99084000Y-86482720D01*
X99131883Y-86723445D01*
X99225809Y-86950202D01*
X99362168Y-87154279D01*
X99535721Y-87327832D01*
X99739798Y-87464191D01*
X99966555Y-87558117D01*
X100207280Y-87606000D01*
X100452720Y-87606000D01*
X100693445Y-87558117D01*
X100920202Y-87464191D01*
X100957155Y-87439500D01*
X129727858Y-87439500D01*
X132093574Y-89805217D01*
X132114381Y-89909821D01*
X132211247Y-90143676D01*
X132351875Y-90354140D01*
X132530860Y-90533125D01*
X132741324Y-90673753D01*
X132975179Y-90770619D01*
X133223439Y-90820000D01*
X133476561Y-90820000D01*
X133724821Y-90770619D01*
X133958676Y-90673753D01*
X134169140Y-90533125D01*
X134348125Y-90354140D01*
X134488753Y-90143676D01*
X134585619Y-89909821D01*
X134635000Y-89661561D01*
X134635000Y-89408439D01*
X137145000Y-89408439D01*
X137145000Y-89661561D01*
X137194381Y-89909821D01*
X137291247Y-90143676D01*
X137431875Y-90354140D01*
X137610860Y-90533125D01*
X137821324Y-90673753D01*
X138055179Y-90770619D01*
X138303439Y-90820000D01*
X138556561Y-90820000D01*
X138804821Y-90770619D01*
X139038676Y-90673753D01*
X139249140Y-90533125D01*
X139428125Y-90354140D01*
X139568753Y-90143676D01*
X139665619Y-89909821D01*
X139700000Y-89736973D01*
X139734381Y-89909821D01*
X139831247Y-90143676D01*
X139971875Y-90354140D01*
X140150860Y-90533125D01*
X140361324Y-90673753D01*
X140595179Y-90770619D01*
X140843439Y-90820000D01*
X141096561Y-90820000D01*
X141344821Y-90770619D01*
X141578676Y-90673753D01*
X141789140Y-90533125D01*
X141968125Y-90354140D01*
X142108753Y-90143676D01*
X142205619Y-89909821D01*
X142255000Y-89661561D01*
X142255000Y-89408439D01*
X142205619Y-89160179D01*
X142108753Y-88926324D01*
X141968125Y-88715860D01*
X141941986Y-88689721D01*
X162330000Y-88689721D01*
X162330000Y-89110279D01*
X162412047Y-89522756D01*
X162572988Y-89911302D01*
X162806637Y-90260983D01*
X163104017Y-90558363D01*
X163453698Y-90792012D01*
X163842244Y-90952953D01*
X164254721Y-91035000D01*
X164675279Y-91035000D01*
X165087756Y-90952953D01*
X165476302Y-90792012D01*
X165825983Y-90558363D01*
X166123363Y-90260983D01*
X166357012Y-89911302D01*
X166517953Y-89522756D01*
X166600000Y-89110279D01*
X166600000Y-88689721D01*
X166517953Y-88277244D01*
X166357012Y-87888698D01*
X166123363Y-87539017D01*
X165825983Y-87241637D01*
X165476302Y-87007988D01*
X165087756Y-86847047D01*
X164675279Y-86765000D01*
X164254721Y-86765000D01*
X163842244Y-86847047D01*
X163453698Y-87007988D01*
X163104017Y-87241637D01*
X162806637Y-87539017D01*
X162572988Y-87888698D01*
X162412047Y-88277244D01*
X162330000Y-88689721D01*
X141941986Y-88689721D01*
X141789140Y-88536875D01*
X141578676Y-88396247D01*
X141344821Y-88299381D01*
X141096561Y-88250000D01*
X140843439Y-88250000D01*
X140595179Y-88299381D01*
X140361324Y-88396247D01*
X140150860Y-88536875D01*
X139971875Y-88715860D01*
X139831247Y-88926324D01*
X139734381Y-89160179D01*
X139700000Y-89333027D01*
X139665619Y-89160179D01*
X139568753Y-88926324D01*
X139428125Y-88715860D01*
X139249140Y-88536875D01*
X139038676Y-88396247D01*
X138804821Y-88299381D01*
X138556561Y-88250000D01*
X138303439Y-88250000D01*
X138055179Y-88299381D01*
X137821324Y-88396247D01*
X137610860Y-88536875D01*
X137431875Y-88715860D01*
X137291247Y-88926324D01*
X137194381Y-89160179D01*
X137145000Y-89408439D01*
X134635000Y-89408439D01*
X134585619Y-89160179D01*
X134488753Y-88926324D01*
X134348125Y-88715860D01*
X134169140Y-88536875D01*
X133958676Y-88396247D01*
X133724821Y-88299381D01*
X133620217Y-88278574D01*
X131116642Y-85775000D01*
X132113647Y-85775000D01*
X132144018Y-85772009D01*
X132159815Y-85772119D01*
X132169334Y-85771186D01*
X132662340Y-85719368D01*
X132723121Y-85706891D01*
X132784142Y-85695251D01*
X132793298Y-85692487D01*
X133266851Y-85545897D01*
X133324097Y-85521833D01*
X133381648Y-85498581D01*
X133390089Y-85494093D01*
X133390094Y-85494091D01*
X133390098Y-85494088D01*
X133826153Y-85258314D01*
X133877616Y-85223602D01*
X133929573Y-85189602D01*
X133936985Y-85183557D01*
X134318945Y-84867573D01*
X134362712Y-84823500D01*
X134407050Y-84780080D01*
X134413147Y-84772711D01*
X134726457Y-84388555D01*
X134760808Y-84336852D01*
X134795890Y-84285616D01*
X134800439Y-84277203D01*
X134925683Y-84041653D01*
X163152952Y-84041653D01*
X163308962Y-84357214D01*
X163683745Y-84548020D01*
X164088551Y-84662044D01*
X164507824Y-84694902D01*
X164925451Y-84645334D01*
X165325383Y-84515243D01*
X165621038Y-84357214D01*
X165777048Y-84041653D01*
X164465000Y-82729605D01*
X163152952Y-84041653D01*
X134925683Y-84041653D01*
X135033166Y-83839507D01*
X135056820Y-83782118D01*
X135081283Y-83725042D01*
X135084111Y-83715905D01*
X135227390Y-83241341D01*
X135239452Y-83180423D01*
X135252357Y-83119711D01*
X135253357Y-83110199D01*
X135301731Y-82616844D01*
X135301731Y-82592824D01*
X162320098Y-82592824D01*
X162369666Y-83010451D01*
X162499757Y-83410383D01*
X162657786Y-83706038D01*
X162973347Y-83862048D01*
X164285395Y-82550000D01*
X164644605Y-82550000D01*
X165956653Y-83862048D01*
X166272214Y-83706038D01*
X166463020Y-83331255D01*
X166577044Y-82926449D01*
X166609902Y-82507176D01*
X166560334Y-82089549D01*
X166430243Y-81689617D01*
X166272214Y-81393962D01*
X165956653Y-81237952D01*
X164644605Y-82550000D01*
X164285395Y-82550000D01*
X162973347Y-81237952D01*
X162657786Y-81393962D01*
X162466980Y-81768745D01*
X162352956Y-82173551D01*
X162320098Y-82592824D01*
X135301731Y-82592824D01*
X135301731Y-82586914D01*
X135304962Y-82557169D01*
X135304996Y-82547605D01*
X135304934Y-82529873D01*
X135301910Y-82500104D01*
X135302119Y-82470185D01*
X135301186Y-82460666D01*
X135249369Y-81967660D01*
X135236886Y-81906849D01*
X135225251Y-81845858D01*
X135222487Y-81836702D01*
X135075898Y-81363150D01*
X135051830Y-81305896D01*
X135028581Y-81248352D01*
X135024091Y-81239907D01*
X134925922Y-81058347D01*
X163152952Y-81058347D01*
X164465000Y-82370395D01*
X165777048Y-81058347D01*
X165621038Y-80742786D01*
X165246255Y-80551980D01*
X164841449Y-80437956D01*
X164422176Y-80405098D01*
X164004549Y-80454666D01*
X163604617Y-80584757D01*
X163308962Y-80742786D01*
X163152952Y-81058347D01*
X134925922Y-81058347D01*
X134788314Y-80803847D01*
X134753602Y-80752384D01*
X134719602Y-80700427D01*
X134713557Y-80693015D01*
X134397573Y-80311055D01*
X134353519Y-80267308D01*
X134310081Y-80222950D01*
X134302711Y-80216853D01*
X133918555Y-79903543D01*
X133866852Y-79869192D01*
X133815616Y-79834110D01*
X133807203Y-79829561D01*
X133369507Y-79596834D01*
X133312097Y-79573171D01*
X133255042Y-79548718D01*
X133245906Y-79545889D01*
X132845501Y-79425000D01*
X165066496Y-79425000D01*
X165459668Y-79463551D01*
X165805634Y-79568004D01*
X166124724Y-79737667D01*
X166404781Y-79966076D01*
X166635141Y-80244534D01*
X166807027Y-80562430D01*
X166913893Y-80907658D01*
X166955001Y-81298763D01*
X166955000Y-106646495D01*
X166916449Y-107039667D01*
X166811996Y-107385635D01*
X166642333Y-107704724D01*
X166413924Y-107984781D01*
X166135466Y-108215141D01*
X165817570Y-108387027D01*
X165472340Y-108493894D01*
X165081238Y-108535000D01*
X93774926Y-108535000D01*
X93965618Y-108433073D01*
X94194903Y-108244903D01*
X94383073Y-108015618D01*
X94522896Y-107754028D01*
X94590854Y-107530000D01*
X144561928Y-107530000D01*
X144574188Y-107654482D01*
X144610498Y-107774180D01*
X144669463Y-107884494D01*
X144748815Y-107981185D01*
X144845506Y-108060537D01*
X144955820Y-108119502D01*
X145075518Y-108155812D01*
X145200000Y-108168072D01*
X145764250Y-108165000D01*
X145923000Y-108006250D01*
X145923000Y-106807000D01*
X146177000Y-106807000D01*
X146177000Y-108006250D01*
X146335750Y-108165000D01*
X146900000Y-108168072D01*
X147024482Y-108155812D01*
X147144180Y-108119502D01*
X147254494Y-108060537D01*
X147351185Y-107981185D01*
X147430537Y-107884494D01*
X147489502Y-107774180D01*
X147525812Y-107654482D01*
X147538072Y-107530000D01*
X147535000Y-106965750D01*
X147376250Y-106807000D01*
X146177000Y-106807000D01*
X145923000Y-106807000D01*
X144723750Y-106807000D01*
X144565000Y-106965750D01*
X144561928Y-107530000D01*
X94590854Y-107530000D01*
X94608999Y-107470186D01*
X94638072Y-107175000D01*
X94638072Y-105425000D01*
X94608999Y-105129814D01*
X94522896Y-104845972D01*
X94417313Y-104648439D01*
X111745000Y-104648439D01*
X111745000Y-104901561D01*
X111794381Y-105149821D01*
X111891247Y-105383676D01*
X112031875Y-105594140D01*
X112210860Y-105773125D01*
X112421324Y-105913753D01*
X112655179Y-106010619D01*
X112903439Y-106060000D01*
X113156561Y-106060000D01*
X113404821Y-106010619D01*
X113638676Y-105913753D01*
X113849140Y-105773125D01*
X114028125Y-105594140D01*
X114168753Y-105383676D01*
X114265619Y-105149821D01*
X114300000Y-104976973D01*
X114334381Y-105149821D01*
X114431247Y-105383676D01*
X114571875Y-105594140D01*
X114750860Y-105773125D01*
X114961324Y-105913753D01*
X115195179Y-106010619D01*
X115443439Y-106060000D01*
X115696561Y-106060000D01*
X115944821Y-106010619D01*
X116178676Y-105913753D01*
X116389140Y-105773125D01*
X116501738Y-105660527D01*
X137724078Y-105660527D01*
X137777466Y-105889201D01*
X138007374Y-105995095D01*
X138253524Y-106054102D01*
X138506455Y-106063952D01*
X138756449Y-106024270D01*
X138993896Y-105936578D01*
X139082534Y-105889201D01*
X139135922Y-105660527D01*
X140264078Y-105660527D01*
X140317466Y-105889201D01*
X140547374Y-105995095D01*
X140793524Y-106054102D01*
X141046455Y-106063952D01*
X141296449Y-106024270D01*
X141533896Y-105936578D01*
X141622534Y-105889201D01*
X141636355Y-105830000D01*
X144561928Y-105830000D01*
X144565000Y-106394250D01*
X144723750Y-106553000D01*
X145923000Y-106553000D01*
X145923000Y-106533000D01*
X146177000Y-106533000D01*
X146177000Y-106553000D01*
X147376250Y-106553000D01*
X147535000Y-106394250D01*
X147538072Y-105830000D01*
X147525812Y-105705518D01*
X147489502Y-105585820D01*
X147430537Y-105475506D01*
X147351185Y-105378815D01*
X147254494Y-105299463D01*
X147144180Y-105240498D01*
X147071620Y-105218487D01*
X147203475Y-105086632D01*
X147365990Y-104843411D01*
X147477932Y-104573158D01*
X147535000Y-104286260D01*
X147535000Y-103993740D01*
X147477932Y-103706842D01*
X147365990Y-103436589D01*
X147203475Y-103193368D01*
X146996632Y-102986525D01*
X146822240Y-102870000D01*
X146996632Y-102753475D01*
X147203475Y-102546632D01*
X147365990Y-102303411D01*
X147477932Y-102033158D01*
X147535000Y-101746260D01*
X147535000Y-101453740D01*
X147515409Y-101355249D01*
X149915000Y-101355249D01*
X149915000Y-101844751D01*
X150010497Y-102324848D01*
X150197821Y-102777089D01*
X150469774Y-103184095D01*
X150815905Y-103530226D01*
X151222911Y-103802179D01*
X151675152Y-103989503D01*
X152155249Y-104085000D01*
X152644751Y-104085000D01*
X153124848Y-103989503D01*
X153577089Y-103802179D01*
X153984095Y-103530226D01*
X154330226Y-103184095D01*
X154602179Y-102777089D01*
X154789503Y-102324848D01*
X154885000Y-101844751D01*
X154885000Y-101355249D01*
X154789503Y-100875152D01*
X154602179Y-100422911D01*
X154330226Y-100015905D01*
X154164321Y-99850000D01*
X156361928Y-99850000D01*
X156361928Y-103350000D01*
X156374188Y-103474482D01*
X156410498Y-103594180D01*
X156469463Y-103704494D01*
X156548815Y-103801185D01*
X156645506Y-103880537D01*
X156755820Y-103939502D01*
X156875518Y-103975812D01*
X157000000Y-103988072D01*
X160500000Y-103988072D01*
X160624482Y-103975812D01*
X160744180Y-103939502D01*
X160854494Y-103880537D01*
X160951185Y-103801185D01*
X161030537Y-103704494D01*
X161089502Y-103594180D01*
X161125812Y-103474482D01*
X161138072Y-103350000D01*
X162611928Y-103350000D01*
X162624188Y-103474482D01*
X162660498Y-103594180D01*
X162719463Y-103704494D01*
X162798815Y-103801185D01*
X162895506Y-103880537D01*
X163005820Y-103939502D01*
X163125518Y-103975812D01*
X163250000Y-103988072D01*
X164464250Y-103985000D01*
X164623000Y-103826250D01*
X164623000Y-101727000D01*
X164877000Y-101727000D01*
X164877000Y-103826250D01*
X165035750Y-103985000D01*
X166250000Y-103988072D01*
X166374482Y-103975812D01*
X166494180Y-103939502D01*
X166604494Y-103880537D01*
X166701185Y-103801185D01*
X166780537Y-103704494D01*
X166839502Y-103594180D01*
X166875812Y-103474482D01*
X166888072Y-103350000D01*
X166885000Y-101885750D01*
X166726250Y-101727000D01*
X164877000Y-101727000D01*
X164623000Y-101727000D01*
X162773750Y-101727000D01*
X162615000Y-101885750D01*
X162611928Y-103350000D01*
X161138072Y-103350000D01*
X161138072Y-99850000D01*
X162611928Y-99850000D01*
X162615000Y-101314250D01*
X162773750Y-101473000D01*
X164623000Y-101473000D01*
X164623000Y-99373750D01*
X164877000Y-99373750D01*
X164877000Y-101473000D01*
X166726250Y-101473000D01*
X166885000Y-101314250D01*
X166888072Y-99850000D01*
X166875812Y-99725518D01*
X166839502Y-99605820D01*
X166780537Y-99495506D01*
X166701185Y-99398815D01*
X166604494Y-99319463D01*
X166494180Y-99260498D01*
X166374482Y-99224188D01*
X166250000Y-99211928D01*
X165035750Y-99215000D01*
X164877000Y-99373750D01*
X164623000Y-99373750D01*
X164464250Y-99215000D01*
X163250000Y-99211928D01*
X163125518Y-99224188D01*
X163005820Y-99260498D01*
X162895506Y-99319463D01*
X162798815Y-99398815D01*
X162719463Y-99495506D01*
X162660498Y-99605820D01*
X162624188Y-99725518D01*
X162611928Y-99850000D01*
X161138072Y-99850000D01*
X161125812Y-99725518D01*
X161089502Y-99605820D01*
X161030537Y-99495506D01*
X160951185Y-99398815D01*
X160854494Y-99319463D01*
X160777869Y-99278506D01*
X160875000Y-99288072D01*
X162625000Y-99288072D01*
X162920186Y-99258999D01*
X163204028Y-99172896D01*
X163465618Y-99033073D01*
X163694903Y-98844903D01*
X163883073Y-98615618D01*
X164022896Y-98354028D01*
X164108999Y-98070186D01*
X164138072Y-97775000D01*
X164138072Y-96025000D01*
X164108999Y-95729814D01*
X164022896Y-95445972D01*
X163883073Y-95184382D01*
X163694903Y-94955097D01*
X163465618Y-94766927D01*
X163204028Y-94627104D01*
X162920186Y-94541001D01*
X162625000Y-94511928D01*
X160875000Y-94511928D01*
X160579814Y-94541001D01*
X160295972Y-94627104D01*
X160034382Y-94766927D01*
X159805097Y-94955097D01*
X159616927Y-95184382D01*
X159477104Y-95445972D01*
X159391001Y-95729814D01*
X159361928Y-96025000D01*
X159361928Y-97775000D01*
X159391001Y-98070186D01*
X159477104Y-98354028D01*
X159616927Y-98615618D01*
X159805097Y-98844903D01*
X160034382Y-99033073D01*
X160295972Y-99172896D01*
X160424643Y-99211928D01*
X157000000Y-99211928D01*
X156875518Y-99224188D01*
X156755820Y-99260498D01*
X156645506Y-99319463D01*
X156548815Y-99398815D01*
X156469463Y-99495506D01*
X156410498Y-99605820D01*
X156374188Y-99725518D01*
X156361928Y-99850000D01*
X154164321Y-99850000D01*
X153984095Y-99669774D01*
X153577089Y-99397821D01*
X153124848Y-99210497D01*
X152644751Y-99115000D01*
X152155249Y-99115000D01*
X151675152Y-99210497D01*
X151222911Y-99397821D01*
X150815905Y-99669774D01*
X150469774Y-100015905D01*
X150197821Y-100422911D01*
X150010497Y-100875152D01*
X149915000Y-101355249D01*
X147515409Y-101355249D01*
X147477932Y-101166842D01*
X147365990Y-100896589D01*
X147203475Y-100653368D01*
X146996632Y-100446525D01*
X146822240Y-100330000D01*
X146996632Y-100213475D01*
X147203475Y-100006632D01*
X147365990Y-99763411D01*
X147477932Y-99493158D01*
X147535000Y-99206260D01*
X147535000Y-98913740D01*
X147477932Y-98626842D01*
X147365990Y-98356589D01*
X147203475Y-98113368D01*
X146996632Y-97906525D01*
X146753411Y-97744010D01*
X146483158Y-97632068D01*
X146196260Y-97575000D01*
X145903740Y-97575000D01*
X145616842Y-97632068D01*
X145346589Y-97744010D01*
X145103368Y-97906525D01*
X144896525Y-98113368D01*
X144734010Y-98356589D01*
X144622068Y-98626842D01*
X144565000Y-98913740D01*
X144565000Y-99206260D01*
X144622068Y-99493158D01*
X144734010Y-99763411D01*
X144896525Y-100006632D01*
X145103368Y-100213475D01*
X145277760Y-100330000D01*
X145103368Y-100446525D01*
X144896525Y-100653368D01*
X144734010Y-100896589D01*
X144622068Y-101166842D01*
X144565000Y-101453740D01*
X144565000Y-101746260D01*
X144622068Y-102033158D01*
X144734010Y-102303411D01*
X144896525Y-102546632D01*
X145103368Y-102753475D01*
X145277760Y-102870000D01*
X145103368Y-102986525D01*
X144896525Y-103193368D01*
X144734010Y-103436589D01*
X144622068Y-103706842D01*
X144565000Y-103993740D01*
X144565000Y-104286260D01*
X144622068Y-104573158D01*
X144734010Y-104843411D01*
X144896525Y-105086632D01*
X145028380Y-105218487D01*
X144955820Y-105240498D01*
X144845506Y-105299463D01*
X144748815Y-105378815D01*
X144669463Y-105475506D01*
X144610498Y-105585820D01*
X144574188Y-105705518D01*
X144561928Y-105830000D01*
X141636355Y-105830000D01*
X141675922Y-105660527D01*
X140970000Y-104954605D01*
X140264078Y-105660527D01*
X139135922Y-105660527D01*
X138430000Y-104954605D01*
X137724078Y-105660527D01*
X116501738Y-105660527D01*
X116568125Y-105594140D01*
X116708753Y-105383676D01*
X116805619Y-105149821D01*
X116855000Y-104901561D01*
X116855000Y-104851455D01*
X137141048Y-104851455D01*
X137180730Y-105101449D01*
X137268422Y-105338896D01*
X137315799Y-105427534D01*
X137544473Y-105480922D01*
X138250395Y-104775000D01*
X138609605Y-104775000D01*
X139315527Y-105480922D01*
X139544201Y-105427534D01*
X139650095Y-105197626D01*
X139701776Y-104982038D01*
X139720730Y-105101449D01*
X139808422Y-105338896D01*
X139855799Y-105427534D01*
X140084473Y-105480922D01*
X140790395Y-104775000D01*
X141149605Y-104775000D01*
X141855527Y-105480922D01*
X142084201Y-105427534D01*
X142190095Y-105197626D01*
X142249102Y-104951476D01*
X142258952Y-104698545D01*
X142219270Y-104448551D01*
X142131578Y-104211104D01*
X142084201Y-104122466D01*
X141855527Y-104069078D01*
X141149605Y-104775000D01*
X140790395Y-104775000D01*
X140084473Y-104069078D01*
X139855799Y-104122466D01*
X139749905Y-104352374D01*
X139698224Y-104567962D01*
X139679270Y-104448551D01*
X139591578Y-104211104D01*
X139544201Y-104122466D01*
X139315527Y-104069078D01*
X138609605Y-104775000D01*
X138250395Y-104775000D01*
X137544473Y-104069078D01*
X137315799Y-104122466D01*
X137209905Y-104352374D01*
X137150898Y-104598524D01*
X137141048Y-104851455D01*
X116855000Y-104851455D01*
X116855000Y-104648439D01*
X116805619Y-104400179D01*
X116708753Y-104166324D01*
X116568125Y-103955860D01*
X116501738Y-103889473D01*
X137724078Y-103889473D01*
X138430000Y-104595395D01*
X139135922Y-103889473D01*
X140264078Y-103889473D01*
X140970000Y-104595395D01*
X141675922Y-103889473D01*
X141622534Y-103660799D01*
X141392626Y-103554905D01*
X141146476Y-103495898D01*
X140893545Y-103486048D01*
X140643551Y-103525730D01*
X140406104Y-103613422D01*
X140317466Y-103660799D01*
X140264078Y-103889473D01*
X139135922Y-103889473D01*
X139082534Y-103660799D01*
X138852626Y-103554905D01*
X138606476Y-103495898D01*
X138353545Y-103486048D01*
X138103551Y-103525730D01*
X137866104Y-103613422D01*
X137777466Y-103660799D01*
X137724078Y-103889473D01*
X116501738Y-103889473D01*
X116389140Y-103776875D01*
X116178676Y-103636247D01*
X115944821Y-103539381D01*
X115696561Y-103490000D01*
X115443439Y-103490000D01*
X115195179Y-103539381D01*
X114961324Y-103636247D01*
X114750860Y-103776875D01*
X114571875Y-103955860D01*
X114431247Y-104166324D01*
X114334381Y-104400179D01*
X114300000Y-104573027D01*
X114265619Y-104400179D01*
X114168753Y-104166324D01*
X114028125Y-103955860D01*
X113849140Y-103776875D01*
X113638676Y-103636247D01*
X113404821Y-103539381D01*
X113156561Y-103490000D01*
X112903439Y-103490000D01*
X112655179Y-103539381D01*
X112421324Y-103636247D01*
X112210860Y-103776875D01*
X112031875Y-103955860D01*
X111891247Y-104166324D01*
X111794381Y-104400179D01*
X111745000Y-104648439D01*
X94417313Y-104648439D01*
X94383073Y-104584382D01*
X94194903Y-104355097D01*
X93965618Y-104166927D01*
X93704028Y-104027104D01*
X93575357Y-103988072D01*
X97000000Y-103988072D01*
X97124482Y-103975812D01*
X97244180Y-103939502D01*
X97354494Y-103880537D01*
X97451185Y-103801185D01*
X97530537Y-103704494D01*
X97589502Y-103594180D01*
X97625812Y-103474482D01*
X97638072Y-103350000D01*
X97638072Y-101355249D01*
X99115000Y-101355249D01*
X99115000Y-101844751D01*
X99210497Y-102324848D01*
X99397821Y-102777089D01*
X99669774Y-103184095D01*
X100015905Y-103530226D01*
X100422911Y-103802179D01*
X100875152Y-103989503D01*
X101355249Y-104085000D01*
X101844751Y-104085000D01*
X102324848Y-103989503D01*
X102777089Y-103802179D01*
X103184095Y-103530226D01*
X103530226Y-103184095D01*
X103802179Y-102777089D01*
X103989503Y-102324848D01*
X104085000Y-101844751D01*
X104085000Y-101355249D01*
X103989503Y-100875152D01*
X103802179Y-100422911D01*
X103530226Y-100015905D01*
X103184095Y-99669774D01*
X102777089Y-99397821D01*
X102324848Y-99210497D01*
X101844751Y-99115000D01*
X101355249Y-99115000D01*
X100875152Y-99210497D01*
X100422911Y-99397821D01*
X100015905Y-99669774D01*
X99669774Y-100015905D01*
X99397821Y-100422911D01*
X99210497Y-100875152D01*
X99115000Y-101355249D01*
X97638072Y-101355249D01*
X97638072Y-99850000D01*
X97625812Y-99725518D01*
X97589502Y-99605820D01*
X97530537Y-99495506D01*
X97451185Y-99398815D01*
X97354494Y-99319463D01*
X97244180Y-99260498D01*
X97124482Y-99224188D01*
X97000000Y-99211928D01*
X93500000Y-99211928D01*
X93375518Y-99224188D01*
X93255820Y-99260498D01*
X93145506Y-99319463D01*
X93048815Y-99398815D01*
X92969463Y-99495506D01*
X92910498Y-99605820D01*
X92874188Y-99725518D01*
X92861928Y-99850000D01*
X92861928Y-103350000D01*
X92874188Y-103474482D01*
X92910498Y-103594180D01*
X92969463Y-103704494D01*
X93048815Y-103801185D01*
X93145506Y-103880537D01*
X93222131Y-103921494D01*
X93125000Y-103911928D01*
X91375000Y-103911928D01*
X91079814Y-103941001D01*
X90795972Y-104027104D01*
X90534382Y-104166927D01*
X90305097Y-104355097D01*
X90116927Y-104584382D01*
X89977104Y-104845972D01*
X89891001Y-105129814D01*
X89861928Y-105425000D01*
X89861928Y-107175000D01*
X89891001Y-107470186D01*
X89977104Y-107754028D01*
X90116927Y-108015618D01*
X90305097Y-108244903D01*
X90534382Y-108433073D01*
X90725074Y-108535000D01*
X88933505Y-108535000D01*
X88540333Y-108496449D01*
X88194365Y-108391996D01*
X87875276Y-108222333D01*
X87595219Y-107993924D01*
X87364859Y-107715466D01*
X87192973Y-107397570D01*
X87086106Y-107052340D01*
X87045000Y-106661238D01*
X87045000Y-103350000D01*
X87111928Y-103350000D01*
X87124188Y-103474482D01*
X87160498Y-103594180D01*
X87219463Y-103704494D01*
X87298815Y-103801185D01*
X87395506Y-103880537D01*
X87505820Y-103939502D01*
X87625518Y-103975812D01*
X87750000Y-103988072D01*
X88964250Y-103985000D01*
X89123000Y-103826250D01*
X89123000Y-101727000D01*
X89377000Y-101727000D01*
X89377000Y-103826250D01*
X89535750Y-103985000D01*
X90750000Y-103988072D01*
X90874482Y-103975812D01*
X90994180Y-103939502D01*
X91104494Y-103880537D01*
X91201185Y-103801185D01*
X91280537Y-103704494D01*
X91339502Y-103594180D01*
X91375812Y-103474482D01*
X91388072Y-103350000D01*
X91385000Y-101885750D01*
X91226250Y-101727000D01*
X89377000Y-101727000D01*
X89123000Y-101727000D01*
X87273750Y-101727000D01*
X87115000Y-101885750D01*
X87111928Y-103350000D01*
X87045000Y-103350000D01*
X87045000Y-99850000D01*
X87111928Y-99850000D01*
X87115000Y-101314250D01*
X87273750Y-101473000D01*
X89123000Y-101473000D01*
X89123000Y-99373750D01*
X89377000Y-99373750D01*
X89377000Y-101473000D01*
X91226250Y-101473000D01*
X91385000Y-101314250D01*
X91388072Y-99850000D01*
X91375812Y-99725518D01*
X91339502Y-99605820D01*
X91280537Y-99495506D01*
X91201185Y-99398815D01*
X91104494Y-99319463D01*
X90994180Y-99260498D01*
X90874482Y-99224188D01*
X90750000Y-99211928D01*
X89535750Y-99215000D01*
X89377000Y-99373750D01*
X89123000Y-99373750D01*
X88964250Y-99215000D01*
X87750000Y-99211928D01*
X87625518Y-99224188D01*
X87505820Y-99260498D01*
X87395506Y-99319463D01*
X87298815Y-99398815D01*
X87219463Y-99495506D01*
X87160498Y-99605820D01*
X87124188Y-99725518D01*
X87111928Y-99850000D01*
X87045000Y-99850000D01*
X87045000Y-89408439D01*
X111745000Y-89408439D01*
X111745000Y-89661561D01*
X111794381Y-89909821D01*
X111891247Y-90143676D01*
X112031875Y-90354140D01*
X112210860Y-90533125D01*
X112421324Y-90673753D01*
X112655179Y-90770619D01*
X112903439Y-90820000D01*
X113156561Y-90820000D01*
X113404821Y-90770619D01*
X113638676Y-90673753D01*
X113849140Y-90533125D01*
X114028125Y-90354140D01*
X114168753Y-90143676D01*
X114265619Y-89909821D01*
X114300000Y-89736973D01*
X114334381Y-89909821D01*
X114431247Y-90143676D01*
X114571875Y-90354140D01*
X114750860Y-90533125D01*
X114961324Y-90673753D01*
X115195179Y-90770619D01*
X115443439Y-90820000D01*
X115696561Y-90820000D01*
X115944821Y-90770619D01*
X116178676Y-90673753D01*
X116389140Y-90533125D01*
X116568125Y-90354140D01*
X116708753Y-90143676D01*
X116805619Y-89909821D01*
X116855000Y-89661561D01*
X116855000Y-89408439D01*
X116805619Y-89160179D01*
X116708753Y-88926324D01*
X116568125Y-88715860D01*
X116389140Y-88536875D01*
X116178676Y-88396247D01*
X115944821Y-88299381D01*
X115696561Y-88250000D01*
X115443439Y-88250000D01*
X115195179Y-88299381D01*
X114961324Y-88396247D01*
X114750860Y-88536875D01*
X114571875Y-88715860D01*
X114431247Y-88926324D01*
X114334381Y-89160179D01*
X114300000Y-89333027D01*
X114265619Y-89160179D01*
X114168753Y-88926324D01*
X114028125Y-88715860D01*
X113849140Y-88536875D01*
X113638676Y-88396247D01*
X113404821Y-88299381D01*
X113156561Y-88250000D01*
X112903439Y-88250000D01*
X112655179Y-88299381D01*
X112421324Y-88396247D01*
X112210860Y-88536875D01*
X112031875Y-88715860D01*
X111891247Y-88926324D01*
X111794381Y-89160179D01*
X111745000Y-89408439D01*
X87045000Y-89408439D01*
X87045000Y-85749000D01*
X94000928Y-85749000D01*
X94000928Y-86971000D01*
X94013188Y-87095482D01*
X94049498Y-87215180D01*
X94108463Y-87325494D01*
X94187815Y-87422185D01*
X94284506Y-87501537D01*
X94394820Y-87560502D01*
X94514518Y-87596812D01*
X94639000Y-87609072D01*
X95861000Y-87609072D01*
X95985482Y-87596812D01*
X96105180Y-87560502D01*
X96215494Y-87501537D01*
X96312185Y-87422185D01*
X96391537Y-87325494D01*
X96450502Y-87215180D01*
X96486812Y-87095482D01*
X96499072Y-86971000D01*
X96499072Y-85749000D01*
X96486812Y-85624518D01*
X96450502Y-85504820D01*
X96391537Y-85394506D01*
X96312185Y-85297815D01*
X96215494Y-85218463D01*
X96105180Y-85159498D01*
X95985482Y-85123188D01*
X95861000Y-85110928D01*
X94639000Y-85110928D01*
X94514518Y-85123188D01*
X94394820Y-85159498D01*
X94284506Y-85218463D01*
X94187815Y-85297815D01*
X94108463Y-85394506D01*
X94049498Y-85504820D01*
X94013188Y-85624518D01*
X94000928Y-85749000D01*
X87045000Y-85749000D01*
X87045000Y-82339721D01*
X87400000Y-82339721D01*
X87400000Y-82760279D01*
X87482047Y-83172756D01*
X87642988Y-83561302D01*
X87876637Y-83910983D01*
X88174017Y-84208363D01*
X88523698Y-84442012D01*
X88912244Y-84602953D01*
X89324721Y-84685000D01*
X89745279Y-84685000D01*
X90157756Y-84602953D01*
X90546302Y-84442012D01*
X90895983Y-84208363D01*
X91193363Y-83910983D01*
X91336154Y-83697280D01*
X96544000Y-83697280D01*
X96544000Y-83942720D01*
X96591883Y-84183445D01*
X96685809Y-84410202D01*
X96822168Y-84614279D01*
X96995721Y-84787832D01*
X97199798Y-84924191D01*
X97426555Y-85018117D01*
X97667280Y-85066000D01*
X97912720Y-85066000D01*
X98153445Y-85018117D01*
X98380202Y-84924191D01*
X98584279Y-84787832D01*
X98757832Y-84614279D01*
X98894191Y-84410202D01*
X98988117Y-84183445D01*
X99036000Y-83942720D01*
X99036000Y-83697280D01*
X98988117Y-83456555D01*
X98894191Y-83229798D01*
X98757832Y-83025721D01*
X98584279Y-82852168D01*
X98380202Y-82715809D01*
X98153445Y-82621883D01*
X97912720Y-82574000D01*
X97667280Y-82574000D01*
X97426555Y-82621883D01*
X97199798Y-82715809D01*
X96995721Y-82852168D01*
X96822168Y-83025721D01*
X96685809Y-83229798D01*
X96591883Y-83456555D01*
X96544000Y-83697280D01*
X91336154Y-83697280D01*
X91427012Y-83561302D01*
X91587953Y-83172756D01*
X91670000Y-82760279D01*
X91670000Y-82339721D01*
X91587953Y-81927244D01*
X91493826Y-81700000D01*
X111541928Y-81700000D01*
X111541928Y-83400000D01*
X111554188Y-83524482D01*
X111590498Y-83644180D01*
X111649463Y-83754494D01*
X111728815Y-83851185D01*
X111825506Y-83930537D01*
X111935820Y-83989502D01*
X112055518Y-84025812D01*
X112180000Y-84038072D01*
X113880000Y-84038072D01*
X114004482Y-84025812D01*
X114124180Y-83989502D01*
X114234494Y-83930537D01*
X114331185Y-83851185D01*
X114410537Y-83754494D01*
X114469502Y-83644180D01*
X114491513Y-83571620D01*
X114623368Y-83703475D01*
X114866589Y-83865990D01*
X115136842Y-83977932D01*
X115423740Y-84035000D01*
X115716260Y-84035000D01*
X116003158Y-83977932D01*
X116273411Y-83865990D01*
X116516632Y-83703475D01*
X116723475Y-83496632D01*
X116885990Y-83253411D01*
X116997932Y-82983158D01*
X117055000Y-82696260D01*
X117055000Y-82403740D01*
X116997932Y-82116842D01*
X116885990Y-81846589D01*
X116723475Y-81603368D01*
X116516632Y-81396525D01*
X116273411Y-81234010D01*
X116003158Y-81122068D01*
X115716260Y-81065000D01*
X115423740Y-81065000D01*
X115136842Y-81122068D01*
X114866589Y-81234010D01*
X114623368Y-81396525D01*
X114491513Y-81528380D01*
X114469502Y-81455820D01*
X114410537Y-81345506D01*
X114331185Y-81248815D01*
X114234494Y-81169463D01*
X114124180Y-81110498D01*
X114004482Y-81074188D01*
X113880000Y-81061928D01*
X112180000Y-81061928D01*
X112055518Y-81074188D01*
X111935820Y-81110498D01*
X111825506Y-81169463D01*
X111728815Y-81248815D01*
X111649463Y-81345506D01*
X111590498Y-81455820D01*
X111554188Y-81575518D01*
X111541928Y-81700000D01*
X91493826Y-81700000D01*
X91427012Y-81538698D01*
X91193363Y-81189017D01*
X90895983Y-80891637D01*
X90546302Y-80657988D01*
X90157756Y-80497047D01*
X89745279Y-80415000D01*
X89324721Y-80415000D01*
X88912244Y-80497047D01*
X88523698Y-80657988D01*
X88174017Y-80891637D01*
X87876637Y-81189017D01*
X87642988Y-81538698D01*
X87482047Y-81927244D01*
X87400000Y-82339721D01*
X87045000Y-82339721D01*
X87045000Y-81313504D01*
X87083551Y-80920332D01*
X87188004Y-80574366D01*
X87357667Y-80255276D01*
X87586076Y-79975219D01*
X87864534Y-79744859D01*
X88182430Y-79572973D01*
X88527658Y-79466107D01*
X88918753Y-79425000D01*
X121150211Y-79425000D01*
X120733150Y-79554102D01*
G37*
%TD.AperFunction*%
%TD*%
M02*
