%TF.GenerationSoftware,KiCad,Pcbnew,5.1.8+dfsg1-1+b1*%
%TF.CreationDate,2021-03-05T10:02:30-06:00*%
%TF.ProjectId,driver,64726976-6572-42e6-9b69-6361645f7063,B*%
%TF.SameCoordinates,Original*%
%TF.FileFunction,Legend,Bot*%
%TF.FilePolarity,Positive*%
%FSLAX46Y46*%
G04 Gerber Fmt 4.6, Leading zero omitted, Abs format (unit mm)*
G04 Created by KiCad (PCBNEW 5.1.8+dfsg1-1+b1) date 2021-03-05 10:02:30*
%MOMM*%
%LPD*%
G01*
G04 APERTURE LIST*
%ADD10C,0.250000*%
%TA.AperFunction,Profile*%
%ADD11C,0.100000*%
%TD*%
%ADD12C,0.100000*%
%ADD13C,0.300000*%
%ADD14C,0.150000*%
G04 APERTURE END LIST*
D10*
X154923333Y-81603571D02*
X154780476Y-81651190D01*
X154732857Y-81698809D01*
X154685238Y-81794047D01*
X154685238Y-81936904D01*
X154732857Y-82032142D01*
X154780476Y-82079761D01*
X154875714Y-82127380D01*
X155256666Y-82127380D01*
X155256666Y-81127380D01*
X154923333Y-81127380D01*
X154828095Y-81175000D01*
X154780476Y-81222619D01*
X154732857Y-81317857D01*
X154732857Y-81413095D01*
X154780476Y-81508333D01*
X154828095Y-81555952D01*
X154923333Y-81603571D01*
X155256666Y-81603571D01*
X153780476Y-82127380D02*
X154256666Y-82127380D01*
X154256666Y-81127380D01*
X153494761Y-81841666D02*
X153018571Y-81841666D01*
X153590000Y-82127380D02*
X153256666Y-81127380D01*
X152923333Y-82127380D01*
X152590000Y-82127380D02*
X152590000Y-81127380D01*
X152161428Y-82079761D02*
X152018571Y-82127380D01*
X151780476Y-82127380D01*
X151685238Y-82079761D01*
X151637619Y-82032142D01*
X151590000Y-81936904D01*
X151590000Y-81841666D01*
X151637619Y-81746428D01*
X151685238Y-81698809D01*
X151780476Y-81651190D01*
X151970952Y-81603571D01*
X152066190Y-81555952D01*
X152113809Y-81508333D01*
X152161428Y-81413095D01*
X152161428Y-81317857D01*
X152113809Y-81222619D01*
X152066190Y-81175000D01*
X151970952Y-81127380D01*
X151732857Y-81127380D01*
X151590000Y-81175000D01*
X151161428Y-81603571D02*
X150828095Y-81603571D01*
X150685238Y-82127380D02*
X151161428Y-82127380D01*
X151161428Y-81127380D01*
X150685238Y-81127380D01*
X149637619Y-81127380D02*
X149066190Y-81127380D01*
X149351904Y-82127380D02*
X149351904Y-81127380D01*
X148732857Y-82127380D02*
X148732857Y-81127380D01*
X148732857Y-81603571D02*
X148161428Y-81603571D01*
X148161428Y-82127380D02*
X148161428Y-81127380D01*
X147494761Y-81127380D02*
X147304285Y-81127380D01*
X147209047Y-81175000D01*
X147113809Y-81270238D01*
X147066190Y-81460714D01*
X147066190Y-81794047D01*
X147113809Y-81984523D01*
X147209047Y-82079761D01*
X147304285Y-82127380D01*
X147494761Y-82127380D01*
X147590000Y-82079761D01*
X147685238Y-81984523D01*
X147732857Y-81794047D01*
X147732857Y-81460714D01*
X147685238Y-81270238D01*
X147590000Y-81175000D01*
X147494761Y-81127380D01*
X146637619Y-82127380D02*
X146637619Y-81127380D01*
X146304285Y-81841666D01*
X145970952Y-81127380D01*
X145970952Y-82127380D01*
X145494761Y-82127380D02*
X145494761Y-81127380D01*
X145113809Y-81127380D01*
X145018571Y-81175000D01*
X144970952Y-81222619D01*
X144923333Y-81317857D01*
X144923333Y-81460714D01*
X144970952Y-81555952D01*
X145018571Y-81603571D01*
X145113809Y-81651190D01*
X145494761Y-81651190D01*
X144542380Y-82079761D02*
X144399523Y-82127380D01*
X144161428Y-82127380D01*
X144066190Y-82079761D01*
X144018571Y-82032142D01*
X143970952Y-81936904D01*
X143970952Y-81841666D01*
X144018571Y-81746428D01*
X144066190Y-81698809D01*
X144161428Y-81651190D01*
X144351904Y-81603571D01*
X144447142Y-81555952D01*
X144494761Y-81508333D01*
X144542380Y-81413095D01*
X144542380Y-81317857D01*
X144494761Y-81222619D01*
X144447142Y-81175000D01*
X144351904Y-81127380D01*
X144113809Y-81127380D01*
X143970952Y-81175000D01*
X143351904Y-81127380D02*
X143161428Y-81127380D01*
X143066190Y-81175000D01*
X142970952Y-81270238D01*
X142923333Y-81460714D01*
X142923333Y-81794047D01*
X142970952Y-81984523D01*
X143066190Y-82079761D01*
X143161428Y-82127380D01*
X143351904Y-82127380D01*
X143447142Y-82079761D01*
X143542380Y-81984523D01*
X143590000Y-81794047D01*
X143590000Y-81460714D01*
X143542380Y-81270238D01*
X143447142Y-81175000D01*
X143351904Y-81127380D01*
X142494761Y-82127380D02*
X142494761Y-81127380D01*
X141923333Y-82127380D01*
X141923333Y-81127380D01*
X153328095Y-82877380D02*
X153328095Y-83686904D01*
X153280476Y-83782142D01*
X153232857Y-83829761D01*
X153137619Y-83877380D01*
X152947142Y-83877380D01*
X152851904Y-83829761D01*
X152804285Y-83782142D01*
X152756666Y-83686904D01*
X152756666Y-82877380D01*
X152375714Y-82877380D02*
X152137619Y-83877380D01*
X151947142Y-83163095D01*
X151756666Y-83877380D01*
X151518571Y-82877380D01*
X151137619Y-83496428D02*
X150375714Y-83496428D01*
X149899523Y-83877380D02*
X149899523Y-82877380D01*
X149566190Y-83591666D01*
X149232857Y-82877380D01*
X149232857Y-83877380D01*
X148804285Y-83591666D02*
X148328095Y-83591666D01*
X148899523Y-83877380D02*
X148566190Y-82877380D01*
X148232857Y-83877380D01*
X147899523Y-83877380D02*
X147899523Y-82877380D01*
X147661428Y-82877380D01*
X147518571Y-82925000D01*
X147423333Y-83020238D01*
X147375714Y-83115476D01*
X147328095Y-83305952D01*
X147328095Y-83448809D01*
X147375714Y-83639285D01*
X147423333Y-83734523D01*
X147518571Y-83829761D01*
X147661428Y-83877380D01*
X147899523Y-83877380D01*
X146947142Y-83829761D02*
X146804285Y-83877380D01*
X146566190Y-83877380D01*
X146470952Y-83829761D01*
X146423333Y-83782142D01*
X146375714Y-83686904D01*
X146375714Y-83591666D01*
X146423333Y-83496428D01*
X146470952Y-83448809D01*
X146566190Y-83401190D01*
X146756666Y-83353571D01*
X146851904Y-83305952D01*
X146899523Y-83258333D01*
X146947142Y-83163095D01*
X146947142Y-83067857D01*
X146899523Y-82972619D01*
X146851904Y-82925000D01*
X146756666Y-82877380D01*
X146518571Y-82877380D01*
X146375714Y-82925000D01*
X145947142Y-83877380D02*
X145947142Y-82877380D01*
X145280476Y-82877380D02*
X145090000Y-82877380D01*
X144994761Y-82925000D01*
X144899523Y-83020238D01*
X144851904Y-83210714D01*
X144851904Y-83544047D01*
X144899523Y-83734523D01*
X144994761Y-83829761D01*
X145090000Y-83877380D01*
X145280476Y-83877380D01*
X145375714Y-83829761D01*
X145470952Y-83734523D01*
X145518571Y-83544047D01*
X145518571Y-83210714D01*
X145470952Y-83020238D01*
X145375714Y-82925000D01*
X145280476Y-82877380D01*
X144423333Y-83877380D02*
X144423333Y-82877380D01*
X143851904Y-83877380D01*
X143851904Y-82877380D01*
D11*
X121920000Y-85090000D02*
G75*
G02*
X119380000Y-82550000I0J2540000D01*
G01*
X165100000Y-78740000D02*
X88900000Y-78740000D01*
X119380000Y-82550000D02*
G75*
G02*
X121920000Y-80010000I2540000J0D01*
G01*
X132080000Y-80010000D02*
G75*
G02*
X134620000Y-82550000I0J-2540000D01*
G01*
X134620000Y-82550000D02*
G75*
G02*
X132080000Y-85090000I-2540000J0D01*
G01*
X132080000Y-80010000D02*
X121920000Y-80010000D01*
X132080000Y-85090000D02*
X121920000Y-85090000D01*
X165100000Y-109220000D02*
X88900000Y-109220000D01*
X86360000Y-81280000D02*
X86360000Y-106680000D01*
X167640000Y-106680000D02*
X167640000Y-81280000D01*
X86360000Y-81280000D02*
G75*
G02*
X88900000Y-78740000I2540000J0D01*
G01*
X88900000Y-109220000D02*
G75*
G02*
X86360000Y-106680000I0J2540000D01*
G01*
X167640000Y-106680000D02*
G75*
G02*
X165100000Y-109220000I-2540000J0D01*
G01*
X165100000Y-78740000D02*
G75*
G02*
X167640000Y-81280000I0J-2540000D01*
G01*
D12*
%TO.C,U2*%
X142900000Y-107305000D02*
X142900000Y-87005000D01*
X142900000Y-87005000D02*
X111100000Y-87005000D01*
X111100000Y-87005000D02*
X111100000Y-107305000D01*
X111100000Y-107305000D02*
X142900000Y-107305000D01*
D13*
X141500000Y-107655000D02*
X141500000Y-107655000D01*
X141500000Y-107755000D02*
X141500000Y-107755000D01*
X141500000Y-107655000D02*
G75*
G03*
X141500000Y-107755000I0J-50000D01*
G01*
X141500000Y-107755000D02*
G75*
G03*
X141500000Y-107655000I0J50000D01*
G01*
%TD*%
%TO.C,U2*%
D14*
X144906904Y-87082380D02*
X144906904Y-87891904D01*
X144859285Y-87987142D01*
X144811666Y-88034761D01*
X144716428Y-88082380D01*
X144525952Y-88082380D01*
X144430714Y-88034761D01*
X144383095Y-87987142D01*
X144335476Y-87891904D01*
X144335476Y-87082380D01*
X143906904Y-87177619D02*
X143859285Y-87130000D01*
X143764047Y-87082380D01*
X143525952Y-87082380D01*
X143430714Y-87130000D01*
X143383095Y-87177619D01*
X143335476Y-87272857D01*
X143335476Y-87368095D01*
X143383095Y-87510952D01*
X143954523Y-88082380D01*
X143335476Y-88082380D01*
%TD*%
M02*
