%TF.GenerationSoftware,KiCad,Pcbnew,5.1.8+dfsg1-1+b1*%
%TF.CreationDate,2021-03-05T10:02:30-06:00*%
%TF.ProjectId,driver,64726976-6572-42e6-9b69-6361645f7063,B*%
%TF.SameCoordinates,Original*%
%TF.FileFunction,Soldermask,Top*%
%TF.FilePolarity,Negative*%
%FSLAX46Y46*%
G04 Gerber Fmt 4.6, Leading zero omitted, Abs format (unit mm)*
G04 Created by KiCad (PCBNEW 5.1.8+dfsg1-1+b1) date 2021-03-05 10:02:30*
%MOMM*%
%LPD*%
G01*
G04 APERTURE LIST*
%TA.AperFunction,Profile*%
%ADD10C,0.100000*%
%TD*%
%ADD11C,3.000000*%
%ADD12R,1.222000X1.222000*%
%ADD13C,1.222000*%
%ADD14C,3.700000*%
%ADD15C,1.300000*%
%ADD16R,3.500000X3.500000*%
%ADD17O,1.700000X1.700000*%
%ADD18R,1.700000X1.700000*%
G04 APERTURE END LIST*
D10*
X121920000Y-85090000D02*
G75*
G02*
X119380000Y-82550000I0J2540000D01*
G01*
X165100000Y-78740000D02*
X88900000Y-78740000D01*
X119380000Y-82550000D02*
G75*
G02*
X121920000Y-80010000I2540000J0D01*
G01*
X132080000Y-80010000D02*
G75*
G02*
X134620000Y-82550000I0J-2540000D01*
G01*
X134620000Y-82550000D02*
G75*
G02*
X132080000Y-85090000I-2540000J0D01*
G01*
X132080000Y-80010000D02*
X121920000Y-80010000D01*
X132080000Y-85090000D02*
X121920000Y-85090000D01*
X165100000Y-109220000D02*
X88900000Y-109220000D01*
X86360000Y-81280000D02*
X86360000Y-106680000D01*
X167640000Y-106680000D02*
X167640000Y-81280000D01*
X86360000Y-81280000D02*
G75*
G02*
X88900000Y-78740000I2540000J0D01*
G01*
X88900000Y-109220000D02*
G75*
G02*
X86360000Y-106680000I0J2540000D01*
G01*
X167640000Y-106680000D02*
G75*
G02*
X165100000Y-109220000I-2540000J0D01*
G01*
X165100000Y-78740000D02*
G75*
G02*
X167640000Y-81280000I0J-2540000D01*
G01*
D11*
%TO.C,TP3*%
X164465000Y-82550000D03*
%TD*%
%TO.C,TP2*%
X164465000Y-88900000D03*
%TD*%
%TO.C,TP1*%
X89535000Y-82550000D03*
%TD*%
%TO.C,R2*%
G36*
G01*
X92084999Y-94245000D02*
X93335001Y-94245000D01*
G75*
G02*
X93585000Y-94494999I0J-249999D01*
G01*
X93585000Y-95295001D01*
G75*
G02*
X93335001Y-95545000I-249999J0D01*
G01*
X92084999Y-95545000D01*
G75*
G02*
X91835000Y-95295001I0J249999D01*
G01*
X91835000Y-94494999D01*
G75*
G02*
X92084999Y-94245000I249999J0D01*
G01*
G37*
G36*
G01*
X92084999Y-91145000D02*
X93335001Y-91145000D01*
G75*
G02*
X93585000Y-91394999I0J-249999D01*
G01*
X93585000Y-92195001D01*
G75*
G02*
X93335001Y-92445000I-249999J0D01*
G01*
X92084999Y-92445000D01*
G75*
G02*
X91835000Y-92195001I0J249999D01*
G01*
X91835000Y-91394999D01*
G75*
G02*
X92084999Y-91145000I249999J0D01*
G01*
G37*
%TD*%
%TO.C,R1*%
G36*
G01*
X98415001Y-92445000D02*
X97164999Y-92445000D01*
G75*
G02*
X96915000Y-92195001I0J249999D01*
G01*
X96915000Y-91394999D01*
G75*
G02*
X97164999Y-91145000I249999J0D01*
G01*
X98415001Y-91145000D01*
G75*
G02*
X98665000Y-91394999I0J-249999D01*
G01*
X98665000Y-92195001D01*
G75*
G02*
X98415001Y-92445000I-249999J0D01*
G01*
G37*
G36*
G01*
X98415001Y-95545000D02*
X97164999Y-95545000D01*
G75*
G02*
X96915000Y-95295001I0J249999D01*
G01*
X96915000Y-94494999D01*
G75*
G02*
X97164999Y-94245000I249999J0D01*
G01*
X98415001Y-94245000D01*
G75*
G02*
X98665000Y-94494999I0J-249999D01*
G01*
X98665000Y-95295001D01*
G75*
G02*
X98415001Y-95545000I-249999J0D01*
G01*
G37*
%TD*%
%TO.C,C2*%
G36*
G01*
X147939998Y-85405000D02*
X149240002Y-85405000D01*
G75*
G02*
X149490000Y-85654998I0J-249998D01*
G01*
X149490000Y-86480002D01*
G75*
G02*
X149240002Y-86730000I-249998J0D01*
G01*
X147939998Y-86730000D01*
G75*
G02*
X147690000Y-86480002I0J249998D01*
G01*
X147690000Y-85654998D01*
G75*
G02*
X147939998Y-85405000I249998J0D01*
G01*
G37*
G36*
G01*
X147939998Y-88530000D02*
X149240002Y-88530000D01*
G75*
G02*
X149490000Y-88779998I0J-249998D01*
G01*
X149490000Y-89605002D01*
G75*
G02*
X149240002Y-89855000I-249998J0D01*
G01*
X147939998Y-89855000D01*
G75*
G02*
X147690000Y-89605002I0J249998D01*
G01*
X147690000Y-88779998D01*
G75*
G02*
X147939998Y-88530000I249998J0D01*
G01*
G37*
%TD*%
D12*
%TO.C,RV1*%
X95250000Y-86360000D03*
D13*
X97790000Y-83820000D03*
X100330000Y-86360000D03*
%TD*%
%TO.C,R5*%
G36*
G01*
X136790000Y-94605001D02*
X136790000Y-93354999D01*
G75*
G02*
X137039999Y-93105000I249999J0D01*
G01*
X137840001Y-93105000D01*
G75*
G02*
X138090000Y-93354999I0J-249999D01*
G01*
X138090000Y-94605001D01*
G75*
G02*
X137840001Y-94855000I-249999J0D01*
G01*
X137039999Y-94855000D01*
G75*
G02*
X136790000Y-94605001I0J249999D01*
G01*
G37*
G36*
G01*
X133690000Y-94605001D02*
X133690000Y-93354999D01*
G75*
G02*
X133939999Y-93105000I249999J0D01*
G01*
X134740001Y-93105000D01*
G75*
G02*
X134990000Y-93354999I0J-249999D01*
G01*
X134990000Y-94605001D01*
G75*
G02*
X134740001Y-94855000I-249999J0D01*
G01*
X133939999Y-94855000D01*
G75*
G02*
X133690000Y-94605001I0J249999D01*
G01*
G37*
%TD*%
%TO.C,D1*%
G36*
G01*
X136665000Y-99685000D02*
X136665000Y-98435000D01*
G75*
G02*
X136915000Y-98185000I250000J0D01*
G01*
X137665000Y-98185000D01*
G75*
G02*
X137915000Y-98435000I0J-250000D01*
G01*
X137915000Y-99685000D01*
G75*
G02*
X137665000Y-99935000I-250000J0D01*
G01*
X136915000Y-99935000D01*
G75*
G02*
X136665000Y-99685000I0J250000D01*
G01*
G37*
G36*
G01*
X133865000Y-99685000D02*
X133865000Y-98435000D01*
G75*
G02*
X134115000Y-98185000I250000J0D01*
G01*
X134865000Y-98185000D01*
G75*
G02*
X135115000Y-98435000I0J-250000D01*
G01*
X135115000Y-99685000D01*
G75*
G02*
X134865000Y-99935000I-250000J0D01*
G01*
X134115000Y-99935000D01*
G75*
G02*
X133865000Y-99685000I0J250000D01*
G01*
G37*
%TD*%
D14*
%TO.C,REF\u002A\u002A*%
X152400000Y-101600000D03*
%TD*%
%TO.C,REF\u002A\u002A*%
X101600000Y-101600000D03*
%TD*%
D15*
%TO.C,U2*%
X140970000Y-89535000D03*
X138430000Y-89535000D03*
X133350000Y-89535000D03*
X115570000Y-89535000D03*
X113030000Y-89535000D03*
X113030000Y-104775000D03*
X115570000Y-104775000D03*
X138430000Y-104775000D03*
X140970000Y-104775000D03*
%TD*%
D16*
%TO.C,J4*%
X95250000Y-101600000D03*
G36*
G01*
X87750000Y-102600000D02*
X87750000Y-100600000D01*
G75*
G02*
X88500000Y-99850000I750000J0D01*
G01*
X90000000Y-99850000D01*
G75*
G02*
X90750000Y-100600000I0J-750000D01*
G01*
X90750000Y-102600000D01*
G75*
G02*
X90000000Y-103350000I-750000J0D01*
G01*
X88500000Y-103350000D01*
G75*
G02*
X87750000Y-102600000I0J750000D01*
G01*
G37*
G36*
G01*
X90500000Y-107175000D02*
X90500000Y-105425000D01*
G75*
G02*
X91375000Y-104550000I875000J0D01*
G01*
X93125000Y-104550000D01*
G75*
G02*
X94000000Y-105425000I0J-875000D01*
G01*
X94000000Y-107175000D01*
G75*
G02*
X93125000Y-108050000I-875000J0D01*
G01*
X91375000Y-108050000D01*
G75*
G02*
X90500000Y-107175000I0J875000D01*
G01*
G37*
%TD*%
%TO.C,J3*%
G36*
G01*
X163500000Y-96025000D02*
X163500000Y-97775000D01*
G75*
G02*
X162625000Y-98650000I-875000J0D01*
G01*
X160875000Y-98650000D01*
G75*
G02*
X160000000Y-97775000I0J875000D01*
G01*
X160000000Y-96025000D01*
G75*
G02*
X160875000Y-95150000I875000J0D01*
G01*
X162625000Y-95150000D01*
G75*
G02*
X163500000Y-96025000I0J-875000D01*
G01*
G37*
G36*
G01*
X166250000Y-100600000D02*
X166250000Y-102600000D01*
G75*
G02*
X165500000Y-103350000I-750000J0D01*
G01*
X164000000Y-103350000D01*
G75*
G02*
X163250000Y-102600000I0J750000D01*
G01*
X163250000Y-100600000D01*
G75*
G02*
X164000000Y-99850000I750000J0D01*
G01*
X165500000Y-99850000D01*
G75*
G02*
X166250000Y-100600000I0J-750000D01*
G01*
G37*
X158750000Y-101600000D03*
%TD*%
D17*
%TO.C,J5*%
X146050000Y-99060000D03*
X146050000Y-101600000D03*
X146050000Y-104140000D03*
D18*
X146050000Y-106680000D03*
%TD*%
%TO.C,J7*%
X113030000Y-82550000D03*
D17*
X115570000Y-82550000D03*
%TD*%
M02*
