<svg version="1.1" xmlns="http://www.w3.org/2000/svg" xmlns:xlink="http://www.w3.org/1999/xlink" stroke-linecap="round" stroke-linejoin="round" stroke-width="0" fill-rule="evenodd" clip-rule="evenodd" id="wOxEQmdHNPy2_bottom" viewBox="86360 -109220 81280 30480" width="81.28mm" height="30.48mm"><defs><style>.wOxEQmdHNPy2_fr4 {color: #666666;}
.wOxEQmdHNPy2_cu {color: #cccccc;}
.wOxEQmdHNPy2_cf {color: #cc9933;}
.wOxEQmdHNPy2_sm {color: #ff0000; opacity: 0.75;}
.wOxEQmdHNPy2_ss {color: #ffffff;}
.wOxEQmdHNPy2_sp {color: #999999;}
.wOxEQmdHNPy2_out {color: #000000;}</style><rect x="-875" y="-600" width="1750" height="1200" rx="600" ry="600" id="kU4cjEWfSDhQ_pad-11"/><circle cx="0" cy="0" r="650" id="kU4cjEWfSDhQ_pad-12"/><rect x="-1750" y="-1750" width="3500" height="3500" id="kU4cjEWfSDhQ_pad-13"/><rect x="-800" y="-800" width="1600" height="1600" rx="800" ry="800" id="kU4cjEWfSDhQ_pad-14"/><rect x="-800" y="-800" width="1600" height="1600" id="kU4cjEWfSDhQ_pad-15"/><rect x="-850" y="-850" width="1700" height="1700" rx="850" ry="850" id="kU4cjEWfSDhQ_pad-16"/><rect x="-850" y="-850" width="1700" height="1700" id="kU4cjEWfSDhQ_pad-17"/><circle cx="0" cy="0" r="400" id="kU4cjEWfSDhQ_pad-18"/><rect x="-875" y="-600" width="1750" height="1200" rx="600" ry="600" id="yfsNdYRm1qYU_pad-11"/><circle cx="0" cy="0" r="1850" id="yfsNdYRm1qYU_pad-12"/><circle cx="0" cy="0" r="650" id="yfsNdYRm1qYU_pad-13"/><rect x="-1750" y="-1750" width="3500" height="3500" id="yfsNdYRm1qYU_pad-14"/><rect x="-800" y="-800" width="1600" height="1600" rx="800" ry="800" id="yfsNdYRm1qYU_pad-15"/><rect x="-800" y="-800" width="1600" height="1600" id="yfsNdYRm1qYU_pad-16"/><rect x="-850" y="-850" width="1700" height="1700" rx="850" ry="850" id="yfsNdYRm1qYU_pad-17"/><rect x="-850" y="-850" width="1700" height="1700" id="yfsNdYRm1qYU_pad-18"/><circle cx="0" cy="0" r="72.85" id="wwSawrkNJmrD_pad-1"/><circle cx="0" cy="0" r="7.85" id="r36t4XVUSciL_pad-1"/><circle cx="0" cy="0" r="14.75" id="r36t4XVUSciL_pad-2"/><circle cx="0" cy="0" r="15.75" id="r36t4XVUSciL_pad-3"/><circle cx="0" cy="0" r="19.7" id="r36t4XVUSciL_pad-4"/><g id="wOxEQmdHNPy2_bottom_copper"><path d="M 121920 -85090 A 2540 2540 0 0 0 119380 -82550 M 165100 -78740 88900 -78740 M 119380 -82550 A 2540 2540 0 0 0 121920 -80010 M 132080 -80010 A 2540 2540 0 0 0 134620 -82550 2540 2540 0 0 0 132080 -85090 M 132080 -80010 121920 -80010 M 132080 -85090 121920 -85090 M 165100 -109220 88900 -109220 M 86360 -81280 86360 -106680 M 167640 -106680 167640 -81280 M 86360 -81280 A 2540 2540 0 0 0 88900 -78740 M 88900 -109220 A 2540 2540 0 0 0 86360 -106680 M 167640 -106680 A 2540 2540 0 0 0 165100 -109220 M 165100 -78740 A 2540 2540 0 0 0 167640 -81280" fill="none" stroke-width="100"/><use xlink:href="#kU4cjEWfSDhQ_pad-11" x="161290" y="-84900"/><use xlink:href="#kU4cjEWfSDhQ_pad-11" x="161290" y="-86900"/><use xlink:href="#kU4cjEWfSDhQ_pad-11" x="161290" y="-88900"/><path d="M 161915.001 -91500 160664.999 -91500 A 249.999 249.999 0 0 0 160415 -91250.001 L 160415 -90549.999 A 249.999 249.999 0 0 0 160664.999 -90300 L 161915.001 -90300 A 249.999 249.999 0 0 0 162165 -90549.999 L 162165 -91250.001 A 249.999 249.999 0 0 0 161915.001 -91500"/><path d="M 155565.001 -91582 154314.999 -91582 A 249.999 249.999 0 0 0 154065 -91332.001 L 154065 -90531.999 A 249.999 249.999 0 0 0 154314.999 -90282 L 155565.001 -90282 A 249.999 249.999 0 0 0 155815 -90531.999 L 155815 -91332.001 A 249.999 249.999 0 0 0 155565.001 -91582"/><path d="M 155565.001 -94682 154314.999 -94682 A 249.999 249.999 0 0 0 154065 -94432.001 L 154065 -93631.999 A 249.999 249.999 0 0 0 154314.999 -93382 L 155565.001 -93382 A 249.999 249.999 0 0 0 155815 -93631.999 L 155815 -94432.001 A 249.999 249.999 0 0 0 155565.001 -94682"/><path d="M 101970 -79384.999 101970 -80635.001 A 249.999 249.999 0 0 0 101720.001 -80885 L 100919.999 -80885 A 249.999 249.999 0 0 0 100670 -80635.001 L 100670 -79384.999 A 249.999 249.999 0 0 0 100919.999 -79135 L 101720.001 -79135 A 249.999 249.999 0 0 0 101970 -79384.999"/><path d="M 105070 -79384.999 105070 -80635.001 A 249.999 249.999 0 0 0 104820.001 -80885 L 104019.999 -80885 A 249.999 249.999 0 0 0 103770 -80635.001 L 103770 -79384.999 A 249.999 249.999 0 0 0 104019.999 -79135 L 104820.001 -79135 A 249.999 249.999 0 0 0 105070 -79384.999"/><path d="M 155565.001 -86450 154314.999 -86450 A 249.999 249.999 0 0 0 154065 -86200.001 L 154065 -85399.999 A 249.999 249.999 0 0 0 154314.999 -85150 L 155565.001 -85150 A 249.999 249.999 0 0 0 155815 -85399.999 L 155815 -86200.001 A 249.999 249.999 0 0 0 155565.001 -86450"/><path d="M 155565.001 -89550 154314.999 -89550 A 249.999 249.999 0 0 0 154065 -89300.001 L 154065 -88499.999 A 249.999 249.999 0 0 0 154314.999 -88250 L 155565.001 -88250 A 249.999 249.999 0 0 0 155815 -88499.999 L 155815 -89300.001 A 249.999 249.999 0 0 0 155565.001 -89550"/><use xlink:href="#kU4cjEWfSDhQ_pad-12" x="140970" y="-89535"/><use xlink:href="#kU4cjEWfSDhQ_pad-12" x="138430" y="-89535"/><use xlink:href="#kU4cjEWfSDhQ_pad-12" x="133350" y="-89535"/><use xlink:href="#kU4cjEWfSDhQ_pad-12" x="115570" y="-89535"/><use xlink:href="#kU4cjEWfSDhQ_pad-12" x="113030" y="-89535"/><use xlink:href="#kU4cjEWfSDhQ_pad-12" x="113030" y="-104775"/><use xlink:href="#kU4cjEWfSDhQ_pad-12" x="115570" y="-104775"/><use xlink:href="#kU4cjEWfSDhQ_pad-12" x="138430" y="-104775"/><use xlink:href="#kU4cjEWfSDhQ_pad-12" x="140970" y="-104775"/><use xlink:href="#kU4cjEWfSDhQ_pad-13" x="95250" y="-101600"/><path d="M 87750 -102600 87750 -100600 A 750 750 0 0 0 88500 -99850 L 90000 -99850 A 750 750 0 0 0 90750 -100600 L 90750 -102600 A 750 750 0 0 0 90000 -103350 L 88500 -103350 A 750 750 0 0 0 87750 -102600"/><path d="M 90500 -107175 90500 -105425 A 875 875 0 0 0 91375 -104550 L 93125 -104550 A 875 875 0 0 0 94000 -105425 L 94000 -107175 A 875 875 0 0 0 93125 -108050 L 91375 -108050 A 875 875 0 0 0 90500 -107175"/><path d="M 163500 -96025 163500 -97775 A 875 875 0 0 0 162625 -98650 L 160875 -98650 A 875 875 0 0 0 160000 -97775 L 160000 -96025 A 875 875 0 0 0 160875 -95150 L 162625 -95150 A 875 875 0 0 0 163500 -96025"/><path d="M 166250 -100600 166250 -102600 A 750 750 0 0 0 165500 -103350 L 164000 -103350 A 750 750 0 0 0 163250 -102600 L 163250 -100600 A 750 750 0 0 0 164000 -99850 L 165500 -99850 A 750 750 0 0 0 166250 -100600"/><use xlink:href="#kU4cjEWfSDhQ_pad-13" x="158750" y="-101600"/><use xlink:href="#kU4cjEWfSDhQ_pad-11" x="92710" y="-90900"/><use xlink:href="#kU4cjEWfSDhQ_pad-11" x="92710" y="-88900"/><use xlink:href="#kU4cjEWfSDhQ_pad-11" x="92710" y="-86900"/><path d="M 92084.999 -84300 93335.001 -84300 A 249.999 249.999 0 0 0 93585 -84549.999 L 93585 -85250.001 A 249.999 249.999 0 0 0 93335.001 -85500 L 92084.999 -85500 A 249.999 249.999 0 0 0 91835 -85250.001 L 91835 -84549.999 A 249.999 249.999 0 0 0 92084.999 -84300"/><use xlink:href="#kU4cjEWfSDhQ_pad-14" x="106680" y="-82550"/><use xlink:href="#kU4cjEWfSDhQ_pad-14" x="99060" y="-90170"/><use xlink:href="#kU4cjEWfSDhQ_pad-14" x="106680" y="-85090"/><use xlink:href="#kU4cjEWfSDhQ_pad-14" x="99060" y="-87630"/><use xlink:href="#kU4cjEWfSDhQ_pad-14" x="106680" y="-87630"/><use xlink:href="#kU4cjEWfSDhQ_pad-14" x="99060" y="-85090"/><use xlink:href="#kU4cjEWfSDhQ_pad-14" x="106680" y="-90170"/><use xlink:href="#kU4cjEWfSDhQ_pad-15" x="99060" y="-82550"/><use xlink:href="#kU4cjEWfSDhQ_pad-16" x="146050" y="-99060"/><use xlink:href="#kU4cjEWfSDhQ_pad-16" x="146050" y="-101600"/><use xlink:href="#kU4cjEWfSDhQ_pad-16" x="146050" y="-104140"/><use xlink:href="#kU4cjEWfSDhQ_pad-17" x="146050" y="-106680"/><use xlink:href="#kU4cjEWfSDhQ_pad-17" x="113030" y="-82550"/><use xlink:href="#kU4cjEWfSDhQ_pad-16" x="115570" y="-82550"/><use xlink:href="#kU4cjEWfSDhQ_pad-18" x="135890" y="-87630"/><use xlink:href="#kU4cjEWfSDhQ_pad-18" x="157480" y="-92710"/><use xlink:href="#kU4cjEWfSDhQ_pad-18" x="157480" y="-85090"/><use xlink:href="#kU4cjEWfSDhQ_pad-18" x="106680" y="-95250"/><use xlink:href="#kU4cjEWfSDhQ_pad-18" x="109220" y="-96520"/><use xlink:href="#kU4cjEWfSDhQ_pad-18" x="106680" y="-97790"/><use xlink:href="#kU4cjEWfSDhQ_pad-18" x="128270" y="-97790"/><use xlink:href="#kU4cjEWfSDhQ_pad-18" x="121920" y="-99060"/><path d="M 144780 -104140 146050 -104140 M 142240 -106680 144780 -104140 M 100330 -106680 142240 -106680 M 95250 -101600 100330 -106680 M 146050 -104140 147320 -104140 149860 -106680 156210 -106680 158750 -104140 158750 -101600 M 135890 -87630 113030 -87630 M 107950 -82550 106680 -82550 M 113030 -87630 107950 -82550 M 156158 -94032 154940 -94032 M 157480 -92710 156158 -94032 M 156770 -85800 157480 -85090 M 154940 -85800 156770 -85800 M 106680 -82270 104420 -80010 M 106680 -82550 106680 -82270 M 149860 -88900 161290 -88900 M 143510 -95250 149860 -88900 M 88900 -93980 90170 -95250 M 88900 -88900 88900 -93980 M 90900 -86900 88900 -88900 M 92710 -86900 90900 -86900 M 106680 -95250 143510 -95250 M 90170 -95250 106680 -95250 M 92710 -84900 92710 -85090 M 150400 -90900 161290 -90900 M 144779.991 -96520.009 150400 -90900 M 87630 -95250 88900.009 -96520.009 M 87630 -87630 87630 -95250 M 90360 -84900 87630 -87630 M 92710 -84900 90360 -84900 M 109220 -96520 144779.982 -96520 M 88900 -96520 109220 -96520 M 99060 -87630 100330 -87630 101600 -88900 101600 -91440 102870 -92710 132080 -92710 M 133350 -91440 133350 -89535 M 132080 -92710 133350 -91440 M 145523.918 -99060 146050 -99060 M 144253.918 -97790 145523.918 -99060 M 134620 -97790 144253.918 -97790 M 128270 -97790 134620 -97790 M 106680 -97790 128270 -97790 M 142240 -93980 149320 -86900 M 91440 -93980 142240 -93980 M 91440 -88900 90170 -90170 M 92710 -88900 91440 -88900 M 91440 -93980 90170 -92710 90170 -90170 M 149320 -86900 149225 -86995 M 162020 -86900 161290 -86900 M 163830 -85090 162020 -86900 M 163830 -83820 163830 -85090 M 162560 -82550 163830 -83820 M 153670 -82550 162560 -82550 M 149320 -86900 153670 -82550 M 115570 -104775 113030 -104775 M 121920 -99060 121920 -100330 M 117475 -104775 115570 -104775 M 121920 -100330 117475 -104775 M 101320 -80290 99060 -82550 M 101320 -80010 101320 -80290" fill="none" stroke-width="889"/><path d="M 88099.178 -97245.821 88132.985 -97287.015 88174.179 -97320.822 88174.184 -97320.827 88297.369 -97421.923 88484.904 -97522.162 88688.39 -97583.889 88900.009 -97604.732 88953.129 -97599.5 105614.04 -97599.5 105595.277 -97790 105616.12 -98001.619 105677.847 -98205.106 105778.086 -98392.64 105912.985 -98557.015 106077.36 -98691.914 106264.894 -98792.153 106468.381 -98853.88 106626.971 -98869.5 120854.04 -98869.5 120840.5 -99006.972 120840.5 -99882.857 117027.858 -103695.5 116267.354 -103695.5 116178.676 -103636.247 115944.821 -103539.381 115696.561 -103490 115443.439 -103490 115195.179 -103539.381 114961.324 -103636.247 114872.646 -103695.5 113727.354 -103695.5 113638.676 -103636.247 113404.821 -103539.381 113156.561 -103490 112903.439 -103490 112655.179 -103539.381 112421.324 -103636.247 112210.86 -103776.875 112031.875 -103955.86 111891.247 -104166.324 111794.381 -104400.179 111745 -104648.439 111745 -104901.561 111794.381 -105149.821 111891.247 -105383.676 112031.875 -105594.14 112038.235 -105600.5 100777.144 -105600.5 97638.072 -102461.429 97638.072 -101355.249 99115 -101355.249 99115 -101844.751 99210.497 -102324.848 99397.821 -102777.089 99669.774 -103184.095 100015.905 -103530.226 100422.911 -103802.179 100875.152 -103989.503 101355.249 -104085 101844.751 -104085 102324.848 -103989.503 102777.089 -103802.179 103184.095 -103530.226 103530.226 -103184.095 103802.179 -102777.089 103989.503 -102324.848 104085 -101844.751 104085 -101355.249 103989.503 -100875.152 103802.179 -100422.911 103530.226 -100015.905 103184.095 -99669.774 102777.089 -99397.821 102324.848 -99210.497 101844.751 -99115 101355.249 -99115 100875.152 -99210.497 100422.911 -99397.821 100015.905 -99669.774 99669.774 -100015.905 99397.821 -100422.911 99210.497 -100875.152 99115 -101355.249 97638.072 -101355.249 97638.072 -99850 97625.812 -99725.518 97589.502 -99605.82 97530.537 -99495.506 97451.185 -99398.815 97354.494 -99319.463 97244.18 -99260.498 97124.482 -99224.188 97000 -99211.928 93500 -99211.928 93375.518 -99224.188 93255.82 -99260.498 93145.506 -99319.463 93048.815 -99398.815 92969.463 -99495.506 92910.498 -99605.82 92874.188 -99725.518 92861.928 -99850 92861.928 -103350 92874.188 -103474.482 92910.498 -103594.18 92969.463 -103704.494 93048.815 -103801.185 93145.506 -103880.537 93222.131 -103921.494 93125 -103911.928 91375 -103911.928 91079.814 -103941.001 90795.972 -104027.104 90534.382 -104166.927 90305.097 -104355.097 90116.927 -104584.382 89977.104 -104845.972 89891.001 -105129.814 89861.928 -105425 89861.928 -107175 89891.001 -107470.186 89977.104 -107754.028 90116.927 -108015.618 90305.097 -108244.903 90534.382 -108433.073 90725.074 -108535 88933.505 -108535 88540.333 -108496.449 88194.365 -108391.996 87875.276 -108222.333 87595.219 -107993.924 87364.859 -107715.466 87192.973 -107397.57 87086.106 -107052.34 87045 -106661.238 87045 -103350 87111.928 -103350 87124.188 -103474.482 87160.498 -103594.18 87219.463 -103704.494 87298.815 -103801.185 87395.506 -103880.537 87505.82 -103939.502 87625.518 -103975.812 87750 -103988.072 88964.25 -103985 89123 -103826.25 89123 -101727 89377 -101727 89377 -103826.25 89535.75 -103985 90750 -103988.072 90874.482 -103975.812 90994.18 -103939.502 91104.494 -103880.537 91201.185 -103801.185 91280.537 -103704.494 91339.502 -103594.18 91375.812 -103474.482 91388.072 -103350 91385 -101885.75 91226.25 -101727 89377 -101727 89123 -101727 87273.75 -101727 87115 -101885.75 87111.928 -103350 87045 -103350 87045 -99850 87111.928 -99850 87115 -101314.25 87273.75 -101473 89123 -101473 89123 -99373.75 89377 -99373.75 89377 -101473 91226.25 -101473 91385 -101314.25 91388.072 -99850 91375.812 -99725.518 91339.502 -99605.82 91280.537 -99495.506 91201.185 -99398.815 91104.494 -99319.463 90994.18 -99260.498 90874.482 -99224.188 90750 -99211.928 89535.75 -99215 89377 -99373.75 89123 -99373.75 88964.25 -99215 87750 -99211.928 87625.518 -99224.188 87505.82 -99260.498 87395.506 -99319.463 87298.815 -99398.815 87219.463 -99495.506 87160.498 -99605.82 87124.188 -99725.518 87111.928 -99850 87045 -99850 87045 -96191.642 88099.178 -97245.821" fill="none" stroke-width="254"/><path d="M 88099.178 -97245.821 88132.985 -97287.015 88174.179 -97320.822 88174.184 -97320.827 88297.369 -97421.923 88484.904 -97522.162 88688.39 -97583.889 88900.009 -97604.732 88953.129 -97599.5 105614.04 -97599.5 105595.277 -97790 105616.12 -98001.619 105677.847 -98205.106 105778.086 -98392.64 105912.985 -98557.015 106077.36 -98691.914 106264.894 -98792.153 106468.381 -98853.88 106626.971 -98869.5 120854.04 -98869.5 120840.5 -99006.972 120840.5 -99882.857 117027.858 -103695.5 116267.354 -103695.5 116178.676 -103636.247 115944.821 -103539.381 115696.561 -103490 115443.439 -103490 115195.179 -103539.381 114961.324 -103636.247 114872.646 -103695.5 113727.354 -103695.5 113638.676 -103636.247 113404.821 -103539.381 113156.561 -103490 112903.439 -103490 112655.179 -103539.381 112421.324 -103636.247 112210.86 -103776.875 112031.875 -103955.86 111891.247 -104166.324 111794.381 -104400.179 111745 -104648.439 111745 -104901.561 111794.381 -105149.821 111891.247 -105383.676 112031.875 -105594.14 112038.235 -105600.5 100777.144 -105600.5 97638.072 -102461.429 97638.072 -101355.249 99115 -101355.249 99115 -101844.751 99210.497 -102324.848 99397.821 -102777.089 99669.774 -103184.095 100015.905 -103530.226 100422.911 -103802.179 100875.152 -103989.503 101355.249 -104085 101844.751 -104085 102324.848 -103989.503 102777.089 -103802.179 103184.095 -103530.226 103530.226 -103184.095 103802.179 -102777.089 103989.503 -102324.848 104085 -101844.751 104085 -101355.249 103989.503 -100875.152 103802.179 -100422.911 103530.226 -100015.905 103184.095 -99669.774 102777.089 -99397.821 102324.848 -99210.497 101844.751 -99115 101355.249 -99115 100875.152 -99210.497 100422.911 -99397.821 100015.905 -99669.774 99669.774 -100015.905 99397.821 -100422.911 99210.497 -100875.152 99115 -101355.249 97638.072 -101355.249 97638.072 -99850 97625.812 -99725.518 97589.502 -99605.82 97530.537 -99495.506 97451.185 -99398.815 97354.494 -99319.463 97244.18 -99260.498 97124.482 -99224.188 97000 -99211.928 93500 -99211.928 93375.518 -99224.188 93255.82 -99260.498 93145.506 -99319.463 93048.815 -99398.815 92969.463 -99495.506 92910.498 -99605.82 92874.188 -99725.518 92861.928 -99850 92861.928 -103350 92874.188 -103474.482 92910.498 -103594.18 92969.463 -103704.494 93048.815 -103801.185 93145.506 -103880.537 93222.131 -103921.494 93125 -103911.928 91375 -103911.928 91079.814 -103941.001 90795.972 -104027.104 90534.382 -104166.927 90305.097 -104355.097 90116.927 -104584.382 89977.104 -104845.972 89891.001 -105129.814 89861.928 -105425 89861.928 -107175 89891.001 -107470.186 89977.104 -107754.028 90116.927 -108015.618 90305.097 -108244.903 90534.382 -108433.073 90725.074 -108535 88933.505 -108535 88540.333 -108496.449 88194.365 -108391.996 87875.276 -108222.333 87595.219 -107993.924 87364.859 -107715.466 87192.973 -107397.57 87086.106 -107052.34 87045 -106661.238 87045 -103350 87111.928 -103350 87124.188 -103474.482 87160.498 -103594.18 87219.463 -103704.494 87298.815 -103801.185 87395.506 -103880.537 87505.82 -103939.502 87625.518 -103975.812 87750 -103988.072 88964.25 -103985 89123 -103826.25 89123 -101727 89377 -101727 89377 -103826.25 89535.75 -103985 90750 -103988.072 90874.482 -103975.812 90994.18 -103939.502 91104.494 -103880.537 91201.185 -103801.185 91280.537 -103704.494 91339.502 -103594.18 91375.812 -103474.482 91388.072 -103350 91385 -101885.75 91226.25 -101727 89377 -101727 89123 -101727 87273.75 -101727 87115 -101885.75 87111.928 -103350 87045 -103350 87045 -99850 87111.928 -99850 87115 -101314.25 87273.75 -101473 89123 -101473 89123 -99373.75 89377 -99373.75 89377 -101473 91226.25 -101473 91385 -101314.25 91388.072 -99850 91375.812 -99725.518 91339.502 -99605.82 91280.537 -99495.506 91201.185 -99398.815 91104.494 -99319.463 90994.18 -99260.498 90874.482 -99224.188 90750 -99211.928 89535.75 -99215 89377 -99373.75 89123 -99373.75 88964.25 -99215 87750 -99211.928 87625.518 -99224.188 87505.82 -99260.498 87395.506 -99319.463 87298.815 -99398.815 87219.463 -99495.506 87160.498 -99605.82 87124.188 -99725.518 87111.928 -99850 87045 -99850 87045 -96191.642 88099.178 -97245.821"/><path d="M 120733.15 -79554.102 120675.896 -79578.17 120618.352 -79601.419 120609.907 -79605.909 120173.847 -79841.686 120122.384 -79876.398 120070.427 -79910.398 120063.015 -79916.443 119681.055 -80232.427 119637.308 -80276.481 119592.95 -80319.919 119586.853 -80327.289 119273.543 -80711.445 119239.192 -80763.148 119204.11 -80814.384 119199.561 -80822.797 118966.834 -81260.493 118943.171 -81317.903 118918.718 -81374.958 118915.889 -81384.094 118772.61 -81858.659 118760.548 -81919.577 118747.643 -81980.289 118746.643 -81989.8 118698.269 -82483.156 118698.269 -82513.086 118695.038 -82542.831 118695.004 -82552.395 118695.066 -82570.127 118698.09 -82599.896 118697.881 -82629.815 118698.814 -82639.334 118750.632 -83132.34 118763.109 -83193.121 118774.749 -83254.142 118777.513 -83263.298 118924.103 -83736.851 118948.167 -83794.097 118971.419 -83851.648 118975.907 -83860.089 118975.909 -83860.094 118975.912 -83860.098 119211.686 -84296.153 119246.398 -84347.616 119280.398 -84399.573 119286.443 -84406.985 119602.427 -84788.945 119646.5 -84832.712 119689.92 -84877.05 119697.289 -84883.147 120081.445 -85196.457 120133.148 -85230.808 120184.384 -85265.89 120192.797 -85270.439 120630.493 -85503.166 120687.882 -85526.82 120744.958 -85551.283 120754.095 -85554.111 121228.659 -85697.39 121289.577 -85709.452 121350.289 -85722.357 121359.801 -85723.357 121853.156 -85771.731 121853.163 -85771.731 121886.353 -85775 132113.647 -85775 132144.018 -85772.009 132159.815 -85772.119 132169.334 -85771.186 132662.34 -85719.368 132723.121 -85706.891 132784.142 -85695.251 132793.298 -85692.487 133266.851 -85545.897 133324.097 -85521.833 133381.648 -85498.581 133390.089 -85494.093 133390.094 -85494.091 133390.098 -85494.088 133826.153 -85258.314 133877.616 -85223.602 133929.573 -85189.602 133936.985 -85183.557 134318.945 -84867.573 134362.712 -84823.5 134407.05 -84780.08 134413.147 -84772.711 134726.457 -84388.555 134760.808 -84336.852 134795.89 -84285.616 134800.439 -84277.203 135033.166 -83839.507 135056.82 -83782.118 135081.283 -83725.042 135084.111 -83715.905 135227.39 -83241.341 135239.452 -83180.423 135252.357 -83119.711 135253.357 -83110.199 135301.731 -82616.844 135301.731 -82586.914 135304.962 -82557.169 135304.996 -82547.605 135304.934 -82529.873 135301.91 -82500.104 135302.119 -82470.185 135301.186 -82460.666 135249.369 -81967.66 135236.886 -81906.849 135225.251 -81845.858 135222.487 -81836.702 135075.898 -81363.15 135051.83 -81305.896 135028.581 -81248.352 135024.091 -81239.907 134788.314 -80803.847 134753.602 -80752.384 134719.602 -80700.427 134713.557 -80693.015 134397.573 -80311.055 134353.519 -80267.308 134310.081 -80222.95 134302.711 -80216.853 133918.555 -79903.543 133866.852 -79869.192 133815.616 -79834.11 133807.203 -79829.561 133369.507 -79596.834 133312.097 -79573.171 133255.042 -79548.718 133245.906 -79545.889 132845.501 -79425 165066.496 -79425 165459.668 -79463.551 165805.634 -79568.004 166124.724 -79737.667 166404.781 -79966.076 166635.141 -80244.534 166807.027 -80562.43 166913.893 -80907.658 166955.001 -81298.763 166955 -106646.495 166916.449 -107039.667 166811.996 -107385.635 166642.333 -107704.724 166413.924 -107984.781 166135.466 -108215.141 165817.57 -108387.027 165472.34 -108493.894 165081.238 -108535 93774.926 -108535 93965.618 -108433.073 94194.903 -108244.903 94383.073 -108015.618 94522.896 -107754.028 94608.999 -107470.186 94638.072 -107175 94638.072 -105425 94608.999 -105129.814 94522.896 -104845.972 94383.073 -104584.382 94194.903 -104355.097 93965.618 -104166.927 93704.028 -104027.104 93575.357 -103988.072 96111.429 -103988.072 99529.182 -107405.826 99562.985 -107447.015 99604.174 -107480.818 99604.175 -107480.819 99690.627 -107551.768 99727.36 -107581.914 99914.894 -107682.153 100092.048 -107735.892 100118.381 -107743.88 100330 -107764.723 100383.029 -107759.5 142186.971 -107759.5 142240 -107764.723 142293.029 -107759.5 142451.619 -107743.88 142655.106 -107682.153 142842.64 -107581.914 142905.897 -107530 144561.928 -107530 144574.188 -107654.482 144610.498 -107774.18 144669.463 -107884.494 144748.815 -107981.185 144845.506 -108060.537 144955.82 -108119.502 145075.518 -108155.812 145200 -108168.072 145764.25 -108165 145923 -108006.25 145923 -106807 146177 -106807 146177 -108006.25 146335.75 -108165 146900 -108168.072 147024.482 -108155.812 147144.18 -108119.502 147254.494 -108060.537 147351.185 -107981.185 147430.537 -107884.494 147489.502 -107774.18 147525.812 -107654.482 147538.072 -107530 147535 -106965.75 147376.25 -106807 146177 -106807 145923 -106807 144723.75 -106807 144565 -106965.75 144561.928 -107530 142905.897 -107530 143007.015 -107447.015 143040.827 -107405.815 144562.224 -105884.418 144565 -106394.25 144723.75 -106553 145923 -106553 145923 -106533 146177 -106533 146177 -106553 147376.25 -106553 147535 -106394.25 147537.776 -105884.418 149059.178 -107405.821 149092.985 -107447.015 149257.36 -107581.914 149444.894 -107682.153 149648.381 -107743.88 149806.971 -107759.5 149806.978 -107759.5 149859.999 -107764.722 149913.021 -107759.5 156156.971 -107759.5 156210 -107764.723 156263.029 -107759.5 156421.619 -107743.88 156625.106 -107682.153 156812.64 -107581.914 156977.015 -107447.015 157010.827 -107405.815 159475.821 -104940.822 159517.015 -104907.015 159651.914 -104742.64 159752.153 -104555.106 159813.88 -104351.619 159829.5 -104193.029 159829.5 -104193.022 159834.722 -104140.001 159829.5 -104086.979 159829.5 -103988.072 160500 -103988.072 160624.482 -103975.812 160744.18 -103939.502 160854.494 -103880.537 160951.185 -103801.185 161030.537 -103704.494 161089.502 -103594.18 161125.812 -103474.482 161138.072 -103350 162611.928 -103350 162624.188 -103474.482 162660.498 -103594.18 162719.463 -103704.494 162798.815 -103801.185 162895.506 -103880.537 163005.82 -103939.502 163125.518 -103975.812 163250 -103988.072 164464.25 -103985 164623 -103826.25 164623 -101727 164877 -101727 164877 -103826.25 165035.75 -103985 166250 -103988.072 166374.482 -103975.812 166494.18 -103939.502 166604.494 -103880.537 166701.185 -103801.185 166780.537 -103704.494 166839.502 -103594.18 166875.812 -103474.482 166888.072 -103350 166885 -101885.75 166726.25 -101727 164877 -101727 164623 -101727 162773.75 -101727 162615 -101885.75 162611.928 -103350 161138.072 -103350 161138.072 -99850 162611.928 -99850 162615 -101314.25 162773.75 -101473 164623 -101473 164623 -99373.75 164877 -99373.75 164877 -101473 166726.25 -101473 166885 -101314.25 166888.072 -99850 166875.812 -99725.518 166839.502 -99605.82 166780.537 -99495.506 166701.185 -99398.815 166604.494 -99319.463 166494.18 -99260.498 166374.482 -99224.188 166250 -99211.928 165035.75 -99215 164877 -99373.75 164623 -99373.75 164464.25 -99215 163250 -99211.928 163125.518 -99224.188 163005.82 -99260.498 162895.506 -99319.463 162798.815 -99398.815 162719.463 -99495.506 162660.498 -99605.82 162624.188 -99725.518 162611.928 -99850 161138.072 -99850 161125.812 -99725.518 161089.502 -99605.82 161030.537 -99495.506 160951.185 -99398.815 160854.494 -99319.463 160777.869 -99278.506 160875 -99288.072 162625 -99288.072 162920.186 -99258.999 163204.028 -99172.896 163465.618 -99033.073 163694.903 -98844.903 163883.073 -98615.618 164022.896 -98354.028 164108.999 -98070.186 164138.072 -97775 164138.072 -96025 164108.999 -95729.814 164022.896 -95445.972 163883.073 -95184.382 163694.903 -94955.097 163465.618 -94766.927 163204.028 -94627.104 162920.186 -94541.001 162625 -94511.928 160875 -94511.928 160579.814 -94541.001 160295.972 -94627.104 160034.382 -94766.927 159805.097 -94955.097 159616.927 -95184.382 159477.104 -95445.972 159391.001 -95729.814 159361.928 -96025 159361.928 -97775 159391.001 -98070.186 159477.104 -98354.028 159616.927 -98615.618 159805.097 -98844.903 160034.382 -99033.073 160295.972 -99172.896 160424.643 -99211.928 157000 -99211.928 156875.518 -99224.188 156755.82 -99260.498 156645.506 -99319.463 156548.815 -99398.815 156469.463 -99495.506 156410.498 -99605.82 156374.188 -99725.518 156361.928 -99850 156361.928 -103350 156374.188 -103474.482 156410.498 -103594.18 156469.463 -103704.494 156548.815 -103801.185 156645.506 -103880.537 156755.82 -103939.502 156875.518 -103975.812 157000 -103988.072 157375.285 -103988.072 155762.858 -105600.5 150307.143 -105600.5 148120.827 -103414.185 148087.015 -103372.985 147922.64 -103238.086 147735.106 -103137.847 147531.619 -103076.12 147373.029 -103060.5 147320 -103055.277 147266.971 -103060.5 147070.607 -103060.5 146996.632 -102986.525 146822.24 -102870 146996.632 -102753.475 147203.475 -102546.632 147365.99 -102303.411 147477.932 -102033.158 147535 -101746.26 147535 -101453.74 147515.409 -101355.249 149915 -101355.249 149915 -101844.751 150010.497 -102324.848 150197.821 -102777.089 150469.774 -103184.095 150815.905 -103530.226 151222.911 -103802.179 151675.152 -103989.503 152155.249 -104085 152644.751 -104085 153124.848 -103989.503 153577.089 -103802.179 153984.095 -103530.226 154330.226 -103184.095 154602.179 -102777.089 154789.503 -102324.848 154885 -101844.751 154885 -101355.249 154789.503 -100875.152 154602.179 -100422.911 154330.226 -100015.905 153984.095 -99669.774 153577.089 -99397.821 153124.848 -99210.497 152644.751 -99115 152155.249 -99115 151675.152 -99210.497 151222.911 -99397.821 150815.905 -99669.774 150469.774 -100015.905 150197.821 -100422.911 150010.497 -100875.152 149915 -101355.249 147515.409 -101355.249 147477.932 -101166.842 147365.99 -100896.589 147203.475 -100653.368 146996.632 -100446.525 146822.24 -100330 146996.632 -100213.475 147203.475 -100006.632 147365.99 -99763.411 147477.932 -99493.158 147535 -99206.26 147535 -98913.74 147477.932 -98626.842 147365.99 -98356.589 147203.475 -98113.368 146996.632 -97906.525 146753.411 -97744.01 146483.158 -97632.068 146196.26 -97575 145903.74 -97575 145621.668 -97631.108 145399.026 -97408.466 145505.815 -97320.827 145505.898 -97320.744 145546.997 -97287.015 145580.726 -97245.916 150847.143 -91979.5 153710.845 -91979.5 153821.613 -92070.405 153975.149 -92152.472 154141.745 -92203.008 154314.999 -92220.072 155565.001 -92220.072 155738.255 -92203.008 155904.851 -92152.472 156058.387 -92070.405 156169.155 -91979.5 156683.857 -91979.5 155864.17 -92799.188 155738.255 -92760.992 155565.001 -92743.928 154314.999 -92743.928 154141.745 -92760.992 153975.149 -92811.528 153821.613 -92893.595 153687.038 -93004.038 153576.595 -93138.613 153494.528 -93292.149 153443.992 -93458.745 153426.928 -93631.999 153426.928 -94432.001 153443.992 -94605.255 153494.528 -94771.851 153576.595 -94925.387 153687.038 -95059.962 153821.613 -95170.405 153975.149 -95252.472 154141.745 -95303.008 154314.999 -95320.072 155565.001 -95320.072 155738.255 -95303.008 155904.851 -95252.472 156058.387 -95170.405 156127.463 -95113.715 156158 -95116.723 156211.029 -95111.5 156369.619 -95095.88 156573.106 -95034.153 156760.64 -94933.914 156925.015 -94799.015 156958.826 -94757.816 158280.818 -93435.825 158381.913 -93312.64 158482.153 -93125.106 158543.88 -92921.619 158564.722 -92710.001 158543.88 -92498.382 158482.153 -92294.896 158381.913 -92107.361 158276.98 -91979.5 160160.762 -91979.5 160171.613 -91988.405 160325.149 -92070.472 160491.745 -92121.008 160664.999 -92138.072 161915.001 -92138.072 162088.255 -92121.008 162254.851 -92070.472 162408.387 -91988.405 162542.962 -91877.962 162653.405 -91743.387 162735.472 -91589.851 162786.008 -91423.255 162803.072 -91250.001 162803.072 -90549.999 162786.008 -90376.745 162735.472 -90210.149 162653.405 -90056.613 162542.962 -89922.038 162408.387 -89811.595 162403.889 -89809.191 162442.502 -89777.502 162596.833 -89589.449 162711.511 -89374.901 162782.13 -89142.102 162805.975 -88900 162782.13 -88657.898 162711.511 -88425.099 162596.833 -88210.551 162442.502 -88022.498 162333.44 -87932.993 162435.106 -87902.153 162622.64 -87801.914 162787.015 -87667.015 162820.826 -87625.816 164555.826 -85890.818 164597.015 -85857.015 164631.269 -85815.277 164731.914 -85692.64 164787.641 -85588.382 164832.153 -85505.106 164893.88 -85301.619 164909.5 -85143.029 164909.5 -85143.028 164914.723 -85090 164909.5 -85036.971 164909.5 -83873.021 164914.722 -83819.999 164909.5 -83766.978 164909.5 -83766.971 164893.88 -83608.381 164832.153 -83404.894 164731.914 -83217.36 164597.015 -83052.985 164555.821 -83019.178 163360.826 -81824.184 163327.015 -81782.985 163162.64 -81648.086 162975.106 -81547.847 162771.619 -81486.12 162613.029 -81470.5 162560 -81465.277 162506.971 -81470.5 153723.029 -81470.5 153670 -81465.277 153616.971 -81470.5 153458.381 -81486.12 153254.894 -81547.847 153067.36 -81648.086 152902.985 -81782.985 152869.178 -81824.179 148594.18 -86099.178 148594.175 -86099.182 141792.858 -92900.5 133416.142 -92900.5 134075.821 -92240.822 134117.015 -92207.015 134251.914 -92042.64 134352.153 -91855.106 134413.88 -91651.619 134429.5 -91493.029 134429.5 -91493.022 134434.722 -91440.001 134429.5 -91386.979 134429.5 -90232.354 134488.753 -90143.676 134585.619 -89909.821 134635 -89661.561 134635 -89408.439 137145 -89408.439 137145 -89661.561 137194.381 -89909.821 137291.247 -90143.676 137431.875 -90354.14 137610.86 -90533.125 137821.324 -90673.753 138055.179 -90770.619 138303.439 -90820 138556.561 -90820 138804.821 -90770.619 139038.676 -90673.753 139249.14 -90533.125 139428.125 -90354.14 139568.753 -90143.676 139665.619 -89909.821 139700 -89736.973 139734.381 -89909.821 139831.247 -90143.676 139971.875 -90354.14 140150.86 -90533.125 140361.324 -90673.753 140595.179 -90770.619 140843.439 -90820 141096.561 -90820 141344.821 -90770.619 141578.676 -90673.753 141789.14 -90533.125 141968.125 -90354.14 142108.753 -90143.676 142205.619 -89909.821 142255 -89661.561 142255 -89408.439 142205.619 -89160.179 142108.753 -88926.324 141968.125 -88715.86 141789.14 -88536.875 141578.676 -88396.247 141344.821 -88299.381 141096.561 -88250 140843.439 -88250 140595.179 -88299.381 140361.324 -88396.247 140150.86 -88536.875 139971.875 -88715.86 139831.247 -88926.324 139734.381 -89160.179 139700 -89333.027 139665.619 -89160.179 139568.753 -88926.324 139428.125 -88715.86 139249.14 -88536.875 139038.676 -88396.247 138804.821 -88299.381 138556.561 -88250 138303.439 -88250 138055.179 -88299.381 137821.324 -88396.247 137610.86 -88536.875 137431.875 -88715.86 137291.247 -88926.324 137194.381 -89160.179 137145 -89408.439 134635 -89408.439 134585.619 -89160.179 134488.753 -88926.324 134348.125 -88715.86 134341.765 -88709.5 135943.029 -88709.5 136101.619 -88693.88 136305.106 -88632.153 136492.64 -88531.914 136657.015 -88397.015 136791.914 -88232.64 136892.153 -88045.106 136953.88 -87841.619 136974.723 -87630 136953.88 -87418.381 136892.153 -87214.894 136791.914 -87027.36 136657.015 -86862.985 136492.64 -86728.086 136305.106 -86627.847 136101.619 -86566.12 135943.029 -86550.5 113477.144 -86550.5 108750.827 -81824.185 108717.015 -81782.985 108615.898 -81700 111541.928 -81700 111541.928 -83400 111554.188 -83524.482 111590.498 -83644.18 111649.463 -83754.494 111728.815 -83851.185 111825.506 -83930.537 111935.82 -83989.502 112055.518 -84025.812 112180 -84038.072 113880 -84038.072 114004.482 -84025.812 114124.18 -83989.502 114234.494 -83930.537 114331.185 -83851.185 114410.537 -83754.494 114469.502 -83644.18 114491.513 -83571.62 114623.368 -83703.475 114866.589 -83865.99 115136.842 -83977.932 115423.74 -84035 115716.26 -84035 116003.158 -83977.932 116273.411 -83865.99 116516.632 -83703.475 116723.475 -83496.632 116885.99 -83253.411 116997.932 -82983.158 117055 -82696.26 117055 -82403.74 116997.932 -82116.842 116885.99 -81846.589 116723.475 -81603.368 116516.632 -81396.525 116273.411 -81234.01 116003.158 -81122.068 115716.26 -81065 115423.74 -81065 115136.842 -81122.068 114866.589 -81234.01 114623.368 -81396.525 114491.513 -81528.38 114469.502 -81455.82 114410.537 -81345.506 114331.185 -81248.815 114234.494 -81169.463 114124.18 -81110.498 114004.482 -81074.188 113880 -81061.928 112180 -81061.928 112055.518 -81074.188 111935.82 -81110.498 111825.506 -81169.463 111728.815 -81248.815 111649.463 -81345.506 111590.498 -81455.82 111554.188 -81575.518 111541.928 -81700 108615.898 -81700 108552.64 -81648.086 108365.106 -81547.847 108161.619 -81486.12 108003.029 -81470.5 107950 -81465.277 107896.971 -81470.5 107629.896 -81470.5 107594.759 -81435.363 107359.727 -81278.32 107112.601 -81175.957 105708.072 -79771.43 105708.072 -79425 121150.211 -79425 120733.15 -79554.102" fill="none" stroke-width="254"/><path d="M 120733.15 -79554.102 120675.896 -79578.17 120618.352 -79601.419 120609.907 -79605.909 120173.847 -79841.686 120122.384 -79876.398 120070.427 -79910.398 120063.015 -79916.443 119681.055 -80232.427 119637.308 -80276.481 119592.95 -80319.919 119586.853 -80327.289 119273.543 -80711.445 119239.192 -80763.148 119204.11 -80814.384 119199.561 -80822.797 118966.834 -81260.493 118943.171 -81317.903 118918.718 -81374.958 118915.889 -81384.094 118772.61 -81858.659 118760.548 -81919.577 118747.643 -81980.289 118746.643 -81989.8 118698.269 -82483.156 118698.269 -82513.086 118695.038 -82542.831 118695.004 -82552.395 118695.066 -82570.127 118698.09 -82599.896 118697.881 -82629.815 118698.814 -82639.334 118750.632 -83132.34 118763.109 -83193.121 118774.749 -83254.142 118777.513 -83263.298 118924.103 -83736.851 118948.167 -83794.097 118971.419 -83851.648 118975.907 -83860.089 118975.909 -83860.094 118975.912 -83860.098 119211.686 -84296.153 119246.398 -84347.616 119280.398 -84399.573 119286.443 -84406.985 119602.427 -84788.945 119646.5 -84832.712 119689.92 -84877.05 119697.289 -84883.147 120081.445 -85196.457 120133.148 -85230.808 120184.384 -85265.89 120192.797 -85270.439 120630.493 -85503.166 120687.882 -85526.82 120744.958 -85551.283 120754.095 -85554.111 121228.659 -85697.39 121289.577 -85709.452 121350.289 -85722.357 121359.801 -85723.357 121853.156 -85771.731 121853.163 -85771.731 121886.353 -85775 132113.647 -85775 132144.018 -85772.009 132159.815 -85772.119 132169.334 -85771.186 132662.34 -85719.368 132723.121 -85706.891 132784.142 -85695.251 132793.298 -85692.487 133266.851 -85545.897 133324.097 -85521.833 133381.648 -85498.581 133390.089 -85494.093 133390.094 -85494.091 133390.098 -85494.088 133826.153 -85258.314 133877.616 -85223.602 133929.573 -85189.602 133936.985 -85183.557 134318.945 -84867.573 134362.712 -84823.5 134407.05 -84780.08 134413.147 -84772.711 134726.457 -84388.555 134760.808 -84336.852 134795.89 -84285.616 134800.439 -84277.203 135033.166 -83839.507 135056.82 -83782.118 135081.283 -83725.042 135084.111 -83715.905 135227.39 -83241.341 135239.452 -83180.423 135252.357 -83119.711 135253.357 -83110.199 135301.731 -82616.844 135301.731 -82586.914 135304.962 -82557.169 135304.996 -82547.605 135304.934 -82529.873 135301.91 -82500.104 135302.119 -82470.185 135301.186 -82460.666 135249.369 -81967.66 135236.886 -81906.849 135225.251 -81845.858 135222.487 -81836.702 135075.898 -81363.15 135051.83 -81305.896 135028.581 -81248.352 135024.091 -81239.907 134788.314 -80803.847 134753.602 -80752.384 134719.602 -80700.427 134713.557 -80693.015 134397.573 -80311.055 134353.519 -80267.308 134310.081 -80222.95 134302.711 -80216.853 133918.555 -79903.543 133866.852 -79869.192 133815.616 -79834.11 133807.203 -79829.561 133369.507 -79596.834 133312.097 -79573.171 133255.042 -79548.718 133245.906 -79545.889 132845.501 -79425 165066.496 -79425 165459.668 -79463.551 165805.634 -79568.004 166124.724 -79737.667 166404.781 -79966.076 166635.141 -80244.534 166807.027 -80562.43 166913.893 -80907.658 166955.001 -81298.763 166955 -106646.495 166916.449 -107039.667 166811.996 -107385.635 166642.333 -107704.724 166413.924 -107984.781 166135.466 -108215.141 165817.57 -108387.027 165472.34 -108493.894 165081.238 -108535 93774.926 -108535 93965.618 -108433.073 94194.903 -108244.903 94383.073 -108015.618 94522.896 -107754.028 94608.999 -107470.186 94638.072 -107175 94638.072 -105425 94608.999 -105129.814 94522.896 -104845.972 94383.073 -104584.382 94194.903 -104355.097 93965.618 -104166.927 93704.028 -104027.104 93575.357 -103988.072 96111.429 -103988.072 99529.182 -107405.826 99562.985 -107447.015 99604.174 -107480.818 99604.175 -107480.819 99690.627 -107551.768 99727.36 -107581.914 99914.894 -107682.153 100092.048 -107735.892 100118.381 -107743.88 100330 -107764.723 100383.029 -107759.5 142186.971 -107759.5 142240 -107764.723 142293.029 -107759.5 142451.619 -107743.88 142655.106 -107682.153 142842.64 -107581.914 142905.897 -107530 144561.928 -107530 144574.188 -107654.482 144610.498 -107774.18 144669.463 -107884.494 144748.815 -107981.185 144845.506 -108060.537 144955.82 -108119.502 145075.518 -108155.812 145200 -108168.072 145764.25 -108165 145923 -108006.25 145923 -106807 146177 -106807 146177 -108006.25 146335.75 -108165 146900 -108168.072 147024.482 -108155.812 147144.18 -108119.502 147254.494 -108060.537 147351.185 -107981.185 147430.537 -107884.494 147489.502 -107774.18 147525.812 -107654.482 147538.072 -107530 147535 -106965.75 147376.25 -106807 146177 -106807 145923 -106807 144723.75 -106807 144565 -106965.75 144561.928 -107530 142905.897 -107530 143007.015 -107447.015 143040.827 -107405.815 144562.224 -105884.418 144565 -106394.25 144723.75 -106553 145923 -106553 145923 -106533 146177 -106533 146177 -106553 147376.25 -106553 147535 -106394.25 147537.776 -105884.418 149059.178 -107405.821 149092.985 -107447.015 149257.36 -107581.914 149444.894 -107682.153 149648.381 -107743.88 149806.971 -107759.5 149806.978 -107759.5 149859.999 -107764.722 149913.021 -107759.5 156156.971 -107759.5 156210 -107764.723 156263.029 -107759.5 156421.619 -107743.88 156625.106 -107682.153 156812.64 -107581.914 156977.015 -107447.015 157010.827 -107405.815 159475.821 -104940.822 159517.015 -104907.015 159651.914 -104742.64 159752.153 -104555.106 159813.88 -104351.619 159829.5 -104193.029 159829.5 -104193.022 159834.722 -104140.001 159829.5 -104086.979 159829.5 -103988.072 160500 -103988.072 160624.482 -103975.812 160744.18 -103939.502 160854.494 -103880.537 160951.185 -103801.185 161030.537 -103704.494 161089.502 -103594.18 161125.812 -103474.482 161138.072 -103350 162611.928 -103350 162624.188 -103474.482 162660.498 -103594.18 162719.463 -103704.494 162798.815 -103801.185 162895.506 -103880.537 163005.82 -103939.502 163125.518 -103975.812 163250 -103988.072 164464.25 -103985 164623 -103826.25 164623 -101727 164877 -101727 164877 -103826.25 165035.75 -103985 166250 -103988.072 166374.482 -103975.812 166494.18 -103939.502 166604.494 -103880.537 166701.185 -103801.185 166780.537 -103704.494 166839.502 -103594.18 166875.812 -103474.482 166888.072 -103350 166885 -101885.75 166726.25 -101727 164877 -101727 164623 -101727 162773.75 -101727 162615 -101885.75 162611.928 -103350 161138.072 -103350 161138.072 -99850 162611.928 -99850 162615 -101314.25 162773.75 -101473 164623 -101473 164623 -99373.75 164877 -99373.75 164877 -101473 166726.25 -101473 166885 -101314.25 166888.072 -99850 166875.812 -99725.518 166839.502 -99605.82 166780.537 -99495.506 166701.185 -99398.815 166604.494 -99319.463 166494.18 -99260.498 166374.482 -99224.188 166250 -99211.928 165035.75 -99215 164877 -99373.75 164623 -99373.75 164464.25 -99215 163250 -99211.928 163125.518 -99224.188 163005.82 -99260.498 162895.506 -99319.463 162798.815 -99398.815 162719.463 -99495.506 162660.498 -99605.82 162624.188 -99725.518 162611.928 -99850 161138.072 -99850 161125.812 -99725.518 161089.502 -99605.82 161030.537 -99495.506 160951.185 -99398.815 160854.494 -99319.463 160777.869 -99278.506 160875 -99288.072 162625 -99288.072 162920.186 -99258.999 163204.028 -99172.896 163465.618 -99033.073 163694.903 -98844.903 163883.073 -98615.618 164022.896 -98354.028 164108.999 -98070.186 164138.072 -97775 164138.072 -96025 164108.999 -95729.814 164022.896 -95445.972 163883.073 -95184.382 163694.903 -94955.097 163465.618 -94766.927 163204.028 -94627.104 162920.186 -94541.001 162625 -94511.928 160875 -94511.928 160579.814 -94541.001 160295.972 -94627.104 160034.382 -94766.927 159805.097 -94955.097 159616.927 -95184.382 159477.104 -95445.972 159391.001 -95729.814 159361.928 -96025 159361.928 -97775 159391.001 -98070.186 159477.104 -98354.028 159616.927 -98615.618 159805.097 -98844.903 160034.382 -99033.073 160295.972 -99172.896 160424.643 -99211.928 157000 -99211.928 156875.518 -99224.188 156755.82 -99260.498 156645.506 -99319.463 156548.815 -99398.815 156469.463 -99495.506 156410.498 -99605.82 156374.188 -99725.518 156361.928 -99850 156361.928 -103350 156374.188 -103474.482 156410.498 -103594.18 156469.463 -103704.494 156548.815 -103801.185 156645.506 -103880.537 156755.82 -103939.502 156875.518 -103975.812 157000 -103988.072 157375.285 -103988.072 155762.858 -105600.5 150307.143 -105600.5 148120.827 -103414.185 148087.015 -103372.985 147922.64 -103238.086 147735.106 -103137.847 147531.619 -103076.12 147373.029 -103060.5 147320 -103055.277 147266.971 -103060.5 147070.607 -103060.5 146996.632 -102986.525 146822.24 -102870 146996.632 -102753.475 147203.475 -102546.632 147365.99 -102303.411 147477.932 -102033.158 147535 -101746.26 147535 -101453.74 147515.409 -101355.249 149915 -101355.249 149915 -101844.751 150010.497 -102324.848 150197.821 -102777.089 150469.774 -103184.095 150815.905 -103530.226 151222.911 -103802.179 151675.152 -103989.503 152155.249 -104085 152644.751 -104085 153124.848 -103989.503 153577.089 -103802.179 153984.095 -103530.226 154330.226 -103184.095 154602.179 -102777.089 154789.503 -102324.848 154885 -101844.751 154885 -101355.249 154789.503 -100875.152 154602.179 -100422.911 154330.226 -100015.905 153984.095 -99669.774 153577.089 -99397.821 153124.848 -99210.497 152644.751 -99115 152155.249 -99115 151675.152 -99210.497 151222.911 -99397.821 150815.905 -99669.774 150469.774 -100015.905 150197.821 -100422.911 150010.497 -100875.152 149915 -101355.249 147515.409 -101355.249 147477.932 -101166.842 147365.99 -100896.589 147203.475 -100653.368 146996.632 -100446.525 146822.24 -100330 146996.632 -100213.475 147203.475 -100006.632 147365.99 -99763.411 147477.932 -99493.158 147535 -99206.26 147535 -98913.74 147477.932 -98626.842 147365.99 -98356.589 147203.475 -98113.368 146996.632 -97906.525 146753.411 -97744.01 146483.158 -97632.068 146196.26 -97575 145903.74 -97575 145621.668 -97631.108 145399.026 -97408.466 145505.815 -97320.827 145505.898 -97320.744 145546.997 -97287.015 145580.726 -97245.916 150847.143 -91979.5 153710.845 -91979.5 153821.613 -92070.405 153975.149 -92152.472 154141.745 -92203.008 154314.999 -92220.072 155565.001 -92220.072 155738.255 -92203.008 155904.851 -92152.472 156058.387 -92070.405 156169.155 -91979.5 156683.857 -91979.5 155864.17 -92799.188 155738.255 -92760.992 155565.001 -92743.928 154314.999 -92743.928 154141.745 -92760.992 153975.149 -92811.528 153821.613 -92893.595 153687.038 -93004.038 153576.595 -93138.613 153494.528 -93292.149 153443.992 -93458.745 153426.928 -93631.999 153426.928 -94432.001 153443.992 -94605.255 153494.528 -94771.851 153576.595 -94925.387 153687.038 -95059.962 153821.613 -95170.405 153975.149 -95252.472 154141.745 -95303.008 154314.999 -95320.072 155565.001 -95320.072 155738.255 -95303.008 155904.851 -95252.472 156058.387 -95170.405 156127.463 -95113.715 156158 -95116.723 156211.029 -95111.5 156369.619 -95095.88 156573.106 -95034.153 156760.64 -94933.914 156925.015 -94799.015 156958.826 -94757.816 158280.818 -93435.825 158381.913 -93312.64 158482.153 -93125.106 158543.88 -92921.619 158564.722 -92710.001 158543.88 -92498.382 158482.153 -92294.896 158381.913 -92107.361 158276.98 -91979.5 160160.762 -91979.5 160171.613 -91988.405 160325.149 -92070.472 160491.745 -92121.008 160664.999 -92138.072 161915.001 -92138.072 162088.255 -92121.008 162254.851 -92070.472 162408.387 -91988.405 162542.962 -91877.962 162653.405 -91743.387 162735.472 -91589.851 162786.008 -91423.255 162803.072 -91250.001 162803.072 -90549.999 162786.008 -90376.745 162735.472 -90210.149 162653.405 -90056.613 162542.962 -89922.038 162408.387 -89811.595 162403.889 -89809.191 162442.502 -89777.502 162596.833 -89589.449 162711.511 -89374.901 162782.13 -89142.102 162805.975 -88900 162782.13 -88657.898 162711.511 -88425.099 162596.833 -88210.551 162442.502 -88022.498 162333.44 -87932.993 162435.106 -87902.153 162622.64 -87801.914 162787.015 -87667.015 162820.826 -87625.816 164555.826 -85890.818 164597.015 -85857.015 164631.269 -85815.277 164731.914 -85692.64 164787.641 -85588.382 164832.153 -85505.106 164893.88 -85301.619 164909.5 -85143.029 164909.5 -85143.028 164914.723 -85090 164909.5 -85036.971 164909.5 -83873.021 164914.722 -83819.999 164909.5 -83766.978 164909.5 -83766.971 164893.88 -83608.381 164832.153 -83404.894 164731.914 -83217.36 164597.015 -83052.985 164555.821 -83019.178 163360.826 -81824.184 163327.015 -81782.985 163162.64 -81648.086 162975.106 -81547.847 162771.619 -81486.12 162613.029 -81470.5 162560 -81465.277 162506.971 -81470.5 153723.029 -81470.5 153670 -81465.277 153616.971 -81470.5 153458.381 -81486.12 153254.894 -81547.847 153067.36 -81648.086 152902.985 -81782.985 152869.178 -81824.179 148594.18 -86099.178 148594.175 -86099.182 141792.858 -92900.5 133416.142 -92900.5 134075.821 -92240.822 134117.015 -92207.015 134251.914 -92042.64 134352.153 -91855.106 134413.88 -91651.619 134429.5 -91493.029 134429.5 -91493.022 134434.722 -91440.001 134429.5 -91386.979 134429.5 -90232.354 134488.753 -90143.676 134585.619 -89909.821 134635 -89661.561 134635 -89408.439 137145 -89408.439 137145 -89661.561 137194.381 -89909.821 137291.247 -90143.676 137431.875 -90354.14 137610.86 -90533.125 137821.324 -90673.753 138055.179 -90770.619 138303.439 -90820 138556.561 -90820 138804.821 -90770.619 139038.676 -90673.753 139249.14 -90533.125 139428.125 -90354.14 139568.753 -90143.676 139665.619 -89909.821 139700 -89736.973 139734.381 -89909.821 139831.247 -90143.676 139971.875 -90354.14 140150.86 -90533.125 140361.324 -90673.753 140595.179 -90770.619 140843.439 -90820 141096.561 -90820 141344.821 -90770.619 141578.676 -90673.753 141789.14 -90533.125 141968.125 -90354.14 142108.753 -90143.676 142205.619 -89909.821 142255 -89661.561 142255 -89408.439 142205.619 -89160.179 142108.753 -88926.324 141968.125 -88715.86 141789.14 -88536.875 141578.676 -88396.247 141344.821 -88299.381 141096.561 -88250 140843.439 -88250 140595.179 -88299.381 140361.324 -88396.247 140150.86 -88536.875 139971.875 -88715.86 139831.247 -88926.324 139734.381 -89160.179 139700 -89333.027 139665.619 -89160.179 139568.753 -88926.324 139428.125 -88715.86 139249.14 -88536.875 139038.676 -88396.247 138804.821 -88299.381 138556.561 -88250 138303.439 -88250 138055.179 -88299.381 137821.324 -88396.247 137610.86 -88536.875 137431.875 -88715.86 137291.247 -88926.324 137194.381 -89160.179 137145 -89408.439 134635 -89408.439 134585.619 -89160.179 134488.753 -88926.324 134348.125 -88715.86 134341.765 -88709.5 135943.029 -88709.5 136101.619 -88693.88 136305.106 -88632.153 136492.64 -88531.914 136657.015 -88397.015 136791.914 -88232.64 136892.153 -88045.106 136953.88 -87841.619 136974.723 -87630 136953.88 -87418.381 136892.153 -87214.894 136791.914 -87027.36 136657.015 -86862.985 136492.64 -86728.086 136305.106 -86627.847 136101.619 -86566.12 135943.029 -86550.5 113477.144 -86550.5 108750.827 -81824.185 108717.015 -81782.985 108615.898 -81700 111541.928 -81700 111541.928 -83400 111554.188 -83524.482 111590.498 -83644.18 111649.463 -83754.494 111728.815 -83851.185 111825.506 -83930.537 111935.82 -83989.502 112055.518 -84025.812 112180 -84038.072 113880 -84038.072 114004.482 -84025.812 114124.18 -83989.502 114234.494 -83930.537 114331.185 -83851.185 114410.537 -83754.494 114469.502 -83644.18 114491.513 -83571.62 114623.368 -83703.475 114866.589 -83865.99 115136.842 -83977.932 115423.74 -84035 115716.26 -84035 116003.158 -83977.932 116273.411 -83865.99 116516.632 -83703.475 116723.475 -83496.632 116885.99 -83253.411 116997.932 -82983.158 117055 -82696.26 117055 -82403.74 116997.932 -82116.842 116885.99 -81846.589 116723.475 -81603.368 116516.632 -81396.525 116273.411 -81234.01 116003.158 -81122.068 115716.26 -81065 115423.74 -81065 115136.842 -81122.068 114866.589 -81234.01 114623.368 -81396.525 114491.513 -81528.38 114469.502 -81455.82 114410.537 -81345.506 114331.185 -81248.815 114234.494 -81169.463 114124.18 -81110.498 114004.482 -81074.188 113880 -81061.928 112180 -81061.928 112055.518 -81074.188 111935.82 -81110.498 111825.506 -81169.463 111728.815 -81248.815 111649.463 -81345.506 111590.498 -81455.82 111554.188 -81575.518 111541.928 -81700 108615.898 -81700 108552.64 -81648.086 108365.106 -81547.847 108161.619 -81486.12 108003.029 -81470.5 107950 -81465.277 107896.971 -81470.5 107629.896 -81470.5 107594.759 -81435.363 107359.727 -81278.32 107112.601 -81175.957 105708.072 -79771.43 105708.072 -79425 121150.211 -79425 120733.15 -79554.102"/><path d="M 144723.096 -99785.821 144756.903 -99827.015 144800.313 -99862.641 144896.525 -100006.632 145103.368 -100213.475 145277.76 -100330 145103.368 -100446.525 144896.525 -100653.368 144734.01 -100896.589 144622.068 -101166.842 144565 -101453.74 144565 -101746.26 144622.068 -102033.158 144734.01 -102303.411 144896.525 -102546.632 145103.368 -102753.475 145277.76 -102870 145103.368 -102986.525 145029.393 -103060.5 144833.021 -103060.5 144779.999 -103055.278 144726.978 -103060.5 144726.971 -103060.5 144568.381 -103076.12 144364.894 -103137.847 144177.36 -103238.086 144012.985 -103372.985 143979.178 -103414.179 142185.282 -105208.076 142190.095 -105197.626 142249.102 -104951.476 142258.952 -104698.545 142219.27 -104448.551 142131.578 -104211.104 142084.201 -104122.466 141855.527 -104069.078 141149.605 -104775 141163.748 -104789.143 140984.143 -104968.748 140970 -104954.605 140955.858 -104968.748 140776.253 -104789.143 140790.395 -104775 140084.473 -104069.078 139855.799 -104122.466 139749.905 -104352.374 139698.224 -104567.962 139679.27 -104448.551 139591.578 -104211.104 139544.201 -104122.466 139315.527 -104069.078 138609.605 -104775 138623.748 -104789.143 138444.143 -104968.748 138430 -104954.605 138415.858 -104968.748 138236.253 -104789.143 138250.395 -104775 137544.473 -104069.078 137315.799 -104122.466 137209.905 -104352.374 137150.898 -104598.524 137141.048 -104851.455 137180.73 -105101.449 137268.422 -105338.896 137315.799 -105427.534 137544.471 -105480.921 137427.602 -105597.79 137430.312 -105600.5 118170.751 -105600.5 118242.015 -105542.015 118275.827 -105500.815 119887.169 -103889.473 137724.078 -103889.473 138430 -104595.395 139135.922 -103889.473 140264.078 -103889.473 140970 -104595.395 141675.922 -103889.473 141622.534 -103660.799 141392.626 -103554.905 141146.476 -103495.898 140893.545 -103486.048 140643.551 -103525.73 140406.104 -103613.422 140317.466 -103660.799 140264.078 -103889.473 139135.922 -103889.473 139082.534 -103660.799 138852.626 -103554.905 138606.476 -103495.898 138353.545 -103486.048 138103.551 -103525.73 137866.104 -103613.422 137777.466 -103660.799 137724.078 -103889.473 119887.169 -103889.473 122645.821 -101130.822 122687.015 -101097.015 122821.914 -100932.64 122922.153 -100745.106 122983.88 -100541.619 122999.5 -100383.029 122999.5 -100383.022 123004.722 -100330.001 122999.5 -100276.979 122999.5 -99006.971 122985.96 -98869.5 143806.776 -98869.5 144723.096 -99785.821" fill="none" stroke-width="254"/><path d="M 144723.096 -99785.821 144756.903 -99827.015 144800.313 -99862.641 144896.525 -100006.632 145103.368 -100213.475 145277.76 -100330 145103.368 -100446.525 144896.525 -100653.368 144734.01 -100896.589 144622.068 -101166.842 144565 -101453.74 144565 -101746.26 144622.068 -102033.158 144734.01 -102303.411 144896.525 -102546.632 145103.368 -102753.475 145277.76 -102870 145103.368 -102986.525 145029.393 -103060.5 144833.021 -103060.5 144779.999 -103055.278 144726.978 -103060.5 144726.971 -103060.5 144568.381 -103076.12 144364.894 -103137.847 144177.36 -103238.086 144012.985 -103372.985 143979.178 -103414.179 142185.282 -105208.076 142190.095 -105197.626 142249.102 -104951.476 142258.952 -104698.545 142219.27 -104448.551 142131.578 -104211.104 142084.201 -104122.466 141855.527 -104069.078 141149.605 -104775 141163.748 -104789.143 140984.143 -104968.748 140970 -104954.605 140955.858 -104968.748 140776.253 -104789.143 140790.395 -104775 140084.473 -104069.078 139855.799 -104122.466 139749.905 -104352.374 139698.224 -104567.962 139679.27 -104448.551 139591.578 -104211.104 139544.201 -104122.466 139315.527 -104069.078 138609.605 -104775 138623.748 -104789.143 138444.143 -104968.748 138430 -104954.605 138415.858 -104968.748 138236.253 -104789.143 138250.395 -104775 137544.473 -104069.078 137315.799 -104122.466 137209.905 -104352.374 137150.898 -104598.524 137141.048 -104851.455 137180.73 -105101.449 137268.422 -105338.896 137315.799 -105427.534 137544.471 -105480.921 137427.602 -105597.79 137430.312 -105600.5 118170.751 -105600.5 118242.015 -105542.015 118275.827 -105500.815 119887.169 -103889.473 137724.078 -103889.473 138430 -104595.395 139135.922 -103889.473 140264.078 -103889.473 140970 -104595.395 141675.922 -103889.473 141622.534 -103660.799 141392.626 -103554.905 141146.476 -103495.898 140893.545 -103486.048 140643.551 -103525.73 140406.104 -103613.422 140317.466 -103660.799 140264.078 -103889.473 139135.922 -103889.473 139082.534 -103660.799 138852.626 -103554.905 138606.476 -103495.898 138353.545 -103486.048 138103.551 -103525.73 137866.104 -103613.422 137777.466 -103660.799 137724.078 -103889.473 119887.169 -103889.473 122645.821 -101130.822 122687.015 -101097.015 122821.914 -100932.64 122922.153 -100745.106 122983.88 -100541.619 122999.5 -100383.029 122999.5 -100383.022 123004.722 -100330.001 122999.5 -100276.979 122999.5 -99006.971 122985.96 -98869.5 143806.776 -98869.5 144723.096 -99785.821"/><path d="M 100031.928 -80051.428 98971.429 -81111.928 98260 -81111.928 98135.518 -81124.188 98015.82 -81160.498 97905.506 -81219.463 97808.815 -81298.815 97729.463 -81395.506 97670.498 -81505.82 97634.188 -81625.518 97621.928 -81750 97621.928 -83350 97634.188 -83474.482 97670.498 -83594.18 97729.463 -83704.494 97808.815 -83801.185 97905.506 -83880.537 98015.82 -83939.502 98135.518 -83975.812 98143.961 -83976.643 97945.363 -84175.241 97788.32 -84410.273 97680.147 -84671.426 97625 -84948.665 97625 -85231.335 97680.147 -85508.574 97788.32 -85769.727 97945.363 -86004.759 98145.241 -86204.637 98377.759 -86360 98145.241 -86515.363 97945.363 -86715.241 97788.32 -86950.273 97680.147 -87211.426 97625 -87488.665 97625 -87771.335 97680.147 -88048.574 97788.32 -88309.727 97945.363 -88544.759 98145.241 -88744.637 98380.273 -88901.68 98390.865 -88906.067 98204.869 -89017.615 97996.481 -89206.586 97828.963 -89432.58 97708.754 -89686.913 97668.096 -89820.961 97790.085 -90043 98933 -90043 98933 -90023 99187 -90023 99187 -90043 100329.915 -90043 100451.904 -89820.961 100411.246 -89686.913 100291.037 -89432.58 100123.519 -89206.586 99915.131 -89017.615 99729.135 -88906.067 99739.727 -88901.68 99940.731 -88767.374 100520.5 -89347.143 100520.501 -91386.961 100515.277 -91440 100536.12 -91651.618 100597.847 -91855.104 100597.848 -91855.106 100698.087 -92042.64 100832.986 -92207.015 100874.18 -92240.822 101533.857 -92900.5 91887.143 -92900.5 91249.5 -92262.858 91249.5 -91265.28 91337.579 -91480.533 91471.922 -91683.474 91643.275 -91856.307 91845.054 -91992.39 92069.504 -92086.493 92308 -92135 92583 -92135 92583 -91027 92837 -91027 92837 -92135 93112 -92135 93350.496 -92086.493 93574.946 -91992.39 93776.725 -91856.307 93948.078 -91683.474 94082.421 -91480.533 94174.591 -91255.282 94178.462 -91217.609 94053.731 -91027 92837 -91027 92583 -91027 92563 -91027 92563 -90773 92583 -90773 92583 -90753 92837 -90753 92837 -90773 94053.731 -90773 94178.462 -90582.391 94174.591 -90544.718 94164.084 -90519.039 97668.096 -90519.039 97708.754 -90653.087 97828.963 -90907.42 97996.481 -91133.414 98204.869 -91322.385 98446.119 -91467.07 98710.96 -91561.909 98933 -91440.624 98933 -90297 99187 -90297 99187 -91440.624 99409.04 -91561.909 99673.881 -91467.07 99915.131 -91322.385 100123.519 -91133.414 100291.037 -90907.42 100411.246 -90653.087 100451.904 -90519.039 100329.915 -90297 99187 -90297 98933 -90297 97790.085 -90297 97668.096 -90519.039 94164.084 -90519.039 94082.421 -90319.467 93948.078 -90116.526 93776.725 -89943.693 93712.652 -89900.481 93862.502 -89777.502 94016.833 -89589.449 94131.511 -89374.901 94202.13 -89142.102 94225.975 -88900 94202.13 -88657.898 94131.511 -88425.099 94016.833 -88210.551 93862.502 -88022.498 93713.238 -87900 93862.502 -87777.502 94016.833 -87589.449 94131.511 -87374.901 94202.13 -87142.102 94225.975 -86900 94202.13 -86657.898 94131.511 -86425.099 94016.833 -86210.551 93862.502 -86022.498 93823.889 -85990.809 93828.387 -85988.405 93962.962 -85877.962 94073.405 -85743.387 94155.472 -85589.851 94206.008 -85423.255 94223.072 -85250.001 94223.072 -84549.999 94206.008 -84376.745 94155.472 -84210.149 94073.405 -84056.613 93962.962 -83922.038 93828.387 -83811.595 93674.851 -83729.528 93508.255 -83678.992 93335.001 -83661.928 92084.999 -83661.928 91911.745 -83678.992 91745.149 -83729.528 91591.613 -83811.595 91580.762 -83820.5 90413.021 -83820.5 90359.999 -83815.278 90306.978 -83820.5 90306.971 -83820.5 90148.381 -83836.12 89944.894 -83897.847 89757.36 -83998.086 89592.985 -84132.985 89559.178 -84174.179 87045 -86688.358 87045 -81313.504 87083.551 -80920.332 87188.004 -80574.366 87357.667 -80255.276 87586.076 -79975.219 87864.534 -79744.859 88182.43 -79572.973 88527.658 -79466.107 88918.753 -79425 100031.928 -79425 100031.928 -80051.428" fill="none" stroke-width="254"/><path d="M 100031.928 -80051.428 98971.429 -81111.928 98260 -81111.928 98135.518 -81124.188 98015.82 -81160.498 97905.506 -81219.463 97808.815 -81298.815 97729.463 -81395.506 97670.498 -81505.82 97634.188 -81625.518 97621.928 -81750 97621.928 -83350 97634.188 -83474.482 97670.498 -83594.18 97729.463 -83704.494 97808.815 -83801.185 97905.506 -83880.537 98015.82 -83939.502 98135.518 -83975.812 98143.961 -83976.643 97945.363 -84175.241 97788.32 -84410.273 97680.147 -84671.426 97625 -84948.665 97625 -85231.335 97680.147 -85508.574 97788.32 -85769.727 97945.363 -86004.759 98145.241 -86204.637 98377.759 -86360 98145.241 -86515.363 97945.363 -86715.241 97788.32 -86950.273 97680.147 -87211.426 97625 -87488.665 97625 -87771.335 97680.147 -88048.574 97788.32 -88309.727 97945.363 -88544.759 98145.241 -88744.637 98380.273 -88901.68 98390.865 -88906.067 98204.869 -89017.615 97996.481 -89206.586 97828.963 -89432.58 97708.754 -89686.913 97668.096 -89820.961 97790.085 -90043 98933 -90043 98933 -90023 99187 -90023 99187 -90043 100329.915 -90043 100451.904 -89820.961 100411.246 -89686.913 100291.037 -89432.58 100123.519 -89206.586 99915.131 -89017.615 99729.135 -88906.067 99739.727 -88901.68 99940.731 -88767.374 100520.5 -89347.143 100520.501 -91386.961 100515.277 -91440 100536.12 -91651.618 100597.847 -91855.104 100597.848 -91855.106 100698.087 -92042.64 100832.986 -92207.015 100874.18 -92240.822 101533.857 -92900.5 91887.143 -92900.5 91249.5 -92262.858 91249.5 -91265.28 91337.579 -91480.533 91471.922 -91683.474 91643.275 -91856.307 91845.054 -91992.39 92069.504 -92086.493 92308 -92135 92583 -92135 92583 -91027 92837 -91027 92837 -92135 93112 -92135 93350.496 -92086.493 93574.946 -91992.39 93776.725 -91856.307 93948.078 -91683.474 94082.421 -91480.533 94174.591 -91255.282 94178.462 -91217.609 94053.731 -91027 92837 -91027 92583 -91027 92563 -91027 92563 -90773 92583 -90773 92583 -90753 92837 -90753 92837 -90773 94053.731 -90773 94178.462 -90582.391 94174.591 -90544.718 94164.084 -90519.039 97668.096 -90519.039 97708.754 -90653.087 97828.963 -90907.42 97996.481 -91133.414 98204.869 -91322.385 98446.119 -91467.07 98710.96 -91561.909 98933 -91440.624 98933 -90297 99187 -90297 99187 -91440.624 99409.04 -91561.909 99673.881 -91467.07 99915.131 -91322.385 100123.519 -91133.414 100291.037 -90907.42 100411.246 -90653.087 100451.904 -90519.039 100329.915 -90297 99187 -90297 98933 -90297 97790.085 -90297 97668.096 -90519.039 94164.084 -90519.039 94082.421 -90319.467 93948.078 -90116.526 93776.725 -89943.693 93712.652 -89900.481 93862.502 -89777.502 94016.833 -89589.449 94131.511 -89374.901 94202.13 -89142.102 94225.975 -88900 94202.13 -88657.898 94131.511 -88425.099 94016.833 -88210.551 93862.502 -88022.498 93713.238 -87900 93862.502 -87777.502 94016.833 -87589.449 94131.511 -87374.901 94202.13 -87142.102 94225.975 -86900 94202.13 -86657.898 94131.511 -86425.099 94016.833 -86210.551 93862.502 -86022.498 93823.889 -85990.809 93828.387 -85988.405 93962.962 -85877.962 94073.405 -85743.387 94155.472 -85589.851 94206.008 -85423.255 94223.072 -85250.001 94223.072 -84549.999 94206.008 -84376.745 94155.472 -84210.149 94073.405 -84056.613 93962.962 -83922.038 93828.387 -83811.595 93674.851 -83729.528 93508.255 -83678.992 93335.001 -83661.928 92084.999 -83661.928 91911.745 -83678.992 91745.149 -83729.528 91591.613 -83811.595 91580.762 -83820.5 90413.021 -83820.5 90359.999 -83815.278 90306.978 -83820.5 90306.971 -83820.5 90148.381 -83836.12 89944.894 -83897.847 89757.36 -83998.086 89592.985 -84132.985 89559.178 -84174.179 87045 -86688.358 87045 -81313.504 87083.551 -80920.332 87188.004 -80574.366 87357.667 -80255.276 87586.076 -79975.219 87864.534 -79744.859 88182.43 -79572.973 88527.658 -79466.107 88918.753 -79425 100031.928 -79425 100031.928 -80051.428"/><path d="M 162750.5 -84267.143 162750.5 -84534.72 162662.421 -84319.467 162528.078 -84116.526 162356.725 -83943.693 162154.946 -83807.61 161930.496 -83713.507 161692 -83665 161417 -83665 161417 -84773 161437 -84773 161437 -85027 161417 -85027 161417 -85047 161163 -85047 161163 -85027 159946.269 -85027 159821.538 -85217.609 159825.409 -85255.282 159917.579 -85480.533 160051.922 -85683.474 160223.275 -85856.307 160287.348 -85899.519 160137.498 -86022.498 159983.167 -86210.551 159868.489 -86425.099 159797.87 -86657.898 159774.025 -86900 159797.87 -87142.102 159868.489 -87374.901 159983.167 -87589.449 160137.498 -87777.502 160189.891 -87820.5 156130.163 -87820.5 156058.387 -87761.595 155904.851 -87679.528 155738.255 -87628.992 155565.001 -87611.928 154314.999 -87611.928 154141.745 -87628.992 153975.149 -87679.528 153821.613 -87761.595 153749.837 -87820.5 149926.143 -87820.5 150120.818 -87625.825 150120.822 -87625.82 152346.643 -85399.999 153426.928 -85399.999 153426.928 -86200.001 153443.992 -86373.255 153494.528 -86539.851 153576.595 -86693.387 153687.038 -86827.962 153821.613 -86938.405 153975.149 -87020.472 154141.745 -87071.008 154314.999 -87088.072 155565.001 -87088.072 155738.255 -87071.008 155904.851 -87020.472 156058.387 -86938.405 156130.163 -86879.5 156716.971 -86879.5 156770 -86884.723 156823.029 -86879.5 156981.619 -86863.88 157185.106 -86802.153 157372.64 -86701.914 157537.015 -86567.015 157570.826 -86525.816 158280.819 -85815.824 158381.914 -85692.64 158482.153 -85505.105 158543.88 -85301.619 158564.723 -85090 158543.88 -84878.382 158482.153 -84674.895 158432.709 -84582.391 159821.538 -84582.391 159946.269 -84773 161163 -84773 161163 -83665 160888 -83665 160649.504 -83713.507 160425.054 -83807.61 160223.275 -83943.693 160051.922 -84116.526 159917.579 -84319.467 159825.409 -84544.718 159821.538 -84582.391 158432.709 -84582.391 158381.914 -84487.361 158247.015 -84322.985 158082.639 -84188.086 157895.105 -84087.847 157691.618 -84026.12 157480 -84005.277 157268.381 -84026.12 157064.895 -84087.847 156877.36 -84188.086 156754.176 -84289.181 156322.858 -84720.5 156130.163 -84720.5 156058.387 -84661.595 155904.851 -84579.528 155738.255 -84528.992 155565.001 -84511.928 154314.999 -84511.928 154141.745 -84528.992 153975.149 -84579.528 153821.613 -84661.595 153687.038 -84772.038 153576.595 -84906.613 153494.528 -85060.149 153443.992 -85226.745 153426.928 -85399.999 152346.643 -85399.999 154117.143 -83629.5 162112.858 -83629.5 162750.5 -84267.143" fill="none" stroke-width="254"/><path d="M 162750.5 -84267.143 162750.5 -84534.72 162662.421 -84319.467 162528.078 -84116.526 162356.725 -83943.693 162154.946 -83807.61 161930.496 -83713.507 161692 -83665 161417 -83665 161417 -84773 161437 -84773 161437 -85027 161417 -85027 161417 -85047 161163 -85047 161163 -85027 159946.269 -85027 159821.538 -85217.609 159825.409 -85255.282 159917.579 -85480.533 160051.922 -85683.474 160223.275 -85856.307 160287.348 -85899.519 160137.498 -86022.498 159983.167 -86210.551 159868.489 -86425.099 159797.87 -86657.898 159774.025 -86900 159797.87 -87142.102 159868.489 -87374.901 159983.167 -87589.449 160137.498 -87777.502 160189.891 -87820.5 156130.163 -87820.5 156058.387 -87761.595 155904.851 -87679.528 155738.255 -87628.992 155565.001 -87611.928 154314.999 -87611.928 154141.745 -87628.992 153975.149 -87679.528 153821.613 -87761.595 153749.837 -87820.5 149926.143 -87820.5 150120.818 -87625.825 150120.822 -87625.82 152346.643 -85399.999 153426.928 -85399.999 153426.928 -86200.001 153443.992 -86373.255 153494.528 -86539.851 153576.595 -86693.387 153687.038 -86827.962 153821.613 -86938.405 153975.149 -87020.472 154141.745 -87071.008 154314.999 -87088.072 155565.001 -87088.072 155738.255 -87071.008 155904.851 -87020.472 156058.387 -86938.405 156130.163 -86879.5 156716.971 -86879.5 156770 -86884.723 156823.029 -86879.5 156981.619 -86863.88 157185.106 -86802.153 157372.64 -86701.914 157537.015 -86567.015 157570.826 -86525.816 158280.819 -85815.824 158381.914 -85692.64 158482.153 -85505.105 158543.88 -85301.619 158564.723 -85090 158543.88 -84878.382 158482.153 -84674.895 158432.709 -84582.391 159821.538 -84582.391 159946.269 -84773 161163 -84773 161163 -83665 160888 -83665 160649.504 -83713.507 160425.054 -83807.61 160223.275 -83943.693 160051.922 -84116.526 159917.579 -84319.467 159825.409 -84544.718 159821.538 -84582.391 158432.709 -84582.391 158381.914 -84487.361 158247.015 -84322.985 158082.639 -84188.086 157895.105 -84087.847 157691.618 -84026.12 157480 -84005.277 157268.381 -84026.12 157064.895 -84087.847 156877.36 -84188.086 156754.176 -84289.181 156322.858 -84720.5 156130.163 -84720.5 156058.387 -84661.595 155904.851 -84579.528 155738.255 -84528.992 155565.001 -84511.928 154314.999 -84511.928 154141.745 -84528.992 153975.149 -84579.528 153821.613 -84661.595 153687.038 -84772.038 153576.595 -84906.613 153494.528 -85060.149 153443.992 -85226.745 153426.928 -85399.999 152346.643 -85399.999 154117.143 -83629.5 162112.858 -83629.5 162750.5 -84267.143"/></g><g id="wOxEQmdHNPy2_bottom_soldermask"><path d="M 121920 -85090 A 2540 2540 0 0 0 119380 -82550 M 165100 -78740 88900 -78740 M 119380 -82550 A 2540 2540 0 0 0 121920 -80010 M 132080 -80010 A 2540 2540 0 0 0 134620 -82550 2540 2540 0 0 0 132080 -85090 M 132080 -80010 121920 -80010 M 132080 -85090 121920 -85090 M 165100 -109220 88900 -109220 M 86360 -81280 86360 -106680 M 167640 -106680 167640 -81280 M 86360 -81280 A 2540 2540 0 0 0 88900 -78740 M 88900 -109220 A 2540 2540 0 0 0 86360 -106680 M 167640 -106680 A 2540 2540 0 0 0 165100 -109220 M 165100 -78740 A 2540 2540 0 0 0 167640 -81280" fill="none" stroke-width="100"/><use xlink:href="#yfsNdYRm1qYU_pad-11" x="161290" y="-84900"/><use xlink:href="#yfsNdYRm1qYU_pad-11" x="161290" y="-86900"/><use xlink:href="#yfsNdYRm1qYU_pad-11" x="161290" y="-88900"/><path d="M 161915.001 -91500 160664.999 -91500 A 249.999 249.999 0 0 0 160415 -91250.001 L 160415 -90549.999 A 249.999 249.999 0 0 0 160664.999 -90300 L 161915.001 -90300 A 249.999 249.999 0 0 0 162165 -90549.999 L 162165 -91250.001 A 249.999 249.999 0 0 0 161915.001 -91500"/><path d="M 155565.001 -91582 154314.999 -91582 A 249.999 249.999 0 0 0 154065 -91332.001 L 154065 -90531.999 A 249.999 249.999 0 0 0 154314.999 -90282 L 155565.001 -90282 A 249.999 249.999 0 0 0 155815 -90531.999 L 155815 -91332.001 A 249.999 249.999 0 0 0 155565.001 -91582"/><path d="M 155565.001 -94682 154314.999 -94682 A 249.999 249.999 0 0 0 154065 -94432.001 L 154065 -93631.999 A 249.999 249.999 0 0 0 154314.999 -93382 L 155565.001 -93382 A 249.999 249.999 0 0 0 155815 -93631.999 L 155815 -94432.001 A 249.999 249.999 0 0 0 155565.001 -94682"/><path d="M 101970 -79384.999 101970 -80635.001 A 249.999 249.999 0 0 0 101720.001 -80885 L 100919.999 -80885 A 249.999 249.999 0 0 0 100670 -80635.001 L 100670 -79384.999 A 249.999 249.999 0 0 0 100919.999 -79135 L 101720.001 -79135 A 249.999 249.999 0 0 0 101970 -79384.999"/><path d="M 105070 -79384.999 105070 -80635.001 A 249.999 249.999 0 0 0 104820.001 -80885 L 104019.999 -80885 A 249.999 249.999 0 0 0 103770 -80635.001 L 103770 -79384.999 A 249.999 249.999 0 0 0 104019.999 -79135 L 104820.001 -79135 A 249.999 249.999 0 0 0 105070 -79384.999"/><path d="M 155565.001 -86450 154314.999 -86450 A 249.999 249.999 0 0 0 154065 -86200.001 L 154065 -85399.999 A 249.999 249.999 0 0 0 154314.999 -85150 L 155565.001 -85150 A 249.999 249.999 0 0 0 155815 -85399.999 L 155815 -86200.001 A 249.999 249.999 0 0 0 155565.001 -86450"/><path d="M 155565.001 -89550 154314.999 -89550 A 249.999 249.999 0 0 0 154065 -89300.001 L 154065 -88499.999 A 249.999 249.999 0 0 0 154314.999 -88250 L 155565.001 -88250 A 249.999 249.999 0 0 0 155815 -88499.999 L 155815 -89300.001 A 249.999 249.999 0 0 0 155565.001 -89550"/><use xlink:href="#yfsNdYRm1qYU_pad-12" x="152400" y="-101600"/><use xlink:href="#yfsNdYRm1qYU_pad-12" x="101600" y="-101600"/><use xlink:href="#yfsNdYRm1qYU_pad-13" x="140970" y="-89535"/><use xlink:href="#yfsNdYRm1qYU_pad-13" x="138430" y="-89535"/><use xlink:href="#yfsNdYRm1qYU_pad-13" x="133350" y="-89535"/><use xlink:href="#yfsNdYRm1qYU_pad-13" x="115570" y="-89535"/><use xlink:href="#yfsNdYRm1qYU_pad-13" x="113030" y="-89535"/><use xlink:href="#yfsNdYRm1qYU_pad-13" x="113030" y="-104775"/><use xlink:href="#yfsNdYRm1qYU_pad-13" x="115570" y="-104775"/><use xlink:href="#yfsNdYRm1qYU_pad-13" x="138430" y="-104775"/><use xlink:href="#yfsNdYRm1qYU_pad-13" x="140970" y="-104775"/><use xlink:href="#yfsNdYRm1qYU_pad-14" x="95250" y="-101600"/><path d="M 87750 -102600 87750 -100600 A 750 750 0 0 0 88500 -99850 L 90000 -99850 A 750 750 0 0 0 90750 -100600 L 90750 -102600 A 750 750 0 0 0 90000 -103350 L 88500 -103350 A 750 750 0 0 0 87750 -102600"/><path d="M 90500 -107175 90500 -105425 A 875 875 0 0 0 91375 -104550 L 93125 -104550 A 875 875 0 0 0 94000 -105425 L 94000 -107175 A 875 875 0 0 0 93125 -108050 L 91375 -108050 A 875 875 0 0 0 90500 -107175"/><path d="M 163500 -96025 163500 -97775 A 875 875 0 0 0 162625 -98650 L 160875 -98650 A 875 875 0 0 0 160000 -97775 L 160000 -96025 A 875 875 0 0 0 160875 -95150 L 162625 -95150 A 875 875 0 0 0 163500 -96025"/><path d="M 166250 -100600 166250 -102600 A 750 750 0 0 0 165500 -103350 L 164000 -103350 A 750 750 0 0 0 163250 -102600 L 163250 -100600 A 750 750 0 0 0 164000 -99850 L 165500 -99850 A 750 750 0 0 0 166250 -100600"/><use xlink:href="#yfsNdYRm1qYU_pad-14" x="158750" y="-101600"/><use xlink:href="#yfsNdYRm1qYU_pad-11" x="92710" y="-90900"/><use xlink:href="#yfsNdYRm1qYU_pad-11" x="92710" y="-88900"/><use xlink:href="#yfsNdYRm1qYU_pad-11" x="92710" y="-86900"/><path d="M 92084.999 -84300 93335.001 -84300 A 249.999 249.999 0 0 0 93585 -84549.999 L 93585 -85250.001 A 249.999 249.999 0 0 0 93335.001 -85500 L 92084.999 -85500 A 249.999 249.999 0 0 0 91835 -85250.001 L 91835 -84549.999 A 249.999 249.999 0 0 0 92084.999 -84300"/><use xlink:href="#yfsNdYRm1qYU_pad-15" x="106680" y="-82550"/><use xlink:href="#yfsNdYRm1qYU_pad-15" x="99060" y="-90170"/><use xlink:href="#yfsNdYRm1qYU_pad-15" x="106680" y="-85090"/><use xlink:href="#yfsNdYRm1qYU_pad-15" x="99060" y="-87630"/><use xlink:href="#yfsNdYRm1qYU_pad-15" x="106680" y="-87630"/><use xlink:href="#yfsNdYRm1qYU_pad-15" x="99060" y="-85090"/><use xlink:href="#yfsNdYRm1qYU_pad-15" x="106680" y="-90170"/><use xlink:href="#yfsNdYRm1qYU_pad-16" x="99060" y="-82550"/><use xlink:href="#yfsNdYRm1qYU_pad-17" x="146050" y="-99060"/><use xlink:href="#yfsNdYRm1qYU_pad-17" x="146050" y="-101600"/><use xlink:href="#yfsNdYRm1qYU_pad-17" x="146050" y="-104140"/><use xlink:href="#yfsNdYRm1qYU_pad-18" x="146050" y="-106680"/><use xlink:href="#yfsNdYRm1qYU_pad-18" x="113030" y="-82550"/><use xlink:href="#yfsNdYRm1qYU_pad-17" x="115570" y="-82550"/></g><g id="wOxEQmdHNPy2_bottom_solderpaste"><path d="M 121920 -85090 A 2540 2540 0 0 0 119380 -82550 M 165100 -78740 88900 -78740 M 119380 -82550 A 2540 2540 0 0 0 121920 -80010 M 132080 -80010 A 2540 2540 0 0 0 134620 -82550 2540 2540 0 0 0 132080 -85090 M 132080 -80010 121920 -80010 M 132080 -85090 121920 -85090 M 165100 -109220 88900 -109220 M 86360 -81280 86360 -106680 M 167640 -106680 167640 -81280 M 86360 -81280 A 2540 2540 0 0 0 88900 -78740 M 88900 -109220 A 2540 2540 0 0 0 86360 -106680 M 167640 -106680 A 2540 2540 0 0 0 165100 -109220 M 165100 -78740 A 2540 2540 0 0 0 167640 -81280" fill="none" stroke-width="100"/><path d="M 155565.001 -91582 154314.999 -91582 A 249.999 249.999 0 0 0 154065 -91332.001 L 154065 -90531.999 A 249.999 249.999 0 0 0 154314.999 -90282 L 155565.001 -90282 A 249.999 249.999 0 0 0 155815 -90531.999 L 155815 -91332.001 A 249.999 249.999 0 0 0 155565.001 -91582"/><path d="M 155565.001 -94682 154314.999 -94682 A 249.999 249.999 0 0 0 154065 -94432.001 L 154065 -93631.999 A 249.999 249.999 0 0 0 154314.999 -93382 L 155565.001 -93382 A 249.999 249.999 0 0 0 155815 -93631.999 L 155815 -94432.001 A 249.999 249.999 0 0 0 155565.001 -94682"/><path d="M 101970 -79384.999 101970 -80635.001 A 249.999 249.999 0 0 0 101720.001 -80885 L 100919.999 -80885 A 249.999 249.999 0 0 0 100670 -80635.001 L 100670 -79384.999 A 249.999 249.999 0 0 0 100919.999 -79135 L 101720.001 -79135 A 249.999 249.999 0 0 0 101970 -79384.999"/><path d="M 105070 -79384.999 105070 -80635.001 A 249.999 249.999 0 0 0 104820.001 -80885 L 104019.999 -80885 A 249.999 249.999 0 0 0 103770 -80635.001 L 103770 -79384.999 A 249.999 249.999 0 0 0 104019.999 -79135 L 104820.001 -79135 A 249.999 249.999 0 0 0 105070 -79384.999"/><path d="M 155565.001 -86450 154314.999 -86450 A 249.999 249.999 0 0 0 154065 -86200.001 L 154065 -85399.999 A 249.999 249.999 0 0 0 154314.999 -85150 L 155565.001 -85150 A 249.999 249.999 0 0 0 155815 -85399.999 L 155815 -86200.001 A 249.999 249.999 0 0 0 155565.001 -86450"/><path d="M 155565.001 -89550 154314.999 -89550 A 249.999 249.999 0 0 0 154065 -89300.001 L 154065 -88499.999 A 249.999 249.999 0 0 0 154314.999 -88250 L 155565.001 -88250 A 249.999 249.999 0 0 0 155815 -88499.999 L 155815 -89300.001 A 249.999 249.999 0 0 0 155565.001 -89550"/></g><g id="wOxEQmdHNPy2_bottom_silkscreen"><path d="M 121920 -85090 A 2540 2540 0 0 0 119380 -82550 M 165100 -78740 88900 -78740 M 119380 -82550 A 2540 2540 0 0 0 121920 -80010 M 132080 -80010 A 2540 2540 0 0 0 134620 -82550 2540 2540 0 0 0 132080 -85090 M 132080 -80010 121920 -80010 M 132080 -85090 121920 -85090 M 165100 -109220 88900 -109220 M 86360 -81280 86360 -106680 M 167640 -106680 167640 -81280 M 86360 -81280 A 2540 2540 0 0 0 88900 -78740 M 88900 -109220 A 2540 2540 0 0 0 86360 -106680 M 167640 -106680 A 2540 2540 0 0 0 165100 -109220 M 165100 -78740 A 2540 2540 0 0 0 167640 -81280" fill="none" stroke-width="100"/><path d="M 147097.142 -82127.38 147430.476 -81651.19 M 147668.571 -82127.38 147668.571 -81127.38 147287.619 -81127.38 147192.38 -81175 147144.761 -81222.619 147097.142 -81317.857 147097.142 -81460.714 147144.761 -81555.952 147192.38 -81603.571 147287.619 -81651.19 147668.571 -81651.19 M 146668.571 -81603.571 146335.238 -81603.571 M 146192.38 -82127.38 146668.571 -82127.38 146668.571 -81127.38 146192.38 -81127.38 M 145906.666 -81127.38 145573.333 -82127.38 145240 -81127.38 M 144906.666 -82127.38 144906.666 -81127.38 M 144478.095 -82079.761 144335.238 -82127.38 144097.142 -82127.38 144001.904 -82079.761 143954.285 -82032.142 143906.666 -81936.904 143906.666 -81841.666 143954.285 -81746.428 144001.904 -81698.809 144097.142 -81651.19 144287.619 -81603.571 144382.857 -81555.952 144430.476 -81508.333 144478.095 -81413.095 144478.095 -81317.857 144430.476 -81222.619 144382.857 -81175 144287.619 -81127.38 144049.523 -81127.38 143906.666 -81175 M 143478.095 -82127.38 143478.095 -81127.38 M 142811.428 -81127.38 142620.952 -81127.38 142525.714 -81175 142430.476 -81270.238 142382.857 -81460.714 142382.857 -81794.047 142430.476 -81984.523 142525.714 -82079.761 142620.952 -82127.38 142811.428 -82127.38 142906.666 -82079.761 143001.904 -81984.523 143049.523 -81794.047 143049.523 -81460.714 143001.904 -81270.238 142906.666 -81175 142811.428 -81127.38 M 141954.285 -82127.38 141954.285 -81127.38 141382.857 -82127.38 141382.857 -81127.38 M 139620.952 -82127.38 140192.38 -82127.38 M 139906.666 -82127.38 139906.666 -81127.38 140001.904 -81270.238 140097.142 -81365.476 140192.38 -81413.095 M 139192.38 -82032.142 139144.761 -82079.761 139192.38 -82127.38 139240 -82079.761 139192.38 -82032.142 139192.38 -82127.38 M 138525.714 -81127.38 138430.476 -81127.38 138335.238 -81175 138287.619 -81222.619 138240 -81317.857 138192.38 -81508.333 138192.38 -81746.428 138240 -81936.904 138287.619 -82032.142 138335.238 -82079.761 138430.476 -82127.38 138525.714 -82127.38 138620.952 -82079.761 138668.571 -82032.142 138716.19 -81936.904 138763.809 -81746.428 138763.809 -81508.333 138716.19 -81317.857 138668.571 -81222.619 138620.952 -81175 138525.714 -81127.38 M 137763.809 -82032.142 137716.19 -82079.761 137763.809 -82127.38 137811.428 -82079.761 137763.809 -82032.142 137763.809 -82127.38 M 137097.142 -81127.38 137001.904 -81127.38 136906.666 -81175 136859.047 -81222.619 136811.428 -81317.857 136763.809 -81508.333 136763.809 -81746.428 136811.428 -81936.904 136859.047 -82032.142 136906.666 -82079.761 137001.904 -82127.38 137097.142 -82127.38 137192.38 -82079.761 137240 -82032.142 137287.619 -81936.904 137335.238 -81746.428 137335.238 -81508.333 137287.619 -81317.857 137240 -81222.619 137192.38 -81175 137097.142 -81127.38 M 147216.19 -82877.38 147216.19 -83591.666 147263.809 -83734.523 147359.047 -83829.761 147501.904 -83877.38 147597.142 -83877.38 M 146787.619 -83591.666 146311.428 -83591.666 M 146882.857 -83877.38 146549.523 -82877.38 146216.19 -83877.38 M 145882.857 -83877.38 145882.857 -82877.38 145311.428 -83877.38 145311.428 -82877.38 M 144835.238 -82877.38 144835.238 -83686.904 144787.619 -83782.142 144740 -83829.761 144644.761 -83877.38 144454.285 -83877.38 144359.047 -83829.761 144311.428 -83782.142 144263.809 -83686.904 144263.809 -82877.38 M 143835.238 -83591.666 143359.047 -83591.666 M 143930.476 -83877.38 143597.142 -82877.38 143263.809 -83877.38 M 142359.047 -83877.38 142692.38 -83401.19 M 142930.476 -83877.38 142930.476 -82877.38 142549.523 -82877.38 142454.285 -82925 142406.666 -82972.619 142359.047 -83067.857 142359.047 -83210.714 142406.666 -83305.952 142454.285 -83353.571 142549.523 -83401.19 142930.476 -83401.19 M 141740 -83401.19 141740 -83877.38 M 142073.333 -82877.38 141740 -83401.19 141406.666 -82877.38 M 140359.047 -82972.619 140311.428 -82925 140216.19 -82877.38 139978.095 -82877.38 139882.857 -82925 139835.238 -82972.619 139787.619 -83067.857 139787.619 -83163.095 139835.238 -83305.952 140406.666 -83877.38 139787.619 -83877.38 M 139168.571 -82877.38 139073.333 -82877.38 138978.095 -82925 138930.476 -82972.619 138882.857 -83067.857 138835.238 -83258.333 138835.238 -83496.428 138882.857 -83686.904 138930.476 -83782.142 138978.095 -83829.761 139073.333 -83877.38 139168.571 -83877.38 139263.809 -83829.761 139311.428 -83782.142 139359.047 -83686.904 139406.666 -83496.428 139406.666 -83258.333 139359.047 -83067.857 139311.428 -82972.619 139263.809 -82925 139168.571 -82877.38 M 138454.285 -82972.619 138406.666 -82925 138311.428 -82877.38 138073.333 -82877.38 137978.095 -82925 137930.476 -82972.619 137882.857 -83067.857 137882.857 -83163.095 137930.476 -83305.952 138501.904 -83877.38 137882.857 -83877.38 M 136930.476 -83877.38 137501.904 -83877.38 M 137216.19 -83877.38 137216.19 -82877.38 137311.428 -83020.238 137406.666 -83115.476 137501.904 -83163.095" fill="none" stroke-width="250"/><path d="M 155850 -93209.064 155850 -91754.936 M 154030 -93209.064 154030 -91754.936 M 103597.064 -79100 102142.936 -79100 M 103597.064 -80920 102142.936 -80920 M 155850 -88077.064 155850 -86622.936 M 154030 -88077.064 154030 -86622.936" fill="none" stroke-width="120"/><path d="M 141500 -107755 141500 -107755 M 141500 -107655 141500 -107655" fill="none" stroke-width="300"/><path d="M 111100 -107305 142900 -107305 M 111100 -87005 111100 -107305 M 142900 -87005 111100 -87005 M 142900 -107305 142900 -87005" fill="none" stroke-width="100"/><path d="M 141500 -107655 A 50 50 0 0 1 141500 -107755 50 50 0 0 1 141500 -107655" fill="none" stroke-width="300"/><path d="M 157212.38 -92315.333 156736.19 -91982 M 157212.38 -91743.904 156212.38 -91743.904 156212.38 -92124.857 156260 -92220.095 156307.619 -92267.714 156402.857 -92315.333 156545.714 -92315.333 156640.952 -92267.714 156688.571 -92220.095 156736.19 -92124.857 156736.19 -91743.904 M 156545.714 -93172.476 157212.38 -93172.476 M 156164.761 -92934.38 156879.047 -92696.285 156879.047 -93315.333 M 103036.666 -83002.38 103370 -82526.19 M 103608.095 -83002.38 103608.095 -82002.38 103227.142 -82002.38 103131.904 -82050 103084.285 -82097.619 103036.666 -82192.857 103036.666 -82335.714 103084.285 -82430.952 103131.904 -82478.571 103227.142 -82526.19 103608.095 -82526.19 M 102703.333 -82002.38 102084.285 -82002.38 102417.619 -82383.333 102274.761 -82383.333 102179.523 -82430.952 102131.904 -82478.571 102084.285 -82573.809 102084.285 -82811.904 102131.904 -82907.142 102179.523 -82954.761 102274.761 -83002.38 102560.476 -83002.38 102655.714 -82954.761 102703.333 -82907.142 M 157212.38 -87183.333 156736.19 -86850 M 157212.38 -86611.904 156212.38 -86611.904 156212.38 -86992.857 156260 -87088.095 156307.619 -87135.714 156402.857 -87183.333 156545.714 -87183.333 156640.952 -87135.714 156688.571 -87088.095 156736.19 -86992.857 156736.19 -86611.904 M 157212.38 -88135.714 157212.38 -87564.285 M 157212.38 -87850 156212.38 -87850 156355.238 -87754.761 156450.476 -87659.523 156498.095 -87564.285 M 144478.333 -87082.38 144478.333 -87796.666 144525.952 -87939.523 144621.19 -88034.761 144764.047 -88082.38 144859.285 -88082.38 M 143573.571 -87082.38 143764.047 -87082.38 143859.285 -87130 143906.904 -87177.619 144002.142 -87320.476 144049.761 -87510.952 144049.761 -87891.904 144002.142 -87987.142 143954.523 -88034.761 143859.285 -88082.38 143668.809 -88082.38 143573.571 -88034.761 143525.952 -87987.142 143478.333 -87891.904 143478.333 -87653.809 143525.952 -87558.571 143573.571 -87510.952 143668.809 -87463.333 143859.285 -87463.333 143954.523 -87510.952 144002.142 -87558.571 144049.761 -87653.809" fill="none" stroke-width="150"/></g><g id="wOxEQmdHNPy2_bottom_drill1" transform="scale(25.4,25.4)"><use xlink:href="#wwSawrkNJmrD_pad-1" x="6000" y="-4000"/><use xlink:href="#wwSawrkNJmrD_pad-1" x="4000" y="-4000"/></g><g id="wOxEQmdHNPy2_bottom_drill2" transform="scale(25.4,25.4)"><use xlink:href="#r36t4XVUSciL_pad-1" x="4200" y="-3750"/><use xlink:href="#r36t4XVUSciL_pad-1" x="4200" y="-3850"/><use xlink:href="#r36t4XVUSciL_pad-1" x="4300" y="-3800"/><use xlink:href="#r36t4XVUSciL_pad-1" x="4800" y="-3900"/><use xlink:href="#r36t4XVUSciL_pad-1" x="5050" y="-3850"/><use xlink:href="#r36t4XVUSciL_pad-1" x="5350" y="-3450"/><use xlink:href="#r36t4XVUSciL_pad-1" x="6200" y="-3350"/><use xlink:href="#r36t4XVUSciL_pad-1" x="6200" y="-3650"/><use xlink:href="#r36t4XVUSciL_pad-2" x="6350" y="-3342.5"/><use xlink:href="#r36t4XVUSciL_pad-2" x="6350" y="-3421.3"/><use xlink:href="#r36t4XVUSciL_pad-2" x="6350" y="-3500"/><use xlink:href="#r36t4XVUSciL_pad-2" x="6350" y="-3578.7"/><use xlink:href="#r36t4XVUSciL_pad-2" x="3650" y="-3342.5"/><use xlink:href="#r36t4XVUSciL_pad-2" x="3650" y="-3421.3"/><use xlink:href="#r36t4XVUSciL_pad-2" x="3650" y="-3500"/><use xlink:href="#r36t4XVUSciL_pad-2" x="3650" y="-3578.7"/><use xlink:href="#r36t4XVUSciL_pad-3" x="3900" y="-3250"/><use xlink:href="#r36t4XVUSciL_pad-3" x="3900" y="-3350"/><use xlink:href="#r36t4XVUSciL_pad-3" x="3900" y="-3450"/><use xlink:href="#r36t4XVUSciL_pad-3" x="3900" y="-3550"/><use xlink:href="#r36t4XVUSciL_pad-3" x="4200" y="-3250"/><use xlink:href="#r36t4XVUSciL_pad-3" x="4200" y="-3350"/><use xlink:href="#r36t4XVUSciL_pad-3" x="4200" y="-3450"/><use xlink:href="#r36t4XVUSciL_pad-3" x="4200" y="-3550"/><use xlink:href="#r36t4XVUSciL_pad-3" x="4450" y="-3525"/><use xlink:href="#r36t4XVUSciL_pad-3" x="4450" y="-4125"/><use xlink:href="#r36t4XVUSciL_pad-3" x="4550" y="-3525"/><use xlink:href="#r36t4XVUSciL_pad-3" x="4550" y="-4125"/><use xlink:href="#r36t4XVUSciL_pad-3" x="5250" y="-3525"/><use xlink:href="#r36t4XVUSciL_pad-3" x="5450" y="-3525"/><use xlink:href="#r36t4XVUSciL_pad-3" x="5450" y="-4125"/><use xlink:href="#r36t4XVUSciL_pad-3" x="5550" y="-3525"/><use xlink:href="#r36t4XVUSciL_pad-3" x="5550" y="-4125"/><use xlink:href="#r36t4XVUSciL_pad-4" x="5750" y="-3900"/><use xlink:href="#r36t4XVUSciL_pad-4" x="5750" y="-4000"/><use xlink:href="#r36t4XVUSciL_pad-4" x="5750" y="-4100"/><use xlink:href="#r36t4XVUSciL_pad-4" x="5750" y="-4200"/><use xlink:href="#r36t4XVUSciL_pad-4" x="4450" y="-3250"/><use xlink:href="#r36t4XVUSciL_pad-4" x="4550" y="-3250"/><path d="M 3513.8 -3960.6 3513.8 -4039.4 M 3592.5 -4185 3671.3 -4185 M 3750 -3960.6 3750 -4039.4 M 6250 -4039.4 6250 -3960.6 M 6407.5 -3815 6328.7 -3815 M 6486.2 -4039.4 6486.2 -3960.6" fill="none" stroke-width="39.4"/></g><clipPath id="wOxEQmdHNPy2_bottom_outline"><path d="M 121920 -85090 A 2540 2540 0 0 0 119380 -82550 2540 2540 0 0 0 121920 -80010 L 132080 -80010 A 2540 2540 0 0 0 134620 -82550 2540 2540 0 0 0 132080 -85090 L 121920 -85090 M 165100 -78740 88900 -78740 A 2540 2540 0 0 1 86360 -81280 L 86360 -106680 A 2540 2540 0 0 1 88900 -109220 L 165100 -109220 A 2540 2540 0 0 1 167640 -106680 L 167640 -81280 A 2540 2540 0 0 1 165100 -78740" fill="none" stroke-width="100"/></clipPath><mask id="wOxEQmdHNPy2_bottom_mech-mask"><g fill="#000" stroke="#000"><rect x="86360" y="-109220" width="81280" height="30480" fill="#fff"/><use xlink:href="#wOxEQmdHNPy2_bottom_drill1"/><use xlink:href="#wOxEQmdHNPy2_bottom_drill2"/></g></mask><mask id="wOxEQmdHNPy2_bottom_cf-mask"><g fill="#fff" stroke="#fff"><use xlink:href="#wOxEQmdHNPy2_bottom_soldermask"/></g></mask><mask id="wOxEQmdHNPy2_bottom_sm-mask"><g fill="#000" stroke="#000"><rect x="86360" y="-109220" width="81280" height="30480" fill="#fff"/><use xlink:href="#wOxEQmdHNPy2_bottom_soldermask"/></g></mask></defs><g transform="translate(0,-187960) scale(1,-1)"><g mask="url(#wOxEQmdHNPy2_bottom_mech-mask)" clip-path="url(#wOxEQmdHNPy2_bottom_outline)" transform="translate(254000,0) scale(-1,1)"><rect x="86360" y="-109220" width="81280" height="30480" fill="currentColor" class="wOxEQmdHNPy2_fr4"/><use xlink:href="#wOxEQmdHNPy2_bottom_copper" fill="currentColor" stroke="currentColor" class="wOxEQmdHNPy2_cu"/><use xlink:href="#wOxEQmdHNPy2_bottom_copper" fill="currentColor" stroke="currentColor" class="wOxEQmdHNPy2_cf" mask="url(#wOxEQmdHNPy2_bottom_cf-mask)"/><g mask="url(#wOxEQmdHNPy2_bottom_sm-mask)"><rect x="86360" y="-109220" width="81280" height="30480" fill="currentColor" class="wOxEQmdHNPy2_sm"/><use xlink:href="#wOxEQmdHNPy2_bottom_silkscreen" fill="currentColor" stroke="currentColor" class="wOxEQmdHNPy2_ss"/></g><use xlink:href="#wOxEQmdHNPy2_bottom_solderpaste" fill="currentColor" stroke="currentColor" class="wOxEQmdHNPy2_sp"/></g></g></svg>