M48
; DRILL file {KiCad 5.1.8+dfsg1-1+b1} date Fri Jan 29 12:05:03 2021
; FORMAT={-:-/ absolute / inch / decimal}
; #@! TF.CreationDate,2021-01-29T12:05:03-06:00
; #@! TF.GenerationSoftware,Kicad,Pcbnew,5.1.8+dfsg1-1+b1
; #@! TF.FileFunction,Plated,1,2,PTH
FMAT,2
INCH
T1C0.0281
T2C0.0315
T3C0.0394
T4C0.0591
%
G90
G05
T1
X3.75Y-3.4
X3.85Y-3.3
X3.95Y-3.4
T2
X4.45Y-3.525
X4.45Y-4.125
X4.55Y-3.525
X4.55Y-4.125
X5.25Y-3.525
X5.45Y-3.525
X5.45Y-4.125
X5.55Y-3.525
X5.55Y-4.125
T3
X5.75Y-3.9
X5.75Y-4.0
X5.75Y-4.1
X5.75Y-4.2
X4.45Y-3.25
X4.55Y-3.25
T4
X3.525Y-3.25
X6.475Y-3.5
X6.475Y-3.25
T3
G00X6.25Y-4.0394
M15
G01X6.25Y-3.9606
M16
G05
G00X6.4075Y-3.815
M15
G01X6.3287Y-3.815
M16
G05
G00X6.4862Y-4.0394
M15
G01X6.4862Y-3.9606
M16
G05
G00X3.5138Y-3.9606
M15
G01X3.5138Y-4.0394
M16
G05
G00X3.5925Y-4.185
M15
G01X3.6713Y-4.185
M16
G05
G00X3.75Y-3.9606
M15
G01X3.75Y-4.0394
M16
G05
T0
M30
