%TF.GenerationSoftware,KiCad,Pcbnew,5.1.8+dfsg1-1+b1*%
%TF.CreationDate,2021-01-29T12:05:02-06:00*%
%TF.ProjectId,driver,64726976-6572-42e6-9b69-6361645f7063,1.0.0*%
%TF.SameCoordinates,Original*%
%TF.FileFunction,Paste,Top*%
%TF.FilePolarity,Positive*%
%FSLAX46Y46*%
G04 Gerber Fmt 4.6, Leading zero omitted, Abs format (unit mm)*
G04 Created by KiCad (PCBNEW 5.1.8+dfsg1-1+b1) date 2021-01-29 12:05:02*
%MOMM*%
%LPD*%
G01*
G04 APERTURE LIST*
%TA.AperFunction,Profile*%
%ADD10C,0.100000*%
%TD*%
G04 APERTURE END LIST*
D10*
X121920000Y-85090000D02*
G75*
G02*
X119380000Y-82550000I0J2540000D01*
G01*
X165100000Y-78740000D02*
X88900000Y-78740000D01*
X119380000Y-82550000D02*
G75*
G02*
X121920000Y-80010000I2540000J0D01*
G01*
X132080000Y-80010000D02*
G75*
G02*
X134620000Y-82550000I0J-2540000D01*
G01*
X134620000Y-82550000D02*
G75*
G02*
X132080000Y-85090000I-2540000J0D01*
G01*
X132080000Y-80010000D02*
X121920000Y-80010000D01*
X132080000Y-85090000D02*
X121920000Y-85090000D01*
X165100000Y-109220000D02*
X88900000Y-109220000D01*
X86360000Y-81280000D02*
X86360000Y-106680000D01*
X167640000Y-106680000D02*
X167640000Y-81280000D01*
X86360000Y-81280000D02*
G75*
G02*
X88900000Y-78740000I2540000J0D01*
G01*
X88900000Y-109220000D02*
G75*
G02*
X86360000Y-106680000I0J2540000D01*
G01*
X167640000Y-106680000D02*
G75*
G02*
X165100000Y-109220000I-2540000J0D01*
G01*
X165100000Y-78740000D02*
G75*
G02*
X167640000Y-81280000I0J-2540000D01*
G01*
%TO.C,R2*%
G36*
G01*
X92085000Y-94245000D02*
X93335000Y-94245000D01*
G75*
G02*
X93585000Y-94495000I0J-250000D01*
G01*
X93585000Y-95295000D01*
G75*
G02*
X93335000Y-95545000I-250000J0D01*
G01*
X92085000Y-95545000D01*
G75*
G02*
X91835000Y-95295000I0J250000D01*
G01*
X91835000Y-94495000D01*
G75*
G02*
X92085000Y-94245000I250000J0D01*
G01*
G37*
G36*
G01*
X92085000Y-91145000D02*
X93335000Y-91145000D01*
G75*
G02*
X93585000Y-91395000I0J-250000D01*
G01*
X93585000Y-92195000D01*
G75*
G02*
X93335000Y-92445000I-250000J0D01*
G01*
X92085000Y-92445000D01*
G75*
G02*
X91835000Y-92195000I0J250000D01*
G01*
X91835000Y-91395000D01*
G75*
G02*
X92085000Y-91145000I250000J0D01*
G01*
G37*
%TD*%
%TO.C,R1*%
G36*
G01*
X98415000Y-92445000D02*
X97165000Y-92445000D01*
G75*
G02*
X96915000Y-92195000I0J250000D01*
G01*
X96915000Y-91395000D01*
G75*
G02*
X97165000Y-91145000I250000J0D01*
G01*
X98415000Y-91145000D01*
G75*
G02*
X98665000Y-91395000I0J-250000D01*
G01*
X98665000Y-92195000D01*
G75*
G02*
X98415000Y-92445000I-250000J0D01*
G01*
G37*
G36*
G01*
X98415000Y-95545000D02*
X97165000Y-95545000D01*
G75*
G02*
X96915000Y-95295000I0J250000D01*
G01*
X96915000Y-94495000D01*
G75*
G02*
X97165000Y-94245000I250000J0D01*
G01*
X98415000Y-94245000D01*
G75*
G02*
X98665000Y-94495000I0J-250000D01*
G01*
X98665000Y-95295000D01*
G75*
G02*
X98415000Y-95545000I-250000J0D01*
G01*
G37*
%TD*%
%TO.C,C2*%
G36*
G01*
X147939999Y-85747500D02*
X149240001Y-85747500D01*
G75*
G02*
X149490000Y-85997499I0J-249999D01*
G01*
X149490000Y-86822501D01*
G75*
G02*
X149240001Y-87072500I-249999J0D01*
G01*
X147939999Y-87072500D01*
G75*
G02*
X147690000Y-86822501I0J249999D01*
G01*
X147690000Y-85997499D01*
G75*
G02*
X147939999Y-85747500I249999J0D01*
G01*
G37*
G36*
G01*
X147939999Y-88872500D02*
X149240001Y-88872500D01*
G75*
G02*
X149490000Y-89122499I0J-249999D01*
G01*
X149490000Y-89947501D01*
G75*
G02*
X149240001Y-90197500I-249999J0D01*
G01*
X147939999Y-90197500D01*
G75*
G02*
X147690000Y-89947501I0J249999D01*
G01*
X147690000Y-89122499D01*
G75*
G02*
X147939999Y-88872500I249999J0D01*
G01*
G37*
%TD*%
%TO.C,R5*%
G36*
G01*
X136790000Y-94605001D02*
X136790000Y-93354999D01*
G75*
G02*
X137039999Y-93105000I249999J0D01*
G01*
X137840001Y-93105000D01*
G75*
G02*
X138090000Y-93354999I0J-249999D01*
G01*
X138090000Y-94605001D01*
G75*
G02*
X137840001Y-94855000I-249999J0D01*
G01*
X137039999Y-94855000D01*
G75*
G02*
X136790000Y-94605001I0J249999D01*
G01*
G37*
G36*
G01*
X133690000Y-94605001D02*
X133690000Y-93354999D01*
G75*
G02*
X133939999Y-93105000I249999J0D01*
G01*
X134740001Y-93105000D01*
G75*
G02*
X134990000Y-93354999I0J-249999D01*
G01*
X134990000Y-94605001D01*
G75*
G02*
X134740001Y-94855000I-249999J0D01*
G01*
X133939999Y-94855000D01*
G75*
G02*
X133690000Y-94605001I0J249999D01*
G01*
G37*
%TD*%
%TO.C,D1*%
G36*
G01*
X136665000Y-99685000D02*
X136665000Y-98435000D01*
G75*
G02*
X136915000Y-98185000I250000J0D01*
G01*
X137665000Y-98185000D01*
G75*
G02*
X137915000Y-98435000I0J-250000D01*
G01*
X137915000Y-99685000D01*
G75*
G02*
X137665000Y-99935000I-250000J0D01*
G01*
X136915000Y-99935000D01*
G75*
G02*
X136665000Y-99685000I0J250000D01*
G01*
G37*
G36*
G01*
X133865000Y-99685000D02*
X133865000Y-98435000D01*
G75*
G02*
X134115000Y-98185000I250000J0D01*
G01*
X134865000Y-98185000D01*
G75*
G02*
X135115000Y-98435000I0J-250000D01*
G01*
X135115000Y-99685000D01*
G75*
G02*
X134865000Y-99935000I-250000J0D01*
G01*
X134115000Y-99935000D01*
G75*
G02*
X133865000Y-99685000I0J250000D01*
G01*
G37*
%TD*%
M02*
