%TF.GenerationSoftware,KiCad,Pcbnew,5.1.8+dfsg1-1+b1*%
%TF.CreationDate,2021-01-29T12:05:02-06:00*%
%TF.ProjectId,driver,64726976-6572-42e6-9b69-6361645f7063,1.0.0*%
%TF.SameCoordinates,Original*%
%TF.FileFunction,Copper,L1,Top*%
%TF.FilePolarity,Positive*%
%FSLAX46Y46*%
G04 Gerber Fmt 4.6, Leading zero omitted, Abs format (unit mm)*
G04 Created by KiCad (PCBNEW 5.1.8+dfsg1-1+b1) date 2021-01-29 12:05:02*
%MOMM*%
%LPD*%
G01*
G04 APERTURE LIST*
%TA.AperFunction,Profile*%
%ADD10C,0.100000*%
%TD*%
%TA.AperFunction,ComponentPad*%
%ADD11C,3.000000*%
%TD*%
%TA.AperFunction,ComponentPad*%
%ADD12R,1.222000X1.222000*%
%TD*%
%TA.AperFunction,ComponentPad*%
%ADD13C,1.222000*%
%TD*%
%TA.AperFunction,ComponentPad*%
%ADD14C,1.300000*%
%TD*%
%TA.AperFunction,ComponentPad*%
%ADD15R,3.500000X3.500000*%
%TD*%
%TA.AperFunction,ComponentPad*%
%ADD16O,1.700000X1.700000*%
%TD*%
%TA.AperFunction,ComponentPad*%
%ADD17R,1.700000X1.700000*%
%TD*%
%TA.AperFunction,Conductor*%
%ADD18C,0.889000*%
%TD*%
%TA.AperFunction,Conductor*%
%ADD19C,0.254000*%
%TD*%
%TA.AperFunction,Conductor*%
%ADD20C,0.100000*%
%TD*%
G04 APERTURE END LIST*
D10*
X121920000Y-85090000D02*
G75*
G02*
X119380000Y-82550000I0J2540000D01*
G01*
X165100000Y-78740000D02*
X88900000Y-78740000D01*
X119380000Y-82550000D02*
G75*
G02*
X121920000Y-80010000I2540000J0D01*
G01*
X132080000Y-80010000D02*
G75*
G02*
X134620000Y-82550000I0J-2540000D01*
G01*
X134620000Y-82550000D02*
G75*
G02*
X132080000Y-85090000I-2540000J0D01*
G01*
X132080000Y-80010000D02*
X121920000Y-80010000D01*
X132080000Y-85090000D02*
X121920000Y-85090000D01*
X165100000Y-109220000D02*
X88900000Y-109220000D01*
X86360000Y-81280000D02*
X86360000Y-106680000D01*
X167640000Y-106680000D02*
X167640000Y-81280000D01*
X86360000Y-81280000D02*
G75*
G02*
X88900000Y-78740000I2540000J0D01*
G01*
X88900000Y-109220000D02*
G75*
G02*
X86360000Y-106680000I0J2540000D01*
G01*
X167640000Y-106680000D02*
G75*
G02*
X165100000Y-109220000I-2540000J0D01*
G01*
X165100000Y-78740000D02*
G75*
G02*
X167640000Y-81280000I0J-2540000D01*
G01*
D11*
%TO.P,TP3,1*%
%TO.N,GND*%
X164465000Y-82550000D03*
%TD*%
%TO.P,TP2,1*%
%TO.N,+12V*%
X164465000Y-88900000D03*
%TD*%
%TO.P,TP1,1*%
%TO.N,Net-(R1-Pad2)*%
X89535000Y-82550000D03*
%TD*%
%TO.P,R2,2*%
%TO.N,GND*%
%TA.AperFunction,SMDPad,CuDef*%
G36*
G01*
X92085000Y-94245000D02*
X93335000Y-94245000D01*
G75*
G02*
X93585000Y-94495000I0J-250000D01*
G01*
X93585000Y-95295000D01*
G75*
G02*
X93335000Y-95545000I-250000J0D01*
G01*
X92085000Y-95545000D01*
G75*
G02*
X91835000Y-95295000I0J250000D01*
G01*
X91835000Y-94495000D01*
G75*
G02*
X92085000Y-94245000I250000J0D01*
G01*
G37*
%TD.AperFunction*%
%TO.P,R2,1*%
%TO.N,Net-(R2-Pad1)*%
%TA.AperFunction,SMDPad,CuDef*%
G36*
G01*
X92085000Y-91145000D02*
X93335000Y-91145000D01*
G75*
G02*
X93585000Y-91395000I0J-250000D01*
G01*
X93585000Y-92195000D01*
G75*
G02*
X93335000Y-92445000I-250000J0D01*
G01*
X92085000Y-92445000D01*
G75*
G02*
X91835000Y-92195000I0J250000D01*
G01*
X91835000Y-91395000D01*
G75*
G02*
X92085000Y-91145000I250000J0D01*
G01*
G37*
%TD.AperFunction*%
%TD*%
%TO.P,R1,2*%
%TO.N,Net-(R1-Pad2)*%
%TA.AperFunction,SMDPad,CuDef*%
G36*
G01*
X98415000Y-92445000D02*
X97165000Y-92445000D01*
G75*
G02*
X96915000Y-92195000I0J250000D01*
G01*
X96915000Y-91395000D01*
G75*
G02*
X97165000Y-91145000I250000J0D01*
G01*
X98415000Y-91145000D01*
G75*
G02*
X98665000Y-91395000I0J-250000D01*
G01*
X98665000Y-92195000D01*
G75*
G02*
X98415000Y-92445000I-250000J0D01*
G01*
G37*
%TD.AperFunction*%
%TO.P,R1,1*%
%TO.N,+12V*%
%TA.AperFunction,SMDPad,CuDef*%
G36*
G01*
X98415000Y-95545000D02*
X97165000Y-95545000D01*
G75*
G02*
X96915000Y-95295000I0J250000D01*
G01*
X96915000Y-94495000D01*
G75*
G02*
X97165000Y-94245000I250000J0D01*
G01*
X98415000Y-94245000D01*
G75*
G02*
X98665000Y-94495000I0J-250000D01*
G01*
X98665000Y-95295000D01*
G75*
G02*
X98415000Y-95545000I-250000J0D01*
G01*
G37*
%TD.AperFunction*%
%TD*%
%TO.P,C2,1*%
%TO.N,GND*%
%TA.AperFunction,SMDPad,CuDef*%
G36*
G01*
X147939999Y-85747500D02*
X149240001Y-85747500D01*
G75*
G02*
X149490000Y-85997499I0J-249999D01*
G01*
X149490000Y-86822501D01*
G75*
G02*
X149240001Y-87072500I-249999J0D01*
G01*
X147939999Y-87072500D01*
G75*
G02*
X147690000Y-86822501I0J249999D01*
G01*
X147690000Y-85997499D01*
G75*
G02*
X147939999Y-85747500I249999J0D01*
G01*
G37*
%TD.AperFunction*%
%TO.P,C2,2*%
%TO.N,+12V*%
%TA.AperFunction,SMDPad,CuDef*%
G36*
G01*
X147939999Y-88872500D02*
X149240001Y-88872500D01*
G75*
G02*
X149490000Y-89122499I0J-249999D01*
G01*
X149490000Y-89947501D01*
G75*
G02*
X149240001Y-90197500I-249999J0D01*
G01*
X147939999Y-90197500D01*
G75*
G02*
X147690000Y-89947501I0J249999D01*
G01*
X147690000Y-89122499D01*
G75*
G02*
X147939999Y-88872500I249999J0D01*
G01*
G37*
%TD.AperFunction*%
%TD*%
D12*
%TO.P,RV1,1*%
%TO.N,Net-(R2-Pad1)*%
X95250000Y-86360000D03*
D13*
%TO.P,RV1,2*%
%TO.N,Net-(R1-Pad2)*%
X97790000Y-83820000D03*
%TO.P,RV1,3*%
X100330000Y-86360000D03*
%TD*%
%TO.P,R5,2*%
%TO.N,Net-(D1-Pad2)*%
%TA.AperFunction,SMDPad,CuDef*%
G36*
G01*
X136790000Y-94605001D02*
X136790000Y-93354999D01*
G75*
G02*
X137039999Y-93105000I249999J0D01*
G01*
X137840001Y-93105000D01*
G75*
G02*
X138090000Y-93354999I0J-249999D01*
G01*
X138090000Y-94605001D01*
G75*
G02*
X137840001Y-94855000I-249999J0D01*
G01*
X137039999Y-94855000D01*
G75*
G02*
X136790000Y-94605001I0J249999D01*
G01*
G37*
%TD.AperFunction*%
%TO.P,R5,1*%
%TO.N,+12V*%
%TA.AperFunction,SMDPad,CuDef*%
G36*
G01*
X133690000Y-94605001D02*
X133690000Y-93354999D01*
G75*
G02*
X133939999Y-93105000I249999J0D01*
G01*
X134740001Y-93105000D01*
G75*
G02*
X134990000Y-93354999I0J-249999D01*
G01*
X134990000Y-94605001D01*
G75*
G02*
X134740001Y-94855000I-249999J0D01*
G01*
X133939999Y-94855000D01*
G75*
G02*
X133690000Y-94605001I0J249999D01*
G01*
G37*
%TD.AperFunction*%
%TD*%
%TO.P,D1,2*%
%TO.N,Net-(D1-Pad2)*%
%TA.AperFunction,SMDPad,CuDef*%
G36*
G01*
X136665000Y-99685000D02*
X136665000Y-98435000D01*
G75*
G02*
X136915000Y-98185000I250000J0D01*
G01*
X137665000Y-98185000D01*
G75*
G02*
X137915000Y-98435000I0J-250000D01*
G01*
X137915000Y-99685000D01*
G75*
G02*
X137665000Y-99935000I-250000J0D01*
G01*
X136915000Y-99935000D01*
G75*
G02*
X136665000Y-99685000I0J250000D01*
G01*
G37*
%TD.AperFunction*%
%TO.P,D1,1*%
%TO.N,GND*%
%TA.AperFunction,SMDPad,CuDef*%
G36*
G01*
X133865000Y-99685000D02*
X133865000Y-98435000D01*
G75*
G02*
X134115000Y-98185000I250000J0D01*
G01*
X134865000Y-98185000D01*
G75*
G02*
X135115000Y-98435000I0J-250000D01*
G01*
X135115000Y-99685000D01*
G75*
G02*
X134865000Y-99935000I-250000J0D01*
G01*
X134115000Y-99935000D01*
G75*
G02*
X133865000Y-99685000I0J250000D01*
G01*
G37*
%TD.AperFunction*%
%TD*%
D14*
%TO.P,U2,24*%
%TO.N,+12V*%
X140970000Y-89535000D03*
%TO.P,U2,23*%
X138430000Y-89535000D03*
%TO.P,U2,21*%
%TO.N,Net-(R1-Pad2)*%
X133350000Y-89535000D03*
%TO.P,U2,14*%
%TO.N,Net-(J7-Pad1)*%
X115570000Y-89535000D03*
%TO.P,U2,13*%
X113030000Y-89535000D03*
%TO.P,U2,12*%
%TO.N,Net-(J7-Pad2)*%
X113030000Y-104775000D03*
%TO.P,U2,11*%
X115570000Y-104775000D03*
%TO.P,U2,2*%
%TO.N,GND*%
X138430000Y-104775000D03*
%TO.P,U2,1*%
X140970000Y-104775000D03*
%TD*%
D15*
%TO.P,J4,1*%
%TO.N,+12V*%
X95250000Y-101600000D03*
%TO.P,J4,2*%
%TO.N,GND*%
%TA.AperFunction,ComponentPad*%
G36*
G01*
X87750000Y-102600000D02*
X87750000Y-100600000D01*
G75*
G02*
X88500000Y-99850000I750000J0D01*
G01*
X90000000Y-99850000D01*
G75*
G02*
X90750000Y-100600000I0J-750000D01*
G01*
X90750000Y-102600000D01*
G75*
G02*
X90000000Y-103350000I-750000J0D01*
G01*
X88500000Y-103350000D01*
G75*
G02*
X87750000Y-102600000I0J750000D01*
G01*
G37*
%TD.AperFunction*%
%TO.P,J4,3*%
%TO.N,N/C*%
%TA.AperFunction,ComponentPad*%
G36*
G01*
X90500000Y-107175000D02*
X90500000Y-105425000D01*
G75*
G02*
X91375000Y-104550000I875000J0D01*
G01*
X93125000Y-104550000D01*
G75*
G02*
X94000000Y-105425000I0J-875000D01*
G01*
X94000000Y-107175000D01*
G75*
G02*
X93125000Y-108050000I-875000J0D01*
G01*
X91375000Y-108050000D01*
G75*
G02*
X90500000Y-107175000I0J875000D01*
G01*
G37*
%TD.AperFunction*%
%TD*%
%TO.P,J3,3*%
%TO.N,N/C*%
%TA.AperFunction,ComponentPad*%
G36*
G01*
X163500000Y-96025000D02*
X163500000Y-97775000D01*
G75*
G02*
X162625000Y-98650000I-875000J0D01*
G01*
X160875000Y-98650000D01*
G75*
G02*
X160000000Y-97775000I0J875000D01*
G01*
X160000000Y-96025000D01*
G75*
G02*
X160875000Y-95150000I875000J0D01*
G01*
X162625000Y-95150000D01*
G75*
G02*
X163500000Y-96025000I0J-875000D01*
G01*
G37*
%TD.AperFunction*%
%TO.P,J3,2*%
%TO.N,GND*%
%TA.AperFunction,ComponentPad*%
G36*
G01*
X166250000Y-100600000D02*
X166250000Y-102600000D01*
G75*
G02*
X165500000Y-103350000I-750000J0D01*
G01*
X164000000Y-103350000D01*
G75*
G02*
X163250000Y-102600000I0J750000D01*
G01*
X163250000Y-100600000D01*
G75*
G02*
X164000000Y-99850000I750000J0D01*
G01*
X165500000Y-99850000D01*
G75*
G02*
X166250000Y-100600000I0J-750000D01*
G01*
G37*
%TD.AperFunction*%
%TO.P,J3,1*%
%TO.N,+12V*%
X158750000Y-101600000D03*
%TD*%
D16*
%TO.P,J5,4*%
%TO.N,Net-(J5-Pad4)*%
X146050000Y-99060000D03*
%TO.P,J5,3*%
%TO.N,Net-(J5-Pad3)*%
X146050000Y-101600000D03*
%TO.P,J5,2*%
%TO.N,+12V*%
X146050000Y-104140000D03*
D17*
%TO.P,J5,1*%
%TO.N,GND*%
X146050000Y-106680000D03*
%TD*%
%TO.P,J7,1*%
%TO.N,Net-(J7-Pad1)*%
X113030000Y-82550000D03*
D16*
%TO.P,J7,2*%
%TO.N,Net-(J7-Pad2)*%
X115570000Y-82550000D03*
%TD*%
D18*
%TO.N,+12V*%
X158750000Y-101600000D02*
X158750000Y-102870000D01*
X154090000Y-93630000D02*
X154090000Y-95670000D01*
X158750000Y-100330000D02*
X158750000Y-101600000D01*
X154090000Y-95670000D02*
X158750000Y-100330000D01*
X138430000Y-89535000D02*
X140970000Y-89535000D01*
X149995000Y-89535000D02*
X154090000Y-93630000D01*
X140970000Y-89535000D02*
X149995000Y-89535000D01*
X144780000Y-104140000D02*
X146050000Y-104140000D01*
X142240000Y-106680000D02*
X144780000Y-104140000D01*
X100330000Y-106680000D02*
X142240000Y-106680000D01*
X95250000Y-101600000D02*
X100330000Y-106680000D01*
X134340000Y-93625000D02*
X138430000Y-89535000D01*
X134340000Y-93980000D02*
X134340000Y-93625000D01*
X156210000Y-106680000D02*
X158750000Y-104140000D01*
X149860000Y-106680000D02*
X156210000Y-106680000D01*
X158750000Y-104140000D02*
X158750000Y-101600000D01*
X147320000Y-104140000D02*
X149860000Y-106680000D01*
X146050000Y-104140000D02*
X147320000Y-104140000D01*
X95250000Y-97435000D02*
X97790000Y-94895000D01*
X95250000Y-101600000D02*
X95250000Y-97435000D01*
X154090000Y-93630000D02*
X154090000Y-93560000D01*
X158750000Y-88900000D02*
X164465000Y-88900000D01*
X154090000Y-93560000D02*
X158750000Y-88900000D01*
%TO.N,Net-(D1-Pad2)*%
X137290000Y-94130000D02*
X137440000Y-93980000D01*
X137290000Y-99060000D02*
X137290000Y-94130000D01*
%TO.N,Net-(J7-Pad1)*%
X113030000Y-82550000D02*
X113030000Y-89535000D01*
X113030000Y-89535000D02*
X115570000Y-89535000D01*
%TO.N,Net-(J7-Pad2)*%
X118110000Y-102235000D02*
X115570000Y-104775000D01*
X118110000Y-85090000D02*
X118110000Y-102235000D01*
X115570000Y-82550000D02*
X118110000Y-85090000D01*
X115570000Y-104775000D02*
X113030000Y-104775000D01*
%TO.N,Net-(R2-Pad1)*%
X95250000Y-86360000D02*
X92710000Y-88900000D01*
X92710000Y-88900000D02*
X92710000Y-91795000D01*
%TO.N,Net-(R1-Pad2)*%
X90805000Y-83820000D02*
X89535000Y-82550000D01*
X97790000Y-83820000D02*
X90805000Y-83820000D01*
X97790000Y-83820000D02*
X100330000Y-86360000D01*
X97790000Y-83820000D02*
X97790000Y-91795000D01*
%TD*%
D19*
%TO.N,GND*%
X120733150Y-79554102D02*
X120675896Y-79578170D01*
X120618352Y-79601419D01*
X120609907Y-79605909D01*
X120173847Y-79841686D01*
X120122384Y-79876398D01*
X120070427Y-79910398D01*
X120063015Y-79916443D01*
X119681055Y-80232427D01*
X119637308Y-80276481D01*
X119592950Y-80319919D01*
X119586853Y-80327289D01*
X119273543Y-80711445D01*
X119239192Y-80763148D01*
X119204110Y-80814384D01*
X119199561Y-80822797D01*
X118966834Y-81260493D01*
X118943171Y-81317903D01*
X118918718Y-81374958D01*
X118915889Y-81384094D01*
X118772610Y-81858659D01*
X118760548Y-81919577D01*
X118747643Y-81980289D01*
X118746643Y-81989800D01*
X118698269Y-82483156D01*
X118698269Y-82513086D01*
X118695038Y-82542831D01*
X118695004Y-82552395D01*
X118695066Y-82570127D01*
X118698090Y-82599896D01*
X118697881Y-82629815D01*
X118698814Y-82639334D01*
X118750632Y-83132340D01*
X118763109Y-83193121D01*
X118774749Y-83254142D01*
X118777513Y-83263298D01*
X118924103Y-83736851D01*
X118948167Y-83794097D01*
X118971419Y-83851648D01*
X118975907Y-83860089D01*
X118975909Y-83860094D01*
X118975912Y-83860098D01*
X119211686Y-84296153D01*
X119246398Y-84347616D01*
X119280398Y-84399573D01*
X119286443Y-84406985D01*
X119602427Y-84788945D01*
X119646500Y-84832712D01*
X119689920Y-84877050D01*
X119697289Y-84883147D01*
X120081445Y-85196457D01*
X120133148Y-85230808D01*
X120184384Y-85265890D01*
X120192797Y-85270439D01*
X120630493Y-85503166D01*
X120687882Y-85526820D01*
X120744958Y-85551283D01*
X120754095Y-85554111D01*
X121228659Y-85697390D01*
X121289577Y-85709452D01*
X121350289Y-85722357D01*
X121359801Y-85723357D01*
X121853156Y-85771731D01*
X121853163Y-85771731D01*
X121886353Y-85775000D01*
X132113647Y-85775000D01*
X132144018Y-85772009D01*
X132159815Y-85772119D01*
X132169334Y-85771186D01*
X132394686Y-85747500D01*
X147051928Y-85747500D01*
X147055000Y-86124250D01*
X147213750Y-86283000D01*
X148463000Y-86283000D01*
X148463000Y-85271250D01*
X148717000Y-85271250D01*
X148717000Y-86283000D01*
X149966250Y-86283000D01*
X150125000Y-86124250D01*
X150128072Y-85747500D01*
X150115812Y-85623018D01*
X150079502Y-85503320D01*
X150020537Y-85393006D01*
X149941185Y-85296315D01*
X149844494Y-85216963D01*
X149734180Y-85157998D01*
X149614482Y-85121688D01*
X149490000Y-85109428D01*
X148875750Y-85112500D01*
X148717000Y-85271250D01*
X148463000Y-85271250D01*
X148304250Y-85112500D01*
X147690000Y-85109428D01*
X147565518Y-85121688D01*
X147445820Y-85157998D01*
X147335506Y-85216963D01*
X147238815Y-85296315D01*
X147159463Y-85393006D01*
X147100498Y-85503320D01*
X147064188Y-85623018D01*
X147051928Y-85747500D01*
X132394686Y-85747500D01*
X132662340Y-85719368D01*
X132723121Y-85706891D01*
X132784142Y-85695251D01*
X132793298Y-85692487D01*
X133266851Y-85545897D01*
X133324097Y-85521833D01*
X133381648Y-85498581D01*
X133390089Y-85494093D01*
X133390094Y-85494091D01*
X133390098Y-85494088D01*
X133826153Y-85258314D01*
X133877616Y-85223602D01*
X133929573Y-85189602D01*
X133936985Y-85183557D01*
X134318945Y-84867573D01*
X134362712Y-84823500D01*
X134407050Y-84780080D01*
X134413147Y-84772711D01*
X134726457Y-84388555D01*
X134760808Y-84336852D01*
X134795890Y-84285616D01*
X134800439Y-84277203D01*
X134925683Y-84041653D01*
X163152952Y-84041653D01*
X163308962Y-84357214D01*
X163683745Y-84548020D01*
X164088551Y-84662044D01*
X164507824Y-84694902D01*
X164925451Y-84645334D01*
X165325383Y-84515243D01*
X165621038Y-84357214D01*
X165777048Y-84041653D01*
X164465000Y-82729605D01*
X163152952Y-84041653D01*
X134925683Y-84041653D01*
X135033166Y-83839507D01*
X135056820Y-83782118D01*
X135081283Y-83725042D01*
X135084111Y-83715905D01*
X135227390Y-83241341D01*
X135239452Y-83180423D01*
X135252357Y-83119711D01*
X135253357Y-83110199D01*
X135301731Y-82616844D01*
X135301731Y-82592824D01*
X162320098Y-82592824D01*
X162369666Y-83010451D01*
X162499757Y-83410383D01*
X162657786Y-83706038D01*
X162973347Y-83862048D01*
X164285395Y-82550000D01*
X164644605Y-82550000D01*
X165956653Y-83862048D01*
X166272214Y-83706038D01*
X166463020Y-83331255D01*
X166577044Y-82926449D01*
X166609902Y-82507176D01*
X166560334Y-82089549D01*
X166430243Y-81689617D01*
X166272214Y-81393962D01*
X165956653Y-81237952D01*
X164644605Y-82550000D01*
X164285395Y-82550000D01*
X162973347Y-81237952D01*
X162657786Y-81393962D01*
X162466980Y-81768745D01*
X162352956Y-82173551D01*
X162320098Y-82592824D01*
X135301731Y-82592824D01*
X135301731Y-82586914D01*
X135304962Y-82557169D01*
X135304996Y-82547605D01*
X135304934Y-82529873D01*
X135301910Y-82500104D01*
X135302119Y-82470185D01*
X135301186Y-82460666D01*
X135249369Y-81967660D01*
X135236886Y-81906849D01*
X135225251Y-81845858D01*
X135222487Y-81836702D01*
X135075898Y-81363150D01*
X135051830Y-81305896D01*
X135028581Y-81248352D01*
X135024091Y-81239907D01*
X134925922Y-81058347D01*
X163152952Y-81058347D01*
X164465000Y-82370395D01*
X165777048Y-81058347D01*
X165621038Y-80742786D01*
X165246255Y-80551980D01*
X164841449Y-80437956D01*
X164422176Y-80405098D01*
X164004549Y-80454666D01*
X163604617Y-80584757D01*
X163308962Y-80742786D01*
X163152952Y-81058347D01*
X134925922Y-81058347D01*
X134788314Y-80803847D01*
X134753602Y-80752384D01*
X134719602Y-80700427D01*
X134713557Y-80693015D01*
X134397573Y-80311055D01*
X134353519Y-80267308D01*
X134310081Y-80222950D01*
X134302711Y-80216853D01*
X133918555Y-79903543D01*
X133866852Y-79869192D01*
X133815616Y-79834110D01*
X133807203Y-79829561D01*
X133369507Y-79596834D01*
X133312097Y-79573171D01*
X133255042Y-79548718D01*
X133245906Y-79545889D01*
X132845501Y-79425000D01*
X165066496Y-79425000D01*
X165459668Y-79463551D01*
X165805634Y-79568004D01*
X166124724Y-79737667D01*
X166404781Y-79966076D01*
X166635141Y-80244534D01*
X166807027Y-80562430D01*
X166913893Y-80907658D01*
X166955001Y-81298763D01*
X166955000Y-106646495D01*
X166916449Y-107039667D01*
X166811996Y-107385635D01*
X166642333Y-107704724D01*
X166413924Y-107984781D01*
X166135466Y-108215141D01*
X165817570Y-108387027D01*
X165472340Y-108493894D01*
X165081238Y-108535000D01*
X93774926Y-108535000D01*
X93965618Y-108433073D01*
X94194903Y-108244903D01*
X94383073Y-108015618D01*
X94522896Y-107754028D01*
X94608999Y-107470186D01*
X94638072Y-107175000D01*
X94638072Y-105425000D01*
X94608999Y-105129814D01*
X94522896Y-104845972D01*
X94383073Y-104584382D01*
X94194903Y-104355097D01*
X93965618Y-104166927D01*
X93704028Y-104027104D01*
X93575357Y-103988072D01*
X96111429Y-103988072D01*
X99529182Y-107405826D01*
X99562985Y-107447015D01*
X99604174Y-107480818D01*
X99604175Y-107480819D01*
X99690627Y-107551768D01*
X99727360Y-107581914D01*
X99914894Y-107682153D01*
X100092048Y-107735892D01*
X100118381Y-107743880D01*
X100330000Y-107764723D01*
X100383029Y-107759500D01*
X142186971Y-107759500D01*
X142240000Y-107764723D01*
X142293029Y-107759500D01*
X142451619Y-107743880D01*
X142655106Y-107682153D01*
X142842640Y-107581914D01*
X142905897Y-107530000D01*
X144561928Y-107530000D01*
X144574188Y-107654482D01*
X144610498Y-107774180D01*
X144669463Y-107884494D01*
X144748815Y-107981185D01*
X144845506Y-108060537D01*
X144955820Y-108119502D01*
X145075518Y-108155812D01*
X145200000Y-108168072D01*
X145764250Y-108165000D01*
X145923000Y-108006250D01*
X145923000Y-106807000D01*
X146177000Y-106807000D01*
X146177000Y-108006250D01*
X146335750Y-108165000D01*
X146900000Y-108168072D01*
X147024482Y-108155812D01*
X147144180Y-108119502D01*
X147254494Y-108060537D01*
X147351185Y-107981185D01*
X147430537Y-107884494D01*
X147489502Y-107774180D01*
X147525812Y-107654482D01*
X147538072Y-107530000D01*
X147535000Y-106965750D01*
X147376250Y-106807000D01*
X146177000Y-106807000D01*
X145923000Y-106807000D01*
X144723750Y-106807000D01*
X144565000Y-106965750D01*
X144561928Y-107530000D01*
X142905897Y-107530000D01*
X143007015Y-107447015D01*
X143040827Y-107405815D01*
X144562224Y-105884418D01*
X144565000Y-106394250D01*
X144723750Y-106553000D01*
X145923000Y-106553000D01*
X145923000Y-106533000D01*
X146177000Y-106533000D01*
X146177000Y-106553000D01*
X147376250Y-106553000D01*
X147535000Y-106394250D01*
X147537776Y-105884418D01*
X149059178Y-107405821D01*
X149092985Y-107447015D01*
X149257360Y-107581914D01*
X149444894Y-107682153D01*
X149648381Y-107743880D01*
X149806971Y-107759500D01*
X149806978Y-107759500D01*
X149859999Y-107764722D01*
X149913021Y-107759500D01*
X156156971Y-107759500D01*
X156210000Y-107764723D01*
X156263029Y-107759500D01*
X156421619Y-107743880D01*
X156625106Y-107682153D01*
X156812640Y-107581914D01*
X156977015Y-107447015D01*
X157010827Y-107405815D01*
X159475821Y-104940822D01*
X159517015Y-104907015D01*
X159651914Y-104742640D01*
X159752153Y-104555106D01*
X159813880Y-104351619D01*
X159829500Y-104193029D01*
X159829500Y-104193022D01*
X159834722Y-104140001D01*
X159829500Y-104086979D01*
X159829500Y-103988072D01*
X160500000Y-103988072D01*
X160624482Y-103975812D01*
X160744180Y-103939502D01*
X160854494Y-103880537D01*
X160951185Y-103801185D01*
X161030537Y-103704494D01*
X161089502Y-103594180D01*
X161125812Y-103474482D01*
X161138072Y-103350000D01*
X162611928Y-103350000D01*
X162624188Y-103474482D01*
X162660498Y-103594180D01*
X162719463Y-103704494D01*
X162798815Y-103801185D01*
X162895506Y-103880537D01*
X163005820Y-103939502D01*
X163125518Y-103975812D01*
X163250000Y-103988072D01*
X164464250Y-103985000D01*
X164623000Y-103826250D01*
X164623000Y-101727000D01*
X164877000Y-101727000D01*
X164877000Y-103826250D01*
X165035750Y-103985000D01*
X166250000Y-103988072D01*
X166374482Y-103975812D01*
X166494180Y-103939502D01*
X166604494Y-103880537D01*
X166701185Y-103801185D01*
X166780537Y-103704494D01*
X166839502Y-103594180D01*
X166875812Y-103474482D01*
X166888072Y-103350000D01*
X166885000Y-101885750D01*
X166726250Y-101727000D01*
X164877000Y-101727000D01*
X164623000Y-101727000D01*
X162773750Y-101727000D01*
X162615000Y-101885750D01*
X162611928Y-103350000D01*
X161138072Y-103350000D01*
X161138072Y-99850000D01*
X162611928Y-99850000D01*
X162615000Y-101314250D01*
X162773750Y-101473000D01*
X164623000Y-101473000D01*
X164623000Y-99373750D01*
X164877000Y-99373750D01*
X164877000Y-101473000D01*
X166726250Y-101473000D01*
X166885000Y-101314250D01*
X166888072Y-99850000D01*
X166875812Y-99725518D01*
X166839502Y-99605820D01*
X166780537Y-99495506D01*
X166701185Y-99398815D01*
X166604494Y-99319463D01*
X166494180Y-99260498D01*
X166374482Y-99224188D01*
X166250000Y-99211928D01*
X165035750Y-99215000D01*
X164877000Y-99373750D01*
X164623000Y-99373750D01*
X164464250Y-99215000D01*
X163250000Y-99211928D01*
X163125518Y-99224188D01*
X163005820Y-99260498D01*
X162895506Y-99319463D01*
X162798815Y-99398815D01*
X162719463Y-99495506D01*
X162660498Y-99605820D01*
X162624188Y-99725518D01*
X162611928Y-99850000D01*
X161138072Y-99850000D01*
X161125812Y-99725518D01*
X161089502Y-99605820D01*
X161030537Y-99495506D01*
X160951185Y-99398815D01*
X160854494Y-99319463D01*
X160777869Y-99278506D01*
X160875000Y-99288072D01*
X162625000Y-99288072D01*
X162920186Y-99258999D01*
X163204028Y-99172896D01*
X163465618Y-99033073D01*
X163694903Y-98844903D01*
X163883073Y-98615618D01*
X164022896Y-98354028D01*
X164108999Y-98070186D01*
X164138072Y-97775000D01*
X164138072Y-96025000D01*
X164108999Y-95729814D01*
X164022896Y-95445972D01*
X163883073Y-95184382D01*
X163694903Y-94955097D01*
X163465618Y-94766927D01*
X163204028Y-94627104D01*
X162920186Y-94541001D01*
X162625000Y-94511928D01*
X160875000Y-94511928D01*
X160579814Y-94541001D01*
X160295972Y-94627104D01*
X160034382Y-94766927D01*
X159805097Y-94955097D01*
X159616927Y-95184382D01*
X159477104Y-95445972D01*
X159391001Y-95729814D01*
X159361928Y-96025000D01*
X159361928Y-97775000D01*
X159391001Y-98070186D01*
X159477104Y-98354028D01*
X159616927Y-98615618D01*
X159805097Y-98844903D01*
X160034382Y-99033073D01*
X160295972Y-99172896D01*
X160424643Y-99211928D01*
X159158571Y-99211928D01*
X155169500Y-95222858D01*
X155169500Y-94007142D01*
X159197143Y-89979500D01*
X162618556Y-89979500D01*
X162806637Y-90260983D01*
X163104017Y-90558363D01*
X163453698Y-90792012D01*
X163842244Y-90952953D01*
X164254721Y-91035000D01*
X164675279Y-91035000D01*
X165087756Y-90952953D01*
X165476302Y-90792012D01*
X165825983Y-90558363D01*
X166123363Y-90260983D01*
X166357012Y-89911302D01*
X166517953Y-89522756D01*
X166600000Y-89110279D01*
X166600000Y-88689721D01*
X166517953Y-88277244D01*
X166357012Y-87888698D01*
X166123363Y-87539017D01*
X165825983Y-87241637D01*
X165476302Y-87007988D01*
X165087756Y-86847047D01*
X164675279Y-86765000D01*
X164254721Y-86765000D01*
X163842244Y-86847047D01*
X163453698Y-87007988D01*
X163104017Y-87241637D01*
X162806637Y-87539017D01*
X162618556Y-87820500D01*
X158803021Y-87820500D01*
X158749999Y-87815278D01*
X158696978Y-87820500D01*
X158696971Y-87820500D01*
X158538381Y-87836120D01*
X158334894Y-87897847D01*
X158147360Y-87998086D01*
X157982985Y-88132985D01*
X157949178Y-88174179D01*
X154055001Y-92068357D01*
X150795827Y-88809185D01*
X150762015Y-88767985D01*
X150597640Y-88633086D01*
X150410106Y-88532847D01*
X150206619Y-88471120D01*
X150048029Y-88455500D01*
X149995000Y-88450277D01*
X149941971Y-88455500D01*
X149820394Y-88455500D01*
X149733387Y-88384095D01*
X149579851Y-88302028D01*
X149413255Y-88251492D01*
X149240001Y-88234428D01*
X147939999Y-88234428D01*
X147766745Y-88251492D01*
X147600149Y-88302028D01*
X147446613Y-88384095D01*
X147359606Y-88455500D01*
X141667354Y-88455500D01*
X141578676Y-88396247D01*
X141344821Y-88299381D01*
X141096561Y-88250000D01*
X140843439Y-88250000D01*
X140595179Y-88299381D01*
X140361324Y-88396247D01*
X140272646Y-88455500D01*
X139127354Y-88455500D01*
X139038676Y-88396247D01*
X138804821Y-88299381D01*
X138556561Y-88250000D01*
X138303439Y-88250000D01*
X138055179Y-88299381D01*
X137821324Y-88396247D01*
X137610860Y-88536875D01*
X137431875Y-88715860D01*
X137291247Y-88926324D01*
X137194381Y-89160179D01*
X137173574Y-89264783D01*
X133971430Y-92466928D01*
X133939999Y-92466928D01*
X133766745Y-92483992D01*
X133600149Y-92534528D01*
X133446613Y-92616595D01*
X133312038Y-92727038D01*
X133201595Y-92861613D01*
X133119528Y-93015149D01*
X133068992Y-93181745D01*
X133051928Y-93354999D01*
X133051928Y-94605001D01*
X133068992Y-94778255D01*
X133119528Y-94944851D01*
X133201595Y-95098387D01*
X133312038Y-95232962D01*
X133446613Y-95343405D01*
X133600149Y-95425472D01*
X133766745Y-95476008D01*
X133939999Y-95493072D01*
X134740001Y-95493072D01*
X134913255Y-95476008D01*
X135079851Y-95425472D01*
X135233387Y-95343405D01*
X135367962Y-95232962D01*
X135478405Y-95098387D01*
X135560472Y-94944851D01*
X135611008Y-94778255D01*
X135628072Y-94605001D01*
X135628072Y-93863570D01*
X136153598Y-93338044D01*
X136151928Y-93354999D01*
X136151928Y-94605001D01*
X136168992Y-94778255D01*
X136210501Y-94915092D01*
X136210500Y-97900300D01*
X136176595Y-97941614D01*
X136094528Y-98095150D01*
X136043992Y-98261746D01*
X136026928Y-98435000D01*
X136026928Y-99685000D01*
X136043992Y-99858254D01*
X136094528Y-100024850D01*
X136176595Y-100178386D01*
X136287038Y-100312962D01*
X136421614Y-100423405D01*
X136575150Y-100505472D01*
X136741746Y-100556008D01*
X136915000Y-100573072D01*
X137665000Y-100573072D01*
X137838254Y-100556008D01*
X138004850Y-100505472D01*
X138158386Y-100423405D01*
X138292962Y-100312962D01*
X138403405Y-100178386D01*
X138485472Y-100024850D01*
X138536008Y-99858254D01*
X138553072Y-99685000D01*
X138553072Y-98435000D01*
X138536008Y-98261746D01*
X138485472Y-98095150D01*
X138403405Y-97941614D01*
X138369500Y-97900300D01*
X138369500Y-95313768D01*
X138467962Y-95232962D01*
X138578405Y-95098387D01*
X138660472Y-94944851D01*
X138711008Y-94778255D01*
X138728072Y-94605001D01*
X138728072Y-93354999D01*
X138711008Y-93181745D01*
X138660472Y-93015149D01*
X138578405Y-92861613D01*
X138467962Y-92727038D01*
X138333387Y-92616595D01*
X138179851Y-92534528D01*
X138013255Y-92483992D01*
X137840001Y-92466928D01*
X137039999Y-92466928D01*
X137023045Y-92468598D01*
X138700217Y-90791426D01*
X138804821Y-90770619D01*
X139038676Y-90673753D01*
X139127354Y-90614500D01*
X140272646Y-90614500D01*
X140361324Y-90673753D01*
X140595179Y-90770619D01*
X140843439Y-90820000D01*
X141096561Y-90820000D01*
X141344821Y-90770619D01*
X141578676Y-90673753D01*
X141667354Y-90614500D01*
X147359606Y-90614500D01*
X147446613Y-90685905D01*
X147600149Y-90767972D01*
X147766745Y-90818508D01*
X147939999Y-90835572D01*
X149240001Y-90835572D01*
X149413255Y-90818508D01*
X149579851Y-90767972D01*
X149659015Y-90725658D01*
X153010500Y-94077144D01*
X153010501Y-95616961D01*
X153005277Y-95670000D01*
X153026120Y-95881618D01*
X153084945Y-96075537D01*
X153087848Y-96085106D01*
X153188087Y-96272640D01*
X153322986Y-96437015D01*
X153364180Y-96470822D01*
X156441388Y-99548030D01*
X156410498Y-99605820D01*
X156374188Y-99725518D01*
X156361928Y-99850000D01*
X156361928Y-103350000D01*
X156374188Y-103474482D01*
X156410498Y-103594180D01*
X156469463Y-103704494D01*
X156548815Y-103801185D01*
X156645506Y-103880537D01*
X156755820Y-103939502D01*
X156875518Y-103975812D01*
X157000000Y-103988072D01*
X157375285Y-103988072D01*
X155762858Y-105600500D01*
X150307143Y-105600500D01*
X148120827Y-103414185D01*
X148087015Y-103372985D01*
X147922640Y-103238086D01*
X147735106Y-103137847D01*
X147531619Y-103076120D01*
X147373029Y-103060500D01*
X147320000Y-103055277D01*
X147266971Y-103060500D01*
X147070607Y-103060500D01*
X146996632Y-102986525D01*
X146822240Y-102870000D01*
X146996632Y-102753475D01*
X147203475Y-102546632D01*
X147365990Y-102303411D01*
X147477932Y-102033158D01*
X147535000Y-101746260D01*
X147535000Y-101453740D01*
X147515409Y-101355249D01*
X149915000Y-101355249D01*
X149915000Y-101844751D01*
X150010497Y-102324848D01*
X150197821Y-102777089D01*
X150469774Y-103184095D01*
X150815905Y-103530226D01*
X151222911Y-103802179D01*
X151675152Y-103989503D01*
X152155249Y-104085000D01*
X152644751Y-104085000D01*
X153124848Y-103989503D01*
X153577089Y-103802179D01*
X153984095Y-103530226D01*
X154330226Y-103184095D01*
X154602179Y-102777089D01*
X154789503Y-102324848D01*
X154885000Y-101844751D01*
X154885000Y-101355249D01*
X154789503Y-100875152D01*
X154602179Y-100422911D01*
X154330226Y-100015905D01*
X153984095Y-99669774D01*
X153577089Y-99397821D01*
X153124848Y-99210497D01*
X152644751Y-99115000D01*
X152155249Y-99115000D01*
X151675152Y-99210497D01*
X151222911Y-99397821D01*
X150815905Y-99669774D01*
X150469774Y-100015905D01*
X150197821Y-100422911D01*
X150010497Y-100875152D01*
X149915000Y-101355249D01*
X147515409Y-101355249D01*
X147477932Y-101166842D01*
X147365990Y-100896589D01*
X147203475Y-100653368D01*
X146996632Y-100446525D01*
X146822240Y-100330000D01*
X146996632Y-100213475D01*
X147203475Y-100006632D01*
X147365990Y-99763411D01*
X147477932Y-99493158D01*
X147535000Y-99206260D01*
X147535000Y-98913740D01*
X147477932Y-98626842D01*
X147365990Y-98356589D01*
X147203475Y-98113368D01*
X146996632Y-97906525D01*
X146753411Y-97744010D01*
X146483158Y-97632068D01*
X146196260Y-97575000D01*
X145903740Y-97575000D01*
X145616842Y-97632068D01*
X145346589Y-97744010D01*
X145103368Y-97906525D01*
X144896525Y-98113368D01*
X144734010Y-98356589D01*
X144622068Y-98626842D01*
X144565000Y-98913740D01*
X144565000Y-99206260D01*
X144622068Y-99493158D01*
X144734010Y-99763411D01*
X144896525Y-100006632D01*
X145103368Y-100213475D01*
X145277760Y-100330000D01*
X145103368Y-100446525D01*
X144896525Y-100653368D01*
X144734010Y-100896589D01*
X144622068Y-101166842D01*
X144565000Y-101453740D01*
X144565000Y-101746260D01*
X144622068Y-102033158D01*
X144734010Y-102303411D01*
X144896525Y-102546632D01*
X145103368Y-102753475D01*
X145277760Y-102870000D01*
X145103368Y-102986525D01*
X145029393Y-103060500D01*
X144833021Y-103060500D01*
X144779999Y-103055278D01*
X144726978Y-103060500D01*
X144726971Y-103060500D01*
X144568381Y-103076120D01*
X144364894Y-103137847D01*
X144177360Y-103238086D01*
X144012985Y-103372985D01*
X143979178Y-103414179D01*
X142185282Y-105208076D01*
X142190095Y-105197626D01*
X142249102Y-104951476D01*
X142258952Y-104698545D01*
X142219270Y-104448551D01*
X142131578Y-104211104D01*
X142084201Y-104122466D01*
X141855527Y-104069078D01*
X141149605Y-104775000D01*
X141163748Y-104789143D01*
X140984143Y-104968748D01*
X140970000Y-104954605D01*
X140955858Y-104968748D01*
X140776253Y-104789143D01*
X140790395Y-104775000D01*
X140084473Y-104069078D01*
X139855799Y-104122466D01*
X139749905Y-104352374D01*
X139698224Y-104567962D01*
X139679270Y-104448551D01*
X139591578Y-104211104D01*
X139544201Y-104122466D01*
X139315527Y-104069078D01*
X138609605Y-104775000D01*
X138623748Y-104789143D01*
X138444143Y-104968748D01*
X138430000Y-104954605D01*
X138415858Y-104968748D01*
X138236253Y-104789143D01*
X138250395Y-104775000D01*
X137544473Y-104069078D01*
X137315799Y-104122466D01*
X137209905Y-104352374D01*
X137150898Y-104598524D01*
X137141048Y-104851455D01*
X137180730Y-105101449D01*
X137268422Y-105338896D01*
X137315799Y-105427534D01*
X137544471Y-105480921D01*
X137427602Y-105597790D01*
X137430312Y-105600500D01*
X116561765Y-105600500D01*
X116568125Y-105594140D01*
X116708753Y-105383676D01*
X116805619Y-105149821D01*
X116826426Y-105045216D01*
X117982169Y-103889473D01*
X137724078Y-103889473D01*
X138430000Y-104595395D01*
X139135922Y-103889473D01*
X140264078Y-103889473D01*
X140970000Y-104595395D01*
X141675922Y-103889473D01*
X141622534Y-103660799D01*
X141392626Y-103554905D01*
X141146476Y-103495898D01*
X140893545Y-103486048D01*
X140643551Y-103525730D01*
X140406104Y-103613422D01*
X140317466Y-103660799D01*
X140264078Y-103889473D01*
X139135922Y-103889473D01*
X139082534Y-103660799D01*
X138852626Y-103554905D01*
X138606476Y-103495898D01*
X138353545Y-103486048D01*
X138103551Y-103525730D01*
X137866104Y-103613422D01*
X137777466Y-103660799D01*
X137724078Y-103889473D01*
X117982169Y-103889473D01*
X118835821Y-103035822D01*
X118877015Y-103002015D01*
X119011914Y-102837640D01*
X119112153Y-102650106D01*
X119173880Y-102446619D01*
X119189500Y-102288029D01*
X119189500Y-102288022D01*
X119194722Y-102235001D01*
X119189500Y-102181979D01*
X119189500Y-99935000D01*
X133226928Y-99935000D01*
X133239188Y-100059482D01*
X133275498Y-100179180D01*
X133334463Y-100289494D01*
X133413815Y-100386185D01*
X133510506Y-100465537D01*
X133620820Y-100524502D01*
X133740518Y-100560812D01*
X133865000Y-100573072D01*
X134204250Y-100570000D01*
X134363000Y-100411250D01*
X134363000Y-99187000D01*
X134617000Y-99187000D01*
X134617000Y-100411250D01*
X134775750Y-100570000D01*
X135115000Y-100573072D01*
X135239482Y-100560812D01*
X135359180Y-100524502D01*
X135469494Y-100465537D01*
X135566185Y-100386185D01*
X135645537Y-100289494D01*
X135704502Y-100179180D01*
X135740812Y-100059482D01*
X135753072Y-99935000D01*
X135750000Y-99345750D01*
X135591250Y-99187000D01*
X134617000Y-99187000D01*
X134363000Y-99187000D01*
X133388750Y-99187000D01*
X133230000Y-99345750D01*
X133226928Y-99935000D01*
X119189500Y-99935000D01*
X119189500Y-98185000D01*
X133226928Y-98185000D01*
X133230000Y-98774250D01*
X133388750Y-98933000D01*
X134363000Y-98933000D01*
X134363000Y-97708750D01*
X134617000Y-97708750D01*
X134617000Y-98933000D01*
X135591250Y-98933000D01*
X135750000Y-98774250D01*
X135753072Y-98185000D01*
X135740812Y-98060518D01*
X135704502Y-97940820D01*
X135645537Y-97830506D01*
X135566185Y-97733815D01*
X135469494Y-97654463D01*
X135359180Y-97595498D01*
X135239482Y-97559188D01*
X135115000Y-97546928D01*
X134775750Y-97550000D01*
X134617000Y-97708750D01*
X134363000Y-97708750D01*
X134204250Y-97550000D01*
X133865000Y-97546928D01*
X133740518Y-97559188D01*
X133620820Y-97595498D01*
X133510506Y-97654463D01*
X133413815Y-97733815D01*
X133334463Y-97830506D01*
X133275498Y-97940820D01*
X133239188Y-98060518D01*
X133226928Y-98185000D01*
X119189500Y-98185000D01*
X119189500Y-89408439D01*
X132065000Y-89408439D01*
X132065000Y-89661561D01*
X132114381Y-89909821D01*
X132211247Y-90143676D01*
X132351875Y-90354140D01*
X132530860Y-90533125D01*
X132741324Y-90673753D01*
X132975179Y-90770619D01*
X133223439Y-90820000D01*
X133476561Y-90820000D01*
X133724821Y-90770619D01*
X133958676Y-90673753D01*
X134169140Y-90533125D01*
X134348125Y-90354140D01*
X134488753Y-90143676D01*
X134585619Y-89909821D01*
X134635000Y-89661561D01*
X134635000Y-89408439D01*
X134585619Y-89160179D01*
X134488753Y-88926324D01*
X134348125Y-88715860D01*
X134169140Y-88536875D01*
X133958676Y-88396247D01*
X133724821Y-88299381D01*
X133476561Y-88250000D01*
X133223439Y-88250000D01*
X132975179Y-88299381D01*
X132741324Y-88396247D01*
X132530860Y-88536875D01*
X132351875Y-88715860D01*
X132211247Y-88926324D01*
X132114381Y-89160179D01*
X132065000Y-89408439D01*
X119189500Y-89408439D01*
X119189500Y-87072500D01*
X147051928Y-87072500D01*
X147064188Y-87196982D01*
X147100498Y-87316680D01*
X147159463Y-87426994D01*
X147238815Y-87523685D01*
X147335506Y-87603037D01*
X147445820Y-87662002D01*
X147565518Y-87698312D01*
X147690000Y-87710572D01*
X148304250Y-87707500D01*
X148463000Y-87548750D01*
X148463000Y-86537000D01*
X148717000Y-86537000D01*
X148717000Y-87548750D01*
X148875750Y-87707500D01*
X149490000Y-87710572D01*
X149614482Y-87698312D01*
X149734180Y-87662002D01*
X149844494Y-87603037D01*
X149941185Y-87523685D01*
X150020537Y-87426994D01*
X150079502Y-87316680D01*
X150115812Y-87196982D01*
X150128072Y-87072500D01*
X150125000Y-86695750D01*
X149966250Y-86537000D01*
X148717000Y-86537000D01*
X148463000Y-86537000D01*
X147213750Y-86537000D01*
X147055000Y-86695750D01*
X147051928Y-87072500D01*
X119189500Y-87072500D01*
X119189500Y-85143021D01*
X119194722Y-85089999D01*
X119189500Y-85036978D01*
X119189500Y-85036971D01*
X119173880Y-84878381D01*
X119112153Y-84674894D01*
X119011914Y-84487360D01*
X118877015Y-84322985D01*
X118835821Y-84289178D01*
X117055000Y-82508358D01*
X117055000Y-82403740D01*
X116997932Y-82116842D01*
X116885990Y-81846589D01*
X116723475Y-81603368D01*
X116516632Y-81396525D01*
X116273411Y-81234010D01*
X116003158Y-81122068D01*
X115716260Y-81065000D01*
X115423740Y-81065000D01*
X115136842Y-81122068D01*
X114866589Y-81234010D01*
X114623368Y-81396525D01*
X114491513Y-81528380D01*
X114469502Y-81455820D01*
X114410537Y-81345506D01*
X114331185Y-81248815D01*
X114234494Y-81169463D01*
X114124180Y-81110498D01*
X114004482Y-81074188D01*
X113880000Y-81061928D01*
X112180000Y-81061928D01*
X112055518Y-81074188D01*
X111935820Y-81110498D01*
X111825506Y-81169463D01*
X111728815Y-81248815D01*
X111649463Y-81345506D01*
X111590498Y-81455820D01*
X111554188Y-81575518D01*
X111541928Y-81700000D01*
X111541928Y-83400000D01*
X111554188Y-83524482D01*
X111590498Y-83644180D01*
X111649463Y-83754494D01*
X111728815Y-83851185D01*
X111825506Y-83930537D01*
X111935820Y-83989502D01*
X111950500Y-83993955D01*
X111950501Y-88837645D01*
X111891247Y-88926324D01*
X111794381Y-89160179D01*
X111745000Y-89408439D01*
X111745000Y-89661561D01*
X111794381Y-89909821D01*
X111891247Y-90143676D01*
X112031875Y-90354140D01*
X112210860Y-90533125D01*
X112421324Y-90673753D01*
X112655179Y-90770619D01*
X112903439Y-90820000D01*
X113156561Y-90820000D01*
X113404821Y-90770619D01*
X113638676Y-90673753D01*
X113727354Y-90614500D01*
X114872646Y-90614500D01*
X114961324Y-90673753D01*
X115195179Y-90770619D01*
X115443439Y-90820000D01*
X115696561Y-90820000D01*
X115944821Y-90770619D01*
X116178676Y-90673753D01*
X116389140Y-90533125D01*
X116568125Y-90354140D01*
X116708753Y-90143676D01*
X116805619Y-89909821D01*
X116855000Y-89661561D01*
X116855000Y-89408439D01*
X116805619Y-89160179D01*
X116708753Y-88926324D01*
X116568125Y-88715860D01*
X116389140Y-88536875D01*
X116178676Y-88396247D01*
X115944821Y-88299381D01*
X115696561Y-88250000D01*
X115443439Y-88250000D01*
X115195179Y-88299381D01*
X114961324Y-88396247D01*
X114872646Y-88455500D01*
X114109500Y-88455500D01*
X114109500Y-83993955D01*
X114124180Y-83989502D01*
X114234494Y-83930537D01*
X114331185Y-83851185D01*
X114410537Y-83754494D01*
X114469502Y-83644180D01*
X114491513Y-83571620D01*
X114623368Y-83703475D01*
X114866589Y-83865990D01*
X115136842Y-83977932D01*
X115423740Y-84035000D01*
X115528358Y-84035000D01*
X117030500Y-85537143D01*
X117030501Y-101787856D01*
X115299784Y-103518574D01*
X115195179Y-103539381D01*
X114961324Y-103636247D01*
X114872646Y-103695500D01*
X113727354Y-103695500D01*
X113638676Y-103636247D01*
X113404821Y-103539381D01*
X113156561Y-103490000D01*
X112903439Y-103490000D01*
X112655179Y-103539381D01*
X112421324Y-103636247D01*
X112210860Y-103776875D01*
X112031875Y-103955860D01*
X111891247Y-104166324D01*
X111794381Y-104400179D01*
X111745000Y-104648439D01*
X111745000Y-104901561D01*
X111794381Y-105149821D01*
X111891247Y-105383676D01*
X112031875Y-105594140D01*
X112038235Y-105600500D01*
X100777144Y-105600500D01*
X97638072Y-102461429D01*
X97638072Y-101355249D01*
X99115000Y-101355249D01*
X99115000Y-101844751D01*
X99210497Y-102324848D01*
X99397821Y-102777089D01*
X99669774Y-103184095D01*
X100015905Y-103530226D01*
X100422911Y-103802179D01*
X100875152Y-103989503D01*
X101355249Y-104085000D01*
X101844751Y-104085000D01*
X102324848Y-103989503D01*
X102777089Y-103802179D01*
X103184095Y-103530226D01*
X103530226Y-103184095D01*
X103802179Y-102777089D01*
X103989503Y-102324848D01*
X104085000Y-101844751D01*
X104085000Y-101355249D01*
X103989503Y-100875152D01*
X103802179Y-100422911D01*
X103530226Y-100015905D01*
X103184095Y-99669774D01*
X102777089Y-99397821D01*
X102324848Y-99210497D01*
X101844751Y-99115000D01*
X101355249Y-99115000D01*
X100875152Y-99210497D01*
X100422911Y-99397821D01*
X100015905Y-99669774D01*
X99669774Y-100015905D01*
X99397821Y-100422911D01*
X99210497Y-100875152D01*
X99115000Y-101355249D01*
X97638072Y-101355249D01*
X97638072Y-99850000D01*
X97625812Y-99725518D01*
X97589502Y-99605820D01*
X97530537Y-99495506D01*
X97451185Y-99398815D01*
X97354494Y-99319463D01*
X97244180Y-99260498D01*
X97124482Y-99224188D01*
X97000000Y-99211928D01*
X96329500Y-99211928D01*
X96329500Y-97882142D01*
X98028571Y-96183072D01*
X98415000Y-96183072D01*
X98588254Y-96166008D01*
X98754850Y-96115472D01*
X98908386Y-96033405D01*
X99042962Y-95922962D01*
X99153405Y-95788386D01*
X99235472Y-95634850D01*
X99286008Y-95468254D01*
X99303072Y-95295000D01*
X99303072Y-94495000D01*
X99286008Y-94321746D01*
X99235472Y-94155150D01*
X99153405Y-94001614D01*
X99042962Y-93867038D01*
X98908386Y-93756595D01*
X98754850Y-93674528D01*
X98588254Y-93623992D01*
X98415000Y-93606928D01*
X97165000Y-93606928D01*
X96991746Y-93623992D01*
X96825150Y-93674528D01*
X96671614Y-93756595D01*
X96537038Y-93867038D01*
X96426595Y-94001614D01*
X96344528Y-94155150D01*
X96293992Y-94321746D01*
X96276928Y-94495000D01*
X96276928Y-94881429D01*
X94524180Y-96634178D01*
X94482986Y-96667985D01*
X94348087Y-96832360D01*
X94247848Y-97019894D01*
X94247847Y-97019896D01*
X94186120Y-97223382D01*
X94165277Y-97435000D01*
X94170501Y-97488039D01*
X94170501Y-99211928D01*
X93500000Y-99211928D01*
X93375518Y-99224188D01*
X93255820Y-99260498D01*
X93145506Y-99319463D01*
X93048815Y-99398815D01*
X92969463Y-99495506D01*
X92910498Y-99605820D01*
X92874188Y-99725518D01*
X92861928Y-99850000D01*
X92861928Y-103350000D01*
X92874188Y-103474482D01*
X92910498Y-103594180D01*
X92969463Y-103704494D01*
X93048815Y-103801185D01*
X93145506Y-103880537D01*
X93222131Y-103921494D01*
X93125000Y-103911928D01*
X91375000Y-103911928D01*
X91079814Y-103941001D01*
X90795972Y-104027104D01*
X90534382Y-104166927D01*
X90305097Y-104355097D01*
X90116927Y-104584382D01*
X89977104Y-104845972D01*
X89891001Y-105129814D01*
X89861928Y-105425000D01*
X89861928Y-107175000D01*
X89891001Y-107470186D01*
X89977104Y-107754028D01*
X90116927Y-108015618D01*
X90305097Y-108244903D01*
X90534382Y-108433073D01*
X90725074Y-108535000D01*
X88933505Y-108535000D01*
X88540333Y-108496449D01*
X88194365Y-108391996D01*
X87875276Y-108222333D01*
X87595219Y-107993924D01*
X87364859Y-107715466D01*
X87192973Y-107397570D01*
X87086106Y-107052340D01*
X87045000Y-106661238D01*
X87045000Y-103350000D01*
X87111928Y-103350000D01*
X87124188Y-103474482D01*
X87160498Y-103594180D01*
X87219463Y-103704494D01*
X87298815Y-103801185D01*
X87395506Y-103880537D01*
X87505820Y-103939502D01*
X87625518Y-103975812D01*
X87750000Y-103988072D01*
X88964250Y-103985000D01*
X89123000Y-103826250D01*
X89123000Y-101727000D01*
X89377000Y-101727000D01*
X89377000Y-103826250D01*
X89535750Y-103985000D01*
X90750000Y-103988072D01*
X90874482Y-103975812D01*
X90994180Y-103939502D01*
X91104494Y-103880537D01*
X91201185Y-103801185D01*
X91280537Y-103704494D01*
X91339502Y-103594180D01*
X91375812Y-103474482D01*
X91388072Y-103350000D01*
X91385000Y-101885750D01*
X91226250Y-101727000D01*
X89377000Y-101727000D01*
X89123000Y-101727000D01*
X87273750Y-101727000D01*
X87115000Y-101885750D01*
X87111928Y-103350000D01*
X87045000Y-103350000D01*
X87045000Y-99850000D01*
X87111928Y-99850000D01*
X87115000Y-101314250D01*
X87273750Y-101473000D01*
X89123000Y-101473000D01*
X89123000Y-99373750D01*
X89377000Y-99373750D01*
X89377000Y-101473000D01*
X91226250Y-101473000D01*
X91385000Y-101314250D01*
X91388072Y-99850000D01*
X91375812Y-99725518D01*
X91339502Y-99605820D01*
X91280537Y-99495506D01*
X91201185Y-99398815D01*
X91104494Y-99319463D01*
X90994180Y-99260498D01*
X90874482Y-99224188D01*
X90750000Y-99211928D01*
X89535750Y-99215000D01*
X89377000Y-99373750D01*
X89123000Y-99373750D01*
X88964250Y-99215000D01*
X87750000Y-99211928D01*
X87625518Y-99224188D01*
X87505820Y-99260498D01*
X87395506Y-99319463D01*
X87298815Y-99398815D01*
X87219463Y-99495506D01*
X87160498Y-99605820D01*
X87124188Y-99725518D01*
X87111928Y-99850000D01*
X87045000Y-99850000D01*
X87045000Y-95545000D01*
X91196928Y-95545000D01*
X91209188Y-95669482D01*
X91245498Y-95789180D01*
X91304463Y-95899494D01*
X91383815Y-95996185D01*
X91480506Y-96075537D01*
X91590820Y-96134502D01*
X91710518Y-96170812D01*
X91835000Y-96183072D01*
X92424250Y-96180000D01*
X92583000Y-96021250D01*
X92583000Y-95022000D01*
X92837000Y-95022000D01*
X92837000Y-96021250D01*
X92995750Y-96180000D01*
X93585000Y-96183072D01*
X93709482Y-96170812D01*
X93829180Y-96134502D01*
X93939494Y-96075537D01*
X94036185Y-95996185D01*
X94115537Y-95899494D01*
X94174502Y-95789180D01*
X94210812Y-95669482D01*
X94223072Y-95545000D01*
X94220000Y-95180750D01*
X94061250Y-95022000D01*
X92837000Y-95022000D01*
X92583000Y-95022000D01*
X91358750Y-95022000D01*
X91200000Y-95180750D01*
X91196928Y-95545000D01*
X87045000Y-95545000D01*
X87045000Y-94245000D01*
X91196928Y-94245000D01*
X91200000Y-94609250D01*
X91358750Y-94768000D01*
X92583000Y-94768000D01*
X92583000Y-93768750D01*
X92837000Y-93768750D01*
X92837000Y-94768000D01*
X94061250Y-94768000D01*
X94220000Y-94609250D01*
X94223072Y-94245000D01*
X94210812Y-94120518D01*
X94174502Y-94000820D01*
X94115537Y-93890506D01*
X94036185Y-93793815D01*
X93939494Y-93714463D01*
X93829180Y-93655498D01*
X93709482Y-93619188D01*
X93585000Y-93606928D01*
X92995750Y-93610000D01*
X92837000Y-93768750D01*
X92583000Y-93768750D01*
X92424250Y-93610000D01*
X91835000Y-93606928D01*
X91710518Y-93619188D01*
X91590820Y-93655498D01*
X91480506Y-93714463D01*
X91383815Y-93793815D01*
X91304463Y-93890506D01*
X91245498Y-94000820D01*
X91209188Y-94120518D01*
X91196928Y-94245000D01*
X87045000Y-94245000D01*
X87045000Y-91395000D01*
X91196928Y-91395000D01*
X91196928Y-92195000D01*
X91213992Y-92368254D01*
X91264528Y-92534850D01*
X91346595Y-92688386D01*
X91457038Y-92822962D01*
X91591614Y-92933405D01*
X91745150Y-93015472D01*
X91911746Y-93066008D01*
X92085000Y-93083072D01*
X93335000Y-93083072D01*
X93508254Y-93066008D01*
X93674850Y-93015472D01*
X93828386Y-92933405D01*
X93962962Y-92822962D01*
X94073405Y-92688386D01*
X94155472Y-92534850D01*
X94206008Y-92368254D01*
X94223072Y-92195000D01*
X94223072Y-91395000D01*
X94206008Y-91221746D01*
X94155472Y-91055150D01*
X94073405Y-90901614D01*
X93962962Y-90767038D01*
X93828386Y-90656595D01*
X93789500Y-90635810D01*
X93789500Y-89347142D01*
X95527571Y-87609072D01*
X95861000Y-87609072D01*
X95985482Y-87596812D01*
X96105180Y-87560502D01*
X96215494Y-87501537D01*
X96312185Y-87422185D01*
X96391537Y-87325494D01*
X96450502Y-87215180D01*
X96486812Y-87095482D01*
X96499072Y-86971000D01*
X96499072Y-85749000D01*
X96486812Y-85624518D01*
X96450502Y-85504820D01*
X96391537Y-85394506D01*
X96312185Y-85297815D01*
X96215494Y-85218463D01*
X96105180Y-85159498D01*
X95985482Y-85123188D01*
X95861000Y-85110928D01*
X94639000Y-85110928D01*
X94514518Y-85123188D01*
X94394820Y-85159498D01*
X94284506Y-85218463D01*
X94187815Y-85297815D01*
X94108463Y-85394506D01*
X94049498Y-85504820D01*
X94013188Y-85624518D01*
X94000928Y-85749000D01*
X94000928Y-86082429D01*
X91984185Y-88099173D01*
X91942985Y-88132985D01*
X91808086Y-88297360D01*
X91707847Y-88484895D01*
X91707847Y-88484896D01*
X91646120Y-88688382D01*
X91625277Y-88900000D01*
X91630500Y-88953029D01*
X91630501Y-90635810D01*
X91591614Y-90656595D01*
X91457038Y-90767038D01*
X91346595Y-90901614D01*
X91264528Y-91055150D01*
X91213992Y-91221746D01*
X91196928Y-91395000D01*
X87045000Y-91395000D01*
X87045000Y-82339721D01*
X87400000Y-82339721D01*
X87400000Y-82760279D01*
X87482047Y-83172756D01*
X87642988Y-83561302D01*
X87876637Y-83910983D01*
X88174017Y-84208363D01*
X88523698Y-84442012D01*
X88912244Y-84602953D01*
X89324721Y-84685000D01*
X89745279Y-84685000D01*
X90076983Y-84619020D01*
X90202360Y-84721914D01*
X90389894Y-84822153D01*
X90593381Y-84883880D01*
X90751971Y-84899500D01*
X90751978Y-84899500D01*
X90804999Y-84904722D01*
X90858021Y-84899500D01*
X96710500Y-84899500D01*
X96710501Y-90635809D01*
X96671614Y-90656595D01*
X96537038Y-90767038D01*
X96426595Y-90901614D01*
X96344528Y-91055150D01*
X96293992Y-91221746D01*
X96276928Y-91395000D01*
X96276928Y-92195000D01*
X96293992Y-92368254D01*
X96344528Y-92534850D01*
X96426595Y-92688386D01*
X96537038Y-92822962D01*
X96671614Y-92933405D01*
X96825150Y-93015472D01*
X96991746Y-93066008D01*
X97165000Y-93083072D01*
X98415000Y-93083072D01*
X98588254Y-93066008D01*
X98754850Y-93015472D01*
X98908386Y-92933405D01*
X99042962Y-92822962D01*
X99153405Y-92688386D01*
X99235472Y-92534850D01*
X99286008Y-92368254D01*
X99303072Y-92195000D01*
X99303072Y-91395000D01*
X99286008Y-91221746D01*
X99235472Y-91055150D01*
X99153405Y-90901614D01*
X99042962Y-90767038D01*
X98908386Y-90656595D01*
X98869500Y-90635810D01*
X98869500Y-86426143D01*
X99123213Y-86679855D01*
X99131883Y-86723445D01*
X99225809Y-86950202D01*
X99362168Y-87154279D01*
X99535721Y-87327832D01*
X99739798Y-87464191D01*
X99966555Y-87558117D01*
X100207280Y-87606000D01*
X100452720Y-87606000D01*
X100693445Y-87558117D01*
X100920202Y-87464191D01*
X101124279Y-87327832D01*
X101297832Y-87154279D01*
X101434191Y-86950202D01*
X101528117Y-86723445D01*
X101576000Y-86482720D01*
X101576000Y-86237280D01*
X101528117Y-85996555D01*
X101434191Y-85769798D01*
X101297832Y-85565721D01*
X101124279Y-85392168D01*
X100920202Y-85255809D01*
X100693445Y-85161883D01*
X100649855Y-85153213D01*
X98996788Y-83500145D01*
X98988117Y-83456555D01*
X98894191Y-83229798D01*
X98757832Y-83025721D01*
X98584279Y-82852168D01*
X98380202Y-82715809D01*
X98153445Y-82621883D01*
X97912720Y-82574000D01*
X97667280Y-82574000D01*
X97426555Y-82621883D01*
X97199798Y-82715809D01*
X97162845Y-82740500D01*
X91670000Y-82740500D01*
X91670000Y-82339721D01*
X91587953Y-81927244D01*
X91427012Y-81538698D01*
X91193363Y-81189017D01*
X90895983Y-80891637D01*
X90546302Y-80657988D01*
X90157756Y-80497047D01*
X89745279Y-80415000D01*
X89324721Y-80415000D01*
X88912244Y-80497047D01*
X88523698Y-80657988D01*
X88174017Y-80891637D01*
X87876637Y-81189017D01*
X87642988Y-81538698D01*
X87482047Y-81927244D01*
X87400000Y-82339721D01*
X87045000Y-82339721D01*
X87045000Y-81313504D01*
X87083551Y-80920332D01*
X87188004Y-80574366D01*
X87357667Y-80255276D01*
X87586076Y-79975219D01*
X87864534Y-79744859D01*
X88182430Y-79572973D01*
X88527658Y-79466107D01*
X88918753Y-79425000D01*
X121150211Y-79425000D01*
X120733150Y-79554102D01*
%TA.AperFunction,Conductor*%
D20*
G36*
X120733150Y-79554102D02*
G01*
X120675896Y-79578170D01*
X120618352Y-79601419D01*
X120609907Y-79605909D01*
X120173847Y-79841686D01*
X120122384Y-79876398D01*
X120070427Y-79910398D01*
X120063015Y-79916443D01*
X119681055Y-80232427D01*
X119637308Y-80276481D01*
X119592950Y-80319919D01*
X119586853Y-80327289D01*
X119273543Y-80711445D01*
X119239192Y-80763148D01*
X119204110Y-80814384D01*
X119199561Y-80822797D01*
X118966834Y-81260493D01*
X118943171Y-81317903D01*
X118918718Y-81374958D01*
X118915889Y-81384094D01*
X118772610Y-81858659D01*
X118760548Y-81919577D01*
X118747643Y-81980289D01*
X118746643Y-81989800D01*
X118698269Y-82483156D01*
X118698269Y-82513086D01*
X118695038Y-82542831D01*
X118695004Y-82552395D01*
X118695066Y-82570127D01*
X118698090Y-82599896D01*
X118697881Y-82629815D01*
X118698814Y-82639334D01*
X118750632Y-83132340D01*
X118763109Y-83193121D01*
X118774749Y-83254142D01*
X118777513Y-83263298D01*
X118924103Y-83736851D01*
X118948167Y-83794097D01*
X118971419Y-83851648D01*
X118975907Y-83860089D01*
X118975909Y-83860094D01*
X118975912Y-83860098D01*
X119211686Y-84296153D01*
X119246398Y-84347616D01*
X119280398Y-84399573D01*
X119286443Y-84406985D01*
X119602427Y-84788945D01*
X119646500Y-84832712D01*
X119689920Y-84877050D01*
X119697289Y-84883147D01*
X120081445Y-85196457D01*
X120133148Y-85230808D01*
X120184384Y-85265890D01*
X120192797Y-85270439D01*
X120630493Y-85503166D01*
X120687882Y-85526820D01*
X120744958Y-85551283D01*
X120754095Y-85554111D01*
X121228659Y-85697390D01*
X121289577Y-85709452D01*
X121350289Y-85722357D01*
X121359801Y-85723357D01*
X121853156Y-85771731D01*
X121853163Y-85771731D01*
X121886353Y-85775000D01*
X132113647Y-85775000D01*
X132144018Y-85772009D01*
X132159815Y-85772119D01*
X132169334Y-85771186D01*
X132394686Y-85747500D01*
X147051928Y-85747500D01*
X147055000Y-86124250D01*
X147213750Y-86283000D01*
X148463000Y-86283000D01*
X148463000Y-85271250D01*
X148717000Y-85271250D01*
X148717000Y-86283000D01*
X149966250Y-86283000D01*
X150125000Y-86124250D01*
X150128072Y-85747500D01*
X150115812Y-85623018D01*
X150079502Y-85503320D01*
X150020537Y-85393006D01*
X149941185Y-85296315D01*
X149844494Y-85216963D01*
X149734180Y-85157998D01*
X149614482Y-85121688D01*
X149490000Y-85109428D01*
X148875750Y-85112500D01*
X148717000Y-85271250D01*
X148463000Y-85271250D01*
X148304250Y-85112500D01*
X147690000Y-85109428D01*
X147565518Y-85121688D01*
X147445820Y-85157998D01*
X147335506Y-85216963D01*
X147238815Y-85296315D01*
X147159463Y-85393006D01*
X147100498Y-85503320D01*
X147064188Y-85623018D01*
X147051928Y-85747500D01*
X132394686Y-85747500D01*
X132662340Y-85719368D01*
X132723121Y-85706891D01*
X132784142Y-85695251D01*
X132793298Y-85692487D01*
X133266851Y-85545897D01*
X133324097Y-85521833D01*
X133381648Y-85498581D01*
X133390089Y-85494093D01*
X133390094Y-85494091D01*
X133390098Y-85494088D01*
X133826153Y-85258314D01*
X133877616Y-85223602D01*
X133929573Y-85189602D01*
X133936985Y-85183557D01*
X134318945Y-84867573D01*
X134362712Y-84823500D01*
X134407050Y-84780080D01*
X134413147Y-84772711D01*
X134726457Y-84388555D01*
X134760808Y-84336852D01*
X134795890Y-84285616D01*
X134800439Y-84277203D01*
X134925683Y-84041653D01*
X163152952Y-84041653D01*
X163308962Y-84357214D01*
X163683745Y-84548020D01*
X164088551Y-84662044D01*
X164507824Y-84694902D01*
X164925451Y-84645334D01*
X165325383Y-84515243D01*
X165621038Y-84357214D01*
X165777048Y-84041653D01*
X164465000Y-82729605D01*
X163152952Y-84041653D01*
X134925683Y-84041653D01*
X135033166Y-83839507D01*
X135056820Y-83782118D01*
X135081283Y-83725042D01*
X135084111Y-83715905D01*
X135227390Y-83241341D01*
X135239452Y-83180423D01*
X135252357Y-83119711D01*
X135253357Y-83110199D01*
X135301731Y-82616844D01*
X135301731Y-82592824D01*
X162320098Y-82592824D01*
X162369666Y-83010451D01*
X162499757Y-83410383D01*
X162657786Y-83706038D01*
X162973347Y-83862048D01*
X164285395Y-82550000D01*
X164644605Y-82550000D01*
X165956653Y-83862048D01*
X166272214Y-83706038D01*
X166463020Y-83331255D01*
X166577044Y-82926449D01*
X166609902Y-82507176D01*
X166560334Y-82089549D01*
X166430243Y-81689617D01*
X166272214Y-81393962D01*
X165956653Y-81237952D01*
X164644605Y-82550000D01*
X164285395Y-82550000D01*
X162973347Y-81237952D01*
X162657786Y-81393962D01*
X162466980Y-81768745D01*
X162352956Y-82173551D01*
X162320098Y-82592824D01*
X135301731Y-82592824D01*
X135301731Y-82586914D01*
X135304962Y-82557169D01*
X135304996Y-82547605D01*
X135304934Y-82529873D01*
X135301910Y-82500104D01*
X135302119Y-82470185D01*
X135301186Y-82460666D01*
X135249369Y-81967660D01*
X135236886Y-81906849D01*
X135225251Y-81845858D01*
X135222487Y-81836702D01*
X135075898Y-81363150D01*
X135051830Y-81305896D01*
X135028581Y-81248352D01*
X135024091Y-81239907D01*
X134925922Y-81058347D01*
X163152952Y-81058347D01*
X164465000Y-82370395D01*
X165777048Y-81058347D01*
X165621038Y-80742786D01*
X165246255Y-80551980D01*
X164841449Y-80437956D01*
X164422176Y-80405098D01*
X164004549Y-80454666D01*
X163604617Y-80584757D01*
X163308962Y-80742786D01*
X163152952Y-81058347D01*
X134925922Y-81058347D01*
X134788314Y-80803847D01*
X134753602Y-80752384D01*
X134719602Y-80700427D01*
X134713557Y-80693015D01*
X134397573Y-80311055D01*
X134353519Y-80267308D01*
X134310081Y-80222950D01*
X134302711Y-80216853D01*
X133918555Y-79903543D01*
X133866852Y-79869192D01*
X133815616Y-79834110D01*
X133807203Y-79829561D01*
X133369507Y-79596834D01*
X133312097Y-79573171D01*
X133255042Y-79548718D01*
X133245906Y-79545889D01*
X132845501Y-79425000D01*
X165066496Y-79425000D01*
X165459668Y-79463551D01*
X165805634Y-79568004D01*
X166124724Y-79737667D01*
X166404781Y-79966076D01*
X166635141Y-80244534D01*
X166807027Y-80562430D01*
X166913893Y-80907658D01*
X166955001Y-81298763D01*
X166955000Y-106646495D01*
X166916449Y-107039667D01*
X166811996Y-107385635D01*
X166642333Y-107704724D01*
X166413924Y-107984781D01*
X166135466Y-108215141D01*
X165817570Y-108387027D01*
X165472340Y-108493894D01*
X165081238Y-108535000D01*
X93774926Y-108535000D01*
X93965618Y-108433073D01*
X94194903Y-108244903D01*
X94383073Y-108015618D01*
X94522896Y-107754028D01*
X94608999Y-107470186D01*
X94638072Y-107175000D01*
X94638072Y-105425000D01*
X94608999Y-105129814D01*
X94522896Y-104845972D01*
X94383073Y-104584382D01*
X94194903Y-104355097D01*
X93965618Y-104166927D01*
X93704028Y-104027104D01*
X93575357Y-103988072D01*
X96111429Y-103988072D01*
X99529182Y-107405826D01*
X99562985Y-107447015D01*
X99604174Y-107480818D01*
X99604175Y-107480819D01*
X99690627Y-107551768D01*
X99727360Y-107581914D01*
X99914894Y-107682153D01*
X100092048Y-107735892D01*
X100118381Y-107743880D01*
X100330000Y-107764723D01*
X100383029Y-107759500D01*
X142186971Y-107759500D01*
X142240000Y-107764723D01*
X142293029Y-107759500D01*
X142451619Y-107743880D01*
X142655106Y-107682153D01*
X142842640Y-107581914D01*
X142905897Y-107530000D01*
X144561928Y-107530000D01*
X144574188Y-107654482D01*
X144610498Y-107774180D01*
X144669463Y-107884494D01*
X144748815Y-107981185D01*
X144845506Y-108060537D01*
X144955820Y-108119502D01*
X145075518Y-108155812D01*
X145200000Y-108168072D01*
X145764250Y-108165000D01*
X145923000Y-108006250D01*
X145923000Y-106807000D01*
X146177000Y-106807000D01*
X146177000Y-108006250D01*
X146335750Y-108165000D01*
X146900000Y-108168072D01*
X147024482Y-108155812D01*
X147144180Y-108119502D01*
X147254494Y-108060537D01*
X147351185Y-107981185D01*
X147430537Y-107884494D01*
X147489502Y-107774180D01*
X147525812Y-107654482D01*
X147538072Y-107530000D01*
X147535000Y-106965750D01*
X147376250Y-106807000D01*
X146177000Y-106807000D01*
X145923000Y-106807000D01*
X144723750Y-106807000D01*
X144565000Y-106965750D01*
X144561928Y-107530000D01*
X142905897Y-107530000D01*
X143007015Y-107447015D01*
X143040827Y-107405815D01*
X144562224Y-105884418D01*
X144565000Y-106394250D01*
X144723750Y-106553000D01*
X145923000Y-106553000D01*
X145923000Y-106533000D01*
X146177000Y-106533000D01*
X146177000Y-106553000D01*
X147376250Y-106553000D01*
X147535000Y-106394250D01*
X147537776Y-105884418D01*
X149059178Y-107405821D01*
X149092985Y-107447015D01*
X149257360Y-107581914D01*
X149444894Y-107682153D01*
X149648381Y-107743880D01*
X149806971Y-107759500D01*
X149806978Y-107759500D01*
X149859999Y-107764722D01*
X149913021Y-107759500D01*
X156156971Y-107759500D01*
X156210000Y-107764723D01*
X156263029Y-107759500D01*
X156421619Y-107743880D01*
X156625106Y-107682153D01*
X156812640Y-107581914D01*
X156977015Y-107447015D01*
X157010827Y-107405815D01*
X159475821Y-104940822D01*
X159517015Y-104907015D01*
X159651914Y-104742640D01*
X159752153Y-104555106D01*
X159813880Y-104351619D01*
X159829500Y-104193029D01*
X159829500Y-104193022D01*
X159834722Y-104140001D01*
X159829500Y-104086979D01*
X159829500Y-103988072D01*
X160500000Y-103988072D01*
X160624482Y-103975812D01*
X160744180Y-103939502D01*
X160854494Y-103880537D01*
X160951185Y-103801185D01*
X161030537Y-103704494D01*
X161089502Y-103594180D01*
X161125812Y-103474482D01*
X161138072Y-103350000D01*
X162611928Y-103350000D01*
X162624188Y-103474482D01*
X162660498Y-103594180D01*
X162719463Y-103704494D01*
X162798815Y-103801185D01*
X162895506Y-103880537D01*
X163005820Y-103939502D01*
X163125518Y-103975812D01*
X163250000Y-103988072D01*
X164464250Y-103985000D01*
X164623000Y-103826250D01*
X164623000Y-101727000D01*
X164877000Y-101727000D01*
X164877000Y-103826250D01*
X165035750Y-103985000D01*
X166250000Y-103988072D01*
X166374482Y-103975812D01*
X166494180Y-103939502D01*
X166604494Y-103880537D01*
X166701185Y-103801185D01*
X166780537Y-103704494D01*
X166839502Y-103594180D01*
X166875812Y-103474482D01*
X166888072Y-103350000D01*
X166885000Y-101885750D01*
X166726250Y-101727000D01*
X164877000Y-101727000D01*
X164623000Y-101727000D01*
X162773750Y-101727000D01*
X162615000Y-101885750D01*
X162611928Y-103350000D01*
X161138072Y-103350000D01*
X161138072Y-99850000D01*
X162611928Y-99850000D01*
X162615000Y-101314250D01*
X162773750Y-101473000D01*
X164623000Y-101473000D01*
X164623000Y-99373750D01*
X164877000Y-99373750D01*
X164877000Y-101473000D01*
X166726250Y-101473000D01*
X166885000Y-101314250D01*
X166888072Y-99850000D01*
X166875812Y-99725518D01*
X166839502Y-99605820D01*
X166780537Y-99495506D01*
X166701185Y-99398815D01*
X166604494Y-99319463D01*
X166494180Y-99260498D01*
X166374482Y-99224188D01*
X166250000Y-99211928D01*
X165035750Y-99215000D01*
X164877000Y-99373750D01*
X164623000Y-99373750D01*
X164464250Y-99215000D01*
X163250000Y-99211928D01*
X163125518Y-99224188D01*
X163005820Y-99260498D01*
X162895506Y-99319463D01*
X162798815Y-99398815D01*
X162719463Y-99495506D01*
X162660498Y-99605820D01*
X162624188Y-99725518D01*
X162611928Y-99850000D01*
X161138072Y-99850000D01*
X161125812Y-99725518D01*
X161089502Y-99605820D01*
X161030537Y-99495506D01*
X160951185Y-99398815D01*
X160854494Y-99319463D01*
X160777869Y-99278506D01*
X160875000Y-99288072D01*
X162625000Y-99288072D01*
X162920186Y-99258999D01*
X163204028Y-99172896D01*
X163465618Y-99033073D01*
X163694903Y-98844903D01*
X163883073Y-98615618D01*
X164022896Y-98354028D01*
X164108999Y-98070186D01*
X164138072Y-97775000D01*
X164138072Y-96025000D01*
X164108999Y-95729814D01*
X164022896Y-95445972D01*
X163883073Y-95184382D01*
X163694903Y-94955097D01*
X163465618Y-94766927D01*
X163204028Y-94627104D01*
X162920186Y-94541001D01*
X162625000Y-94511928D01*
X160875000Y-94511928D01*
X160579814Y-94541001D01*
X160295972Y-94627104D01*
X160034382Y-94766927D01*
X159805097Y-94955097D01*
X159616927Y-95184382D01*
X159477104Y-95445972D01*
X159391001Y-95729814D01*
X159361928Y-96025000D01*
X159361928Y-97775000D01*
X159391001Y-98070186D01*
X159477104Y-98354028D01*
X159616927Y-98615618D01*
X159805097Y-98844903D01*
X160034382Y-99033073D01*
X160295972Y-99172896D01*
X160424643Y-99211928D01*
X159158571Y-99211928D01*
X155169500Y-95222858D01*
X155169500Y-94007142D01*
X159197143Y-89979500D01*
X162618556Y-89979500D01*
X162806637Y-90260983D01*
X163104017Y-90558363D01*
X163453698Y-90792012D01*
X163842244Y-90952953D01*
X164254721Y-91035000D01*
X164675279Y-91035000D01*
X165087756Y-90952953D01*
X165476302Y-90792012D01*
X165825983Y-90558363D01*
X166123363Y-90260983D01*
X166357012Y-89911302D01*
X166517953Y-89522756D01*
X166600000Y-89110279D01*
X166600000Y-88689721D01*
X166517953Y-88277244D01*
X166357012Y-87888698D01*
X166123363Y-87539017D01*
X165825983Y-87241637D01*
X165476302Y-87007988D01*
X165087756Y-86847047D01*
X164675279Y-86765000D01*
X164254721Y-86765000D01*
X163842244Y-86847047D01*
X163453698Y-87007988D01*
X163104017Y-87241637D01*
X162806637Y-87539017D01*
X162618556Y-87820500D01*
X158803021Y-87820500D01*
X158749999Y-87815278D01*
X158696978Y-87820500D01*
X158696971Y-87820500D01*
X158538381Y-87836120D01*
X158334894Y-87897847D01*
X158147360Y-87998086D01*
X157982985Y-88132985D01*
X157949178Y-88174179D01*
X154055001Y-92068357D01*
X150795827Y-88809185D01*
X150762015Y-88767985D01*
X150597640Y-88633086D01*
X150410106Y-88532847D01*
X150206619Y-88471120D01*
X150048029Y-88455500D01*
X149995000Y-88450277D01*
X149941971Y-88455500D01*
X149820394Y-88455500D01*
X149733387Y-88384095D01*
X149579851Y-88302028D01*
X149413255Y-88251492D01*
X149240001Y-88234428D01*
X147939999Y-88234428D01*
X147766745Y-88251492D01*
X147600149Y-88302028D01*
X147446613Y-88384095D01*
X147359606Y-88455500D01*
X141667354Y-88455500D01*
X141578676Y-88396247D01*
X141344821Y-88299381D01*
X141096561Y-88250000D01*
X140843439Y-88250000D01*
X140595179Y-88299381D01*
X140361324Y-88396247D01*
X140272646Y-88455500D01*
X139127354Y-88455500D01*
X139038676Y-88396247D01*
X138804821Y-88299381D01*
X138556561Y-88250000D01*
X138303439Y-88250000D01*
X138055179Y-88299381D01*
X137821324Y-88396247D01*
X137610860Y-88536875D01*
X137431875Y-88715860D01*
X137291247Y-88926324D01*
X137194381Y-89160179D01*
X137173574Y-89264783D01*
X133971430Y-92466928D01*
X133939999Y-92466928D01*
X133766745Y-92483992D01*
X133600149Y-92534528D01*
X133446613Y-92616595D01*
X133312038Y-92727038D01*
X133201595Y-92861613D01*
X133119528Y-93015149D01*
X133068992Y-93181745D01*
X133051928Y-93354999D01*
X133051928Y-94605001D01*
X133068992Y-94778255D01*
X133119528Y-94944851D01*
X133201595Y-95098387D01*
X133312038Y-95232962D01*
X133446613Y-95343405D01*
X133600149Y-95425472D01*
X133766745Y-95476008D01*
X133939999Y-95493072D01*
X134740001Y-95493072D01*
X134913255Y-95476008D01*
X135079851Y-95425472D01*
X135233387Y-95343405D01*
X135367962Y-95232962D01*
X135478405Y-95098387D01*
X135560472Y-94944851D01*
X135611008Y-94778255D01*
X135628072Y-94605001D01*
X135628072Y-93863570D01*
X136153598Y-93338044D01*
X136151928Y-93354999D01*
X136151928Y-94605001D01*
X136168992Y-94778255D01*
X136210501Y-94915092D01*
X136210500Y-97900300D01*
X136176595Y-97941614D01*
X136094528Y-98095150D01*
X136043992Y-98261746D01*
X136026928Y-98435000D01*
X136026928Y-99685000D01*
X136043992Y-99858254D01*
X136094528Y-100024850D01*
X136176595Y-100178386D01*
X136287038Y-100312962D01*
X136421614Y-100423405D01*
X136575150Y-100505472D01*
X136741746Y-100556008D01*
X136915000Y-100573072D01*
X137665000Y-100573072D01*
X137838254Y-100556008D01*
X138004850Y-100505472D01*
X138158386Y-100423405D01*
X138292962Y-100312962D01*
X138403405Y-100178386D01*
X138485472Y-100024850D01*
X138536008Y-99858254D01*
X138553072Y-99685000D01*
X138553072Y-98435000D01*
X138536008Y-98261746D01*
X138485472Y-98095150D01*
X138403405Y-97941614D01*
X138369500Y-97900300D01*
X138369500Y-95313768D01*
X138467962Y-95232962D01*
X138578405Y-95098387D01*
X138660472Y-94944851D01*
X138711008Y-94778255D01*
X138728072Y-94605001D01*
X138728072Y-93354999D01*
X138711008Y-93181745D01*
X138660472Y-93015149D01*
X138578405Y-92861613D01*
X138467962Y-92727038D01*
X138333387Y-92616595D01*
X138179851Y-92534528D01*
X138013255Y-92483992D01*
X137840001Y-92466928D01*
X137039999Y-92466928D01*
X137023045Y-92468598D01*
X138700217Y-90791426D01*
X138804821Y-90770619D01*
X139038676Y-90673753D01*
X139127354Y-90614500D01*
X140272646Y-90614500D01*
X140361324Y-90673753D01*
X140595179Y-90770619D01*
X140843439Y-90820000D01*
X141096561Y-90820000D01*
X141344821Y-90770619D01*
X141578676Y-90673753D01*
X141667354Y-90614500D01*
X147359606Y-90614500D01*
X147446613Y-90685905D01*
X147600149Y-90767972D01*
X147766745Y-90818508D01*
X147939999Y-90835572D01*
X149240001Y-90835572D01*
X149413255Y-90818508D01*
X149579851Y-90767972D01*
X149659015Y-90725658D01*
X153010500Y-94077144D01*
X153010501Y-95616961D01*
X153005277Y-95670000D01*
X153026120Y-95881618D01*
X153084945Y-96075537D01*
X153087848Y-96085106D01*
X153188087Y-96272640D01*
X153322986Y-96437015D01*
X153364180Y-96470822D01*
X156441388Y-99548030D01*
X156410498Y-99605820D01*
X156374188Y-99725518D01*
X156361928Y-99850000D01*
X156361928Y-103350000D01*
X156374188Y-103474482D01*
X156410498Y-103594180D01*
X156469463Y-103704494D01*
X156548815Y-103801185D01*
X156645506Y-103880537D01*
X156755820Y-103939502D01*
X156875518Y-103975812D01*
X157000000Y-103988072D01*
X157375285Y-103988072D01*
X155762858Y-105600500D01*
X150307143Y-105600500D01*
X148120827Y-103414185D01*
X148087015Y-103372985D01*
X147922640Y-103238086D01*
X147735106Y-103137847D01*
X147531619Y-103076120D01*
X147373029Y-103060500D01*
X147320000Y-103055277D01*
X147266971Y-103060500D01*
X147070607Y-103060500D01*
X146996632Y-102986525D01*
X146822240Y-102870000D01*
X146996632Y-102753475D01*
X147203475Y-102546632D01*
X147365990Y-102303411D01*
X147477932Y-102033158D01*
X147535000Y-101746260D01*
X147535000Y-101453740D01*
X147515409Y-101355249D01*
X149915000Y-101355249D01*
X149915000Y-101844751D01*
X150010497Y-102324848D01*
X150197821Y-102777089D01*
X150469774Y-103184095D01*
X150815905Y-103530226D01*
X151222911Y-103802179D01*
X151675152Y-103989503D01*
X152155249Y-104085000D01*
X152644751Y-104085000D01*
X153124848Y-103989503D01*
X153577089Y-103802179D01*
X153984095Y-103530226D01*
X154330226Y-103184095D01*
X154602179Y-102777089D01*
X154789503Y-102324848D01*
X154885000Y-101844751D01*
X154885000Y-101355249D01*
X154789503Y-100875152D01*
X154602179Y-100422911D01*
X154330226Y-100015905D01*
X153984095Y-99669774D01*
X153577089Y-99397821D01*
X153124848Y-99210497D01*
X152644751Y-99115000D01*
X152155249Y-99115000D01*
X151675152Y-99210497D01*
X151222911Y-99397821D01*
X150815905Y-99669774D01*
X150469774Y-100015905D01*
X150197821Y-100422911D01*
X150010497Y-100875152D01*
X149915000Y-101355249D01*
X147515409Y-101355249D01*
X147477932Y-101166842D01*
X147365990Y-100896589D01*
X147203475Y-100653368D01*
X146996632Y-100446525D01*
X146822240Y-100330000D01*
X146996632Y-100213475D01*
X147203475Y-100006632D01*
X147365990Y-99763411D01*
X147477932Y-99493158D01*
X147535000Y-99206260D01*
X147535000Y-98913740D01*
X147477932Y-98626842D01*
X147365990Y-98356589D01*
X147203475Y-98113368D01*
X146996632Y-97906525D01*
X146753411Y-97744010D01*
X146483158Y-97632068D01*
X146196260Y-97575000D01*
X145903740Y-97575000D01*
X145616842Y-97632068D01*
X145346589Y-97744010D01*
X145103368Y-97906525D01*
X144896525Y-98113368D01*
X144734010Y-98356589D01*
X144622068Y-98626842D01*
X144565000Y-98913740D01*
X144565000Y-99206260D01*
X144622068Y-99493158D01*
X144734010Y-99763411D01*
X144896525Y-100006632D01*
X145103368Y-100213475D01*
X145277760Y-100330000D01*
X145103368Y-100446525D01*
X144896525Y-100653368D01*
X144734010Y-100896589D01*
X144622068Y-101166842D01*
X144565000Y-101453740D01*
X144565000Y-101746260D01*
X144622068Y-102033158D01*
X144734010Y-102303411D01*
X144896525Y-102546632D01*
X145103368Y-102753475D01*
X145277760Y-102870000D01*
X145103368Y-102986525D01*
X145029393Y-103060500D01*
X144833021Y-103060500D01*
X144779999Y-103055278D01*
X144726978Y-103060500D01*
X144726971Y-103060500D01*
X144568381Y-103076120D01*
X144364894Y-103137847D01*
X144177360Y-103238086D01*
X144012985Y-103372985D01*
X143979178Y-103414179D01*
X142185282Y-105208076D01*
X142190095Y-105197626D01*
X142249102Y-104951476D01*
X142258952Y-104698545D01*
X142219270Y-104448551D01*
X142131578Y-104211104D01*
X142084201Y-104122466D01*
X141855527Y-104069078D01*
X141149605Y-104775000D01*
X141163748Y-104789143D01*
X140984143Y-104968748D01*
X140970000Y-104954605D01*
X140955858Y-104968748D01*
X140776253Y-104789143D01*
X140790395Y-104775000D01*
X140084473Y-104069078D01*
X139855799Y-104122466D01*
X139749905Y-104352374D01*
X139698224Y-104567962D01*
X139679270Y-104448551D01*
X139591578Y-104211104D01*
X139544201Y-104122466D01*
X139315527Y-104069078D01*
X138609605Y-104775000D01*
X138623748Y-104789143D01*
X138444143Y-104968748D01*
X138430000Y-104954605D01*
X138415858Y-104968748D01*
X138236253Y-104789143D01*
X138250395Y-104775000D01*
X137544473Y-104069078D01*
X137315799Y-104122466D01*
X137209905Y-104352374D01*
X137150898Y-104598524D01*
X137141048Y-104851455D01*
X137180730Y-105101449D01*
X137268422Y-105338896D01*
X137315799Y-105427534D01*
X137544471Y-105480921D01*
X137427602Y-105597790D01*
X137430312Y-105600500D01*
X116561765Y-105600500D01*
X116568125Y-105594140D01*
X116708753Y-105383676D01*
X116805619Y-105149821D01*
X116826426Y-105045216D01*
X117982169Y-103889473D01*
X137724078Y-103889473D01*
X138430000Y-104595395D01*
X139135922Y-103889473D01*
X140264078Y-103889473D01*
X140970000Y-104595395D01*
X141675922Y-103889473D01*
X141622534Y-103660799D01*
X141392626Y-103554905D01*
X141146476Y-103495898D01*
X140893545Y-103486048D01*
X140643551Y-103525730D01*
X140406104Y-103613422D01*
X140317466Y-103660799D01*
X140264078Y-103889473D01*
X139135922Y-103889473D01*
X139082534Y-103660799D01*
X138852626Y-103554905D01*
X138606476Y-103495898D01*
X138353545Y-103486048D01*
X138103551Y-103525730D01*
X137866104Y-103613422D01*
X137777466Y-103660799D01*
X137724078Y-103889473D01*
X117982169Y-103889473D01*
X118835821Y-103035822D01*
X118877015Y-103002015D01*
X119011914Y-102837640D01*
X119112153Y-102650106D01*
X119173880Y-102446619D01*
X119189500Y-102288029D01*
X119189500Y-102288022D01*
X119194722Y-102235001D01*
X119189500Y-102181979D01*
X119189500Y-99935000D01*
X133226928Y-99935000D01*
X133239188Y-100059482D01*
X133275498Y-100179180D01*
X133334463Y-100289494D01*
X133413815Y-100386185D01*
X133510506Y-100465537D01*
X133620820Y-100524502D01*
X133740518Y-100560812D01*
X133865000Y-100573072D01*
X134204250Y-100570000D01*
X134363000Y-100411250D01*
X134363000Y-99187000D01*
X134617000Y-99187000D01*
X134617000Y-100411250D01*
X134775750Y-100570000D01*
X135115000Y-100573072D01*
X135239482Y-100560812D01*
X135359180Y-100524502D01*
X135469494Y-100465537D01*
X135566185Y-100386185D01*
X135645537Y-100289494D01*
X135704502Y-100179180D01*
X135740812Y-100059482D01*
X135753072Y-99935000D01*
X135750000Y-99345750D01*
X135591250Y-99187000D01*
X134617000Y-99187000D01*
X134363000Y-99187000D01*
X133388750Y-99187000D01*
X133230000Y-99345750D01*
X133226928Y-99935000D01*
X119189500Y-99935000D01*
X119189500Y-98185000D01*
X133226928Y-98185000D01*
X133230000Y-98774250D01*
X133388750Y-98933000D01*
X134363000Y-98933000D01*
X134363000Y-97708750D01*
X134617000Y-97708750D01*
X134617000Y-98933000D01*
X135591250Y-98933000D01*
X135750000Y-98774250D01*
X135753072Y-98185000D01*
X135740812Y-98060518D01*
X135704502Y-97940820D01*
X135645537Y-97830506D01*
X135566185Y-97733815D01*
X135469494Y-97654463D01*
X135359180Y-97595498D01*
X135239482Y-97559188D01*
X135115000Y-97546928D01*
X134775750Y-97550000D01*
X134617000Y-97708750D01*
X134363000Y-97708750D01*
X134204250Y-97550000D01*
X133865000Y-97546928D01*
X133740518Y-97559188D01*
X133620820Y-97595498D01*
X133510506Y-97654463D01*
X133413815Y-97733815D01*
X133334463Y-97830506D01*
X133275498Y-97940820D01*
X133239188Y-98060518D01*
X133226928Y-98185000D01*
X119189500Y-98185000D01*
X119189500Y-89408439D01*
X132065000Y-89408439D01*
X132065000Y-89661561D01*
X132114381Y-89909821D01*
X132211247Y-90143676D01*
X132351875Y-90354140D01*
X132530860Y-90533125D01*
X132741324Y-90673753D01*
X132975179Y-90770619D01*
X133223439Y-90820000D01*
X133476561Y-90820000D01*
X133724821Y-90770619D01*
X133958676Y-90673753D01*
X134169140Y-90533125D01*
X134348125Y-90354140D01*
X134488753Y-90143676D01*
X134585619Y-89909821D01*
X134635000Y-89661561D01*
X134635000Y-89408439D01*
X134585619Y-89160179D01*
X134488753Y-88926324D01*
X134348125Y-88715860D01*
X134169140Y-88536875D01*
X133958676Y-88396247D01*
X133724821Y-88299381D01*
X133476561Y-88250000D01*
X133223439Y-88250000D01*
X132975179Y-88299381D01*
X132741324Y-88396247D01*
X132530860Y-88536875D01*
X132351875Y-88715860D01*
X132211247Y-88926324D01*
X132114381Y-89160179D01*
X132065000Y-89408439D01*
X119189500Y-89408439D01*
X119189500Y-87072500D01*
X147051928Y-87072500D01*
X147064188Y-87196982D01*
X147100498Y-87316680D01*
X147159463Y-87426994D01*
X147238815Y-87523685D01*
X147335506Y-87603037D01*
X147445820Y-87662002D01*
X147565518Y-87698312D01*
X147690000Y-87710572D01*
X148304250Y-87707500D01*
X148463000Y-87548750D01*
X148463000Y-86537000D01*
X148717000Y-86537000D01*
X148717000Y-87548750D01*
X148875750Y-87707500D01*
X149490000Y-87710572D01*
X149614482Y-87698312D01*
X149734180Y-87662002D01*
X149844494Y-87603037D01*
X149941185Y-87523685D01*
X150020537Y-87426994D01*
X150079502Y-87316680D01*
X150115812Y-87196982D01*
X150128072Y-87072500D01*
X150125000Y-86695750D01*
X149966250Y-86537000D01*
X148717000Y-86537000D01*
X148463000Y-86537000D01*
X147213750Y-86537000D01*
X147055000Y-86695750D01*
X147051928Y-87072500D01*
X119189500Y-87072500D01*
X119189500Y-85143021D01*
X119194722Y-85089999D01*
X119189500Y-85036978D01*
X119189500Y-85036971D01*
X119173880Y-84878381D01*
X119112153Y-84674894D01*
X119011914Y-84487360D01*
X118877015Y-84322985D01*
X118835821Y-84289178D01*
X117055000Y-82508358D01*
X117055000Y-82403740D01*
X116997932Y-82116842D01*
X116885990Y-81846589D01*
X116723475Y-81603368D01*
X116516632Y-81396525D01*
X116273411Y-81234010D01*
X116003158Y-81122068D01*
X115716260Y-81065000D01*
X115423740Y-81065000D01*
X115136842Y-81122068D01*
X114866589Y-81234010D01*
X114623368Y-81396525D01*
X114491513Y-81528380D01*
X114469502Y-81455820D01*
X114410537Y-81345506D01*
X114331185Y-81248815D01*
X114234494Y-81169463D01*
X114124180Y-81110498D01*
X114004482Y-81074188D01*
X113880000Y-81061928D01*
X112180000Y-81061928D01*
X112055518Y-81074188D01*
X111935820Y-81110498D01*
X111825506Y-81169463D01*
X111728815Y-81248815D01*
X111649463Y-81345506D01*
X111590498Y-81455820D01*
X111554188Y-81575518D01*
X111541928Y-81700000D01*
X111541928Y-83400000D01*
X111554188Y-83524482D01*
X111590498Y-83644180D01*
X111649463Y-83754494D01*
X111728815Y-83851185D01*
X111825506Y-83930537D01*
X111935820Y-83989502D01*
X111950500Y-83993955D01*
X111950501Y-88837645D01*
X111891247Y-88926324D01*
X111794381Y-89160179D01*
X111745000Y-89408439D01*
X111745000Y-89661561D01*
X111794381Y-89909821D01*
X111891247Y-90143676D01*
X112031875Y-90354140D01*
X112210860Y-90533125D01*
X112421324Y-90673753D01*
X112655179Y-90770619D01*
X112903439Y-90820000D01*
X113156561Y-90820000D01*
X113404821Y-90770619D01*
X113638676Y-90673753D01*
X113727354Y-90614500D01*
X114872646Y-90614500D01*
X114961324Y-90673753D01*
X115195179Y-90770619D01*
X115443439Y-90820000D01*
X115696561Y-90820000D01*
X115944821Y-90770619D01*
X116178676Y-90673753D01*
X116389140Y-90533125D01*
X116568125Y-90354140D01*
X116708753Y-90143676D01*
X116805619Y-89909821D01*
X116855000Y-89661561D01*
X116855000Y-89408439D01*
X116805619Y-89160179D01*
X116708753Y-88926324D01*
X116568125Y-88715860D01*
X116389140Y-88536875D01*
X116178676Y-88396247D01*
X115944821Y-88299381D01*
X115696561Y-88250000D01*
X115443439Y-88250000D01*
X115195179Y-88299381D01*
X114961324Y-88396247D01*
X114872646Y-88455500D01*
X114109500Y-88455500D01*
X114109500Y-83993955D01*
X114124180Y-83989502D01*
X114234494Y-83930537D01*
X114331185Y-83851185D01*
X114410537Y-83754494D01*
X114469502Y-83644180D01*
X114491513Y-83571620D01*
X114623368Y-83703475D01*
X114866589Y-83865990D01*
X115136842Y-83977932D01*
X115423740Y-84035000D01*
X115528358Y-84035000D01*
X117030500Y-85537143D01*
X117030501Y-101787856D01*
X115299784Y-103518574D01*
X115195179Y-103539381D01*
X114961324Y-103636247D01*
X114872646Y-103695500D01*
X113727354Y-103695500D01*
X113638676Y-103636247D01*
X113404821Y-103539381D01*
X113156561Y-103490000D01*
X112903439Y-103490000D01*
X112655179Y-103539381D01*
X112421324Y-103636247D01*
X112210860Y-103776875D01*
X112031875Y-103955860D01*
X111891247Y-104166324D01*
X111794381Y-104400179D01*
X111745000Y-104648439D01*
X111745000Y-104901561D01*
X111794381Y-105149821D01*
X111891247Y-105383676D01*
X112031875Y-105594140D01*
X112038235Y-105600500D01*
X100777144Y-105600500D01*
X97638072Y-102461429D01*
X97638072Y-101355249D01*
X99115000Y-101355249D01*
X99115000Y-101844751D01*
X99210497Y-102324848D01*
X99397821Y-102777089D01*
X99669774Y-103184095D01*
X100015905Y-103530226D01*
X100422911Y-103802179D01*
X100875152Y-103989503D01*
X101355249Y-104085000D01*
X101844751Y-104085000D01*
X102324848Y-103989503D01*
X102777089Y-103802179D01*
X103184095Y-103530226D01*
X103530226Y-103184095D01*
X103802179Y-102777089D01*
X103989503Y-102324848D01*
X104085000Y-101844751D01*
X104085000Y-101355249D01*
X103989503Y-100875152D01*
X103802179Y-100422911D01*
X103530226Y-100015905D01*
X103184095Y-99669774D01*
X102777089Y-99397821D01*
X102324848Y-99210497D01*
X101844751Y-99115000D01*
X101355249Y-99115000D01*
X100875152Y-99210497D01*
X100422911Y-99397821D01*
X100015905Y-99669774D01*
X99669774Y-100015905D01*
X99397821Y-100422911D01*
X99210497Y-100875152D01*
X99115000Y-101355249D01*
X97638072Y-101355249D01*
X97638072Y-99850000D01*
X97625812Y-99725518D01*
X97589502Y-99605820D01*
X97530537Y-99495506D01*
X97451185Y-99398815D01*
X97354494Y-99319463D01*
X97244180Y-99260498D01*
X97124482Y-99224188D01*
X97000000Y-99211928D01*
X96329500Y-99211928D01*
X96329500Y-97882142D01*
X98028571Y-96183072D01*
X98415000Y-96183072D01*
X98588254Y-96166008D01*
X98754850Y-96115472D01*
X98908386Y-96033405D01*
X99042962Y-95922962D01*
X99153405Y-95788386D01*
X99235472Y-95634850D01*
X99286008Y-95468254D01*
X99303072Y-95295000D01*
X99303072Y-94495000D01*
X99286008Y-94321746D01*
X99235472Y-94155150D01*
X99153405Y-94001614D01*
X99042962Y-93867038D01*
X98908386Y-93756595D01*
X98754850Y-93674528D01*
X98588254Y-93623992D01*
X98415000Y-93606928D01*
X97165000Y-93606928D01*
X96991746Y-93623992D01*
X96825150Y-93674528D01*
X96671614Y-93756595D01*
X96537038Y-93867038D01*
X96426595Y-94001614D01*
X96344528Y-94155150D01*
X96293992Y-94321746D01*
X96276928Y-94495000D01*
X96276928Y-94881429D01*
X94524180Y-96634178D01*
X94482986Y-96667985D01*
X94348087Y-96832360D01*
X94247848Y-97019894D01*
X94247847Y-97019896D01*
X94186120Y-97223382D01*
X94165277Y-97435000D01*
X94170501Y-97488039D01*
X94170501Y-99211928D01*
X93500000Y-99211928D01*
X93375518Y-99224188D01*
X93255820Y-99260498D01*
X93145506Y-99319463D01*
X93048815Y-99398815D01*
X92969463Y-99495506D01*
X92910498Y-99605820D01*
X92874188Y-99725518D01*
X92861928Y-99850000D01*
X92861928Y-103350000D01*
X92874188Y-103474482D01*
X92910498Y-103594180D01*
X92969463Y-103704494D01*
X93048815Y-103801185D01*
X93145506Y-103880537D01*
X93222131Y-103921494D01*
X93125000Y-103911928D01*
X91375000Y-103911928D01*
X91079814Y-103941001D01*
X90795972Y-104027104D01*
X90534382Y-104166927D01*
X90305097Y-104355097D01*
X90116927Y-104584382D01*
X89977104Y-104845972D01*
X89891001Y-105129814D01*
X89861928Y-105425000D01*
X89861928Y-107175000D01*
X89891001Y-107470186D01*
X89977104Y-107754028D01*
X90116927Y-108015618D01*
X90305097Y-108244903D01*
X90534382Y-108433073D01*
X90725074Y-108535000D01*
X88933505Y-108535000D01*
X88540333Y-108496449D01*
X88194365Y-108391996D01*
X87875276Y-108222333D01*
X87595219Y-107993924D01*
X87364859Y-107715466D01*
X87192973Y-107397570D01*
X87086106Y-107052340D01*
X87045000Y-106661238D01*
X87045000Y-103350000D01*
X87111928Y-103350000D01*
X87124188Y-103474482D01*
X87160498Y-103594180D01*
X87219463Y-103704494D01*
X87298815Y-103801185D01*
X87395506Y-103880537D01*
X87505820Y-103939502D01*
X87625518Y-103975812D01*
X87750000Y-103988072D01*
X88964250Y-103985000D01*
X89123000Y-103826250D01*
X89123000Y-101727000D01*
X89377000Y-101727000D01*
X89377000Y-103826250D01*
X89535750Y-103985000D01*
X90750000Y-103988072D01*
X90874482Y-103975812D01*
X90994180Y-103939502D01*
X91104494Y-103880537D01*
X91201185Y-103801185D01*
X91280537Y-103704494D01*
X91339502Y-103594180D01*
X91375812Y-103474482D01*
X91388072Y-103350000D01*
X91385000Y-101885750D01*
X91226250Y-101727000D01*
X89377000Y-101727000D01*
X89123000Y-101727000D01*
X87273750Y-101727000D01*
X87115000Y-101885750D01*
X87111928Y-103350000D01*
X87045000Y-103350000D01*
X87045000Y-99850000D01*
X87111928Y-99850000D01*
X87115000Y-101314250D01*
X87273750Y-101473000D01*
X89123000Y-101473000D01*
X89123000Y-99373750D01*
X89377000Y-99373750D01*
X89377000Y-101473000D01*
X91226250Y-101473000D01*
X91385000Y-101314250D01*
X91388072Y-99850000D01*
X91375812Y-99725518D01*
X91339502Y-99605820D01*
X91280537Y-99495506D01*
X91201185Y-99398815D01*
X91104494Y-99319463D01*
X90994180Y-99260498D01*
X90874482Y-99224188D01*
X90750000Y-99211928D01*
X89535750Y-99215000D01*
X89377000Y-99373750D01*
X89123000Y-99373750D01*
X88964250Y-99215000D01*
X87750000Y-99211928D01*
X87625518Y-99224188D01*
X87505820Y-99260498D01*
X87395506Y-99319463D01*
X87298815Y-99398815D01*
X87219463Y-99495506D01*
X87160498Y-99605820D01*
X87124188Y-99725518D01*
X87111928Y-99850000D01*
X87045000Y-99850000D01*
X87045000Y-95545000D01*
X91196928Y-95545000D01*
X91209188Y-95669482D01*
X91245498Y-95789180D01*
X91304463Y-95899494D01*
X91383815Y-95996185D01*
X91480506Y-96075537D01*
X91590820Y-96134502D01*
X91710518Y-96170812D01*
X91835000Y-96183072D01*
X92424250Y-96180000D01*
X92583000Y-96021250D01*
X92583000Y-95022000D01*
X92837000Y-95022000D01*
X92837000Y-96021250D01*
X92995750Y-96180000D01*
X93585000Y-96183072D01*
X93709482Y-96170812D01*
X93829180Y-96134502D01*
X93939494Y-96075537D01*
X94036185Y-95996185D01*
X94115537Y-95899494D01*
X94174502Y-95789180D01*
X94210812Y-95669482D01*
X94223072Y-95545000D01*
X94220000Y-95180750D01*
X94061250Y-95022000D01*
X92837000Y-95022000D01*
X92583000Y-95022000D01*
X91358750Y-95022000D01*
X91200000Y-95180750D01*
X91196928Y-95545000D01*
X87045000Y-95545000D01*
X87045000Y-94245000D01*
X91196928Y-94245000D01*
X91200000Y-94609250D01*
X91358750Y-94768000D01*
X92583000Y-94768000D01*
X92583000Y-93768750D01*
X92837000Y-93768750D01*
X92837000Y-94768000D01*
X94061250Y-94768000D01*
X94220000Y-94609250D01*
X94223072Y-94245000D01*
X94210812Y-94120518D01*
X94174502Y-94000820D01*
X94115537Y-93890506D01*
X94036185Y-93793815D01*
X93939494Y-93714463D01*
X93829180Y-93655498D01*
X93709482Y-93619188D01*
X93585000Y-93606928D01*
X92995750Y-93610000D01*
X92837000Y-93768750D01*
X92583000Y-93768750D01*
X92424250Y-93610000D01*
X91835000Y-93606928D01*
X91710518Y-93619188D01*
X91590820Y-93655498D01*
X91480506Y-93714463D01*
X91383815Y-93793815D01*
X91304463Y-93890506D01*
X91245498Y-94000820D01*
X91209188Y-94120518D01*
X91196928Y-94245000D01*
X87045000Y-94245000D01*
X87045000Y-91395000D01*
X91196928Y-91395000D01*
X91196928Y-92195000D01*
X91213992Y-92368254D01*
X91264528Y-92534850D01*
X91346595Y-92688386D01*
X91457038Y-92822962D01*
X91591614Y-92933405D01*
X91745150Y-93015472D01*
X91911746Y-93066008D01*
X92085000Y-93083072D01*
X93335000Y-93083072D01*
X93508254Y-93066008D01*
X93674850Y-93015472D01*
X93828386Y-92933405D01*
X93962962Y-92822962D01*
X94073405Y-92688386D01*
X94155472Y-92534850D01*
X94206008Y-92368254D01*
X94223072Y-92195000D01*
X94223072Y-91395000D01*
X94206008Y-91221746D01*
X94155472Y-91055150D01*
X94073405Y-90901614D01*
X93962962Y-90767038D01*
X93828386Y-90656595D01*
X93789500Y-90635810D01*
X93789500Y-89347142D01*
X95527571Y-87609072D01*
X95861000Y-87609072D01*
X95985482Y-87596812D01*
X96105180Y-87560502D01*
X96215494Y-87501537D01*
X96312185Y-87422185D01*
X96391537Y-87325494D01*
X96450502Y-87215180D01*
X96486812Y-87095482D01*
X96499072Y-86971000D01*
X96499072Y-85749000D01*
X96486812Y-85624518D01*
X96450502Y-85504820D01*
X96391537Y-85394506D01*
X96312185Y-85297815D01*
X96215494Y-85218463D01*
X96105180Y-85159498D01*
X95985482Y-85123188D01*
X95861000Y-85110928D01*
X94639000Y-85110928D01*
X94514518Y-85123188D01*
X94394820Y-85159498D01*
X94284506Y-85218463D01*
X94187815Y-85297815D01*
X94108463Y-85394506D01*
X94049498Y-85504820D01*
X94013188Y-85624518D01*
X94000928Y-85749000D01*
X94000928Y-86082429D01*
X91984185Y-88099173D01*
X91942985Y-88132985D01*
X91808086Y-88297360D01*
X91707847Y-88484895D01*
X91707847Y-88484896D01*
X91646120Y-88688382D01*
X91625277Y-88900000D01*
X91630500Y-88953029D01*
X91630501Y-90635810D01*
X91591614Y-90656595D01*
X91457038Y-90767038D01*
X91346595Y-90901614D01*
X91264528Y-91055150D01*
X91213992Y-91221746D01*
X91196928Y-91395000D01*
X87045000Y-91395000D01*
X87045000Y-82339721D01*
X87400000Y-82339721D01*
X87400000Y-82760279D01*
X87482047Y-83172756D01*
X87642988Y-83561302D01*
X87876637Y-83910983D01*
X88174017Y-84208363D01*
X88523698Y-84442012D01*
X88912244Y-84602953D01*
X89324721Y-84685000D01*
X89745279Y-84685000D01*
X90076983Y-84619020D01*
X90202360Y-84721914D01*
X90389894Y-84822153D01*
X90593381Y-84883880D01*
X90751971Y-84899500D01*
X90751978Y-84899500D01*
X90804999Y-84904722D01*
X90858021Y-84899500D01*
X96710500Y-84899500D01*
X96710501Y-90635809D01*
X96671614Y-90656595D01*
X96537038Y-90767038D01*
X96426595Y-90901614D01*
X96344528Y-91055150D01*
X96293992Y-91221746D01*
X96276928Y-91395000D01*
X96276928Y-92195000D01*
X96293992Y-92368254D01*
X96344528Y-92534850D01*
X96426595Y-92688386D01*
X96537038Y-92822962D01*
X96671614Y-92933405D01*
X96825150Y-93015472D01*
X96991746Y-93066008D01*
X97165000Y-93083072D01*
X98415000Y-93083072D01*
X98588254Y-93066008D01*
X98754850Y-93015472D01*
X98908386Y-92933405D01*
X99042962Y-92822962D01*
X99153405Y-92688386D01*
X99235472Y-92534850D01*
X99286008Y-92368254D01*
X99303072Y-92195000D01*
X99303072Y-91395000D01*
X99286008Y-91221746D01*
X99235472Y-91055150D01*
X99153405Y-90901614D01*
X99042962Y-90767038D01*
X98908386Y-90656595D01*
X98869500Y-90635810D01*
X98869500Y-86426143D01*
X99123213Y-86679855D01*
X99131883Y-86723445D01*
X99225809Y-86950202D01*
X99362168Y-87154279D01*
X99535721Y-87327832D01*
X99739798Y-87464191D01*
X99966555Y-87558117D01*
X100207280Y-87606000D01*
X100452720Y-87606000D01*
X100693445Y-87558117D01*
X100920202Y-87464191D01*
X101124279Y-87327832D01*
X101297832Y-87154279D01*
X101434191Y-86950202D01*
X101528117Y-86723445D01*
X101576000Y-86482720D01*
X101576000Y-86237280D01*
X101528117Y-85996555D01*
X101434191Y-85769798D01*
X101297832Y-85565721D01*
X101124279Y-85392168D01*
X100920202Y-85255809D01*
X100693445Y-85161883D01*
X100649855Y-85153213D01*
X98996788Y-83500145D01*
X98988117Y-83456555D01*
X98894191Y-83229798D01*
X98757832Y-83025721D01*
X98584279Y-82852168D01*
X98380202Y-82715809D01*
X98153445Y-82621883D01*
X97912720Y-82574000D01*
X97667280Y-82574000D01*
X97426555Y-82621883D01*
X97199798Y-82715809D01*
X97162845Y-82740500D01*
X91670000Y-82740500D01*
X91670000Y-82339721D01*
X91587953Y-81927244D01*
X91427012Y-81538698D01*
X91193363Y-81189017D01*
X90895983Y-80891637D01*
X90546302Y-80657988D01*
X90157756Y-80497047D01*
X89745279Y-80415000D01*
X89324721Y-80415000D01*
X88912244Y-80497047D01*
X88523698Y-80657988D01*
X88174017Y-80891637D01*
X87876637Y-81189017D01*
X87642988Y-81538698D01*
X87482047Y-81927244D01*
X87400000Y-82339721D01*
X87045000Y-82339721D01*
X87045000Y-81313504D01*
X87083551Y-80920332D01*
X87188004Y-80574366D01*
X87357667Y-80255276D01*
X87586076Y-79975219D01*
X87864534Y-79744859D01*
X88182430Y-79572973D01*
X88527658Y-79466107D01*
X88918753Y-79425000D01*
X121150211Y-79425000D01*
X120733150Y-79554102D01*
G37*
%TD.AperFunction*%
%TD*%
M02*
